<svg width="24" height="24" viewBox="0 0 24 24" fill="none" xmlns="http://www.w3.org/2000/svg">
<path d="M19.3586 16.8933H4.25397C4.0208 16.8898 3.7931 16.8252 3.5957 16.7064C3.3983 16.5877 3.23878 16.4194 3.1345 16.2199C3.03021 16.0204 2.98517 15.7973 3.00429 15.575C3.02342 15.3527 3.10596 15.1398 3.24295 14.9593L4.07199 13.7988C4.43172 13.2983 4.62228 12.7042 4.61795 12.0969V10.1628C4.58163 9.23503 4.7413 8.30976 5.08746 7.44234C5.43361 6.57493 5.95913 5.78321 6.63256 5.11452C7.30599 4.44583 8.11353 3.91393 9.00683 3.55062C9.90013 3.1873 10.8609 3 11.8316 3C12.8023 3 13.763 3.1873 14.6563 3.55062C15.5496 3.91393 16.3571 4.44583 17.0306 5.11452C17.704 5.78321 18.2295 6.57493 18.5757 7.44234C18.9218 8.30976 19.0815 9.23503 19.0452 10.1628V12.0969C19.0445 12.7052 19.2385 13.2991 19.6013 13.7988L20.4303 14.9593C20.5747 15.1428 20.6614 15.3618 20.6803 15.5908C20.6992 15.8197 20.6495 16.0491 20.5371 16.252C20.4246 16.4549 20.2541 16.623 20.0454 16.7366C19.8367 16.8502 19.5985 16.9045 19.3586 16.8933Z" stroke="#646466" stroke-width="1.25" stroke-linecap="round" stroke-linejoin="round"/>
<path d="M14.3684 19.421C14.2118 19.8758 13.8805 20.276 13.4246 20.5609C12.9688 20.8458 12.4132 21 11.8421 21C11.271 21 10.7154 20.8458 10.2596 20.5609C9.80373 20.276 9.47241 19.8758 9.3158 19.421" stroke="#646466" stroke-width="1.25" stroke-linecap="round" stroke-linejoin="round"/>
</svg>
