<svg width="24" height="24" viewBox="0 0 24 24" fill="none" xmlns="http://www.w3.org/2000/svg">
<path d="M6.26163 4.00088H17.6773C17.8486 3.99497 18.0194 4.01894 18.1797 4.07133C18.3399 4.12372 18.4862 4.20346 18.6097 4.30575C18.7332 4.40805 18.8315 4.53079 18.8986 4.66661C18.9656 4.80243 19.0001 4.94852 19 5.09611V18.9048C18.9963 19.1068 18.9283 19.3042 18.8034 19.4752C18.6785 19.6463 18.5014 19.7846 18.2915 19.875C18.0816 19.9653 17.8469 20.0044 17.613 19.9878C17.3791 19.9712 17.155 19.8997 16.9651 19.781L12.8953 15.205C12.6368 15.0386 12.3227 14.9487 12 14.9487C11.6773 14.9487 11.3632 15.0386 11.1047 15.205L7.03488 19.781C6.84593 19.903 6.62125 19.9773 6.38602 19.9956C6.15078 20.0138 5.91428 19.9753 5.70303 19.8844C5.49178 19.7934 5.31411 19.6536 5.18994 19.4806C5.06577 19.3075 5 19.1082 5 18.9048V5.09611C4.99999 4.80715 5.13258 4.52989 5.3689 4.32474C5.60521 4.1196 5.92609 4.00319 6.26163 4.00088Z" stroke="#646466" stroke-linecap="round" stroke-linejoin="round"/>
</svg>
