<svg width="24" height="24" viewBox="0 0 24 24" fill="none" xmlns="http://www.w3.org/2000/svg">
<path d="M18.1318 2.5C19.9592 2.50003 21.4998 3.89156 21.5 5.67871V18.3213C21.4998 20.1084 19.9592 21.5 18.1318 21.5H5.86816C4.04076 21.5 2.50017 20.1084 2.5 18.3213V5.67871L2.50488 5.5127C2.59696 3.80613 4.09776 2.50003 5.86816 2.5H18.1318Z" stroke="#646466" stroke-linecap="round" stroke-linejoin="round"/>
<path d="M8.45746 16.2065H5.4032V19.0593H8.45746V16.2065Z" stroke="#646466" stroke-linecap="round" stroke-linejoin="round"/>
<path d="M13.527 16.2065H10.4728V19.0593H13.527V16.2065Z" stroke="#646466" stroke-linecap="round" stroke-linejoin="round"/>
<path d="M18.5971 16.2065H15.5428V19.0593H18.5971V16.2065Z" stroke="#646466" stroke-linecap="round" stroke-linejoin="round"/>
<path d="M8.45746 11.254H5.4032V14.1068H8.45746V11.254Z" stroke="#646466" stroke-linecap="round" stroke-linejoin="round"/>
<path d="M13.527 11.254H10.4728V14.1068H13.527V11.254Z" stroke="#646466" stroke-linecap="round" stroke-linejoin="round"/>
<path d="M18.5971 11.254H15.5428V14.1068H18.5971V11.254Z" stroke="#646466" stroke-linecap="round" stroke-linejoin="round"/>
<path d="M18.6125 5.30249H5.4032V8.8938H18.6125V5.30249Z" stroke="#646466" stroke-linecap="round" stroke-linejoin="round"/>
</svg>
