<svg width="24" height="24" viewBox="0 0 24 24" fill="none" xmlns="http://www.w3.org/2000/svg">
<path d="M19.2708 17.3324L14.7562 9.30636V5.04912C15.1654 4.90403 15.4593 4.51305 15.4593 4.05469C15.4593 3.47313 14.9862 3 14.4046 3H10.1859C9.60432 3 9.13119 3.47313 9.13119 4.05469C9.13119 4.51305 9.42506 4.90403 9.83431 5.04912V9.30636L5.31969 17.3324C4.88628 18.1029 4.89398 19.0185 5.34022 19.7815C5.78642 20.5445 6.58053 21 7.46443 21H17.1261C18.01 21 18.804 20.5445 19.2503 19.7815C19.6965 19.0185 19.7042 18.1029 19.2708 17.3324ZM10.4923 9.57077C10.5219 9.51818 10.5374 9.4588 10.5374 9.39844V5.10938H10.889C11.0831 5.10938 11.2406 4.95195 11.2406 4.75781C11.2406 4.56368 11.0831 4.40625 10.889 4.40625H10.1859C9.99202 4.40625 9.83431 4.24854 9.83431 4.05469C9.83431 3.86084 9.99202 3.70312 10.1859 3.70312H14.4046C14.5985 3.70312 14.7562 3.86084 14.7562 4.05469C14.7562 4.24854 14.5985 4.40625 14.4046 4.40625H13.7015C13.5074 4.40625 13.3499 4.56368 13.3499 4.75781C13.3499 4.95195 13.5074 5.10938 13.7015 5.10938H14.0531V9.39844C14.0531 9.45884 14.0686 9.51814 14.0982 9.57077L16.1703 13.2547C14.9049 13.1522 13.6438 13.4081 12.4852 14.0081C10.9958 14.7789 9.33773 14.9146 7.7743 14.4028L10.4923 9.57077ZM18.6433 19.4265C18.3246 19.9715 17.7574 20.2969 17.1261 20.2969H7.46443C6.83309 20.2969 6.26588 19.9715 5.94719 19.4265C5.62843 18.8815 5.62291 18.2275 5.93253 17.6771L7.42344 15.0266C8.14681 15.2792 8.89437 15.4067 9.65364 15.4067C9.76604 15.4067 9.87871 15.4039 9.9916 15.3983C10.9726 15.3498 11.9203 15.0921 12.8085 14.6325C13.9965 14.0174 15.3031 13.8051 16.5977 14.0144L18.658 17.6771C18.9676 18.2275 18.9621 18.8815 18.6433 19.4265Z" fill="#646466"/>
<path d="M13.7012 11.1562C13.5071 11.1562 13.3496 11.3137 13.3496 11.5078C13.3496 11.7019 13.5071 11.8594 13.7012 11.8594C13.8952 11.8594 14.0527 11.7019 14.0527 11.5078C14.0527 11.3137 13.8952 11.1562 13.7012 11.1562Z" fill="#646466"/>
<path d="M12.2953 9.04614C12.1012 9.04614 11.9437 9.20364 11.9437 9.39771C11.9437 9.59177 12.1012 9.74927 12.2953 9.74927C12.4894 9.74927 12.6469 9.59177 12.6469 9.39771C12.6469 9.20364 12.4894 9.04614 12.2953 9.04614Z" fill="#646466"/>
<path d="M8.07617 18.1882C7.88211 18.1882 7.72461 18.3457 7.72461 18.5398C7.72461 18.7339 7.88211 18.8914 8.07617 18.8914C8.27023 18.8914 8.42773 18.7339 8.42773 18.5398C8.42773 18.3457 8.27023 18.1882 8.07617 18.1882Z" fill="#646466"/>
<path d="M10.8884 11.1562C10.3069 11.1562 9.83374 11.6294 9.83374 12.2109C9.83374 12.7925 10.3069 13.2656 10.8884 13.2656C11.47 13.2656 11.9431 12.7925 11.9431 12.2109C11.9431 11.6294 11.47 11.1562 10.8884 11.1562ZM10.8884 12.5625C10.6946 12.5625 10.5369 12.4048 10.5369 12.2109C10.5369 12.0171 10.6946 11.8594 10.8884 11.8594C11.0823 11.8594 11.24 12.0171 11.24 12.2109C11.24 12.4048 11.0823 12.5625 10.8884 12.5625Z" fill="#646466"/>
<path d="M16.5139 18.1882H9.48267C9.28853 18.1882 9.1311 18.3457 9.1311 18.5398C9.1311 18.7339 9.28853 18.8914 9.48267 18.8914H16.5139C16.708 18.8914 16.8655 18.7339 16.8655 18.5398C16.8655 18.3457 16.708 18.1882 16.5139 18.1882Z" fill="#646466"/>
</svg>
