<svg width="24" height="24" viewBox="0 0 24 24" fill="none" xmlns="http://www.w3.org/2000/svg">
<path d="M21 7.94225V16.4374C21.0019 16.7909 20.9337 17.1412 20.7998 17.4684C20.6658 17.7955 20.4686 18.093 20.2193 18.3437C19.97 18.5943 19.6735 18.7932 19.3471 18.9289C19.0207 19.0646 18.6708 19.1345 18.3173 19.1345H5.69726C4.98194 19.1345 4.29579 18.8503 3.78999 18.3445C3.28418 17.8387 3 17.1527 3 16.4374V7.69708C3 6.98177 3.28418 6.29579 3.78999 5.78999C4.29579 5.28418 4.98194 5 5.69726 5H18.3173C19.0301 5.00381 19.7124 5.28961 20.2151 5.795C20.7178 6.30039 21 6.98426 21 7.69708V8.01434" stroke="#646466" stroke-linecap="round" stroke-linejoin="round"/>
<path d="M3 7.52405H20.9998" stroke="#646466" stroke-linecap="round" stroke-linejoin="round"/>
<path d="M3 10.5959H20.9998" stroke="#646466" stroke-linecap="round" stroke-linejoin="round"/>
<path d="M5.85571 13.2213H12.1585" stroke="#646466" stroke-linecap="round" stroke-linejoin="round"/>
<path d="M5.85571 15.8313H10.7162" stroke="#646466" stroke-linecap="round" stroke-linejoin="round"/>
<path d="M18.4323 13.2213H15.4468V15.9761H18.4323V13.2213Z" stroke="#646466" stroke-linecap="round" stroke-linejoin="round"/>
</svg>
