<svg width="24" height="24" viewBox="0 0 24 24" fill="none" xmlns="http://www.w3.org/2000/svg">
<path d="M18.8454 18.2357H5.16191C4.30723 18.2357 3.61438 18.9291 3.61438 19.7845C3.61438 20.6398 4.30723 21.3332 5.16191 21.3332H18.8454C19.7 21.3332 20.3929 20.6398 20.3929 19.7845C20.3929 18.9291 19.7 18.2357 18.8454 18.2357Z" stroke="#646466" stroke-linecap="round" stroke-linejoin="round"/>
<path d="M20.1783 6.95227L18.8307 18.2355H5.16947L3.83667 7.07112" stroke="#646466" stroke-linecap="round" stroke-linejoin="round"/>
<path d="M4.13271 6.98974C4.9424 6.98974 5.59879 6.35454 5.59879 5.57098C5.59879 4.78742 4.9424 4.15222 4.13271 4.15222C3.32301 4.15222 2.66663 4.78742 2.66663 5.57098C2.66663 6.35454 3.32301 6.98974 4.13271 6.98974Z" stroke="#646466" stroke-linecap="round" stroke-linejoin="round"/>
<path d="M19.8672 6.98974C20.6769 6.98974 21.3333 6.35454 21.3333 5.57098C21.3333 4.78742 20.6769 4.15222 19.8672 4.15222C19.0575 4.15222 18.4011 4.78742 18.4011 5.57098C18.4011 6.35454 19.0575 6.98974 19.8672 6.98974Z" stroke="#646466" stroke-linecap="round" stroke-linejoin="round"/>
<path d="M12.8257 5.26648C12.8257 5.26648 13.7364 8.58682 14.1141 9.41876C14.3161 9.79596 14.6162 10.1112 14.9826 10.3309C15.3489 10.5507 15.7678 10.6667 16.1947 10.6667C16.6215 10.6667 17.0404 10.5507 17.4067 10.3309C17.7731 10.1112 18.0733 9.79596 18.2754 9.41876C18.5123 8.89137 18.9417 7.59146 19.1861 6.82637" stroke="#646466" stroke-linecap="round" stroke-linejoin="round"/>
<path d="M4.82874 6.86288C5.07308 7.60568 5.4877 8.86846 5.72465 9.41813C5.92669 9.79533 6.2269 10.1106 6.59326 10.3303C6.95962 10.55 7.37849 10.6661 7.80534 10.6661C8.23219 10.6661 8.65106 10.55 9.01743 10.3303C9.38379 10.1106 9.6839 9.79533 9.88595 9.41813C10.271 8.58619 11.1744 5.25842 11.1744 5.25842" stroke="#646466" stroke-linecap="round" stroke-linejoin="round"/>
<path d="M11.9964 5.50414C12.8061 5.50414 13.4624 4.86894 13.4624 4.08538C13.4624 3.30183 12.8061 2.66663 11.9964 2.66663C11.1867 2.66663 10.5303 3.30183 10.5303 4.08538C10.5303 4.86894 11.1867 5.50414 11.9964 5.50414Z" stroke="#646466" stroke-linecap="round" stroke-linejoin="round"/>
</svg>
