<svg width="24" height="24" viewBox="0 0 24 24" fill="none" xmlns="http://www.w3.org/2000/svg">
<path d="M2.66663 5.95203H21.3333" stroke="#646466" stroke-width="1.4" stroke-linecap="round" stroke-linejoin="round"/>
<path d="M8.8477 2.66663H15.1522C15.7765 2.66663 16.3752 2.89161 16.8167 3.29209C17.2581 3.69256 17.5061 4.23573 17.5061 4.80209V5.99675H6.49379V4.80955C6.49271 4.52849 6.55279 4.25 6.6706 3.99006C6.78841 3.73011 6.96163 3.49381 7.18032 3.29473C7.399 3.09564 7.65886 2.93767 7.94499 2.82989C8.23112 2.72211 8.53788 2.66662 8.8477 2.66663V2.66663Z" stroke="#646466" stroke-width="1.4" stroke-linecap="round" stroke-linejoin="round"/>
<path d="M15.4404 21.3334H8.46091C7.36415 21.3158 6.31877 20.9086 5.5493 20.1994C4.77983 19.4902 4.34766 18.5354 4.34568 17.5403L4.02478 5.98193H19.9342L19.5144 17.5702C19.5042 18.5538 19.0739 19.4955 18.3141 20.1973C17.5544 20.8991 16.5243 21.3063 15.4404 21.3334V21.3334Z" stroke="#646466" stroke-width="1.4" stroke-linecap="round" stroke-linejoin="round"/>
</svg>
