<svg width="24" height="24" viewBox="0 0 24 24" fill="none" xmlns="http://www.w3.org/2000/svg">
<path d="M4.42249 21.3333V17.9733" stroke="#646466" stroke-width="1.25" stroke-linecap="round" stroke-linejoin="round"/>
<path d="M4.42249 14.5209V2.66663" stroke="#646466" stroke-width="1.25" stroke-linecap="round" stroke-linejoin="round"/>
<path d="M6.11903 16.2388C6.11903 15.2854 5.34618 14.5126 4.39283 14.5126C3.43947 14.5126 2.66663 15.2854 2.66663 16.2388C2.66663 17.1921 3.43947 17.965 4.39283 17.965C5.34618 17.965 6.11903 17.1921 6.11903 16.2388Z" stroke="#646466" stroke-width="1.25" stroke-linecap="round" stroke-linejoin="round"/>
<path d="M12.3634 2.66663V6.02663" stroke="#646466" stroke-width="1.25" stroke-linecap="round" stroke-linejoin="round"/>
<path d="M12.3634 9.479V21.3333" stroke="#646466" stroke-width="1.25" stroke-linecap="round" stroke-linejoin="round"/>
<path d="M10.6665 7.76123C10.6665 8.71458 11.4394 9.48743 12.3928 9.48743C13.3461 9.48743 14.1189 8.71458 14.1189 7.76123C14.1189 6.80787 13.3461 6.03503 12.3928 6.03503C11.4394 6.03503 10.6665 6.80787 10.6665 7.76123Z" stroke="#646466" stroke-width="1.25" stroke-linecap="round" stroke-linejoin="round"/>
<path d="M19.0886 21.3333V17.9733" stroke="#646466" stroke-width="1.25" stroke-linecap="round" stroke-linejoin="round"/>
<path d="M19.0886 14.5209V2.66663" stroke="#646466" stroke-width="1.25" stroke-linecap="round" stroke-linejoin="round"/>
<path d="M20.7857 16.2387C20.7857 15.2853 20.0128 14.5125 19.0595 14.5125C18.1061 14.5125 17.3333 15.2853 17.3333 16.2387C17.3333 17.192 18.1061 17.9649 19.0595 17.9649C20.0128 17.9649 20.7857 17.192 20.7857 16.2387Z" stroke="#646466" stroke-width="1.25" stroke-linecap="round" stroke-linejoin="round"/>
</svg>
