<svg width="24" height="24" viewBox="0 0 24 24" fill="none" xmlns="http://www.w3.org/2000/svg">
<g clip-path="url(#clip0_2115_957)">
<path d="M12 1C18.0751 1 23 5.92486 23 12C23 18.0751 18.0751 23 12 23C5.92487 23 1 18.0751 1 12C1.00001 5.92486 5.92488 1 12 1Z" stroke="#646466" stroke-width="2" stroke-linecap="round" stroke-linejoin="round"/>
<path d="M8.57129 8.57723C8.57066 8.12659 8.65884 7.68028 8.8308 7.26376C9.00276 6.84724 9.25514 6.46869 9.57346 6.14976C9.89181 5.83084 10.2699 5.57776 10.6861 5.40503C11.1023 5.2323 11.5484 5.14327 11.9991 5.14307C12.9086 5.14307 13.7808 5.50437 14.424 6.1475C15.0671 6.79063 15.4284 7.6629 15.4284 8.57243C15.4284 9.48194 15.0671 10.3542 14.424 10.9974C13.7808 11.6405 12.9086 12.0018 11.9991 12.0018C11.851 12.0019 11.703 11.9923 11.5562 11.973V14.8828" stroke="#646466" stroke-width="1.5" stroke-linecap="round" stroke-linejoin="round"/>
<path d="M11.5414 17.1714C12.0948 17.1717 12.5425 17.6207 12.5425 18.1742C12.5422 18.7274 12.0946 19.175 11.5414 19.1754C10.9879 19.1754 10.5388 18.7276 10.5386 18.1742C10.5386 17.6207 10.9878 17.1714 11.5414 17.1714Z" fill="#646466"/>
</g>
<defs>
<clipPath id="clip0_2115_957">
<rect width="24" height="24" fill="white"/>
</clipPath>
</defs>
</svg>
