<svg width="24" height="24" viewBox="0 0 24 24" fill="none" xmlns="http://www.w3.org/2000/svg">
<path d="M5.22638 5.66216C6.11995 4.69125 7.21011 3.9221 8.4242 3.40599C9.63828 2.88988 10.9484 2.63865 12.2671 2.6691C13.5859 2.69954 14.883 3.01098 16.072 3.58256C17.261 4.15415 18.3146 4.97276 19.1624 5.98387C20.0103 6.99498 20.633 8.17533 20.989 9.44622C21.345 10.7171 21.4261 12.0493 21.2269 13.3541C21.0277 14.6588 20.5529 15.9061 19.834 17.0127C19.115 18.1193 18.1686 19.0599 17.0577 19.7716C16.0467 20.4477 14.9125 20.9179 13.7198 21.1553C12.5272 21.3926 11.2994 21.3926 10.1068 21.1552C7.70526 20.6675 5.59368 19.2499 4.23215 17.2113C2.87061 15.1727 2.3695 12.6783 2.83794 10.2716" stroke="#646466" stroke-width="1.25" stroke-linecap="round" stroke-linejoin="round"/>
<path d="M4.28979 4.28979L4.43264 6.72458L6.72458 6.52377" stroke="#646466" stroke-linecap="round" stroke-linejoin="round"/>
<path d="M10.9711 7.23877V13.5081H17.3529" stroke="#646466" stroke-linecap="round" stroke-linejoin="round"/>
</svg>
