<svg width="24" height="24" viewBox="0 0 24 24" fill="none" xmlns="http://www.w3.org/2000/svg">
<path d="M10 18.4933V18.0152C10.0106 17.9765 10.0281 17.9414 10.0352 17.9027C10.1899 16.8972 11.0266 16.1027 12.0074 16.0359C13.1043 15.9586 14.0324 16.5843 14.3348 17.6039C14.3734 17.7374 14.4016 17.8781 14.4367 18.0152V18.4933C14.4262 18.5249 14.4086 18.5531 14.4051 18.5882C14.2539 19.5163 13.5859 20.223 12.6719 20.4234C12.6016 20.4374 12.5312 20.4585 12.4609 20.4761H11.9828C11.9512 20.4656 11.9195 20.448 11.8879 20.4445C10.9738 20.2968 10.2778 19.6464 10.0668 18.7429C10.0457 18.655 10.0211 18.5741 10 18.4933H10ZM14.4367 4.97928L14.4367 5.45744C14.4262 5.49611 14.4086 5.53127 14.4051 5.56994C14.2469 6.58244 13.4066 7.37346 12.4152 7.43674C11.3219 7.50705 10.3973 6.87424 10.0984 5.85119C10.0598 5.72109 10.0316 5.58752 10 5.45742V4.9793C10.0105 4.94766 10.0281 4.91953 10.0352 4.88789C10.2039 3.97383 10.7348 3.37617 11.6207 3.09141C11.7367 3.05273 11.8598 3.03164 11.9793 3H12.4574C12.4891 3.01055 12.5207 3.02813 12.5523 3.03164C13.4699 3.18281 14.1625 3.82969 14.3734 4.7332C14.3945 4.81758 14.4156 4.89844 14.4367 4.97928ZM14.4367 11.4973V11.9754C14.4262 12.0141 14.4086 12.0492 14.4016 12.0879C14.2434 13.0969 13.3715 13.909 12.3871 13.9512C11.2797 14.0004 10.341 13.3324 10.0773 12.3023C10.0492 12.1934 10.0246 12.0844 10 11.9754V11.4973C10.0105 11.4586 10.0281 11.4234 10.0352 11.3848C10.1898 10.3758 11.0652 9.56365 12.0496 9.51797C13.157 9.46523 14.0957 10.1367 14.3594 11.1668C14.3875 11.2793 14.4121 11.3883 14.4367 11.4973Z" fill="#646466"/>
</svg>
