<svg width="24" height="24" viewBox="0 0 24 24" fill="none" xmlns="http://www.w3.org/2000/svg">
<path d="M17.4612 8.64035C17.008 8.63986 16.5686 8.4876 16.2156 8.20879C15.8627 7.92998 15.6175 7.54134 15.5205 7.1072C15.4236 6.67307 15.4807 6.21949 15.6825 5.82154C15.8843 5.4236 16.2186 5.10516 16.6301 4.91895C17.0416 4.73275 17.5056 4.68994 17.9452 4.79761C18.3849 4.90529 18.7739 5.15699 19.0479 5.51105C19.3218 5.86511 19.4642 6.30028 19.4515 6.74453C19.4388 7.18878 19.2718 7.61546 18.9781 7.95393C18.7907 8.16883 18.5581 8.34143 18.2962 8.45991C18.0344 8.57839 17.7495 8.63995 17.4612 8.64035ZM17.4612 5.22196C17.0654 5.22351 16.6864 5.37836 16.4066 5.65277C16.1267 5.92718 15.9688 6.29892 15.9673 6.68699C15.9621 6.8825 15.9969 7.07705 16.0696 7.25916C16.1424 7.44127 16.2516 7.60725 16.3907 7.74733C16.5299 7.8874 16.6963 7.99873 16.8801 8.07474C17.0638 8.15075 17.2612 8.18991 17.4607 8.18991C17.6601 8.18991 17.8575 8.15075 18.0413 8.07474C18.225 7.99873 18.3914 7.8874 18.5306 7.74733C18.6698 7.60725 18.779 7.44127 18.8517 7.25916C18.9244 7.07705 18.9593 6.8825 18.9541 6.68699C18.9525 6.29908 18.7948 5.9275 18.5151 5.65311C18.2355 5.37873 17.8567 5.22377 17.4612 5.22196Z" fill="#646466"/>
<path d="M18.9021 19.3477L17.4882 11.1361L16.0742 19.3477L13.9744 18.9996L15.9943 7.26562L16.3452 7.65297C16.4868 7.80984 16.6611 7.93511 16.8562 8.02032C17.0514 8.10554 17.2629 8.14872 17.4765 8.14696C17.6901 8.14519 17.9009 8.09852 18.0945 8.01009C18.2882 7.92166 18.4602 7.79352 18.5991 7.63433L18.6541 7.57158L19.0201 7.49215L21.002 18.9996L18.9021 19.3477ZM17.5692 8.64142L19.3141 18.775L20.414 18.5926L18.6371 8.26781C18.3255 8.49112 17.9545 8.62091 17.5692 8.64142ZM14.5543 18.5946L15.6543 18.777L17.4022 8.64338C17.0175 8.63216 16.6442 8.5123 16.3272 8.29821L14.5543 18.5946Z" fill="#646466"/>
<path d="M20.1889 18.8839L19.6897 18.9705L20.0197 20.8003L20.5189 20.7137L20.1889 18.8839Z" fill="#646466"/>
<path d="M14.6675 18.8853L14.3372 20.7151L14.8364 20.8018L15.1667 18.972L14.6675 18.8853Z" fill="#646466"/>
<path d="M17.7531 3H17.2172V4.97788H17.7531V3Z" fill="#646466"/>
<path d="M12.4195 20.9999H12.1665C9.73539 20.9999 7.40385 20.0528 5.6848 18.367C3.96575 16.6812 3 14.3948 3 12.0107C3 9.62661 3.96575 7.34017 5.6848 5.65437C7.40385 3.96856 9.73539 3.02148 12.1665 3.02148H12.4195V20.9999ZM11.9135 3.52159C9.6632 3.58868 7.52799 4.51248 5.96042 6.09717C4.39286 7.68186 3.51617 9.80289 3.51617 12.0107C3.51617 14.2185 4.39286 16.3395 5.96042 17.9242C7.52799 19.5089 9.6632 20.4327 11.9135 20.4998V3.52159Z" fill="#646466"/>
<path d="M9.73868 17.5826H9.4857C7.38581 17.5826 5.68091 15.083 5.68091 12.0108C5.68091 8.93854 7.38781 6.43506 9.4857 6.43506H9.73868V17.5826ZM9.23271 6.95086C7.5328 7.14698 6.18688 9.34353 6.18688 12.0108C6.18688 14.678 7.53181 16.8716 9.23271 17.0707V6.95086Z" fill="#646466"/>
<path d="M12.1664 4.53369H11.1615V5.03086H12.1664V4.53369Z" fill="#646466"/>
<path d="M12.1665 6.59888H10.8936V7.09604H12.1665V6.59888Z" fill="#646466"/>
<path d="M12.1664 8.66504H11.1615V9.16221H12.1664V8.66504Z" fill="#646466"/>
<path d="M12.1665 10.7301H10.8936V11.2273H12.1665V10.7301Z" fill="#646466"/>
<path d="M12.1664 12.7961H11.1615V13.2933H12.1664V12.7961Z" fill="#646466"/>
<path d="M12.1665 14.8615H10.8936V15.3586H12.1665V14.8615Z" fill="#646466"/>
<path d="M12.1664 16.9266H11.1615V17.4238H12.1664V16.9266Z" fill="#646466"/>
<path d="M12.1665 18.9927H10.8936V19.4898H12.1665V18.9927Z" fill="#646466"/>
</svg>
