<svg width="24" height="24" viewBox="0 0 24 24" fill="none" xmlns="http://www.w3.org/2000/svg">
<path d="M13.7308 10.932C13.8077 10.9706 13.8816 11.0142 13.952 11.0627C14.852 11.8119 15.8614 12.4329 16.9488 12.9063C18.1291 13.2157 19.3683 13.2629 20.5708 13.0442C20.6986 13.0268 20.829 13.0471 20.9444 13.1023C21.1274 13.1894 21.3257 13.4071 21.3333 13.9224C21.3333 14.5975 21.3333 16.7024 21.3333 17.8855C21.3306 18.1112 21.2403 18.328 21.0798 18.4941C20.9194 18.6603 20.7 18.7641 20.464 18.7856L15.8354 19.192C14.01 19.5379 12.117 19.3403 10.4139 18.6259C8.69818 17.8129 8.3017 17.7839 7.21129 16.9782C7.01868 16.7967 6.90111 16.5553 6.8801 16.2981C6.8591 16.0408 6.93606 15.785 7.09689 15.5774C7.69166 14.7136 10.147 14.8515 11.672 15.1128C12.7349 15.2733 13.8225 15.0508 14.7222 14.4886" stroke="#646466" stroke-linecap="round" stroke-linejoin="round"/>
<path d="M3.80281 16.63C3.57176 16.5179 3.34999 16.3893 3.13942 16.2453C2.9333 16.0478 2.79794 15.7934 2.75276 15.5183C2.70757 15.2433 2.75479 14.9617 2.88772 14.7137C3.46523 13.7596 4.11246 12.8452 4.82457 11.9773C5.90736 10.6854 6.18187 10.0321 9.39973 10.0757" stroke="#646466" stroke-linecap="round" stroke-linejoin="round"/>
<path d="M8.12072 17.5725L6.81937 19.166L4 17.1104L15.6783 2.97645C15.8121 2.81093 16.0086 2.70229 16.2255 2.67397C16.4424 2.64565 16.6623 2.69992 16.8377 2.82507L18.3476 3.92456C18.5196 4.05351 18.6317 4.24183 18.6598 4.44895C18.6878 4.65608 18.6296 4.86546 18.4977 5.03201L10.4063 14.6963" stroke="#646466" stroke-linecap="round" stroke-linejoin="round"/>
<path d="M15.5836 7.869L13.2122 6.18506" stroke="#646466" stroke-linecap="round" stroke-linejoin="round"/>
<path d="M4.05438 17.1162C3.29754 18.4184 2.8255 19.8529 2.66663 21.3333C4.12857 20.7906 5.47274 19.9958 6.63172 18.9889" stroke="#646466" stroke-linecap="round" stroke-linejoin="round"/>
</svg>
