<svg width="24" height="24" viewBox="0 0 24 24" fill="none" xmlns="http://www.w3.org/2000/svg">
<path d="M12.0304 9.91125C11.5863 9.91125 11.1522 10.0337 10.783 10.2632C10.4138 10.4927 10.126 10.8189 9.95606 11.2006C9.78613 11.5822 9.74167 12.0022 9.8283 12.4073C9.91493 12.8125 10.1288 13.1846 10.4428 13.4767C10.7568 13.7688 11.1568 13.9678 11.5923 14.0483C12.0279 14.1289 12.4793 14.0876 12.8896 13.9295C13.2998 13.7714 13.6505 13.5037 13.8972 13.1602C14.1439 12.8168 14.2756 12.413 14.2756 11.9999C14.2749 11.4461 14.0382 10.9152 13.6173 10.5237C13.1963 10.1321 12.6256 9.91186 12.0304 9.91125ZM12.0304 13.5568C11.6993 13.5568 11.3757 13.4655 11.1005 13.2944C10.8253 13.1233 10.6107 12.8802 10.4841 12.5957C10.3574 12.3112 10.3242 11.9981 10.3888 11.6961C10.4534 11.3941 10.6128 11.1167 10.8469 10.8989C11.081 10.6812 11.3792 10.5329 11.7038 10.4728C12.0285 10.4127 12.365 10.4436 12.6709 10.5614C12.9767 10.6793 13.2381 10.8788 13.422 11.1349C13.6059 11.3909 13.7041 11.6919 13.7041 11.9999C13.7036 12.4127 13.5271 12.8084 13.2133 13.1003C12.8995 13.3922 12.4741 13.5564 12.0304 13.5568Z" fill="#646466"/>
<path d="M13.0104 11.7343C12.9346 11.7343 12.862 11.7623 12.8084 11.8121C12.7548 11.862 12.7247 11.9296 12.7247 12.0001C12.7242 12.1131 12.6921 12.2241 12.6314 12.322C12.5707 12.42 12.4836 12.5015 12.3787 12.5585C12.3462 12.576 12.3179 12.5994 12.2951 12.6272C12.2724 12.655 12.2558 12.6866 12.2462 12.7204C12.2367 12.7542 12.2344 12.7893 12.2394 12.8239C12.2445 12.8585 12.2568 12.8919 12.2757 12.922C12.2946 12.9522 12.3197 12.9786 12.3496 12.9997C12.3795 13.0209 12.4135 13.0363 12.4498 13.0452C12.4861 13.0541 12.5239 13.0563 12.5611 13.0516C12.5983 13.0469 12.6341 13.0354 12.6665 13.0178C12.8577 12.9139 13.0163 12.7653 13.1267 12.5868C13.2372 12.4083 13.2956 12.206 13.2962 12.0001C13.2962 11.9296 13.2661 11.862 13.2125 11.8121C13.1589 11.7623 13.0862 11.7343 13.0104 11.7343Z" fill="#646466"/>
<path d="M19.4161 11.3787C19.5202 11.4042 19.6275 11.4173 19.7351 11.4176C19.9853 11.4175 20.2299 11.3484 20.4378 11.219C20.6458 11.0897 20.8079 10.9059 20.9037 10.6909C20.9994 10.4759 21.0245 10.2393 20.9758 10.011C20.9271 9.78271 20.8068 9.57298 20.63 9.4083C20.6092 9.38916 20.5872 9.37185 20.5647 9.35408C20.7769 8.63803 20.7279 8.01433 20.409 7.5C19.7232 6.39418 17.9223 6.0319 15.4513 6.48957C14.6393 4.27003 13.4009 3 12.0306 3C10.6603 3 9.42204 4.26987 8.60919 6.48972C6.13766 6.03175 4.33725 6.39418 3.6516 7.49985C3.3425 7.99656 3.28829 8.62071 3.48538 9.31352C3.25274 9.48294 3.09117 9.72275 3.02865 9.99137C2.96614 10.26 3.00663 10.5405 3.14311 10.7842C3.27958 11.028 3.50344 11.2197 3.77588 11.326C4.04832 11.4323 4.35217 11.4466 4.63476 11.3664C4.80426 11.5762 4.98991 11.7884 5.18994 12.0009C3.52947 13.7635 2.96628 15.3954 3.65144 16.5C4.14375 17.294 5.20937 17.7058 6.68582 17.7058C7.33215 17.6984 7.97619 17.6327 8.60887 17.5095C9.42155 19.7297 10.6601 21 12.0306 21C12.6498 21 13.2605 20.7299 13.8093 20.2217C14.0793 20.3317 14.3822 20.3506 14.6655 20.275C14.9489 20.1994 15.195 20.0341 15.3613 19.8076C15.5276 19.5812 15.6036 19.3078 15.5762 19.0348C15.5489 18.7617 15.4198 18.5061 15.2114 18.3122C15.1908 18.2929 15.1688 18.2754 15.1471 18.2578C15.254 18.0225 15.3564 17.7717 15.4531 17.5095C16.0855 17.6328 16.7292 17.6985 17.3753 17.7058C18.8516 17.7058 19.9174 17.2938 20.4097 16.5C21.0955 15.3954 20.5317 13.7635 18.8715 12.0011C19.0642 11.7965 19.2461 11.5884 19.4161 11.3787ZM20.2257 10.6973C20.0954 10.8181 19.919 10.886 19.7351 10.886C19.5511 10.886 19.3747 10.8181 19.2445 10.6973C19.1475 10.6071 19.0815 10.4921 19.0548 10.3669C19.0281 10.2418 19.0418 10.1121 19.0944 9.99418C19.1469 9.8763 19.2358 9.77555 19.3498 9.70467C19.4639 9.63379 19.598 9.59596 19.7351 9.59596C19.8723 9.59596 20.0064 9.63379 20.1205 9.70467C20.2345 9.77555 20.3234 9.8763 20.3759 9.99418C20.4285 10.1121 20.4422 10.2418 20.4155 10.3669C20.3888 10.4921 20.3228 10.6071 20.2258 10.6973H20.2257ZM19.9146 7.76567C20.1381 8.12673 20.1813 8.57559 20.0467 9.10238C19.7784 9.0389 19.495 9.05909 19.2402 9.15987C18.9854 9.26064 18.7732 9.43641 18.6361 9.66022C18.4991 9.88402 18.4448 10.1435 18.4815 10.3988C18.5183 10.6541 18.6441 10.8911 18.8397 11.0734C18.8603 11.0927 18.8823 11.11 18.904 11.1278C18.7714 11.2884 18.6314 11.4478 18.484 11.606C17.7836 10.9294 17.0207 10.3113 16.2042 9.75873C16.0976 8.82498 15.9042 7.90158 15.6262 6.99889C17.7796 6.61154 19.3722 6.89089 19.9146 7.76552V7.76567ZM15.0659 16.8884C14.2709 16.708 13.4916 16.4723 12.7345 16.1834C13.2219 15.9643 13.7074 15.7261 14.1837 15.4703C14.6637 15.2121 15.1283 14.9398 15.5716 14.6581C15.4632 15.4122 15.2942 16.1578 15.0659 16.8884ZM8.9952 16.8884C8.76677 16.1578 8.59756 15.4122 8.48901 14.6581C8.93348 14.9398 9.39787 15.2124 9.87778 15.4703C10.3536 15.7261 10.8386 15.9646 11.3268 16.1834C10.5696 16.4723 9.79025 16.708 8.9952 16.8884ZM8.9952 7.11159C9.7902 7.29202 10.5695 7.52767 11.3266 7.81656C10.8391 8.03575 10.3538 8.27392 9.87745 8.53048C9.39738 8.78871 8.93283 9.06091 8.48869 9.34268C8.59729 8.58825 8.7666 7.84246 8.9952 7.11159ZM7.78508 13.5242C7.13687 13.0598 6.52757 12.5503 5.96246 12C6.52762 11.4497 7.13692 10.9402 7.78508 10.4758C7.74475 10.9771 7.72335 11.4879 7.72335 12C7.72335 12.5121 7.74442 13.0223 7.78508 13.5242ZM10.1637 15.0097C9.54516 14.6775 8.95324 14.3209 8.39904 13.9499C8.33079 13.3133 8.29486 12.6588 8.29486 12C8.29486 11.3412 8.33079 10.6868 8.39904 10.0501C8.95275 9.67944 9.54483 9.32263 10.1637 8.99028C10.776 8.66111 11.4037 8.36187 12.0307 8.09742C12.6582 8.36202 13.2858 8.66127 13.8981 8.99028C14.5166 9.32248 15.1085 9.67914 15.6627 10.0501C15.731 10.6867 15.7669 11.3412 15.7669 12C15.7669 12.6588 15.731 13.3132 15.6627 13.9499C15.109 14.3206 14.517 14.6774 13.8981 15.0097C13.2858 15.3389 12.6581 15.6381 12.0311 15.9026C11.4032 15.638 10.7757 15.3387 10.1634 15.0097H10.1637ZM15.0663 7.11099C15.2947 7.84161 15.4639 8.58715 15.5724 9.34132C15.128 9.05954 14.6636 8.78704 14.1845 8.52911C13.7075 8.27392 13.2226 8.03544 12.7343 7.81656C13.4915 7.52769 14.2709 7.29204 15.0659 7.11159L15.0663 7.11099ZM16.2761 10.4758C16.9243 10.9402 17.5336 11.4497 18.0987 12C17.5335 12.5503 16.9242 13.0598 16.2761 13.5242C16.3164 13.0229 16.3378 12.5121 16.3378 12C16.3378 11.4879 16.3167 10.9777 16.2761 10.4758ZM12.0306 3.53165C13.1145 3.53165 14.1718 4.67529 14.8906 6.6038C13.9107 6.83039 12.9538 7.13532 12.0304 7.51519C11.1072 7.13528 10.1503 6.83034 9.17058 6.6038C9.88953 4.67514 10.9467 3.53165 12.0306 3.53165ZM3.77293 10.6973C3.65904 10.5917 3.58806 10.4526 3.57208 10.3037C3.5561 10.1549 3.59611 10.0055 3.68529 9.88097C3.77448 9.75648 3.90732 9.66462 4.06116 9.62105C4.21501 9.57747 4.38034 9.58488 4.52897 9.642C4.6776 9.69913 4.80033 9.80244 4.87624 9.93433C4.95216 10.0662 4.97655 10.2185 4.94527 10.3653C4.91398 10.512 4.82896 10.6441 4.70469 10.7391C4.58042 10.834 4.42459 10.8859 4.26377 10.886C4.17258 10.8863 4.08222 10.8698 3.99793 10.8374C3.91365 10.8051 3.83711 10.7574 3.77276 10.6973H3.77293ZM5.15843 9.4083C5.01056 9.27099 4.82845 9.16987 4.62835 9.11398C4.42824 9.05808 4.21638 9.04913 4.01165 9.08795C3.87972 8.56754 3.92381 8.12339 4.14637 7.76643C4.68897 6.89134 6.28152 6.612 8.43496 6.99949C8.15697 7.90225 7.96351 8.82569 7.85676 9.75949C7.0402 10.3115 6.27727 10.929 5.57677 11.6051C5.41773 11.4343 5.26914 11.2646 5.13099 11.0959C5.13998 11.088 5.14961 11.0807 5.15843 11.0727C5.39546 10.8518 5.52859 10.5524 5.52859 10.2403C5.52859 9.92813 5.39546 9.62876 5.15843 9.40785V9.4083ZM4.14604 16.2342C3.6049 15.3605 4.14082 13.9373 5.57759 12.3949C6.27787 13.0712 7.04058 13.689 7.85692 14.2413C7.96357 15.175 8.15698 16.0984 8.43496 17.0011C6.28136 17.3882 4.68881 17.109 4.14637 16.2342H4.14604ZM14.8073 19.601C14.6937 19.707 14.5442 19.7731 14.3841 19.7879C14.224 19.8028 14.0634 19.7656 13.9295 19.6826C13.7956 19.5996 13.6969 19.476 13.65 19.3329C13.6031 19.1897 13.6111 19.0359 13.6725 18.8976C13.734 18.7593 13.845 18.6451 13.9869 18.5744C14.1287 18.5038 14.2924 18.4811 14.4502 18.5102C14.608 18.5394 14.7501 18.6185 14.8521 18.7341C14.9542 18.8498 15.0101 18.9948 15.0101 19.1444C15.0101 19.3156 14.9372 19.4798 14.8073 19.601ZM14.3174 17.9676C14.0766 17.9676 13.8408 18.0316 13.6376 18.1519C13.4345 18.2723 13.2726 18.4441 13.1708 18.6472C13.069 18.8502 13.0317 19.0761 13.0632 19.2982C13.0946 19.5203 13.1936 19.7294 13.3485 19.901C12.9239 20.2773 12.4817 20.4684 12.0314 20.4684C10.9475 20.4684 9.89019 19.3247 9.17139 17.3962C10.1512 17.1696 11.1082 16.8647 12.0315 16.4848C12.955 16.8647 13.9121 17.1697 14.892 17.3962C14.812 17.6096 14.7287 17.8139 14.6415 18.0076C14.5355 17.9813 14.4263 17.9678 14.3166 17.9676H14.3174ZM19.9156 16.2342C19.373 17.1091 17.7804 17.3886 15.627 17.0011C15.905 16.0984 16.0984 15.1749 16.2052 14.2411C17.0212 13.6889 17.7836 13.0711 18.4835 12.3949C19.9203 13.9373 20.4562 15.3605 19.9148 16.2342H19.9156Z" fill="#646466"/>
</svg>
