<svg width="24" height="24" viewBox="0 0 24 24" fill="none" xmlns="http://www.w3.org/2000/svg">
<path fill-rule="evenodd" clip-rule="evenodd" d="M15.7034 3.70339L11.6382 7.76862L9.0708 8.05429L8.89653 8.07368L8.77254 8.19767L7.24919 9.72102L6.89564 10.0746L7.24919 10.4281L10.5995 13.7784L11.3066 13.0713L8.30985 10.0746L9.35566 9.02877L11.923 8.74309L12.0973 8.7237L12.2213 8.59971L16.4105 4.4105L15.7034 3.70339ZM20.6745 8.67451L16.6093 12.7397L16.3236 15.3071L16.3042 15.4814L16.1802 15.6054L14.6569 17.1287L14.3033 17.4823L13.9498 17.1287L10.5995 13.7784L11.3066 13.0713L14.3033 16.0681L15.3491 15.0222L15.6348 12.4549L15.6542 12.2806L15.7782 12.1566L19.9674 7.9674L20.6745 8.67451Z" fill="#646466"/>
<path d="M14.4619 2.46191L22.0001 10.0001" stroke="#646466"/>
<path d="M5.81926 17.135L10.2412 12.713L11.7488 14.2206L7.32689 18.6426L5.76909 18.6928L5.81926 17.135Z" stroke="#646466"/>
</svg>
