<svg width="24" height="24" viewBox="0 0 24 24" fill="none" xmlns="http://www.w3.org/2000/svg">
<path d="M14.9551 20H6.39882C5.76261 20 5.15249 19.7531 4.70263 19.3133C4.25276 18.8736 4 18.2771 4 17.6553V8.47674C4 7.85486 4.25276 7.25849 4.70263 6.81875C5.15249 6.37902 5.76261 6.13196 6.39882 6.13196H15.2373C15.8735 6.13196 16.4836 6.37902 16.9335 6.81875C17.3834 7.25849 17.6361 7.85486 17.6361 8.47674V17.6553C17.6361 18.2771 17.3834 18.8736 16.9335 19.3133C16.4836 19.7531 15.8735 20 15.2373 20H14.9551Z" stroke="#646466" stroke-linecap="round" stroke-linejoin="round"/>
<path d="M6.92493 4.82759C7.147 4.56651 7.42561 4.35684 7.74061 4.21373C8.05561 4.07062 8.3992 3.99767 8.74655 4.00006H17.585C18.219 4.00005 18.8272 4.24531 19.2767 4.68234C19.7262 5.11936 19.9805 5.71258 19.9839 6.33229V15.5609C19.9845 15.8688 19.9224 16.1737 19.8013 16.4578C19.6801 16.742 19.5023 16.9998 19.2783 17.2161" stroke="#646466" stroke-linecap="round" stroke-linejoin="round"/>
<path d="M8.45129 8.8905H13.1976" stroke="#646466" stroke-linecap="round" stroke-linejoin="round"/>
<path d="M6.57849 11.5615H15.0578" stroke="#646466" stroke-linecap="round" stroke-linejoin="round"/>
<path d="M6.57849 13.6049H15.0578" stroke="#646466" stroke-linecap="round" stroke-linejoin="round"/>
<path d="M6.57849 15.6483H15.0578" stroke="#646466" stroke-linecap="round" stroke-linejoin="round"/>
</svg>
