<svg width="24" height="24" viewBox="0 0 24 24" fill="none" xmlns="http://www.w3.org/2000/svg">
<path d="M19.5866 16.9181C19.321 17.3303 19.0318 17.7259 18.7209 18.103C17.7257 19.2755 16.4651 20.1765 15.051 20.7258C13.637 21.2751 12.1132 21.4558 10.6151 21.2519C9.4127 21.0999 8.25179 20.7026 7.19978 20.0832C6.15462 19.4509 5.2357 18.6192 4.49246 17.6323C3.76723 16.6666 3.23251 15.5638 2.91853 14.386C2.38895 12.0974 2.70076 9.68744 3.79368 7.62203C4.88661 5.55662 6.68307 3.98226 8.83597 3.20318C10.9889 2.42409 13.3455 2.49556 15.4503 3.40379C17.555 4.31202 19.2585 5.99256 20.2318 8.12064" stroke="#646466" stroke-width="1.25" stroke-linecap="round" stroke-linejoin="round"/>
<path d="M17.7604 7.64986L20.2471 8.76983L21.3332 6.04297" stroke="#646466" stroke-linecap="round" stroke-linejoin="round"/>
</svg>
