<svg width="24" height="24" viewBox="0 0 24 24" fill="none" xmlns="http://www.w3.org/2000/svg">
<path d="M19.6665 13.7702L10.2171 4.09213C9.90615 3.7737 9.40202 3.77364 9.09111 4.09207L4.19549 9.10613C3.88459 9.42456 3.88465 9.94089 4.19555 10.2593L13.645 19.9374C13.9559 20.2559 14.46 20.2558 14.7709 19.9374L19.6665 14.9233C19.9774 14.6049 19.9774 14.0887 19.6665 13.7702Z" stroke="#646466" stroke-width="1.4" stroke-linecap="round" stroke-linejoin="round"/>
<path d="M21.3333 10.4565C20.9507 8.30525 19.8548 6.35524 18.2307 4.93593C16.6066 3.51662 14.5541 2.71507 12.4197 2.66663L14.5664 4.96721" stroke="#646466" stroke-linecap="round" stroke-linejoin="round"/>
<path d="M2.66663 13.3396C3.00239 15.502 4.05748 17.479 5.65345 18.9358C7.24942 20.3926 9.28802 21.2396 11.4239 21.3333L9.31987 18.989" stroke="#646466" stroke-linecap="round" stroke-linejoin="round"/>
</svg>
