<svg width="24" height="24" viewBox="0 0 24 24" fill="none" xmlns="http://www.w3.org/2000/svg">
<path d="M15.4257 2.66663H17.2731C18.3499 2.66663 19.3827 3.09346 20.1441 3.85324C20.9055 4.61302 21.3333 5.6435 21.3333 6.71799V17.2819C21.3333 18.3564 20.9055 19.3869 20.1441 20.1467C19.3827 20.9065 18.3499 21.3333 17.2731 21.3333H6.7268C5.64998 21.3333 4.61725 20.9065 3.85582 20.1467C3.09439 19.3869 2.66663 18.3564 2.66663 17.2819V14.0205" stroke="#646466" stroke-linecap="round" stroke-linejoin="round"/>
<path d="M10.5735 8.92588V10.9516C10.5746 10.9827 10.5848 11.0128 10.6028 11.0384C10.6207 11.0639 10.6456 11.0837 10.6745 11.0955C10.7034 11.1072 10.7351 11.1104 10.7658 11.1046C10.7965 11.0989 10.8249 11.0844 10.8475 11.063L14.1261 7.7915C14.2275 7.69676 14.3084 7.58226 14.3636 7.45508C14.4189 7.3279 14.4475 7.1907 14.4475 7.05208C14.4475 6.91346 14.4189 6.77632 14.3636 6.64914C14.3084 6.52197 14.2275 6.40747 14.1261 6.31273L10.9693 3.17294C10.9481 3.14995 10.9203 3.13404 10.8896 3.12744C10.859 3.12084 10.827 3.12385 10.7982 3.13604C10.7693 3.14822 10.7449 3.16903 10.7283 3.19557C10.7117 3.22211 10.7037 3.25311 10.7054 3.28434V5.17835C10.7054 5.17835 6.30016 4.75293 2.86931 11.1642C2.85571 11.1958 2.85248 11.2309 2.86014 11.2644C2.86781 11.2979 2.88596 11.328 2.91194 11.3505C2.93792 11.3731 2.97038 11.3868 3.00468 11.3897C3.03898 11.3927 3.07332 11.3846 3.10275 11.3668C4.37156 10.4958 7.74149 8.45997 10.5735 8.92588Z" stroke="#646466" stroke-linecap="round" stroke-linejoin="round"/>
</svg>
