<svg width="24" height="24" viewBox="0 0 24 24" fill="none" xmlns="http://www.w3.org/2000/svg">
<path d="M12 21.3333C17.1546 21.3333 21.3333 17.1546 21.3333 12C21.3333 6.84529 17.1546 2.66663 12 2.66663C6.8453 2.66663 2.66663 6.84529 2.66663 12C2.66663 17.1546 6.8453 21.3333 12 21.3333Z" stroke="#646466" stroke-width="1.25" stroke-linecap="round" stroke-linejoin="round"/>
<path d="M16.6974 12.405C16.477 13.4895 15.8884 14.4644 15.0315 15.1647C14.1746 15.8649 13.102 16.2475 11.9953 16.2475C10.8887 16.2475 9.81605 15.8649 8.95913 15.1647C8.10221 14.4644 7.51366 13.4895 7.29321 12.405" stroke="#646466" stroke-linecap="round" stroke-linejoin="round"/>
<circle cx="9.57064" cy="9.04391" r="1.01229" fill="#646466"/>
<circle cx="14.632" cy="9.04391" r="1.01229" fill="#646466"/>
</svg>
