<svg width="24" height="24" viewBox="0 0 24 24" fill="none" xmlns="http://www.w3.org/2000/svg">
<path d="M7.5 3C7.5 2.72386 7.27614 2.5 7 2.5C6.72386 2.5 6.5 2.72386 6.5 3H7.5ZM6.64645 21.3536C6.84171 21.5488 7.15829 21.5488 7.35355 21.3536L10.5355 18.1716C10.7308 17.9763 10.7308 17.6597 10.5355 17.4645C10.3403 17.2692 10.0237 17.2692 9.82843 17.4645L7 20.2929L4.17157 17.4645C3.97631 17.2692 3.65973 17.2692 3.46447 17.4645C3.2692 17.6597 3.2692 17.9763 3.46447 18.1716L6.64645 21.3536ZM6.5 3V21H7.5V3H6.5Z" fill="#646466"/>
<path d="M17.3 21C17.3 21.2761 17.5239 21.5 17.8 21.5C18.0762 21.5 18.3 21.2761 18.3 21L17.3 21ZM18.1536 2.64645C17.9583 2.45119 17.6418 2.45119 17.4465 2.64645L14.2645 5.82843C14.0693 6.02369 14.0693 6.34027 14.2645 6.53554C14.4598 6.7308 14.7764 6.7308 14.9716 6.53554L17.8 3.70711L20.6285 6.53553C20.8237 6.7308 21.1403 6.7308 21.3356 6.53553C21.5308 6.34027 21.5308 6.02369 21.3356 5.82843L18.1536 2.64645ZM18.3 21L18.3 3L17.3 3L17.3 21L18.3 21Z" fill="#646466"/>
</svg>
