<svg width="24" height="24" viewBox="0 0 24 24" fill="none" xmlns="http://www.w3.org/2000/svg">
<path d="M12.8757 3.21715L14.6765 7.04922C14.8541 7.42457 15.1162 7.74914 15.4401 7.99498C15.7641 8.24082 16.1403 8.40057 16.5363 8.4605L20.5707 9.06831C20.7361 9.10831 20.8889 9.19239 21.014 9.31245C21.1392 9.43251 21.2326 9.58444 21.2851 9.75345C21.3376 9.92247 21.3474 10.1028 21.3136 10.277C21.2798 10.4512 21.2036 10.6132 21.0923 10.7474L18.1402 13.7348C17.8541 14.0253 17.6401 14.3846 17.5167 14.7813C17.3932 15.178 17.364 15.6002 17.4317 16.0114L18.1205 20.2246C18.1334 20.4002 18.103 20.5763 18.0323 20.736C17.9616 20.8958 17.853 21.034 17.7168 21.1373C17.5806 21.2406 17.4214 21.3057 17.2543 21.3262C17.0873 21.3468 16.918 21.3222 16.7626 21.2548L13.1513 19.2563C12.7973 19.0631 12.404 18.9622 12.0049 18.9622C11.6057 18.9622 11.2124 19.0631 10.8585 19.2563L7.23733 21.2548C7.08195 21.3222 6.91266 21.3468 6.74562 21.3262C6.57857 21.3057 6.41933 21.2406 6.28313 21.1373C6.14693 21.034 6.03832 20.8958 5.96764 20.736C5.89695 20.5763 5.86656 20.4002 5.87938 20.2246L6.5682 16.0114C6.63588 15.6002 6.60671 15.178 6.48325 14.7813C6.35979 14.3846 6.14577 14.0253 5.85971 13.7348L2.90766 10.7474C2.79635 10.6132 2.7201 10.4512 2.68631 10.277C2.65253 10.1028 2.66235 9.92247 2.71484 9.75345C2.76734 9.58444 2.86072 9.43251 2.98589 9.31245C3.11106 9.19239 3.26378 9.10831 3.42919 9.06831L7.47348 8.4605C7.86801 8.39984 8.24255 8.2397 8.56482 7.99385C8.88709 7.748 9.14743 7.42381 9.32344 7.04922L11.134 3.21715C11.2175 3.05104 11.3428 2.91197 11.4962 2.81495C11.6497 2.71792 11.8256 2.66663 12.0049 2.66663C12.1842 2.66663 12.36 2.71792 12.5135 2.81495C12.667 2.91197 12.7923 3.05104 12.8757 3.21715Z" stroke="#646466" stroke-width="1.25" stroke-linecap="round" stroke-linejoin="round"/>
</svg>
