<svg width="24" height="24" viewBox="0 0 24 24" fill="none" xmlns="http://www.w3.org/2000/svg">
<path d="M4.97229 17.1312L8.40931 13.6932C8.52835 13.5716 8.61355 13.421 8.65647 13.2563C8.69939 13.0916 8.69853 12.9186 8.65399 12.7544C8.50153 12.1563 8.50701 11.5288 8.66989 10.9335C8.83277 10.3381 9.14747 9.7953 9.58317 9.35812C10.0189 8.92093 10.5606 8.60439 11.1554 8.43949C11.7502 8.27459 12.3776 8.26698 12.9763 8.4174L11.7277 9.66914C11.6102 9.78621 11.517 9.92532 11.4534 10.0785C11.3898 10.2317 11.357 10.3959 11.357 10.5617C11.357 10.7276 11.3898 10.8918 11.4534 11.045C11.517 11.1982 11.6102 11.3373 11.7277 11.4543L12.72 12.4509C12.8371 12.5684 12.9762 12.6616 13.1294 12.7252C13.2826 12.7888 13.4468 12.8215 13.6126 12.8215C13.7785 12.8215 13.9427 12.7888 14.0959 12.7252C14.249 12.6616 14.3882 12.5684 14.5052 12.4509L15.6278 11.3273C15.6278 11.3367 15.6278 11.3451 15.6278 11.3535C15.7102 11.9132 15.6582 12.4845 15.476 13.0201C15.2939 13.5556 14.9868 14.0402 14.5802 14.4335C14.1736 14.8269 13.6792 15.1177 13.1379 15.2821C12.5966 15.4464 12.0239 15.4795 11.4672 15.3786C11.3116 15.35 11.1514 15.3593 11.0002 15.406C10.849 15.4526 10.7113 15.5351 10.5988 15.6464L7.02526 19.2252" stroke="#646466" stroke-width="0.75" stroke-linecap="round" stroke-linejoin="round"/>
<path d="M8.62756 18.9134C9.20229 19.1901 9.80996 19.3923 10.4359 19.5151V21.272H13.4287V19.4983C14.3568 19.3061 15.2399 18.9391 16.0309 18.4167L17.271 19.6559L19.387 17.5399L18.1563 16.3091C18.7032 15.4933 19.0839 14.5776 19.2768 13.6145H21V10.6217H19.2768C19.0842 9.6622 18.7057 8.74964 18.1626 7.93553L19.387 6.71005L17.271 4.59197L16.0403 5.82376C15.2467 5.29888 14.3604 4.93002 13.4287 4.73689V3H10.4359V4.72114C9.46443 4.91008 8.54049 5.29102 7.71816 5.84161L6.46538 4.59197L4.35465 6.70795L5.60428 7.95864C5.06843 8.7668 4.69434 9.67118 4.50271 10.6217H3V13.6145H4.50271C4.64008 14.2974 4.8723 14.9577 5.19264 15.5762" stroke="#646466" stroke-width="0.75" stroke-linecap="round" stroke-linejoin="round"/>
<path d="M6.97891 13.9317C6.57293 12.8296 6.54984 11.6229 6.91336 10.5061C7.27687 9.38931 8.00581 8.42741 8.98272 7.77544C9.95963 7.12347 11.1276 6.81941 12.2984 6.91224C13.4692 7.00507 14.5747 7.4894 15.4366 8.28717C16.2986 9.08494 16.8668 10.1497 17.0498 11.3098C17.2328 12.47 17.0198 13.6579 16.4452 14.6823C15.8707 15.7066 14.9679 16.5077 13.8825 16.9563C12.7971 17.405 11.5923 17.4752 10.4621 17.1555" stroke="#646466" stroke-width="0.75" stroke-linecap="round" stroke-linejoin="round"/>
</svg>
