<svg width="50" height="50" viewBox="0 0 50 50" fill="none" xmlns="http://www.w3.org/2000/svg" style="border-radius: 50%; overflow: hidden;">
<mask id="mask0_2113_823" style="mask-type:alpha" maskUnits="userSpaceOnUse" x="0" y="0" width="50" height="50">
<ellipse cx="25" cy="25" rx="25" ry="25" fill="#D9D9D9"/>
</mask>
<g mask="url(#mask0_2113_823)">
<path d="M50 0H0V50H50V0Z" fill="#F0AC1C"/>
<path d="M35.9831 23.1837C35.522 23.6004 34.9609 23.8782 34.372 24.0004C34.2053 24.0393 34.0387 24.0615 33.872 24.067C33.7109 24.0837 33.5498 24.0837 33.3887 24.067C33.4664 24.067 33.522 22.7448 33.5776 21.6004C33.5942 21.1782 33.6109 20.7782 33.6276 20.4782C33.6387 20.2226 33.6553 20.0393 33.6664 19.9726C33.7664 19.4337 34.1109 18.6837 34.5887 18.1559C35.0553 17.6393 35.6498 17.3393 36.2664 17.6726C36.3164 17.7004 36.372 17.7337 36.422 17.7726C38.1664 19.0393 37.322 21.9615 35.9831 23.1837V23.1837Z" fill="#D9847B"/>
<path d="M33.9609 21.639C34.222 20.739 34.9832 20.0279 35.8609 19.8668C35.9387 19.8501 36.022 19.839 36.0665 19.7723C36.1109 19.7057 36.0943 19.6057 36.0665 19.5279C35.9165 19.1612 35.4609 19.0057 35.0998 19.1334C34.7387 19.2612 34.4776 19.6057 34.3443 19.9779C34.2109 20.3501 34.1832 20.7612 34.1554 21.1612L33.9609 21.6334V21.639Z" fill="#C25361"/>
<path d="M35.9499 21.2445C35.9499 21.2445 35.911 21.2445 35.8888 21.2334C35.8221 21.2001 35.7888 21.1167 35.8221 21.0501C36.0777 20.5112 36.011 19.8112 35.6555 19.3445C35.611 19.2834 35.6221 19.1945 35.6832 19.1501C35.7443 19.1056 35.8332 19.1167 35.8777 19.1779C36.2943 19.7279 36.3721 20.5445 36.0721 21.1723C36.0499 21.2223 35.9999 21.2501 35.9443 21.2501L35.9499 21.2445Z" fill="#914747"/>
<path d="M36.3724 19.5837C36.2168 19.3726 35.939 19.2948 35.6946 19.3393C35.4501 19.3837 35.2223 19.5282 35.0335 19.7004C34.5723 20.1115 34.2557 20.6948 34.1446 21.3226C34.0668 21.7726 33.9779 22.1559 33.7835 22.5671C33.6446 22.1504 33.5668 21.7115 33.5612 21.2726C33.5501 20.6837 33.6723 20.0837 33.9779 19.5893C34.2835 19.0948 34.7835 18.7282 35.339 18.6837C35.589 18.6615 35.8501 18.7115 36.0557 18.8671C36.2612 19.0226 36.4279 19.3282 36.3835 19.5893L36.3724 19.5837Z" fill="#D9847B"/>
<path d="M16.7828 19.8615C17.0383 17.0115 17.2828 14.0893 16.4828 11.3448C16.3606 10.9226 16.1994 10.4893 15.8772 10.1893C15.6328 9.95594 15.0328 9.7115 14.7217 9.98372C14.4772 10.2004 14.4439 10.9837 14.3994 11.2893C14.2494 12.2893 14.2383 13.3115 14.3717 14.3171C14.6383 16.3393 15.4661 18.2948 16.7828 19.8615Z" fill="#331914"/>
<path d="M17.3326 24.1114C16.4048 24.1947 15.4492 23.8725 14.7437 23.228C13.4048 22.0058 12.5603 19.0836 14.2992 17.8169C15.5937 16.878 16.8548 18.9003 17.0603 20.0169C17.127 20.3725 17.2103 24.1225 17.3326 24.1114V24.1114Z" fill="#D9847B"/>
<path d="M16.7604 21.6839C16.4993 20.7839 15.7382 20.0728 14.8604 19.9117C14.7827 19.895 14.6993 19.8839 14.6549 19.8172C14.6104 19.7506 14.6271 19.6506 14.6549 19.5728C14.8049 19.2061 15.2604 19.0506 15.6215 19.1784C15.9827 19.3061 16.2438 19.6506 16.3771 20.0228C16.5104 20.395 16.5382 20.8061 16.566 21.2061L16.7604 21.6784V21.6839Z" fill="#C25361"/>
<path d="M14.7772 21.2891C14.7272 21.2891 14.6772 21.2614 14.6495 21.2114C14.3495 20.5836 14.4272 19.7614 14.8439 19.2169C14.8883 19.1558 14.9772 19.1447 15.0383 19.1891C15.0995 19.2336 15.1106 19.3225 15.0661 19.3836C14.7106 19.8503 14.6439 20.5558 14.8995 21.0891C14.9328 21.1558 14.8995 21.2391 14.8328 21.2725C14.8161 21.2836 14.7939 21.2836 14.7717 21.2836L14.7772 21.2891Z" fill="#914747"/>
<path d="M14.3494 19.6228C14.505 19.4117 14.7827 19.3339 15.0272 19.3783C15.2716 19.4228 15.4994 19.5672 15.6883 19.7395C16.1494 20.1506 16.4661 20.7339 16.5772 21.3617C16.655 21.8117 16.7438 22.195 16.9383 22.6061C17.0772 22.1895 17.155 21.7506 17.1605 21.3117C17.1716 20.7228 17.0494 20.1228 16.7438 19.6283C16.4383 19.1339 15.9383 18.7672 15.3827 18.7228C15.1327 18.7006 14.8716 18.7506 14.6661 18.9061C14.4605 19.0617 14.2938 19.3672 14.3383 19.6283L14.3494 19.6228Z" fill="#D9847B"/>
<path d="M27.5996 3.71704C27.2718 5.21148 26.9551 6.81148 27.4996 8.23926C27.9774 9.48926 29.0385 10.4059 29.7996 11.5059C30.8274 12.9948 31.2829 14.7893 31.7774 16.5337C31.9829 17.2559 32.2051 18.0004 32.7107 18.5504C33.2162 19.1004 34.4496 19.7559 34.8607 19.1337C35.5996 18.0115 35.3385 16.5448 35.2218 15.2059C35.0885 13.6281 35.1996 12.0337 35.0274 10.4559C34.8829 9.14481 34.5218 7.79481 33.7162 6.72815C32.9107 5.66148 32.1774 4.52259 31.144 3.62815C30.7996 3.3337 30.4162 3.05593 29.9718 2.97815C29.4774 2.89482 28.9607 3.07259 28.544 3.35593C28.1274 3.63926 27.794 4.02259 27.4607 4.40593L27.5885 3.72259L27.5996 3.71704Z" fill="#331914"/>
<path d="M47.872 50.0003H2.31641C3.78307 47.9558 6.0053 46.3725 8.21641 45.0725C10.5831 43.6781 13.1053 42.3947 15.1497 40.6003C15.5775 40.2336 15.9831 39.8336 16.3609 39.4114C16.5664 39.1892 16.7609 38.9558 16.9442 38.7114C17.1831 38.4003 17.4109 38.0725 17.6109 37.7336C18.6831 35.9836 19.2775 33.9503 19.2997 31.9003C19.2997 31.7003 19.2997 31.5003 19.2942 31.3003H30.8997C30.8886 31.5947 30.8886 31.8892 30.8942 32.1836C30.9775 34.2892 31.6553 36.367 32.8275 38.117C32.8275 38.1225 32.8331 38.1225 32.8331 38.1281C32.9609 38.3281 33.0997 38.5225 33.2442 38.7114C33.5775 39.1503 33.9386 39.5558 34.3275 39.9392C34.6664 40.2781 35.0275 40.6003 35.3997 40.9058C35.672 41.1336 35.9497 41.3503 36.2386 41.5614C36.372 41.667 36.5109 41.7614 36.6497 41.8558C37.0942 42.1725 37.5553 42.4725 38.022 42.7614C38.272 42.917 38.522 43.067 38.7775 43.2225C39.5164 43.6614 40.2609 44.0836 41.0053 44.5114C41.3275 44.7003 41.6497 44.8836 41.9664 45.0725C44.1775 46.3725 46.3997 47.9558 47.8664 50.0003H47.872Z" fill="#D9847B"/>
<path d="M32.8331 38.1281C28.9109 37.9614 22.9331 37.6447 19.2998 31.9003C20.0109 31.2003 23.7831 31.9392 24.5331 31.3003H30.8998C30.7998 33.7058 31.4942 36.1281 32.8331 38.1281Z" fill="#C25361"/>
<path d="M34.1939 19.1446C33.8994 23.0668 33.8772 27.1502 32.505 29.9279C31.2105 32.5557 28.9383 34.1891 25.5661 34.2391C21.9605 34.3002 19.0939 32.4724 18.1161 30.1613C16.8883 27.2668 16.8994 22.9335 16.4716 19.0224C15.2939 8.27795 20.4883 4.78906 25.4439 4.78906C30.3994 4.78906 34.9827 8.71128 34.1994 19.1446H34.1939Z" fill="#D9847B"/>
<path d="M24.633 7.92797C24.633 7.97241 24.6219 8.0113 24.6164 8.05575C24.5219 8.80575 24.4108 9.57797 24.0164 10.2224C23.5886 10.9113 22.8608 11.3057 22.0775 11.1057C21.4441 10.9446 20.7497 9.97797 20.0553 10.2835C19.5608 10.5002 19.583 11.2002 19.3275 11.6724C18.9719 12.328 18.1219 12.4835 17.3775 12.5724C16.7053 12.0891 16.7164 11.0835 16.9108 10.2724C17.333 8.53352 18.3275 6.88908 19.833 5.92797C20.7441 5.34464 21.8275 5.05019 22.9053 5.10019C23.133 5.1113 25.2997 5.63908 25.1719 5.86686C24.8219 6.48908 24.7164 7.2113 24.6275 7.92241L24.633 7.92797Z" fill="#C25361"/>
<path d="M21.65 18.1723C21.9599 18.1723 22.2111 17.8763 22.2111 17.5112C22.2111 17.1461 21.9599 16.8501 21.65 16.8501C21.3401 16.8501 21.0889 17.1461 21.0889 17.5112C21.0889 17.8763 21.3401 18.1723 21.65 18.1723Z" fill="#331914"/>
<path d="M29.2105 18.1723C29.5204 18.1723 29.7716 17.8763 29.7716 17.5112C29.7716 17.1461 29.5204 16.8501 29.2105 16.8501C28.9006 16.8501 28.6494 17.1461 28.6494 17.5112C28.6494 17.8763 28.9006 18.1723 29.2105 18.1723Z" fill="#331914"/>
<path d="M25.3718 23.0445C25.3718 23.0445 25.3496 23.0445 25.3385 23.0445L23.7718 22.6501C23.6996 22.6334 23.6551 22.5612 23.6662 22.489C23.9885 20.6279 24.8274 15.7556 24.8385 15.5667C24.844 15.4945 24.9051 15.439 24.9829 15.439C25.0551 15.439 25.1162 15.5001 25.1162 15.5779C25.1162 15.7056 24.2607 20.6834 23.9607 22.4167L25.4051 22.7779C25.4774 22.7945 25.5274 22.8723 25.5051 22.9445C25.4885 23.0056 25.4329 23.0501 25.3718 23.0501V23.0445Z" fill="#331914"/>
<path d="M24.0778 25.0727C23.7666 25.0727 23.4389 25.0449 23.1055 24.9838C23.0278 24.9727 22.9777 24.9005 22.9944 24.8227C23.0055 24.7449 23.0833 24.6949 23.1555 24.7116C25.4333 25.1227 27.1555 23.9838 28.5389 22.8116C28.6 22.7616 28.6833 22.7671 28.7333 22.8282C28.7833 22.8894 28.7777 22.9727 28.7166 23.0227C27.5555 24.006 26.0166 25.0727 24.0722 25.0727H24.0778Z" fill="#331914"/>
<path d="M21.5388 14.1611C21.7666 14.1778 22.0166 14.2167 22.1833 14.3C22.3611 14.3834 22.5111 14.5556 22.5166 14.75C22.5444 15.3778 21.3388 15.2667 20.9611 15.3278C20.2722 15.4445 19.6 15.6611 18.9722 15.9722C18.8555 16.0278 18.7388 16.0889 18.6166 16.1111C18.4944 16.1334 18.3444 16.1 18.2666 16C18.0888 15.7722 18.4222 15.3945 18.5833 15.2556C19.3111 14.6056 20.2611 14.2111 21.2333 14.1611C21.3222 14.1611 21.4277 14.1611 21.5388 14.1611V14.1611Z" fill="#331914"/>
<path d="M28.5998 14.2612C28.3721 14.2779 28.1221 14.3168 27.9554 14.4001C27.7776 14.4835 27.6276 14.6557 27.6221 14.8501C27.5943 15.4779 28.7998 15.3668 29.1776 15.4279C29.8665 15.5446 30.5387 15.7612 31.1665 16.0723C31.2832 16.1279 31.3998 16.189 31.5221 16.2112C31.6443 16.2335 31.7943 16.2001 31.8721 16.1001C32.0498 15.8723 31.7165 15.4946 31.5554 15.3557C30.8276 14.7057 29.8776 14.3112 28.9054 14.2612C28.8165 14.2612 28.7109 14.2612 28.5998 14.2612V14.2612Z" fill="#331914"/>
<path d="M34.8771 18.0892C32.7993 15.3892 33.0105 11.7836 31.4327 8.76698C30.966 7.87253 29.8771 7.52809 28.8827 7.35587C28.3105 7.25587 27.7382 7.17809 27.166 7.12809C25.6438 7.00587 24.1049 7.05587 22.5994 7.29475C22.1438 7.36698 21.4605 7.66698 21.0216 7.61698C20.9382 7.60587 20.8771 7.5892 20.8216 7.56698C20.5327 7.45587 20.5271 7.18364 20.5827 6.76698C20.6938 5.8892 21.216 5.06698 21.8938 4.52253C22.7549 3.83364 23.8771 3.51698 24.9827 3.52253C26.0882 3.52809 27.0605 3.95031 28.1271 4.1392C28.1382 4.1392 28.1438 4.1392 28.1549 4.1392C29.0549 4.29475 29.8216 4.67809 30.5605 5.2392C32.0549 6.38364 33.1216 8.05031 33.7438 9.81698C34.6494 12.3725 34.7994 15.3725 34.8771 18.0836V18.0892Z" fill="black"/>
<path d="M28.0106 3.2669C26.9495 2.10023 25.5051 2.16134 24.0718 2.30023C21.8384 2.52245 19.6217 3.23912 17.8329 4.59467C16.3662 5.71134 15.1995 7.28912 14.7051 9.07245C14.4551 9.96689 14.7218 10.7058 14.894 11.6002C15.1051 12.7058 15.444 13.7836 15.7829 14.8613C16.1329 15.0669 16.5162 14.6169 16.594 14.2224C16.6718 13.828 16.6995 13.3391 17.0551 13.1502C17.4606 12.9391 17.9995 13.3002 18.4106 13.0947C18.7106 12.9447 18.794 12.5613 18.8051 12.2224C18.8162 11.8836 18.7773 11.528 18.9495 11.2391C19.2718 10.7002 20.0606 10.7613 20.6606 10.9502C21.2606 11.1391 21.9606 11.3669 22.4606 10.9947C22.9051 10.6669 22.9551 10.028 22.9606 9.47245C22.9718 8.54467 22.9829 7.62245 22.994 6.69467C23.0051 5.78912 23.0995 4.72245 23.8718 4.24467C24.594 3.79467 25.594 4.13912 26.1551 4.78356C26.7162 5.42801 26.9329 6.28356 27.1384 7.11134C27.7773 6.78912 28.2217 6.06689 28.2551 5.35578C28.2884 4.64467 28.5106 3.78912 28.0329 3.26134L28.0106 3.2669Z" fill="#331914"/>
<path d="M34.8776 18.0892C32.7998 15.3892 33.0109 11.7836 31.4332 8.76694C30.9665 7.87249 29.8776 7.52805 28.8832 7.35583C28.3109 7.25583 27.7387 7.17805 27.1665 7.12805C27.2165 6.56694 27.4276 6.02249 27.6221 5.49472C27.7887 5.04472 27.9609 4.59472 28.1276 4.13916C28.1387 4.13916 28.1443 4.13916 28.1554 4.13916C29.0554 4.29472 29.8221 4.67805 30.5609 5.23916C32.0554 6.3836 33.1221 8.05027 33.7443 9.81694C34.6498 12.3725 34.7998 15.3725 34.8776 18.0836V18.0892Z" fill="#331914"/>
<path d="M47.872 50H2.31641C3.78307 47.9556 6.0053 46.3722 8.21641 45.0722C10.5831 43.6778 13.1053 42.3945 15.1497 40.6C15.5775 40.2334 15.9831 39.8334 16.3609 39.4111C19.4386 40.9889 22.9053 41.8056 26.3609 41.7278C28.1997 41.6889 30.0331 41.3945 31.7997 40.8722C31.7997 40.8722 31.8164 40.8722 31.822 40.8611C32.6775 40.6111 33.5164 40.3 34.3275 39.9389C34.6664 40.2778 35.0275 40.6 35.3997 40.9056C35.672 41.1334 35.9497 41.35 36.2386 41.5611C36.372 41.6611 36.5109 41.7611 36.6497 41.8556C37.0942 42.1722 37.5553 42.4722 38.022 42.7611C38.272 42.9167 38.522 43.0667 38.7775 43.2222C39.5164 43.6611 40.2609 44.0834 41.0053 44.5111C41.3275 44.7 41.6497 44.8834 41.9664 45.0722C44.1775 46.3722 46.3997 47.9556 47.8664 50H47.872Z" fill="#00436E"/>
<path d="M41.0052 44.5117C35.2885 44.5117 29.5774 44.1006 23.9219 43.2783C26.7219 43.2783 29.2497 42.0339 31.7997 40.8728C31.8052 40.8728 31.8163 40.8672 31.8219 40.8617C32.6774 40.6117 33.5163 40.3006 34.3274 39.9395C36.2163 41.8283 38.6441 43.1506 41.0052 44.5117V44.5117Z" fill="#00314C"/>
<path d="M16.0498 37.8837C16.3776 37.4671 16.9609 37.3504 17.4109 37.6282C18.6109 38.3504 21.2609 39.5671 25.4831 39.5393C29.7054 39.5115 32.3998 38.3948 33.4887 37.7782C34.6331 37.1337 35.272 38.6282 35.6998 39.3671C35.822 39.5782 35.9442 39.8004 35.9442 40.0448C35.9331 40.7504 35.0054 41.1948 34.4387 41.3948C33.5554 41.7059 32.6942 42.1004 31.7998 42.4059C29.7831 43.1004 27.6554 43.4615 25.5165 43.4615C20.422 43.4615 16.8998 41.7337 15.2998 40.7282C14.7665 40.3948 14.6331 39.6726 15.0276 39.1782L16.0442 37.8893L16.0498 37.8837Z" fill="#1E599C"/>
<path d="M14.9662 15.1613C14.7995 15.1613 14.644 15.0613 14.5773 14.8947C14.494 14.678 14.5995 14.4391 14.8162 14.3558C15.0662 14.2613 15.3217 14.1669 15.5717 14.0891C18.194 13.2336 20.9162 13.2613 23.6384 14.178C23.694 14.1947 23.7662 14.2169 23.8384 14.2447L23.9384 14.278C24.1551 14.3502 24.2717 14.5891 24.1995 14.8058C24.1273 15.0225 23.8884 15.1391 23.6717 15.0669L23.5551 15.028C23.4995 15.0058 23.444 14.9891 23.3884 14.9725C20.8217 14.1113 18.2773 14.0836 15.8162 14.8836C15.5717 14.9558 15.3384 15.0391 15.1106 15.128C15.0606 15.1447 15.0106 15.1558 14.9606 15.1558L14.9662 15.1613Z" fill="white"/>
<path d="M20.1271 22.1776H18.6493C16.7104 22.1776 15.1382 20.5999 15.1382 18.661C15.1382 17.3721 15.1771 16.0054 15.4382 14.7054L15.4882 14.4499C15.5048 14.3776 15.5548 14.3165 15.6271 14.2943C18.216 13.4499 20.8882 13.4776 23.5715 14.3776C23.6549 14.4054 23.716 14.4832 23.716 14.5776V18.5943C23.716 20.5721 22.1049 22.1832 20.1271 22.1832V22.1776ZM15.8715 14.6499L15.8437 14.7832C15.5882 16.0499 15.5493 17.3888 15.5493 18.6499C15.5493 20.3665 16.9382 21.7554 18.6437 21.7554H20.1215C21.8715 21.7554 23.2937 20.3332 23.2937 18.5832V14.7165C20.7882 13.9054 18.2882 13.8776 15.8715 14.6443V14.6499Z" fill="white"/>
<path d="M35.1107 15.1055C35.0607 15.1055 35.0107 15.0944 34.9607 15.0778C34.7329 14.9889 34.4996 14.9055 34.2662 14.8333C31.7996 14.0278 29.2551 14.0555 26.7051 14.9111C26.6273 14.9333 26.5773 14.95 26.5218 14.9722L26.4051 15.0111C26.1884 15.0833 25.9496 14.9667 25.8773 14.75C25.8051 14.5333 25.9218 14.2944 26.1384 14.2222L26.2384 14.1889C26.3107 14.1611 26.3829 14.1389 26.4551 14.1167C29.1607 13.2055 31.8773 13.1778 34.5107 14.0389C34.7551 14.1111 35.0107 14.2055 35.2607 14.3C35.4773 14.3833 35.5829 14.6222 35.4996 14.8389C35.4329 15.0055 35.2773 15.1055 35.1107 15.1055V15.1055Z" fill="white"/>
<path d="M31.4275 22.1222H29.9497C27.972 22.1222 26.3608 20.5111 26.3608 18.5333V14.5166C26.3608 14.4277 26.4164 14.3499 26.5053 14.3166C29.1886 13.4166 31.8608 13.3888 34.4497 14.2333C34.5219 14.2555 34.5719 14.3166 34.5886 14.3888L34.6386 14.6444C34.9053 15.9444 34.9386 17.3111 34.9386 18.5944C34.9386 20.5388 33.3608 22.1166 31.4275 22.1166V22.1222ZM26.7831 14.6722V18.5388C26.7831 20.2888 28.2053 21.7111 29.9553 21.7111H31.4331C33.1386 21.7111 34.5275 20.3222 34.5275 18.6111C34.5275 17.3444 34.4942 15.9999 34.2331 14.7388L34.2053 14.6055C31.7831 13.8444 29.2886 13.8666 26.7831 14.6777V14.6722Z" fill="white"/>
<path d="M26.4941 16.0891C26.4497 16.0891 26.3997 16.078 26.3553 16.0558C25.4275 15.528 24.7664 15.5058 23.7497 15.9614C23.6108 16.0225 23.4441 15.9614 23.383 15.8225C23.3219 15.6836 23.383 15.5169 23.5219 15.4558C24.6997 14.9225 25.5441 14.9558 26.6275 15.5725C26.7608 15.6503 26.8053 15.8169 26.733 15.9502C26.683 16.0391 26.5886 16.0891 26.4886 16.0891H26.4941Z" fill="white"/>
</g>
</svg>
