<svg width="50" height="50" viewBox="0 0 50 50" fill="none" xmlns="http://www.w3.org/2000/svg" style="border-radius: 50%; overflow: hidden;">
<path d="M41.8182 43.3259V43.4262C37.5012 47.5091 31.7588 49.9996 25.4546 49.9996V26.3633C27.4428 26.3633 29.3492 26.7328 31.1137 27.4096C37.3571 29.8017 41.8182 36.0338 41.8182 43.3259Z" fill="#F2AE1C"/>
<path d="M50 25C50 32.3166 46.8563 38.8992 41.8468 43.4715C37.4023 47.5266 31.4903 50 25 50C18.5097 50 12.5977 47.5266 8.15315 43.4715C3.14369 38.8992 0 32.3166 0 25C0 11.1935 11.1935 0 25 0C38.8065 0 50 11.1935 50 25Z" fill="#5E85BC"/>
<path d="M41.818 43.3259V43.4262C37.3811 47.5091 31.4791 49.9996 24.9998 49.9996C18.5205 49.9996 12.6186 47.5091 8.18164 43.4262V43.3259C8.18164 36.0338 12.7679 29.8006 19.1847 27.4096C20.997 26.7328 22.9563 26.3633 24.9998 26.3633C27.0433 26.3633 29.0026 26.7328 30.8161 27.4096C37.2329 29.8017 41.818 36.0338 41.818 43.3259Z" fill="#F2AE1C"/>
<path d="M35.4545 19.0905C35.4545 25.1054 30.7655 29.9998 25 29.9998C19.2356 29.9998 14.5454 25.1054 14.5454 19.0905C14.5454 13.0757 19.2356 8.18164 25 8.18164C30.7655 8.18164 35.4545 13.0757 35.4545 19.0905V19.0905Z" fill="#FFDBA9"/>
</svg>
