<svg width="50" height="50" viewBox="0 0 50 50" fill="none" xmlns="http://www.w3.org/2000/svg" style="border-radius: 50%; overflow: hidden;">
<mask id="mask0_2113_768" style="mask-type:alpha" maskUnits="userSpaceOnUse" x="0" y="0" width="50" height="50">
<circle cx="25" cy="25" r="25" fill="#5E85BC"/>
</mask>
<g mask="url(#mask0_2113_768)">
<path d="M50 0H0V50H50V0Z" fill="#78A1D1"/>
<path d="M46.833 45.056H3.42185C3.39962 44.9671 3.38296 44.8782 3.36629 44.7893C3.09962 43.3616 3.37185 41.8671 3.98851 40.556C4.48296 39.506 5.3274 38.5005 5.76629 37.406C6.00518 36.8282 6.12185 36.2282 6.02185 35.5838C5.98851 35.3727 5.9274 35.156 5.86074 34.9338C5.73296 34.5282 5.58851 34.1171 5.5774 33.7338C5.54962 32.7949 6.13296 31.6116 6.77185 30.956C7.32185 30.3893 7.9774 29.9393 8.51074 29.3616C8.89407 28.9505 9.19962 28.4727 9.4274 27.9616C9.7774 27.1727 9.93851 26.2949 9.88296 25.4282C9.83851 24.7171 9.63296 24.0616 9.40518 23.406C9.40518 23.4005 9.40518 23.3893 9.39963 23.3838H39.5885C39.783 23.5893 39.983 23.7782 40.1774 23.9671C41.0996 24.8393 41.9996 25.756 42.6663 26.8393C43.4607 28.1171 43.9107 29.6838 43.5607 31.1505C43.0607 33.2449 41.5274 35.4282 42.5496 37.6171C43.233 39.0838 44.6552 40.0616 45.6052 41.3505C46.4607 42.506 47.0774 43.756 46.833 45.056V45.056Z" fill="#26100D"/>
<path d="M43.2939 47.2665H5.35498C5.40498 46.0998 6.01054 45.011 6.83831 44.1887C7.66054 43.361 8.69387 42.7832 9.74942 42.2832C11.7939 41.3221 13.9716 40.6554 16.0161 39.6943C17.2161 39.1276 18.105 38.5665 18.8883 37.4498C19.5828 36.4498 20.0439 35.2832 20.1994 34.0776C20.2605 33.6054 20.3439 28.8721 20.3883 28.8721H28.005L28.0828 30.4221C28.0994 30.7276 28.1105 31.0332 28.1328 31.3332C28.1939 32.5554 28.305 33.7443 28.7216 34.9276C28.9994 35.7276 29.3716 36.4887 29.8272 37.1998C29.955 37.4054 30.0939 37.5998 30.2383 37.7943C30.955 38.7665 31.5716 39.1998 32.6272 39.6943C34.6716 40.6554 36.8494 41.3221 38.8939 42.2832C39.9494 42.7832 40.9828 43.361 41.8105 44.1887C42.6328 45.011 43.2383 46.0998 43.2939 47.2665V47.2665Z" fill="#D9847B"/>
<path d="M29.8288 37.1998C23.1399 37.8165 20.2065 31.8443 20.2065 31.8443C20.2065 31.8443 24.4343 31.9387 24.8565 31.8054C25.5177 31.5943 26.1899 31.4221 26.8843 31.3665C27.2954 31.3332 27.7177 31.3109 28.1343 31.3332C28.1954 32.5554 28.3065 33.7443 28.7232 34.9276C29.001 35.7276 29.3732 36.4887 29.8288 37.1998Z" fill="#C25361"/>
<path d="M39.3719 23.1438C39.0163 23.266 38.6441 23.3493 38.2719 23.3827C38.133 23.3993 37.9885 23.4049 37.8497 23.4049H9.40521C9.40521 23.4049 9.40521 23.3882 9.39966 23.3827C9.35521 23.2493 9.30521 23.1215 9.26077 22.9882C9.08854 22.5104 8.92188 22.0327 8.82188 21.5382C8.81077 21.4715 8.7941 21.3993 8.78299 21.3271C8.76632 21.2549 8.75521 21.1827 8.74966 21.1104C8.44965 18.7104 9.9441 16.5993 11.4663 14.9049C12.4885 13.766 13.4274 12.5549 14.233 11.2604C14.4163 10.966 14.6163 10.6771 14.8163 10.3938C15.5719 9.35487 16.4385 8.38821 17.2441 7.38265C18.1663 6.23265 19.5052 4.60487 21.1552 5.46599C21.1552 5.41043 22.383 4.45487 22.5219 4.38265C23.0719 4.08821 23.7219 3.86043 24.3385 3.75487C25.4885 3.54932 26.933 4.07154 28.0219 4.44932C31.5774 5.69932 34.083 8.11043 35.9497 11.3382C37.3941 13.8215 38.5441 16.4715 38.3552 19.4049C38.3274 19.8438 38.2719 20.2827 38.283 20.716C38.283 20.9382 38.3052 21.1493 38.3552 21.366C38.3941 21.5382 38.4441 21.6993 38.5163 21.8549C38.5385 21.916 38.5663 21.9771 38.5941 22.0327C38.6441 22.1438 38.7052 22.2549 38.7774 22.3604C38.8552 22.4938 38.9441 22.6215 39.0385 22.7438C39.0719 22.7938 39.1163 22.8493 39.1608 22.8993C39.2274 22.9827 39.2941 23.066 39.3719 23.1438Z" fill="#331914"/>
<path d="M34.6243 32.7023C35.201 32.6169 35.3909 30.6728 35.0486 28.36C34.7062 26.0472 33.9612 24.2415 33.3845 24.3269C32.8078 24.4122 32.6179 26.3563 32.9602 28.6692C33.3026 30.982 34.0476 32.7877 34.6243 32.7023Z" stroke="#F0AC1C" stroke-miterlimit="10"/>
<path d="M46.8333 45.0493C46.761 45.4493 46.6055 45.8549 46.3499 46.266C45.7444 47.2382 44.9555 47.6549 44.0444 47.9771C43.661 48.116 43.261 48.2382 42.8388 48.3827C42.4221 48.5216 42.011 48.6771 41.6055 48.8382C41.4055 48.7271 41.211 48.6049 41.0221 48.4771C39.6832 47.566 38.6055 46.3549 37.6721 45.0493C37.4277 44.7216 37.1999 44.3827 36.9777 44.0438C36.6888 43.5993 36.4166 43.0993 36.1888 42.5716C35.6721 41.3771 35.3944 40.0327 35.6721 38.8216C35.9499 37.5882 36.9666 36.6327 37.5166 35.5216C39.0944 32.3271 36.9444 29.916 35.6055 27.1993C35.0221 26.0216 34.9221 24.6493 35.2555 23.3993C35.2555 23.3938 35.2555 23.3827 35.261 23.3771C35.3277 23.116 35.4166 22.8604 35.5277 22.616C36.061 21.4049 37.0666 20.9216 38.2833 20.7104C38.2833 20.9327 38.3055 21.1438 38.3555 21.3605C38.4166 21.6271 38.511 21.8771 38.6388 22.1104C38.661 22.1604 38.6888 22.2105 38.7166 22.2549C38.7333 22.2882 38.7499 22.3216 38.7777 22.3549C38.811 22.4216 38.8555 22.4827 38.8999 22.5493C38.9444 22.6104 38.9888 22.6771 39.0388 22.7382C39.1388 22.8771 39.2499 23.0105 39.3721 23.1382C39.4388 23.2216 39.511 23.2993 39.5888 23.3771C39.7833 23.5827 39.9832 23.7716 40.1777 23.9604C41.0999 24.8327 41.9999 25.7493 42.6666 26.8327C43.461 28.1104 43.911 29.6771 43.561 31.1438C43.3666 31.9716 43.0055 32.816 42.7055 33.666C42.561 34.066 42.4333 34.4716 42.3444 34.8716C42.1721 35.6549 42.1332 36.4438 42.3999 37.2327C42.4388 37.3604 42.4888 37.4827 42.5499 37.6104C43.0055 38.5827 43.7833 39.3438 44.5333 40.1216C44.9166 40.5104 45.2888 40.9104 45.6055 41.3438C45.7888 41.5882 45.9555 41.8382 46.1055 42.0882C46.6832 43.0271 47.0277 44.0216 46.8333 45.0493V45.0493Z" fill="#331914"/>
<path d="M34.883 24.3951C34.6386 24.6006 34.3608 24.7618 34.0608 24.8729C33.8052 24.9673 33.5441 25.0284 33.2719 25.0451C33.1441 25.0506 33.0108 25.0506 32.8774 25.0451C32.933 25.0451 32.9774 24.084 33.0163 23.2506C33.0163 23.2506 33.0163 23.2451 33.0163 23.2395C33.033 22.9451 33.0441 22.6673 33.0608 22.4562C33.0552 22.4451 33.0608 22.4395 33.0608 22.434C33.0719 22.2451 33.0774 22.1118 33.0886 22.0618C33.2441 21.2506 34.2219 19.7729 35.2219 20.4562C36.5719 21.3784 35.9163 23.5062 34.883 24.4006V24.3951Z" fill="#D9847B"/>
<path d="M33.3149 23.2725C33.5149 22.6169 34.1094 22.1002 34.7816 21.9836C34.8427 21.9725 34.9094 21.9614 34.9427 21.9114C34.9816 21.8614 34.9649 21.7891 34.9427 21.7336C34.8261 21.4669 34.4761 21.3558 34.1983 21.4447C33.9205 21.5336 33.7205 21.7891 33.6149 22.0614C33.5094 22.3336 33.4872 22.6336 33.4705 22.9225L33.3205 23.2669L33.3149 23.2725Z" fill="#C25361"/>
<path d="M34.8538 23.0231C34.8538 23.0231 34.8093 23.0231 34.7926 23.0064C34.726 22.9731 34.6982 22.8898 34.7315 22.8175C34.926 22.4398 34.8704 21.9453 34.6038 21.6175C34.5538 21.5564 34.5649 21.4731 34.626 21.4231C34.6871 21.3731 34.7704 21.3842 34.8204 21.4453C35.1538 21.8564 35.2149 22.4731 34.976 22.9453C34.9538 22.9953 34.9038 23.0231 34.8538 23.0231V23.0231Z" fill="#914747"/>
<path d="M35.1814 21.7732C35.0592 21.6232 34.8481 21.5621 34.6537 21.5954C34.4592 21.6288 34.287 21.7288 34.1426 21.8565C33.787 22.1565 33.537 22.5843 33.4537 23.0399C33.3926 23.3677 33.3259 23.651 33.1759 23.9454C33.0703 23.6454 33.0092 23.3232 33.0037 23.001C32.9981 22.5732 33.087 22.1343 33.3259 21.7732C33.5648 21.4121 33.9481 21.1454 34.3759 21.1121C34.5703 21.0954 34.7703 21.1343 34.9259 21.2454C35.0814 21.3565 35.2148 21.5843 35.1759 21.7732H35.1814Z" fill="#D9847B"/>
<path d="M34.0614 24.8723C33.8058 24.9667 33.5447 25.0278 33.2725 25.0445C33.2725 25.0334 33.278 25.0167 33.2836 25.0056C33.3502 24.8112 33.2891 24.2723 33.5336 24.2556C33.7725 24.2445 34.0058 24.6112 34.0502 24.8056C34.0558 24.8278 34.0614 24.8501 34.0614 24.8723V24.8723Z" fill="#B86963"/>
<path d="M13.5941 32.9826C13.5941 32.9826 13.5386 32.9826 13.5108 32.9771C13.083 32.916 12.8163 32.3826 12.7163 31.3938C12.633 30.5493 12.683 29.4604 12.8497 28.316C13.0163 27.1771 13.2886 26.116 13.6108 25.3326C13.9886 24.416 14.3997 23.9826 14.8275 24.0438C15.2552 24.1049 15.5219 24.6382 15.6219 25.6271C15.7052 26.4715 15.6552 27.5604 15.4886 28.7049C15.3219 29.8438 15.0497 30.9049 14.7275 31.6882C14.3719 32.5493 13.9941 32.9826 13.5941 32.9826V32.9826ZM14.7497 24.5993C14.533 24.6049 13.7886 25.7826 13.3997 28.3993C13.0108 31.016 13.383 32.3604 13.5886 32.4271C13.8052 32.4215 14.5497 31.2438 14.9386 28.6271C15.3275 26.0104 14.9552 24.666 14.7497 24.5993Z" fill="#F0AC1C"/>
<path d="M14.067 23.4112C14.0559 24.4112 14.2003 25.4168 14.2447 26.4168C14.3281 28.2556 13.667 29.5168 12.9781 31.1445C12.2892 32.7723 11.0559 33.9445 10.5392 35.6001C10.2614 36.489 10.1392 37.6056 10.4059 38.5168C10.6614 39.4056 11.3392 40.2668 11.8059 41.0723C12.317 41.9612 12.8336 42.9001 12.5225 43.9223C12.4059 44.3056 12.2781 44.6834 12.1281 45.0556C11.8447 45.789 11.4947 46.5001 11.0614 47.1501C10.3559 48.2112 9.38363 49.1223 8.21696 49.6112C7.36141 49.2223 6.52808 48.7834 5.71141 48.2945C4.54474 47.5945 3.73919 46.3779 3.41696 45.0556C3.39474 44.9668 3.37808 44.8779 3.36141 44.789C3.09474 43.3612 3.36696 41.8668 3.98363 40.5556C4.47808 39.5056 5.32252 38.5001 5.76141 37.4056C6.0003 36.8279 6.11696 36.2279 6.01696 35.5834C5.98363 35.3723 5.92252 35.1556 5.85585 34.9334C5.72808 34.5279 5.58363 34.1168 5.57252 33.7334C5.54474 32.7945 6.12808 31.6112 6.76696 30.9556C7.31696 30.389 7.97252 29.939 8.50585 29.3612C8.88919 28.9501 9.19474 28.4723 9.42252 27.9612C9.77252 27.1723 9.93363 26.2945 9.87808 25.4279C9.83363 24.7168 9.62808 24.0612 9.4003 23.4056C9.4003 23.4001 9.4003 23.389 9.39474 23.3834C9.3503 23.2501 9.3003 23.1223 9.25585 22.989C9.08919 22.5168 8.92808 22.039 8.81696 21.539C8.80585 21.4723 8.78919 21.4001 8.77808 21.3279C8.76141 21.2556 8.7503 21.1834 8.74474 21.1112C8.44474 18.7112 9.93919 16.6001 11.4614 14.9056C12.4836 13.7668 13.4225 12.5556 14.2281 11.2612C14.4114 10.9668 14.6114 10.6779 14.8114 10.3945C14.6336 11.7223 14.6947 13.1834 14.7947 14.3445C14.9559 16.1556 15.2059 18.0056 14.7892 19.7723C14.5336 20.8334 14.167 21.7834 14.0836 22.8834C14.0725 23.0612 14.0614 23.239 14.0614 23.4112H14.067Z" fill="#331914"/>
<path d="M15.3556 25.0387C15.1889 25.0554 15.0223 25.0499 14.8612 25.0332C14.6389 25.011 14.4167 24.961 14.2056 24.8832C13.8945 24.7721 13.6056 24.6054 13.3556 24.3943C12.3167 23.4998 11.6612 21.3721 13.0112 20.4498C14.0112 19.7665 14.9889 21.2443 15.1445 22.0554C15.1556 22.1054 15.1612 22.2387 15.1723 22.4276C15.1723 22.4332 15.1778 22.4387 15.1723 22.4498C15.1889 22.661 15.2001 22.9387 15.2167 23.2332C15.2112 23.2332 15.2167 23.2443 15.2167 23.2443C15.2556 24.0776 15.3001 25.0387 15.3556 25.0387V25.0387Z" fill="#D9847B"/>
<path d="M14.9162 23.2725C14.7162 22.6169 14.1218 22.1002 13.4496 21.9836C13.3885 21.9725 13.3218 21.9614 13.2885 21.9114C13.2496 21.8614 13.2662 21.7891 13.2885 21.7336C13.4051 21.4669 13.7551 21.3558 14.0329 21.4447C14.3107 21.5336 14.5107 21.7891 14.6162 22.0614C14.7218 22.3336 14.744 22.6336 14.7607 22.9225L14.9107 23.2669L14.9162 23.2725Z" fill="#C25361"/>
<path d="M13.3785 23.0217C13.3285 23.0217 13.2785 22.994 13.2563 22.944C13.0174 22.4717 13.0785 21.8551 13.4118 21.444C13.4618 21.3828 13.5507 21.3773 13.6063 21.4217C13.6674 21.4717 13.673 21.5551 13.6285 21.6162C13.3618 21.944 13.3118 22.4384 13.5007 22.8162C13.5341 22.8828 13.5063 22.9662 13.4396 23.0051C13.4174 23.0162 13.4007 23.0217 13.3785 23.0217V23.0217Z" fill="#914747"/>
<path d="M13.0511 21.7717C13.1733 21.6217 13.3844 21.5606 13.5788 21.594C13.7733 21.6273 13.9455 21.7273 14.09 21.8551C14.4455 22.1551 14.6955 22.5829 14.7788 23.0384C14.84 23.3662 14.9066 23.6495 15.0566 23.944C15.1622 23.644 15.2233 23.3217 15.2288 22.9995C15.2344 22.5717 15.1455 22.1329 14.9066 21.7717C14.6677 21.4106 14.2844 21.144 13.8566 21.1106C13.6622 21.094 13.4622 21.1329 13.3066 21.244C13.1511 21.3551 13.0177 21.5829 13.0566 21.7717H13.0511Z" fill="#D9847B"/>
<path d="M14.8606 25.0329C14.6384 25.0106 14.4162 24.9606 14.2051 24.8829C14.2162 24.6773 14.3106 24.4884 14.5217 24.4162C14.8995 24.2884 14.9051 24.694 14.8606 25.0329V25.0329Z" fill="#B86963"/>
<path d="M33.8604 20.0558C33.0771 29.2058 27.8993 33.3224 24.2215 33.3224C20.316 33.3224 14.8827 28.3224 14.4104 20.3169C13.9938 13.228 18.916 7.61133 24.2215 7.61133C29.5271 7.61133 34.466 12.9835 33.8604 20.0558V20.0558Z" fill="#D9847B"/>
<path d="M18.3389 15.8779C17.9167 17.1945 17.1112 18.5001 15.8278 19.0112C15.6612 19.0779 15.4612 19.1223 15.3223 19.0112C15.2001 18.9167 15.1778 18.7445 15.1612 18.589C14.9501 15.6945 15.5667 12.739 16.9223 10.1723C17.4223 9.2223 19.2723 6.76675 20.5056 8.20008C20.9112 8.66675 20.8056 9.38341 20.5278 9.88897C20.0556 10.7501 19.5056 11.4223 19.2112 12.389C18.8612 13.539 18.7112 14.739 18.3389 15.8834V15.8779Z" fill="#C25361"/>
<path d="M14.3447 20.7168C13.928 19.9501 13.9613 19.0001 14.2391 18.1724C14.5169 17.3446 15.0058 16.6057 15.4947 15.8835C16.0169 15.1057 16.5447 14.3224 17.0669 13.5446C17.5836 12.7779 18.4169 12.7224 18.4724 13.7446C18.5224 14.6668 18.2891 15.6501 17.9669 16.5113C17.3002 18.2779 16.0169 19.8279 14.3447 20.7224V20.7168Z" fill="#C25361"/>
<path d="M33.0775 18.366C31.5108 18.9382 29.7108 18.566 28.2719 17.716C26.833 16.866 25.7053 15.5882 24.6775 14.2715C23.6497 12.9549 22.7053 11.566 21.5164 10.3938C21.2108 10.0882 20.8775 9.79931 20.4775 9.6382C20.0775 9.47709 19.5886 9.47709 19.2441 9.73264C20.983 8.50486 23.4164 8.52153 25.4053 9.26597C27.3997 10.0104 29.033 11.516 30.283 13.2382C31.533 14.9604 32.1775 16.4326 33.0719 18.366H33.0775Z" fill="#C25361"/>
<path d="M23.9161 6.65556C21.9494 6.41111 19.8938 6.67778 18.1438 7.60556C16.5161 8.47222 15.1438 9.96667 14.5938 11.7444C14.4661 12.1611 14.4994 12.55 14.4272 12.9667C14.3327 13.5111 14.2161 14.0389 14.155 14.5889C14.0383 15.6944 14.0383 16.8111 14.1327 17.9167C14.6883 15.9722 15.405 14.05 16.5938 12.4167C17.7827 10.7833 19.4827 9.45556 21.4605 9.03889C24.0661 8.49444 26.7994 9.58889 28.9661 10.9833C31.1161 12.3611 33.655 14.5611 34.0327 17.2111C33.8161 15.7111 33.7105 14.4 32.9938 13.0167C32.355 11.7833 31.5272 10.6444 30.5494 9.66111C28.8827 7.98889 26.605 7.06667 24.2772 6.7C24.155 6.68333 24.0327 6.66111 23.9105 6.65L23.9161 6.65556Z" fill="black"/>
<path d="M20.4337 20.5666C20.719 20.5666 20.9503 20.2955 20.9503 19.961C20.9503 19.6266 20.719 19.3555 20.4337 19.3555C20.1483 19.3555 19.917 19.6266 19.917 19.961C19.917 20.2955 20.1483 20.5666 20.4337 20.5666Z" fill="#331914"/>
<path d="M27.295 20.5666C27.5803 20.5666 27.8117 20.2955 27.8117 19.961C27.8117 19.6266 27.5803 19.3555 27.295 19.3555C27.0096 19.3555 26.7783 19.6266 26.7783 19.961C26.7783 20.2955 27.0096 20.5666 27.295 20.5666Z" fill="#331914"/>
<path d="M18.5332 18.3779C18.5332 18.3779 18.5221 18.3557 18.5165 18.3446C18.3388 17.9557 19.0943 17.2502 19.3554 17.089C19.8554 16.789 20.9165 16.6113 20.9443 17.4724C20.961 17.9057 20.5943 17.989 20.2554 18.0446C19.9276 18.1002 18.7721 18.7279 18.5276 18.3779H18.5332Z" fill="#331914"/>
<path d="M28.6831 18.4673C28.6831 18.4673 28.6943 18.4451 28.6998 18.434C28.8776 18.0451 28.122 17.3395 27.8609 17.1784C27.3609 16.8784 26.2998 16.7006 26.272 17.5617C26.2554 17.9951 26.622 18.0784 26.9609 18.134C27.2887 18.1895 28.4443 18.8173 28.6887 18.4673H28.6831Z" fill="#331914"/>
<path d="M16.2614 8.68291C14.0558 11.3718 13.278 15.3329 13.2947 18.7274C13.2947 19.0274 13.3058 19.3385 13.4058 19.6218C13.7725 20.6885 14.5114 20.0385 15.0947 19.5496C15.678 19.0607 16.2114 18.4829 16.6558 17.8551C17.3669 16.844 18.0503 15.5885 18.378 14.394C18.6725 13.3329 18.6558 12.2107 18.9336 11.1662C19.0558 10.7051 19.2891 10.2774 19.6114 9.92736C19.7558 9.76624 20.2836 9.29402 20.778 9.25513C20.0614 9.06069 19.2114 8.92736 18.8836 9.68847C18.8447 8.98291 19.0003 8.19958 19.3058 7.86069C19.6947 7.4218 20.0558 7.37735 20.578 7.56069C22.2725 8.16069 23.1003 9.66624 23.9114 11.1385C25.0614 13.2218 26.2058 15.1551 27.9947 16.7774C29.7836 18.3996 31.7614 19.5385 33.978 20.2329C34.4391 18.8385 34.2447 17.1385 34.0336 15.6996C33.8058 14.1385 33.3558 12.6051 32.7002 11.1662C32.2502 10.1774 31.278 9.2718 30.4558 8.56069C29.528 7.75513 28.4669 7.09958 27.328 6.63847C25.4336 5.86624 23.328 5.63847 21.3114 5.94402C19.2947 6.24958 17.6003 7.04958 16.2669 8.6718L16.2614 8.68291Z" fill="#331914"/>
<path d="M34.6606 32.9774L34.5773 32.4274C34.7828 32.3607 35.155 31.0163 34.7662 28.3996C34.3773 25.7829 33.6328 24.6052 33.4162 24.5996L33.3384 24.0496C33.7662 23.9885 34.1773 24.4218 34.555 25.3385C34.8773 26.1218 35.1495 27.1829 35.3162 28.3218C35.4828 29.4607 35.5328 30.5552 35.4495 31.3996C35.355 32.3885 35.0884 32.9218 34.655 32.9829L34.6606 32.9774Z" fill="#F0AC1C"/>
<path d="M14.7955 24.3216C14.2177 24.2383 13.4732 26.0438 13.1288 28.355C12.7844 30.6661 12.9788 32.6161 13.551 32.6994" stroke="#F0AC1C" stroke-miterlimit="10"/>
<path d="M16.1436 39.6327C15.7825 40.4327 15.9714 41.7771 16.227 42.4271C16.6436 43.4716 17.4159 44.3382 18.2547 45.0938C19.3436 46.0716 20.6436 46.9104 22.0436 47.266C22.5881 47.4049 23.1436 47.466 23.7103 47.4382C23.9714 47.4271 24.2492 47.3771 24.4825 47.266C24.6992 47.166 24.8714 47.0104 24.9547 46.7938C25.127 46.3438 24.8325 45.866 24.6159 45.4327C23.9325 44.1104 23.9047 42.4715 24.5381 41.1271C22.3492 40.9493 20.1936 40.3438 18.2325 39.3604C17.9603 39.2215 17.6936 39.0771 17.3936 39.0215C17.3547 39.0215 17.3159 39.0049 17.277 39.0049L16.1436 39.6327V39.6327Z" fill="#C25361"/>
<path d="M6.68327 38.0104C6.66105 38.3326 6.49438 38.716 6.49438 39.0326C6.46105 38.4271 6.12771 37.8993 5.7666 37.4048C6.00549 36.8271 6.12216 36.2271 6.02216 35.5826C5.98882 35.3715 5.92771 35.1548 5.86105 34.9326C6.23882 35.516 6.49993 36.1771 6.6166 36.8604C6.68327 37.2382 6.70549 37.6271 6.68327 38.0104V38.0104Z" fill="black"/>
<path d="M10.5499 25.8717C10.3221 26.6328 9.90541 27.3217 9.42764 27.9606C9.77764 27.1717 9.93875 26.2939 9.88319 25.4273C9.79986 24.0495 9.09986 22.8606 8.82764 21.5439C9.31653 22.1551 9.96653 22.6106 10.3443 23.2828C10.7832 24.0551 10.7999 25.0162 10.5499 25.8717V25.8717Z" fill="black"/>
<path d="M28.3563 21.8618C29.2154 21.8618 29.9119 21.6678 29.9119 21.4284C29.9119 21.1891 29.2154 20.9951 28.3563 20.9951C27.4972 20.9951 26.8008 21.1891 26.8008 21.4284C26.8008 21.6678 27.4972 21.8618 28.3563 21.8618Z" fill="#C25361"/>
<path d="M19.5058 21.8618C20.3649 21.8618 21.0613 21.6678 21.0613 21.4284C21.0613 21.1891 20.3649 20.9951 19.5058 20.9951C18.6466 20.9951 17.9502 21.1891 17.9502 21.4284C17.9502 21.6678 18.6466 21.8618 19.5058 21.8618Z" fill="#C25361"/>
<path d="M46.3668 49.9998H3.01123C3.15012 48.7942 3.75567 47.3887 4.07234 46.6276C4.08345 46.5998 4.08901 46.5776 4.10012 46.5553C4.31123 46.0331 4.56123 45.5331 4.84456 45.0553C5.69456 43.6553 6.87234 42.5053 8.45567 41.8887C8.63345 41.822 8.81679 41.7553 9.00012 41.6998C9.9779 41.4053 10.8612 41.1109 11.6612 40.822C13.9112 40.0165 15.4335 39.2831 16.089 38.922C16.3168 38.7942 16.589 38.8109 16.7946 38.9609C16.8668 39.0109 16.9501 39.072 17.0446 39.1331C17.0501 39.1331 17.0557 39.1331 17.0612 39.1331C18.1112 39.8276 20.4446 41.0831 23.7001 41.1942C23.8168 41.1998 23.9446 41.2053 24.0668 41.2053H24.2001V41.2109C24.1723 41.2553 24.139 41.3109 24.1057 41.3664C24.0723 41.422 24.039 41.4942 24.0001 41.5664C23.9723 41.622 23.939 41.6831 23.9112 41.7442C23.6779 42.2276 23.4557 42.8942 23.4557 43.6331C23.4557 44.1553 23.5668 44.6387 23.7168 45.0498C23.989 45.8109 24.3779 46.322 24.4001 46.322C24.4057 46.322 24.5835 46.0998 24.7779 45.7276C24.8835 45.5387 24.989 45.3109 25.0835 45.0498C25.2335 44.6387 25.3501 44.1553 25.3501 43.6331C25.3501 43.0498 25.2168 42.5164 25.0501 42.0776C25.0112 41.9831 24.9723 41.8887 24.939 41.8053C24.9223 41.772 24.9057 41.7331 24.889 41.6998C24.8668 41.6553 24.8501 41.6164 24.8223 41.5776C24.7835 41.4998 24.7446 41.4276 24.7112 41.3664C24.6779 41.3053 24.6446 41.2553 24.6168 41.2053H24.6112C24.7557 41.1942 24.9057 41.1887 25.0557 41.1776L25.2557 41.1609C27.1668 41.0109 29.3446 40.4442 31.7001 39.1887C31.8723 39.0942 32.0501 38.9942 32.2279 38.8942C32.4612 38.7609 32.7501 38.7831 32.9612 38.9498C33.039 39.0109 33.1335 39.0776 33.2501 39.1442C33.6612 39.3942 34.3446 39.7053 35.489 40.022C35.5168 40.0276 35.5446 40.0387 35.5723 40.0442C37.9335 40.7053 40.389 41.3276 42.5557 42.4998C43.6057 43.0664 44.3779 43.9998 44.939 45.0498C45.2779 45.6831 45.539 46.3609 45.739 47.022C45.739 47.0276 45.7446 47.0387 45.7446 47.0442C45.7723 47.1331 45.7946 47.2164 45.8168 47.2998C45.8723 47.4942 45.9335 47.7053 46.0001 47.9387C46.1779 48.5664 46.3612 49.3053 46.3723 49.9942L46.3668 49.9998Z" fill="#F0AC1C"/>
<path d="M24.6058 41.2059C24.4669 41.2115 24.3335 41.2115 24.2002 41.2115C24.3058 41.0393 24.3835 40.9448 24.3946 40.9448C24.4169 40.9448 24.5002 41.0393 24.6058 41.2059V41.2059Z" fill="#D9847B"/>
<path d="M24.0665 41.2168H24.1999C24.1388 41.3112 24.0665 41.4335 23.9943 41.5779C23.9888 41.5557 23.9888 41.539 23.9888 41.5168C23.9888 41.4057 24.0165 41.3057 24.0665 41.2168V41.2168Z" fill="#D18618"/>
<path d="M25.3499 41.5114C25.3499 41.7503 25.2277 41.9614 25.0444 42.0781C24.8999 41.7059 24.7332 41.4059 24.6055 41.2059C24.8166 41.2003 25.0332 41.1837 25.2499 41.167C25.3166 41.267 25.3499 41.3837 25.3499 41.5114V41.5114Z" fill="#D18618"/>
<path d="M24.378 41.939C24.7523 41.939 25.0558 41.6356 25.0558 41.2613C25.0558 40.8869 24.7523 40.5835 24.378 40.5835C24.0036 40.5835 23.7002 40.8869 23.7002 41.2613C23.7002 41.6356 24.0036 41.939 24.378 41.939Z" fill="white"/>
<path d="M24.227 24.4448H22.8659C22.827 24.4448 22.7881 24.4281 22.7603 24.3948C22.7325 24.3615 22.7214 24.3226 22.727 24.2837C23.027 22.2837 23.477 19.2559 23.4825 19.1226C23.4825 19.0504 23.5492 18.9893 23.6214 18.9893C23.6936 18.9893 23.7548 19.0504 23.7548 19.1281C23.7548 19.2281 23.2214 22.8226 23.0214 24.167H24.2214C24.2992 24.167 24.3603 24.2281 24.3603 24.3059C24.3603 24.3837 24.2992 24.4448 24.2214 24.4448H24.227Z" fill="#331914"/>
<path d="M23.4055 26.5174C23.1611 26.5174 22.9167 26.4896 22.6667 26.4396C22.5889 26.4229 22.5444 26.3507 22.5611 26.2729C22.5778 26.1952 22.65 26.1507 22.7278 26.1674C24.2055 26.4729 25.6111 25.8063 26.5889 24.3396C26.6333 24.2785 26.7167 24.2563 26.7833 24.3007C26.8444 24.3452 26.8667 24.4285 26.8222 24.4952C25.9555 25.7952 24.7167 26.5174 23.4111 26.5174H23.4055Z" fill="#AB3451"/>
<path d="M45.9946 47.9448C43.8891 46.1893 41.3391 44.9559 38.7113 44.1337C35.0502 42.9893 31.5669 41.8393 27.7446 41.4448C30.0335 40.9337 31.3724 40.2726 33.2446 39.1504C33.6557 39.4004 34.3391 39.7115 35.4835 40.0282C37.8724 40.6948 40.3557 41.3226 42.5502 42.5059C44.2391 43.4115 45.2002 45.2726 45.7391 47.0504C45.7669 47.1393 45.7891 47.2226 45.8113 47.3059C45.8669 47.5004 45.928 47.7115 45.9946 47.9448Z" fill="#E3971F"/>
<path d="M14.1613 20.4996C14.1168 20.4996 14.0668 20.4773 14.0446 20.4329C14.0057 20.3662 14.0224 20.2829 14.089 20.244C16.9224 18.4884 18.5613 14.4607 18.6668 11.5662C18.6724 11.3607 18.6668 11.1162 18.6668 10.8384C18.6446 9.66067 18.6168 8.04955 19.4335 7.494C19.8168 7.23289 20.339 7.23844 20.989 7.51067C21.5557 7.744 22.1501 8.22178 22.539 8.75511C23.3001 9.78844 23.9557 10.9162 24.5835 12.0051L24.8668 12.4996C27.2335 16.5607 30.2335 19.0773 33.789 19.9884C33.8613 20.0051 33.9057 20.0829 33.889 20.1551C33.8724 20.2273 33.7946 20.2773 33.7224 20.2551C30.0946 19.3273 27.0335 16.7662 24.6279 12.6384L24.339 12.144C23.7113 11.0607 23.0613 9.944 22.3113 8.92178C21.9446 8.42733 21.3946 7.98844 20.8779 7.77178C20.3224 7.53844 19.889 7.52733 19.589 7.72733C18.9001 8.19955 18.9224 9.72178 18.9446 10.8384C18.9446 11.1162 18.9557 11.3718 18.9446 11.5829C18.8335 14.6273 17.1835 18.6607 14.239 20.4884C14.2168 20.5051 14.189 20.5107 14.1668 20.5107L14.1613 20.4996Z" fill="black"/>
<path d="M38.1284 21.194C38.1284 21.194 38.1284 21.194 38.1229 21.194C38.0451 21.194 37.9896 21.1217 37.9951 21.0495C38.2062 17.4384 37.1618 13.8273 35.0618 10.8773C32.9618 7.92729 29.884 5.77173 26.4007 4.79951C25.334 4.49951 24.4062 4.39951 23.5784 4.4884C22.7118 4.58284 21.834 4.72729 21.4396 5.3884C21.4007 5.45507 21.3118 5.47729 21.2507 5.43284C21.184 5.39396 21.1618 5.30507 21.2062 5.24396C21.7062 4.41062 22.8673 4.2884 23.5562 4.21062C24.4229 4.11618 25.3784 4.22173 26.484 4.53284C30.0284 5.52729 33.1618 7.72173 35.3007 10.7217C37.4396 13.7162 38.5007 17.394 38.284 21.0662C38.284 21.1384 38.2173 21.1995 38.1451 21.1995L38.1284 21.194Z" fill="black"/>
<path d="M35.3552 18.6332C35.283 18.6221 35.2163 18.5721 35.2163 18.4943C35.2496 13.5999 32.5496 8.8221 28.3441 6.3221C26.9052 5.46655 25.5274 5.0221 24.2441 5.00544C24.2274 5.00544 24.2107 5.00544 24.1941 5.00544C22.5496 5.00544 21.3218 6.29432 20.7385 7.0721C20.6941 7.13321 20.6052 7.14432 20.5441 7.09988C20.483 7.05544 20.4718 6.96655 20.5163 6.90544C21.5941 5.48321 22.9218 4.71655 24.2496 4.72766C25.5774 4.74988 27.0052 5.20544 28.483 6.08321C32.7718 8.63321 35.5218 13.5054 35.4941 18.4943C35.4941 18.5721 35.433 18.6332 35.3552 18.6332V18.6332Z" fill="black"/>
<path d="M14.1665 14.4885C14.1276 14.4885 14.0942 14.4718 14.0665 14.444C14.0109 14.3885 14.0165 14.2996 14.0665 14.2496C14.9998 13.344 15.4609 12.0162 15.8109 10.7218C16.172 9.40513 16.5554 8.13291 17.3109 7.03291C18.422 5.41069 19.872 4.81624 21.2776 5.39402C21.3498 5.4218 21.3831 5.50513 21.3554 5.57735C21.3276 5.64958 21.2442 5.68291 21.172 5.65513C19.3554 4.91069 18.0276 6.48291 17.5387 7.19402C16.8054 8.26069 16.4331 9.50513 16.0776 10.7996C15.7109 12.1329 15.2387 13.4996 14.2554 14.4496C14.2276 14.4774 14.1942 14.4885 14.1609 14.4885H14.1665Z" fill="black"/>
<path d="M44.5332 40.1221C44.4998 40.1054 44.4665 40.0887 44.4332 40.0776C43.8721 39.8721 43.2387 39.8665 42.7165 39.5832C41.9609 39.1665 41.5998 38.2387 41.6221 37.3721C41.6443 36.5054 41.9776 35.6832 42.311 34.8832C42.3221 34.8776 42.3332 34.8721 42.3443 34.8721C42.1721 35.6554 42.1332 36.4443 42.3998 37.2332C42.4387 37.361 42.4887 37.4832 42.5498 37.611C43.0054 38.5832 43.7832 39.3443 44.5332 40.1221V40.1221Z" fill="black"/>
</g>
</svg>
