<svg width="50" height="50" viewBox="0 0 50 50" fill="none" xmlns="http://www.w3.org/2000/svg">
<path d="M49.2845 7.82343H48.833V6.87646H29.6124C28.5583 6.87646 27.5884 7.23038 26.8098 7.82343H23.1768C22.4001 7.23038 21.4283 6.87646 20.3742 6.87646H1.15549V7.82343H0.713575C0.319483 7.82343 0 8.14483 0 8.53892V40.8545C0 41.2486 0.319483 41.57 0.713575 41.57H22.2586C22.249 41.6178 22.2433 41.6676 22.2433 41.7173C22.2433 42.165 22.6048 42.5265 23.0525 42.5265H27.003C27.2268 42.5265 27.4277 42.4366 27.575 42.2893C27.7204 42.1439 27.8122 41.9411 27.8122 41.7173C27.8122 41.6676 27.8065 41.6178 27.7969 41.57H29.2489V44.6768L31.1448 42.781L33.1133 44.7495V41.57H49.2845C49.6786 41.57 50 41.2486 50 40.8545V8.53892C50 8.14483 49.6786 7.82343 49.2845 7.82343V7.82343Z" fill="#DDE4DD"/>
<path d="M50 6.91275V38.5683C50 38.9624 49.6786 39.2838 49.2845 39.2838H0.713575C0.319483 39.2838 0 38.9624 0 38.5683V6.91275C0 6.51866 0.319483 6.19727 0.713575 6.19727H23.3605C24.3056 6.9491 24.9292 8.08929 24.9943 9.37488C25.0593 8.08929 25.683 6.9491 26.628 6.19727H49.2845C49.6786 6.19727 50 6.51866 50 6.91275Z" fill="#3B89C9"/>
<path d="M50 38.5684V39.2284C50 39.6225 49.6786 39.9439 49.2845 39.9439H0.713575C0.319483 39.9439 0 39.6225 0 39.2284V38.5684C0 38.9625 0.319483 39.2838 0.713575 39.2838H49.2845C49.6786 39.2838 50 38.9625 50 38.5684Z" fill="#2B2968"/>
<path d="M24.9998 34.312H1.15527V38.1343H24.9998V34.312Z" fill="#F3D2A3"/>
<path d="M1.15527 34.3159H21.1889C23.2933 34.3159 24.9998 36.0243 24.9998 38.1268H1.15527V34.3159Z" fill="#FAA51A"/>
<path d="M1.15527 5.25049H20.6533C23.0523 5.25049 24.9998 7.19799 24.9998 9.59699V34.3119H1.15527V5.25049Z" fill="#F3D2A3"/>
<path d="M22.2451 7.9707H3.42236V8.53315H22.2451V7.9707Z" fill="#FAA51A"/>
<path d="M22.2451 10.1763H3.42236V10.7387H22.2451V10.1763Z" fill="#FAA51A"/>
<path d="M22.2451 12.1489H3.42236V12.7114H22.2451V12.1489Z" fill="#FAA51A"/>
<path d="M22.2451 14.3066H3.42236V14.8691H22.2451V14.3066Z" fill="#FAA51A"/>
<path d="M22.2451 16.1855H3.42236V16.748H22.2451V16.1855Z" fill="#FAA51A"/>
<path d="M22.2451 18.3433H3.42236V18.9057H22.2451V18.3433Z" fill="#FAA51A"/>
<path d="M13.267 20.2222H3.42236V20.7846H13.267V20.2222Z" fill="#FAA51A"/>
<path d="M13.267 22.0986H3.42236V22.6611H13.267V22.0986Z" fill="#FAA51A"/>
<path d="M13.267 24.333H3.42236V24.8955H13.267V24.333Z" fill="#FAA51A"/>
<path d="M13.267 26.3877H3.42236V26.9501H13.267V26.3877Z" fill="#FAA51A"/>
<path d="M13.267 28.4424H3.42236V29.0048H13.267V28.4424Z" fill="#FAA51A"/>
<path d="M13.267 30.4951H3.42236V31.0576H13.267V30.4951Z" fill="#FAA51A"/>
<path d="M22.2434 19.9888H14.8628V31.0597H22.2434V19.9888Z" fill="#FAA51A"/>
<path d="M24.9998 9.5989V34.3119H1.15527V5.25049H20.6533C21.6768 5.25049 22.618 5.60441 23.3603 6.19746C24.3053 6.9493 24.929 8.08949 24.994 9.37507C24.9979 9.44968 24.9998 9.52429 24.9998 9.5989V9.5989Z" fill="#F3D2A3"/>
<path d="M22.2451 7.9707H3.42236V8.53315H22.2451V7.9707Z" fill="#FAA51A"/>
<path d="M22.2451 10.1763H3.42236V10.7387H22.2451V10.1763Z" fill="#FAA51A"/>
<path d="M22.2451 12.1489H3.42236V12.7114H22.2451V12.1489Z" fill="#FAA51A"/>
<path d="M22.2451 14.3066H3.42236V14.8691H22.2451V14.3066Z" fill="#FAA51A"/>
<path d="M22.2451 16.1855H3.42236V16.748H22.2451V16.1855Z" fill="#FAA51A"/>
<path d="M22.2451 18.3433H3.42236V18.9057H22.2451V18.3433Z" fill="#FAA51A"/>
<path d="M13.267 20.2222H3.42236V20.7846H13.267V20.2222Z" fill="#FAA51A"/>
<path d="M13.267 22.0986H3.42236V22.6611H13.267V22.0986Z" fill="#FAA51A"/>
<path d="M13.267 24.333H3.42236V24.8955H13.267V24.333Z" fill="#FAA51A"/>
<path d="M13.267 26.3877H3.42236V26.9501H13.267V26.3877Z" fill="#FAA51A"/>
<path d="M13.267 28.4424H3.42236V29.0048H13.267V28.4424Z" fill="#FAA51A"/>
<path d="M13.267 30.4951H3.42236V31.0576H13.267V30.4951Z" fill="#FAA51A"/>
<path d="M22.2434 19.9888H14.8628V31.0597H22.2434V19.9888Z" fill="#FAA51A"/>
<path d="M48.8328 34.312H24.9883V38.1267H48.8328V34.312Z" fill="#FCDFB1"/>
<path d="M48.833 38.127H24.9885C24.9885 36.0226 26.6969 34.3161 28.7993 34.3161H48.833V38.127V38.127Z" fill="#F7BE57"/>
<path d="M48.833 34.312H24.9885L24.9885 9.59897C24.9885 7.19998 26.936 5.25248 29.335 5.25248L48.833 5.25248L48.833 34.312Z" fill="#FCDFB1"/>
<path d="M46.5659 30.4951H27.7432V31.0576H46.5659V30.4951Z" fill="#F7BE57"/>
<path d="M46.5659 28.2896H27.7432V28.852H46.5659V28.2896Z" fill="#F7BE57"/>
<path d="M46.5659 26.3193H27.7432V26.8818H46.5659V26.3193Z" fill="#F7BE57"/>
<path d="M46.5659 24.1592H27.7432V24.7216H46.5659V24.1592Z" fill="#F7BE57"/>
<path d="M46.5659 22.2808H27.7432V22.8432H46.5659V22.2808Z" fill="#F7BE57"/>
<path d="M46.5659 20.1226H27.7432V20.685H46.5659V20.1226Z" fill="#F7BE57"/>
<path d="M37.5878 18.2441H27.7432V18.8066H37.5878V18.2441Z" fill="#F7BE57"/>
<path d="M37.5878 16.3672H27.7432V16.9296H37.5878V16.3672Z" fill="#F7BE57"/>
<path d="M37.5878 14.1328H27.7432V14.6953H37.5878V14.1328Z" fill="#F7BE57"/>
<path d="M37.5878 12.0781H27.7432V12.6406H37.5878V12.0781Z" fill="#F7BE57"/>
<path d="M37.5878 10.0254H27.7432V10.5878H37.5878V10.0254Z" fill="#F7BE57"/>
<path d="M37.5878 7.9707H27.7432V8.53315H37.5878V7.9707Z" fill="#F7BE57"/>
<path d="M46.5618 7.9707H39.1812V19.0416H46.5618V7.9707Z" fill="#F7BE57"/>
<path d="M48.8328 5.25049V34.3119H24.9883V9.5989C24.9883 9.52429 24.9902 9.44968 24.994 9.37507C25.0591 8.08949 25.6827 6.9493 26.6278 6.19746C27.3701 5.60441 28.3113 5.25049 29.3348 5.25049H48.8328V5.25049Z" fill="#FCDFB1"/>
<path d="M46.5659 30.4951H27.7432V31.0576H46.5659V30.4951Z" fill="#F7BE57"/>
<path d="M46.5659 28.2896H27.7432V28.852H46.5659V28.2896Z" fill="#F7BE57"/>
<path d="M46.5659 26.3193H27.7432V26.8818H46.5659V26.3193Z" fill="#F7BE57"/>
<path d="M46.5659 24.1592H27.7432V24.7216H46.5659V24.1592Z" fill="#F7BE57"/>
<path d="M46.5659 22.2808H27.7432V22.8432H46.5659V22.2808Z" fill="#F7BE57"/>
<path d="M46.5659 20.1226H27.7432V20.685H46.5659V20.1226Z" fill="#F7BE57"/>
<path d="M37.5878 18.2441H27.7432V18.8066H37.5878V18.2441Z" fill="#F7BE57"/>
<path d="M37.5878 16.3672H27.7432V16.9296H37.5878V16.3672Z" fill="#F7BE57"/>
<path d="M37.5878 14.1328H27.7432V14.6953H37.5878V14.1328Z" fill="#F7BE57"/>
<path d="M37.5878 12.0781H27.7432V12.6406H37.5878V12.0781Z" fill="#F7BE57"/>
<path d="M37.5878 10.0254H27.7432V10.5878H37.5878V10.0254Z" fill="#F7BE57"/>
<path d="M37.5878 7.9707H27.7432V8.53315H37.5878V7.9707Z" fill="#F7BE57"/>
<path d="M46.5618 7.9707H39.1812V19.0416H46.5618V7.9707Z" fill="#F7BE57"/>
<path d="M29.249 36.7646V43.051L31.1449 41.1551L33.1134 43.1237V36.7646H29.249Z" fill="#F1607C"/>
<path d="M27.8121 40.0913C27.8121 40.3151 27.7203 40.5179 27.5749 40.6633C27.4276 40.8106 27.2267 40.9005 27.0029 40.9005H23.0524C22.6047 40.9005 22.2432 40.5389 22.2432 40.0913C22.2432 39.8694 22.3331 39.6666 22.4804 39.5212C22.6258 39.3739 22.8286 39.284 23.0524 39.284H23.1347V38.6928C23.1347 38.1629 23.5651 37.7344 24.095 37.7344H25.9603C26.4902 37.7344 26.9206 38.1629 26.9206 38.6928V39.284H27.0029C27.4486 39.284 27.8121 39.6455 27.8121 40.0913V40.0913Z" fill="#2B2968"/>
</svg>
