<svg width="50" height="50" viewBox="0 0 50 50" fill="none" xmlns="http://www.w3.org/2000/svg">
<g clip-path="url(#clip0_2115_2)">
<path d="M45.1544 14.0296L31.9492 20.9174L40.3076 23.1919L45.1544 14.0296Z" fill="#AC6C1B"/>
<path d="M6.17725 20.6504L19.714 22.7074L14.3182 26.7752L6.17725 20.6504Z" fill="#AC6C1B"/>
<path d="M45.1544 14.0298L42.2507 16.4743L41.1225 17.4248L37.8246 20.2002C36.8744 20.9979 35.5033 21.0616 34.4801 20.3477L26.6649 14.9256C26.2166 14.622 25.6963 14.5102 25.1961 14.5749C24.6345 14.6404 24.0998 14.9238 23.731 15.4066L20.5521 19.6859L19.6212 20.9393L17.9865 23.1338L17.9635 23.166C17.2136 24.1716 15.8895 24.5444 14.7237 24.0815L6.17673 20.6508C5.49515 20.197 4.6131 20.8366 4.83526 21.6275L6.18497 26.219L6.45015 27.1258L7.36559 30.252L7.65075 31.2217L7.87211 31.9796L9.05734 36.0118L11.1718 43.2247C11.3942 44.4699 13.3037 45.3052 16.2847 45.6728C16.894 45.7507 17.547 45.8072 18.2437 45.8421C18.5061 45.855 18.7778 45.8664 19.0532 45.8724C19.6433 45.892 20.254 45.894 20.8909 45.8822C23.7413 45.8362 27.0289 45.5184 30.4937 44.9012C30.8336 44.8397 31.1734 44.7781 31.5079 44.7127C32.2782 44.565 33.037 44.405 33.7704 44.2351C33.9576 44.1943 34.1448 44.1536 34.3266 44.109C34.8637 43.9813 35.3899 43.846 35.9062 43.7076C36.1149 43.6538 36.3182 43.5962 36.5215 43.5385C37.0516 43.3978 37.5656 43.2456 38.0651 43.0911C39.7666 42.5701 41.314 42.0038 42.6541 41.4153C43.3506 41.1096 43.9935 40.7939 44.5695 40.4752C46.9405 39.175 48.2542 37.8339 48.0495 36.6662L47.7014 29.7163L47.5643 27.0846L47.5084 25.9583L47.3766 23.3304L46.9371 14.5883C46.8783 13.6706 45.7249 13.3098 45.1544 14.0298ZM42.7475 38.04C41.3384 38.8387 38.9856 39.6816 36.0726 40.4289C35.5609 40.5666 35.0331 40.6927 34.4914 40.8211C33.5846 41.0295 32.6379 41.2256 31.6566 41.4133C31.1426 41.5087 30.6232 41.6003 30.0938 41.6888C25.403 42.4731 21.1616 42.7469 18.3863 42.5343C17.5522 42.4703 16.8524 42.3601 16.3114 42.2092C15.567 42.0025 15.131 41.7157 15.0687 41.3429C15.0387 41.1633 15.0969 40.9738 15.2387 40.775C15.4496 40.4795 15.8377 40.1685 16.3807 39.8506C18.4395 38.6357 22.731 37.303 27.8767 36.3528C28.2994 36.2774 28.7314 36.2004 29.1641 36.1281C29.7119 36.0365 30.2512 35.951 30.7875 35.8756C31.3645 35.7886 31.9337 35.7123 32.4954 35.6468C35.7323 35.2523 38.5889 35.1296 40.6752 35.2681C42.7707 35.4052 44.0784 35.8112 44.1892 36.474C44.2669 36.939 43.7416 37.4763 42.7475 38.04Z" fill="#EAA621"/>
<path d="M25.5299 11.642C27.9495 10.8872 28.8327 7.9903 27.248 6.01231C26.3628 4.90634 24.8426 4.44599 23.4931 4.86562C21.0735 5.62034 20.1903 8.51728 21.7742 10.4907C22.6595 11.5966 24.1797 12.057 25.5291 11.6374L25.5299 11.642Z" fill="#F6B441"/>
<path d="M5.16029 15.8995C4.64448 14.0315 2.41518 13.349 0.941103 14.6081C0.201004 15.2476 -0.117653 16.2851 0.143707 17.2257C0.664118 19.093 2.88805 19.7716 4.36213 18.5125C5.103 17.8776 5.42165 16.8401 5.16029 15.8995Z" fill="#F6B441"/>
<path d="M49.8721 8.42403C49.3516 6.55674 47.1277 5.87808 45.6536 7.13717C44.9128 7.7721 44.5941 8.80962 44.8555 9.75018C45.3759 11.6175 47.5998 12.2961 49.0739 11.037C49.8148 10.4021 50.1334 9.36458 49.8721 8.42403Z" fill="#F6B441"/>
<path d="M23.7626 9.10812C24.5507 8.97635 25.0828 8.23063 24.951 7.44251C24.8193 6.65439 24.0735 6.12231 23.2854 6.25408C22.4973 6.38585 21.9652 7.13157 22.097 7.91969C22.2288 8.70781 22.9745 9.23989 23.7626 9.10812Z" fill="#F4D7A8"/>
<path d="M1.99179 17.3797C2.55365 17.2858 2.93297 16.7541 2.83903 16.1923C2.74509 15.6304 2.21346 15.2511 1.65161 15.345C1.08975 15.439 0.71043 15.9706 0.80437 16.5325C0.89831 17.0943 1.42994 17.4736 1.99179 17.3797Z" fill="#F4D7A8"/>
<path d="M46.7174 9.90264C47.2792 9.8087 47.6586 9.27708 47.5646 8.71523C47.4707 8.15337 46.939 7.77405 46.3772 7.86799C45.8153 7.96193 45.436 8.49356 45.53 9.05541C45.6239 9.61727 46.1555 9.99658 46.7174 9.90264Z" fill="#F4D7A8"/>
<path opacity="0.7" d="M36.5228 43.5383C36.3195 43.5959 36.1162 43.6536 35.9075 43.7074C35.3912 43.8458 34.8649 43.9811 34.3279 44.1087C34.1461 44.1533 33.9589 44.1941 33.7717 44.2349L31.6579 41.4131L27.8779 36.3526L17.9878 23.1336L19.6225 20.9391L30.7888 35.8753L34.4927 40.8209L36.5228 43.5383Z" fill="#EDD0A1"/>
<path opacity="0.7" d="M47.377 23.3303L47.5088 25.9582L41.1229 17.4247L42.2511 16.4742L47.377 23.3303Z" fill="#EDD0A1"/>
<path opacity="0.7" d="M20.8919 45.8819C20.2551 45.8938 19.6443 45.8918 19.0543 45.8721L16.3124 42.209L15.2398 40.7748L7.36666 30.2517L6.45121 27.1255L6.18604 26.2188L16.3818 39.8504L18.3873 42.534L20.8919 45.8819Z" fill="#EDD0A1"/>
<path opacity="0.7" d="M44.571 40.4744C43.995 40.7931 43.3522 41.1088 42.6556 41.4146C41.3155 42.003 39.7682 42.5693 38.0666 43.0904L36.0741 40.4282L32.4969 35.646L20.5536 19.6851L23.7325 15.4058C24.1014 14.923 24.636 14.6396 25.1976 14.5741L40.6767 35.2674L42.749 38.0392L44.571 40.4744Z" fill="#EDD0A1"/>
<path d="M30.5728 44.9712C40.7213 43.165 48.5532 39.481 48.0658 36.7428C47.5785 34.0046 38.9564 33.249 28.808 35.0552C18.6596 36.8615 10.8277 40.5454 11.315 43.2837C11.8024 46.0219 20.4244 46.7774 30.5728 44.9712Z" fill="#F6B441"/>
<path d="M30.0436 42.9506C37.8802 41.5558 44.0136 39.1929 43.7431 37.6728C43.4725 36.1526 36.9004 36.051 29.0639 37.4458C21.2273 38.8405 15.0938 41.2035 15.3644 42.7236C15.6349 44.2437 22.207 44.3453 30.0436 42.9506Z" fill="#AC6C1B"/>
<path d="M8.74335 34.7869C11.0645 31.9429 18.3628 28.8962 27.3101 27.3056C36.4039 25.6858 44.4222 26.0676 47.4693 28.0187" stroke="#DD9123" stroke-width="2" stroke-miterlimit="10"/>
</g>
<defs>
<clipPath id="clip0_2115_2">
<rect width="50" height="50" fill="white"/>
</clipPath>
</defs>
</svg>
