<svg width="50" height="50" viewBox="0 0 50 50" fill="none" xmlns="http://www.w3.org/2000/svg">
<g clip-path="url(#clip0_2124_1895)">
<path d="M14.3993 13.8735C14.5459 13.5803 14.7169 13.2993 14.9062 13.0305C15.0712 12.7983 15.2544 12.5723 15.4926 12.4135C15.7125 12.2669 15.9691 12.1813 16.2195 12.1019C16.3478 12.0592 16.4761 12.0164 16.6104 12.0408C16.7876 12.0714 16.922 12.2241 16.9891 12.389C17.0563 12.5601 17.0624 12.7373 17.0624 12.9205C17.0686 13.3054 17.0686 13.6964 16.9525 14.0629C16.8364 14.4295 16.586 14.7716 16.2256 14.906C15.9752 14.9976 15.7064 14.9915 15.4438 14.9609C15.1506 14.9304 14.6008 14.9304 14.3626 14.741C14.0877 14.5272 14.2771 14.1118 14.3993 13.8735Z" fill="#DDE4DE"/>
<path d="M16.8299 13.9347C16.6894 14.1791 16.5001 14.3807 16.2924 14.5701C16.158 14.6922 16.0175 14.8022 15.8526 14.8816C15.5655 15.0221 15.364 14.9 15.1502 14.6922C15.1135 14.6617 15.083 14.625 15.0402 14.5945C15.0341 14.5884 15.0219 14.5823 15.0097 14.5823C15.0036 14.5823 14.9975 14.5762 14.9913 14.5762C14.9425 14.5578 14.8936 14.5517 14.8386 14.5456C14.7043 14.5334 14.5699 14.509 14.4355 14.4784C14.405 14.4723 14.3683 14.4601 14.3378 14.4479C14.1484 14.3929 13.9713 14.3196 13.8002 14.2219C13.6414 14.1363 13.4887 14.0264 13.3543 13.9103C13.2322 13.8064 13.0673 13.7453 12.9634 13.6293C12.8474 13.501 12.9512 13.3483 13.0184 13.22C13.1283 12.9939 13.1467 12.7313 13.1528 12.4808C13.1589 12.2792 13.165 12.0654 13.2688 11.8943C13.3788 11.7172 13.5742 11.6194 13.7453 11.5033C13.9591 11.3567 14.1484 11.1673 14.2889 10.9413C14.3378 10.868 14.3927 10.7825 14.4844 10.7764C14.5271 10.7764 14.5699 10.7947 14.6126 10.813C14.802 10.9047 15.0036 10.9596 15.2051 11.0391C15.3884 11.1063 15.5655 11.1979 15.7243 11.3079C16.0297 11.5033 16.2985 11.7538 16.5245 12.0409C16.5489 12.0715 16.5673 12.0959 16.5856 12.1265C16.6955 12.2792 16.7872 12.438 16.8666 12.6091C16.9399 12.774 17.0071 12.9451 17.0193 13.1222C17.0498 13.4155 16.9704 13.6965 16.8299 13.9347Z" fill="#BA6963"/>
<path d="M16.8302 13.9345C16.6898 14.1788 16.5004 14.3804 16.2927 14.5698C16.1583 14.692 16.0178 14.802 15.8529 14.8814C15.5658 15.0219 15.3643 14.8997 15.1505 14.692C15.1138 14.6615 15.0833 14.6248 15.0405 14.5943C15.2116 14.4782 15.3704 14.3316 15.517 14.185C15.8163 13.8795 16.085 13.5496 16.2866 13.1709C16.3843 12.9815 16.4637 12.786 16.5187 12.5783C16.5493 12.4744 16.5676 12.3706 16.5798 12.2667C16.5859 12.2362 16.5798 12.1812 16.5859 12.1323C16.6959 12.285 16.7875 12.4439 16.8669 12.6149C16.9402 12.7799 17.0074 12.9509 17.0196 13.1281C17.0501 13.4152 16.9707 13.6962 16.8302 13.9345Z" fill="#934747"/>
<path d="M15.7304 11.3259C15.6266 11.4542 15.4433 11.5336 15.1563 11.497C14.7287 11.4481 14.4294 11.6619 14.2767 12.0712C14.1362 12.4561 14.1362 12.8837 14.2217 13.2808C14.3072 13.684 14.4721 14.0628 14.6432 14.4354C14.6554 14.4599 14.6615 14.4843 14.6493 14.5026C14.6432 14.5148 14.6248 14.5209 14.6126 14.5209C14.4111 14.582 13.9896 14.3255 13.8125 14.2277C13.6536 14.1422 13.5009 14.0322 13.3665 13.9162C13.2444 13.8123 13.0795 13.7512 12.9756 13.6351C12.8596 13.5068 12.9634 13.3541 13.0306 13.2258C13.1405 12.9998 13.1589 12.7371 13.165 12.4866C13.1711 12.285 13.1772 12.0712 13.281 11.9002C13.391 11.723 13.5864 11.6253 13.7575 11.5092C13.9713 11.3626 14.1606 11.1732 14.3011 10.9472C14.35 10.8739 14.4049 10.7883 14.4966 10.7822C14.5393 10.7822 14.5821 10.8006 14.6187 10.8189C14.8081 10.9105 15.0097 10.9655 15.2112 11.0449C15.3884 11.1243 15.5655 11.216 15.7304 11.3259Z" fill="#BA6963"/>
<path d="M13.782 14.0018C13.9469 14.0446 14.118 14.0751 14.2768 14.014C14.4295 13.9529 14.5516 13.7697 14.4844 13.6169C14.4295 13.4948 14.3012 13.4459 14.1851 13.3787C14.0385 13.2993 13.9103 13.1893 13.8064 13.061C14.0752 13.1954 14.3806 13.2565 14.6799 13.2321C14.8387 13.2199 15.0159 13.1649 15.0831 13.0183C15.1441 12.8839 15.0831 12.7128 14.9731 12.6151C14.8632 12.5173 14.7166 12.4623 14.57 12.4196C14.1241 12.2913 13.6354 12.1874 13.3239 11.8453C13.2506 11.7659 13.0918 11.9614 13.0246 12.0286C12.9085 12.1386 12.8474 12.3035 12.8658 12.4623C12.878 12.5784 12.9268 12.6884 12.933 12.8106C12.8413 12.8228 12.7375 12.8472 12.6825 12.9205C12.6092 13.0244 12.6581 13.171 12.7253 13.2809C12.9696 13.7025 13.3239 13.8857 13.782 14.0018Z" fill="#DB867B"/>
<path d="M16.6041 12.4072C16.5736 12.4989 16.5247 12.5905 16.4514 12.6577C16.4086 12.6944 16.3476 12.7188 16.2987 12.7005C16.2804 12.6944 16.262 12.676 16.2498 12.6577C16.2376 12.6455 16.2315 12.6394 16.2193 12.6272C16.1155 12.4989 15.9811 12.4011 15.8589 12.2912C15.7001 12.1384 15.5596 11.943 15.5901 11.7169C15.5901 11.6986 15.5963 11.6803 15.6024 11.6619C15.6573 11.4542 15.8467 11.2587 16.0727 11.2771C16.6469 11.3137 16.7568 11.9674 16.6041 12.4072Z" fill="#DB867B"/>
<path d="M15.584 15.6574L15.5352 15.5475C16.0544 15.3092 16.4941 14.9549 16.8118 14.5212C17.1416 14.063 17.331 13.5193 17.3371 12.9878H17.4531C17.447 13.5437 17.2516 14.1119 16.9034 14.5884C16.5736 15.0465 16.1154 15.4131 15.584 15.6574Z" fill="black"/>
<path d="M15.3275 12.3038L15.6817 11.7418C15.7001 11.7112 15.6878 11.6746 15.6573 11.6563C15.6268 11.644 15.5962 11.6502 15.5779 11.6746L15.4924 11.809C15.4863 11.8029 15.4802 11.7968 15.4741 11.7968L14.8877 11.4302C14.8388 11.3997 14.7716 11.4119 14.735 11.4608L14.6556 11.583C14.625 11.6318 14.6433 11.699 14.6922 11.7357L15.2786 12.1083C15.2847 12.1144 15.2908 12.1144 15.303 12.1205L15.2236 12.2427C15.2053 12.2733 15.2114 12.3099 15.2358 12.3283C15.2664 12.3405 15.303 12.3344 15.3275 12.3038C15.3214 12.3038 15.3214 12.3038 15.3275 12.3038Z" fill="#13103D"/>
<path d="M14.4839 12.0406L14.7832 11.5641L15.0825 11.0876C15.1375 11.0021 15.058 10.9105 14.9664 10.9532C14.5877 11.1243 14.4839 11.1976 14.4045 11.3259C14.319 11.4542 14.3006 11.5825 14.3067 11.9979C14.3128 12.1017 14.4289 12.1262 14.4839 12.0406Z" fill="#13103D"/>
<path d="M10.9356 9.43843C10.8868 9.40789 10.8684 9.34069 10.9051 9.29181L11.0578 9.04745C11.0883 8.99858 11.1555 8.98026 11.2044 9.01691L11.577 9.24905C11.6259 9.2796 11.6442 9.3468 11.6075 9.39567L11.4548 9.64003C11.4243 9.6889 11.3571 9.70723 11.3082 9.67668L10.9356 9.43843Z" fill="#13103D"/>
<path d="M10.6851 9.09009C10.6668 9.06565 10.6607 9.03511 10.679 9.01067L10.7218 8.94958C10.7401 8.92515 10.7707 8.91293 10.8012 8.91904C10.8073 8.91904 11.0822 9.029 11.0822 9.029C11.1127 9.04733 11.1249 9.09009 11.1066 9.12063L11.0089 9.27336C10.9906 9.30391 10.9478 9.31612 10.9173 9.29169C10.905 9.2978 10.6851 9.0962 10.6851 9.09009Z" fill="#13103D"/>
<path d="M10.6974 9.01091L10.7279 8.96204L9.61622 8.27783C9.61011 8.27783 9.604 8.27783 9.604 8.27783C9.604 8.28394 9.604 8.29005 9.604 8.29005L10.6974 9.01091Z" fill="#13103D"/>
<path d="M10.6669 9.02924C10.6546 9.02313 10.6546 9.00481 10.6608 8.9987L10.6974 8.94372C10.7035 8.9315 10.7218 8.9315 10.7279 8.93761C10.7402 8.94372 10.7402 8.95593 10.734 8.96815L10.6974 9.02924C10.6913 9.02924 10.673 9.03535 10.6669 9.02924Z" fill="#13103D"/>
<path d="M11.4424 9.69514L11.6623 9.34082L11.815 9.43856L11.5951 9.79289L11.4424 9.69514Z" fill="#13103D"/>
<path d="M11.3143 9.83561C11.2837 9.81728 11.2776 9.78063 11.296 9.75008L11.6502 9.19416C11.6686 9.16362 11.7052 9.15751 11.7357 9.17584C11.7663 9.19416 11.7724 9.23082 11.7541 9.26136L11.3998 9.82339C11.3815 9.84172 11.3448 9.85394 11.3143 9.83561Z" fill="#13103D"/>
<path d="M14.3137 11.7049L11.565 9.97602C11.5039 9.93937 11.4856 9.85995 11.5222 9.79886L11.791 9.37123C11.8276 9.31625 11.907 9.29181 11.9681 9.32846L14.729 11.0634L14.3137 11.7049Z" fill="#DBE2DC"/>
<path fill-rule="evenodd" clip-rule="evenodd" d="M11.9496 9.98829C11.9313 10.1288 11.6015 9.97607 11.687 9.86C11.7542 9.76836 11.9619 9.89054 11.9496 9.98829Z" fill="white"/>
<path d="M12.7072 9.79266L11.9681 9.32838C11.907 9.29172 11.8276 9.31005 11.791 9.37114L11.5222 9.79877C11.4856 9.85986 11.5039 9.93928 11.565 9.97593L12.3041 10.4402L12.7072 9.79266Z" fill="#E5496F"/>
<path d="M12.0044 9.70116C12.0166 9.71338 12.041 9.70727 12.0532 9.68895L12.1937 9.47513L12.1326 9.43848L11.9983 9.65229C11.986 9.66451 11.986 9.68895 12.0044 9.70116Z" fill="#13103D"/>
<path d="M12.3281 9.90259C12.3404 9.9148 12.3648 9.90869 12.377 9.89037L12.5175 9.67044L12.4564 9.63379L12.3159 9.85371C12.3037 9.87204 12.3098 9.89037 12.3281 9.90259Z" fill="#13103D"/>
<path d="M12.6458 10.1042C12.658 10.1165 12.6824 10.1104 12.6946 10.092L12.8351 9.8721L12.774 9.83545L12.6335 10.0554C12.6274 10.0737 12.6274 10.092 12.6458 10.1042Z" fill="#13103D"/>
<path d="M12.9638 10.3059C12.9822 10.3181 13.0005 10.312 13.0127 10.2937L13.1532 10.0738L13.0921 10.0371L12.9516 10.257C12.9455 10.2754 12.9516 10.2937 12.9638 10.3059Z" fill="#13103D"/>
<path d="M13.2871 10.5076C13.3054 10.5198 13.3237 10.5137 13.3359 10.4953L13.4764 10.2754L13.4153 10.2388L13.2749 10.4587C13.2687 10.477 13.2749 10.5015 13.2871 10.5076Z" fill="#13103D"/>
<path d="M13.6109 10.7151C13.6231 10.7273 13.6475 10.7212 13.6597 10.7029L13.8002 10.4829L13.7391 10.4463L13.5986 10.6662C13.5864 10.6784 13.5925 10.7029 13.6109 10.7151Z" fill="#13103D"/>
<path d="M13.9287 10.917C13.9409 10.9292 13.9654 10.9231 13.9776 10.9048L14.1181 10.6787L14.057 10.6421L13.9165 10.8681C13.9043 10.8803 13.9104 10.9048 13.9287 10.917Z" fill="#13103D"/>
<path d="M14.0144 11.8329C14.2038 11.6435 13.8556 11.3014 13.6418 11.1731C13.5136 11.0998 13.3609 10.9959 13.2143 10.9532C13.1043 10.9226 12.976 10.9226 12.8722 10.9837C12.7134 11.0753 12.7439 11.2647 12.8539 11.3747C13.0555 11.5824 13.483 11.9978 13.8129 11.9184C13.9106 11.9001 13.9717 11.8695 14.0144 11.8329Z" fill="#DB867B"/>
<path d="M14.1545 11.0204C14.1667 11.0388 14.1851 11.0571 14.2034 11.0693C14.2339 11.0876 14.2767 11.0815 14.3133 11.0754C14.3683 11.0632 14.4233 11.0571 14.466 11.0204C14.5516 10.9471 14.5393 10.8127 14.5149 10.7089C14.4905 10.605 14.4599 10.5012 14.4294 10.4034C14.4111 10.3362 14.3866 10.2751 14.35 10.214C14.24 10.0308 13.8613 9.86582 13.7697 10.1529C13.6842 10.4462 13.9896 10.8127 14.1545 11.0204Z" fill="#DB867B"/>
<path d="M30.9036 28.9507C30.9036 28.9507 31.7221 31.4554 31.661 32.4267C31.661 32.4267 30.9891 32.6405 30.2378 32.5367L30.9036 28.9507Z" fill="#5E85BC"/>
<path d="M22.2846 44.5405H20.4277V48.2915H22.2846V44.5405Z" fill="#DB867B"/>
<path d="M22.2788 44.5774V45.4755C21.6802 45.6526 21.051 45.732 20.4219 45.7137V44.5347H22.2421C22.2543 44.553 22.2666 44.5652 22.2788 44.5774Z" fill="#BA6963"/>
<path d="M29.4802 44.5405H27.6294V48.2915H29.4802V44.5405Z" fill="#DB867B"/>
<path d="M29.4802 44.5405V45.4508C29.3458 45.4813 29.2298 45.5058 29.187 45.518C28.7472 45.6218 28.2952 45.6707 27.8432 45.6707C27.7882 45.6707 27.7149 45.6707 27.6294 45.6768V44.5405H29.4802Z" fill="#BA6963"/>
<path d="M31.2641 2.59625C31.2213 2.63291 31.1602 2.65123 31.1052 2.65123C30.8059 2.68789 30.5127 2.58403 30.2257 2.49851C30.073 2.44964 29.9141 2.41298 29.7492 2.38244C29.6942 2.37022 29.6393 2.36411 29.5782 2.358C29.4927 2.34578 29.4133 2.34578 29.3277 2.34578C29.0223 2.34578 28.7108 2.4252 28.4726 2.60847C28.1305 2.87116 27.9717 3.29879 27.8679 3.7142C27.764 4.12961 27.6969 4.56335 27.477 4.9299C27.3548 4.80161 27.2387 4.67943 27.1166 4.55725C27.0616 4.50226 27.0066 4.44117 26.97 4.36787C26.8722 4.16627 26.9761 3.92191 27.1288 3.75696C27.2815 3.59202 27.477 3.47595 27.6297 3.31712C27.3914 3.23159 27.141 3.17661 26.8906 3.1705C26.8356 3.1705 26.97 2.7673 26.9883 2.73065C27.0555 2.61458 27.1715 2.46185 27.2998 2.40687C27.6236 2.26026 28.0756 2.52294 28.3993 2.5596C28.3626 2.55349 28.2161 2.2908 28.1794 2.24804C28.0939 2.14419 27.9962 2.04033 27.8923 1.95481C27.6907 1.77154 27.4892 1.67379 27.2448 1.56383C27.2326 1.55772 27.2204 1.55161 27.2082 1.53939C27.196 1.52107 27.2021 1.49663 27.2082 1.4783C27.2571 1.3378 27.3731 1.22172 27.4708 1.11176C27.5441 1.02624 27.6236 0.983473 27.7152 0.946819C27.7579 0.928492 27.8007 0.916274 27.8434 0.904056C27.9962 0.861293 28.1672 0.836857 28.3321 0.830748C28.5092 0.824638 28.6803 0.842965 28.8513 0.87962C29.0407 0.928492 29.2239 1.00791 29.4133 1.05678C29.7065 1.13009 30.018 1.12398 30.3112 1.18507C30.8853 1.29503 31.2518 1.72877 31.3251 2.30913C31.3435 2.41909 31.3374 2.53516 31.2641 2.59625Z" fill="#321914"/>
<path d="M27.911 7.59749L27.3281 10.6084L29.559 11.0404L30.1419 8.0295L27.911 7.59749Z" fill="#DB867B"/>
<path d="M32.4183 3.76287L32.0029 5.41841L31.7097 6.57912L31.3127 8.16136C31.1722 8.7295 30.6163 9.08382 30.0483 8.96775L28.0264 8.55844C27.4645 8.44848 27.0919 7.90478 27.1713 7.33053L27.4217 5.60779L27.5744 4.56926L27.8127 2.91982C27.8982 2.30892 28.4723 1.89351 29.0648 1.99736L31.5448 2.42499C32.18 2.52885 32.571 3.14586 32.4183 3.76287Z" fill="#DB867B"/>
<path d="M31.7161 6.5729L31.319 8.15513C31.1785 8.72327 30.6227 9.07759 30.0546 8.96152L28.0328 8.55222C27.4708 8.44225 27.0982 7.89855 27.1776 7.3243L27.4281 5.60156C27.6358 5.93145 28.0084 6.1697 28.3932 6.12694C28.5825 6.1025 28.7597 6.01698 28.949 5.98032C29.4133 5.8948 29.8714 6.12083 30.2684 6.3713C30.5066 6.51791 30.7448 6.68286 31.0136 6.7134C31.2579 6.75006 31.4901 6.67675 31.7161 6.5729Z" fill="#321914"/>
<path d="M30.5251 6.9458C30.5556 7.03133 30.5251 7.11686 30.4029 7.20849C30.3113 7.27569 30.2014 7.31845 30.0914 7.34289C29.6272 7.44674 29.1263 7.33678 28.7048 7.11686C28.5643 7.04355 28.4239 6.95802 28.3322 6.83584C28.204 6.6709 28.1307 6.38988 28.3872 6.34101C28.8453 6.26159 29.3218 6.32268 29.7555 6.47541C29.9387 6.53039 30.4518 6.71366 30.5251 6.9458Z" fill="#DB867B"/>
<path d="M31.7344 6.3778C31.8321 6.51831 32.0398 6.56107 32.2047 6.49998C32.3696 6.43889 32.4918 6.30449 32.5773 6.15177C32.6689 5.98683 32.7178 5.80356 32.6873 5.62028C32.6567 5.43701 32.5407 5.26596 32.3696 5.19876C32.1986 5.13156 31.9787 5.19876 31.8871 5.3576C31.7222 5.65694 31.7893 6.02959 31.7344 6.3778Z" fill="#DB867B"/>
<path d="M31.9236 5.9196C31.9175 5.9196 31.9114 5.9196 31.9053 5.91349C31.887 5.90127 31.8809 5.87684 31.8931 5.85851C32.0091 5.66302 32.2718 5.57749 32.4795 5.66913C32.4978 5.67524 32.51 5.69967 32.4978 5.718C32.4856 5.73633 32.4672 5.74855 32.4489 5.73633C32.2779 5.66302 32.0519 5.73633 31.9542 5.89516C31.948 5.91349 31.9358 5.9196 31.9236 5.9196Z" fill="#321914"/>
<path d="M27.4584 5.55911C27.2629 5.58355 27.0613 5.54078 26.8964 5.42471C26.7376 5.31475 26.6215 5.13148 26.6093 4.93599C26.5971 4.71607 26.7071 4.50225 26.872 4.35563C26.9636 4.27011 27.0858 4.19069 27.214 4.20291C27.3851 4.21513 27.5072 4.36174 27.5805 4.52058C27.6722 4.72217 27.5683 4.9421 27.5805 5.16202C27.5866 5.30864 27.6111 5.45526 27.6111 5.60187C27.5866 5.58355 27.4828 5.55911 27.4584 5.55911Z" fill="#DB867B"/>
<path d="M27.4343 5.08238C27.416 5.08238 27.3976 5.07016 27.3976 5.04572C27.3854 4.90522 27.3182 4.77693 27.2144 4.72195C27.1044 4.65475 26.9517 4.67918 26.8845 4.77082C26.8723 4.78915 26.8479 4.78915 26.8296 4.77693C26.8112 4.76471 26.8112 4.74027 26.8235 4.72195C26.9151 4.59366 27.1105 4.56922 27.2571 4.65475C27.3793 4.72806 27.4648 4.87467 27.477 5.03962C27.477 5.06405 27.4587 5.08238 27.4343 5.08238Z" fill="#321914"/>
<path d="M28.9471 4.52332C28.9581 4.43968 28.9127 4.36478 28.8458 4.35603C28.7789 4.34728 28.7158 4.40798 28.7049 4.49162C28.6939 4.57526 28.7393 4.65016 28.8062 4.65891C28.8731 4.66767 28.9362 4.60696 28.9471 4.52332Z" fill="#321914"/>
<path d="M30.7738 4.83045C30.7847 4.74681 30.7394 4.67191 30.6725 4.66316C30.6056 4.65441 30.5425 4.71511 30.5315 4.79875C30.5206 4.88239 30.566 4.95729 30.6329 4.96604C30.6998 4.97479 30.7629 4.91409 30.7738 4.83045Z" fill="#321914"/>
<path d="M29.8098 4.04395L29.1685 5.94996L29.706 6.0477" fill="#DB867B"/>
<path d="M29.7059 6.09062H29.6998L29.1623 5.98677C29.1501 5.98677 29.144 5.98066 29.1379 5.96844C29.1318 5.95622 29.1318 5.95011 29.1379 5.9379L29.7792 4.03188C29.7854 4.01356 29.8098 4.00134 29.8281 4.00745C29.8464 4.01356 29.8587 4.03799 29.8525 4.05632L29.2234 5.91957L29.7182 6.01731C29.7365 6.02342 29.7548 6.04175 29.7487 6.06008C29.7426 6.0784 29.7243 6.09062 29.7059 6.09062Z" fill="#321914"/>
<path d="M30.2561 6.93365C30.0729 7.00084 29.2238 7.26353 28.5763 6.49991C28.5641 6.48769 28.5763 6.46936 28.5886 6.46936C28.6191 6.46325 28.6619 6.45714 28.7229 6.45714C28.9428 6.45103 29.3765 6.48769 29.9629 6.75038C30.0545 6.79314 30.1523 6.84201 30.2561 6.89699C30.2683 6.9031 30.2683 6.92754 30.2561 6.93365Z" fill="#321914"/>
<path d="M29.9626 6.75038C29.5351 6.8359 29.0647 6.72594 28.7227 6.45714C28.9426 6.45103 29.3762 6.48769 29.9626 6.75038Z" fill="white"/>
<path d="M28.4109 3.42725L29.2783 3.53721C29.2844 3.53721 29.2905 3.54332 29.2905 3.54943L29.2539 3.82433C29.2539 3.83044 29.2478 3.83655 29.2417 3.83655L28.3682 3.72659C28.3621 3.72659 28.356 3.72048 28.356 3.71437L28.3926 3.43946C28.3987 3.43336 28.3987 3.42725 28.4109 3.42725Z" fill="#321914"/>
<path d="M30.6469 3.79346L31.4898 4.03782C31.4959 4.03782 31.502 4.05004 31.4959 4.05004L31.4165 4.31883C31.4165 4.32494 31.4043 4.33105 31.4043 4.32494L30.5614 4.08058C30.5553 4.08058 30.5492 4.06836 30.5553 4.06836L30.6347 3.79957C30.6347 3.79346 30.6408 3.79346 30.6469 3.79346Z" fill="#321914"/>
<path d="M32.4183 3.76312L32.0274 5.33313L32.009 5.41255C32.009 5.39422 32.009 5.3759 32.009 5.36368C32.009 5.35146 32.0151 5.33313 32.0151 5.32092C32.1006 4.82609 32.1862 4.32515 32.0884 3.83032C32.0212 3.4821 31.8441 3.14611 31.5692 2.92007C31.4471 2.82233 31.3127 2.76124 31.1661 2.72459C30.9279 2.65739 30.6774 2.65128 30.427 2.60851C30.1277 2.55353 29.8345 2.46801 29.5413 2.3947C29.1382 2.29695 28.7472 2.26641 28.4235 2.59019C28.1792 2.82844 28.057 3.16443 27.9654 3.49432C27.8738 3.82421 27.8127 4.16631 27.6539 4.46565C27.6355 4.4962 27.6172 4.53285 27.5928 4.5634L27.831 2.91397C27.9165 2.30306 28.4907 1.88765 29.0832 1.9915L31.5631 2.41913C31.5753 2.41913 31.5814 2.41913 31.5937 2.42524C32.1862 2.54742 32.571 3.15222 32.4183 3.76312Z" fill="#321914"/>
<path d="M33.0229 3.8241C33.0107 4.05013 33.1756 4.28228 33.0779 4.48387C32.9679 4.72213 32.577 4.76489 32.5343 5.02147C32.522 5.09478 32.5465 5.1803 32.5159 5.2475C32.4487 5.40023 32.2655 5.43077 32.1128 5.37579C32.0823 5.36357 32.0517 5.35135 32.0273 5.33303C32.0212 5.33303 32.0151 5.32692 32.0151 5.32081C32.0395 5.18641 32.0639 5.0459 32.0823 4.91151C32.1372 4.55107 32.1617 4.19064 32.0884 3.83021C32.0212 3.482 31.844 3.146 31.5692 2.91997C31.447 2.82222 31.3126 2.76113 31.166 2.72448C31.1721 2.71226 31.1782 2.70615 31.1904 2.69393C31.3004 2.57786 31.4409 2.49234 31.5875 2.42514C31.6058 2.41292 31.6302 2.40681 31.6486 2.39459C31.8501 2.29685 32.0639 2.21743 32.2899 2.21132C32.6992 2.1991 33.0962 2.48012 33.2306 2.85888C33.2672 2.96273 33.2856 3.06658 33.2672 3.17655C33.2245 3.40869 33.0351 3.59196 33.0229 3.8241Z" fill="#321914"/>
<path d="M24.6668 32.1025C24.6607 32.1514 24.6485 32.2125 24.6362 32.298C24.569 32.7073 24.4347 33.5382 24.2636 34.5889C23.6345 38.4376 22.5106 45.243 22.5106 45.243C21.6737 45.7623 19.8901 45.0109 19.8901 45.0109L20.5071 34.1063L20.5743 32.8723L23.3902 32.3347L24.6668 32.1025Z" fill="#1E599E"/>
<path d="M30.6468 32.7929L30.5613 34.0452L29.8405 44.9865C28.7227 45.7928 27.1957 44.9865 27.1957 44.9865L26.8292 34.65L26.7437 32.2003V32.1025L27.1224 32.1697L30.6468 32.7929Z" fill="#1E599E"/>
<path d="M24.6362 32.2983C24.5691 32.7076 24.4347 33.5385 24.2636 34.5892C23.0053 34.4915 21.7593 34.3082 20.5132 34.1066L20.5804 32.8726L23.3963 32.335C23.8116 32.3289 24.227 32.3167 24.6362 32.2983Z" fill="#00436E"/>
<path d="M30.6471 32.793L30.5615 34.0454C29.3582 34.418 28.0938 34.6013 26.8233 34.6502L26.7378 32.2005C26.8661 32.1882 26.9882 32.1821 27.1165 32.1699L30.6471 32.793Z" fill="#00436E"/>
<path d="M31.1174 33.3982C31.1174 33.3982 24.606 34.3023 20.2936 33.3982C20.2936 33.3982 20.0798 25.1999 20.7273 22.011C21.3747 18.8221 24.435 9.67078 24.435 9.67078L26.3346 9.18206L27.0798 8.99268C27.0798 8.99268 27.5868 9.43252 28.613 9.63412C28.6435 9.64023 28.668 9.64634 28.6985 9.64634C29.1078 9.71354 29.5903 9.75019 30.1584 9.70132L30.7753 10.2939L32.3512 11.8028C32.3512 11.7967 30.6043 31.5838 31.1174 33.3982Z" fill="#7AA3D3"/>
<path d="M25.7846 14.4296C25.0577 19.1641 24.1842 25.829 24.4286 29.1462C24.4408 29.3661 24.2881 29.5494 24.0682 29.5739C23.2375 29.6533 21.2828 29.7755 20.0856 29.3417C20.0856 29.3417 19.8718 21.4 21.3378 16.6105L23.2985 9.50575L24.3125 9.45687L25.864 9.38356L26.6703 9.09033C26.6642 9.09033 26.2549 11.3568 25.7846 14.4296Z" fill="white"/>
<path d="M28.6128 9.62167L28.0265 10.1837C28.0265 10.1837 27.0369 10.1226 26.3345 9.17571L27.0797 8.98633C27.0797 8.98633 27.5867 9.42618 28.6128 9.62167Z" fill="#5E85BC"/>
<path d="M30.775 10.2877C29.7794 10.7153 28.9426 10.3488 28.9426 10.3488L28.6982 9.64014C29.1075 9.70734 29.59 9.74399 30.1581 9.69512L30.775 10.2877Z" fill="#5E85BC"/>
<path d="M27.0921 15.5172C27.0921 15.5172 27.086 15.5172 27.0799 15.5172C27.0371 15.511 27.0127 15.4744 27.0127 15.4316C27.257 13.5928 27.6357 12.1144 27.9167 11.2042C28.216 10.2084 28.4603 9.64639 28.4665 9.64028C28.4848 9.60363 28.5275 9.5853 28.5642 9.59752C28.6008 9.61585 28.6192 9.65861 28.6069 9.69526C28.6069 9.70137 28.3626 10.2573 28.0633 11.247C27.7884 12.1572 27.4097 13.6234 27.1654 15.45C27.1654 15.4866 27.1288 15.5172 27.0921 15.5172Z" fill="#5E85BC"/>
<path d="M27.5255 14.8509C27.62 14.8509 27.6966 14.7743 27.6966 14.6798C27.6966 14.5854 27.62 14.5088 27.5255 14.5088C27.4311 14.5088 27.3545 14.5854 27.3545 14.6798C27.3545 14.7743 27.4311 14.8509 27.5255 14.8509Z" fill="white"/>
<path d="M24.8808 16.708C25.0326 16.708 25.1557 16.5849 25.1557 16.4331C25.1557 16.2813 25.0326 16.1582 24.8808 16.1582C24.729 16.1582 24.606 16.2813 24.606 16.4331C24.606 16.5849 24.729 16.708 24.8808 16.708Z" fill="#FCDFB1"/>
<path d="M24.1967 20.1597C24.3486 20.1597 24.4716 20.0366 24.4716 19.8848C24.4716 19.7329 24.3486 19.6099 24.1967 19.6099C24.0449 19.6099 23.9219 19.7329 23.9219 19.8848C23.9219 20.0366 24.0449 20.1597 24.1967 20.1597Z" fill="#FCDFB1"/>
<path d="M23.8481 23.4033C23.9999 23.4033 24.123 23.2802 24.123 23.1284C24.123 22.9766 23.9999 22.8535 23.8481 22.8535C23.6963 22.8535 23.5732 22.9766 23.5732 23.1284C23.5732 23.2802 23.6963 23.4033 23.8481 23.4033Z" fill="#FCDFB1"/>
<path d="M27.6964 13.7513C27.7909 13.7513 27.8675 13.6747 27.8675 13.5802C27.8675 13.4858 27.7909 13.4092 27.6964 13.4092C27.602 13.4092 27.5254 13.4858 27.5254 13.5802C27.5254 13.6747 27.602 13.7513 27.6964 13.7513Z" fill="white"/>
<path d="M27.9899 12.7249C28.0843 12.7249 28.1609 12.6483 28.1609 12.5539C28.1609 12.4594 28.0843 12.3828 27.9899 12.3828C27.8954 12.3828 27.8188 12.4594 27.8188 12.5539C27.8188 12.6483 27.8954 12.7249 27.9899 12.7249Z" fill="white"/>
<path d="M28.2706 11.5462C28.3651 11.5462 28.4417 11.4696 28.4417 11.3752C28.4417 11.2807 28.3651 11.2041 28.2706 11.2041C28.1762 11.2041 28.0996 11.2807 28.0996 11.3752C28.0996 11.4696 28.1762 11.5462 28.2706 11.5462Z" fill="white"/>
<path d="M28.6129 10.4095C28.7074 10.4095 28.784 10.3329 28.784 10.2384C28.784 10.144 28.7074 10.0674 28.6129 10.0674C28.5185 10.0674 28.4419 10.144 28.4419 10.2384C28.4419 10.3329 28.5185 10.4095 28.6129 10.4095Z" fill="white"/>
<path d="M22.7307 48.0475C22.7307 48.188 22.7307 48.3285 22.7123 48.4812C22.7123 48.4812 22.0893 48.524 21.8511 48.805C21.6129 49.086 21.1181 49.7519 20.1469 49.9229C19.1757 50.094 18.4244 49.9657 17.557 49.6847C16.6957 49.4037 16.3292 49.6602 16.372 48.7133C16.4147 47.7664 17.6914 47.5954 18.1617 47.4182C18.5832 47.2655 19.5116 46.7035 19.7315 46.1842C19.8048 46.007 19.9697 45.8849 20.1591 45.8604C20.5134 45.8177 21.0753 45.9276 21.7167 46.7218C21.7167 46.7218 22.1015 46.9478 22.3458 46.8134C22.4069 46.7829 22.4863 46.8012 22.5108 46.8684C22.5902 47.0883 22.7184 47.516 22.7307 48.0475Z" fill="#DDE4DE"/>
<path d="M31.1965 49.3365C31.1843 49.367 31.1782 49.3853 31.1782 49.3853C30.433 49.5381 27.2628 49.3853 27.2628 49.3853C27.2078 49.1838 27.1712 48.9699 27.1529 48.7622C27.0429 47.7176 27.2628 46.6485 27.2628 46.6485C27.8309 46.0132 28.7654 45.9887 29.1258 46.0132C29.4862 46.0437 30.0298 46.4469 29.9626 46.7768C29.8893 47.1067 30.1215 47.2655 30.8544 47.8275C31.1293 48.0353 31.2454 48.3102 31.282 48.5667C31.3248 48.9027 31.2332 49.2204 31.1965 49.3365Z" fill="#DDE4DE"/>
<path d="M26.6643 9.09039C26.6643 9.09039 26.255 11.3507 25.7847 14.4297C25.4915 12.5237 24.8868 10.2389 24.8868 10.2389L25.6442 9.94565L24.2026 9.58522C24.2332 9.54245 24.2698 9.49969 24.3065 9.46304C25.0395 8.72385 26.6643 9.09039 26.6643 9.09039Z" fill="#DDE4DE"/>
<path d="M32.8947 11.1183L31.0867 10.3853L30.427 9.83545C30.427 9.83545 26.4078 22.6094 27.1102 29.0972C27.1408 29.3843 27.3668 29.6164 27.6539 29.6592C28.6801 29.7997 31.05 30.0807 31.667 29.8119C31.667 29.8119 31.7647 19.842 32.3511 16.03C32.7054 13.7208 33.0352 12.499 33.249 11.8881C33.3529 11.5826 33.194 11.2466 32.8947 11.1183Z" fill="white"/>
<path d="M30.329 9.83545C30.329 9.83545 32.1553 10.0798 32.4669 11.155L30.9887 10.9901L31.5934 11.5276C31.5934 11.5276 29.2417 14.8754 28.582 16.5859C28.582 16.5859 29.6449 10.5563 30.329 9.83545Z" fill="#DDE4DE"/>
<path d="M22.5964 9.39592C23.0362 9.30428 23.4821 9.29206 23.8975 9.37759C24.5327 9.51199 24.0196 10.3795 23.8853 10.7216C23.6409 11.3447 23.3905 11.9678 23.1278 12.5848C22.3826 14.3137 21.5336 15.9753 20.3669 17.4476C19.6278 18.3701 18.9376 18.1257 18.0519 17.6736C17.1601 17.2093 14.3931 14.7718 14.3931 14.7718C15.4254 15.1506 16.2805 14.1854 16.2805 14.1854C17.0685 13.1468 16.8425 12.2855 16.7875 12.1266C16.7875 12.1144 16.7936 12.1144 16.7997 12.1144C17.9114 12.7864 18.4306 13.5378 18.4306 13.5378C18.51 13.3668 18.5955 13.2018 18.6749 13.043C19.1758 12.0717 19.7866 11.1125 20.6112 10.3856C21.1304 9.91518 21.8573 9.54253 22.5964 9.39592Z" fill="white"/>
<path d="M19.4749 16.7878C19.4383 15.1506 18.4243 13.5256 18.4243 13.5256C18.5037 13.3545 18.5892 13.1896 18.6686 13.0308C19.4383 14.2465 19.4749 16.5496 19.4749 16.7878Z" fill="#DDE4DE"/>
<path d="M38.7405 25.2244C38.7772 25.1939 38.8138 25.1695 38.826 25.1206C38.8444 25.0595 38.8077 24.9923 38.7649 24.9373C38.4107 24.4547 37.8854 24.0515 37.2868 24.0332C36.8286 24.021 36.3705 24.2531 36.1079 24.6257C35.9002 24.9251 35.8208 25.31 35.8819 25.6643C35.9491 26.0491 36.1689 26.043 36.5232 26.0186C37.3234 25.9758 38.1053 25.6948 38.7405 25.2244Z" fill="#DDE4DE"/>
<path d="M39.1068 27.643C39.3756 27.8507 39.5955 28.1256 39.6932 28.4494C39.6993 28.4739 39.7054 28.4983 39.7238 28.5166C39.7665 28.5594 39.8459 28.5472 39.8887 28.4983C39.9314 28.4494 39.9375 28.3883 39.9437 28.3272C39.9864 27.808 39.8581 27.2826 39.5833 26.8428C39.3084 26.4029 38.893 26.0608 38.4044 25.8714C38.27 25.8164 38.1295 25.7798 37.9829 25.7798C37.7264 25.7798 37.4393 25.9386 37.2927 26.1463C37.1155 26.3846 37.1888 26.7206 37.3232 26.971C37.3415 27.0077 37.366 27.0382 37.4087 27.0566C37.4393 27.0688 37.4698 27.0566 37.5065 27.0566C37.7752 27.0077 38.0562 27.1238 38.3066 27.2215C38.5876 27.3193 38.8625 27.4598 39.1068 27.643Z" fill="#934747"/>
<path d="M40.0841 28.4557C40.1207 28.5167 40.1696 28.5839 40.2429 28.5839C40.3223 28.5839 40.3651 28.4923 40.3834 28.4129C40.42 28.2113 40.3712 28.0036 40.3101 27.8081C40.1635 27.3499 39.9497 26.9162 39.6809 26.5191C39.6199 26.4275 39.5405 26.3358 39.4366 26.3297C38.9846 26.3175 39.3206 27.185 39.4305 27.3805C39.6321 27.747 39.8703 28.0952 40.0841 28.4557Z" fill="#BA6963"/>
<path d="M39.3147 28.3763C39.3024 28.4191 39.2963 28.4741 39.3208 28.5168C39.3513 28.5535 39.4002 28.5596 39.4429 28.5474C39.4857 28.5352 39.5162 28.4985 39.5468 28.4618C39.7178 28.2664 39.8094 27.9976 39.7911 27.7349C39.7789 27.5333 39.7056 27.3317 39.5834 27.1728C39.4979 27.0568 39.2902 26.8796 39.2719 27.1301C39.2597 27.3134 39.3757 27.5272 39.3818 27.7227C39.3941 27.9426 39.3635 28.1625 39.3147 28.3763Z" fill="#BA6963"/>
<path d="M36.5473 26.6356C36.6389 26.7455 36.7183 26.8616 36.7428 26.996C36.7794 27.1793 36.7244 27.3748 36.9138 27.4542C37.152 27.5519 37.3475 27.3992 37.4086 27.1732C37.5002 26.8555 37.4025 26.1224 37.8056 26.0064C38.1232 25.9086 38.337 26.2874 38.5264 26.4951C38.8074 26.7944 39.0639 27.1121 39.3266 27.4236C39.3693 27.4725 39.406 27.5214 39.467 27.5458C39.5587 27.5825 39.6747 27.5336 39.7358 27.4542C39.7969 27.3748 39.8152 27.2709 39.8213 27.1671C39.8335 26.7822 39.6564 26.4218 39.4487 26.1041C39.2227 25.7559 38.9601 25.4321 38.7035 25.1083C38.5447 24.9128 38.3798 24.7112 38.1721 24.5646C37.9766 24.4302 37.7506 24.3508 37.5246 24.2836C37.3231 24.2225 37.1154 24.1675 36.9016 24.192C36.6878 24.2164 36.4923 24.3203 36.2969 24.4241C36.1808 24.4852 36.0587 24.5524 35.9915 24.6685C35.8388 24.9373 36.022 25.2244 36.0403 25.4993C36.0587 25.8414 36.1686 26.1713 36.3824 26.4462C36.4313 26.5012 36.4923 26.5684 36.5473 26.6356Z" fill="#DB867B"/>
<path d="M38.8076 24.137C38.6915 24.3691 38.8076 25.1572 38.8076 25.1572C37.024 24.1064 35.9306 25.9513 35.9306 25.9513C35.8756 25.316 35.6985 25.5176 35.3015 24.5402C34.935 23.6543 34.7395 20.5449 34.7029 19.9767C34.6968 19.9217 34.6968 19.8851 34.6968 19.8851C34.6357 19.769 34.5563 19.6346 34.4708 19.4941C33.6584 18.1929 31.8809 16.0364 31.8809 16.0364L32.8643 11.1187C34.3364 12.145 37.4577 14.0449 38.2579 19.0787C39.0703 24.1064 38.8076 24.137 38.8076 24.137Z" fill="white"/>
<path d="M22.7307 48.0474C22.7307 48.1879 22.7307 48.3284 22.7123 48.4811C22.7123 48.4811 22.0893 48.5239 21.8511 48.8049C21.6129 49.0859 21.1181 49.7518 20.1469 49.9228C19.1757 50.0939 18.4244 49.9656 17.557 49.6846C16.6957 49.4036 16.3292 49.6601 16.372 48.7132C16.372 48.7132 17.3676 48.7988 18.6381 49.1897C19.9087 49.5807 21.3563 48.475 21.3563 48.475C21.3563 48.475 22.1687 48.1329 22.7307 48.0474Z" fill="#B7C2C4"/>
<path d="M31.1965 49.3362C31.1843 49.3668 31.1782 49.3851 31.1782 49.3851C30.433 49.5378 27.2628 49.3851 27.2628 49.3851C27.2078 49.1835 27.1712 48.9697 27.1528 48.762C28.4905 48.3954 29.9138 48.3282 31.282 48.5665C31.3248 48.9025 31.2331 49.2202 31.1965 49.3362Z" fill="#B7C2C4"/>
<path d="M20.794 24.5522C20.794 24.5522 22.9929 24.7233 23.5793 24.6378C23.5793 24.6378 23.5121 26.3483 23.5366 27.3807C23.5427 27.7289 23.2556 28.0099 22.9074 27.9916L21.3682 27.9061C21.0444 27.8878 20.7818 27.6251 20.7695 27.2952C20.7451 26.5316 20.7207 25.2059 20.794 24.5522Z" fill="#DDE4DE"/>
<path d="M31.0987 24.9129C31.0987 24.9129 28.8936 24.9984 28.3133 24.8945C28.3133 24.8945 28.3133 26.7395 28.2462 27.7535C28.2278 28.0346 28.4538 28.2728 28.7348 28.2728L30.5184 28.2423C30.775 28.2362 30.9826 28.0407 31.001 27.7841C31.0559 27.051 31.1476 25.6093 31.0987 24.9129Z" fill="#DDE4DE"/>
<path d="M35.8573 19.1763C35.503 19.2801 35.1793 19.4573 34.9166 19.72C34.8372 19.7994 34.7639 19.8849 34.7028 19.9704C34.6967 19.9155 34.6967 19.8788 34.6967 19.8788C34.6356 19.7627 34.5562 19.6283 34.4707 19.4878C34.8861 19.2374 35.3625 19.1885 35.8573 19.1763Z" fill="#DDE4DE"/>
<path d="M32.3881 2.15648C32.3819 2.16259 32.3819 2.1687 32.3758 2.17481C32.1254 2.54135 31.5573 2.55968 31.1359 2.70629C31.1114 2.578 31.0748 2.45582 31.0198 2.33975C30.7999 1.85103 30.3601 1.46005 29.8409 1.31344C29.5477 1.23402 29.2423 1.22791 28.9491 1.14849C28.8147 1.11184 28.6742 1.05686 28.5826 0.946897C28.5093 0.861371 28.4727 0.751409 28.4421 0.641446C28.4299 0.580356 28.4116 0.513157 28.4116 0.445958C28.3994 0.287124 28.4238 0.12218 28.5215 0C28.5215 0 28.5277 -5.91704e-09 28.5277 0.00610901C28.9247 0.268797 29.45 0.348214 29.9264 0.329887C30.4029 0.305451 30.8915 0.25047 31.3435 0.397086C31.7894 0.537593 32.1682 0.86748 32.3697 1.289C32.5041 1.56391 32.553 1.90601 32.3881 2.15648Z" fill="#321914"/>
<path d="M28.7656 5.13142C28.7106 5.13142 28.6617 5.12531 28.6068 5.1192V5.10087L28.6007 5.1192L27.7272 4.89317C27.5378 4.8443 27.4279 4.66103 27.4645 4.47165L27.5623 4.01347C27.605 3.8302 27.776 3.70802 27.9654 3.73856L29.3886 3.95238C29.4558 3.9646 29.5169 4.00736 29.5597 4.06234C29.6024 4.12343 29.6146 4.19063 29.6024 4.26394L29.5658 4.45943C29.523 4.67324 29.4008 4.86262 29.2176 4.9848C29.1443 5.03368 29.0588 5.07033 28.9733 5.09477L29.0343 5.10698H28.9061C28.8633 5.12531 28.8144 5.13142 28.7656 5.13142ZM28.6251 5.00924C28.8144 5.04589 29.0038 5.00924 29.1626 4.89928C29.3214 4.78931 29.4314 4.63048 29.468 4.4411L29.5047 4.24561C29.5108 4.20285 29.5047 4.16009 29.4802 4.12343C29.4558 4.08678 29.4192 4.06234 29.3764 4.05623L27.9593 3.84242C27.831 3.82409 27.7089 3.90962 27.6783 4.03791L27.5806 4.49608C27.55 4.63048 27.6295 4.75877 27.7638 4.78932L28.6251 5.00924Z" fill="white"/>
<path d="M31.6057 5.80966C31.5874 5.80966 31.569 5.80967 31.5507 5.80356L30.6589 5.66916C30.213 5.57752 29.932 5.13767 30.0237 4.69172L30.0664 4.49623C30.0786 4.42903 30.1214 4.36794 30.1825 4.32517C30.2435 4.28241 30.3168 4.27019 30.384 4.28852L31.7767 4.64284C31.96 4.68561 32.0699 4.86888 32.0394 5.05215L31.9539 5.51643C31.9233 5.68748 31.7767 5.80966 31.6057 5.80966ZM30.6833 5.5653L31.569 5.6997C31.7034 5.71803 31.8256 5.6325 31.85 5.49811L31.9355 5.03382C31.96 4.90553 31.8806 4.77724 31.7523 4.7467L30.3596 4.39237C30.3168 4.38627 30.2741 4.39237 30.2374 4.41681C30.2008 4.44125 30.1764 4.4779 30.1702 4.52066L30.1275 4.71615C30.0481 5.10102 30.2924 5.47978 30.6833 5.5653Z" fill="white"/>
<path d="M31.1964 49.3361C31.1842 49.3666 31.1781 49.3849 31.1781 49.3849C30.4329 49.5377 27.2627 49.3849 27.2627 49.3849C27.2627 49.3849 30.2863 49.0306 31.1964 49.3361Z" fill="#1E599E"/>
<path d="M32.4305 2.18091C32.4 2.24811 32.3633 2.29087 32.2961 2.35196C32.2412 2.39472 31.9296 2.48025 31.9174 2.51079C31.9846 2.34585 32.0518 2.18091 32.0701 2.00985C32.1312 1.31954 31.4288 0.879687 30.824 0.788052C30.3965 0.720853 29.9567 0.812488 29.5352 0.720853C29.2664 0.665871 28.5518 0.354312 28.5273 0.012207C28.9244 0.274895 29.4497 0.354312 29.9261 0.335985C30.4026 0.311549 30.8912 0.256568 31.3432 0.403184C31.7891 0.543691 32.1679 0.873578 32.3694 1.2951C32.4855 1.53946 32.5405 1.87546 32.4488 2.13814C32.4427 2.14425 32.4366 2.16258 32.4305 2.18091Z" fill="#934747"/>
<path d="M32.522 3.80568C32.5281 3.97674 32.6808 4.11113 32.8335 4.19666C32.8702 4.21499 32.9129 4.23942 32.9313 4.26997C32.974 4.34328 32.919 4.43491 32.8641 4.50211C32.9618 4.51433 33.0412 4.41659 33.0534 4.32495C33.0656 4.22721 33.0351 4.13557 33.0046 4.04394C32.974 3.9523 32.9435 3.86067 32.9618 3.76292C32.974 3.70183 33.0046 3.64685 33.029 3.59187C33.1145 3.40249 33.1206 3.17035 33.0168 2.99319C32.9129 2.81602 32.6808 2.70606 32.4854 2.77937C32.7114 2.69384 32.8335 3.01762 32.803 3.17035C32.7663 3.40249 32.5159 3.56132 32.522 3.80568Z" fill="#934747"/>
<path d="M30.1461 4.48391C30.1217 4.48391 30.1034 4.47169 30.0972 4.44725C30.0667 4.34951 29.9873 4.27009 29.8896 4.23955C29.7918 4.209 29.6819 4.23955 29.6025 4.30675C29.578 4.32507 29.5475 4.32507 29.5292 4.30064C29.5109 4.2762 29.5109 4.24566 29.5353 4.22733C29.6391 4.13569 29.7857 4.09904 29.9262 4.1418C30.0606 4.17846 30.1705 4.28842 30.2072 4.42282C30.2133 4.45336 30.2011 4.4778 30.1705 4.49002C30.1583 4.48391 30.1522 4.48391 30.1461 4.48391Z" fill="white"/>
<path d="M35.5824 24.5641L35.4297 24.3931C35.845 24.0326 36.3642 23.8005 36.9323 23.7211C37.5004 23.6356 38.0684 23.715 38.5632 23.941L38.4655 24.1487C38.0074 23.941 37.4882 23.8677 36.9629 23.9471C36.4375 24.0265 35.9672 24.2342 35.5824 24.5641Z" fill="#DDE4DE"/>
</g>
<defs>
<clipPath id="clip0_2124_1895">
<rect width="50" height="50" fill="white"/>
</clipPath>
</defs>
</svg>
