<svg width="50" height="50" viewBox="0 0 50 50" fill="none" xmlns="http://www.w3.org/2000/svg">
<g clip-path="url(#clip0_2124_1895)">
<path d="M34.7884 45.6897H22.9188C22.8833 45.0921 22.9188 44.3511 22.8833 43.75C22.894 43.7358 22.9011 43.7215 22.9117 43.7073C23.152 43.3575 23.3947 43.0078 23.6351 42.6545C25.6039 42.3118 27.8745 42.2905 29.8575 42.5418C30.6472 43.7927 32.3378 44.3819 33.7371 43.9089C33.9064 43.8484 34.0935 43.7855 34.2663 43.8448C34.4356 43.9017 34.5339 44.0286 34.4036 44.1519C34.7174 44.1981 34.9435 44.4945 35.0098 44.8052C35.0737 45.1158 34.8547 45.3778 34.7872 45.6885L34.7884 45.6897Z" fill="#4173AF"/>
<path d="M8.408 40.1932C8.35473 40.3308 8.29553 40.4612 8.22805 40.5928C8.00548 41.0208 7.72017 41.412 7.4242 41.7903C7.23714 42.0274 7.04654 42.2633 6.84528 42.4898C6.73281 42.6237 6.61205 42.7506 6.49248 42.8751C6.07221 43.3055 5.61404 43.6944 5.09195 43.9908C4.33308 44.4211 3.41676 44.6405 2.56674 44.4781C2.37258 44.4425 2.18197 44.3868 1.99847 44.3085C1.45862 44.0785 0.957842 43.5734 1.01467 42.9913C1.03243 42.8324 1.0857 42.6878 1.16265 42.5502C1.26092 42.3665 1.39588 42.1934 1.52966 42.0309C2.4815 40.8726 3.43097 39.7107 4.38636 38.5511C4.64681 38.2334 4.94752 37.9121 5.28611 37.6572C5.74072 37.311 6.27346 37.0881 6.8879 37.1592C7.57573 37.2375 8.19964 37.7105 8.45772 38.3531C8.6945 38.9365 8.63057 39.6075 8.408 40.1932Z" fill="#DB867B"/>
<path d="M8.22803 40.5918C8.00546 41.0198 7.72015 41.411 7.42418 41.7892C7.23712 42.0264 7.04652 42.2623 6.84526 42.4888C6.55284 42.4496 6.25214 42.3477 5.97748 42.2374C5.20203 41.9339 4.42896 41.6304 3.65707 41.3257C3.45226 41.2474 3.24034 41.1668 3.02606 41.1988C2.8106 41.2308 2.60223 41.4253 2.6342 41.6399C2.67682 41.9007 3.0012 41.9932 3.26521 42.0323C3.9779 42.1272 5.99879 42.0287 6.41196 42.6998C6.44748 42.7567 6.47589 42.8124 6.49365 42.8729C6.07337 43.3033 5.61521 43.6922 5.09312 43.9886C4.33425 44.419 3.41793 44.6383 2.5679 44.4759C2.55725 44.4723 2.55014 44.4652 2.53949 44.4581C1.89072 43.9921 1.4148 43.3068 1.16382 42.5469C1.26208 42.3631 1.39704 42.19 1.53082 42.0276C2.48266 40.8692 3.43213 39.7073 4.38752 38.5478C4.64798 38.23 4.94868 37.9087 5.28727 37.6538C6.73398 37.9218 7.96758 39.137 8.22922 40.5894L8.22803 40.5918Z" fill="#B86963"/>
<path d="M8.44125 43.2334C6.33513 42.1118 4.3024 40.8515 2.36084 39.4632C5.48865 35.8541 8.44362 32.1515 11.4388 28.4262C13.1851 26.2542 14.9171 24.0703 16.6384 21.8804C20.2753 21.2734 23.8554 21.8555 27.2839 23.2119C27.6793 23.3672 28.0593 23.5545 28.4192 23.7632C30.0767 24.7164 31.4109 26.1724 32.6031 27.6591C33.3264 28.5567 34.032 29.4708 34.7305 30.3861C35.4574 31.3464 36.4021 32.3364 36.4341 33.6181C36.4625 34.5678 35.9617 35.451 35.4041 36.2252C35.3935 36.2395 35.3864 36.2501 35.3757 36.2644C33.6366 38.6522 32.1911 41.2096 29.9962 43.2548C27.6473 43.3745 25.34 43.1979 23.0302 42.7604C24.0921 41.4538 25.2133 40.0619 26.3356 38.67C27.6095 37.0907 28.8857 35.5079 30.0921 34.0212C30.1027 34.007 30.1134 33.9963 30.124 33.9821C30.1666 33.9251 24.9978 30.1679 24.5266 29.8217C24.0164 29.4459 22.2713 27.7338 21.7398 27.8773C21.4012 27.9686 20.8057 28.9716 20.5666 29.2514C20.1747 29.7103 19.7828 30.1691 19.3898 30.6279" fill="#AA4354"/>
<path d="M23.8669 26.7273C23.8563 26.7273 23.8468 26.7261 23.8361 26.7213C23.7911 26.7047 23.7675 26.6538 23.7852 26.6075C24.1179 25.7195 24.2386 24.7508 24.1345 23.8071C24.1285 23.7585 24.1641 23.7146 24.2126 23.7099C24.26 23.7028 24.3049 23.7395 24.3097 23.7881C24.4174 24.7591 24.2931 25.7562 23.9498 26.6704C23.9368 26.7059 23.9024 26.7273 23.8669 26.7273Z" fill="#8C2D41"/>
<path d="M24.5621 26.2779C24.5538 26.2779 24.5467 26.2779 24.5384 26.2743C24.4911 26.2613 24.4639 26.2126 24.4769 26.1664C24.7113 25.3211 24.7338 24.4212 24.5432 23.5652C24.5325 23.5177 24.5621 23.4703 24.6107 23.4596C24.6604 23.449 24.7054 23.4798 24.716 23.5272C24.9137 24.4117 24.8901 25.3412 24.6474 26.2138C24.6367 26.253 24.6012 26.279 24.5621 26.279V26.2779Z" fill="#8C2D41"/>
<path d="M32.6575 14.6919C32.6575 14.6919 32.654 14.6955 32.6504 14.6955C32.6398 14.7097 32.6291 14.7168 32.6185 14.7275C32.287 15.0417 31.9413 15.3345 31.6524 15.5966C31.508 15.7234 31.3742 15.8444 31.2641 15.957C30.6367 15.3428 29.5712 14.5224 29.5072 13.6462C29.4469 12.77 29.744 11.8583 30.2791 11.1635C31.4287 11.0995 33.253 10.6122 33.813 12.0113C34.2013 12.9752 33.478 13.9047 32.6564 14.6919H32.6575Z" fill="#DB867B"/>
<path d="M32.6183 14.7276C32.2868 15.0418 31.9411 15.3346 31.6522 15.5966C31.6416 15.5789 31.6309 15.5611 31.6238 15.5433C31.3871 15.0347 31.3385 14.4371 31.4901 13.8941C31.6451 13.3534 31.9979 12.8697 32.4632 12.5591C32.3993 13.2835 32.4525 14.0174 32.6183 14.7276Z" fill="#B86963"/>
<path d="M35.7854 10.0974C36.427 10.159 37.1835 10.2491 37.6393 10.7566C38.0703 11.2368 38.2632 11.9351 38.1058 12.5647C37.8903 13.4302 37.1681 13.9447 36.6389 14.6063C36.1263 15.2477 35.5829 15.9176 34.7791 16.2294C34.1765 16.463 33.4519 15.8227 33.0861 15.3995C32.744 15.0047 32.4551 14.5458 32.3107 14.0396C32.1662 13.5333 31.9768 13.0899 32.2195 12.5575C32.3793 12.2066 32.6457 11.9149 32.9062 11.6316C33.2199 11.2901 33.536 10.9475 33.9065 10.6712C34.4346 10.2776 35.1236 10.0346 35.7854 10.0986V10.0974Z" fill="#DB867B"/>
<path d="M33.8637 22.9083C32.7911 24.2433 31.3456 25.2748 29.7332 25.8581C28.9814 24.9215 27.8603 23.9256 26.6681 24.0465C25.6275 24.1485 24.5833 24.184 23.5462 24.1485C20.8481 24.0631 18.1809 23.5165 15.6699 22.4744C15.645 22.4637 15.6166 22.453 15.5917 22.4423C15.6024 22.4281 15.613 22.4139 15.6272 22.3997C17.5072 19.9798 19.2215 17.5173 21.0068 15.0275C21.4235 14.4442 22.0474 13.5893 22.0829 12.8519C22.0936 12.693 22.0758 12.5412 22.0226 12.4002C20.0088 12.7037 17.6244 12.8625 15.6379 12.2804C14.6044 11.9769 13.6206 11.3129 13.2003 10.3158C13.0026 9.85344 12.8404 8.84329 13.1435 8.38327C13.5105 7.82485 14.5511 7.8533 15.1217 7.86042C16.3707 7.88176 17.7393 7.75134 18.9456 8.01573C20.2361 8.30147 21.5099 8.20662 22.8252 8.13548C24.472 8.05011 26.4088 7.95882 27.7135 9.14207C28.1752 9.55941 28.5244 10.0953 28.7363 10.6857C28.8346 10.9573 28.9021 11.2477 28.934 11.537C29.0749 12.795 29.8267 13.7589 30.7122 14.6635C30.762 14.935 30.8211 15.2041 30.8957 15.4685C31.1076 15.5005 31.316 15.5005 31.5232 15.465C31.7209 15.6559 31.9186 15.8503 32.1128 16.0483C32.1163 16.2783 32.1518 16.5 32.2146 16.7194C32.359 17.2031 32.6384 17.656 32.9415 18.065C33.3819 18.659 33.8969 19.2056 34.2284 19.866C34.7327 20.8868 34.5598 22.0381 33.8614 22.9071L33.8637 22.9083Z" fill="#362B63"/>
<path d="M21.3987 20.0222C21.2294 20.8806 21.2436 21.7994 21.5999 22.5938C21.9527 23.3846 22.6867 24.0355 23.5474 24.1481C20.8493 24.0628 18.182 23.5162 15.671 22.4741C15.6568 22.4492 15.6426 22.4243 15.6284 22.3994C17.5084 19.9795 19.2227 17.517 21.008 15.0272C21.4247 14.4438 22.0486 13.589 22.0841 12.8516C22.4689 12.9393 22.8501 13.0353 23.2301 13.116C23.5509 13.1835 25.5896 13.8404 25.7766 13.6602C23.8895 15.4718 21.9042 17.4541 21.3998 20.0222H21.3987Z" fill="#14123E"/>
<path d="M27.175 24.3616C28.8241 23.1475 30.2234 21.6418 31.2759 19.9487C30.3868 21.0857 29.0538 22.0283 27.6982 22.6508C27.3952 22.7895 27.066 22.9282 26.8873 23.195C26.7085 23.4617 26.847 24.2869 27.175 24.3616Z" fill="#14123E"/>
<path d="M42.3531 40.6201C42.3531 41.3872 42.1377 42.0998 41.76 42.7045L40.1346 40.1186L37.7254 39.7511L37.0162 42.0856L38.5896 44.586C38.5221 44.5896 38.4558 44.5896 38.3883 44.5896C38.2865 44.5896 38.1871 44.586 38.0888 44.5789C36.036 44.4236 34.42 42.7104 34.42 40.619C34.42 39.8839 34.6177 39.1986 34.9669 38.6093L34.9385 38.5667L18.6471 12.6573C18.6436 12.6502 18.64 12.6466 18.6365 12.6395L18.3819 12.2329C18.2553 12.2471 18.1239 12.2542 17.9936 12.2542C15.8697 12.2542 14.1425 10.5872 14.0324 8.48511C14.0288 8.41753 14.0288 8.34758 14.0288 8.28C14.0288 7.51291 14.2443 6.80035 14.6219 6.19568L16.2474 8.78152L16.6286 8.83843L18.6566 9.14906L19.2533 7.18805L19.3657 6.81339L17.7935 4.3141C17.861 4.31055 17.9273 4.31055 17.9948 4.31055C19.2474 4.31055 20.3614 4.89031 21.0883 5.79376C21.6352 6.47193 21.9632 7.34099 21.9632 8.28C21.9632 8.99374 21.7761 9.66125 21.4446 10.241L21.55 10.407C21.55 10.407 21.5536 10.4141 21.5571 10.4177L38.0545 36.6602C38.1634 36.6495 38.277 36.646 38.3895 36.646C40.5797 36.646 42.3543 38.4232 42.3543 40.6201H42.3531Z" fill="#F2AE1C"/>
<path d="M36.4555 37.7673L18.3575 9.74044L15.9471 9.37172L14.2778 6.7183L14.5774 6.52979L16.1602 9.04804L18.5682 9.4144L18.6108 9.48079L36.7514 37.5752L36.4555 37.7673Z" fill="#FCDFB1"/>
<path d="M32.3614 16.7237C32.3117 16.7237 32.2667 16.7237 32.217 16.7202C31.5007 16.706 30.7253 16.6846 30.2423 16.1724C28.9021 14.7485 28.2498 12.6156 28.7115 10.715C28.7222 10.7044 28.7293 10.6972 28.7399 10.6866C29.0537 10.3724 29.5095 10.1993 29.9534 10.2171C30.1618 10.2242 30.3737 10.2775 30.5465 10.3937C30.7194 10.5099 30.839 10.8277 30.794 11.0292C30.5229 12.2196 30.498 13.4633 30.7158 14.6643C30.7656 14.9358 30.8247 15.205 30.8993 15.4694C31.1112 15.5014 31.3196 15.5014 31.5268 15.4658C31.7138 15.4374 31.8973 15.3804 32.0702 15.2963C32.3591 15.3816 32.5887 15.646 32.6349 15.9424C32.6775 16.2424 32.6171 16.5601 32.3638 16.7226L32.3614 16.7237Z" fill="#5D5D9F"/>
<path d="M31.4179 21.9393H31.4144C31.3658 21.9381 31.3279 21.8966 31.3291 21.848C31.3942 20.0814 31.1042 18.2971 30.4424 16.4048C30.2873 17.8963 30.2826 19.4056 30.4282 20.8971C30.4329 20.9457 30.3974 20.9884 30.3489 20.9944C30.2956 21.0015 30.2565 20.9635 30.2518 20.9149C30.0932 19.2859 30.1121 17.6355 30.3086 16.0088C30.3134 15.9685 30.3453 15.9365 30.3856 15.9318C30.4246 15.927 30.4637 15.9507 30.4791 15.9887C31.2403 18.0374 31.5754 19.9569 31.5055 21.8563C31.5043 21.9037 31.4641 21.9417 31.4167 21.9417L31.4179 21.9393Z" fill="#B7C2C4"/>
<path d="M30.331 21.0975C30.4095 21.0975 30.4731 21.0338 30.4731 20.9553C30.4731 20.8767 30.4095 20.813 30.331 20.813C30.2526 20.813 30.189 20.8767 30.189 20.9553C30.189 21.0338 30.2526 21.0975 30.331 21.0975Z" fill="#DDE4DE"/>
<path d="M31.4272 22.1361C31.5057 22.1361 31.5693 22.0724 31.5693 21.9938C31.5693 21.9153 31.5057 21.8516 31.4272 21.8516C31.3488 21.8516 31.2852 21.9153 31.2852 21.9938C31.2852 22.0724 31.3488 22.1361 31.4272 22.1361Z" fill="#DDE4DE"/>
<path d="M37.9943 12.1227C38.0902 12.1417 38.1813 12.1144 38.2642 11.9911C38.4868 11.6627 38.366 10.9738 38.2405 10.6347C37.9812 9.93404 37.3147 9.4017 36.5748 9.30448C35.7922 9.20133 35.0251 9.5499 34.3337 9.93049C33.6423 10.3111 32.9983 10.7201 32.2134 10.8043C32.5899 11.2382 33.0575 11.5915 33.5784 11.8346C33.8495 11.7706 34.2118 11.9389 34.3657 12.1713C34.5196 12.4025 34.5137 12.7309 34.3503 12.9562C34.4343 13.0913 34.6403 13.0913 34.7741 13.006C34.9079 12.9206 34.9896 12.7772 35.0807 12.6479C35.3968 12.2045 35.8905 11.8915 36.4256 11.7943C36.7843 11.7291 37.1667 11.7587 37.5112 11.8832C37.6734 11.9413 37.8392 12.0931 37.9943 12.1239V12.1227Z" fill="#14123E"/>
<path d="M38.2723 12.5768C37.8911 12.4535 37.5135 12.3124 37.1441 12.1559C37.1405 12.1559 37.1405 12.1524 37.1405 12.1524C36.0289 11.6829 34.9788 11.0746 34.0222 10.3407C33.126 10.0799 32.2689 9.66967 31.5076 9.13258C31.3987 9.05433 31.2744 8.92036 31.3419 8.80417C31.4828 8.55993 32.379 8.92036 32.5767 8.97371C33.0171 9.10057 33.4516 9.25589 33.8671 9.45389C33.9618 9.39698 34.0613 9.34125 34.1631 9.28434C34.6639 9.01639 35.2499 8.78282 35.7649 8.61328C36.693 8.81839 37.9693 9.19305 38.251 10.1C38.5056 10.9371 38.5896 11.7599 38.2723 12.5768Z" fill="#DDE4DE"/>
<path d="M37.1405 12.1525C36.0289 11.683 34.9788 11.0747 34.0222 10.3408C33.126 10.08 32.2689 9.66977 31.5076 9.13268C31.3987 9.05443 31.2744 8.92046 31.3419 8.80427C31.4828 8.56003 32.379 8.92046 32.5767 8.97381C33.0171 9.10067 33.4516 9.25599 33.8671 9.45399C33.9618 9.39708 34.0613 9.34135 34.1631 9.28444C34.1595 9.33424 34.1595 9.38641 34.1666 9.4362C34.2092 9.71127 34.407 9.93772 34.5999 10.1357C35.3623 10.9087 36.2467 11.5419 37.1394 12.1525H37.1405Z" fill="#B7C2C4"/>
<path d="M34.6604 12.2945C34.7516 12.0491 34.6403 11.7503 34.4201 11.6104C34.1999 11.4705 33.8945 11.4894 33.6826 11.6412C33.4706 11.793 33.3546 12.0645 33.3712 12.3253C33.3878 12.5861 33.531 12.8328 33.737 12.9928C34.0851 12.8648 34.5314 12.6431 34.6604 12.2945Z" fill="#DB867B"/>
<path d="M36.1509 15.3781C35.894 15.2003 35.6999 14.9264 35.6182 14.6253L35.7034 14.6016C35.7804 14.8826 35.9615 15.1398 36.2018 15.3058L36.1509 15.3781Z" fill="#14123E"/>
<path d="M37.4772 13.543C37.2546 14.0635 37.0865 14.6077 36.9764 15.1625C36.6911 14.9527 36.4271 14.7167 36.2188 14.4298C36.2247 14.1441 36.4011 13.9449 36.5964 13.735C36.7917 13.5252 37.1931 13.5691 37.4772 13.543Z" fill="#DB867B"/>
<path d="M36.6406 13.113L36.5664 13.1597L37.0555 13.9385L37.1297 13.8917L36.6406 13.113Z" fill="#14123E"/>
<path d="M36.847 14.0763C36.9372 14.0763 37.0103 14.003 37.0103 13.9126C37.0103 13.8223 36.9372 13.749 36.847 13.749C36.7567 13.749 36.6836 13.8223 36.6836 13.9126C36.6836 14.003 36.7567 14.0763 36.847 14.0763Z" fill="#14123E"/>
<path d="M21.5785 11.0578C21.3701 11.2831 21.2553 11.5676 21.0587 11.7965C20.8504 12.0383 20.5734 12.215 20.3638 12.4592C20.288 12.547 20.217 12.6584 20.2419 12.771C20.2667 12.8825 20.3839 12.9548 20.4976 12.9655C20.6112 12.9761 20.7237 12.9394 20.8326 12.9038C20.7237 13.0153 20.6657 13.2643 20.7379 13.4018C20.8101 13.5393 20.9771 13.6199 21.1298 13.5927C20.9936 13.6176 21.215 14.2874 21.6175 14.1594C21.5939 14.4546 21.5654 14.572 21.91 14.6645C22.5327 14.834 23.2217 14.7356 23.7722 14.4001C24.3807 14.029 24.2114 13.0995 24.0007 12.4177C23.861 11.9648 23.6159 11.5155 23.3022 11.1598C23.0015 10.8183 22.4794 10.5148 22.0059 10.5776C21.7146 10.6168 21.7466 10.8823 21.5903 11.0471C21.5868 11.0507 21.5832 11.0554 21.5785 11.059V11.0578Z" fill="#DB867B"/>
<path d="M20.7084 13.039C20.6729 13.039 20.6397 13.0176 20.6267 12.9832C20.6089 12.9382 20.6314 12.886 20.6764 12.8694C20.9558 12.7615 21.2115 12.5872 21.4163 12.3679C21.4495 12.3323 21.5051 12.33 21.5406 12.3643C21.5762 12.3975 21.5773 12.4533 21.5442 12.4888C21.3216 12.7271 21.0422 12.9157 20.7392 13.033C20.7285 13.0366 20.7178 13.039 20.7072 13.039H20.7084Z" fill="#934747"/>
<path d="M21.0327 13.6961C20.9865 13.6961 20.9474 13.6606 20.9451 13.6143C20.9415 13.5657 20.9782 13.523 21.0267 13.5195C21.4956 13.4875 21.9383 13.2373 22.2094 12.8532C22.2379 12.8129 22.2923 12.8034 22.3326 12.8318C22.3728 12.8603 22.3823 12.9148 22.3539 12.9551C22.0532 13.3831 21.5619 13.6606 21.0398 13.6961C21.0374 13.6961 21.0362 13.6961 21.0339 13.6961H21.0327Z" fill="#934747"/>
<path d="M21.6935 14.2447C21.5633 14.2447 21.433 14.2292 21.3064 14.1972C21.259 14.1854 21.2306 14.1379 21.2424 14.0905C21.2543 14.0431 21.3004 14.0146 21.349 14.0265C21.8841 14.1617 22.4831 13.9684 22.8383 13.5475C22.8691 13.5096 22.9247 13.5048 22.9626 13.5368C22.9993 13.5689 23.004 13.6234 22.9733 13.6613C22.6595 14.0324 22.1777 14.2458 21.6947 14.2458L21.6935 14.2447Z" fill="#934747"/>
<path d="M31.465 24.7425C31.1525 24.6157 30.8044 24.5659 30.4741 24.6358C30.641 24.9014 30.8092 25.1658 30.9761 25.4314C31.0317 25.5191 31.0897 25.6104 31.1762 25.6673C31.3443 25.7776 31.5657 25.7337 31.7598 25.6851C31.954 25.6365 32.3375 25.5286 32.2499 25.2642C32.1765 25.0448 31.6604 24.822 31.4638 24.7425H31.465Z" fill="#934747"/>
<path d="M33.4057 29.2811C34.174 28.7227 34.4013 27.5809 34.0023 26.7178C33.749 26.17 33.2766 25.748 32.7308 25.5014C32.4929 25.3935 32.146 25.2464 31.8785 25.2713C31.618 25.2962 31.3279 25.4504 31.0699 25.5215C30.9669 25.55 30.8603 25.5796 30.7727 25.6424C30.6851 25.7053 30.62 25.8096 30.633 25.9163C30.646 26.0171 30.7265 26.1001 30.8189 26.1428C30.9112 26.1855 31.0142 26.1961 31.116 26.2056C30.9278 26.253 30.768 26.5459 30.807 26.7356C30.8473 26.9253 31.0509 27.0652 31.2415 27.032C31.1184 27.1577 31.071 27.4659 31.1729 27.6082C31.2759 27.7517 31.4854 27.8038 31.6429 27.7268C31.5493 27.8157 31.5138 28.0753 31.5517 28.1986C31.5908 28.3219 31.7032 28.418 31.8311 28.437C32.4254 28.5247 33.1665 28.5579 33.3974 29.2337" fill="#DB867B"/>
<path d="M30.9278 26.4557C30.9041 26.4557 30.8816 26.4462 30.8638 26.4284C30.8307 26.3928 30.8319 26.3371 30.8674 26.3039C31.3078 25.8866 31.9897 25.7384 32.5627 25.9352C32.6089 25.9506 32.6337 26.0016 32.6172 26.0478C32.6018 26.094 32.5497 26.1178 32.5047 26.1023C31.9909 25.9257 31.3812 26.0585 30.9882 26.4319C30.9704 26.4474 30.9491 26.4557 30.9278 26.4557Z" fill="#934747"/>
<path d="M31.0839 27.3105C31.0614 27.3105 31.0389 27.3022 31.0223 27.2844C30.988 27.25 30.988 27.1943 31.0223 27.1599C31.4533 26.726 32.147 26.5908 32.7105 26.8303C32.7555 26.8493 32.7768 26.9015 32.7567 26.9465C32.7366 26.9916 32.6845 27.0117 32.6407 26.9927C32.1411 26.7805 31.529 26.9003 31.1466 27.2844C31.1289 27.3022 31.1076 27.3105 31.0839 27.3105Z" fill="#934747"/>
<path d="M31.5565 27.9317C31.5293 27.9317 31.5009 27.9186 31.4843 27.8937C31.4559 27.8534 31.4666 27.7989 31.5056 27.7704C31.9756 27.4408 32.6007 27.3637 33.137 27.5689C33.182 27.5866 33.2045 27.6376 33.1879 27.6827C33.1702 27.7277 33.1181 27.7503 33.0743 27.7337C32.6007 27.5511 32.023 27.6222 31.6074 27.9139C31.592 27.9245 31.5743 27.9305 31.5565 27.9305V27.9317Z" fill="#934747"/>
<path d="M34.7884 45.6899H22.9188C22.8833 45.0923 22.9188 44.3513 22.8833 43.7502C22.894 43.736 22.9011 43.7217 22.9117 43.7075C24.0861 44.0182 25.2641 44.3217 26.4563 44.5446C26.9819 44.643 27.5111 44.7283 28.0403 44.7888C28.3753 44.8315 28.7104 44.8599 29.0454 44.8801C30.3394 44.9619 31.6523 44.8908 32.9179 44.6015C33.408 44.4888 33.923 44.3501 34.4025 44.1533C34.7162 44.1995 34.9423 44.496 35.0086 44.8066C35.0725 45.1172 34.8535 45.3792 34.786 45.6899H34.7884Z" fill="#1E599E"/>
<path d="M26.488 45.6897C26.4987 45.5451 26.5093 45.4111 26.5093 45.2973C26.5093 45.1598 26.4632 44.8314 26.4561 44.5444C26.9817 44.6428 27.5109 44.7282 28.0401 44.7887C28.0507 44.8906 28.0472 45.0009 28.0436 45.1064C28.0401 45.2511 28.0578 45.4668 28.0649 45.6897H26.488Z" fill="#BA6963"/>
<path d="M11.9501 45.6897H0.0805563C0.0474076 45.1265 -0.0662449 44.3523 0.0521432 43.8022C0.171715 43.2449 1.03595 41.6325 1.71431 41.6787C1.95582 41.6953 2.17011 41.8269 2.38557 41.9372C3.40844 42.4624 4.40645 42.3474 5.50391 42.4079C5.71464 42.4197 6.91391 42.3782 7.01809 42.543C7.80774 43.7939 9.49832 44.3831 10.8977 43.91C11.067 43.8496 11.254 43.7867 11.4269 43.846C11.5962 43.9029 11.6944 44.0298 11.5642 44.1531C11.8779 44.1993 12.104 44.4957 12.1703 44.8064C12.2343 45.117 12.0153 45.379 11.9478 45.6897H11.9501Z" fill="#4173AF"/>
<path d="M11.9503 45.6899H0.0806824C0.045166 45.0923 0.0806824 44.3513 0.045166 43.7502C0.0558209 43.736 0.0629242 43.7217 0.0735791 43.7075C1.24799 44.0182 2.42595 44.3217 3.61812 44.5446C4.14376 44.643 4.67295 44.7283 5.20215 44.7888C5.53719 44.8315 5.87222 44.8599 6.20726 44.8801C7.50124 44.9619 8.81417 44.8908 10.0797 44.6015C10.5699 44.4888 11.0849 44.3501 11.5643 44.1533C11.8781 44.1995 12.1042 44.496 12.1705 44.8066C12.2344 45.1172 12.0154 45.3792 11.9479 45.6899H11.9503Z" fill="#1E599E"/>
<path d="M3.65111 45.6897C3.66176 45.5451 3.67242 45.4111 3.67242 45.2973C3.67242 45.1598 3.62624 44.8314 3.61914 44.5444C4.14478 44.6428 4.67398 44.7282 5.20317 44.7887C5.21383 44.8906 5.21028 45.0009 5.20672 45.1064C5.20317 45.2511 5.22093 45.4668 5.22803 45.6897H3.65111Z" fill="#BA6963"/>
<path d="M14.788 25.0756C14.6128 25.0756 14.4341 25.059 14.2494 25.0329C14.2008 25.0258 14.1677 24.9819 14.1748 24.9333C14.1819 24.8847 14.2257 24.8479 14.2742 24.8586C14.9952 24.9618 15.4546 24.8752 15.9731 24.5397C16.5295 24.1792 16.9534 23.6078 17.1369 22.9699C17.1499 22.9237 17.1972 22.8952 17.2458 22.9094C17.2919 22.9225 17.3192 22.9723 17.3061 23.0185C17.1108 23.6967 16.6597 24.3049 16.069 24.6879C15.6191 24.9795 15.2119 25.0768 14.788 25.0768V25.0756Z" fill="#8C2D41"/>
<path d="M3.50919 38.8965C3.48669 38.8965 3.4642 38.8882 3.44762 38.8704C3.41329 38.836 3.41329 38.7803 3.44762 38.7459C4.79014 37.3872 13.4384 26.8779 14.6045 25.3508C14.6341 25.3117 14.6898 25.3034 14.7276 25.3342C14.7667 25.3638 14.7738 25.4196 14.7442 25.4575C13.5781 26.9869 4.918 37.5081 3.57312 38.8692C3.55536 38.887 3.53286 38.8953 3.51037 38.8953L3.50919 38.8965Z" fill="#8C2D41"/>
<path d="M3.55175 39.6537C3.53044 39.6537 3.50913 39.6466 3.49256 39.6312C3.45586 39.5991 3.45349 39.5422 3.48546 39.5067C4.67881 38.1764 7.06669 35.2811 9.37644 32.4819C11.6838 29.6838 14.0705 26.7897 15.2662 25.4583C15.2982 25.4227 15.355 25.4191 15.3906 25.4511C15.4261 25.4832 15.4296 25.5401 15.3977 25.5756C14.2055 26.9047 11.82 29.7964 9.51377 32.5933C7.20284 35.3949 4.81377 38.2914 3.61805 39.624C3.60029 39.643 3.57661 39.6537 3.55294 39.6537H3.55175Z" fill="#8C2D41"/>
<path d="M30.1217 33.9831C27.3597 31.8039 24.5657 29.9425 21.8049 27.7621C20.415 29.1363 23.2812 26.1793 21.9126 27.5712L22.5271 26.9429L30.1217 33.9831Z" fill="#321914"/>
<path d="M30.5973 34.5128C29.2536 35.9403 27.8282 37.3915 26.333 38.6708C27.6069 37.0915 28.8831 35.5087 30.0895 34.022C30.2588 34.188 30.4281 34.3504 30.5973 34.5128Z" fill="#321914"/>
<path d="M37.2188 13.5596C37.2366 13.5643 37.2555 13.5655 37.2745 13.5596C37.3218 13.5453 37.3514 13.4944 37.355 13.4446C37.3585 13.3948 37.3431 13.3462 37.3266 13.2987C37.291 13.1932 37.1371 12.4724 36.9489 12.5755C36.7287 12.6988 37.0069 13.3331 37.1064 13.4695C37.1348 13.5086 37.1738 13.5465 37.2176 13.5596H37.2188Z" fill="#14123E"/>
<path d="M32.6963 15.0273L32.6431 14.8257C32.6431 14.7795 32.6431 14.738 32.6502 14.6953C32.6502 14.6882 32.6537 14.6775 32.6537 14.6704L32.6573 14.6918L32.6963 15.0273Z" fill="#B86963"/>
<path d="M13.8077 7.31957C13.7971 7.09667 13.8077 6.87852 13.8397 6.65918L13.8077 7.31957Z" fill="#DB910F"/>
<path d="M18.6368 12.6398L18.3823 12.2331C18.2556 12.2473 18.1242 12.2544 17.994 12.2544C15.8701 12.2544 14.1428 10.5875 14.0327 8.48535C14.2162 9.0011 14.5051 9.48127 14.8898 9.87371C15.1787 10.1666 15.5599 10.4772 15.9447 10.6337C16.3922 10.8104 16.9427 10.8566 17.4151 10.9586C17.5346 10.9835 17.6625 11.0119 17.7608 11.0854C17.8626 11.1637 17.9229 11.2799 17.9833 11.3889C18.2023 11.8063 18.4202 12.2224 18.6356 12.6398H18.6368Z" fill="#DB910F"/>
<path d="M21.4449 10.2412L21.5503 10.4072C21.2862 10.0788 21.0211 9.75391 20.7606 9.4255C20.6896 9.33421 20.6126 9.23461 20.6055 9.11487C20.5949 8.99156 20.6694 8.87418 20.7357 8.76866C21.2685 7.88538 21.3774 6.77682 21.0885 5.79395C21.6355 6.47212 21.9634 7.34118 21.9634 8.28019C21.9634 8.99393 21.7764 9.66144 21.4449 10.2412Z" fill="#DB910F"/>
<path d="M40.9742 44.8632C40.0756 45.3031 38.9912 44.9296 38.5519 44.0298C38.1127 43.1299 38.4856 42.0438 39.3842 41.604C40.2828 41.1641 41.3672 41.5376 41.8064 42.4375C42.1261 43.0931 42.0231 43.8768 41.5436 44.4257C41.385 44.6083 41.1908 44.7565 40.9742 44.8632ZM39.3096 44.2396C39.8625 44.7233 40.7031 44.6664 41.1849 44.1127C41.6679 43.5591 41.6111 42.7173 41.0582 42.2347C40.5053 41.751 39.666 41.8079 39.1829 42.3616C38.7011 42.9153 38.7568 43.7559 39.3084 44.2408L39.3096 44.2396Z" fill="#E5991F"/>
<path d="M39.3179 41.7356L38.7449 41.3491L38.417 41.6206L38.8278 42.2976L39.3712 41.7819L39.3179 41.7356Z" fill="#E5991F"/>
<path d="M38.5104 42.7884L37.8332 42.92L37.793 43.3445L38.5613 43.5318L38.5814 42.7837L38.5104 42.7884Z" fill="#E5991F"/>
<path d="M38.6833 44.1034L38.2974 44.6773L38.5685 45.0057L39.2445 44.5943L38.7307 44.0513L38.6833 44.1034Z" fill="#E5991F"/>
<path d="M39.7347 44.912L39.8673 45.5913L40.29 45.6304L40.4782 44.8622L39.73 44.8408L39.7347 44.912Z" fill="#E5991F"/>
<path d="M41.0489 44.7392L41.6219 45.1257L41.9498 44.8542L41.539 44.1772L40.9956 44.693L41.0489 44.7392Z" fill="#E5991F"/>
<path d="M41.8562 43.686L42.5334 43.5544L42.5736 43.1299L41.8053 42.9414L41.7852 43.6907L41.8562 43.686Z" fill="#E5991F"/>
<path d="M41.6823 42.3703L42.0694 41.7977L41.7983 41.4692L41.1211 41.8795L41.6361 42.4237L41.6823 42.3703Z" fill="#E5991F"/>
<path d="M40.6321 41.5629L40.4996 40.8836L40.0757 40.8433L39.8887 41.6127L40.6369 41.6329L40.6321 41.5629Z" fill="#E5991F"/>
<path d="M47.5162 44.1592C46.1204 44.8421 44.4358 44.2623 43.7539 42.8645C43.0719 41.4666 43.6509 39.7795 45.0467 39.0966C46.4424 38.4136 48.1271 38.9934 48.809 40.3913C49.3063 41.4097 49.1452 42.6273 48.4006 43.481C48.1543 43.7643 47.8536 43.9944 47.5162 44.1592ZM44.9306 43.1905C45.7901 43.9422 47.0948 43.8533 47.8442 42.9925C48.5947 42.1317 48.506 40.8252 47.6465 40.0747C46.787 39.3242 45.4823 39.4119 44.7329 40.2727C43.9835 41.1335 44.0711 42.4388 44.9283 43.1905H44.9295H44.9306Z" fill="#FDDBA8"/>
<path d="M44.9423 39.2991L44.052 38.6992L43.543 39.1213L44.1811 40.1729L45.0252 39.3727L44.9423 39.2991Z" fill="#FDDBA8"/>
<path d="M43.6889 40.9353L42.6353 41.1404L42.5737 41.7997L43.7671 42.0925L43.799 40.9282L43.6889 40.9353Z" fill="#FDDBA8"/>
<path d="M43.9565 42.9795L43.3574 43.8711L43.7789 44.3797L44.829 43.7418L44.0299 42.8965L43.9565 42.9795Z" fill="#FDDBA8"/>
<path d="M45.5901 44.2353L45.7949 45.2893L46.4532 45.3521L46.7456 44.157L45.583 44.125L45.5901 44.2353Z" fill="#FDDBA8"/>
<path d="M47.6312 43.9661L48.5203 44.5672L49.0306 44.1451L48.3924 43.0923L47.5483 43.8938L47.6312 43.9661Z" fill="#FDDBA8"/>
<path d="M48.885 42.331L49.9387 42.1259L50.0002 41.4667L48.8069 41.1738L48.7749 42.3381L48.885 42.331Z" fill="#FDDBA8"/>
<path d="M48.616 40.286L49.2162 39.3956L48.7947 38.8857L47.7446 39.5236L48.5437 40.369L48.616 40.286Z" fill="#FDDBA8"/>
<path d="M46.9836 39.0302L46.7788 37.9762L46.1205 37.9146L45.8281 39.1097L46.9907 39.1405L46.9836 39.0302Z" fill="#FDDBA8"/>
<path d="M38.0893 44.5801C36.0364 44.4248 34.4204 42.7116 34.4204 40.6202C34.4204 39.8851 34.6181 39.1998 34.9674 38.6106L34.939 38.5679C35.2278 38.8678 35.4362 39.3207 35.4824 39.6385C35.5179 39.9029 35.4646 40.1685 35.4397 40.4329C35.3344 41.5106 35.6872 42.6227 36.3951 43.4384C36.8462 43.9577 37.4393 44.3501 38.0881 44.579L38.0893 44.5801Z" fill="#DB910F"/>
</g>
<defs>
<clipPath id="clip0_2124_1895">
<rect width="50" height="41.3793" fill="white" transform="translate(0 4.31055)"/>
</clipPath>
</defs>
</svg>
