<svg width="50" height="50" viewBox="0 0 50 50" fill="none" xmlns="http://www.w3.org/2000/svg">
<g clip-path="url(#clip0_2115_2)">
<path d="M24.1014 44.4949C37.4123 44.4949 48.2028 43.2385 48.2028 41.6886C48.2028 40.1387 37.4123 38.8823 24.1014 38.8823C10.7906 38.8823 0 40.1387 0 41.6886C0 43.2385 10.7906 44.4949 24.1014 44.4949Z" fill="#DDDDDD"/>
<path d="M5.61848 36.0247C6.51638 36.0183 7.41155 36.1236 8.28321 36.3382C8.70691 36.4436 9.11873 36.5918 9.51229 36.7802C10.3231 37.176 10.8137 37.6951 10.8137 38.2656V39.6841C10.8137 40.9228 8.48462 41.9199 5.61848 41.9199C4.91169 41.9228 4.20621 41.8591 3.51147 41.7298L3.33073 41.6938C2.79624 41.5821 2.27641 41.4096 1.78147 41.1798C0.924208 40.784 0.402625 40.2495 0.397461 39.6636V38.245C0.423282 37.0218 2.75234 36.0247 5.61848 36.0247Z" fill="#F37721"/>
<path d="M9.51263 36.7749C10.3234 37.1707 10.814 37.6898 10.814 38.2603C10.814 39.5041 8.49012 40.5063 5.61882 40.5063C4.31171 40.5359 3.01303 40.2907 1.80762 39.7868L2.44281 39.5349L8.87227 37.0216L9.51263 36.7749Z" fill="#FCC37F"/>
<path d="M5.61855 36.0246C6.95616 35.9927 8.28475 36.2505 9.51236 36.7801L8.872 37.0269C7.84729 36.581 6.73651 36.3651 5.61855 36.3947C3.22235 36.3947 1.28059 37.2324 1.28059 38.2655C1.28059 38.7795 1.71955 39.2061 2.44254 39.5402L1.80735 39.792C0.950087 39.3911 0.42334 38.8566 0.42334 38.2501C0.42334 37.0217 2.7524 36.0246 5.61855 36.0246Z" fill="#F2B458"/>
<path d="M5.61872 36.3894C6.73669 36.3599 7.84747 36.5757 8.87217 37.0216C9.54869 37.3505 9.96182 37.7874 9.96182 38.2602C9.96182 39.2882 8.01492 40.1362 5.61872 40.1362C4.52934 40.1603 3.4471 39.9554 2.44271 39.5349C1.71972 39.2008 1.28076 38.7537 1.28076 38.2602C1.28076 37.2272 3.22252 36.3894 5.61872 36.3894Z" fill="#EEAB1F"/>
<path d="M8.8719 37.0782C8.47737 36.9269 8.06929 36.8133 7.65315 36.739C7.23832 36.6637 6.81923 36.6139 6.39825 36.5899C5.97855 36.5668 5.55788 36.5668 5.13818 36.5899C4.71891 36.6139 4.30154 36.6637 3.88845 36.739C3.47807 36.814 3.07534 36.9259 2.68517 37.073C2.49262 37.1457 2.30613 37.2333 2.12743 37.3352C1.95124 37.4298 1.79095 37.5512 1.65233 37.6949C1.50911 37.8334 1.41332 38.0132 1.37861 38.2089C1.34822 38.4005 1.39058 38.5966 1.49741 38.7589C1.60532 38.9341 1.74548 39.0876 1.91054 39.2112C2.07252 39.3389 2.24531 39.4523 2.42696 39.5504C2.22409 39.4781 2.03006 39.3833 1.84857 39.2677C1.66261 39.153 1.49974 39.0049 1.3683 38.8308C1.23076 38.646 1.1664 38.4173 1.18754 38.1883C1.22118 37.9605 1.3218 37.7477 1.47673 37.5767C1.55119 37.4932 1.63238 37.4158 1.71947 37.3454C1.80521 37.2746 1.89675 37.211 1.99316 37.1553C2.17832 37.0387 2.37363 36.939 2.57671 36.8572C2.9787 36.6969 3.39559 36.5764 3.82131 36.4974C4.67308 36.3438 5.5424 36.3109 6.40342 36.3997C6.8322 36.4417 7.25697 36.5174 7.6738 36.6259C8.09087 36.7253 8.4935 36.8773 8.8719 37.0782Z" fill="#F37721"/>
<path d="M5.64945 35.778C6.54587 35.7732 7.43937 35.8802 8.30903 36.0967C8.73209 36.202 9.14375 36.3483 9.53812 36.5335C10.3541 36.9293 10.8447 37.4535 10.8447 38.024V39.4375C10.8447 40.6761 8.51559 41.6784 5.64945 41.6784C4.94078 41.6796 4.23357 41.6142 3.53726 41.4831L3.3617 41.4471C2.8286 41.3423 2.30895 41.1785 1.81243 40.9588C0.960336 40.5579 0.433594 40.0234 0.433594 39.4169V38.0035C0.454251 36.7802 2.77814 35.778 5.64945 35.778Z" fill="#F37721"/>
<path d="M9.53854 36.5386C10.3545 36.9343 10.8451 37.4586 10.8451 38.0291C10.8451 39.2677 8.52117 40.27 5.64986 40.27C4.34113 40.2991 3.04087 40.0539 1.8335 39.5504L2.46872 39.3037L8.90332 36.7904L9.53854 36.5386Z" fill="#FCC37F"/>
<path d="M5.6498 35.7781C6.98579 35.7456 8.31284 36.0035 9.53847 36.5337L8.90325 36.7855C7.87879 36.3384 6.76811 36.1208 5.6498 36.1482C3.2536 36.1482 1.31184 36.986 1.31184 38.0242C1.31184 38.5381 1.75082 38.9647 2.46865 39.2988L1.83343 39.5455C0.976167 39.1446 0.45459 38.6101 0.45459 38.0036C0.45459 36.7804 2.77849 35.7781 5.6498 35.7781Z" fill="#F2B458"/>
<path d="M5.64948 36.1482C6.76718 36.1218 7.87728 36.3375 8.90294 36.7803C9.57945 37.1144 9.98744 37.5462 9.98744 38.0242C9.98744 39.0521 8.04568 39.895 5.64948 39.895C4.55882 39.9205 3.47497 39.7174 2.46834 39.2988C1.75051 38.9647 1.31152 38.5176 1.31152 38.0242C1.31152 36.9859 3.25328 36.1482 5.64948 36.1482Z" fill="#EEAB1F"/>
<path d="M8.9029 36.8365C8.50814 36.6859 8.10013 36.5724 7.68415 36.4973C7.26955 36.4215 6.85031 36.3734 6.42925 36.3534C6.00782 36.3303 5.58543 36.3303 5.16401 36.3534C4.74608 36.3763 4.33025 36.4278 3.91945 36.5076C3.50853 36.5779 3.1055 36.688 2.71617 36.8365C2.52319 36.9082 2.33661 36.9958 2.15843 37.0987C1.98377 37.198 1.82241 37.3189 1.67816 37.4584C1.53762 37.5989 1.44235 37.7778 1.40447 37.9724C1.37697 38.164 1.41908 38.359 1.52324 38.5223C1.6346 38.6952 1.77629 38.8466 1.94154 38.9695C2.10369 39.0985 2.27644 39.2137 2.45796 39.3139C2.25857 39.2373 2.06669 39.1427 1.88474 39.0312C1.69885 38.9164 1.536 38.7683 1.40447 38.5943C1.26562 38.408 1.19952 38.1779 1.21854 37.9467C1.25179 37.7177 1.35449 37.5044 1.5129 37.3351C1.58736 37.2515 1.66855 37.1742 1.75564 37.1038C1.84087 37.0346 1.93056 36.9711 2.02415 36.9136C2.21158 36.8011 2.40656 36.7015 2.60771 36.6155C3.01081 36.4545 3.42967 36.3357 3.85748 36.2609C4.70901 36.1056 5.57832 36.071 6.43959 36.1581C6.86674 36.1996 7.28982 36.2753 7.7048 36.3842C8.12075 36.4873 8.52294 36.6391 8.9029 36.8365Z" fill="#F37721"/>
<path d="M3.41868 37.6542C3.50156 37.7467 3.59928 37.8248 3.70787 37.8855C3.79536 37.9447 3.88683 37.9979 3.98159 38.0448L4.07971 38.0756H4.43088L5.14354 38.0088H5.27782L6.11442 37.9317C6.26418 37.9317 6.38811 37.9317 6.48623 37.9317C6.5936 37.9185 6.70254 37.9273 6.8064 37.9574C6.83223 37.9574 6.83739 38.0911 6.8064 38.3121C6.7989 38.413 6.7989 38.5144 6.8064 38.6153C6.80515 38.6884 6.81561 38.7613 6.83739 38.8312C6.92117 39.0154 7.0577 39.1709 7.22987 39.2783C7.31561 39.3463 7.41384 39.3969 7.51907 39.4274H7.55522C7.58594 39.3409 7.58594 39.2466 7.55522 39.1601C7.49842 39.0316 7.40545 39.0213 7.37963 38.9134V38.8055C7.34864 38.5999 7.30734 37.9934 7.29184 37.9728C7.22783 37.8513 7.12396 37.7551 6.99748 37.7004C6.82306 37.6028 6.62905 37.5448 6.42943 37.5308H6.40361C6.34164 37.5308 6.10924 37.5308 5.71159 37.5719H5.31911C5.15966 37.5921 4.99829 37.5921 4.83884 37.5719V37.5462C4.83884 37.5051 4.9318 37.4434 5.0764 37.3509H5.10739C5.21595 37.2719 5.34145 37.2192 5.47403 37.1967H5.67544C5.82243 37.2021 5.969 37.2158 6.11442 37.2379L6.52755 37.2944H6.56887C6.56887 37.2944 6.59986 37.0426 6.56887 37.0271C6.36881 36.9506 6.15798 36.9055 5.94399 36.8935C5.82521 36.8935 5.42755 36.8935 5.34492 36.8935C5.1888 36.8753 5.03111 36.8753 4.87499 36.8935C4.73221 36.8945 4.59132 36.9261 4.46186 36.986C4.3969 37.0239 4.33627 37.0687 4.28109 37.1196L4.13134 37.2687L3.85765 37.5514L3.78018 37.6079C3.72337 37.6439 3.49614 37.4434 3.41868 37.464C3.34121 37.4846 3.40835 37.536 3.41868 37.6542Z" fill="#F37721"/>
<path d="M3.78027 37.5304L5.14364 37.993H5.27791L6.11965 37.9159C6.34672 37.8746 6.57943 37.8746 6.8065 37.9159C6.83258 38.0327 6.83258 38.1538 6.8065 38.2706C6.799 38.3715 6.799 38.4729 6.8065 38.5738L7.36424 38.764C7.31501 38.5395 7.29248 38.3101 7.29711 38.0804L5.69104 37.5664H5.55677H5.29339C5.13566 37.5865 4.97601 37.5865 4.81829 37.5664C4.81829 37.5304 4.88024 37.4534 5.05582 37.3454H5.08681L4.26054 37.0679L4.11079 37.2169L3.83707 37.4996C3.8188 37.5111 3.79984 37.5214 3.78027 37.5304Z" fill="#F37721"/>
<path d="M3.41895 37.3865C3.50183 37.479 3.59955 37.5572 3.70814 37.6178C3.79563 37.6771 3.88709 37.7303 3.98186 37.7772L4.07998 37.808H4.43114L5.14381 37.7412H5.27808L6.11469 37.6641H6.48649C6.59387 37.6509 6.70281 37.6596 6.80667 37.6898C6.83249 37.6898 6.83766 37.8234 6.80667 38.0444C6.79917 38.1454 6.79917 38.2467 6.80667 38.3477C6.80542 38.4208 6.81588 38.4937 6.83766 38.5635C6.92213 38.7487 7.05839 38.9057 7.23014 39.0158C7.31701 39.0808 7.41499 39.1296 7.51934 39.1597H7.55549C7.55549 39.1597 7.5555 39.1032 7.49869 39.0055C7.44978 38.8889 7.41005 38.7686 7.37989 38.6458V38.5379C7.35353 38.309 7.35353 38.0779 7.37989 37.8491C7.37989 37.8491 7.37989 37.8029 7.37989 37.7772C7.38464 37.7551 7.38464 37.7324 7.37989 37.7104C7.28653 37.5894 7.16395 37.4939 7.02356 37.4328C6.84914 37.3352 6.65514 37.2772 6.45551 37.2632H6.4297C6.36772 37.2632 6.13532 37.2632 5.73768 37.3043L5.34519 37.33C5.18574 37.3502 5.02437 37.3502 4.86492 37.33V37.3043C4.86492 37.2632 4.95789 37.2015 5.10249 37.109H5.13347C5.24203 37.03 5.36757 36.9772 5.50014 36.9548H5.70152C5.82546 36.9548 5.97525 36.9548 6.1405 36.9959L6.55363 37.0525H6.59495C6.29884 36.9106 5.98914 36.7987 5.67054 36.7184C5.57276 36.6866 5.47263 36.6625 5.37104 36.6464C5.21492 36.6283 5.05719 36.6283 4.90107 36.6464C4.75829 36.6475 4.61741 36.679 4.48794 36.739C4.42198 36.7773 4.36125 36.824 4.30721 36.8777L4.15743 37.0216L3.88374 37.3043C3.86013 37.326 3.83413 37.345 3.80626 37.3609C3.74403 37.4001 3.67609 37.4296 3.60485 37.4482L3.41895 37.3865Z" fill="#F8BE58"/>
<path d="M3.78027 37.2634L5.14364 37.726H5.27791L6.11965 37.6489C6.34672 37.6076 6.57943 37.6076 6.8065 37.6489C6.83258 37.7657 6.83258 37.8868 6.8065 38.0035C6.799 38.1045 6.799 38.2058 6.8065 38.3068L7.36424 38.4969C7.33788 38.2681 7.33788 38.0371 7.36424 37.8082L5.71169 37.2634H5.57741H5.31403C5.15631 37.2835 4.99666 37.2835 4.83893 37.2634C4.83893 37.2274 4.90091 37.1504 5.0765 37.0424H5.10748L4.28119 36.77L4.13144 36.9139L3.85775 37.1966C3.83422 37.2214 3.80826 37.2438 3.78027 37.2634Z" fill="#FDC87B"/>
<path d="M7.58625 33.8351C8.48438 33.8303 9.37956 33.9374 10.251 34.1538C10.6733 34.2583 11.0835 34.4065 11.4749 34.5958C12.2909 34.9916 12.7815 35.5107 12.7815 36.0812V37.4997C12.7815 38.7332 10.4524 39.7355 7.58625 39.7355C6.87919 39.7393 6.17344 39.6739 5.47924 39.5402L5.29851 39.5042C4.76447 39.4031 4.2444 39.2392 3.74924 39.0159C2.89198 38.615 2.3704 38.0856 2.36523 37.4997V36.0812C2.39106 34.8425 4.71495 33.8351 7.58625 33.8351Z" fill="#F37721"/>
<path d="M11.4748 34.5957C12.2907 34.9915 12.7813 35.5106 12.7813 36.0811C12.7813 37.3197 10.4574 38.3271 7.5861 38.3271C6.27899 38.3567 4.98032 38.1115 3.7749 37.6076L4.41009 37.3557L10.8396 34.8424L11.4748 34.5957Z" fill="#FCC37F"/>
<path d="M7.58632 33.8349C8.92292 33.8014 10.2506 34.0611 11.475 34.5956L10.8398 34.8423C9.81552 34.3945 8.70469 34.1769 7.58632 34.205C5.19012 34.205 3.24836 35.0479 3.24836 36.081C3.24836 36.5949 3.68732 37.0215 4.41031 37.3556L3.77512 37.6074C2.9127 37.2065 2.39111 36.672 2.39111 36.0655C2.39111 34.8423 4.71501 33.8349 7.58632 33.8349Z" fill="#F2B458"/>
<path d="M7.58601 34.205C8.70437 34.177 9.81521 34.3946 10.8395 34.8424C11.516 35.1713 11.924 35.6082 11.924 36.081C11.924 37.109 9.9822 37.957 7.58601 37.957C6.49663 37.9811 5.41438 37.7762 4.41 37.3557C3.68701 37.0216 3.24805 36.5744 3.24805 36.081C3.24805 35.048 5.18981 34.205 7.58601 34.205Z" fill="#EEAB1F"/>
<path d="M10.8397 34.899C10.4461 34.7437 10.0378 34.6284 9.62093 34.5546C9.20638 34.4785 8.78712 34.4304 8.36603 34.4107C7.94633 34.3876 7.52566 34.3876 7.10596 34.4107C6.68626 34.4296 6.26854 34.4794 5.85623 34.5598C5.44531 34.63 5.04229 34.7402 4.65296 34.8887C4.4609 34.9625 4.27448 35.0501 4.09521 35.1508C3.91984 35.2488 3.75979 35.3717 3.62011 35.5158C3.47602 35.6536 3.38008 35.8337 3.34639 36.0297C3.31393 36.2214 3.35645 36.4182 3.46519 36.5797C3.573 36.755 3.71317 36.9085 3.87832 37.032C4.03952 37.1607 4.2124 37.2743 4.39474 37.3712C4.19187 37.2989 3.99784 37.2041 3.81635 37.0885C3.62932 36.9752 3.46621 36.8269 3.33609 36.6516C3.19719 36.4675 3.13268 36.2383 3.15532 36.0092C3.18448 35.78 3.2857 35.5659 3.44451 35.3975C3.51891 35.3124 3.6001 35.2333 3.68725 35.1611L3.9558 34.9709C4.14454 34.859 4.34129 34.7611 4.5445 34.678C4.94648 34.5177 5.36337 34.3972 5.78909 34.3182C6.64086 34.1646 7.51018 34.1317 8.3712 34.2205C8.80033 34.26 9.2253 34.3357 9.64158 34.4467C10.0584 34.547 10.4609 34.699 10.8397 34.899Z" fill="#F37721"/>
<path d="M7.61708 33.5989C8.51326 33.5928 9.40671 33.6982 10.2767 33.9124C10.6999 34.0193 11.1116 34.1674 11.5058 34.3544C12.3217 34.7502 12.8123 35.2744 12.8123 35.8398V37.2583C12.8123 38.497 10.4832 39.4993 7.61708 39.4993C6.90842 39.5005 6.20124 39.4351 5.50493 39.3039L5.32417 39.268C4.79894 39.1528 4.28804 38.9804 3.80071 38.754C2.94345 38.3582 2.42188 37.8237 2.42188 37.2121V35.7935C2.42188 34.6011 4.74577 33.5989 7.61708 33.5989Z" fill="#F37721"/>
<path d="M11.5058 34.354C12.3166 34.7498 12.8124 35.2689 12.8124 35.8394C12.8124 37.0832 10.4833 38.0854 7.61715 38.0854C6.30841 38.1145 5.00815 37.8693 3.80078 37.3659L4.436 37.1192L10.8706 34.6007L11.5058 34.354Z" fill="#FCC37F"/>
<path d="M7.61708 33.5989C8.95307 33.5664 10.2801 33.8243 11.5058 34.3545L10.8705 34.6012C9.84488 34.1583 8.73478 33.9426 7.61708 33.969C5.22088 33.969 3.27912 34.8068 3.27912 35.8398C3.27912 36.3538 3.71811 36.7804 4.43593 37.1196L3.80071 37.3663C2.94345 36.9654 2.42188 36.4309 2.42188 35.8244C2.42187 34.6012 4.74577 33.5989 7.61708 33.5989Z" fill="#F2B458"/>
<path d="M7.61726 33.969C8.73496 33.9426 9.84506 34.1583 10.8707 34.6011C11.5472 34.9352 11.9552 35.367 11.9552 35.8398C11.9552 36.8677 10.0135 37.7158 7.61726 37.7158C6.5268 37.7387 5.44349 37.5357 4.43611 37.1196C3.71828 36.7804 3.2793 36.3332 3.2793 35.8398C3.2793 34.8067 5.23139 33.969 7.61726 33.969Z" fill="#EEAB1F"/>
<path d="M10.8705 34.6577C10.4742 34.5064 10.0644 34.3928 9.64657 34.3185C9.23178 34.2429 8.81267 34.1931 8.39167 34.1694C7.97197 34.1463 7.5513 34.1463 7.1316 34.1694C6.71401 34.1931 6.29835 34.2429 5.88703 34.3185C5.4765 34.3929 5.07371 34.5047 4.68376 34.6526C4.49036 34.7232 4.30369 34.8109 4.12602 34.9147C3.95135 35.014 3.78999 35.1349 3.64575 35.2745C3.50521 35.4149 3.40994 35.5939 3.37206 35.7884C3.34456 35.98 3.38667 36.175 3.49083 36.3384C3.60183 36.5098 3.74157 36.6611 3.90396 36.7855C4.06706 36.9132 4.2397 37.0283 4.42038 37.1299C4.22099 37.0534 4.02911 36.9588 3.84716 36.8472C3.65989 36.7321 3.4968 36.582 3.36689 36.4052C3.22795 36.2209 3.16181 35.9923 3.18099 35.7627C3.21424 35.5338 3.31691 35.3204 3.47532 35.1511C3.54797 35.0676 3.62743 34.9903 3.71288 34.9198C3.80079 34.8518 3.89216 34.7884 3.9866 34.7297C4.17177 34.6131 4.36704 34.5133 4.57013 34.4316C4.97389 34.2712 5.3925 34.1507 5.8199 34.0718C6.67194 33.9207 7.5409 33.8879 8.40201 33.9741C8.82916 34.0157 9.25227 34.0913 9.66725 34.2003C10.0859 34.3022 10.4902 34.4558 10.8705 34.6577Z" fill="#F37721"/>
<path d="M5.38611 35.4745C5.46899 35.567 5.56672 35.6451 5.67531 35.7058C5.76195 35.7649 5.85353 35.8164 5.94902 35.86C5.97926 35.8768 6.01266 35.8873 6.04715 35.8908C6.16233 35.8992 6.27796 35.8992 6.39314 35.8908L7.11097 35.8291H7.24008L8.08185 35.752C8.23161 35.752 8.35554 35.752 8.45366 35.752C8.56095 35.7359 8.67054 35.7447 8.77384 35.7777C8.79992 35.8945 8.79992 36.0156 8.77384 36.1324C8.77384 36.2506 8.77384 36.3534 8.77384 36.4356C8.77731 36.5087 8.78945 36.5812 8.80999 36.6515C8.89378 36.8357 9.03031 36.9912 9.20248 37.0986C9.28954 37.1645 9.38737 37.2149 9.49167 37.2477H9.52783C9.55813 37.1612 9.55813 37.0669 9.52783 36.9804C9.47102 36.8519 9.37805 36.8416 9.35223 36.7286V36.6258C9.31608 36.4202 9.27994 35.8137 9.26445 35.788C9.19826 35.6693 9.09488 35.5755 8.97008 35.5207C8.79566 35.4231 8.60166 35.3652 8.40203 35.3511C8.34006 35.3511 8.10766 35.3511 7.71001 35.3922L7.31239 35.4231C7.15481 35.4454 6.99483 35.4454 6.83726 35.4231C6.89783 35.3404 6.97755 35.2734 7.06965 35.2278L7.10581 35.2021C7.21527 35.1281 7.338 35.0758 7.46731 35.0479H7.67386C7.82084 35.0533 7.96742 35.067 8.11283 35.089L8.52597 35.1456H8.56729C8.56729 35.1456 8.59827 34.8886 8.56729 34.8783C8.3679 34.7995 8.15671 34.7544 7.94241 34.7447C7.82363 34.7447 7.426 34.7447 7.34337 34.7447C7.18712 34.729 7.02966 34.729 6.87341 34.7447C6.73125 34.7507 6.59134 34.7821 6.46028 34.8372C6.39583 34.8777 6.33534 34.9242 6.27954 34.9759L6.12976 35.125L5.85607 35.4077L5.7786 35.4591C5.71663 35.5002 5.49456 35.2997 5.41709 35.3203C5.33963 35.3409 5.37578 35.3563 5.38611 35.4745Z" fill="#F37721"/>
<path d="M5.74756 35.346L7.10575 35.8137H7.24003L8.0818 35.7366C8.31061 35.6954 8.54498 35.6954 8.77379 35.7366C8.79987 35.8534 8.79987 35.9745 8.77379 36.0913C8.76628 36.1922 8.76628 36.2936 8.77379 36.3945L9.33153 36.5847C9.28322 36.3567 9.26242 36.1237 9.26956 35.8908L7.6635 35.346H7.52922H7.26584C7.10826 35.3683 6.94832 35.3683 6.79074 35.346C6.79074 35.3083 6.86818 35.2364 7.02311 35.1301L7.05926 35.1044L6.233 34.832L6.08325 34.9811L5.80953 35.2586L5.74756 35.346Z" fill="#F37721"/>
<path d="M5.38623 35.2076C5.46911 35.3001 5.56684 35.3782 5.67543 35.4389C5.76344 35.4973 5.85485 35.5505 5.94914 35.5982C5.9804 35.6116 6.01347 35.6202 6.04727 35.6239C6.16251 35.6304 6.27802 35.6304 6.39326 35.6239L7.11109 35.5571H7.2402L8.08197 35.48C8.23173 35.48 8.35566 35.48 8.45378 35.48C8.55908 35.4555 8.66866 35.4555 8.77396 35.48C8.80004 35.5968 8.80004 35.7179 8.77396 35.8347C8.77396 35.9529 8.77396 36.0557 8.77396 36.1379C8.77647 36.2111 8.78863 36.2837 8.81011 36.3538C8.8939 36.538 9.03043 36.6935 9.2026 36.8009C9.28833 36.8689 9.38657 36.9195 9.49179 36.95H9.52795C9.52795 36.95 9.52795 36.8934 9.47115 36.7958C9.41987 36.6782 9.38007 36.556 9.35235 36.4309V36.3281C9.32079 36.0996 9.32079 35.8678 9.35235 35.6393C9.3498 35.6137 9.3498 35.5879 9.35235 35.5623C9.35853 35.5404 9.35853 35.5173 9.35235 35.4954C9.26043 35.3764 9.13958 35.2827 9.00119 35.223C8.82677 35.1254 8.63276 35.0674 8.43313 35.0534L7.74111 35.0945L7.34349 35.1254C7.18617 35.151 7.02568 35.151 6.86836 35.1254C6.92894 35.0426 7.00866 34.9756 7.10076 34.9301H7.13691C7.245 34.8526 7.36812 34.7983 7.49841 34.7707H7.70496C7.85195 34.7761 7.99853 34.7898 8.14394 34.8119L8.55707 34.8684H8.59839C8.30183 34.7276 7.99223 34.6157 7.67398 34.5343C7.5762 34.5025 7.47607 34.4784 7.37448 34.4623C7.21836 34.4442 7.06063 34.4442 6.90451 34.4623C6.76173 34.4634 6.62085 34.4949 6.49138 34.5549C6.42559 34.5915 6.36485 34.6364 6.31065 34.6885L6.16086 34.8376L5.88718 35.1202L5.8097 35.1768C5.74588 35.2129 5.67835 35.2422 5.60829 35.2641L5.38623 35.2076Z" fill="#F8BE58"/>
<path d="M5.74756 35.084L7.10575 35.5466H7.24003L8.0818 35.4695C8.31061 35.4282 8.54498 35.4282 8.77379 35.4695C8.79987 35.5863 8.79987 35.7073 8.77379 35.8241C8.76628 35.925 8.76628 36.0264 8.77379 36.1274L9.33153 36.3175C9.30258 36.0889 9.30258 35.8575 9.33153 35.6288L7.67897 35.0789H7.5447H7.28132C7.12399 35.1045 6.96354 35.1045 6.80622 35.0789C6.80622 35.0412 6.88369 34.9692 7.03861 34.863H7.07477L6.24847 34.5854L6.09872 34.7345L5.82503 35.0172L5.74756 35.084Z" fill="#FDC87B"/>
<path d="M37.1307 7.28337C36.3871 6.1732 35.5195 6.00873 34.9101 6.0704C32.7101 6.28113 30.4121 10.0794 29.1417 12.5567C28.2637 10.1308 26.5596 6.38906 24.2305 5.63352C23.492 5.40224 22.3559 5.35084 21.132 6.48672C20.7843 6.78963 20.5154 7.1717 20.3482 7.60037C20.1809 8.02904 20.1203 8.49161 20.1714 8.94863C20.3418 10.5162 21.7207 12.2329 24.3803 14.2117C24.6282 14.3967 24.8967 14.5766 25.1187 14.7256C25.9244 15.2859 26.668 15.7536 27.2154 16.0825C27.7628 16.4115 28.0469 16.5605 28.0778 16.5965C28.1938 16.6587 28.3231 16.6922 28.4548 16.6941C28.5675 16.6912 28.6783 16.665 28.7802 16.6171L30.2726 15.9437C30.4224 15.8872 30.7477 15.7639 31.1815 15.5788C31.6618 15.3732 32.266 15.0957 32.9322 14.7411C34.812 13.7491 37.0636 12.1969 37.6317 10.2541C37.7753 9.75302 37.8048 9.22635 37.7182 8.71246C37.6315 8.19856 37.4308 7.71035 37.1307 7.28337ZM21.8291 8.73276C21.8106 8.56933 21.8357 8.40394 21.9019 8.25325C21.9681 8.10256 22.073 7.97189 22.2061 7.87443C22.5055 7.54158 22.9251 7.34017 23.3732 7.31421C23.5015 7.31373 23.6289 7.33458 23.7502 7.37588C25.4596 7.92069 27.1948 11.832 28.021 14.5252C25.3305 12.9319 22.0047 10.3518 21.8291 8.73276ZM36.0308 9.70931C35.5143 11.3591 32.4984 13.1015 30.3501 14.0009C31.729 11.2101 33.7946 7.99264 35.0909 7.87443H35.158C35.2923 7.87443 35.5143 7.93097 35.7984 8.35243C35.94 8.54523 36.0348 8.76815 36.0751 9.00363C36.1155 9.2391 36.1003 9.48068 36.0308 9.70931Z" fill="#7AA3D3"/>
<path d="M35.0601 18.3286H7.74133C7.60022 18.3308 7.46052 18.3569 7.32819 18.4057C7.05696 18.5086 6.82342 18.6909 6.6584 18.9285C6.49337 19.1662 6.40462 19.448 6.40381 19.7369V40.6503C6.40335 40.9824 6.50814 41.3061 6.70331 41.5754C6.82466 41.7339 6.98082 41.8625 7.15985 41.9516C7.33887 42.0407 7.53601 42.0878 7.73616 42.0894H35.0549C35.4262 42.0721 35.7755 41.9095 36.027 41.6371C36.2784 41.3647 36.4116 41.0045 36.3976 40.6349V19.7831C36.4116 19.4143 36.2792 19.0549 36.0288 18.7826C35.7785 18.5104 35.4304 18.3473 35.0601 18.3286Z" fill="#3E3E82"/>
<path d="M40.1466 19.7831V40.6503C40.1461 40.8238 40.1235 40.9965 40.0795 41.1643C40.0396 41.3818 39.9398 41.5839 39.7911 41.7482C39.6425 41.9125 39.4509 42.0324 39.2377 42.0946C39.1896 42.0999 39.1412 42.0999 39.0931 42.0946H17.6254C17.109 42.0175 16.6855 41.3956 16.6855 40.6452V19.7831C16.6855 18.9813 17.1503 18.3286 17.7184 18.3286H39.0776C39.6767 18.3286 40.1466 18.9813 40.1466 19.7831Z" fill="#5D5D9F"/>
<path d="M4.85426 15.6918V20.9651C4.84942 21.0846 4.86828 21.2039 4.9098 21.3161C4.95131 21.4283 5.01467 21.5313 5.09621 21.6191C5.17775 21.707 5.27586 21.7779 5.38499 21.828C5.49412 21.878 5.61208 21.9062 5.73215 21.9108H37.0635C37.1836 21.9062 37.3015 21.878 37.4107 21.828C37.5198 21.7779 37.6179 21.707 37.6995 21.6191C37.781 21.5313 37.8443 21.4283 37.8859 21.3161C37.9274 21.2039 37.9463 21.0846 37.9414 20.9651V15.6918C37.9498 15.4508 37.8623 15.2163 37.6979 15.0392C37.5335 14.8621 37.3055 14.7568 37.0635 14.7461H5.74766C5.62648 14.7494 5.50716 14.7765 5.39656 14.8259C5.28596 14.8753 5.18627 14.946 5.10323 15.0339C5.0202 15.1218 4.95546 15.2252 4.91273 15.3381C4.87 15.451 4.85013 15.5712 4.85426 15.6918Z" fill="#362B63"/>
<path d="M14.7437 15.6918V20.9651C14.7437 21.4791 15.0638 21.9108 15.4563 21.9108H40.9728C41.3652 21.9108 41.6854 21.4894 41.6854 20.9651V15.6918C41.6854 15.1778 41.3652 14.7461 40.9728 14.7461H15.4563C15.0432 14.7461 14.7437 15.1727 14.7437 15.6918Z" fill="#5D5D9F"/>
<path d="M31.1715 14.6279H27.2002V21.916H31.1715V14.6279Z" fill="#7AA3D3"/>
<path d="M31.1764 23.1343V33.8659C30.2764 34.0065 29.4047 34.2894 28.5943 34.7037C27.9848 34.9695 27.498 35.4539 27.231 36.0606V23.1343H31.1764Z" fill="#7AA3D3"/>
<path d="M12.8071 14.7461H10.0391V21.9108H12.8071V14.7461Z" fill="#5E85BC"/>
<path d="M12.8071 23.1343H10.0391V42.1049H12.8071V23.1343Z" fill="#5E85BC"/>
<path d="M31.1715 21.9111H27.2002V23.1344H31.1715V21.9111Z" fill="#5E85BC"/>
<path d="M12.8071 21.9111H10.0391V23.1344H12.8071V21.9111Z" fill="#4173AF"/>
<path d="M31.1764 33.8662V42.0897H27.2051V36.0609C27.4722 35.4542 27.9589 34.9698 28.5684 34.704C29.3869 34.287 30.2675 34.0041 31.1764 33.8662Z" fill="#4173AF"/>
<path d="M27.1379 36.4563C27.1371 36.3215 27.1598 36.1876 27.205 36.0605V42.11H19.9338C19.6844 41.9777 19.4713 41.7868 19.3129 41.554C19.1545 41.3211 19.0556 41.0532 19.0249 40.7736V39.2009C19.025 39.1126 19.0354 39.0247 19.0559 38.9388C19.0559 38.3323 19.5723 37.7823 20.3728 37.3506C21.7668 36.7118 23.2903 36.4023 24.8243 36.446C25.0774 36.446 25.3407 36.446 25.5628 36.446H25.7539C25.9295 36.446 26.105 36.4717 26.2703 36.4923H26.482L26.9675 36.5642H27.1069C27.1022 36.5044 27.1022 36.4442 27.1069 36.3844L27.1379 36.4563Z" fill="#3E3E82"/>
<path d="M43.5291 32.9667V34.5086C43.5291 35.1562 42.9507 35.7473 41.9798 36.1893C41.4408 36.4316 40.8761 36.6126 40.2963 36.729L40.1259 36.7649V38.2092C40.1269 38.3063 40.1148 38.4031 40.0897 38.497C40.0897 38.5381 40.0897 38.5741 40.0897 38.6152C40.1119 38.7062 40.124 38.7992 40.1259 38.8928C40.1313 38.9251 40.1313 38.9581 40.1259 38.9904C40.1312 39.0434 40.1312 39.0968 40.1259 39.1498V40.7174C40.127 40.8586 40.0989 40.9986 40.0433 41.1285C39.8649 41.5171 39.5712 41.8418 39.2015 42.0588C39.1535 42.0641 39.105 42.0641 39.0569 42.0588H31.1401V33.8353C31.4087 33.7839 31.6876 33.7428 31.9716 33.712V32.684C31.9716 32.0827 32.488 31.5327 33.2936 31.1061L33.4176 31.0393C33.5985 30.9494 33.7848 30.8705 33.9753 30.8029L34.1251 30.7515C34.3179 30.6864 34.5193 30.6247 34.7293 30.5665H34.7706C34.9668 30.5151 35.1682 30.474 35.38 30.4328L35.5607 30.402C35.7208 30.3712 35.8809 30.3506 36.0461 30.3249L36.2579 30.2992H36.3509L36.7795 30.2632H36.9654C37.2081 30.2632 37.4508 30.2375 37.7039 30.2375C38.5065 30.2327 39.3076 30.3085 40.0949 30.4637C40.8444 30.6013 41.5687 30.8508 42.2432 31.2038C42.992 31.6252 43.4465 32.1495 43.4465 32.72C43.4834 32.7988 43.5111 32.8816 43.5291 32.9667Z" fill="#3E3E82"/>
<path d="M26.2087 36.7082C27.2041 36.7023 28.1963 36.8198 29.1626 37.0577C29.6369 37.1798 30.0972 37.3503 30.5363 37.5666C31.44 38.0086 31.9874 38.5945 31.9874 39.2164V40.7891C31.9874 42.1666 29.4053 43.2767 26.219 43.2767C25.4324 43.2793 24.6472 43.207 23.8744 43.0609L23.6782 43.0198C23.0949 42.9018 22.5267 42.719 21.9843 42.475C21.0341 42.0329 20.4351 41.447 20.4351 40.7891V39.2164C20.4402 37.8184 23.0223 36.7082 26.2087 36.7082Z" fill="#F37721"/>
<path d="M30.5358 37.5664C31.4396 38.0033 31.987 38.5943 31.987 39.2162C31.987 40.5937 29.4049 41.709 26.2186 41.709C24.7661 41.7411 23.3231 41.4679 21.9839 40.9072L22.6914 40.6348L29.8283 37.844L30.5358 37.5664Z" fill="#FCC37F"/>
<path d="M26.2085 36.7033C27.6971 36.673 29.1743 36.9677 30.5361 37.5668L29.8286 37.8443C28.6913 37.3443 27.4565 37.102 26.2136 37.135C23.554 37.135 21.3954 38.0704 21.3954 39.2166C21.3954 39.7665 21.9118 40.2445 22.6865 40.6352L21.979 40.9076C21.0236 40.4655 20.4297 39.8796 20.4297 39.2166C20.44 37.8186 23.0221 36.7033 26.2085 36.7033Z" fill="#F2B458"/>
<path d="M26.2086 37.1142C27.4509 37.0821 28.685 37.3225 29.8235 37.8183C30.5775 38.1884 31.032 38.6715 31.032 39.1958C31.032 40.347 28.8733 41.2773 26.2137 41.2773C25.0044 41.3036 23.803 41.0777 22.6866 40.6143C21.8861 40.2391 21.3955 39.7457 21.3955 39.1958C21.3904 38.0496 23.549 37.1142 26.2086 37.1142Z" fill="#EEAB1F"/>
<path d="M29.8184 37.8801C29.3797 37.7145 28.9268 37.589 28.4653 37.5049C28.0048 37.4192 27.5389 37.3642 27.071 37.3405C26.6048 37.3148 26.1376 37.3148 25.6715 37.3405C25.2066 37.3634 24.7441 37.4201 24.2875 37.5101C23.831 37.5893 23.3832 37.7115 22.9499 37.875C22.7379 37.957 22.5325 38.0549 22.3354 38.168C22.1449 38.2763 21.971 38.4113 21.819 38.5689C21.6623 38.7161 21.5557 38.9083 21.5143 39.1188C21.4825 39.3315 21.5283 39.5485 21.6434 39.7304C21.7641 39.928 21.9198 40.1021 22.103 40.2444C22.2898 40.3877 22.4885 40.5149 22.6969 40.6247C22.4738 40.5411 22.2593 40.4361 22.0565 40.3112C21.8566 40.1803 21.6818 40.015 21.5401 39.823C21.386 39.6181 21.3141 39.3633 21.3387 39.1085C21.3736 38.8542 21.4873 38.617 21.6641 38.4301C21.7444 38.3354 21.8344 38.2493 21.9326 38.1731C22.0269 38.0954 22.127 38.0249 22.2321 37.9624C22.4392 37.8345 22.6569 37.7244 22.8828 37.6334C23.3287 37.4517 23.7926 37.3173 24.2668 37.2325C25.2104 37.0606 26.1739 37.0243 27.1278 37.1246C27.6022 37.1697 28.0721 37.254 28.5325 37.3765C28.9803 37.4912 29.4121 37.6603 29.8184 37.8801Z" fill="#F37721"/>
<path d="M26.2395 36.4411C27.2349 36.4353 28.2272 36.5527 29.1935 36.7906C29.6627 36.909 30.1193 37.0726 30.5568 37.2789C31.4605 37.7209 32.0079 38.3068 32.0079 38.9339V40.4758C32.0079 41.8532 29.4258 42.9634 26.2395 42.9634C25.4546 42.9659 24.6712 42.8936 23.9001 42.7475L23.6987 42.7064C23.1148 42.5908 22.5463 42.408 22.0048 42.1616C21.0546 41.7196 20.4556 41.1337 20.4556 40.4758V38.9339C20.4711 37.5667 23.0532 36.4411 26.2395 36.4411Z" fill="#F37721"/>
<path d="M30.5358 37.2788C31.4396 37.7208 31.987 38.3067 31.987 38.9338C31.987 40.3061 29.4049 41.4214 26.2186 41.4214C24.7666 41.4532 23.324 41.1818 21.9839 40.6248L22.6914 40.3472L29.8335 37.5564L30.5358 37.2788Z" fill="#FCC37F"/>
<path d="M26.2395 36.4411C27.7227 36.4044 29.1961 36.6903 30.5568 37.2789L29.8545 37.5565C28.7155 37.0621 27.4817 36.8217 26.2395 36.8523C23.5799 36.8523 21.4213 37.7826 21.4213 38.9339C21.4213 39.4787 21.9119 39.9618 22.7123 40.3473L22.0048 40.6248C21.0546 40.1777 20.4556 39.5969 20.4556 38.9339C20.4711 37.5667 23.0532 36.4411 26.2395 36.4411Z" fill="#F2B458"/>
<path d="M26.2396 36.8522C27.4818 36.8216 28.7156 37.062 29.8546 37.5564C30.6034 37.9213 31.0578 38.4044 31.0578 38.9338C31.0578 40.0799 28.8992 40.9897 26.2396 40.9897C25.0301 41.0185 23.8281 40.7926 22.7124 40.3266C21.912 39.9566 21.4214 39.458 21.4214 38.9132C21.4214 37.7825 23.58 36.8522 26.2396 36.8522Z" fill="#EEAB1F"/>
<path d="M29.8545 37.6181C29.4148 37.4491 28.96 37.3218 28.4963 37.2378C28.0356 37.1537 27.5698 37.1005 27.102 37.0784C26.6358 37.0527 26.1686 37.0527 25.7025 37.0784C25.2381 37.1064 24.7758 37.1631 24.3185 37.248C23.8638 37.3279 23.4178 37.4501 22.9861 37.613C22.7719 37.6939 22.5647 37.7919 22.3664 37.9059C22.1769 38.0159 22.0032 38.1507 21.85 38.3068C21.6954 38.4556 21.5892 38.6472 21.5453 38.8568C21.5126 39.0702 21.5604 39.288 21.6795 39.4684C21.797 39.6683 21.9532 39.8431 22.1391 39.9824C22.3242 40.1255 22.5212 40.2528 22.7279 40.3627C22.5038 40.2812 22.2892 40.1761 22.0875 40.0492C21.8863 39.9199 21.7111 39.7543 21.5711 39.5609C21.4151 39.3568 21.3414 39.1019 21.3645 38.8465C21.4017 38.5928 21.5151 38.3563 21.6899 38.1681C21.7729 38.0759 21.8627 37.99 21.9584 37.9111C22.0536 37.8345 22.1537 37.7642 22.2579 37.7003C22.4656 37.5735 22.6832 37.4634 22.9086 37.3714C23.3555 37.1927 23.8191 37.0584 24.2926 36.9705C25.2365 36.8012 26.1996 36.7648 27.1536 36.8626C27.6297 36.9082 28.1012 36.9924 28.5634 37.1144C29.0124 37.2305 29.4458 37.3996 29.8545 37.6181Z" fill="#F37721"/>
<path d="M23.766 38.5225C23.8571 38.6258 23.9654 38.7127 24.0862 38.7795C24.1827 38.846 24.2846 38.9044 24.3908 38.9542C24.4247 38.9714 24.4615 38.9818 24.4993 38.9851C24.6283 38.9935 24.7576 38.9935 24.8866 38.9851C25.0725 38.9851 25.3359 38.9491 25.6768 38.9131H25.8265L26.7612 38.8257C26.9213 38.8257 27.0607 38.8257 27.1692 38.8257C27.2867 38.8013 27.408 38.8013 27.5255 38.8257C27.5513 38.8257 27.5565 38.9748 27.5255 39.2215C27.5255 39.3551 27.5255 39.4682 27.5255 39.5607C27.5259 39.6408 27.538 39.7205 27.5617 39.7971C27.65 40.0102 27.8036 40.19 28.0007 40.3111C28.0945 40.3849 28.2013 40.4406 28.3157 40.4756H28.357C28.393 40.3794 28.393 40.2736 28.357 40.1775C28.295 40.0335 28.1917 40.0284 28.1659 39.8999C28.1659 39.8639 28.1659 39.828 28.1659 39.7868C28.1297 39.5556 28.0884 38.8823 28.0729 38.8566C27.9968 38.7252 27.8812 38.621 27.7424 38.5585C27.5491 38.4495 27.3339 38.3845 27.1124 38.3683H27.0814C27.0143 38.3683 26.7561 38.3683 26.3119 38.4145L25.8781 38.4454C25.7068 38.4695 25.533 38.4695 25.3617 38.4454C25.3617 38.4454 25.465 38.3272 25.6199 38.2244L25.6612 38.1987C25.7826 38.1156 25.9197 38.0579 26.0641 38.0291C26.1397 38.0237 26.2157 38.0237 26.2913 38.0291C26.4642 38.0307 26.6368 38.0444 26.8077 38.0702L27.2621 38.1319H27.3035C27.3035 38.1319 27.3396 37.8492 27.3035 37.8338C27.0797 37.7501 26.8448 37.6999 26.6063 37.6847C26.4772 37.6847 26.0589 37.6847 25.9453 37.6847C25.7737 37.6643 25.6004 37.6643 25.4289 37.6847C25.2703 37.6881 25.114 37.723 24.9692 37.7875C24.8959 37.8282 24.8282 37.8784 24.7678 37.9366L24.6026 38.101L24.2979 38.4145L24.2101 38.4762C24.1481 38.5173 23.8951 38.2963 23.8124 38.322C23.7298 38.3477 23.7557 38.394 23.766 38.5225Z" fill="#F37721"/>
<path d="M24.1636 38.3837L25.6767 38.8977H25.8265L26.7612 38.8104C27.014 38.766 27.2727 38.766 27.5255 38.8104C27.5513 38.8104 27.5565 38.9594 27.5255 39.2061C27.5255 39.3397 27.5255 39.4528 27.5255 39.5453L28.1452 39.7561C28.0927 39.5026 28.0701 39.2438 28.0781 38.9851L26.2913 38.3837H26.1466H25.8575C25.6858 38.4028 25.5126 38.4028 25.341 38.3837C25.341 38.3426 25.4082 38.2604 25.5992 38.137L25.6406 38.1113L24.7213 37.8081L24.5561 37.9726L24.2514 38.2861L24.1636 38.3837Z" fill="#F37721"/>
<path d="M23.7656 38.2297C23.8576 38.3307 23.9658 38.4158 24.0858 38.4816C24.1823 38.5481 24.2842 38.6065 24.3905 38.6563C24.4242 38.6746 24.4609 38.6868 24.4989 38.6923C24.5712 38.6923 24.7003 38.6923 24.8863 38.6923L25.6764 38.6203H25.8261C26.2393 38.5741 26.5491 38.5484 26.7609 38.533C26.9726 38.5176 27.0604 38.533 27.1688 38.5073C27.2884 38.4917 27.41 38.5022 27.5252 38.5381C27.551 38.5381 27.5561 38.6872 27.5252 38.9287C27.5252 39.0624 27.5252 39.1754 27.5252 39.268C27.5256 39.3498 27.5378 39.4311 27.5613 39.5095C27.6508 39.7218 27.8042 39.9014 28.0003 40.0235C28.0928 40.0994 28.2 40.1554 28.3153 40.188H28.3566C28.3566 40.188 28.3566 40.1263 28.2946 40.0183C28.2383 39.8893 28.195 39.755 28.1655 39.6174C28.1655 39.5763 28.1655 39.5404 28.1655 39.4992C28.134 39.2449 28.134 38.9877 28.1655 38.7334C28.1655 38.7077 28.1655 38.682 28.1655 38.6512C28.1719 38.6276 28.1719 38.6028 28.1655 38.5792C28.063 38.4463 27.9279 38.3419 27.7731 38.276C27.58 38.1656 27.3649 38.0989 27.143 38.0807H27.112C27.0449 38.0807 26.7867 38.0807 26.3426 38.1269L25.9088 38.1578C25.7371 38.1768 25.5639 38.1768 25.3923 38.1578V38.1321C25.3923 38.0858 25.4956 38.0139 25.6505 37.9111H25.6919C25.812 37.8248 25.9494 37.7651 26.0947 37.7363H26.3219C26.4949 37.74 26.6675 37.7554 26.8383 37.7826L27.2928 37.8443H27.3289C26.9975 37.6878 26.6516 37.5638 26.2961 37.4742C26.1886 37.4382 26.0779 37.4124 25.9656 37.3971C25.7941 37.3767 25.6207 37.3767 25.4492 37.3971C25.2906 37.4005 25.1343 37.4354 24.9895 37.4999C24.9176 37.5447 24.8501 37.5964 24.7881 37.6541L24.6229 37.8186L24.3182 38.1269C24.2934 38.1532 24.2635 38.1742 24.2304 38.1886C24.1624 38.2334 24.0874 38.2664 24.0083 38.2863L23.7656 38.2297Z" fill="#F8BE58"/>
<path d="M24.1636 38.0805L25.6767 38.5944H25.8265C26.2396 38.5482 26.5495 38.5225 26.7612 38.5071C27.0137 38.4597 27.2729 38.4597 27.5255 38.5071C27.5513 38.5071 27.5565 38.6561 27.5255 38.8977C27.5255 39.0313 27.5255 39.1444 27.5255 39.2369L28.1452 39.4476C28.1161 39.1932 28.1161 38.9363 28.1452 38.6818L26.3119 38.0753H26.1673H25.8781C25.7065 38.0944 25.5333 38.0944 25.3617 38.0753C25.3617 38.0342 25.4288 37.952 25.6199 37.8286H25.6612L24.742 37.5254L24.5767 37.6898L24.272 37.9982C24.2418 38.0326 24.2049 38.0606 24.1636 38.0805Z" fill="#FDC87B"/>
<path d="M35.8295 36.7082C34.8392 36.7023 33.8521 36.8198 32.8911 37.0577C32.4227 37.1713 31.9675 37.3332 31.5329 37.5409C30.6292 37.9829 30.0869 38.5688 30.0869 39.1856V40.7532C30.0869 42.1203 32.669 43.2254 35.8295 43.2254C36.6126 43.2295 37.3942 43.1589 38.1638 43.0146L38.36 42.9735C38.9404 42.8654 39.5068 42.693 40.0487 42.4595C40.9937 42.0175 41.598 41.4316 41.598 40.7789V39.2113C41.5773 37.8184 39.0055 36.7082 35.8295 36.7082Z" fill="#E06817"/>
<path d="M31.5329 37.5664C30.6343 38.0033 30.0869 38.5944 30.0869 39.2111C30.0869 40.5834 32.669 41.6936 35.8295 41.6936C37.2767 41.728 38.7147 41.4564 40.0487 40.8969L39.3464 40.6245L32.2352 37.844L31.5329 37.5664Z" fill="#E06817"/>
<path d="M35.8294 36.7084C34.3532 36.6706 32.8867 36.9548 31.5327 37.5411L32.235 37.8186C33.3731 37.3215 34.6076 37.081 35.85 37.1145C38.4992 37.1145 40.6476 38.0447 40.6476 39.1703C40.6476 39.7151 40.1621 40.1983 39.3668 40.5838L40.0692 40.8562C41.0194 40.4141 41.6185 39.8282 41.6185 39.1703C41.5771 37.8186 39.0053 36.7084 35.8294 36.7084Z" fill="#E06817"/>
<path d="M35.8295 37.1144C34.587 37.081 33.3526 37.3214 32.2145 37.8185C31.4657 38.1834 31.0112 38.6614 31.0112 39.1857C31.0112 40.3318 33.1596 41.2416 35.8088 41.2416C37.0144 41.2689 38.2123 41.0448 39.3256 40.5837C40.1209 40.2136 40.6064 39.7151 40.6064 39.1703C40.627 38.0447 38.4787 37.1144 35.8295 37.1144Z" fill="#E06817"/>
<path d="M32.2349 37.8802C32.6708 37.7105 33.1222 37.5832 33.5827 37.4998C34.0421 37.4186 34.506 37.3654 34.9719 37.3405C35.4363 37.3122 35.9019 37.3122 36.3662 37.3405C36.829 37.3646 37.2897 37.4195 37.7451 37.505C38.1982 37.5843 38.6426 37.7065 39.0723 37.8699C39.2865 37.9508 39.4937 38.0488 39.692 38.1629C39.8819 38.2721 40.0557 38.407 40.2084 38.5638C40.3642 38.7096 40.4707 38.8999 40.5131 39.1086C40.5435 39.3202 40.4958 39.5357 40.3789 39.715C40.26 39.9124 40.106 40.0866 39.9244 40.229C39.7386 40.3711 39.5417 40.4983 39.3357 40.6094C39.5572 40.5258 39.77 40.4208 39.9709 40.2958C40.1719 40.1684 40.3471 40.0045 40.4873 39.8127C40.6388 39.6065 40.7103 39.3528 40.6887 39.0983C40.6533 38.8467 40.5416 38.6118 40.3685 38.425C40.2868 38.3316 40.197 38.2456 40.1 38.168C40.0048 38.0915 39.9047 38.0211 39.8005 37.9573C39.5946 37.8304 39.3787 37.7204 39.1549 37.6283C38.7096 37.4512 38.2478 37.3187 37.7761 37.2326C36.836 37.0615 35.8763 37.0235 34.9254 37.1195C34.4531 37.1676 33.9852 37.2518 33.5259 37.3713C33.076 37.487 32.6424 37.6579 32.2349 37.8802Z" fill="#E06817"/>
<path d="M35.7983 36.4411C34.8063 36.4356 33.8175 36.553 32.8547 36.7906C32.3873 36.9098 31.9325 37.0733 31.4965 37.2789C30.5979 37.7158 30.0557 38.3068 30.0557 38.9236V40.4655C30.0557 41.8378 32.6378 42.9428 35.7983 42.9428C36.5815 42.9454 37.3632 42.8731 38.1325 42.727L38.3288 42.691C38.9098 42.5706 39.476 42.388 40.0174 42.1462C40.9625 41.7042 41.5409 41.1182 41.5667 40.4655V38.9236C41.546 37.5667 38.9743 36.4411 35.7983 36.4411Z" fill="#E06817"/>
<path d="M31.4965 37.2788C30.5979 37.7157 30.0557 38.3068 30.0557 38.9235C30.0557 40.2907 32.6378 41.406 35.7983 41.406C37.2452 41.4376 38.6827 41.1662 40.0174 40.6093L39.3151 40.3318L32.204 37.5666L31.4965 37.2788Z" fill="#E06817"/>
<path d="M35.7984 36.441C34.3203 36.4052 32.8521 36.6911 31.4966 37.2788L32.2041 37.5512C33.3426 37.056 34.577 36.8173 35.819 36.8522C38.4683 36.8522 40.6166 37.7773 40.6166 38.908C40.6166 39.4528 40.1312 39.936 39.3359 40.3163L40.0382 40.5939C40.9884 40.1519 41.5875 39.5659 41.5875 38.908C41.5462 37.5666 38.9744 36.441 35.7984 36.441Z" fill="#E06817"/>
<path d="M35.7982 36.852C34.5562 36.8171 33.3218 37.0558 32.1833 37.551C31.4344 37.9159 30.98 38.399 30.98 38.9233C30.98 40.0694 33.1283 40.9792 35.7776 40.9792C36.9835 41.0051 38.1815 40.7792 39.2944 40.3161C40.0897 39.9461 40.5751 39.4527 40.5751 38.9079C40.5958 37.7771 38.4475 36.852 35.7982 36.852Z" fill="#E06817"/>
<path d="M32.2041 37.6126C32.64 37.444 33.0915 37.3183 33.552 37.2374C34.0109 37.1519 34.4749 37.097 34.9412 37.0729C35.4059 37.0729 35.8707 37.0729 36.3355 37.0729C36.7983 37.097 37.259 37.1519 37.7143 37.2374C38.1674 37.319 38.6118 37.4429 39.0415 37.6075C39.2539 37.6867 39.4594 37.7829 39.6561 37.8953C39.8455 38.0052 40.0192 38.1401 40.1725 38.2962C40.3263 38.4456 40.4324 38.6369 40.4772 38.8461C40.5071 39.0578 40.4595 39.2731 40.3429 39.4526C40.2241 39.6515 40.068 39.826 39.8833 39.9666C39.7001 40.1098 39.5049 40.2371 39.2997 40.3469C39.5217 40.2643 39.7346 40.1593 39.935 40.0334C40.1371 39.9074 40.3126 39.7433 40.4514 39.5503C40.6043 39.3467 40.6761 39.0941 40.6528 38.841C40.6184 38.5876 40.5066 38.3507 40.3326 38.1625C40.2495 38.0704 40.1598 37.9845 40.0641 37.9056C39.9688 37.829 39.8688 37.7587 39.7645 37.6948C39.5586 37.568 39.3428 37.458 39.119 37.3659C38.6735 37.1895 38.2117 37.057 37.7402 36.9701C36.7995 36.8034 35.8402 36.7671 34.8895 36.8622C34.4168 36.9073 33.9487 36.9916 33.49 37.114C33.0423 37.2267 32.6104 37.3942 32.2041 37.6126Z" fill="#E06817"/>
<path d="M38.2823 38.2191C38.1996 38.2191 37.9518 38.4196 37.8846 38.3784L37.802 38.3168L37.4973 38.0033L37.332 37.8388C37.2718 37.7826 37.2061 37.7327 37.1358 37.6897C36.9909 37.6258 36.8347 37.5909 36.6762 37.5869C36.5047 37.5661 36.3313 37.5661 36.1598 37.5869C36.041 37.5869 35.6433 37.5869 35.4936 37.5869C35.2568 37.5989 35.0234 37.6475 34.8016 37.7309C34.7654 37.7309 34.8016 38.0187 34.8016 38.0289H34.8429L35.2973 37.9673C35.4598 37.9427 35.6237 37.929 35.7879 37.9262C35.8619 37.9209 35.9361 37.9209 36.01 37.9262C36.1544 37.955 36.2915 38.0127 36.4128 38.0958L36.449 38.1215C36.5514 38.1736 36.6413 38.2473 36.7124 38.3373V38.363C36.5411 38.3871 36.3672 38.3871 36.1959 38.363L35.7621 38.3271L34.9978 38.2808H34.9669C34.7453 38.2971 34.5301 38.362 34.3368 38.471C34.2003 38.5349 34.0868 38.639 34.0115 38.7691C34.0115 38.7948 33.9547 39.4629 33.9185 39.6942C33.9185 39.7302 33.9185 39.7713 33.9185 39.8073C33.8927 39.9306 33.7894 39.9409 33.7274 40.0848C33.6944 40.1797 33.6944 40.2829 33.7274 40.3778H33.7688C33.8831 40.3429 33.9899 40.2871 34.0838 40.2133C34.2773 40.0896 34.4286 39.9104 34.5176 39.6993C34.5429 39.623 34.5568 39.5433 34.5589 39.4629C34.5589 39.3704 34.5589 39.2573 34.5589 39.1237C34.5589 38.8821 34.5589 38.7485 34.5589 38.7331C34.674 38.6972 34.7956 38.6867 34.9152 38.7022C35.0236 38.7022 35.1631 38.7023 35.3232 38.728L36.2527 38.8102H36.4025L37.1875 38.8873H37.5748L37.6832 38.8513C37.7877 38.8012 37.8878 38.7428 37.9827 38.6766C38.1039 38.6125 38.2123 38.5272 38.3029 38.4247C38.2823 38.3836 38.3184 38.2345 38.2823 38.2191Z" fill="#E06817"/>
<path d="M37.8643 38.3785L36.3615 38.8925H36.2117C35.8037 38.8463 35.4887 38.8206 35.2822 38.8052C35.0296 38.7578 34.7704 38.7578 34.5179 38.8052C34.4917 38.9341 34.4917 39.0669 34.5179 39.1958C34.5254 39.3087 34.5254 39.422 34.5179 39.535L33.9033 39.7457C33.9559 39.4922 33.9784 39.2335 33.9705 38.9748L35.747 38.3734H35.8967L36.1859 38.3991C36.3571 38.4244 36.5311 38.4244 36.7023 38.3991C36.7023 38.358 36.6352 38.2809 36.4441 38.1575L36.408 38.1319L37.322 37.8286L37.4873 37.9931L37.792 38.3066L37.8643 38.3785Z" fill="#E06817"/>
<path d="M38.0862 38.178C38.0075 38.1571 37.9326 38.1242 37.8641 38.0803C37.8334 38.0645 37.8055 38.0436 37.7815 38.0187L37.4768 37.7103L37.3116 37.5458C37.2528 37.488 37.1868 37.4379 37.1153 37.3968C36.9712 37.3305 36.8145 37.2954 36.6557 37.294C36.4842 37.2731 36.3108 37.2731 36.1393 37.294C36.0257 37.3095 35.9135 37.3335 35.8036 37.3659C35.4481 37.4558 35.1022 37.5797 34.7708 37.736H34.8121L35.2665 37.6743C35.4524 37.6486 35.6177 37.6332 35.7571 37.628C35.831 37.6226 35.9053 37.6226 35.9792 37.628C36.125 37.6521 36.2631 37.7102 36.382 37.7977L36.4182 37.8234C36.58 37.9193 36.6678 37.9913 36.6815 38.0392V38.0649C36.5099 38.084 36.3367 38.084 36.1651 38.0649L35.7313 38.0341C35.2872 37.9981 35.0342 37.9878 34.967 37.9878H34.936C34.7149 38.0065 34.5003 38.0713 34.306 38.178C34.1542 38.2465 34.0213 38.3505 33.9187 38.4812C33.9116 38.5065 33.9116 38.5331 33.9187 38.5583C33.9187 38.584 33.9187 38.6149 33.9187 38.6406C33.9502 38.8932 33.9502 39.1487 33.9187 39.4012C33.9187 39.4424 33.9187 39.4783 33.9187 39.5195C33.8892 39.6554 33.8459 39.788 33.7896 39.9152C33.7328 40.0283 33.7173 40.0848 33.7276 40.09H33.7689C33.8832 40.055 33.9901 39.9993 34.0839 39.9255C34.2781 39.8026 34.4296 39.6231 34.5177 39.4115C34.5436 39.3353 34.5575 39.2555 34.559 39.1751C34.559 39.0826 34.559 38.9695 34.559 38.841C34.559 38.5943 34.559 38.4658 34.559 38.4453C34.6748 38.4123 34.7961 38.4036 34.9154 38.4196C35.0238 38.4196 35.1633 38.4196 35.3234 38.4196L36.2529 38.5069H36.4027L37.1876 38.5789C37.3166 38.5873 37.446 38.5873 37.5749 38.5789C37.6128 38.5757 37.6496 38.5652 37.6834 38.5481C37.7868 38.496 37.8868 38.4376 37.9829 38.3733C38.1059 38.3099 38.2148 38.2225 38.3031 38.1163L38.0862 38.178Z" fill="#E06817"/>
<path d="M37.8643 38.0808L36.3615 38.5947H36.2117L35.2822 38.5073C35.0293 38.463 34.7707 38.463 34.5179 38.5073C34.4921 38.638 34.4921 38.7724 34.5179 38.9031C34.5254 39.0143 34.5254 39.1259 34.5179 39.2372L33.9033 39.4479C33.9349 39.1953 33.9349 38.9398 33.9033 38.6872L35.7314 38.0808H35.8812H36.1704C36.3419 38.1007 36.5153 38.1007 36.6868 38.0808C36.6868 38.0396 36.6197 37.9574 36.4286 37.8392L36.3925 37.8135L37.3065 37.5103L37.4718 37.6747L37.7765 37.9831C37.7985 38.0214 37.8284 38.0547 37.8643 38.0808Z" fill="#E06817"/>
<path d="M35.0188 33.9685C36.1414 33.9614 37.2604 34.0943 38.3497 34.3643C38.8833 34.4955 39.4024 34.6798 39.899 34.9142C40.9318 35.4282 41.5309 36.0655 41.5309 36.7748V38.548C41.5309 40.0899 38.6131 41.3491 35.0291 41.3491C34.1437 41.354 33.2599 41.2731 32.3902 41.1076L32.163 41.0665C31.505 40.9323 30.8641 40.7254 30.2522 40.4497C29.1832 39.9357 28.5274 39.283 28.5274 38.548V36.7748C28.517 35.2072 31.4245 33.9685 35.0188 33.9685Z" fill="#F37721"/>
<path d="M39.8887 34.894C40.9215 35.408 41.5206 36.0402 41.5206 36.7546C41.5206 38.2965 38.6079 39.566 35.0188 39.566C33.3823 39.6047 31.7561 39.2982 30.2471 38.6666L31.0372 38.3531L39.0934 35.2076L39.8887 34.894Z" fill="#FCC37F"/>
<path d="M35.0188 33.9688C36.6919 33.9279 38.3538 34.2507 39.8887 34.9145L39.0934 35.228C37.8101 34.6692 36.4192 34.3972 35.0188 34.4313C32.0184 34.4313 29.5861 35.4593 29.5861 36.775C29.5861 37.3918 30.1386 37.952 31.0372 38.3735L30.2471 38.687C29.1729 38.173 28.5171 37.5152 28.5171 36.775C28.5171 35.2074 31.4245 33.9688 35.0188 33.9688Z" fill="#F2B458"/>
<path d="M35.0187 34.4106C36.4191 34.3764 37.81 34.6484 39.0933 35.2072C39.9351 35.6184 40.4463 36.1632 40.4463 36.7491C40.4463 38.0495 38.0191 39.098 35.0187 39.098C33.6549 39.1293 32.2999 38.8735 31.0423 38.3476C30.1385 37.9261 29.5859 37.3659 29.5859 36.7491C29.5859 35.4591 32.0183 34.4106 35.0187 34.4106Z" fill="#EEAB1F"/>
<path d="M39.0933 35.2742C38.5915 35.0838 38.0728 34.941 37.544 34.8476C37.0322 34.7532 36.5147 34.6931 35.9948 34.6678C35.4685 34.6369 34.9408 34.6369 34.4145 34.6678C33.8945 34.6977 33.377 34.7612 32.8652 34.8579C32.3501 34.9471 31.845 35.0865 31.3573 35.2742C31.1174 35.3654 30.8844 35.4737 30.6601 35.5981C30.4394 35.7212 30.2377 35.8752 30.0611 36.0555C29.8866 36.2214 29.7676 36.4368 29.7202 36.6722C29.6855 36.9116 29.7367 37.1555 29.8648 37.361C30.0019 37.5784 30.1768 37.7699 30.3813 37.9263C30.5904 38.0851 30.8113 38.2277 31.0423 38.3529C30.7913 38.2597 30.5508 38.1409 30.3245 37.9983C30.0915 37.8547 29.8867 37.6701 29.7202 37.4535C29.548 37.2211 29.4672 36.9341 29.493 36.6465C29.5332 36.3598 29.6613 36.0924 29.8597 35.8807C29.9517 35.7754 30.0518 35.6775 30.1592 35.5878C30.2686 35.5031 30.3824 35.4242 30.5 35.3513C30.7336 35.2077 30.9789 35.0839 31.2333 34.9813C31.7337 34.7805 32.2526 34.6291 32.7826 34.529C33.8472 34.3365 34.9339 34.295 36.0102 34.4056C36.5452 34.459 37.0753 34.5535 37.5957 34.6883C38.1169 34.8226 38.6198 35.0193 39.0933 35.2742Z" fill="#F37721"/>
<path d="M35.0549 33.6502C36.1775 33.643 37.2965 33.7759 38.3859 34.0459C38.9195 34.1772 39.4385 34.3614 39.9351 34.5959C40.968 35.1098 41.567 35.742 41.567 36.4564V38.2296C41.567 39.7716 38.6492 41.0308 35.0653 41.0308C34.18 41.0331 33.2964 40.9522 32.4263 40.7892L32.1991 40.7429C31.5407 40.6128 30.8996 40.4075 30.2884 40.1313C29.2194 39.6174 28.5635 38.9646 28.5635 38.2296V36.4564C28.5532 34.9043 31.4606 33.6502 35.0549 33.6502Z" fill="#F37721"/>
<path d="M39.9248 34.5957C40.9576 35.1097 41.5567 35.7419 41.5567 36.4563C41.5567 37.9982 38.6441 39.2677 35.0549 39.2677C33.418 39.3049 31.7918 38.9966 30.2832 38.3631L31.0733 38.0547L39.1243 34.9041L39.9248 34.5957Z" fill="#FCC37F"/>
<path d="M35.0545 33.6499C36.7276 33.6091 38.3895 33.9318 39.9244 34.5956L39.1239 34.904C37.8414 34.3489 36.4527 34.0788 35.0545 34.1125C32.0541 34.1125 29.6217 35.1404 29.6217 36.4562C29.6217 37.073 30.1743 37.6332 31.0729 38.0547L30.2828 38.363C29.2034 37.8491 28.5527 37.1912 28.5527 36.4562C28.5527 34.904 31.4602 33.6499 35.0545 33.6499Z" fill="#F2B458"/>
<path d="M35.0548 34.1127C36.453 34.079 37.8417 34.3491 39.1243 34.9042C39.9712 35.3205 40.4824 35.8602 40.4824 36.4461C40.4824 37.7413 38.0553 38.7898 35.0548 38.7898C33.6916 38.8201 32.3371 38.5662 31.0784 38.0445C30.1746 37.6231 29.6221 37.0629 29.6221 36.4461C29.6221 35.1612 32.0544 34.1127 35.0548 34.1127Z" fill="#EEAB1F"/>
<path d="M39.1242 34.9966C38.6227 34.8052 38.1039 34.6624 37.5749 34.57C37.0629 34.4763 36.5454 34.4145 36.0257 34.385C35.4993 34.3567 34.9718 34.3567 34.4454 34.385C33.9252 34.4129 33.4076 34.4765 32.8961 34.5751C32.3835 34.6656 31.8804 34.8033 31.3933 34.9863C31.1524 35.0771 30.9193 35.1871 30.6962 35.3153C30.4768 35.4382 30.2753 35.5904 30.0971 35.7675C29.9234 35.9361 29.8046 36.1528 29.7563 36.3894C29.7216 36.6288 29.7728 36.8727 29.9009 37.0782C30.0365 37.2952 30.2117 37.4852 30.4173 37.6384C30.6165 37.8029 30.8289 37.9507 31.0525 38.0804C30.8025 37.9851 30.5621 37.8664 30.3347 37.7258C30.1004 37.5818 29.8954 37.3952 29.7305 37.1758C29.5569 36.9441 29.476 36.6566 29.5032 36.3689C29.5444 36.0825 29.6723 35.8153 29.8699 35.6031C29.9606 35.4982 30.0609 35.4018 30.1694 35.3153C30.2763 35.2272 30.3903 35.1482 30.5103 35.0788C30.7437 34.9335 30.989 34.808 31.2436 34.7036C31.7441 34.5046 32.263 34.3549 32.7928 34.2565C33.8558 34.064 34.9407 34.0225 36.0153 34.1331C36.5524 34.1835 37.0845 34.2781 37.6059 34.4158C38.1344 34.5455 38.6444 34.7407 39.1242 34.9966Z" fill="#F37721"/>
<path d="M32.266 36.0245C32.3683 36.1412 32.4907 36.2387 32.6275 36.3123C32.7363 36.3854 32.8502 36.4507 32.9684 36.5076C33.0064 36.5288 33.0488 36.5411 33.0923 36.5436C33.2368 36.5519 33.3816 36.5519 33.5261 36.5436L34.4195 36.4614H34.5848C35.0496 36.41 35.4059 36.3791 35.6176 36.3586L36.0824 36.3329C36.216 36.3147 36.3519 36.327 36.48 36.3689C36.511 36.3689 36.5213 36.5333 36.5058 36.8109C36.4984 36.9375 36.4984 37.0645 36.5058 37.1912C36.5073 37.2834 36.5212 37.3751 36.5472 37.4636C36.6594 37.6974 36.8392 37.8925 37.0636 38.0238C37.1718 38.1069 37.2943 38.1696 37.4251 38.2089H37.4664C37.5077 38.1013 37.5077 37.9824 37.4664 37.8748C37.3993 37.7103 37.2805 37.7 37.2547 37.5613C37.2547 37.5201 37.2547 37.4739 37.2547 37.4328C37.2134 37.1706 37.1669 36.4048 37.1514 36.4048C37.0644 36.2572 36.9349 36.139 36.7796 36.0656C36.5611 35.9426 36.3174 35.8705 36.0669 35.8549H36.0307C35.9533 35.8549 35.6692 35.8549 35.1683 35.9063L34.6519 35.9474C34.4548 35.9731 34.2551 35.9731 34.058 35.9474C34.058 35.896 34.1716 35.8138 34.3472 35.7007L34.3937 35.675C34.5285 35.5768 34.6839 35.5101 34.8481 35.4797H35.1012C35.2862 35.4864 35.4707 35.5036 35.6537 35.5311L36.1702 35.603H36.2115C36.2115 35.603 36.2528 35.2895 36.2115 35.269C35.9596 35.1753 35.695 35.1199 35.4265 35.1045C35.2819 35.1045 34.8068 35.1045 34.6777 35.1045C34.482 35.0837 34.2847 35.0837 34.089 35.1045C33.9106 35.1091 33.735 35.1493 33.5726 35.2227C33.4912 35.269 33.4165 35.326 33.3505 35.3923L33.1594 35.5773L32.8186 35.9268C32.7881 35.9537 32.7552 35.9778 32.7205 35.9988C32.6482 36.0451 32.3641 35.7932 32.2712 35.824C32.1782 35.8549 32.2505 35.8497 32.266 36.0245Z" fill="#F37721"/>
<path d="M32.7153 35.8397L34.4196 36.4205H34.5848C35.0496 36.3691 35.4059 36.3382 35.6177 36.3228C35.9044 36.2694 36.1985 36.2694 36.4852 36.3228C36.5147 36.4687 36.5147 36.619 36.4852 36.7648C36.4778 36.8915 36.4778 37.0185 36.4852 37.1452L37.1824 37.3867C37.123 37.1012 37.0987 36.8095 37.1101 36.5181L35.0961 35.8345H34.9308L34.6003 35.8602C34.4032 35.8859 34.2035 35.8859 34.0064 35.8602C34.0064 35.814 34.0839 35.7266 34.2956 35.5878L34.3421 35.5621L33.3092 35.2178L33.1182 35.4028L32.7773 35.7523C32.759 35.783 32.7382 35.8122 32.7153 35.8397Z" fill="#F37721"/>
<path d="M32.2661 35.6649C32.3684 35.7816 32.4908 35.8791 32.6276 35.9528C32.7364 36.0259 32.8503 36.0911 32.9685 36.1481C33.0065 36.1692 33.0489 36.1815 33.0924 36.1841C33.2369 36.1924 33.3817 36.1924 33.5262 36.1841L34.4196 36.1018H34.5849C35.0497 36.0504 35.406 36.0196 35.6177 35.999L36.0825 35.9733C36.2161 35.9551 36.352 35.9674 36.4801 36.0093C36.5111 36.0093 36.5214 36.1738 36.506 36.4513C36.4985 36.578 36.4985 36.705 36.506 36.8317C36.5074 36.9239 36.5213 37.0155 36.5473 37.1041C36.6595 37.3378 36.8393 37.5329 37.0637 37.6643C37.1719 37.7474 37.2944 37.8101 37.4252 37.8493H37.4665C37.4665 37.8493 37.4665 37.7774 37.3994 37.654C37.3362 37.5084 37.2878 37.3569 37.2548 37.2017C37.2548 37.1606 37.2548 37.1143 37.2548 37.0732C37.2205 36.7864 37.2205 36.4966 37.2548 36.2097C37.2548 36.1789 37.2548 36.1481 37.2548 36.1172C37.262 36.0886 37.262 36.0585 37.2548 36.0299C37.1361 35.883 36.9838 35.7667 36.8107 35.6906C36.5935 35.5639 36.3493 35.49 36.098 35.4748H36.0618C35.9844 35.4748 35.7003 35.4748 35.1994 35.5262L34.683 35.5673C34.4859 35.593 34.2862 35.593 34.0891 35.5673V35.5416C34.0891 35.4902 34.2027 35.408 34.3783 35.2949H34.4248C34.5597 35.1967 34.7149 35.13 34.8792 35.0996H35.1323C35.3173 35.1063 35.5018 35.1234 35.6848 35.151L36.2012 35.2229H36.2426C35.8709 35.0485 35.4836 34.9092 35.0858 34.8066C34.9628 34.7672 34.8367 34.738 34.7088 34.7192C34.5131 34.6984 34.3158 34.6984 34.1201 34.7192C33.9417 34.7238 33.7661 34.764 33.6037 34.8375C33.5222 34.8837 33.4475 34.9408 33.3816 35.0071L33.1905 35.1921L32.8497 35.5416C32.8192 35.5684 32.7863 35.5925 32.7516 35.6136C32.6735 35.6626 32.5881 35.6991 32.4985 35.7215L32.2661 35.6649Z" fill="#F8BE58"/>
<path d="M32.7153 35.5108L34.4196 36.0915H34.5848C35.0496 36.0401 35.4059 36.0093 35.6177 35.9939C35.9044 35.9405 36.1985 35.9405 36.4852 35.9939C36.5147 36.1398 36.5147 36.29 36.4852 36.4359C36.4778 36.5626 36.4778 36.6896 36.4852 36.8162L37.1824 37.0578C37.1482 36.771 37.1482 36.4811 37.1824 36.1943L35.1167 35.5056H34.9514L34.6209 35.5313C34.4238 35.557 34.2242 35.557 34.0271 35.5313C34.0271 35.4902 34.1045 35.3977 34.3163 35.2589H34.3627L33.3299 34.9146L33.1388 35.0996L32.798 35.4491C32.772 35.4717 32.7444 35.4923 32.7153 35.5108Z" fill="#FDC87B"/>
<path d="M39.1962 30.4841C38.2059 30.4782 37.2188 30.5956 36.2578 30.8336C35.789 30.9594 35.334 31.1316 34.8996 31.3476C34.001 31.7844 33.4536 32.3755 33.4536 32.9923V34.5342C33.4536 35.9065 36.0357 37.0115 39.1962 37.0115C39.9794 37.0141 40.7611 36.9418 41.5304 36.7956L41.7318 36.7545C42.3116 36.6382 42.8764 36.4572 43.4154 36.2149C44.3604 35.7728 44.9388 35.1869 44.9647 34.5342V32.9923C44.944 31.5943 42.3722 30.4841 39.1962 30.4841Z" fill="#F37721"/>
<path d="M34.8996 31.3218C34.001 31.7587 33.4536 32.3497 33.4536 32.9665C33.4536 34.3336 36.0357 35.449 39.1962 35.449C40.6438 35.4819 42.0819 35.2086 43.4154 34.6472L42.7131 34.3748L35.6019 31.5942L34.8996 31.3218Z" fill="#FCC37F"/>
<path d="M39.1965 30.484C37.72 30.4476 36.2534 30.7336 34.8999 31.3218L35.6022 31.5942C36.7408 31.099 37.9752 30.8603 39.2172 30.8952C41.8664 30.8952 44.0147 31.8204 44.0147 32.9511C44.0147 33.4959 43.5293 33.979 42.734 34.3594L43.4363 34.6318C44.3866 34.1898 44.9856 33.6038 44.9856 32.9511C44.9443 31.5942 42.3725 30.484 39.1965 30.484Z" fill="#F2B458"/>
<path d="M39.1964 30.8852C37.9543 30.8503 36.7199 31.089 35.5814 31.5842C34.8326 31.9491 34.3833 32.4322 34.3833 32.9565C34.3833 34.0975 36.5264 35.0124 39.1757 35.0124C40.3816 35.0382 41.5796 34.8124 42.6925 34.3493C43.4878 33.9793 43.9733 33.4859 43.9733 32.9411C43.9939 31.8206 41.8456 30.8852 39.1964 30.8852Z" fill="#EEAB1F"/>
<path d="M35.6021 31.656C36.0382 31.488 36.4895 31.3624 36.9499 31.2808C37.4088 31.1953 37.8729 31.1404 38.3391 31.1164C38.8035 31.0907 39.269 31.0907 39.7334 31.1164C40.1962 31.1401 40.6569 31.195 41.1123 31.2808C41.5655 31.3618 42.0099 31.4857 42.4395 31.6509C42.6544 31.7279 42.8618 31.8242 43.0592 31.9387C43.2491 32.048 43.4229 32.1829 43.5756 32.3396C43.7314 32.4854 43.8379 32.6758 43.8803 32.8844C43.9125 33.0978 43.8647 33.3155 43.746 33.496C43.6291 33.6948 43.4748 33.8693 43.2916 34.01C43.1058 34.1521 42.9089 34.2793 42.7029 34.3903C42.9253 34.3088 43.1382 34.2037 43.338 34.0768C43.5391 33.9494 43.7143 33.7855 43.8545 33.5937C44.0074 33.3902 44.0791 33.1375 44.0559 32.8844C44.0215 32.631 43.9097 32.3942 43.7357 32.206C43.6527 32.1138 43.5629 32.0279 43.4672 31.949C43.3719 31.8725 43.2719 31.8021 43.1676 31.7383C42.9618 31.6114 42.7459 31.5014 42.5221 31.4093C42.077 31.2316 41.6151 31.099 41.1433 31.0136C40.2029 30.8441 39.2432 30.8078 38.2926 30.9056C37.8204 30.952 37.3526 31.0344 36.8931 31.1523C36.4442 31.2686 36.0108 31.4376 35.6021 31.656Z" fill="#F37721"/>
<path d="M39.1655 30.217C38.1735 30.2114 37.1847 30.3288 36.2219 30.5665C35.7559 30.6848 35.3027 30.8483 34.8688 31.0547C33.9651 31.4916 33.4229 32.0827 33.4229 32.6995V34.2671C33.4229 35.6342 36.005 36.7393 39.1655 36.7393C39.9485 36.7434 40.7301 36.6728 41.4997 36.5285L41.6959 36.4874C42.2782 36.3718 42.8449 36.189 43.3846 35.9426C44.3297 35.5057 44.9339 34.9147 44.9339 34.2671V32.6995C44.9132 31.3272 42.3415 30.217 39.1655 30.217Z" fill="#F37721"/>
<path d="M34.8637 31.0547C33.9651 31.4916 33.4229 32.0826 33.4229 32.6994C33.4229 34.0717 36.005 35.1819 39.1655 35.1819C40.6124 35.2134 42.0499 34.942 43.3846 34.3852L42.6823 34.1128L35.5712 31.3322L34.8637 31.0547Z" fill="#FCC37F"/>
<path d="M39.1656 30.2169C37.6875 30.181 36.2193 30.4669 34.8638 31.0546L35.5713 31.3322C36.7093 30.835 37.9438 30.5946 39.1862 30.628C41.8355 30.628 43.9838 31.5583 43.9838 32.6839C43.9838 33.2287 43.4983 33.7118 42.7031 34.0973L43.4054 34.3697C44.3556 33.9277 44.9546 33.3418 44.9546 32.6839C44.9133 31.327 42.3416 30.2169 39.1656 30.2169Z" fill="#F2B458"/>
<path d="M39.1654 30.6279C37.9236 30.5957 36.6898 30.8342 35.5504 31.3269C34.8016 31.6969 34.3472 32.1749 34.3472 32.6992C34.3472 33.8453 36.4955 34.755 39.1447 34.755C40.3503 34.7824 41.5483 34.5583 42.6616 34.0972C43.4568 33.722 43.9423 33.2286 43.9423 32.6838C43.963 31.553 41.8146 30.6279 39.1654 30.6279Z" fill="#EEAB1F"/>
<path d="M35.5713 31.3987C36.008 31.2325 36.4592 31.1068 36.9191 31.0235C37.3785 30.9423 37.8424 30.8891 38.3083 30.8642C38.7727 30.8385 39.2382 30.8385 39.7027 30.8642C40.1653 30.8925 40.6258 30.9492 41.0815 31.0338C41.5363 31.1128 41.9825 31.235 42.4139 31.3987C42.6262 31.4779 42.8318 31.5742 43.0284 31.6866C43.2179 31.7965 43.3916 31.9313 43.5448 32.0874C43.6977 32.2376 43.8036 32.4286 43.8496 32.6374C43.88 32.8491 43.8323 33.0645 43.7153 33.2439C43.5946 33.4415 43.4388 33.6156 43.2557 33.7578C43.0725 33.9011 42.8772 34.0283 42.6721 34.1382C42.8931 34.0535 43.1058 33.9485 43.3073 33.8247C43.5072 33.6958 43.6821 33.5321 43.8237 33.3415C43.9752 33.1354 44.0468 32.8816 44.0251 32.6271C43.9897 32.374 43.8781 32.1374 43.7049 31.9487C43.6206 31.8579 43.5309 31.772 43.4364 31.6917C43.3383 31.6197 43.2402 31.5478 43.1369 31.4861C42.931 31.3593 42.7151 31.2493 42.4914 31.1572C42.046 30.9792 41.5841 30.8449 41.1125 30.7563C40.1718 30.5896 39.2125 30.5532 38.2619 30.6483C37.7891 30.6935 37.321 30.7777 36.8623 30.9002C36.4136 31.0146 35.9802 31.182 35.5713 31.3987Z" fill="#F37721"/>
<path d="M41.6339 32.0002C41.5461 31.9745 41.2982 32.1955 41.2311 32.1544L41.1484 32.0927L40.8437 31.7843L40.6785 31.6199C40.6191 31.5613 40.5533 31.5096 40.4822 31.4657C40.3367 31.4035 40.1809 31.3687 40.0226 31.3629C39.8508 31.3471 39.678 31.3471 39.5062 31.3629C39.3874 31.3629 38.9898 31.3629 38.84 31.3629C38.6029 31.3759 38.3693 31.4262 38.148 31.5119C38.117 31.5119 38.148 31.7946 38.148 31.8049H38.1842L38.6386 31.7432C38.801 31.7172 38.9649 31.7017 39.1292 31.6969H39.3513C39.4966 31.7258 39.634 31.7854 39.7541 31.8717H39.7902C39.9503 31.9745 40.0381 32.0465 40.0536 32.0927V32.1184C39.882 32.1375 39.7088 32.1375 39.5372 32.1184L39.1034 32.0876C38.6593 32.0516 38.4062 32.0362 38.3391 32.0413H38.2823C38.0612 32.06 37.8465 32.1248 37.6523 32.2315C37.5158 32.2954 37.4022 32.3995 37.3269 32.5296C37.3269 32.5553 37.2701 33.2234 37.2339 33.4547C37.2339 33.4958 37.2339 33.5318 37.2339 33.5678C37.2081 33.6912 37.1048 33.7014 37.0429 33.8453C37.0098 33.9402 37.0098 34.0434 37.0429 34.1383H37.0842C37.1986 34.106 37.3055 34.0519 37.3992 33.979C37.5923 33.8548 37.7435 33.6757 37.833 33.465C37.8588 33.3888 37.8728 33.309 37.8743 33.2286C37.8743 33.1361 37.8743 33.023 37.8743 32.8945C37.8743 32.6478 37.8743 32.5193 37.8743 32.4987C37.9895 32.4633 38.111 32.4528 38.2307 32.4679H38.6386L39.5682 32.5553H39.718L40.5081 32.6272C40.6353 32.6356 40.763 32.6356 40.8902 32.6272C40.928 32.624 40.9649 32.6135 40.9987 32.5964C41.1027 32.5455 41.2028 32.4871 41.2982 32.4216C41.42 32.3542 41.5299 32.2674 41.6235 32.1647C41.6442 32.1647 41.6855 32.0105 41.6339 32.0002Z" fill="#F37721"/>
<path d="M41.2313 32.1544L39.7284 32.6684H39.5787L38.6491 32.581C38.3963 32.5369 38.1377 32.5369 37.8848 32.581C37.8591 32.7117 37.8591 32.8461 37.8848 32.9768C37.8848 33.1053 37.8848 33.2184 37.8848 33.3109L37.2651 33.5216C37.3177 33.2698 37.3402 33.0128 37.3322 32.7558L39.1087 32.1544H39.2585H39.5477C39.7193 32.1744 39.8926 32.1744 40.0641 32.1544C40.0641 32.1133 39.997 32.0311 39.8059 31.9077H39.7698L40.6838 31.6045L40.8491 31.769L41.1538 32.0774L41.2313 32.1544Z" fill="#F37721"/>
<path d="M41.4531 31.959C41.3752 31.9359 41.3006 31.9031 41.231 31.8614L41.1484 31.7997L40.8437 31.4862L40.6784 31.3217C40.6192 31.2644 40.5534 31.2143 40.4822 31.1727C40.3374 31.1082 40.1811 31.0732 40.0226 31.0699C39.8511 31.049 39.6776 31.049 39.5061 31.0699C39.392 31.0846 39.2796 31.1104 39.1705 31.147C38.815 31.2368 38.4691 31.3608 38.1376 31.517H38.1789L38.6334 31.4553C38.7958 31.4308 38.9597 31.417 39.124 31.4142C39.1979 31.4089 39.2721 31.4089 39.3461 31.4142C39.4905 31.4431 39.6275 31.5008 39.7489 31.5838L39.785 31.6095C39.8886 31.6599 39.9789 31.7338 40.0484 31.8254C39.8771 31.8495 39.7032 31.8495 39.532 31.8254L39.0982 31.7894L38.3339 31.7432H38.2822C38.0602 31.7569 37.8445 31.8221 37.6522 31.9333C37.4996 32.0006 37.3665 32.1048 37.2649 32.2366C37.2585 32.2601 37.2585 32.285 37.2649 32.3085C37.2649 32.3342 37.2649 32.3651 37.2649 32.3908C37.2964 32.6433 37.2964 32.8988 37.2649 33.1514C37.2649 33.1926 37.2649 33.2337 37.2649 33.2697C37.2361 33.4058 37.1928 33.5384 37.1358 33.6654C37.079 33.7785 37.0635 33.835 37.0738 33.8402H37.1151C37.2294 33.8052 37.3362 33.7494 37.4301 33.6757C37.6237 33.552 37.7749 33.3728 37.8639 33.1617C37.8897 33.0837 37.9036 33.0023 37.9052 32.9201C37.9052 32.8276 37.9052 32.7197 37.9052 32.5861C37.9052 32.3445 37.9052 32.2109 37.9052 32.1954C38.0205 32.16 38.142 32.1495 38.2616 32.1646C38.37 32.1646 38.5095 32.1646 38.6695 32.1903L39.5991 32.2726H39.7489L40.539 32.3496H40.9211C40.9585 32.3417 40.9949 32.3296 41.0296 32.3137C41.1347 32.2648 41.2349 32.2063 41.3291 32.1389C41.4502 32.0725 41.56 31.9875 41.6545 31.8871L41.4531 31.959Z" fill="#F8BE58"/>
<path d="M41.2313 31.8617L39.7284 32.3757H39.5787L38.6491 32.2934C38.3966 32.2461 38.1374 32.2461 37.8848 32.2934C37.8582 32.4223 37.8582 32.5552 37.8848 32.6841C37.8848 32.8177 37.8848 32.9256 37.8848 33.0181L37.2651 33.2289C37.2967 32.9763 37.2967 32.7208 37.2651 32.4682L39.0933 31.8617H39.243L39.5322 31.8874C39.7034 31.9127 39.8774 31.9127 40.0486 31.8874C40.0486 31.8463 39.9815 31.7692 39.7904 31.6458L39.7543 31.6201L40.6683 31.3169L40.8336 31.4814L41.1383 31.7949L41.2313 31.8617Z" fill="#FDC87B"/>
<path d="M49.0396 37.762C49.0545 39.0901 48.6238 40.3851 47.8157 41.442C47.7279 41.55 47.6401 41.6528 47.5472 41.7504C47.1795 42.1639 46.7292 42.4963 46.225 42.7265C45.7207 42.9566 45.1737 43.0793 44.6191 43.0867C42.1815 43.0867 40.2036 40.7019 40.2036 37.762C40.2025 36.8014 40.429 35.8541 40.8647 34.9969C41.0698 34.5774 41.3322 34.1883 41.6445 33.8404C42.0132 33.4051 42.4713 33.0534 42.9879 32.8087C43.5045 32.564 44.0677 32.4321 44.6397 32.4219C47.0617 32.427 49.0396 34.817 49.0396 37.762Z" fill="#F37721"/>
<path d="M49.0392 37.762C49.0541 39.0901 48.6234 40.3851 47.8153 41.442L40.8643 34.9969C41.0694 34.5774 41.3318 34.1883 41.6441 33.8404C42.0129 33.4051 42.4709 33.0534 42.9875 32.8087C43.5041 32.564 44.0673 32.4321 44.6393 32.4219C47.0613 32.427 49.0392 34.817 49.0392 37.762Z" fill="#F37721"/>
<path d="M45.6157 32.437H44.5415V32.6426H45.6157V32.437Z" fill="#D17D28"/>
<path d="M45.6054 42.8809H44.6035V43.0864H45.6054V42.8809Z" fill="#E18B2D"/>
<path d="M48.5126 41.7503C48.1446 42.1633 47.6942 42.4954 47.19 42.7255C46.6859 42.9555 46.1391 43.0785 45.5845 43.0866C43.147 43.0866 41.1691 40.7018 41.1691 37.7619C41.1475 36.3294 41.6525 34.9384 42.5893 33.8506L43.0747 34.5033L48.022 41.0976L48.5126 41.7503Z" fill="#F8BE58"/>
<path d="M49.272 37.7618C49.294 38.9899 48.8495 40.1812 48.0275 41.0974C47.7198 41.4408 47.3438 41.7168 46.9233 41.9079C46.5028 42.099 46.047 42.2011 45.5848 42.2076C43.5501 42.2076 41.8975 40.2185 41.8975 37.7618C41.8797 36.5693 42.2982 35.4112 43.075 34.5032C43.3839 34.1384 43.7677 33.8437 44.2006 33.6389C44.6335 33.4341 45.1055 33.324 45.5848 33.3159C47.6247 33.3159 49.272 35.305 49.272 37.7618Z" fill="#EEAB1F"/>
<path d="M50 37.762C50.0248 39.2301 49.4939 40.6539 48.5127 41.7504L48.0221 41.0977C48.8479 40.1833 49.2945 38.9912 49.2719 37.762C49.2719 35.3052 47.6245 33.3162 45.5846 33.3162C45.1053 33.3242 44.6334 33.4344 44.2004 33.6392C43.7675 33.844 43.3837 34.1387 43.0748 34.5034L42.5894 33.8507C42.9581 33.4154 43.4162 33.0636 43.9328 32.8189C44.4494 32.5743 45.0126 32.4424 45.5846 32.4321C48.0273 32.427 50 34.8221 50 37.762Z" fill="#FDC87B"/>
<path d="M48.0223 41.0975C48.6936 40.2683 49.0809 39.2472 49.1274 38.1833C49.1566 37.6656 49.1114 37.1464 48.9932 36.6414C48.8787 36.1308 48.6798 35.6428 48.4044 35.1971C48.1403 34.7519 47.7891 34.3639 47.3716 34.0561C46.9525 33.7447 46.4632 33.54 45.9463 33.4599C45.4233 33.3898 44.891 33.4498 44.397 33.6347C43.8977 33.8344 43.4457 34.1355 43.0698 34.5187C43.4073 34.0805 43.8445 33.7282 44.3454 33.4908C44.8557 33.2586 45.4191 33.1663 45.9773 33.2235C46.5361 33.2884 47.0692 33.4935 47.5266 33.8197C47.9816 34.1443 48.3662 34.5569 48.6575 35.0327C48.9455 35.5093 49.1514 36.0304 49.2669 36.5746C49.3786 37.1102 49.4082 37.6595 49.3547 38.2039C49.304 38.747 49.1644 39.2783 48.9415 39.7766C48.7216 40.2707 48.4097 40.7189 48.0223 41.0975Z" fill="#F37721"/>
<path d="M45.7031 34.5343L45.5482 34.3955L45.5327 34.4726L45.6825 34.56L45.7031 34.5343Z" fill="#F37721"/>
<path d="M43.498 36.2197C43.5286 36.4561 43.584 36.6887 43.6633 36.9136C43.7718 37.2785 43.8492 37.4738 43.9009 37.4944L44.2985 37.5817L44.2675 37.4841H44.3346C44.4947 37.4841 44.7323 37.4841 45.0422 37.4841C45.352 37.4841 45.5586 37.4584 45.729 37.4841C46.0492 37.4841 46.1266 37.5458 46.1525 37.6383C46.1274 37.939 46.0825 38.2377 46.0182 38.5326C45.9325 38.9503 45.8704 39.3724 45.8323 39.7969C45.8159 40.1739 45.8542 40.5513 45.9459 40.9174C45.9848 41.0663 46.0697 41.1994 46.1886 41.2977H46.1008L46.4158 41.4057C46.3426 40.9634 46.296 40.5172 46.2764 40.0694C46.3435 39.4577 46.452 38.7536 46.6121 37.9621C46.6176 37.9057 46.6176 37.8489 46.6121 37.7925C46.6015 37.5294 46.551 37.2695 46.4623 37.0215C46.4314 36.9187 46.5398 36.8416 46.4985 36.7645C46.459 36.689 46.4003 36.6252 46.3281 36.5795C46.2515 36.5218 46.1683 36.4735 46.0802 36.4356C45.862 36.3962 45.6409 36.3756 45.4192 36.3739H45.2074H45.068C44.9027 36.3739 44.8201 36.3482 44.8201 36.2968C44.869 36.1063 44.9629 35.9301 45.0938 35.7828C45.2746 35.5259 45.4037 35.4025 45.4811 35.4076C45.629 35.4182 45.7691 35.4779 45.8788 35.5773C45.9988 35.633 46.1101 35.7057 46.2093 35.7931C46.3797 35.9473 46.4778 36.0296 46.4985 36.045C46.4985 36.045 46.4985 36.045 46.5294 36.045C46.5326 36.0367 46.5326 36.0275 46.5294 36.0193C46.3348 35.576 46.1033 35.1496 45.8375 34.7446C45.8077 34.698 45.7749 34.6534 45.7393 34.611C45.5808 34.4377 45.3641 34.328 45.13 34.3026C45.06 34.2925 44.9886 34.3004 44.9226 34.3256C44.8566 34.3508 44.7982 34.3924 44.753 34.4465C44.6017 34.6676 44.4737 34.9036 44.3708 35.1507L44.0351 35.8548C43.9714 35.9862 43.8733 36.098 43.7511 36.1786L43.498 36.2197Z" fill="#F37721"/>
<path d="M43.9009 36.3127C43.9293 36.5473 43.983 36.7782 44.061 37.0014C44.1074 37.1636 44.1625 37.3231 44.2262 37.4794C44.2572 37.5359 44.2779 37.5719 44.2985 37.5822C44.3909 37.6083 44.4866 37.6204 44.5826 37.6182H45.1713H45.2797C45.5844 37.6182 45.7961 37.5925 45.9562 37.6182C46.0532 37.6171 46.1501 37.6257 46.2454 37.6438C46.3849 37.6695 46.4623 37.7107 46.4778 37.7775C46.4529 38.0762 46.4098 38.3731 46.3487 38.6667C46.2919 38.9545 46.2506 39.1806 46.2196 39.4016C46.1886 39.6226 46.168 39.8077 46.1628 39.9156C46.1439 40.2909 46.1822 40.667 46.2764 41.0309C46.296 41.1667 46.3454 41.2966 46.421 41.4112C46.4324 41.2899 46.4324 41.1677 46.421 41.0463C46.421 40.7431 46.452 40.4553 46.4778 40.1931L46.5088 39.9413C46.5639 39.4445 46.6517 38.8894 46.7722 38.276C46.7722 38.2144 46.798 38.1527 46.8083 38.091C46.8139 38.0346 46.8139 37.9778 46.8083 37.9214C46.7995 37.6603 46.7508 37.4021 46.6637 37.1556C46.6164 36.9282 46.488 36.7255 46.3023 36.5851C46.1206 36.5471 45.9352 36.5299 45.7497 36.5337H45.4295C45.1765 36.5337 45.0473 36.4925 45.0473 36.4514C45.0448 36.4309 45.0448 36.4102 45.0473 36.3898C45.1079 36.2186 45.1969 36.0587 45.3107 35.9169L45.3469 35.8707C45.5069 35.6497 45.6206 35.5417 45.698 35.5469C45.753 35.5456 45.8076 35.5561 45.8581 35.5777C45.9782 35.6334 46.0895 35.7061 46.1886 35.7936L46.4778 36.0454C46.4778 36.0454 46.4778 36.0454 46.5088 36.0454C46.5116 36.0371 46.5116 36.028 46.5088 36.0197C46.3628 35.6192 46.1686 35.2378 45.9304 34.8838C45.8752 34.7822 45.8037 34.6902 45.7187 34.6114C45.6173 34.5158 45.4861 34.4578 45.3469 34.447C45.2769 34.4378 45.2059 34.4462 45.14 34.4713C45.0742 34.4964 45.0157 34.5375 44.9699 34.5909C44.8943 34.696 44.8286 34.8078 44.7736 34.9249C44.722 35.0277 44.66 35.1511 44.5929 35.295L44.2624 35.994C44.2383 36.0406 44.2107 36.0853 44.1797 36.1276C44.1275 36.205 44.0588 36.27 43.9784 36.3178L43.9009 36.3127Z" fill="#F8BE58"/>
<path d="M44.2471 36.0553L45.1715 37.5972H45.2799C45.5846 37.5972 45.7963 37.5715 45.9564 37.5972C46.2818 37.5972 46.4728 37.6589 46.4728 37.7566C46.4479 38.0553 46.4048 38.3522 46.3437 38.6457C46.2869 38.9336 46.2456 39.1597 46.2146 39.3807L46.5503 39.9358C46.6054 39.439 46.6932 38.8839 46.8137 38.2705L45.7809 36.5179H45.6724H45.4607C45.2076 36.5179 45.0785 36.4768 45.0785 36.4357C45.1269 36.2449 45.2208 36.0686 45.3522 35.9217L45.3884 35.8754L44.8255 34.9092C44.7738 35.012 44.7119 35.1353 44.6447 35.2792L44.3142 35.9782C44.2931 36.005 44.2707 36.0308 44.2471 36.0553Z" fill="#FDC87B"/>
</g>
<defs>
<clipPath id="clip0_2115_2">
<rect width="50" height="39" fill="white" transform="translate(0 5.5)"/>
</clipPath>
</defs>
</svg>
