<svg width="50" height="50" viewBox="0 0 50 50" fill="none" xmlns="http://www.w3.org/2000/svg">
<path d="M23.6772 47.4999C36.7538 47.4999 47.3545 46.8052 47.3545 45.9482C47.3545 45.0912 36.7538 44.3965 23.6772 44.3965C10.6007 44.3965 0 45.0912 0 45.9482C0 46.8052 10.6007 47.4999 23.6772 47.4999Z" fill="#F0F0F0"/>
<path d="M31.3755 37.7413C31.3755 37.7413 38.7613 34.056 39.8051 35.7318C40.8489 37.4077 39.0613 42.9732 39.0613 42.9732" stroke="#27235E" stroke-width="2" stroke-linecap="round" stroke-linejoin="round"/>
<path d="M44.7244 45.3447C44.6905 45.5087 44.644 45.6696 44.5855 45.8258H37.1005C37.0341 45.6709 36.9818 45.5098 36.9443 45.3447H44.7244Z" fill="#05046A"/>
<path d="M44.7234 45.3446H36.9434C36.807 44.7705 36.7599 43.8291 37.6872 43.361L37.531 42.0059H40.4962V43.9377C40.4962 43.9377 42.3483 42.1688 43.8829 42.9705C44.9416 43.5265 44.8697 44.6877 44.7234 45.3446Z" fill="#1E599E"/>
<path d="M36.644 21.0188C36.644 21.0188 43.7249 13.8705 47.1562 6.50244" stroke="#27235E" stroke-width="2" stroke-linecap="round" stroke-linejoin="round"/>
<path d="M44.7686 9.12763L46.4322 10.2863C46.4322 10.2863 49.6552 8.95436 49.4718 7.90694C49.2883 6.85953 47.89 6.05781 47.89 6.05781C47.89 6.05781 50.28 2.79918 49.9726 2.51729C49.6652 2.23539 46.5041 5.44229 44.7686 9.12763Z" fill="#E5496F"/>
<path d="M11.5092 28.5886C12.2679 32.197 14.3239 35.3647 17.2539 37.4397C20.184 39.5146 23.7651 40.3389 27.2601 39.7429V39.7429C30.6964 38.788 33.6477 36.4882 35.5003 33.3218C37.3529 30.1554 37.9642 26.3661 37.2072 22.7416C36.4502 19.1171 34.3831 15.9364 31.4357 13.8608C28.4883 11.7852 24.8874 10.9745 21.3817 11.5972V11.5972C17.9632 12.5719 15.0335 14.8776 13.1967 18.0389C11.3598 21.2003 10.7558 24.9764 11.5092 28.5886V28.5886Z" fill="#F9781D"/>
<path d="M8.64315 29.2329C9.45396 33.0913 11.6991 36.4564 14.8859 38.5898C18.0727 40.7232 21.9408 41.4506 25.6412 40.6123C25.8891 40.5579 26.1197 40.4985 26.3552 40.4312C22.7407 41.0576 19.0336 40.211 16.0006 38.0665C12.9676 35.922 10.8407 32.6437 10.0596 28.9095C9.27858 25.1753 9.90316 21.2707 11.8042 18.0033C13.7052 14.7359 16.7373 12.3556 20.2735 11.3545C20.0256 11.3959 19.7925 11.445 19.552 11.4993C15.853 12.3457 12.627 14.6882 10.5818 18.0129C8.53667 21.3375 7.83945 25.3727 8.64315 29.2329V29.2329Z" fill="#F9781D"/>
<path d="M10.081 28.9071C10.8654 32.6373 12.9912 35.9117 16.0206 38.0561C19.0499 40.2004 22.7522 41.0514 26.365 40.4338V40.4338C26.613 40.3924 26.846 40.3433 27.0865 40.289L27.2477 40.2502C28.7355 39.8983 30.1588 39.2974 31.4625 38.4709C31.7848 38.2657 32.0988 38.0485 32.4046 37.8192C34.6142 36.1495 36.3228 33.8586 37.3309 31.214C38.2856 28.7025 38.5674 25.9675 38.1462 23.3018C37.725 20.6361 36.6166 18.1401 34.9397 16.0811C33.2629 14.0221 31.0807 12.4777 28.6269 11.6132C26.1731 10.7487 23.54 10.5967 21.0098 11.1735C20.7618 11.2278 20.5313 11.2898 20.2957 11.3571C18.9855 11.7268 17.733 12.2912 16.5768 13.0329C14.2537 14.5249 12.3879 16.6785 11.1992 19.2398C11.0331 19.5916 10.8819 19.9536 10.7455 20.3209C10.189 21.7957 9.86418 23.3545 9.78353 24.9373C9.71218 26.2685 9.81225 27.6036 10.081 28.9071V28.9071ZM12.6074 28.3304C12.5331 27.9761 12.4736 27.6217 12.4314 27.27C12.2206 25.5593 12.3626 23.8214 12.8479 22.1726C12.96 21.7875 13.0907 21.4085 13.2397 21.0373C13.9141 19.3425 14.947 17.8286 16.2611 16.6087C17.5753 15.3888 19.1367 14.4944 20.8288 13.9924C21.0618 13.9226 21.3023 13.8605 21.5428 13.8062C24.2259 13.1959 27.0293 13.5896 29.4621 14.9182C31.895 16.2469 33.8022 18.4259 34.85 21.0737C35.8978 23.7215 36.0194 26.6695 35.1934 29.4013C34.3674 32.1332 32.6464 34.4749 30.3319 36.0166C30.0115 36.2343 29.6805 36.4345 29.3402 36.6166C28.4531 37.0841 27.5125 37.4317 26.5411 37.651C26.3014 37.7062 26.0609 37.7528 25.8196 37.7907C25.4147 37.8566 25.0067 37.8997 24.5973 37.92C21.8354 38.0542 19.1169 37.1652 16.9228 35.4102C14.7286 33.6553 13.2 31.1475 12.6074 28.3304Z" fill="#F9BE58"/>
<path d="M12.6073 28.33C13.2494 31.384 14.9896 34.0649 17.4695 35.821C19.9495 37.577 22.9804 38.2744 25.9385 37.7696C28.8266 36.9421 31.3005 34.9906 32.8506 32.3172C34.4006 29.6438 34.9087 26.4522 34.2703 23.3997C33.6318 20.3472 31.8954 17.6664 29.4187 15.9094C26.942 14.1525 23.9137 13.4533 20.9575 13.9558V13.9558C18.0664 14.7816 15.589 16.7325 14.0356 19.4066C12.4821 22.0807 11.9709 25.2745 12.6073 28.33V28.33Z" fill="#F0AC1C"/>
<path d="M30.3315 36.0165L32.3869 37.8268C34.5965 36.1572 36.3051 33.8663 37.3132 31.2216L35.2034 29.3647C34.3764 32.1088 32.6522 34.4629 30.3315 36.0165Z" fill="#FFC97B"/>
<path d="M11.187 19.2422L13.2399 21.0396C14.3032 18.3842 16.229 16.2041 18.6794 14.8819L16.5671 13.0327C14.2427 14.525 12.376 16.6795 11.187 19.2422V19.2422Z" fill="#FFC97B"/>
<path d="M24.5845 37.9223L27.2423 40.2499C28.7301 39.898 30.1534 39.2971 31.4571 38.4706L29.3398 36.606C28.4527 37.0735 27.512 37.4211 26.5406 37.6404C26.301 37.6956 26.0605 37.7422 25.8192 37.7801C25.4104 37.8507 24.9982 37.8982 24.5845 37.9223V37.9223Z" fill="#FFC97B"/>
<path d="M9.771 24.9397L12.4313 27.2673C12.2205 25.5566 12.3625 23.8187 12.8478 22.1699L10.7454 20.313C10.1836 21.7904 9.85456 23.3528 9.771 24.9397Z" fill="#FFC97B"/>
<path d="M31.6691 25.9158C32.3895 25.6917 32.9151 25.3058 32.8431 25.0539C32.7711 24.8021 32.1287 24.7796 31.4083 25.0038C30.688 25.228 30.1624 25.6138 30.2344 25.8657C30.3064 26.1175 30.9488 26.14 31.6691 25.9158Z" fill="#D65671"/>
<path d="M20.1276 29.5076C20.848 29.2835 21.3736 28.8976 21.3016 28.6457C21.2295 28.3939 20.5872 28.3714 19.8668 28.5956C19.1465 28.8198 18.6209 29.2056 18.6929 29.4575C18.7649 29.7093 19.4073 29.7318 20.1276 29.5076Z" fill="#D65671"/>
<path d="M22.2513 26.9574C22.0489 26.5319 22.0107 26.0417 22.1443 25.5877C22.1817 25.4254 22.2572 25.2753 22.3641 25.151C22.4709 25.0266 22.6058 24.932 22.7564 24.8756C23.5688 24.605 23.5916 24.8946 25.0116 25.2174C26.4315 25.5402 26.3564 24.3273 27.5147 24.8946C28.6093 25.4263 28.1405 26.7722 27.5147 27.6695C26.8889 28.5668 23.7008 30.1619 22.2513 26.9574Z" fill="white"/>
<path d="M24.5247 25.1035L23.2412 28.3437" stroke="#B5C0C2" stroke-width="0.87" stroke-miterlimit="10"/>
<path d="M25.8652 25.2246V28.7282" stroke="#B5C0C2" stroke-width="0.87" stroke-miterlimit="10"/>
<path d="M12.8477 24.6421H8.55111C8.55111 24.6421 7.46517 24.549 7.39823 25.5111C7.35293 25.9572 7.35293 26.4071 7.39823 26.8533" stroke="#27235E" stroke-width="3" stroke-linecap="round" stroke-linejoin="round"/>
<path d="M37.5336 19.0017C37.5354 20.6175 36.9452 22.173 35.8836 23.3498C34.822 24.5265 33.3694 25.2356 31.8231 25.3317C30.2768 25.4279 28.7537 24.9039 27.5657 23.8671C26.3776 22.8302 25.6143 21.3589 25.4321 19.7543L28.0998 19.0198L33.6361 17.4913L37.0526 16.5474C37.3681 17.3238 37.5317 18.1583 37.5336 19.0017V19.0017Z" fill="#27235E"/>
<path d="M24.3169 22.7465C24.3214 24.3714 23.7271 25.936 22.6568 27.1166C21.5865 28.2972 20.1222 29.0036 18.5666 29.0896C17.0111 29.1757 15.4833 28.6348 14.2994 27.5788C13.1154 26.5229 12.3658 25.0327 12.2056 23.4164L15.2501 22.5759L23.8062 20.2095C24.144 21.0088 24.318 21.873 24.3169 22.7465V22.7465Z" fill="#27235E"/>
<path d="M37.0575 16.5425L12.2026 23.4114" stroke="#27235E" stroke-width="3" stroke-linecap="round" stroke-linejoin="round"/>
<path d="M37.3206 20.6671C37.1094 21.4725 36.7477 22.2264 36.2563 22.8855C35.7648 23.5446 35.1534 24.0958 34.457 24.5076L28.1001 19.0197L33.6364 17.4912L37.3206 20.6671Z" fill="#2D2D68"/>
<path d="M21.5748 28.0429C20.7045 28.6379 19.7022 28.9896 18.6641 29.0644C17.626 29.1392 16.5869 28.9346 15.6464 28.4701C14.7059 28.0057 13.8956 27.297 13.2931 26.4121C12.6905 25.5271 12.3161 24.4955 12.2056 23.4162L15.2501 22.5757L21.5748 28.0429Z" fill="#2D2D68"/>
<path d="M14.4641 25.1958C14.4641 25.1958 14.7443 26.5406 13.0435 27.3889C13.0435 27.3889 14.5608 27.6475 14.9401 29.1475C15.0033 28.6315 15.2079 28.1454 15.5293 27.7476C15.8508 27.3499 16.2755 27.0574 16.7525 26.9053C16.7525 26.9053 14.712 26.9622 14.4641 25.1958Z" fill="white"/>
<path d="M16.6508 39.0786C16.6508 39.0786 14.3624 43.0743 6.30469 43.9148" stroke="#27235E" stroke-width="2" stroke-linecap="round" stroke-linejoin="round"/>
<path d="M9.44336 29.623C9.44336 29.623 3.52528 30.7739 3.72363 32.817C4.03106 35.9774 9.44336 35.4032 9.44336 35.4032" stroke="#27235E" stroke-width="2" stroke-linecap="round" stroke-linejoin="round"/>
<path d="M11.3603 45.6787C11.3403 45.8105 11.3096 45.9403 11.2686 46.0666H3.35716C3.35281 45.9369 3.36027 45.807 3.37946 45.6787H11.3603Z" fill="#05046A"/>
<path d="M11.3597 45.6785H3.37891C3.49047 44.8794 4.09543 43.1259 7.22925 43.0742L7.84908 45.3242C7.84908 45.3242 8.61766 44.0544 9.97383 44.0725C11.1391 44.0854 11.4887 44.882 11.3597 45.6785Z" fill="#1E599E"/>
<path d="M9.44336 36.1689L9.46815 33.6836C9.46815 33.6836 12.6764 34.7931 12.4433 36.1741C12.2102 37.5551 12.1036 39.1146 11.5136 39.5051C10.9235 39.8957 11.3623 37.5086 11.3623 37.5086C11.3623 37.5086 10.1227 37.5939 10.2838 36.125L9.44336 36.1689Z" fill="#E5496F"/>
</svg>
