<svg width="50" height="50" viewBox="0 0 50 50" fill="none" xmlns="http://www.w3.org/2000/svg">
<g transform="translate(0, 14.625) scale(0.125)">
<path d="M119.338 98.2254C118.192 98.8668 117.91 100.004 117.337 100.911C111.693 109.753 103.543 114.277 93.1699 114.867C88.7956 115.095 84.4124 114.636 80.1802 113.507C74.8212 112.153 70.1721 108.823 67.1647 104.186C65.882 102.262 64.7532 100.235 63.556 98.2596C63.2968 98.3561 63.0599 98.5045 62.86 98.6957C62.66 98.8868 62.5011 99.1167 62.393 99.3713C60.2893 103.733 56.7575 106.691 52.687 109.077C48.5313 111.46 43.9949 113.106 39.2782 113.943C32.8249 115.213 26.1903 115.256 19.7209 114.071C17.1659 113.612 14.6876 112.797 12.358 111.651C8.65312 109.827 5.61636 106.883 3.67822 103.237C1.29234 98.8069 0.479949 93.9753 0.0267177 89.0582C-0.0122895 88.8539 -0.00854859 88.6438 0.0377044 88.4411C0.0839574 88.2383 0.171719 88.0474 0.295454 87.8803C0.419189 87.7131 0.576212 87.5735 0.756621 87.4701C0.93703 87.3666 1.13691 87.3017 1.34365 87.2794C3.90911 86.7749 6.47457 86.3131 9.04003 85.8941C9.31298 85.8448 9.59458 85.8932 9.8354 86.0308C10.0762 86.1684 10.2609 86.3864 10.357 86.6466C10.6648 87.4077 10.9385 88.1774 11.2121 88.9384C13.1448 93.7615 16.7621 96.5236 21.7732 97.7038C26.3312 98.654 31.0145 98.8475 35.6353 98.2767C40.5516 97.8997 45.3529 96.6001 49.788 94.4456C52.5186 93.1665 54.8962 91.241 56.7148 88.8358C57.5599 87.7787 58.1399 86.5347 58.4062 85.2077C58.6725 83.8807 58.6174 82.5092 58.2455 81.2079C54.2548 65.6099 50.0417 50.0689 45.6064 34.5849C45.4182 33.935 45.1702 33.2851 45.0163 32.6266C44.6913 31.2755 44.8709 30.865 46.0767 30.446C49.1638 29.3599 52.2594 28.2824 55.3636 27.2477C57.0739 26.6833 57.4673 26.9142 57.9291 28.7528C59.6394 35.594 61.3497 42.5207 63.1199 49.3962C65.8136 59.8376 68.5586 70.2619 71.2866 80.6948C72.0696 83.8776 73.2174 86.9595 74.7072 89.8791C77.4779 95.0784 81.7023 98.0971 87.6713 98.6273C90.516 98.9086 93.3824 98.8885 96.2228 98.5675C99.3747 98.2841 102.403 97.2037 105.022 95.4281C107.641 93.6524 109.766 91.2397 111.197 88.4168C112.912 85.1446 114.107 81.6246 114.737 77.9839C115.387 74.4949 115.891 70.9802 116.447 67.4741C116.567 66.7216 116.892 66.1486 117.662 66.0631C120.903 65.6206 124.181 65.5089 127.444 65.7296C127.205 68.62 126.863 71.3308 126.786 74.0502C126.699 76.5055 126.796 78.9638 127.077 81.4045C127.889 87.9978 131.284 92.8037 137.339 95.6599C138.664 94.8989 139.16 93.5563 139.904 92.436C145.675 83.4678 152.392 75.1451 159.94 67.6109C165.252 62.2808 171.247 57.6798 177.77 53.9285C184.782 49.9948 192.205 47.5063 200.312 47.2326C217.954 46.6426 229.61 57.6398 233.911 68.791C237.332 77.7616 237.178 86.3986 231.67 94.591C231.414 95.0101 231.183 95.4442 230.978 95.8908C231.286 97.1394 232.312 96.9085 233.005 97.0966C237.123 98.1053 241.337 98.6785 245.575 98.8069C253.089 99.0821 260.613 98.9251 268.109 98.3366C268.654 98.2925 269.196 98.2182 269.733 98.1142C270.588 97.9517 270.845 97.2591 270.332 96.6776C269.819 96.0961 269.024 95.2837 268.399 94.5568C264.259 89.9633 261.535 84.27 260.558 78.1635C259.638 72.1837 260.5 66.0654 263.037 60.573C266.457 52.5685 272.703 46.1029 280.585 42.4096C288.846 38.4673 296.508 39.5534 303.478 45.3855C309.951 50.7901 313.517 57.8622 314.937 66.0802C316.827 77.0433 313.851 86.6039 306.625 94.9673C306.043 95.6343 305.043 96.079 305.154 97.1736C305.248 97.336 305.299 97.5413 305.385 97.5584C307.001 97.8149 308.617 98.1655 310.242 98.2853C316.228 98.7043 322.214 98.9694 328.26 98.9266C333.741 98.8839 337.667 96.4723 340.283 91.8032C341.62 89.2705 342.763 86.6406 343.704 83.9358C345.252 79.8567 346.842 75.7947 348.578 71.7841C350.075 68.4118 351.97 65.2309 354.222 62.309C361.808 52.278 375.362 52.0899 383.614 57.8109C386.877 60.0807 389.677 62.9509 391.866 66.2683C396.967 73.9385 399.778 82.902 399.973 92.1111C400.184 96.5093 399.159 100.879 397.014 104.725C393.243 111.318 387.556 114.773 379.911 114.875C374.305 114.848 368.768 113.636 363.663 111.318C359.538 109.498 355.602 107.275 351.913 104.682C350.81 103.921 349.861 102.886 348.339 102.561C347.27 103.416 346.808 104.707 346.107 105.819C344.493 108.539 342.206 110.797 339.467 112.377C336.728 113.957 333.628 114.806 330.466 114.841C316.681 115.44 303.178 114.054 290.231 108.975C289.562 108.666 288.836 108.502 288.099 108.493C287.362 108.484 286.632 108.631 285.956 108.923C275.39 113.131 264.085 115.167 252.716 114.909C247.123 114.815 241.522 115.08 235.946 114.2C229.55 113.199 223.401 111.532 217.749 108.333C217.197 107.953 216.553 107.729 215.884 107.686C215.216 107.642 214.548 107.78 213.952 108.085C205.024 112.139 195.523 113.883 185.851 115.021C175.389 116.202 164.84 116.413 154.339 115.653C148.746 115.317 143.211 114.336 137.843 112.729C130.514 110.48 124.571 106.435 120.526 99.8074C120.167 99.2516 119.748 98.7385 119.338 98.2254ZM168.492 100.457C179.053 100.303 187.784 99.9186 196.438 98.4991C202.766 97.4862 208.91 95.544 214.67 92.7353C217.009 91.605 219.186 90.167 221.144 88.4596C224.966 85.0389 225.847 80.9513 224.273 76.1967C223.756 74.6403 223.019 73.1659 222.084 71.8183C219.827 68.5263 216.718 65.9103 213.088 64.2502C206.721 61.2736 199.542 60.512 192.693 62.0866C187.232 63.3799 182.046 65.6357 177.377 68.7483C165.849 76.0598 157.041 86.048 149.396 97.1821C148.661 98.2425 148.986 98.9352 150.251 99.1917C156.87 100.543 163.575 100.372 168.492 100.457ZM271.478 73.0925C271.471 74.5924 271.658 76.087 272.034 77.5393C273.393 82.884 276.797 86.6552 281.244 89.614C283.724 91.273 286.281 92.8465 289.256 93.505C292.337 92.372 295.175 90.6658 297.62 88.4767C297.825 88.3056 298.022 88.1089 298.218 87.9208C308.207 78.4201 304.709 62.728 295.473 56.4084C293.915 55.291 292.116 54.5543 290.221 54.2573C288.326 53.9603 286.388 54.1112 284.562 54.6981C276.959 56.9472 271.427 64.6863 271.444 73.0754L271.478 73.0925ZM379.954 99.4226C381.045 99.413 382.136 99.3473 383.221 99.2259C386.641 98.6957 388.523 96.6006 388.779 93.1714C388.869 92.2215 388.869 91.2652 388.779 90.3152C388.063 82.9009 384.557 76.0355 378.971 71.1085C378.231 70.5046 377.448 69.9558 376.627 69.4666C374.28 68.0358 371.504 67.4762 368.785 67.8858C366.066 68.2954 363.578 69.6481 361.756 71.7071C360.522 73.1645 359.447 74.7498 358.549 76.4361C357.032 79.4793 355.724 82.6221 354.633 85.8428C354.357 86.3863 354.292 87.0127 354.449 87.6014C354.607 88.1902 354.977 88.6999 355.488 89.0325C360.36 93.0097 365.939 96.0301 371.933 97.9346C374.518 98.8258 377.221 99.3273 379.954 99.4226V99.4226Z" fill="#13103D"/>
<path d="M281.432 9.77697C281.438 11.0162 281.2 12.2445 280.731 13.3918C280.263 14.5391 279.573 15.5828 278.701 16.4634C277.829 17.3441 276.792 18.0444 275.65 18.5243C274.507 19.0043 273.281 19.2545 272.042 19.2606C270.803 19.2668 269.574 19.0288 268.427 18.5603C267.28 18.0918 266.236 17.4019 265.356 16.53C263.577 14.7691 262.571 12.3738 262.558 9.87104C262.498 4.62895 267.039 -0.0145388 272.196 0.224904C273.432 0.23816 274.653 0.496611 275.788 0.985273C276.923 1.47393 277.95 2.18309 278.809 3.07161C279.668 3.96014 280.342 5.01036 280.793 6.16139C281.243 7.31243 281.46 8.54137 281.432 9.77697V9.77697Z" fill="#05046A"/>
<path d="M255.247 9.76852C255.265 11.0387 255.025 12.2993 254.543 13.4744C254.06 14.6495 253.344 15.7146 252.439 16.6056C251.534 17.4966 250.457 18.195 249.275 18.6587C248.092 19.1224 246.828 19.3417 245.558 19.3035C243.072 19.2432 240.709 18.2127 238.974 16.4324C237.238 14.6521 236.268 12.2633 236.271 9.77708C236.233 8.50714 236.45 7.24247 236.91 6.05802C237.369 4.87357 238.062 3.79346 238.947 2.88169C239.832 1.96992 240.89 1.24505 242.061 0.750056C243.231 0.255058 244.488 0 245.759 0C247.029 0 248.287 0.255058 249.457 0.750056C250.627 1.24505 251.686 1.96992 252.571 2.88169C253.456 3.79346 254.148 4.87357 254.608 6.05802C255.068 7.24247 255.285 8.50714 255.247 9.77708V9.76852Z" fill="#5E85BC"/>
<path d="M307.77 9.53761C307.786 12.0528 306.802 14.4713 305.035 16.2611C303.268 18.0508 300.862 19.0652 298.347 19.0811C295.831 19.097 293.413 18.113 291.623 16.3457C289.833 14.5784 288.819 12.1725 288.803 9.65733C288.826 7.10942 289.855 4.67394 291.667 2.88266C293.48 1.09139 295.927 0.0898535 298.475 0.0967301C300.944 0.162922 303.292 1.1833 305.025 2.94364C306.759 4.70398 307.742 7.06736 307.77 9.53761V9.53761Z" fill="#F2AE1C"/>
<path d="M325.566 18.9614C324.33 19.0184 323.096 18.8197 321.94 18.378C320.784 17.9363 319.732 17.2609 318.849 16.3941C317.967 15.5273 317.272 14.4878 316.809 13.3404C316.346 12.193 316.125 10.9625 316.159 9.72577C316.171 8.47474 316.429 7.23829 316.919 6.08701C317.409 4.93572 318.12 3.89215 319.013 3.01588C319.906 2.13961 320.963 1.4478 322.123 0.979943C323.283 0.51209 324.525 0.277358 325.776 0.28915C327.027 0.300942 328.263 0.559025 329.414 1.04867C330.566 1.53831 331.609 2.24992 332.485 3.14286C333.362 4.03581 334.054 5.09261 334.521 6.25292C334.989 7.41323 335.224 8.65433 335.212 9.90535C335.246 15.0106 330.859 18.9871 325.566 18.9614Z" fill="#F27781"/>
</g>
</svg>
