<svg width="50" height="50" viewBox="0 0 50 50" fill="none" xmlns="http://www.w3.org/2000/svg">
<g transform="scale(0.09765625)">
<rect width="512" height="512" fill="white"/>
<path d="M175.338 287.225C174.192 287.867 173.91 289.004 173.337 289.911C167.693 298.753 159.543 303.277 149.17 303.867C144.796 304.095 140.412 303.636 136.18 302.507C130.821 301.153 126.172 297.823 123.165 293.186C121.882 291.262 120.753 289.235 119.556 287.26C119.297 287.356 119.06 287.505 118.86 287.696C118.66 287.887 118.501 288.117 118.393 288.371C116.289 292.733 112.758 295.691 108.687 298.077C104.531 300.46 99.9949 302.106 95.2782 302.943C88.8249 304.213 82.1903 304.256 75.7209 303.071C73.1659 302.612 70.6876 301.797 68.358 300.651C64.6531 298.827 61.6164 295.883 59.6782 292.237C57.2923 287.807 56.4799 282.975 56.0267 278.058C55.9877 277.854 55.9915 277.644 56.0377 277.441C56.084 277.238 56.1717 277.047 56.2955 276.88C56.4192 276.713 56.5762 276.573 56.7566 276.47C56.937 276.367 57.1369 276.302 57.3437 276.279C59.9091 275.775 62.4746 275.313 65.04 274.894C65.313 274.845 65.5946 274.893 65.8354 275.031C66.0762 275.168 66.2609 275.386 66.357 275.647C66.6648 276.408 66.9385 277.177 67.2121 277.938C69.1448 282.762 72.7621 285.524 77.7732 286.704C82.3312 287.654 87.0145 287.848 91.6353 287.277C96.5516 286.9 101.353 285.6 105.788 283.446C108.519 282.167 110.896 280.241 112.715 277.836C113.56 276.779 114.14 275.535 114.406 274.208C114.672 272.881 114.617 271.509 114.246 270.208C110.255 254.61 106.042 239.069 101.606 223.585C101.418 222.935 101.17 222.285 101.016 221.627C100.691 220.275 100.871 219.865 102.077 219.446C105.164 218.36 108.259 217.282 111.364 216.248C113.074 215.683 113.467 215.914 113.929 217.753C115.639 224.594 117.35 231.521 119.12 238.396C121.814 248.838 124.559 259.262 127.287 269.695C128.07 272.878 129.217 275.959 130.707 278.879C133.478 284.078 137.702 287.097 143.671 287.627C146.516 287.909 149.382 287.889 152.223 287.567C155.375 287.284 158.403 286.204 161.022 284.428C163.641 282.652 165.766 280.24 167.197 277.417C168.912 274.145 170.107 270.625 170.737 266.984C171.387 263.495 171.891 259.98 172.447 256.474C172.567 255.722 172.892 255.149 173.662 255.063C176.903 254.621 180.181 254.509 183.444 254.73C183.205 257.62 182.863 260.331 182.786 263.05C182.699 265.505 182.796 267.964 183.077 270.405C183.889 276.998 187.284 281.804 193.339 284.66C194.664 283.899 195.16 282.556 195.904 281.436C201.675 272.468 208.392 264.145 215.94 256.611C221.252 251.281 227.247 246.68 233.77 242.928C240.782 238.995 248.205 236.506 256.312 236.233C273.954 235.643 285.61 246.64 289.911 257.791C293.332 266.762 293.178 275.399 287.67 283.591C287.414 284.01 287.183 284.444 286.978 284.891C287.286 286.139 288.312 285.908 289.005 286.097C293.123 287.105 297.337 287.679 301.575 287.807C309.089 288.082 316.613 287.925 324.109 287.337C324.654 287.292 325.196 287.218 325.733 287.114C326.588 286.952 326.845 286.259 326.332 285.678C325.819 285.096 325.024 284.284 324.399 283.557C320.259 278.963 317.535 273.27 316.558 267.164C315.638 261.184 316.5 255.065 319.037 249.573C322.457 241.569 328.703 235.103 336.585 231.41C344.846 227.467 352.508 228.553 359.478 234.386C365.951 239.79 369.517 246.862 370.937 255.08C372.827 266.043 369.851 275.604 362.625 283.967C362.043 284.634 361.043 285.079 361.154 286.174C361.248 286.336 361.299 286.541 361.385 286.558C363.001 286.815 364.617 287.166 366.242 287.285C372.228 287.704 378.214 287.969 384.26 287.927C389.741 287.884 393.667 285.472 396.283 280.803C397.62 278.271 398.763 275.641 399.704 272.936C401.252 268.857 402.842 264.795 404.578 260.784C406.075 257.412 407.97 254.231 410.222 251.309C417.808 241.278 431.362 241.09 439.614 246.811C442.877 249.081 445.677 251.951 447.866 255.268C452.967 262.938 455.778 271.902 455.973 281.111C456.184 285.509 455.159 289.879 453.014 293.725C449.243 300.318 443.556 303.773 435.911 303.875C430.305 303.848 424.768 302.636 419.663 300.318C415.538 298.498 411.602 296.275 407.913 293.682C406.81 292.921 405.861 291.886 404.339 291.561C403.27 292.416 402.808 293.707 402.107 294.819C400.493 297.539 398.206 299.797 395.467 301.377C392.728 302.957 389.628 303.806 386.466 303.841C372.681 304.44 359.178 303.054 346.231 297.975C345.562 297.666 344.836 297.502 344.099 297.493C343.362 297.484 342.632 297.631 341.956 297.923C331.39 302.131 320.085 304.167 308.716 303.909C303.123 303.815 297.522 304.08 291.946 303.2C285.55 302.199 279.401 300.532 273.749 297.333C273.197 296.953 272.553 296.729 271.884 296.686C271.216 296.642 270.548 296.78 269.952 297.085C261.024 301.139 251.523 302.883 241.851 304.021C231.389 305.202 220.84 305.413 210.339 304.653C204.746 304.317 199.211 303.336 193.843 301.729C186.514 299.48 180.571 295.435 176.526 288.807C176.167 288.252 175.748 287.738 175.338 287.225ZM224.492 289.457C235.053 289.303 243.784 288.919 252.438 287.499C258.766 286.486 264.91 284.544 270.67 281.735C273.009 280.605 275.186 279.167 277.144 277.46C280.966 274.039 281.847 269.951 280.273 265.197C279.756 263.64 279.019 262.166 278.084 260.818C275.827 257.526 272.718 254.91 269.088 253.25C262.721 250.274 255.542 249.512 248.693 251.087C243.232 252.38 238.046 254.636 233.377 257.748C221.849 265.06 213.041 275.048 205.396 286.182C204.661 287.243 204.986 287.935 206.251 288.192C212.87 289.543 219.575 289.372 224.492 289.457ZM327.478 262.092C327.471 263.592 327.658 265.087 328.034 266.539C329.393 271.884 332.797 275.655 337.244 278.614C339.724 280.273 342.281 281.846 345.256 282.505C348.337 281.372 351.175 279.666 353.62 277.477C353.825 277.306 354.022 277.109 354.218 276.921C364.207 267.42 360.709 251.728 351.473 245.408C349.915 244.291 348.116 243.554 346.221 243.257C344.326 242.96 342.388 243.111 340.562 243.698C332.959 245.947 327.427 253.686 327.444 262.075L327.478 262.092ZM435.954 288.423C437.045 288.413 438.136 288.347 439.221 288.226C442.641 287.696 444.523 285.601 444.779 282.171C444.869 281.221 444.869 280.265 444.779 279.315C444.063 271.901 440.557 265.036 434.971 260.108C434.231 259.505 433.448 258.956 432.627 258.467C430.28 257.036 427.504 256.476 424.785 256.886C422.066 257.295 419.578 258.648 417.756 260.707C416.522 262.164 415.447 263.75 414.549 265.436C413.032 268.479 411.724 271.622 410.633 274.843C410.357 275.386 410.292 276.013 410.449 276.601C410.607 277.19 410.977 277.7 411.488 278.033C416.36 282.01 421.939 285.03 427.933 286.935C430.518 287.826 433.221 288.327 435.954 288.423V288.423Z" fill="#13103D"/>
<path d="M337.432 198.777C337.438 200.016 337.2 201.245 336.731 202.392C336.263 203.539 335.573 204.583 334.701 205.463C333.829 206.344 332.792 207.044 331.65 207.524C330.507 208.004 329.281 208.254 328.042 208.261C326.803 208.267 325.574 208.029 324.427 207.56C323.28 207.092 322.236 206.402 321.356 205.53C319.577 203.769 318.571 201.374 318.558 198.871C318.498 193.629 323.039 188.985 328.196 189.225C329.432 189.238 330.653 189.497 331.788 189.985C332.923 190.474 333.95 191.183 334.809 192.072C335.668 192.96 336.342 194.01 336.793 195.161C337.243 196.312 337.46 197.541 337.432 198.777V198.777Z" fill="#05046A"/>
<path d="M311.247 198.769C311.265 200.039 311.025 201.299 310.543 202.474C310.06 203.649 309.344 204.715 308.439 205.606C307.534 206.497 306.457 207.195 305.275 207.659C304.092 208.122 302.828 208.342 301.558 208.303C299.072 208.243 296.709 207.213 294.974 205.432C293.238 203.652 292.268 201.263 292.271 198.777C292.233 197.507 292.45 196.242 292.91 195.058C293.369 193.874 294.062 192.793 294.947 191.882C295.832 190.97 296.89 190.245 298.061 189.75C299.231 189.255 300.488 189 301.759 189C303.029 189 304.287 189.255 305.457 189.75C306.627 190.245 307.686 190.97 308.571 191.882C309.456 192.793 310.148 193.874 310.608 195.058C311.068 196.242 311.285 197.507 311.247 198.777V198.769Z" fill="#5E85BC"/>
<path d="M363.77 198.538C363.786 201.053 362.802 203.471 361.035 205.261C359.268 207.051 356.862 208.065 354.347 208.081C351.831 208.097 349.413 207.113 347.623 205.346C345.833 203.578 344.819 201.173 344.803 198.657C344.826 196.109 345.855 193.674 347.667 191.883C349.48 190.091 351.927 189.09 354.475 189.097C356.944 189.163 359.292 190.183 361.025 191.944C362.759 193.704 363.742 196.067 363.77 198.538V198.538Z" fill="#F2AE1C"/>
<path d="M381.566 207.961C380.33 208.018 379.096 207.82 377.94 207.378C376.784 206.936 375.732 206.261 374.849 205.394C373.967 204.527 373.272 203.488 372.809 202.34C372.346 201.193 372.125 199.963 372.159 198.726C372.171 197.475 372.429 196.238 372.919 195.087C373.409 193.936 374.12 192.892 375.013 192.016C375.906 191.14 376.963 190.448 378.123 189.98C379.283 189.512 380.525 189.277 381.776 189.289C383.027 189.301 384.263 189.559 385.414 190.049C386.566 190.538 387.609 191.25 388.485 192.143C389.362 193.036 390.054 194.093 390.521 195.253C390.989 196.413 391.224 197.654 391.212 198.905C391.246 204.011 386.859 207.987 381.566 207.961Z" fill="#F27781"/>
</g>
</svg>
