<svg width="50" height="50" viewBox="0 0 50 50" fill="none" xmlns="http://www.w3.org/2000/svg">
<g clip-path="url(#clip0_2115_2)">
<circle cx="25" cy="25" r="24.5" fill="#05046A" stroke="#102A83"/>
<g clip-path="url(#clip1_2115_2)">
<path fill-rule="evenodd" clip-rule="evenodd" d="M24.9401 37.7071C24.9117 37.6564 24.882 37.6071 24.8521 37.5564C23.5305 35.6372 21.0681 34.7946 17.8923 34.4561C14.7129 34.1141 10.8379 34.278 6.71875 34.3557L6.67236 34.3588V34.313C6.84327 30.4877 7.50246 24.8007 9.0747 21.395C10.5606 18.1057 14.1782 16.0002 17.3645 14.4408C18.3605 13.9528 19.5726 13.4537 20.7462 12.8702C21.9183 12.2866 23.0473 11.6171 23.8856 10.7904C24.4602 10.2135 24.7806 9.68701 24.9599 9.26734L25.0031 9.17041L25.0447 9.26734C25.2236 9.68701 25.546 10.2135 26.122 10.7856C26.9588 11.6171 28.088 12.2847 29.2601 12.8702C30.432 13.4537 31.6444 13.9528 32.6422 14.4408C35.8267 16.0002 39.4441 18.1057 40.93 21.395C42.504 24.8007 43.163 30.4877 43.3307 34.313L43.3341 34.3588L43.2859 34.3557C39.1669 34.278 35.2918 34.1141 32.1142 34.4561C28.9363 34.7964 26.4725 35.6372 25.1526 37.5579C25.1226 37.6071 25.0929 37.6564 25.0646 37.7056C25.0612 37.7122 25.058 37.7185 25.0548 37.7233C25.0481 37.7345 25.0347 37.7454 25.0182 37.75L24.9995 37.7566L24.9833 37.7487C24.9615 37.7375 24.9483 37.7218 24.9401 37.7071Z" fill="white"/>
<path fill-rule="evenodd" clip-rule="evenodd" d="M30.0254 15.2007L30.4122 15.4328L30.404 16.7621L30.027 16.5824L30.0254 15.2007Z" fill="#05046A"/>
<path fill-rule="evenodd" clip-rule="evenodd" d="M26.1883 14.0846L26.5637 14.1481L26.5534 14.9684C26.5534 14.9684 25.6954 14.8859 24.7588 14.9194C23.8951 14.9495 23.1286 15.1117 22.7812 15.1961V14.8638L23.0755 14.7636V13.4313H23.477V14.6874L23.7724 14.657V13.3184H24.1346V14.6078L25.0527 14.5553V13.9654H25.4013V14.5568H25.6056V13.9971H26.0041V14.568L26.1883 14.5776V14.0846Z" fill="#05046A"/>
<path fill-rule="evenodd" clip-rule="evenodd" d="M21.4301 13.8778V13.5185L22.4081 13.0844C22.4081 13.0844 22.5774 13.0542 22.5774 13.2737C22.5774 13.4931 22.5509 14.0719 22.5509 14.0719L20.9818 14.8478V14.983L22.3384 14.4169L22.5493 14.5154V15.1946C22.5493 15.1946 21.6344 15.6282 21.1461 15.8715C20.6599 16.1133 19.6886 16.6266 19.6886 16.6266L19.5156 16.6076V15.8764L19.8348 15.6871V16.1895C19.8348 16.1895 20.5584 15.8109 21.065 15.5565C21.5912 15.2913 22.1789 15.0272 22.1789 15.0272V14.8668C22.1789 14.8668 21.1395 15.3372 20.8607 15.4773H20.6647V14.6235L22.234 13.8286V13.501L21.4285 13.8922L21.4301 13.8778Z" fill="#05046A"/>
<path fill-rule="evenodd" clip-rule="evenodd" d="M27.8801 15.1196L28.4049 15.355V15.9416L28.1741 15.9464L27.1843 15.6108V16.3978L26.8027 16.2725V15.2388L27.49 15.4012V13.9321L27.8453 14.0833V14.5982L28.2671 14.7747V14.4345C28.2671 14.4345 28.247 14.2072 28.483 14.2277C28.717 14.2468 29.1783 14.5741 29.1783 14.5741L29.1751 14.994L28.6606 14.7397V14.9684L29.177 15.1848V15.6635L29.5172 15.8495V15.2946L29.8908 15.4756V16.3118C29.8908 16.3118 29.8693 16.3773 29.7128 16.3329C29.5556 16.2882 28.8281 15.8554 28.8281 15.8554V15.4408L27.8819 15.0194L27.8801 15.1196Z" fill="#05046A"/>
<path fill-rule="evenodd" clip-rule="evenodd" d="M24.9765 16.0239L29.1338 22.1038L25.0197 29.0356L20.8408 22.1356L24.9765 16.0239Z" fill="#05046A"/>
<path fill-rule="evenodd" clip-rule="evenodd" d="M29.8094 22.0532H39.8558L33.9702 29.2412H25.6191L29.8094 22.0532Z" fill="#05046A"/>
<path fill-rule="evenodd" clip-rule="evenodd" d="M20.1652 22.0532H10.1206L16.0063 29.2412H24.3559L20.1652 22.0532Z" fill="#05046A"/>
<path fill-rule="evenodd" clip-rule="evenodd" d="M25.003 37.6814C25.0163 37.6769 25.0179 37.6674 25.0261 37.6578C25.0547 37.6053 25.0846 37.5574 25.1143 37.5082C27.779 33.6323 35.0442 34.1298 43.2877 34.2874C43.1181 30.462 42.4576 24.7812 40.8899 21.3853C39.4107 18.1116 35.8065 16.0115 32.6204 14.4518C30.6262 13.4755 27.7723 12.4594 26.0907 10.7886C25.5078 10.2132 25.1856 9.68037 25.003 9.25589C24.8205 9.68037 24.4949 10.2132 23.9173 10.7919C22.2322 12.4594 19.3797 13.4755 17.3843 14.4518C14.198 16.0115 10.5938 18.1116 9.11597 21.3853C7.54694 24.7812 6.88797 30.462 6.71866 34.2874C14.9603 34.1298 22.2271 33.6323 24.8902 37.5082C24.9217 37.5574 24.9519 37.6071 24.9797 37.6591C24.9848 37.6688 24.9916 37.6769 25.003 37.6814ZM24.5065 37.7357C22.0247 34.0438 13.1324 34.6272 6.25049 34.7657C6.25049 34.7657 6.3252 32.3698 6.66383 29.6369C7.00085 26.9119 7.61023 23.5777 8.70423 21.212C10.69 16.8145 16.2535 14.477 20.5171 12.5089C24.6345 10.6072 24.7691 8.52771 24.7723 8.33057H25.2338C25.2372 8.52771 25.3716 10.6072 29.4887 12.5089C33.751 14.477 39.3163 16.8145 41.3019 21.212C42.3945 23.5777 43.0036 26.9119 43.3407 29.6369C43.6811 32.3698 43.7556 34.7657 43.7556 34.7657C36.874 34.6272 27.9816 34.0438 25.498 37.7357C25.3451 37.955 25.1822 38.2219 25.0099 38.5387C25.0099 38.5387 24.661 37.955 24.5065 37.7357Z" fill="#05046A"/>
<path fill-rule="evenodd" clip-rule="evenodd" d="M18.3207 32.8948V30.626H17.8208V33.3109H19.9378V32.8948H18.3207Z" fill="#05046A"/>
<path fill-rule="evenodd" clip-rule="evenodd" d="M23.0974 30.626V32.4766C23.0974 32.5928 23.0887 32.6784 23.0725 32.7359C23.0474 32.8311 22.996 32.8854 22.913 32.9075C22.81 32.9359 22.5876 32.9503 22.249 32.9503C22.018 32.9503 21.8622 32.944 21.7824 32.9313C21.6579 32.9105 21.5748 32.8709 21.535 32.8136C21.5117 32.7803 21.487 32.6946 21.487 32.4766V30.626H20.9873V32.4766C20.9873 32.6994 21.017 32.8692 21.0785 32.9808C21.1532 33.116 21.2891 33.2157 21.4818 33.2779C21.5665 33.305 21.6645 33.3241 21.7756 33.3335C21.8837 33.3416 22.063 33.3459 22.3089 33.3459C22.6557 33.3459 22.8947 33.3319 23.0174 33.305C23.25 33.2525 23.4145 33.1429 23.5041 32.9808C23.5656 32.8742 23.5971 32.704 23.5971 32.4766V30.626H23.0974Z" fill="#05046A"/>
<path fill-rule="evenodd" clip-rule="evenodd" d="M27.5934 30.626L26.5574 32.7945L25.526 30.6419L25.518 30.626H24.8008V33.3111H25.3005V31.1712L26.3314 33.2939L26.3399 33.3111H26.7848L27.8191 31.173V33.3111H28.3188V30.626H27.5934Z" fill="#05046A"/>
<path fill-rule="evenodd" clip-rule="evenodd" d="M31.9048 32.0759C31.8184 31.9219 31.6574 31.8232 31.4248 31.7818C31.3139 31.7646 31.1028 31.7499 30.7992 31.739C30.5284 31.7306 30.3623 31.723 30.3077 31.7166C30.1731 31.7022 30.0851 31.6654 30.0554 31.6101C30.0255 31.553 30.0088 31.4685 30.0088 31.3574C30.0088 31.2714 30.02 31.2016 30.0435 31.1506C30.0785 31.0714 30.1649 31.0217 30.2994 31.0029C30.3774 30.9917 30.5551 30.9854 30.8291 30.9854C31.0231 30.9854 31.1579 30.9948 31.2308 31.0106C31.337 31.0362 31.3953 31.0869 31.4149 31.1712C31.4264 31.2173 31.4318 31.3033 31.4318 31.4223V31.4622H31.9315V31.4223C31.9315 31.3191 31.9297 31.2493 31.9279 31.2173C31.9048 30.9184 31.7504 30.7259 31.4698 30.6467C31.337 30.6082 31.093 30.5894 30.7427 30.5894C30.5618 30.5894 30.3991 30.5942 30.2611 30.6034C30.0602 30.618 29.8941 30.6688 29.7664 30.7528C29.5971 30.8644 29.5107 31.0808 29.5107 31.3954C29.5107 31.6147 29.5605 31.7818 29.6601 31.8899C29.7746 32.0171 29.9524 32.0967 30.1916 32.1251C30.2643 32.133 30.4388 32.1424 30.7128 32.1523C30.9849 32.1617 31.1579 32.1696 31.2257 32.1761C31.3468 32.1906 31.4234 32.2254 31.4515 32.2827C31.4748 32.3256 31.4862 32.3954 31.4862 32.489C31.4862 32.7358 31.4501 32.8229 31.4202 32.8551C31.3836 32.8899 31.3238 32.9152 31.2392 32.9297C31.1476 32.9439 30.9867 32.9503 30.7642 32.9503C30.5983 32.9503 30.4537 32.9485 30.3358 32.9439C30.2346 32.9406 30.1598 32.9264 30.1151 32.901C30.0703 32.8741 30.0387 32.8358 30.02 32.7851C30.0006 32.7293 29.9905 32.6387 29.9889 32.5164V32.3781H29.4888V32.4192C29.4943 32.5846 29.4993 32.6943 29.5089 32.7529C29.5489 33.0411 29.7099 33.2255 29.9889 33.3001C30.1034 33.3319 30.3292 33.3459 30.6598 33.3459C30.9305 33.3459 31.1494 33.3399 31.3069 33.3253C31.523 33.308 31.6937 33.241 31.812 33.1286C31.9279 33.0168 31.9862 32.8135 31.9862 32.5227C31.9862 32.3236 31.9597 32.1746 31.9048 32.0759Z" fill="#05046A"/>
</g>
</g>
<defs>
<clipPath id="clip0_2115_2">
<rect width="50" height="50" fill="white"/>
</clipPath>
<clipPath id="clip1_2115_2">
<rect width="37.5" height="30.2083" fill="white" transform="translate(6.25 8.3335)"/>
</clipPath>
</defs>
</svg>
