<svg width="50" height="50" viewBox="0 0 50 50" fill="none" xmlns="http://www.w3.org/2000/svg">
<path d="M22.8236 25.0642C22.8267 25.706 22.7064 26.3422 22.4697 26.9364C22.2329 27.5306 21.8843 28.0712 21.4437 28.5273C21.0031 28.9834 20.4792 29.3461 19.9018 29.5947C19.3245 29.8432 18.705 29.9728 18.0788 29.976C17.4525 29.9792 16.8319 29.856 16.2521 29.6133C15.6724 29.3706 15.1449 29.0133 14.6999 28.5617C13.8012 27.6497 13.2927 26.4091 13.2864 25.1129C13.2562 22.3979 15.5508 19.9929 18.1565 20.1169C18.7811 20.1238 19.398 20.2576 19.9717 20.5107C20.5453 20.7638 21.0643 21.1311 21.4984 21.5913C21.9325 22.0515 22.2732 22.5954 22.5007 23.1916C22.7282 23.7877 22.8379 24.4242 22.8236 25.0642V25.0642Z" fill="#05046A"/>
<path d="M9.59114 25.0594C9.60018 25.7172 9.47913 26.3702 9.23528 26.9788C8.99144 27.5874 8.62986 28.139 8.17234 28.6005C7.71482 29.062 7.17085 29.4237 6.57323 29.6639C5.97561 29.904 5.33671 30.0176 4.69509 29.9978C3.43908 29.9666 2.24487 29.4328 1.36785 28.5108C0.490838 27.5887 0.000662248 26.3515 0.00216078 25.0638C-0.0171073 24.4061 0.0926499 23.7511 0.324927 23.1376C0.557204 22.5242 0.907275 21.9647 1.35439 21.4925C1.8015 21.0203 2.33655 20.6448 2.92784 20.3885C3.51913 20.1321 4.15463 20 4.79665 20C5.43867 20 6.07416 20.1321 6.66545 20.3885C7.25674 20.6448 7.7918 21.0203 8.23891 21.4925C8.68602 21.9647 9.03609 22.5242 9.26837 23.1376C9.50065 23.7511 9.61041 24.4061 9.59114 25.0638V25.0594Z" fill="#5E85BC"/>
<path d="M36.1326 24.9395C36.1406 26.2422 35.6434 27.4948 34.7503 28.4218C33.8572 29.3487 32.6415 29.8741 31.3705 29.8823C30.0994 29.8906 28.8773 29.381 27.9729 28.4656C27.0685 27.5503 26.5559 26.3042 26.5479 25.0015C26.5593 23.6819 27.0796 22.4205 27.9953 21.4927C28.911 20.565 30.1477 20.0463 31.4353 20.0498C32.6832 20.0841 33.8696 20.6126 34.7455 21.5243C35.6213 22.436 36.1185 23.6601 36.1326 24.9395V24.9395Z" fill="#F2AE1C"/>
<path d="M45.1253 29.82C44.5008 29.8495 43.877 29.7466 43.293 29.5178C42.709 29.2891 42.1774 28.9393 41.7312 28.4903C41.2851 28.0414 40.9342 27.503 40.7003 26.9087C40.4664 26.3145 40.3546 25.6772 40.3719 25.0366C40.3778 24.3887 40.5082 23.7483 40.7557 23.152C41.0031 22.5557 41.3627 22.0152 41.8139 21.5614C42.2652 21.1075 42.7992 20.7492 43.3855 20.5069C43.9718 20.2646 44.599 20.143 45.2312 20.1491C45.8634 20.1553 46.4882 20.2889 47.0699 20.5425C47.6517 20.7961 48.1791 21.1647 48.6219 21.6272C49.0647 22.0896 49.4143 22.637 49.6507 23.2379C49.8871 23.8389 50.0057 24.4817 49.9997 25.1296C50.017 27.7738 47.8002 29.8333 45.1253 29.82Z" fill="#F27781"/>
</svg>
