<svg width="50" height="50" viewBox="0 0 50 50" fill="none" xmlns="http://www.w3.org/2000/svg">
<g clip-path="url(#clip0_2115_2)">
<path d="M38.7966 16.354C39.3012 17.0164 39.8104 17.6857 40.1534 18.4437C40.6615 19.569 40.6918 20.9835 39.6884 21.857C39.2012 22.2791 38.6001 22.545 38.0966 22.9449C38.635 23.549 38.4699 24.5472 37.9513 25.1676C37.4327 25.788 36.6584 26.1238 35.9131 26.4375" stroke="#311914" stroke-miterlimit="10"/>
<path d="M19.8426 24.0383C19.3147 23.734 18.7171 23.39 18.2892 22.8897C17.6997 22.2005 17.4753 21.0997 18.2357 20.4187L18.3706 20.3021C18.6613 20.049 18.9636 19.7866 18.9519 19.4356C18.9426 19.1499 18.7322 18.9377 18.509 18.7138C18.3944 18.6062 18.289 18.4892 18.1939 18.3639C18.0374 18.1367 17.9544 17.8667 17.956 17.5905C17.9577 17.3143 18.044 17.0453 18.2032 16.82C18.3416 16.6443 18.5022 16.4875 18.681 16.3535C18.8947 16.2029 19.0758 16.0105 19.2136 15.788C19.4089 15.4148 19.338 14.9903 19.2624 14.5402C19.2263 14.3506 19.2011 14.159 19.1868 13.9665C19.1683 13.4158 19.3315 12.8744 19.651 12.4261C19.9705 11.9779 20.4286 11.6479 20.9541 11.4873L20.9855 11.6039C20.4852 11.7568 20.0492 12.071 19.745 12.4977C19.4408 12.9244 19.2855 13.4399 19.3031 13.9642C19.3173 14.1523 19.3418 14.3396 19.3763 14.5251C19.4519 14.9752 19.5298 15.4393 19.3159 15.8474C19.1708 16.0838 18.9798 16.2884 18.7543 16.4492C18.5837 16.5762 18.4298 16.7243 18.2962 16.89C18.1514 17.0956 18.073 17.3408 18.0716 17.5924C18.0701 17.8441 18.1457 18.0902 18.288 18.2975C18.38 18.4186 18.4815 18.532 18.5915 18.6368C18.824 18.87 19.0566 19.1033 19.0682 19.4356C19.081 19.8438 18.7438 20.1353 18.4462 20.3953C18.4008 20.4338 18.3566 20.4735 18.3136 20.512C17.616 21.1428 17.8241 22.1725 18.3776 22.8197C18.7927 23.3048 19.3554 23.629 19.9007 23.9427L19.8426 24.0383Z" fill="#311914"/>
<path d="M39.9584 20.4319C39.8337 21.0778 39.53 21.6753 39.082 22.1559C38.6341 22.6365 38.0601 22.9807 37.426 23.1489C37.5828 23.4964 37.6689 23.8716 37.6794 24.2528C37.69 24.634 37.6247 25.0135 37.4874 25.3691C37.3501 25.7247 37.1435 26.0494 36.8798 26.324C36.616 26.5987 36.3004 26.8179 35.9512 26.9689C35.6021 27.1198 35.2264 27.1995 34.8462 27.2033C34.466 27.207 34.0889 27.1348 33.7368 26.9908C33.3848 26.8467 33.0648 26.6338 32.7957 26.3644C32.5266 26.095 32.3137 25.7745 32.1695 25.4217C32.1033 25.2689 32.0508 25.1104 32.0125 24.9483C31.8213 25.0211 31.6131 25.0362 31.4135 24.9916C31.2139 24.9471 31.0317 24.8448 30.8893 24.6976C30.6077 24.4046 30.415 24.0374 30.3336 23.6387C30.1477 22.8441 30.1453 22.0173 30.3267 21.2217C30.508 20.426 30.8683 19.6824 31.38 19.0477C31.9114 18.362 32.6915 18.1054 33.2601 17.5317C33.4053 17.3797 33.5257 17.2058 33.617 17.0163C33.085 16.5356 32.7042 15.9098 32.5212 15.2155C32.3382 14.5212 32.361 13.7884 32.5867 13.1069C32.8124 12.4253 33.2313 11.8246 33.7921 11.378C34.3529 10.9315 35.0314 10.6586 35.7444 10.5927C36.4574 10.5268 37.1742 10.6708 37.8069 11.0071C38.4396 11.3433 38.9609 11.8572 39.307 12.486C39.653 13.1147 39.8089 13.8309 39.7555 14.5471C39.702 15.2633 39.4416 15.9483 39.0061 16.5183C39.0457 16.5743 39.084 16.635 39.1224 16.6933C39.5025 17.2294 39.7722 17.8362 39.9157 18.4781C40.0593 19.1201 40.0738 19.7843 39.9584 20.4319Z" fill="#311914"/>
<path d="M18.9759 17.1244C18.8978 17.2977 18.8367 17.4781 18.7934 17.6632C18.61 18.436 18.7255 19.2498 19.1166 19.9406C19.2204 20.0801 19.2771 20.2493 19.2782 20.4234C19.2782 20.631 19.0643 20.7732 18.912 20.9318C17.6063 22.3032 19.4247 24.7147 21.0118 24.7089C21.2443 24.7089 21.5432 24.7089 21.6222 24.9107C21.6642 25.0153 21.6767 25.1294 21.6583 25.2407C21.6647 25.9665 21.9559 26.6605 22.4688 27.1725C22.9817 27.6846 23.6751 27.9734 24.3987 27.9764C25.1136 27.9444 25.8043 27.707 26.3885 27.2925C26.9727 26.878 27.4258 26.3038 27.6938 25.6383C28.6089 23.5206 27.6938 21.4403 27.0404 19.4077C26.6593 17.911 26.0847 16.4706 25.3312 15.1234C24.5255 13.8138 22.5977 10.6921 20.6932 11.7696C20.3781 11.9666 20.1142 12.2358 19.9232 12.5551C19.7322 12.8744 19.6195 13.2347 19.5945 13.6062C19.5557 14.358 19.7329 15.1051 20.1049 15.7589C19.6042 16.0943 19.2119 16.5688 18.9759 17.1244V17.1244Z" fill="#311914"/>
<path d="M32.7214 21.6177C32.7818 22.5982 32.7818 23.5816 32.7214 24.5621C32.711 25.7376 32.5365 26.9057 32.2028 28.0325C32.0579 28.5669 31.7982 29.063 31.4419 29.4861C31.0856 29.9091 30.6413 30.2488 30.1402 30.4814C29.714 30.6161 29.2683 30.678 28.8217 30.6645C27.3997 30.6645 25.6731 29.9846 25.0743 28.3136C24.8064 27.3244 24.773 26.2861 24.9767 25.2816C24.9871 25.105 25.0096 24.9293 25.0441 24.7557C26.0267 25.0036 27.0496 25.0468 28.0495 24.8825C29.0495 24.7183 30.0052 24.35 30.8576 23.8007C31.5224 23.3859 32.0739 22.8116 32.4621 22.1296C32.5447 21.9395 32.6423 21.7821 32.7214 21.6177Z" fill="#EC9585"/>
<path d="M32.7214 21.7344C32.6424 21.9 32.5447 22.0586 32.4528 22.2301C32.0643 22.9118 31.5129 23.486 30.8483 23.9011C29.9959 24.4505 29.0402 24.8187 28.0403 24.983C27.0404 25.1472 26.0175 25.1041 25.0348 24.8562C25.0314 24.8034 25.0314 24.7504 25.0348 24.6976C25.1511 23.8346 25.279 22.9717 25.3581 22.1088C25.3941 21.717 25.4255 21.331 25.4371 20.9426C25.4716 20.3692 25.6397 19.8118 25.9281 19.3154C26.2165 18.8189 26.617 18.3973 27.0975 18.0845C27.8909 17.7443 28.7778 17.6923 29.6054 17.9375C30.1181 18.0223 30.6168 18.1769 31.0878 18.397C31.5013 18.6062 31.8598 18.9103 32.1343 19.2844C32.4149 19.7518 32.5748 20.2821 32.5993 20.8272C32.6028 20.8414 32.6028 20.8562 32.5993 20.8703C32.6671 21.1539 32.708 21.4432 32.7214 21.7344Z" fill="#DB857B"/>
<path d="M34.3134 18.4409C34.3134 18.4502 34.3064 18.4595 34.3041 18.4689C34.2762 18.5412 34.2483 18.6146 34.2192 18.6858C33.1809 21.2571 30.8125 23.0541 28.0569 23.0541C24.3944 23.0541 21.4144 19.8799 21.3354 15.9314C21.2272 13.3845 22.0179 8.48682 22.0179 8.48682H34.1099C34.1099 8.48682 34.5401 12.5613 34.7226 14.8515C34.7226 14.8632 34.7226 14.8737 34.7226 14.8842C34.8277 16.0853 34.6884 17.2953 34.3134 18.4409V18.4409Z" fill="#EC9585"/>
<path d="M26.3905 17.6144L25.022 17.2529L26.3126 12.7563L26.5242 12.817L25.2952 17.0978L26.4463 17.4022L26.3905 17.6144Z" fill="#311914"/>
<path d="M28.6359 14.8656C28.9095 14.8656 29.1312 14.6432 29.1312 14.3688C29.1312 14.0945 28.9095 13.8721 28.6359 13.8721C28.3624 13.8721 28.1406 14.0945 28.1406 14.3688C28.1406 14.6432 28.3624 14.8656 28.6359 14.8656Z" fill="#311914"/>
<path d="M23.5318 14.368C23.8285 14.368 24.069 14.1268 24.069 13.8293C24.069 13.5317 23.8285 13.2905 23.5318 13.2905C23.2351 13.2905 22.9946 13.5317 22.9946 13.8293C22.9946 14.1268 23.2351 14.368 23.5318 14.368Z" fill="#311914"/>
<path d="M35.7111 18.9824C35.6541 19.1317 35.6157 19.2156 35.6157 19.2156C35.6483 19.141 35.6797 19.0594 35.7111 18.9824Z" fill="#EC9585"/>
<path d="M30.4637 13.7509C30.3914 13.7605 30.3179 13.7475 30.2532 13.7136L28.6476 12.8589C28.6062 12.8379 28.5693 12.8088 28.5393 12.7734C28.5092 12.738 28.4865 12.6969 28.4724 12.6526C28.4584 12.6082 28.4533 12.5615 28.4575 12.5152C28.4616 12.4689 28.475 12.4238 28.4967 12.3827C28.5184 12.3416 28.5481 12.3053 28.584 12.2758C28.6199 12.2464 28.6613 12.2244 28.7058 12.2112C28.7502 12.198 28.7969 12.1938 28.843 12.1989C28.8891 12.204 28.9337 12.2182 28.9743 12.2408L30.58 13.0956C30.645 13.1303 30.6975 13.1849 30.7297 13.2514C30.762 13.3178 30.7724 13.3929 30.7595 13.4657C30.7465 13.5385 30.711 13.6053 30.6578 13.6565C30.6047 13.7078 30.5367 13.7408 30.4637 13.7509Z" fill="#311914"/>
<path d="M22.6853 12.8436C22.6395 12.8472 22.5934 12.8417 22.5497 12.8274C22.5061 12.8132 22.4656 12.7904 22.4307 12.7605C22.3601 12.7 22.3164 12.6139 22.3092 12.5211C22.3056 12.4752 22.3111 12.429 22.3253 12.3852C22.3395 12.3413 22.3622 12.3008 22.392 12.2657C22.4523 12.195 22.5381 12.1511 22.6307 12.1439L24.4247 11.8535C24.47 11.8459 24.5163 11.8472 24.5611 11.8575C24.6058 11.8678 24.6481 11.8869 24.6855 11.9136C24.7229 11.9402 24.7547 11.9741 24.7791 12.0131C24.8035 12.0521 24.8199 12.0956 24.8276 12.141C24.8352 12.1864 24.8339 12.2328 24.8236 12.2777C24.8133 12.3226 24.7943 12.365 24.7677 12.4025C24.7411 12.44 24.7074 12.4719 24.6685 12.4964C24.6296 12.5208 24.5862 12.5374 24.541 12.545L22.7411 12.8436C22.7226 12.8453 22.7039 12.8453 22.6853 12.8436V12.8436Z" fill="#311914"/>
<path d="M25.7893 14.1521C25.844 13.6968 25.7983 13.235 25.6556 12.7994C25.5396 12.4492 25.3365 12.1345 25.0655 11.885C24.7946 11.6354 24.4646 11.4593 24.1069 11.3732C24.0302 11.3547 23.9525 11.3403 23.8743 11.3301C23.6911 11.3149 23.5069 11.3184 23.3244 11.3406C23.0284 11.375 22.7399 11.4569 22.4698 11.5831L22.421 11.6053L22.3989 11.6169C21.9576 11.8376 21.5825 12.1715 21.3117 12.5848C21.0485 12.9698 20.8774 13.4106 20.8119 13.8728C20.7463 14.3349 20.7881 14.8061 20.9339 15.2494C21.0651 15.6521 21.2983 16.0137 21.6106 16.2989C21.7122 16.3912 21.821 16.475 21.9361 16.5496C22.1321 16.662 22.3443 16.7431 22.5651 16.7899C22.9743 16.8743 23.3983 16.8501 23.7953 16.7199C24.2131 16.5595 24.5921 16.3115 24.9069 15.9926C25.2216 15.6737 25.465 15.2911 25.6207 14.8704C25.704 14.6382 25.7606 14.3972 25.7893 14.1521ZM24.9626 15.3987C24.6498 15.865 24.1975 16.2198 23.6709 16.412C23.4148 16.5021 23.1425 16.5363 22.8723 16.5124C22.602 16.4884 22.3399 16.4069 22.1035 16.2733C21.9432 16.1691 21.7977 16.0436 21.671 15.9001C21.4784 15.6827 21.3342 15.4267 21.2478 15.1491C21.1189 14.7562 21.0813 14.339 21.1379 13.9293C21.1946 13.5196 21.3439 13.1283 21.5745 12.7854C21.7654 12.5005 22.0123 12.2576 22.3 12.0717C22.744 11.7842 23.2677 11.6461 23.7953 11.6776H23.8208L23.9859 11.7126V11.6951C24.0916 11.7192 24.1947 11.7532 24.2941 11.7965C24.5377 11.9001 24.756 12.0553 24.934 12.2516C25.112 12.4479 25.2456 12.6805 25.3254 12.9335C25.3254 12.9393 25.3254 12.9475 25.3254 12.9533C25.4795 13.4079 25.5088 13.8957 25.4103 14.3655V14.3655C25.3353 14.7377 25.1828 15.0898 24.9626 15.3987Z" fill="white"/>
<path d="M32.2298 14.9616C32.3122 14.4516 32.2561 13.9288 32.0672 13.4482C31.8783 12.9676 31.5638 12.5469 31.1566 12.2305C31.102 12.1827 31.0404 12.1372 30.9869 12.0941C30.449 11.7045 29.7792 11.5447 29.124 11.6496C28.4689 11.7545 27.882 12.1157 27.4918 12.6538C27.2559 12.954 27.072 13.2918 26.9477 13.6532C26.885 13.839 26.8379 14.0297 26.807 14.2234C26.7495 14.5959 26.7542 14.9754 26.821 15.3464C26.8454 15.463 26.8698 15.5726 26.9012 15.6799C27.0111 16.1179 27.2427 16.5156 27.5692 16.8267C27.8956 17.1378 28.3035 17.3495 28.7452 17.4373C28.9801 17.4875 29.2205 17.5059 29.4603 17.4921C29.8799 17.4541 30.2874 17.3311 30.6583 17.1307C31.0292 16.9303 31.3558 16.6565 31.6182 16.3259L31.6636 16.27C31.9604 15.8894 32.1553 15.439 32.2298 14.9616V14.9616ZM31.3706 16.0951C31.138 16.3889 30.8484 16.6324 30.5192 16.8106C30.19 16.9888 29.8282 17.098 29.4556 17.1317C28.9601 17.1794 28.4639 17.0484 28.0561 16.7622C27.6482 16.4761 27.3554 16.0535 27.2302 15.5703C27.2023 15.4747 27.1826 15.3744 27.1628 15.2694C27.0859 14.847 27.1 14.413 27.2041 13.9965C27.3081 13.5799 27.4998 13.1905 27.7662 12.8544C28.0041 12.5142 28.3347 12.2499 28.7185 12.0934C29.1022 11.9368 29.5229 11.8945 29.93 11.9716C30.3006 12.0572 30.6464 12.2276 30.9404 12.4696L31.0067 12.522C31.0753 12.5792 31.1415 12.6387 31.2031 12.7005C31.2531 12.7518 31.3031 12.8054 31.3485 12.8602C31.7261 13.3128 31.9351 13.8831 31.9396 14.4732C31.944 15.0634 31.7437 15.6368 31.3729 16.0951H31.3706Z" fill="white"/>
<path d="M25.6208 14.2164C25.5773 14.2056 25.5397 14.178 25.5164 14.1395C25.4931 14.101 25.4859 14.0549 25.4964 14.0111V14.0111C25.541 13.8096 25.6582 13.6318 25.8256 13.5118C25.9931 13.3918 26.1988 13.3382 26.4033 13.3612C26.6078 13.3842 26.7966 13.4822 26.9333 13.6365C27.07 13.7907 27.1451 13.9902 27.144 14.1965C27.1434 14.2423 27.1249 14.2861 27.0925 14.3183C27.0601 14.3506 27.0164 14.3688 26.9707 14.3691C26.9268 14.3688 26.8848 14.3514 26.8535 14.3204C26.8222 14.2895 26.8042 14.2476 26.8033 14.2035C26.815 14.0738 26.7753 13.9446 26.693 13.8439C26.6106 13.7432 26.4921 13.679 26.3629 13.665C26.2338 13.6511 26.1043 13.6886 26.0025 13.7695C25.9007 13.8504 25.8346 13.9682 25.8185 14.0974C25.8052 14.1377 25.7779 14.1718 25.7417 14.1937C25.7054 14.2155 25.6625 14.2235 25.6208 14.2164V14.2164Z" fill="white"/>
<path d="M32.3981 13.281C32.69 13.4862 33.0334 13.6051 33.3894 13.6245C33.7453 13.6439 34.0995 13.5629 34.4119 13.3907C34.7636 13.2675 35.0785 13.0569 35.3269 12.7784C35.3758 12.7236 35.7722 11.9458 35.699 11.94C36.2833 11.9487 36.8492 11.7351 37.2828 11.3422C37.7164 10.9493 37.9855 10.4062 38.036 9.82231C38.0363 9.35109 37.8988 8.89012 37.6408 8.49636C37.3827 8.10259 37.0152 7.79329 36.5838 7.60667C35.7699 7.15422 36.1013 6.07672 35.6862 5.23128C35.2347 4.42902 34.5179 3.81027 33.6596 3.48209C32.5958 2.99436 31.4264 2.78378 30.2599 2.86987C29.0959 2.97494 28.0106 3.50384 27.209 4.35668C26.4725 3.60576 25.4814 3.15997 24.4325 3.10776C23.9198 3.09938 23.4146 3.23159 22.9714 3.49012C22.5282 3.74866 22.1638 4.12369 21.9175 4.57475C21.7604 4.85132 21.7167 5.17831 21.7955 5.48666C21.5158 5.39833 21.2145 5.40701 20.9403 5.5113C20.6661 5.61559 20.4349 5.80942 20.284 6.06156C20.1515 6.3241 20.0745 6.61121 20.0577 6.90495C20.0409 7.19869 20.0847 7.49276 20.1863 7.76877C20.3357 8.31163 20.6936 8.77293 21.1816 9.0515C20.5037 9.17395 19.9607 9.57743 20.077 10.2759C20.127 10.6738 20.2933 11.048 20.555 11.3513C20.8167 11.6545 21.162 11.8733 21.5474 11.98C21.9329 12.0868 22.3412 12.0767 22.7209 11.9511C23.1007 11.8255 23.4349 11.5899 23.6814 11.2741C24.2767 11.7197 25.0242 11.91 25.7594 11.8031C26.4946 11.6961 27.1573 11.3008 27.602 10.7039C27.6799 10.5992 27.7506 10.4894 27.8136 10.3751C27.8838 10.7063 28.0603 11.0054 28.3161 11.2265C28.5718 11.4476 28.8927 11.5786 29.2297 11.5995C29.6557 11.6368 30.0848 11.5913 30.4936 11.4654C30.9877 11.3243 31.104 11.1284 31.3179 11.5878C31.6354 12.2222 31.7935 12.8437 32.3981 13.281Z" fill="#311914"/>
<path d="M35.6145 12.7598C35.3918 13.7719 34.8907 14.701 34.1681 15.4419C32.767 16.8412 32.7217 12.5103 32.7217 12.5103" fill="#311914"/>
<path d="M34.0317 24.7917C33.94 24.9947 33.9143 25.2216 33.9585 25.4401C34.1167 26.4413 34.1002 27.4625 33.9097 28.458C33.7112 29.1865 33.3447 29.8581 32.8397 30.4183C32.3348 30.9786 31.7056 31.412 31.0029 31.6835C29.9716 32.036 28.8754 32.1555 27.7927 32.0333C26.0676 31.9683 24.4039 31.3745 23.0257 30.332C22.7284 30.0952 22.4709 29.8121 22.2629 29.4935C22.0092 29.0574 21.8552 28.5703 21.8118 28.0673C21.6966 27.1194 21.8292 26.1578 22.1967 25.2768C22.3841 24.8346 22.6348 24.4221 22.9408 24.0524C23.3559 23.9789 23.7651 23.9183 24.1616 23.8693L24.5767 23.8203V24.3159C24.5842 24.5688 24.6504 24.8164 24.7701 25.0391C24.8898 25.2618 25.0597 25.4534 25.2662 25.5987C25.7286 25.8797 26.2478 26.0534 26.7858 26.1071C28.0189 26.3364 29.2862 26.305 30.5065 26.015C31.15 25.8441 31.7577 25.5585 32.3005 25.1719C32.5824 24.9924 32.8443 24.7833 33.0818 24.548C33.2469 24.3579 33.326 24.2541 33.4306 24.2051L33.705 24.2599L34.1875 24.3579C34.1887 24.3781 34.1887 24.3983 34.1875 24.4185C34.2271 24.5526 34.0992 24.6693 34.0317 24.7917Z" fill="#C35361"/>
<path d="M20.0122 24.4697L7.85156 41.5162L15.9323 43.7283H22.555L28.2906 42.3849L20.0122 24.4697Z" fill="#9D4B57"/>
<path d="M47.655 45.3531C46.054 46.3058 43.8111 46.7641 40.6846 46.0155C39.8973 45.7988 39.1608 45.4272 38.518 44.9223C37.8753 44.4174 37.3391 43.7893 36.9408 43.0745C36.9326 43.0453 36.9256 43.0162 36.9187 42.987C36.9012 42.9194 36.8861 42.8529 36.8733 42.7865C36.8733 42.7935 36.8733 42.8098 36.8733 42.8331C36.8733 42.8564 36.8733 42.8879 36.8791 42.9276C36.8791 42.9369 36.8791 42.9474 36.8791 42.9579C36.8791 42.9882 36.8791 43.0232 36.8861 43.064C36.8931 43.1048 36.8861 43.1165 36.8861 43.1456C36.8861 43.1748 36.8861 43.2063 36.8931 43.2389C36.9001 43.2716 36.8931 43.3054 36.9012 43.3404C36.9094 43.3754 36.907 43.4127 36.9105 43.457C36.9187 43.5526 36.928 43.6552 36.9384 43.7672C36.9384 43.8185 36.9489 43.8721 36.9535 43.9269C36.9582 43.9817 36.9617 44.0097 36.9663 44.0529L36.9768 44.152C36.9884 44.25 37.0001 44.3514 37.0117 44.4575C37.0117 44.4832 37.0117 44.5112 37.021 44.5427L37.0315 44.6196C37.0408 44.6989 37.0512 44.7794 37.0605 44.8622C37.0698 44.945 37.0814 45.0278 37.0931 45.1129C37.1047 45.198 37.1175 45.2855 37.1303 45.3729C37.1431 45.4604 37.1559 45.549 37.1698 45.6388C37.1884 45.7554 37.2082 45.8802 37.2279 46.0015C37.2477 46.1228 37.2698 46.2487 37.2919 46.3723C37.3 46.4178 37.3082 46.4633 37.3175 46.5087C37.3396 46.6254 37.364 46.7513 37.3884 46.8737C37.4058 46.9647 37.4256 47.0568 37.4465 47.1489H15.5576C15.6506 46.9332 15.7402 46.7175 15.8274 46.5041C16.0332 46.0038 16.2262 45.5082 16.4087 45.0208L16.554 44.615C17.297 42.5159 17.776 40.565 17.9249 38.9243C17.9353 38.8216 17.9423 38.719 17.9493 38.6187C17.9597 38.4625 17.9679 38.3097 17.9714 38.1593C17.9877 37.5762 17.9923 36.9733 17.9946 36.3868V36.2317C17.9946 36.0206 17.9946 35.8119 17.9946 35.6031C17.9946 35.0702 18.0028 34.5536 18.019 34.072V34.0673C18.019 34.0545 18.019 34.0405 18.019 34.0277C18.0342 33.5822 18.0586 33.1671 18.0993 32.7939C18.1216 32.6022 18.1546 32.4118 18.1981 32.2237C18.5016 30.913 19.3317 29.2338 20.0712 27.8717C20.0712 27.8717 20.0712 27.8717 20.0712 27.8647C20.3258 27.3983 20.5688 26.9668 20.7746 26.603L20.913 26.3604L21.0293 26.1598C21.2025 25.8543 21.3269 25.6293 21.3781 25.5138L21.4269 25.48C21.8362 25.1861 22.4908 24.673 22.9582 25.1733C23.1686 25.3972 23.2407 25.7156 23.3151 26.0141C23.8113 27.9787 24.8027 29.7825 26.194 31.2523C26.9613 32.0593 27.9752 32.7986 29.0809 32.6762C30.5355 32.5152 31.3889 31.0121 32.1039 29.7282C32.6704 28.6986 33.295 27.7023 33.9747 26.7441C34.663 25.7774 35.4397 25.438 36.428 26.1377C36.6218 26.2745 36.8195 26.4199 37.021 26.5738C37.1117 26.6415 37.2024 26.7114 37.2942 26.7837C37.8941 27.2528 38.4686 27.7538 39.015 28.2845L39.1127 28.3802C39.7159 28.972 40.2835 29.5993 40.8125 30.2588C43.1333 33.1473 45.5552 39.898 47.655 45.3531Z" fill="#C35361"/>
<path d="M37.4573 47.1475H34.9598C34.9424 46.9283 34.9273 46.7125 34.911 46.5026C34.8726 45.9802 34.8378 45.4869 34.8075 45.0193C34.7982 44.8817 34.7901 44.7465 34.7819 44.6135C34.6285 42.1926 34.5785 40.4668 34.5913 38.9263C34.5913 38.6021 34.5982 38.2873 34.6064 37.9759C34.6273 37.1713 34.6634 36.3888 34.7099 35.5492C34.7099 35.5189 34.7099 35.4886 34.7099 35.4571C34.9284 31.5214 35.3563 29.6265 35.3563 29.6265C35.3563 29.8084 35.3563 29.9903 35.3563 30.1722C35.3563 31.7173 35.4261 33.2438 35.5575 34.7388C35.5575 34.7714 35.5633 34.8041 35.5668 34.8367C35.6296 35.5496 35.7071 36.2543 35.7993 36.9509C36.0506 38.9127 36.4093 40.8592 36.8736 42.7815V42.7815C36.8736 42.7885 36.8736 42.8049 36.8736 42.827C36.8736 42.8492 36.8736 42.8818 36.8795 42.9203C36.8795 42.9296 36.8795 42.9401 36.8795 42.9506C36.8795 42.9809 36.8818 43.0159 36.8864 43.0556C36.8864 43.0812 36.8864 43.108 36.8864 43.1372C36.8864 43.1664 36.8864 43.1978 36.8934 43.2305C36.9004 43.2631 36.8934 43.297 36.9015 43.3319C36.9097 43.3669 36.9074 43.4042 36.9108 43.4486C36.919 43.5442 36.9283 43.6468 36.9388 43.7587C36.9388 43.8101 36.948 43.8637 36.9539 43.9185C36.9597 43.9733 36.962 44.0013 36.9667 44.0444C36.9794 44.1751 36.9946 44.3138 37.012 44.4596C37.012 44.4829 37.012 44.5062 37.0213 44.5296C37.0213 44.5552 37.0271 44.5809 37.0306 44.6065C37.0399 44.6858 37.0492 44.7663 37.0608 44.8491C37.0725 44.9319 37.0818 45.0147 37.0934 45.0998C37.105 45.1849 37.1166 45.2712 37.1306 45.3598C37.1445 45.4485 37.1562 45.5359 37.1701 45.6257C37.1887 45.7423 37.2073 45.8671 37.2283 45.9884C37.2492 46.1097 37.2701 46.2356 37.2922 46.3592C37.3003 46.4047 37.3085 46.4502 37.3178 46.4956C37.3399 46.6123 37.3643 46.7382 37.3887 46.8606C37.4166 46.9633 37.4364 47.0554 37.4573 47.1475Z" fill="#9D4B57"/>
<path d="M21.4142 25.4155C21.4084 25.4249 21.3933 25.4575 21.37 25.51L21.2944 25.566C21.334 25.5111 21.3712 25.461 21.4142 25.4155Z" fill="#9D4B57"/>
<path d="M34.0107 25.3669C33.919 25.5699 33.8933 25.7968 33.9375 26.0153C34.0957 27.0165 34.0792 28.0377 33.8887 29.0332C33.6902 29.7617 33.3237 30.4332 32.8187 30.9935C32.3138 31.5538 31.6846 31.9872 30.9819 32.2587C29.9506 32.6112 28.8544 32.7306 27.7717 32.6085C26.0467 32.5435 24.3829 31.9497 23.0047 30.9072C22.7074 30.6704 22.4499 30.3873 22.2419 30.0687C21.9882 29.6326 21.8342 29.1455 21.7908 28.6425C21.6756 27.6946 21.8082 26.733 22.1757 25.852C22.3631 25.4098 22.6138 24.9973 22.9198 24.6276V24.6276C23.3349 24.5541 23.7441 24.4935 24.1406 24.4445L24.5557 24.3955V24.8911C24.5632 25.144 24.6294 25.3916 24.7491 25.6143C24.8688 25.837 25.0387 26.0286 25.2452 26.1739C25.7076 26.4549 26.2268 26.6286 26.7648 26.6823C27.9979 26.9116 29.2652 26.8802 30.4855 26.5902C31.1287 26.4208 31.7364 26.1368 32.2795 25.7517C32.5614 25.5723 32.8233 25.3631 33.0608 25.1278C33.2259 24.9378 33.305 24.834 33.4096 24.785L33.684 24.8398L34.1665 24.9378C34.1677 24.958 34.1677 24.9782 34.1665 24.9984C34.2061 25.1278 34.077 25.2444 34.0107 25.3669Z" fill="#C35361"/>
<path d="M39.2338 27.5368C38.9319 30.3576 37.6124 32.9704 35.5236 34.8834C33.4244 36.7769 30.7178 37.8526 27.8952 37.9153C26.8487 37.9176 25.8038 37.8338 24.771 37.6646C23.9784 37.5561 23.1949 37.3885 22.427 37.1632C20.9295 36.6967 18.9576 35.0245 18.4925 33.3849C17.8669 31.1798 17.7809 30.1524 18.3099 27.9648C18.5494 26.9736 19.2819 25.2267 20.0121 24.4804C20.7795 23.6886 21.0225 23.6886 21.6492 23.8052L21.9794 23.867C22.0899 23.8869 22.2119 23.9067 22.348 23.9253C22.4838 23.9439 22.6215 23.9439 22.7572 23.9253C23.2873 23.8219 23.8304 23.8026 24.3664 23.8682C24.5558 23.9125 24.7266 24.0153 24.8547 24.1621C24.9779 24.3664 25.0355 24.6037 25.0199 24.8419C25.0326 26.0593 24.7641 27.4307 25.3128 28.5572C25.5389 29.0286 25.8719 29.4402 26.2852 29.7592C26.6986 30.0782 27.1807 30.2955 27.6929 30.3938C28.4608 30.5583 29.2617 30.4554 29.9636 30.1023C30.7934 29.5998 31.4365 28.8389 31.7949 27.9356C31.9716 27.489 32.1239 27.0179 32.2704 26.5584C32.4599 25.9462 32.6192 25.334 32.7529 24.7218C32.7818 24.5034 32.8589 24.2943 32.9785 24.1096C33.2959 23.6933 34.0773 23.7912 34.5168 23.8892C35.1131 24.0182 35.6573 24.3232 36.0794 24.7649C36.1235 24.8254 36.1713 24.883 36.2224 24.9375V24.9375C36.3203 25.0483 36.4281 25.1498 36.5445 25.2407C36.6462 25.3205 36.7538 25.3922 36.8666 25.4553C37.3491 25.6454 37.913 25.376 38.4048 25.5288C38.5886 25.5934 38.7543 25.7012 38.888 25.8433C39.0217 25.9853 39.1195 26.1573 39.1733 26.345C39.2707 26.7346 39.2912 27.1394 39.2338 27.5368V27.5368Z" fill="#FBDEB0"/>
<path d="M30.3813 32.318C29.4802 32.7135 28.5081 32.9202 27.5245 32.9256C26.9604 32.9248 26.3987 32.8527 25.8526 32.711C25.0901 32.5196 24.3735 32.1773 23.7448 31.7043C23.116 31.2313 22.5878 30.6371 22.1912 29.9566C21.1529 28.1211 21.2611 25.9463 21.6494 23.8076L21.9796 23.8694C21.6064 25.9451 21.4971 28.0407 22.4842 29.791C22.856 30.4292 23.3508 30.9868 23.9397 31.4313C24.5286 31.8757 25.1998 32.1982 25.9142 32.3798C27.3571 32.747 28.8813 32.6155 30.2406 32.0067C30.2818 31.9881 30.3286 31.9866 30.3709 32.0026C30.4131 32.0185 30.4474 32.0506 30.4661 32.0918C30.4829 32.1333 30.4834 32.1796 30.4677 32.2215C30.452 32.2634 30.4211 32.2979 30.3813 32.318Z" fill="#F7BD57"/>
<path d="M36.5445 25.236C36.4731 26.1484 36.2633 27.0446 35.9225 27.8936C35.2045 29.9516 33.9733 31.791 32.346 33.2368C30.792 34.5925 28.8137 35.3595 26.7546 35.4046H26.3454C25.2507 35.3455 24.1874 35.0166 23.2496 34.4471C22.3119 33.8776 21.5286 33.085 20.969 32.1395C20.9489 32.1003 20.9447 32.0549 20.9573 32.0127C20.9699 31.9705 20.9983 31.9349 21.0365 31.9132C21.0728 31.8917 21.1161 31.8854 21.157 31.8957C21.1979 31.9059 21.2331 31.9319 21.2551 31.968L21.2632 31.982C21.8025 32.8754 22.5528 33.6219 23.4478 34.1555C24.3429 34.6892 25.3552 34.9936 26.3953 35.042C28.5105 35.1096 30.5722 34.368 32.1623 32.9674C33.7358 31.5578 34.9247 29.7689 35.6167 27.77C35.9804 26.866 36.1854 25.9057 36.2225 24.9316C36.3202 25.0428 36.4281 25.1447 36.5445 25.236V25.236Z" fill="#F7BD57"/>
<path d="M15.9323 43.7295H19.8762C19.8762 43.7295 20.2913 45.8635 19.253 45.8635C18.2147 45.8635 14.894 45.3971 14.894 45.3971L15.9323 43.7295Z" fill="#B8C0C3"/>
<path d="M12.7138 30.3532C12.7138 30.3532 11.0302 26.9773 13.0777 26.814C14.4009 26.7091 14.495 28.2961 14.9462 30.3532C15.7345 33.9554 17.5401 44.875 17.5401 44.875C17.5401 44.875 17.6959 46.1239 19.2528 45.8638H6.59103C6.59103 45.8638 5.08534 45.7601 4.92954 44.0937C4.77374 42.4273 2.80762 30.1281 2.80762 30.1281L12.7138 30.3532Z" fill="#DEE3DD"/>
<path d="M4.05406 35.0804C4.05406 35.0804 2.74951 31.912 2.16003 31.7546C1.57054 31.5972 0.943848 31.8934 0.943848 31.8934C0.943848 31.8934 2.52744 34.0577 2.24142 34.6571C1.95539 35.2565 1.06012 36.9275 2.21933 37.4383C2.21933 37.4383 1.02059 38.9018 2.43442 39.3636C2.43442 39.3636 1.55078 40.7104 2.90648 41.2737C2.90648 41.2737 2.17166 42.4177 3.54131 42.6882C4.91097 42.9587 7.16311 42.3675 7.85143 41.5162C8.53974 40.665 8.44789 40.2195 7.44564 40.1519C7.44564 40.1519 8.93506 39.3076 8.65834 38.3969C8.46184 37.7508 7.06195 38.1077 7.06195 38.1077C7.06195 38.1077 8.63508 37.2249 8.43859 36.4063C8.25372 35.632 6.83639 36.0215 6.83639 36.0215C6.83639 36.0215 7.80724 35.274 7.38984 34.5323C7.1573 34.1218 6.46898 34.4997 5.5551 34.8472C4.64122 35.1947 4.05406 35.0804 4.05406 35.0804Z" fill="#EC9585"/>
<path d="M2.98573 37.6824C2.76779 37.6914 2.55009 37.6594 2.34392 37.5879C2.31555 37.5757 2.29318 37.5527 2.28174 37.5239C2.27029 37.4951 2.2707 37.463 2.28288 37.4345C2.29506 37.4061 2.31801 37.3837 2.34669 37.3722C2.37536 37.3607 2.4074 37.3611 2.43577 37.3733C2.45205 37.3803 3.79148 37.8993 6.6145 36.0358C6.62724 36.0272 6.64153 36.0213 6.65656 36.0183C6.67159 36.0153 6.68706 36.0154 6.70208 36.0184C6.7171 36.0214 6.73137 36.0274 6.74408 36.036C6.75678 36.0446 6.76767 36.0556 6.77612 36.0684C6.78458 36.0813 6.79042 36.0957 6.7933 36.1108C6.79619 36.1259 6.79606 36.1415 6.79292 36.1565C6.78979 36.1716 6.78371 36.1859 6.77504 36.1986C6.76637 36.2113 6.75527 36.2221 6.7424 36.2305C4.90069 37.4491 3.66707 37.6824 2.98573 37.6824Z" fill="#BA6963"/>
<path d="M3.05988 39.5388C2.90925 39.5418 2.75866 39.5313 2.60992 39.5073C2.59465 39.5044 2.58009 39.4986 2.56706 39.4901C2.55403 39.4817 2.5428 39.4707 2.534 39.4579C2.5252 39.445 2.51901 39.4306 2.51578 39.4154C2.51254 39.4001 2.51233 39.3844 2.51516 39.3691C2.51798 39.3538 2.52379 39.3392 2.53224 39.3261C2.54069 39.313 2.55163 39.3018 2.56442 39.293C2.57722 39.2841 2.59162 39.2779 2.6068 39.2747C2.62199 39.2714 2.63767 39.2712 2.65294 39.274C2.66921 39.274 4.34698 39.5632 6.90957 38.0636C6.9228 38.0552 6.9376 38.0495 6.95307 38.047C6.96854 38.0444 6.98437 38.045 6.9996 38.0488C7.01484 38.0525 7.02915 38.0593 7.0417 38.0687C7.05424 38.0782 7.06476 38.09 7.0726 38.1037C7.08045 38.1173 7.08547 38.1324 7.08736 38.148C7.08925 38.1636 7.08798 38.1794 7.08361 38.1945C7.07924 38.2096 7.07187 38.2237 7.06194 38.2359C7.05201 38.248 7.03973 38.2581 7.02583 38.2654C5.14343 39.372 3.73773 39.5388 3.05988 39.5388Z" fill="#BA6963"/>
<path d="M3.4391 41.3915C3.20656 41.3915 3.06355 41.3834 3.03913 41.381C3.0083 41.379 2.97952 41.3648 2.95913 41.3415C2.93874 41.3182 2.92842 41.2878 2.93042 41.2568C2.93243 41.2259 2.9466 41.1971 2.96982 41.1766C2.99304 41.1562 3.02341 41.1458 3.05425 41.1478C3.08099 41.1478 5.75287 41.3052 7.27483 40.1379C7.29922 40.1191 7.33004 40.1108 7.36055 40.1147C7.39106 40.1187 7.41877 40.1346 7.43761 40.1589C7.44702 40.1712 7.45391 40.1851 7.45789 40.2C7.46187 40.2149 7.46287 40.2305 7.46081 40.2458C7.45876 40.2611 7.4537 40.2758 7.44592 40.2891C7.43815 40.3024 7.42781 40.3141 7.41552 40.3234C6.17027 41.2796 4.26461 41.3915 3.4391 41.3915Z" fill="#BA6963"/>
<path d="M12.7138 30.3529H0.46714L0.0520579 28.5302C0.0520579 28.5302 -0.449064 26.8977 1.64379 26.8055C3.73664 26.7134 13.0777 26.8137 13.0777 26.8137C13.0777 26.8137 11.8069 26.7647 12.2639 28.5629L12.7138 30.3529Z" fill="#B8C0C3"/>
<path d="M32.3992 14.454C32.3595 14.4539 32.321 14.4403 32.2901 14.4153C32.2592 14.3904 32.2377 14.3556 32.2292 14.3167C32.2206 14.2778 32.2256 14.2372 32.2432 14.2015C32.2608 14.1659 32.29 14.1373 32.3259 14.1205L36.5663 12.1287C36.587 12.119 36.6095 12.1135 36.6324 12.1125C36.6553 12.1115 36.6782 12.115 36.6997 12.1228C36.7213 12.1307 36.741 12.1427 36.7579 12.1582C36.7749 12.1738 36.7885 12.1925 36.7982 12.2133C36.8079 12.2341 36.8134 12.2567 36.8145 12.2796C36.8155 12.3026 36.812 12.3255 36.8041 12.3471C36.7963 12.3687 36.7843 12.3886 36.7688 12.4055C36.7534 12.4225 36.7347 12.4362 36.7139 12.4459L32.4736 14.4377C32.4504 14.4487 32.4249 14.4543 32.3992 14.454V14.454Z" fill="white"/>
<path d="M44.1056 25.9533L38.0096 28.9946C38.0096 28.9946 37.9119 28.1002 37.7236 26.8093C37.6003 25.9673 37.4387 24.9563 37.2411 23.9161C36.8469 21.8381 36.3109 19.6399 35.6424 18.4236C34.1309 15.6658 34.8052 14.5556 34.8052 14.5556L36.04 12.4379C36.7818 12.3435 36.3307 13.4804 36.3307 13.4804C36.3307 13.4804 35.4656 15.436 36.4714 15.8127C37.4771 16.1893 37.9759 14.9964 38.1875 14.2058C38.3991 13.4151 37.0225 12.9603 36.4865 12.4939C35.9505 12.0274 36.4981 11.7779 36.4981 11.7779C36.4981 11.7779 38.5328 12.2117 38.8863 12.4706C39.1839 12.6875 39.1025 13.3323 39.07 13.5341C39.1421 13.1702 39.5269 11.252 39.7676 10.5336C40.0292 9.73833 40.6908 9.45846 40.5059 10.2094C40.321 10.9604 40.2001 13.358 40.2001 13.358C40.6187 12.0986 41.6047 10.4858 41.8884 10.3984C42.1721 10.3109 42.5197 10.4707 42.1 11.1902C41.6802 11.9097 41.2256 14.0915 41.2256 14.0915C41.2256 14.0915 42.7511 12.3213 43.2022 12.3423C43.6533 12.3633 43.365 12.7843 43.365 12.7843C42.4255 13.6787 41.1233 15.9258 41.021 16.4832C40.9187 17.0406 41.021 17.8219 41.6233 19.9186C41.9092 20.836 42.2426 21.7379 42.622 22.6205C42.7139 22.8421 42.8069 23.0613 42.8987 23.2759C43.5185 24.7266 44.1056 25.9533 44.1056 25.9533Z" fill="#EC9585"/>
<path d="M49.8227 40.4412C49.8227 40.4412 50.9191 43.4114 47.6554 45.353C45.5928 46.5797 43.3198 45.6666 38.6085 43.7297L36.2227 24.9329L43.3663 22.2427L49.8227 40.4412Z" fill="#C35361"/>
<path d="M28.5195 18.1743C28.5569 18.2427 28.5804 18.3177 28.5888 18.3952C28.5972 18.4727 28.5903 18.5511 28.5685 18.626C28.5467 18.7008 28.5104 18.7706 28.4617 18.8313C28.413 18.8921 28.3528 18.9426 28.2847 18.9801C28.2165 19.0175 28.1416 19.0411 28.0644 19.0496C27.9871 19.058 27.9089 19.0511 27.8343 19.0292C27.7597 19.0073 27.6901 18.9709 27.6296 18.9221C27.569 18.8732 27.5186 18.8129 27.4813 18.7445C27.3243 18.4577 27.3045 17.8699 27.5917 17.7125C27.8789 17.5551 28.3626 17.8863 28.5195 18.1743Z" fill="#BA6963"/>
<path d="M38.4014 42.2185C38.373 42.2188 38.3455 42.2086 38.3241 42.1899C38.3026 42.1712 38.2888 42.1453 38.2851 42.1171L36.1074 24.947C36.1035 24.9161 36.1121 24.8849 36.1311 24.8603C36.1502 24.8357 36.1782 24.8197 36.2091 24.8158C36.2399 24.812 36.271 24.8206 36.2956 24.8397C36.3201 24.8588 36.336 24.887 36.3399 24.9179L38.5188 42.0879C38.5224 42.1185 38.5138 42.1493 38.4948 42.1736C38.4759 42.1978 38.4481 42.2136 38.4176 42.2174L38.4014 42.2185Z" fill="#9D4B57"/>
</g>
<defs>
<clipPath id="clip0_2115_2">
<rect width="50" height="50" fill="white"/>
</clipPath>
</defs>
</svg>
