<svg width="50" height="50" viewBox="0 0 50 50" fill="none" xmlns="http://www.w3.org/2000/svg">
<g clip-path="url(#clip0_2124_3849)">
<path d="M34.1907 35.6101L34.123 35.441C35.1819 34.9961 36.3812 34.492 37.1678 33.5532C37.9087 32.6685 38.1946 31.2172 37.3894 30.319L37.3268 30.2496L37.3995 30.1904C37.7592 29.9173 38.1348 29.666 38.5244 29.4377C38.9727 29.1774 39.3997 28.8822 39.8015 28.5547C40.8334 27.6633 41.5556 25.8703 40.4883 23.514C39.9707 22.3739 39.196 21.3623 38.4466 20.3829L38.587 20.2764C39.3414 21.2625 40.1229 22.2842 40.6473 23.4429C41.3408 24.9653 41.5658 27.2624 39.9165 28.6867C39.5121 29.0265 39.0805 29.3326 38.6259 29.6018C38.2694 29.813 37.9239 30.0422 37.5907 30.2885C38.384 31.2612 38.0829 32.7616 37.3116 33.6716C36.4895 34.6459 35.2682 35.1585 34.1907 35.6101Z" fill="#321A15"/>
<path d="M9.87858 31.9089C9.04127 31.4285 8.17859 30.9329 7.53073 30.1785C6.64098 29.1399 6.30944 27.4821 7.44954 26.4571L7.65252 26.2795C8.09401 25.8972 8.54903 25.5031 8.53212 24.9736C8.51858 24.544 8.19381 24.2243 7.86396 23.8876C7.68989 23.7236 7.52977 23.5454 7.38526 23.3548C7.14915 23.0123 7.02398 22.6055 7.0267 22.1895C7.02943 21.7735 7.15991 21.3684 7.40048 21.029C7.61074 20.7665 7.85343 20.5317 8.12277 20.3304C8.4448 20.1049 8.71855 19.8173 8.92793 19.4846C9.22226 18.923 9.1157 18.2819 9.00067 17.6036C8.94701 17.3178 8.90918 17.0292 8.88734 16.7392C8.85849 15.908 9.10504 15.0906 9.58866 14.4139C10.0723 13.7373 10.7659 13.2394 11.5617 12.9976L11.609 13.1667C10.8549 13.3983 10.1979 13.8716 9.73938 14.5135C9.28084 15.1555 9.04623 15.9305 9.07171 16.7189C9.08863 16.9946 9.13768 17.2839 9.18336 17.5647C9.29838 18.2413 9.41679 18.9433 9.09201 19.5573C8.87496 19.9141 8.58712 20.2227 8.24625 20.464C7.98934 20.6559 7.75749 20.8792 7.5561 21.1288C7.33803 21.4388 7.21988 21.8081 7.21746 22.1872C7.21505 22.5663 7.32848 22.9371 7.54257 23.2499C7.68165 23.431 7.83494 23.6007 8.00098 23.7574C8.34774 24.1042 8.70465 24.4628 8.72157 24.9635C8.74187 25.5758 8.23102 26.0173 7.78108 26.408C7.71341 26.4672 7.64575 26.5247 7.58148 26.5772C6.50904 27.538 6.82536 29.0942 7.67113 30.0634C8.29699 30.7942 9.14953 31.283 9.9733 31.755L9.87858 31.9089Z" fill="#321A15"/>
<path d="M40.2753 26.4824C40.0865 27.4553 39.6275 28.3553 38.9508 29.0793C38.274 29.8033 37.407 30.322 36.4491 30.5759C36.9031 31.6302 36.9197 32.8216 36.4952 33.8881C36.0708 34.9546 35.2401 35.8088 34.1858 36.2628C33.1315 36.7168 31.9401 36.7334 30.8736 36.309C29.8071 35.8845 28.9529 35.0538 28.4989 33.9996C28.399 33.7697 28.3197 33.5313 28.262 33.2874C27.9736 33.3943 27.6604 33.4153 27.3602 33.3481C27.0601 33.2809 26.7858 33.1282 26.5705 32.9085C26.1433 32.4675 25.8501 31.9144 25.7247 31.3134C25.443 30.1165 25.4388 28.871 25.7123 27.6722C25.9858 26.4734 26.5299 25.353 27.3029 24.3967C28.1047 23.3632 29.2837 22.9775 30.143 22.1199C30.3625 21.891 30.5446 21.629 30.6826 21.3435C29.8789 20.6195 29.3036 19.6768 29.0271 18.631C28.7506 17.5851 28.785 16.4813 29.1259 15.4546C29.4669 14.428 30.0997 13.523 30.9469 12.8503C31.7942 12.1776 32.8191 11.7664 33.8963 11.6671C34.9735 11.5677 36.0564 11.7845 37.0123 12.2909C37.9683 12.7972 38.756 13.5712 39.279 14.5182C39.802 15.4652 40.0376 16.5441 39.9571 17.6229C39.8766 18.7017 39.4834 19.7336 38.8257 20.5925C38.8865 20.6775 38.943 20.7656 38.9948 20.8564C39.5716 21.6619 39.9819 22.5744 40.2017 23.5404C40.4216 24.5064 40.4466 25.5066 40.2753 26.4824Z" fill="#321A15"/>
<path d="M33.7106 22.2337C35.7294 22.2337 37.366 20.5971 37.366 18.5783C37.366 16.5594 35.7294 14.9229 33.7106 14.9229C31.6918 14.9229 30.0552 16.5594 30.0552 18.5783C30.0552 20.5971 31.6918 22.2337 33.7106 22.2337Z" fill="#ED9786"/>
<path d="M46.2836 50H3.61133C4.4368 48.0784 5.15401 46.2583 5.67669 44.6683C5.94845 43.8584 6.1788 43.0353 6.36683 42.202C6.55336 41.3395 6.82009 40.4962 7.16355 39.6833C8.05223 37.6165 9.41174 35.7861 11.1336 34.3381C11.5949 33.9465 12.0765 33.5795 12.5764 33.2386C12.9723 32.9696 13.3512 32.7311 13.6996 32.5366C13.8434 32.4554 13.9804 32.3793 14.1124 32.3099C14.6457 32.0177 15.1998 31.765 15.7701 31.5538L17.3838 31.5352H17.9014L22.3247 31.4777L23.2094 31.4659H23.5849H23.6966L25.7501 31.4405L26.738 31.4287H26.9359L28.4853 31.4101L29.3311 31.3999H29.551L29.5848 31.4117L29.7252 31.4676C31.2832 32.1217 32.7737 32.9261 34.1756 33.8695C34.6357 34.1723 35.1178 34.5072 35.6151 34.876L35.8249 35.0333C36.9039 35.8444 37.9316 36.7217 38.9018 37.6603L39.0506 37.8057C39.9624 38.6968 40.8198 39.6418 41.6184 40.6357C43.1374 42.4913 44.7156 45.9572 46.2836 50Z" fill="#C45462"/>
<path d="M9.65533 40.6914C9.55722 40.8606 8.51186 42.6045 7.91982 45.3753C7.7873 45.9927 7.6868 46.6166 7.61873 47.2444C7.5196 48.1593 7.49076 49.0806 7.53246 49.9999H6.04053C6.1795 48.7319 6.41818 47.4769 6.75435 46.2464C6.96702 45.4857 7.23384 44.7412 7.55276 44.0187C8.08073 42.8093 8.7897 41.6874 9.65533 40.6914Z" fill="#9E4B57"/>
<path d="M33.9639 50.0001H32.3384C32.3604 49.5129 32.3824 49.0427 32.4077 48.5911C32.4077 48.5454 32.4077 48.4997 32.4077 48.454C32.746 42.5252 33.3854 39.6699 33.3854 39.6699C33.3854 39.944 33.3854 40.218 33.3854 40.492C33.3854 42.8196 33.4903 45.12 33.6882 47.3715C33.6882 47.4205 33.6967 47.4696 33.7018 47.5186C33.7773 48.3542 33.8647 49.1814 33.9639 50.0001Z" fill="#9E4B57"/>
<path d="M8.56919 21.4978C8.45216 21.7592 8.35985 22.0311 8.29347 22.3097C8.01683 23.4744 8.19149 24.7007 8.78232 25.7418C8.93919 25.9492 9.02678 26.2008 9.03267 26.4607C9.03267 26.772 8.7079 26.9936 8.47785 27.2253C6.50552 29.2924 9.25257 32.9258 11.6512 32.9173C12.0013 32.9173 12.4546 32.9173 12.5747 33.2201C12.6371 33.378 12.6558 33.5498 12.6289 33.7174C12.6382 34.811 13.0781 35.857 13.8531 36.6285C14.6282 37.4001 15.6761 37.8353 16.7697 37.8397C17.8498 37.7916 18.8933 37.4341 19.7759 36.8097C20.6585 36.1853 21.343 35.3204 21.7479 34.3179C23.1316 31.126 21.7479 28 20.7618 24.9299C20.1859 22.6749 19.3175 20.5048 18.1788 18.475C16.9609 16.501 14.0481 11.7985 11.1708 13.4224C10.6944 13.7187 10.2954 14.1239 10.0065 14.6048C9.71772 15.0857 9.54741 15.6284 9.50968 16.1881C9.44957 17.3216 9.71548 18.4487 10.2759 19.4358C9.51836 19.9423 8.92517 20.6589 8.56919 21.4978Z" fill="#321A15"/>
<path d="M29.3412 28.2671C29.4326 29.7446 29.4326 31.2264 29.3412 32.704C29.3245 34.4749 29.0604 36.2348 28.5563 37.9325C28.3378 38.7376 27.9456 39.4851 27.4073 40.1224C26.869 40.7598 26.1977 41.2715 25.4405 41.6217C24.7967 41.8255 24.1229 41.9188 23.4479 41.8975C21.2997 41.8975 18.6896 40.8741 17.7847 38.3554C17.3796 36.8654 17.3292 35.3012 17.6375 33.7883C17.6529 33.5223 17.6868 33.2578 17.739 32.9966C19.2256 33.3712 20.7733 33.4367 22.2863 33.1891C23.7992 32.9415 25.2453 32.3861 26.535 31.5571C27.5395 30.9318 28.3725 30.0662 28.9589 29.0384C29.0739 28.7559 29.2211 28.5157 29.3412 28.2671Z" fill="#ED9786"/>
<path d="M29.3412 28.4432C29.2211 28.6936 29.0739 28.9321 28.9352 29.1909C28.3472 30.2175 27.5137 31.0823 26.5096 31.7079C25.2217 32.5372 23.7773 33.0934 22.2658 33.3422C20.7543 33.5909 19.2078 33.5269 17.7221 33.1541C17.717 33.0742 17.717 32.9939 17.7221 32.9139C17.8912 31.6148 18.0908 30.3141 18.2109 29.0234C18.2651 28.4331 18.3124 27.8512 18.3293 27.2608C18.3816 26.3968 18.6357 25.5571 19.0714 24.8092C19.5071 24.0612 20.1121 23.4259 20.8379 22.9542C22.0373 22.442 23.3777 22.3637 24.6286 22.7326C25.4031 22.8604 26.1565 23.0932 26.8682 23.4244C27.4953 23.7389 28.039 24.1975 28.4548 24.7624C28.8736 25.4606 29.1136 26.2514 29.1534 27.0646C29.1585 27.0857 29.1585 27.1078 29.1534 27.1289C29.2569 27.5602 29.3198 28.0002 29.3412 28.4432Z" fill="#DC867B"/>
<path d="M31.3525 33.2522C31.2139 33.5584 31.1748 33.9004 31.2409 34.2299C31.4807 35.7383 31.4561 37.2769 31.1681 38.7768C30.8665 39.8745 30.3114 40.8861 29.5476 41.7301C28.7837 42.5742 27.8324 43.2272 26.7701 43.6366C25.2113 44.1662 23.5548 44.3452 21.9188 44.1609C19.3131 44.0627 16.8 43.1683 14.718 41.5983C14.2683 41.2416 13.8788 40.8149 13.5644 40.3347C13.1836 39.6771 12.9526 38.9436 12.8877 38.1864C12.7134 36.758 12.9139 35.3087 13.4696 33.9813C13.7503 33.3163 14.1264 32.6958 14.586 32.1392C15.2136 32.0276 15.831 31.9362 16.4298 31.8618L17.0574 31.7891V32.535C17.0697 32.9152 17.1703 33.2873 17.3511 33.622C17.532 33.9566 17.7881 34.2447 18.0994 34.4634C18.7986 34.8864 19.5833 35.1481 20.3965 35.2296C22.2611 35.5749 24.1774 35.5271 26.0225 35.0892C26.9929 34.8339 27.9095 34.4065 28.7289 33.8274C29.1563 33.5573 29.5533 33.242 29.913 32.8869C30.1634 32.601 30.2818 32.4437 30.4391 32.3794L30.8535 32.4606L31.5826 32.6095C31.5842 32.6399 31.5842 32.6704 31.5826 32.7008C31.6451 32.8919 31.4523 33.0679 31.3525 33.2522Z" fill="#C45462"/>
<path d="M32.5366 40.5645C32.1645 41.9065 31.4823 43.1424 30.5451 44.1725C29.6078 45.2026 28.4417 45.9982 27.1406 46.495C25.2422 47.1432 23.2232 47.3605 21.2304 47.131C18.0584 47.0103 14.9992 45.9225 12.4632 44.0135C11.912 43.5749 11.436 43.0492 11.0541 42.4573C10.5835 41.6601 10.2947 40.7689 10.2083 39.8472C9.99931 38.109 10.2435 36.3463 10.9171 34.7304C11.2987 33.9435 11.789 33.214 12.3735 32.5635C13.38 32.3944 14.4033 32.2506 15.4183 32.1406V33.0625C15.441 33.508 15.5629 33.9429 15.7751 34.3353C15.9872 34.7277 16.2843 35.0678 16.6446 35.3309C17.4872 35.8398 18.4325 36.1548 19.412 36.2527C21.6863 36.6681 24.0218 36.6105 26.2728 36.0836C28.3745 35.5652 30.2292 34.3291 31.5166 32.5889L32.0613 32.6921C32.1099 32.8492 32.1494 33.0091 32.1797 33.1708C32.6787 35.6421 33.1489 38.1676 32.5366 40.5645Z" fill="#C45462"/>
<path d="M39.2453 36.5153C39.1996 36.9432 39.137 37.361 39.0609 37.7873C38.379 41.5272 36.4986 44.9435 33.7038 47.5204L33.6378 47.5813C33.242 47.9365 32.831 48.2748 32.4081 48.5962C31.7111 49.1198 30.9761 49.5908 30.2091 50.0052H11.7951C10.0815 48.8838 8.43906 47.1296 7.91976 45.3806C7.91976 45.362 7.90792 45.3434 7.90285 45.3248C7.77091 44.8596 7.65419 44.4283 7.5527 44.024C7.14842 42.3815 7.00972 41.1484 7.16026 39.6886C7.25894 38.8361 7.41491 37.9913 7.62713 37.1597C7.95021 35.8234 8.8704 33.5771 9.8498 32.3135C9.95783 32.172 10.0742 32.037 10.1983 31.9092C11.357 30.7252 11.7206 30.7252 12.6713 30.9078L13.1787 31.0026C13.3479 31.0313 13.5306 31.0618 13.7353 31.0905C13.9406 31.1193 14.149 31.1193 14.3544 31.0905C15.155 30.9343 15.9753 30.9051 16.7851 31.0043C17.0712 31.0713 17.3291 31.2263 17.5226 31.4474C17.5406 31.4764 17.557 31.5063 17.5716 31.5371C17.7236 31.8238 17.7932 32.147 17.7729 32.4708V32.5875C17.7729 32.7262 17.7729 32.8666 17.7729 33.0087C17.7729 33.0595 17.7729 33.1085 17.7729 33.1593C17.7628 33.479 17.7459 33.8038 17.7323 34.1302C17.7053 34.7053 17.685 35.2855 17.7154 35.8539C17.738 36.4635 17.8521 37.0662 18.0537 37.6418C18.098 37.7838 18.1499 37.9233 18.2094 38.0596C18.551 38.7698 19.0542 39.39 19.6787 39.8705C20.3032 40.3511 21.0316 40.6787 21.8056 40.827C22.9672 41.0699 24.1768 40.9106 25.236 40.3754C26.4899 39.6183 27.4618 38.4717 28.0033 37.1107C28.2604 36.4611 28.4837 35.7778 28.6985 35.1096L28.7222 35.0352C28.7651 34.8999 28.8057 34.7645 28.844 34.6292C28.9568 34.2638 29.0583 33.8985 29.1485 33.5331C29.2162 33.2743 29.2804 33.0138 29.3396 32.755C29.3785 32.5858 29.4158 32.4319 29.4513 32.2712C29.4901 31.9807 29.5861 31.7007 29.7338 31.4474C29.7524 31.4136 29.7727 31.3815 29.793 31.3493C30.2717 30.7218 31.4524 30.8689 32.1171 31.011C33.0208 31.2037 33.8459 31.6634 34.4853 32.3304C34.5529 32.4218 34.624 32.4996 34.7001 32.5926C34.8491 32.7585 35.0121 32.9113 35.1873 33.0493C35.3418 33.1684 35.5046 33.2764 35.6744 33.3724C35.9863 33.4766 36.3179 33.5078 36.6437 33.4638C36.8957 33.4451 37.1511 33.4113 37.3964 33.4096C37.5991 33.4023 37.8018 33.4268 37.9969 33.4824C38.2753 33.5802 38.5261 33.7434 38.7283 33.9583C38.9305 34.1731 39.0782 34.4334 39.159 34.7172C39.3036 35.3053 39.3329 35.916 39.2453 36.5153Z" fill="#FCDFB1"/>
<path d="M25.8653 43.7244C24.502 44.3222 23.0304 44.6336 21.5418 44.6395C20.6915 44.6387 19.8447 44.5307 19.0214 44.3181C17.8694 44.03 16.7867 43.5145 15.8368 42.802C14.8869 42.0894 14.089 41.1942 13.4901 40.1688C11.9204 37.4015 12.0895 34.125 12.6714 30.9043L13.1789 30.999C12.6071 34.1233 12.4413 37.2814 13.9299 39.9202C14.4931 40.8802 15.2417 41.7186 16.1321 42.3865C17.0225 43.0544 18.0369 43.5386 19.1161 43.8107C21.296 44.3638 23.5986 44.1659 25.6522 43.2491C25.7143 43.2225 25.7842 43.2211 25.8473 43.245C25.9104 43.269 25.9618 43.3166 25.9905 43.3777C26.0182 43.4405 26.0206 43.5115 25.9973 43.5761C25.974 43.6406 25.9267 43.6937 25.8653 43.7244Z" fill="#F8BE58"/>
<path d="M35.1804 33.0576C35.073 34.4313 34.7558 35.7804 34.2399 37.058C33.1563 40.1594 31.2963 42.9314 28.8371 45.1097C26.4889 47.1526 23.4996 48.3088 20.3879 48.3778H19.7688C18.1157 48.2879 16.5102 47.7923 15.0941 46.9347C13.678 46.0771 12.4949 44.8839 11.6495 43.4605C11.62 43.4018 11.614 43.3341 11.6329 43.2711C11.6518 43.2082 11.694 43.1549 11.7509 43.1222C11.7782 43.1047 11.8087 43.0928 11.8407 43.0873C11.8727 43.0819 11.9054 43.0829 11.9369 43.0903C11.9685 43.0977 11.9982 43.1114 12.0244 43.1305C12.0506 43.1496 12.0726 43.1738 12.0893 43.2017L12.1011 43.222C12.9159 44.5665 14.0489 45.6899 15.4002 46.4935C16.7515 47.297 18.2796 47.7559 19.85 47.8297C23.0458 47.9311 26.1606 46.8136 28.5631 44.7038C30.939 42.5804 32.734 39.8859 33.7781 36.8753C34.328 35.5147 34.6376 34.069 34.6932 32.6025C34.8423 32.7679 35.0053 32.9201 35.1804 33.0576Z" fill="#F8BE58"/>
<path d="M31.7465 23.4871C31.7465 23.5024 31.7347 23.5159 31.7296 23.5294C31.689 23.6394 31.6467 23.751 31.6027 23.8576C30.0347 27.7312 26.4554 30.4376 22.2993 30.4376C16.7646 30.4376 12.2617 25.6557 12.1501 19.7066C11.9809 15.8685 13.1836 8.4917 13.1836 8.4917H31.4522C31.4522 8.4917 32.1017 14.6286 32.3791 18.081C32.3791 18.0979 32.3791 18.1148 32.3791 18.1284C32.5327 19.939 32.3175 21.762 31.7465 23.4871Z" fill="#ED9786"/>
<path d="M19.7721 22.2384L17.7051 21.6938L19.6554 14.9175L19.9734 15.0088L18.1178 21.4586L19.8567 21.917L19.7721 22.2384Z" fill="#321A15"/>
<path d="M23.6341 18.9635C24.048 18.9635 24.3835 18.628 24.3835 18.2142C24.3835 17.8003 24.048 17.4648 23.6341 17.4648C23.2203 17.4648 22.8848 17.8003 22.8848 18.2142C22.8848 18.628 23.2203 18.9635 23.6341 18.9635Z" fill="#321A15"/>
<path d="M16.5516 17.7731C16.9654 17.7731 17.3009 17.4376 17.3009 17.0238C17.3009 16.6099 16.9654 16.2744 16.5516 16.2744C16.1377 16.2744 15.8022 16.6099 15.8022 17.0238C15.8022 17.4376 16.1377 17.7731 16.5516 17.7731Z" fill="#321A15"/>
<path d="M33.8576 24.2988C33.7714 24.5238 33.7139 24.6371 33.7139 24.6371C33.7629 24.5272 33.8103 24.4139 33.8576 24.2988Z" fill="#ED9786"/>
<path d="M26.635 16.9544C26.5705 16.9532 26.5069 16.94 26.4472 16.9155L23.8677 15.9682C23.7429 15.9153 23.6433 15.8165 23.5894 15.6921C23.5355 15.5678 23.5315 15.4275 23.5783 15.3003C23.625 15.1731 23.7189 15.0688 23.8405 15.0089C23.9621 14.949 24.102 14.9382 24.2313 14.9787L26.8109 15.9276C26.9222 15.9738 27.0143 16.0565 27.072 16.1622C27.1297 16.2679 27.1495 16.3901 27.1282 16.5087C27.1069 16.6272 27.0457 16.7348 26.9547 16.8138C26.8638 16.8927 26.7486 16.9381 26.6282 16.9426L26.635 16.9544Z" fill="#321A15"/>
<path d="M14.4085 15.4453C14.2751 15.4444 14.1471 15.3931 14.0501 15.3016C13.953 15.2102 13.8942 15.0854 13.8854 14.9523C13.8766 14.8193 13.9185 14.6879 14.0027 14.5844C14.0869 14.481 14.2071 14.4133 14.3391 14.3949L17.0608 14.0244C17.1305 14.0127 17.2019 14.0151 17.2707 14.0314C17.3395 14.0478 17.4043 14.0778 17.4613 14.1198C17.5183 14.1617 17.5662 14.2146 17.6023 14.2754C17.6384 14.3362 17.6619 14.4037 17.6715 14.4738C17.681 14.5438 17.6763 14.6151 17.6578 14.6834C17.6392 14.7516 17.6071 14.8154 17.5634 14.871C17.5197 14.9266 17.4653 14.9729 17.4033 15.007C17.3414 15.0412 17.2732 15.0625 17.2029 15.0698L14.4812 15.4402C14.4571 15.4436 14.4328 15.4453 14.4085 15.4453Z" fill="#321A15"/>
<path d="M18.8843 16.0863C18.8562 15.7106 18.7829 15.3398 18.6661 14.9817C18.4903 14.4546 18.1834 13.9809 17.7741 13.6052C17.3649 13.2294 16.8668 12.9638 16.3268 12.8334C16.2058 12.8047 16.0832 12.7832 15.9597 12.7692C15.8937 12.7692 15.8294 12.759 15.7652 12.7573H15.6095C15.4489 12.7572 15.2885 12.7674 15.1291 12.7878C14.6828 12.839 14.2475 12.9618 13.8402 13.1515L13.7658 13.187L13.7302 13.2039C13.6524 13.2422 13.5763 13.2828 13.5019 13.3257C13.2568 13.4679 13.0267 13.6345 12.8151 13.823C12.6693 13.948 12.533 14.0837 12.4075 14.229C12.2899 14.3639 12.182 14.5069 12.0844 14.6569C11.6868 15.2369 11.4284 15.9009 11.3296 16.5972C11.2307 17.2934 11.2939 18.0031 11.5143 18.6709C11.6485 19.0878 11.8571 19.477 12.1301 19.8195C12.2519 19.978 12.3877 20.1252 12.536 20.2593C12.6914 20.3989 12.8583 20.5251 13.035 20.6365C13.3307 20.8068 13.6516 20.929 13.9857 20.9985C14.6045 21.1256 15.2458 21.0895 15.8464 20.8936C16.9068 20.4935 17.7877 19.7249 18.3278 18.7284C18.437 18.5293 18.5314 18.3223 18.6103 18.1093C18.7398 17.7576 18.8284 17.392 18.8742 17.02C18.9091 16.7099 18.9125 16.397 18.8843 16.0863ZM18.3075 17.3431C18.1879 17.903 17.9528 18.4319 17.6174 18.8959C17.1449 19.5971 16.462 20.1302 15.6671 20.4183C15.2801 20.5536 14.8687 20.6049 14.4604 20.5688C14.052 20.5326 13.6561 20.4098 13.2989 20.2085C13.056 20.0521 12.8358 19.8632 12.6443 19.6469C12.429 19.4029 12.2532 19.1267 12.1233 18.8282C12.0778 18.7269 12.0383 18.6229 12.0049 18.517C11.7809 17.8365 11.7395 17.1092 11.8848 16.4077C11.9684 16.0051 12.1133 15.6177 12.3144 15.2591C12.3697 15.1576 12.4306 15.0578 12.4971 14.9597C12.7852 14.5311 13.1576 14.1656 13.5915 13.8856L13.6947 13.8213C13.818 13.7466 13.9456 13.6793 14.077 13.62C14.354 13.4935 14.6454 13.4015 14.9448 13.346C15.2415 13.2923 15.5436 13.2741 15.8447 13.2918H15.8836L16.1339 13.3443V13.3172C16.2925 13.3544 16.4476 13.4054 16.5974 13.4695C16.9659 13.6257 17.2961 13.8599 17.5653 14.156C17.8346 14.4521 18.0364 14.8031 18.157 15.1847L18.1671 15.2134C18.403 15.8981 18.4515 16.6334 18.3075 17.3431Z" fill="white"/>
<path d="M26.9767 14.1244C26.8938 14.0516 26.8075 13.984 26.7179 13.9197C26.1803 13.53 25.5494 13.289 24.8889 13.221C24.2284 13.153 23.5617 13.2604 22.9559 13.5323C22.3477 13.8005 21.8222 14.2262 21.4335 14.7655C21.0761 15.217 20.7981 15.7261 20.6114 16.2709C20.5167 16.5462 20.4459 16.8292 20.4 17.1167C20.3117 17.6777 20.3191 18.2497 20.422 18.8082C20.4592 18.9774 20.4947 19.1465 20.5438 19.3157C20.7097 19.9755 21.0596 20.5747 21.5528 21.0433C22.0461 21.512 22.6623 21.8309 23.3297 21.9629C23.6848 22.0378 24.0483 22.0657 24.4106 22.0458C25.044 21.9895 25.6594 21.8057 26.2199 21.5055C26.7803 21.2052 27.2742 20.7946 27.6719 20.2985C27.6956 20.2714 27.7176 20.2426 27.7413 20.2139C28.1892 19.6403 28.4838 18.9621 28.5972 18.2433C28.722 17.4744 28.6373 16.6862 28.3522 15.9614C28.067 15.2366 27.5919 14.6021 26.9767 14.1244ZM28.1388 17.7459C28.0964 18.5499 27.8003 19.3198 27.293 19.9449C26.941 20.3871 26.5031 20.7534 26.0057 21.0218C25.5083 21.2901 24.9616 21.4549 24.3988 21.5062C24.0794 21.5365 23.7572 21.5189 23.4431 21.4538C22.8674 21.3333 22.3369 21.0544 21.9113 20.6485C21.4857 20.2427 21.182 19.726 21.0343 19.1567C20.992 19.0129 20.9633 18.8624 20.9328 18.7034C20.816 18.0673 20.8365 17.4136 20.9928 16.7861C21.1492 16.1586 21.4379 15.5717 21.8395 15.0649C22.1991 14.5524 22.6987 14.1543 23.2785 13.9183C23.8584 13.6822 24.4939 13.6181 25.1092 13.7336C25.6673 13.8647 26.188 14.1216 26.6316 14.4847L26.7314 14.5642C26.8346 14.6487 26.9344 14.7333 27.0291 14.8331C27.1238 14.9329 27.1797 14.9904 27.249 15.075C27.8767 15.8185 28.1952 16.7745 28.1388 17.7459Z" fill="white"/>
<path d="M18.6104 17.1164C18.5447 17.1004 18.4881 17.059 18.4529 17.0013C18.4177 16.9436 18.4068 16.8743 18.4226 16.8086C18.4904 16.5058 18.6675 16.2387 18.92 16.0584C19.1725 15.8781 19.4827 15.7972 19.7911 15.8314C20.0994 15.8655 20.3844 16.0123 20.5913 16.2434C20.7983 16.4746 20.9126 16.774 20.9125 17.0843C20.9117 17.1536 20.8838 17.2197 20.8348 17.2687C20.7858 17.3177 20.7196 17.3456 20.6504 17.3465C20.5839 17.3456 20.5204 17.3191 20.4731 17.2724C20.4258 17.2257 20.3984 17.1626 20.3966 17.0961C20.4133 16.9017 20.3535 16.7084 20.2298 16.5574C20.1062 16.4064 19.9285 16.3096 19.7346 16.2875C19.5407 16.2655 19.3459 16.32 19.1915 16.4394C19.0371 16.5588 18.9355 16.7338 18.9081 16.927C18.8903 16.9895 18.8501 17.0434 18.7952 17.0783C18.7404 17.1132 18.6746 17.1268 18.6104 17.1164Z" fill="white"/>
<path d="M20.0989 24.1769C19.8205 24.1767 19.5436 24.1363 19.2768 24.0568C19.2546 24.0497 19.234 24.0383 19.2162 24.0232C19.1984 24.0081 19.1837 23.9897 19.173 23.969C19.1624 23.9482 19.1559 23.9256 19.1539 23.9024C19.152 23.8791 19.1547 23.8557 19.1618 23.8335C19.1689 23.8113 19.1803 23.7907 19.1954 23.7729C19.2104 23.7551 19.2289 23.7404 19.2496 23.7298C19.2703 23.7191 19.293 23.7126 19.3162 23.7106C19.3394 23.7087 19.3628 23.7114 19.3851 23.7185C19.3851 23.7185 20.3526 24.0213 20.9988 23.5747C21.3726 23.3159 21.579 22.8473 21.6111 22.1843C21.6134 22.1376 21.634 22.0938 21.6686 22.0624C21.7032 22.0309 21.7488 22.0146 21.7955 22.0168C21.8421 22.019 21.886 22.0397 21.9174 22.0743C21.9488 22.1089 21.9652 22.1545 21.9629 22.2012C21.924 22.981 21.6669 23.5409 21.1967 23.864C20.8712 24.0778 20.4882 24.1869 20.0989 24.1769Z" fill="#BB6A64"/>
<path d="M28.8525 15.7077C29.2936 16.0174 29.8126 16.1974 30.3508 16.2273C30.8889 16.2572 31.4246 16.1358 31.8973 15.8769C32.4284 15.6904 32.9038 15.3727 33.2793 14.9533C33.3537 14.8704 33.9559 13.6999 33.8426 13.6897C34.7253 13.7028 35.5803 13.381 36.2353 12.7891C36.8903 12.1972 37.2968 11.3791 37.3728 10.4995C37.371 9.79058 37.1618 9.0977 36.7711 8.50619C36.3804 7.91469 35.8251 7.45041 35.1738 7.17055C33.939 6.49393 34.4448 4.86499 33.8206 3.59126C33.1384 2.3824 32.0555 1.44968 30.7589 0.954165C29.1517 0.218347 27.3847 -0.099904 25.6217 0.0288972C23.8626 0.186842 22.2223 0.983541 21.0106 2.26849C19.8981 1.13692 18.4005 0.465422 16.8156 0.387502C16.042 0.373739 15.2793 0.571223 14.6095 0.958697C13.9398 1.34617 13.3884 1.90896 13.0147 2.58649C12.7787 3.00351 12.7127 3.49552 12.8304 3.96002C12.4074 3.82721 11.952 3.84078 11.5377 3.99852C11.1234 4.15627 10.7743 4.44899 10.5468 4.82947C10.3467 5.22514 10.2303 5.65785 10.205 6.10053C10.1796 6.54322 10.2459 6.98637 10.3996 7.40229C10.6244 8.22067 11.1638 8.91691 11.9 9.33909C10.8749 9.52347 10.0546 10.1307 10.2305 11.1829C10.307 11.7809 10.5586 12.3431 10.9535 12.7987C11.3485 13.2543 11.8692 13.5831 12.4504 13.7437C13.0316 13.9044 13.6472 13.8898 14.2201 13.7017C14.793 13.5136 15.2976 13.1605 15.6704 12.6866C16.1154 13.0192 16.6216 13.2608 17.16 13.3977C17.6984 13.5346 18.2585 13.5641 18.8083 13.4845C19.3581 13.4048 19.8868 13.2176 20.3643 12.9336C20.8417 12.6495 21.2585 12.2742 21.5908 11.829C21.7095 11.6712 21.8174 11.5057 21.9139 11.3334C22.0201 11.8323 22.2868 12.2827 22.6733 12.6157C23.0597 12.9486 23.5445 13.1459 24.0537 13.1772C24.6973 13.2333 25.3457 13.165 25.9634 12.9759C26.7111 12.7628 26.887 12.4684 27.2101 13.1603C27.6989 14.1126 27.9391 15.0548 28.8525 15.7077Z" fill="#321A15"/>
<path d="M32.8291 19.6404C32.8105 19.6429 32.7918 19.6429 32.7732 19.6404C32.729 19.6254 32.6925 19.5935 32.6716 19.5517C32.6507 19.5099 32.6471 19.4616 32.6616 19.4171C32.6616 19.4019 33.2249 17.8085 35.3478 18.4174C35.3926 18.4302 35.4306 18.4603 35.4532 18.5011C35.4759 18.5418 35.4815 18.5899 35.4687 18.6348C35.4559 18.6797 35.4258 18.7176 35.3851 18.7403C35.3443 18.763 35.2962 18.7685 35.2513 18.7558C34.4851 18.5359 33.8711 18.6018 33.4279 18.9537C33.2367 19.1047 33.088 19.3029 32.9965 19.5288C32.9832 19.5621 32.96 19.5907 32.9301 19.6106C32.9002 19.6305 32.865 19.6409 32.8291 19.6404Z" fill="#BB6A64"/>
<path d="M33.7105 14.9229C33.3731 16.4481 32.6148 17.8481 31.5217 18.964C29.409 21.0767 29.3413 14.5474 29.3413 14.5474L33.7105 14.9229Z" fill="#321A15"/>
</g>
<defs>
<clipPath id="clip0_2124_3849">
<rect width="42.6723" height="50" fill="white" transform="translate(3.61133)"/>
</clipPath>
</defs>
</svg>
