<svg width="50" height="50" viewBox="0 0 50 50" fill="none" xmlns="http://www.w3.org/2000/svg">
<g clip-path="url(#clip0_2124_3849)">
<path d="M4.2241 25.905C4.2241 25.905 3.52014 25.0298 5.64524 25.3175C7.21083 25.5284 7.34105 25.4083 7.34105 25.4083L5.24646 24.6805C5.17017 24.6543 5.11015 24.5907 5.10201 24.5119C5.09285 24.4201 5.1427 24.3141 5.42245 24.302C5.85683 24.2828 6.70728 24.4574 8.25049 24.9097C8.63808 25.0237 9.02363 25.1469 9.42851 25.165L10.4041 25.2105C10.4041 25.2105 10.4997 24.946 9.76421 24.7421C9.20165 24.5856 8.93411 24.309 8.80084 24.0466C8.75303 23.9537 8.84255 23.8477 8.9453 23.875C9.20369 23.9426 9.60755 24.0405 9.79371 24.0546C10.0806 24.0768 12.9198 23.8972 14.0337 26.2038L4.22613 25.905H4.2241Z" fill="#D58B28"/>
<path d="M17.8446 39.2519L10.7572 40.335C10.7572 40.335 10.4815 38.952 10.2658 36.0953C10.2302 35.6279 10.2038 35.1212 10.1855 34.6003C10.1804 34.468 10.1763 34.3358 10.1723 34.2036C10.1631 33.8805 10.156 33.5545 10.1519 33.2325V33.2254C10.1194 30.9915 10.1855 28.9009 10.1855 28.9009C10.1855 28.9009 10.2384 28.5738 10.0726 28.2023C10.0298 28.1074 9.97286 28.0085 9.89657 27.9116C9.85995 27.8662 9.82027 27.8218 9.77449 27.7773C9.51204 27.5179 9.08579 27.2918 8.40116 27.2009C7.69314 27.1061 7.06446 26.9809 6.51513 26.8476H6.51106C5.86203 26.6902 5.32491 26.5216 4.89968 26.3762C4.66164 26.2965 4.4592 26.2218 4.29237 26.1622C3.86612 26.0088 3.80305 25.8735 3.82238 25.7887C3.83561 25.7302 3.88647 25.6958 3.88647 25.6958C3.88647 25.6958 4.24659 25.609 5.566 25.7382C6.88542 25.8674 6.84472 26.0088 10.6229 25.2547C12.1946 24.9408 13.0929 25.2052 13.6351 25.708C13.7144 25.7816 13.7867 25.8604 13.8518 25.9422C13.8721 25.9684 13.8924 25.9957 13.9118 26.0219C14.0613 26.2309 14.1732 26.462 14.2607 26.7003C14.4703 27.2625 14.5476 27.8591 14.689 28.2801C14.8945 28.8908 15.1407 29.6852 15.4031 30.5665C15.5516 31.0621 15.7052 31.586 15.8599 32.12C16.8304 35.4745 17.8446 39.2519 17.8446 39.2519Z" fill="#F8B641"/>
<path d="M15.8599 32.12C15.8111 32.3855 15.691 32.6328 15.4866 32.8064C15.1783 33.0679 14.746 33.1123 14.3421 33.1456C13.5425 33.2112 12.743 33.2778 11.9424 33.3424C11.6565 33.3667 11.3869 33.4595 11.1072 33.4777C10.9597 33.4868 10.2649 33.2314 10.1509 33.2314C10.1448 33.2314 10.1397 33.2314 10.1377 33.2334C10.1418 33.2304 10.1469 33.2274 10.1509 33.2243C11.0614 32.6237 12.0614 32.3249 13.0319 31.8414C13.451 31.6334 13.865 31.4194 14.276 31.1963C14.6219 31.0096 15.0237 30.6936 15.4021 30.5654C15.5506 31.0611 15.7043 31.585 15.8589 32.119L15.8599 32.12Z" fill="#D58B28"/>
<path d="M15.033 28.1518C15.0737 28.2861 15.033 28.4355 14.9282 28.5415C14.9201 28.5506 14.9109 28.5576 14.9028 28.5667C13.2955 29.9608 10.5366 30.6109 9.95572 30.4312C9.81228 30.3878 9.77159 30.2969 9.75837 30.2454C9.68105 29.9315 10.0035 29.7498 10.1622 29.7195L10.1602 30.0143C10.0493 30.0557 10.09 30.1112 10.1053 30.1193C10.148 30.1384 13.1388 29.6428 14.6739 28.3113C14.6952 28.2942 14.7054 28.2679 14.7013 28.2487C14.6983 28.2487 14.7003 28.2417 14.6759 28.2437L14.5843 27.9096C14.5935 27.9055 14.9699 27.9308 15.034 28.1518H15.033Z" fill="#F7DFC0"/>
<path d="M30.1771 39.6735C30.1253 39.935 30.1049 40.2318 30.0103 40.4609H10.2679C9.64942 37.0843 9.25879 33.4452 9.25879 33.4452L10.1509 33.1333L10.3249 33.0727L11.449 32.681L12.802 32.2096L12.8539 32.1914L14.4195 31.6463L14.9281 31.4687L15.6005 31.2345L16.0369 31.082C17.2302 35.242 18.0074 38.6711 18.1183 39.1688C18.1254 39.1496 18.1407 39.1244 18.1661 39.0931C18.219 39.0275 18.3136 38.9336 18.4825 38.7943C19.6544 37.8303 21.8934 35.9819 23.755 34.4163C24.0551 34.1629 24.3268 33.9529 24.577 33.7753C25.3379 33.2362 25.9076 33.003 26.5017 32.8456C26.6258 32.8122 26.7509 32.783 26.8801 32.7557C27.0978 32.7062 27.3227 32.6618 27.5668 32.6114C27.6899 32.5841 27.8201 32.6063 27.9554 32.6699C28.0225 32.7002 28.0907 32.7426 28.1589 32.7931C28.3572 32.9404 28.5576 33.1615 28.7519 33.4452V33.4472C28.8537 33.5905 28.9534 33.751 29.049 33.9216C29.4711 34.6747 29.8445 35.672 30.0663 36.7077C30.0917 36.8269 30.1151 36.946 30.1354 37.0661C30.1609 37.2034 30.1822 37.3427 30.2005 37.48C30.3033 38.2462 30.3094 39.0053 30.1771 39.6735Z" fill="#EAA620"/>
<path d="M43.2676 35.645L43.2188 35.5289C43.9827 35.2109 44.8495 34.8496 45.4181 34.1763C45.9532 33.5423 46.1597 32.5026 45.5778 31.8585L45.5331 31.8091L45.586 31.7677C45.8423 31.5668 46.1251 31.3942 46.3978 31.2276C46.7131 31.0358 47.0386 30.837 47.3204 30.5947C48.0651 29.9557 48.5859 28.6717 47.8158 26.9829C47.4425 26.1652 46.883 25.4404 46.3418 24.7388L46.4425 24.6621C46.9878 25.3697 47.5514 26.1006 47.9308 26.9314C48.4313 28.0276 48.593 29.669 47.4028 30.6906C47.1129 30.9389 46.7823 31.1408 46.4629 31.3356C46.2116 31.4891 45.9522 31.6476 45.7152 31.8272C46.2879 32.5238 46.0702 33.5999 45.5137 34.258C44.9257 34.9545 44.0438 35.322 43.2655 35.646L43.2676 35.645Z" fill="#F6B542"/>
<path d="M47.6601 29.1028C47.5024 29.9103 47.0894 30.626 46.5014 31.1631C46.2878 31.3579 46.0538 31.5295 45.7985 31.6718C45.713 31.7213 45.6255 31.7667 45.536 31.8081C45.536 31.8081 45.5354 31.8085 45.534 31.8091C45.3305 31.902 45.1179 31.9787 44.8972 32.0373C44.8992 32.0433 44.9033 32.0514 44.9043 32.0575C45.2909 32.9639 45.2085 33.9512 44.767 34.7527C44.7202 34.8395 44.6683 34.9243 44.6123 35.0041C44.3865 35.3362 44.0935 35.6269 43.7415 35.855C43.593 35.9509 43.4333 36.0367 43.2644 36.1094C42.5961 36.3951 41.8809 36.4314 41.2278 36.2588C41.1526 36.2386 41.0793 36.2174 41.0071 36.1912C40.3255 35.959 39.7294 35.4936 39.3438 34.8476C39.2757 34.7345 39.2146 34.6144 39.1597 34.4902C39.0875 34.3257 39.0305 34.1541 38.9888 33.9795C38.7874 34.0552 38.5727 34.0713 38.3693 34.032C38.2411 34.0077 38.118 33.9613 38.0041 33.8947C37.9166 33.8442 37.8352 33.7826 37.763 33.7079C37.4558 33.392 37.2452 32.9952 37.1567 32.5642C36.7447 30.8269 37.1658 28.9968 38.296 27.6068C38.8759 26.8668 39.7274 26.5892 40.3479 25.9755C40.5168 25.8079 40.6348 25.6171 40.7375 25.4193C39.9227 24.6904 39.412 23.6335 39.412 22.4595C39.412 20.8595 40.3611 19.4796 41.7314 18.8457C42.0976 18.6741 42.4954 18.557 42.9114 18.5045C43.0813 18.4833 43.2543 18.4722 43.4292 18.4722C43.6134 18.4722 43.7944 18.4843 43.9725 18.5075C44.4506 18.5721 44.9023 18.7205 45.3122 18.9365C46.5828 19.6068 47.4475 20.9322 47.4475 22.4595C47.4475 23.2328 47.2257 23.9555 46.8402 24.5663C46.7954 24.6379 46.7486 24.7086 46.6998 24.7762C46.6998 24.7762 46.6991 24.7766 46.6978 24.7772C46.6734 24.8126 46.6469 24.8479 46.6205 24.8822C46.6357 24.9024 46.65 24.9236 46.6632 24.9448C46.6906 24.9852 46.7181 25.0276 46.7435 25.071C46.9643 25.3799 47.1505 25.707 47.299 26.0492C47.7161 27.0021 47.8473 28.064 47.6621 29.1028H47.6601Z" fill="#EAA620"/>
<path opacity="0.3" d="M44.3205 33.077C44.3002 32.9771 44.2717 32.8772 44.2737 32.7742C44.2758 32.6712 44.3144 32.5642 44.3999 32.5077C44.5067 32.437 44.6583 32.4703 44.7549 32.5541C44.8515 32.6379 44.9034 32.7611 44.939 32.8832C45.1038 33.4445 44.9889 34.0744 44.6562 34.5569C44.4395 34.8718 43.9512 34.891 44.1089 34.4327C44.2686 33.9664 44.4233 33.5848 44.3195 33.077H44.3205Z" fill="#EED1A2"/>
<path d="M39.4983 19.3576C40.3946 18.7348 41.6713 18.3704 42.7425 18.7065C43.4922 18.9417 44.2114 19.5898 44.7353 20.1541C45.3162 20.7809 45.6875 21.6269 45.7831 22.4698C45.9276 23.7417 45.3986 25.0621 44.481 25.9544C45.601 26.4359 46.2144 27.7523 46.069 28.9555C45.9103 30.2658 44.9937 31.5731 43.6773 31.9294C43.7628 31.9062 43.9754 32.5018 43.9947 32.5724C44.069 32.8349 44.0893 33.1115 44.0558 33.382C43.9998 33.8292 43.9856 34.2612 43.7964 34.6792C43.4118 35.5281 42.6539 36.2297 41.717 36.4094C40.3122 36.6789 38.832 35.6775 38.1586 34.5055C37.6855 33.6818 37.5116 32.6926 37.6754 31.7588C37.8585 30.714 38.4424 29.7651 38.5757 28.7133C38.8117 26.8448 37.596 25.0742 37.5482 23.1915C37.5106 21.7016 38.2674 20.2136 39.4983 19.3586V19.3576Z" fill="#DC9123"/>
<path d="M41.9379 27.0867C42.7558 27.5339 43.2797 28.4646 43.2329 29.3903C43.1861 30.316 42.5727 31.1912 41.7141 31.5556C42.0559 33.3776 41.6469 35.4329 40.2665 36.6816C38.886 37.9303 36.4517 38.0272 35.2523 36.6059C34.3103 35.4904 34.3388 33.8703 34.5545 32.4308C34.8342 30.5562 35.3713 28.6665 36.5249 27.1553C37.6165 25.7249 39.471 24.6923 41.2614 24.4046C43.8616 23.9867 42.2532 27.2603 41.9379 27.0877V27.0867Z" fill="#BD7C2A"/>
<path d="M25.8395 32.9328C25.2353 32.5886 24.6107 32.2333 24.1437 31.6922C23.5008 30.9472 23.2617 29.7601 24.0857 29.0252C24.1336 28.9828 24.1824 28.9404 24.2322 28.897C24.5506 28.6235 24.8792 28.3408 24.867 27.9613C24.8568 27.6534 24.6269 27.4242 24.3838 27.183C24.2627 27.0628 24.1376 26.9387 24.0389 26.8014C23.69 26.3158 23.6941 25.6153 24.0491 25.1348C24.1936 24.9399 24.3848 24.7845 24.571 24.6351C24.8029 24.4483 25.0216 24.2717 25.1519 24.0244C25.3655 23.6216 25.2872 23.1623 25.2048 22.6757C25.1702 22.4718 25.1346 22.2619 25.1224 22.0569C25.0532 20.8738 25.9006 19.6978 27.0511 19.3809L27.0847 19.502C25.9891 19.8048 25.1834 20.9233 25.2485 22.0499C25.2597 22.2477 25.2953 22.4547 25.3289 22.6555C25.4113 23.1411 25.4967 23.6428 25.2627 24.0839C25.1193 24.3534 24.8802 24.5463 24.6493 24.733C24.4703 24.8774 24.2851 25.0278 24.1498 25.2095C23.8263 25.6476 23.8223 26.2866 24.1407 26.7287C24.2332 26.8569 24.3543 26.978 24.4713 27.0941C24.7215 27.3425 24.9799 27.5999 24.9911 27.9572C25.0054 28.3963 24.6371 28.7133 24.3126 28.9919C24.2638 29.0343 24.2149 29.0767 24.1671 29.1181C23.4031 29.7995 23.6331 30.9109 24.2373 31.6104C24.69 32.1344 25.3044 32.4846 25.8996 32.8228L25.8365 32.9318L25.8395 32.9328Z" fill="#EED1A2"/>
<path d="M34.4118 34.6579C33.9489 35.7946 32.9998 36.6445 31.8533 37.0009C31.5217 37.1038 31.1728 37.1654 30.8157 37.1826C29.1728 37.1765 27.8391 35.8592 27.8249 34.2289C27.8452 34.1098 27.831 33.9856 27.7852 33.8726C27.6987 33.6545 27.3712 33.6545 27.1189 33.6545C26.9744 33.6545 26.8269 33.6374 26.6815 33.603C25.0792 33.2326 23.5218 30.934 24.828 29.5763C24.9938 29.4098 25.2278 29.2513 25.2278 29.0272C25.2237 28.8404 25.1606 28.6607 25.0477 28.5124C24.6215 27.7654 24.4943 26.8881 24.6947 26.0533C24.7415 25.8534 24.8086 25.6596 24.8941 25.4719C25.1515 24.8702 25.5797 24.3564 26.126 23.994C25.7212 23.2864 25.5289 22.4798 25.5726 21.6672C25.6367 20.4912 26.4607 19.7563 27.5004 19.3869C27.303 18.7337 27.7771 18.0019 28.4281 17.7828C29.0792 17.5638 29.8218 17.7879 30.3488 18.225C30.9378 18.7115 31.2877 19.4202 31.5878 20.1207C32.1677 21.4744 32.6275 22.9795 32.245 24.3998C32.2592 24.3463 32.7078 24.9358 32.7363 25.0095C32.8442 25.2942 32.9367 25.597 33.0476 25.8878C33.3029 26.556 33.5196 27.2384 33.6987 27.9309C34.4118 30.1315 35.4108 32.3715 34.4118 34.6579Z" fill="#EAA620"/>
<path d="M27.1708 31.5949C27.3946 32.4762 28.1607 33.1818 29.0498 33.4029C29.9378 33.6249 30.9155 33.3847 31.6428 32.8315C32.7679 31.9765 33.2481 30.3755 32.7791 29.0491C32.302 27.7004 30.832 26.6859 29.3773 26.8101C28.8249 26.8575 28.3214 27.0372 28.0935 27.5642C27.9775 27.8337 27.9318 28.2011 27.9369 28.4908C27.947 29.046 28.1108 29.0511 27.766 29.466C27.2583 30.0787 26.9664 30.7904 27.1708 31.5949Z" fill="#DC9123"/>
<path d="M28.577 31.2367C28.2535 32.3148 28.7611 33.5625 29.7103 34.1772C30.6594 34.792 31.9646 34.7718 32.9361 34.1924C33.3684 33.9339 33.7489 33.5615 33.9249 33.0931C34.1426 32.5126 34.0286 31.8636 33.8465 31.271C33.579 30.3968 33.1324 29.5206 32.3501 29.0381C30.7784 28.07 29.0144 29.778 28.576 31.2367H28.577Z" fill="#BD7C2A"/>
<path d="M39.8903 33.4961C39.8832 34.2511 39.813 35.0042 39.6797 35.7461C39.6604 35.7472 39.6421 35.7461 39.6228 35.7451C39.403 35.729 39.1924 35.5039 39.2087 35.2858C39.342 33.5183 39.3196 31.7386 39.1416 29.9751C39.109 29.6531 39.3176 29.7257 39.459 29.432C39.521 29.2998 39.6095 29.1766 39.7174 29.0767C39.7377 29.2028 39.7499 29.331 39.757 29.4592C39.7611 29.4744 39.7611 29.4905 39.757 29.5057C39.8282 29.7792 39.8608 30.0538 39.8822 30.3324C39.8842 30.3274 39.8872 30.3213 39.8893 30.3163C39.9117 30.6797 39.9269 31.0451 39.934 31.4105C39.9483 32.106 39.933 32.8006 39.8893 33.4961H39.8903Z" fill="#AD6D29"/>
<path d="M25.8952 22.2648C25.9227 22.4162 26.0031 22.5989 26.1587 22.5969C26.296 22.5949 26.3784 22.4424 26.4018 22.3082C26.4466 22.0477 26.3825 21.7823 26.3611 21.5188C26.3408 21.2735 26.3449 21.0272 26.4262 20.796C26.4527 20.7223 26.4537 20.6244 26.3866 20.582C26.3438 20.5558 26.2869 20.5628 26.2431 20.5881C26.1994 20.6133 26.1689 20.6547 26.1404 20.6961C25.8484 21.1302 25.8057 21.7631 25.8952 22.2638V22.2648Z" fill="#F7DFC0"/>
<path d="M25.5697 27.2534C25.5056 27.5522 25.1709 27.6147 24.9888 27.3715C24.939 27.3048 24.9156 27.2231 24.8983 27.1423C24.8118 26.7315 24.879 26.2984 25.1231 25.9532C25.177 25.8765 25.2421 25.8028 25.3286 25.7664C25.4151 25.7301 25.527 25.7392 25.589 25.8108C25.6582 25.8916 25.6399 26.0127 25.6216 26.1167C25.5758 26.3792 25.5606 26.6467 25.5758 26.9122C25.5829 27.0262 25.5951 27.1423 25.5707 27.2534H25.5697Z" fill="#F7DFC0"/>
<path d="M25.8586 24.9993C25.8627 25.077 25.8311 25.1527 25.7925 25.2204C25.7274 25.3354 25.4822 25.7019 25.3154 25.5787C24.9705 25.3243 25.8301 24.4966 25.8586 24.9993Z" fill="#F7DFC0"/>
<path d="M38.5288 34.6779C38.1901 34.8374 37.8361 34.9666 37.4719 35.0605C36.1393 35.3744 34.7558 35.4077 33.4089 35.1604C33.1627 35.1362 32.9206 35.0887 32.6846 35.0191C33.4343 34.902 34.1871 34.8121 34.9429 34.7526C36.1342 34.6567 37.3335 34.6314 38.5288 34.6779Z" fill="#EAA620"/>
<path d="M39.8902 33.4959C39.8821 34.4417 39.7743 35.3825 39.5698 36.3032C39.5342 36.4637 39.4955 36.6242 39.4549 36.7827C39.4131 36.9361 39.3704 37.0895 39.3246 37.243C39.0052 38.4119 38.1802 39.379 37.0734 39.8877C36.6095 40.0321 36.1222 40.0997 35.635 40.0856C34.3349 40.0856 32.8029 39.5708 31.9565 38.3433C31.7907 38.105 31.6513 37.8396 31.5455 37.5468C31.4855 37.3298 31.4377 37.1107 31.399 36.8897C31.3827 36.7988 31.3695 36.708 31.3573 36.6161C31.3288 36.4051 31.3105 36.1921 31.3013 35.9781C31.2779 35.4098 31.3237 34.8384 31.4387 34.2762C31.4387 34.1116 31.4733 33.9531 31.4987 33.7906C31.4956 33.7422 31.4956 33.6917 31.4997 33.6422C31.6269 32.7105 31.7662 31.7788 31.8527 30.847C31.8914 30.4241 31.926 30.0072 31.9392 29.5842C31.9463 29.4621 31.9595 29.3409 31.9778 29.2218C31.986 29.1723 31.9931 29.1249 32.0033 29.0775C32.0165 29.0108 32.0307 28.9452 32.047 28.8806C32.105 28.6474 32.1833 28.4223 32.28 28.2043C32.5892 27.5158 33.0958 26.9202 33.751 26.4983C34.6177 26.1309 35.5841 26.0753 36.4874 26.3398C37.047 26.4317 37.5912 26.5982 38.1049 26.8355C38.3409 26.9536 38.5596 27.0979 38.757 27.2665C38.8313 27.3301 38.9015 27.3957 38.9686 27.4654C39.0713 27.5683 39.1649 27.6784 39.2514 27.7944C39.3084 27.8863 39.3592 27.9802 39.406 28.0771C39.4131 28.0932 39.4213 28.1104 39.4284 28.1266C39.6237 28.5445 39.7356 28.9967 39.757 29.46C39.7611 29.4752 39.7611 29.4913 39.757 29.5065C39.8282 29.779 39.8618 30.0536 39.8831 30.3332C39.8852 30.3282 39.8882 30.3221 39.8902 30.3171C39.8913 30.3352 39.8923 30.3544 39.8933 30.3726C39.9147 30.7188 39.9289 31.0641 39.935 31.4113C39.9493 32.1058 39.934 32.8014 39.8902 33.4959Z" fill="#DC9123"/>
<path d="M37.9717 31.5437C37.7367 33.5929 36.7764 35.5664 35.2555 36.9796C34.3603 37.8114 33.1365 38.4696 31.9565 38.3434C31.7907 38.1052 31.6513 37.8397 31.5455 37.5469C31.4855 37.3299 31.4377 37.1109 31.399 36.8898C31.3827 36.7989 31.3695 36.7081 31.3573 36.6162C31.3288 36.4052 31.3105 36.1922 31.3013 35.9782C31.2779 35.4099 31.3237 34.8386 31.4387 34.2763C31.4387 34.1118 31.4733 33.9533 31.4987 33.7907C31.4956 33.7423 31.4956 33.6918 31.4997 33.6424C31.6269 32.7106 31.7662 31.7789 31.8527 30.8472C31.8914 30.4242 31.926 30.0073 31.9392 29.5843C31.9463 29.4622 31.9595 29.3411 31.9778 29.2219C31.986 29.1725 31.9931 29.125 32.0033 29.0776C32.0165 29.011 32.0307 28.9453 32.047 28.8807C33.0287 28.5375 34.0826 28.4154 35.1253 28.4093C35.9391 28.4033 37.1243 28.5819 37.6899 29.2522C38.1883 29.8448 38.052 30.8411 37.9717 31.5437Z" fill="#F8B641"/>
<path d="M49.9237 40.464H46.6908C46.6175 40.2621 46.6613 40.0138 46.7111 39.7948C47.0143 38.4744 47.0804 36.9844 47.3835 35.6641C47.413 35.6933 47.4415 35.7226 47.47 35.7519C48.7284 37.0389 49.5941 38.7005 49.9237 40.464Z" fill="#EAA620"/>
<path d="M47.7361 38.6733C47.73 39.2688 47.5856 39.8806 47.4249 40.458C47.4238 40.46 47.4238 40.462 47.4228 40.464H22.6073C22.6052 40.4459 22.6042 40.4277 22.6042 40.4095C22.5595 39.4405 22.6225 38.4734 22.7995 37.5417C22.9287 36.5887 23.2654 35.6772 23.83 34.8979C23.9277 34.7727 24.0345 34.6486 24.1464 34.5274C24.3214 34.3387 24.5096 34.157 24.711 33.9914C24.7537 33.9561 24.7954 33.9207 24.8392 33.8854C25.0752 33.6936 25.3163 33.519 25.5696 33.3776C25.6611 33.3262 25.7537 33.2797 25.8483 33.2383C26.1281 33.1172 26.4241 33.0405 26.7456 33.0304C26.8259 33.0274 26.9073 33.0294 26.9907 33.0354C26.9958 33.0354 27.0009 33.0365 27.006 33.0365C27.0935 33.0435 27.1799 33.0526 27.2674 33.0627C27.3987 33.0778 27.5309 33.093 27.6632 33.1051C27.7852 33.1172 27.9083 33.1253 28.0304 33.1263C28.1352 33.1283 28.24 33.1243 28.3437 33.1122C28.3712 33.1101 28.3986 33.1061 28.4261 33.1021C28.4434 33.099 28.4607 33.097 28.478 33.094C28.5634 33.0789 28.6469 33.0577 28.7303 33.0344C28.9856 32.9618 29.2349 32.8578 29.4892 32.7801C29.8442 32.673 30.2389 32.6175 30.5807 32.7649C30.8432 32.878 30.9286 33.0324 30.9754 33.2202C31.0049 33.3363 31.0192 33.4645 31.0507 33.6048C31.0649 33.6674 31.0843 33.7289 31.1066 33.7895C31.1779 33.9843 31.2898 34.166 31.4281 34.3235C31.4424 34.3397 31.4566 34.3548 31.4708 34.3699C31.5532 34.4578 31.6428 34.5365 31.7394 34.6041C31.7435 34.6072 31.7465 34.6092 31.7506 34.6122C32.0436 34.7879 32.3579 34.9251 32.6845 35.02C32.6987 35.0241 32.7129 35.0281 32.7282 35.0322C32.7424 35.0372 32.7577 35.0412 32.7719 35.0443C32.7943 35.0503 32.8167 35.0564 32.8391 35.0614C32.8533 35.0655 32.8686 35.0695 32.8828 35.0725C32.9296 35.0836 32.9764 35.0937 33.0232 35.1028C33.0354 35.1058 33.0466 35.1079 33.0588 35.1099H33.0608C33.07 35.1119 33.0792 35.1139 33.0883 35.1149C33.128 35.123 33.1697 35.1291 33.2094 35.1361C33.2145 35.1371 33.2185 35.1371 33.2236 35.1381C33.2806 35.1462 33.3365 35.1533 33.3945 35.1593C33.3996 35.1593 33.4037 35.1604 33.4088 35.1604C33.4169 35.1614 33.424 35.1634 33.4322 35.1644C33.4922 35.1755 33.5522 35.1856 33.6122 35.1957C33.6224 35.1977 33.6336 35.1987 33.6437 35.2007C33.7129 35.2118 33.7831 35.2229 33.8533 35.232C33.9204 35.2411 33.9876 35.2502 34.0557 35.2573C34.0639 35.2583 34.071 35.2593 34.0791 35.2603C34.0873 35.2613 34.0954 35.2623 34.1036 35.2623L34.1585 35.2684C34.1636 35.2684 34.1687 35.2684 34.1738 35.2704C34.2165 35.2744 34.2592 35.2785 34.3019 35.2835C34.3742 35.2906 34.4474 35.2956 34.5206 35.3007C34.5451 35.3017 34.5685 35.3037 34.5929 35.3047C34.603 35.3057 34.6132 35.3057 34.6234 35.3067C34.6997 35.3118 34.776 35.3148 34.8523 35.3168C34.893 35.3188 34.9347 35.3198 34.9764 35.3209C35.0506 35.3229 35.1239 35.3239 35.1982 35.3239C35.2643 35.3239 35.3314 35.3239 35.3975 35.3219C35.4484 35.3219 35.5003 35.3198 35.5512 35.3178C35.5573 35.3178 35.5623 35.3178 35.5684 35.3178C35.6366 35.3158 35.7048 35.3128 35.7729 35.3087C35.7831 35.3077 35.7943 35.3077 35.8045 35.3067C35.8889 35.3017 35.9733 35.2946 36.0578 35.2875C36.1005 35.2845 36.1432 35.2805 36.1859 35.2754C36.2337 35.2714 36.2816 35.2663 36.3284 35.2603C36.4514 35.2462 36.5745 35.23 36.6976 35.2108H36.7027C36.7668 35.2007 36.8309 35.1906 36.894 35.1795C36.9458 35.1704 36.9977 35.1614 37.0496 35.1513C37.1035 35.1412 37.1564 35.1311 37.2093 35.12C37.2968 35.1018 37.3843 35.0826 37.4708 35.0624C37.5206 35.0493 37.5694 35.0362 37.6183 35.0221C37.6529 35.012 37.6885 35.0019 37.723 34.9908C37.7739 34.9746 37.8238 34.9585 37.8746 34.9413C37.9194 34.9272 37.9631 34.911 38.0079 34.8949H38.0089C38.0526 34.8787 38.0954 34.8626 38.1391 34.8454C38.1829 34.8292 38.2266 34.8111 38.2703 34.7929C38.2887 34.7858 38.3059 34.7788 38.3243 34.7707C38.3487 34.7596 38.3741 34.7495 38.3985 34.7374C38.4423 34.7192 38.485 34.7 38.5277 34.6798C38.7261 34.587 38.9194 34.483 39.1065 34.3679C39.1605 34.3356 39.2134 34.3013 39.2663 34.266C39.3212 34.2306 39.3751 34.1943 39.428 34.157C39.5308 34.0923 39.6315 34.0176 39.7301 33.9389C39.781 33.8985 39.8309 33.8571 39.8807 33.8147H39.8817C39.9234 33.7794 39.9662 33.7431 40.0079 33.7077C40.3151 33.4473 40.6243 33.1828 40.9824 33.0496C41.1269 32.9961 41.2795 32.9638 41.4432 32.9618H41.4544C41.5785 32.9618 41.7016 32.9739 41.8227 32.9951C42.2001 33.0597 42.5643 33.2131 42.9193 33.3655C43.1818 33.4776 43.4432 33.5896 43.7057 33.7017C43.8054 33.7441 43.904 33.7865 44.0037 33.8289C44.0231 33.837 44.0414 33.845 44.0607 33.8531C44.1299 33.8834 44.2001 33.9127 44.2693 33.9429C44.3862 33.9924 44.5022 34.0429 44.6192 34.0923C44.6955 34.1257 44.7738 34.157 44.8552 34.1882C44.8989 34.2064 44.9437 34.2236 44.9895 34.2407C45.079 34.274 45.1706 34.3074 45.2631 34.3417C45.3069 34.3568 45.3506 34.373 45.3944 34.3901C45.5327 34.4396 45.6731 34.4911 45.8114 34.5456C46.2611 34.7212 46.6965 34.9231 47.0281 35.2058L47.0495 35.2239C47.1532 35.3138 47.2448 35.4147 47.3241 35.5258C47.377 35.5974 47.4249 35.6732 47.4676 35.7529C47.907 36.5484 47.8989 37.681 47.7341 38.6743L47.7361 38.6733Z" fill="#EAA620"/>
<path d="M47.0549 35.6089C47.0549 35.7664 47.0437 35.9249 47.0213 36.0824C47.0081 36.2025 46.9928 36.3206 46.9765 36.4387C46.9694 36.4942 46.9613 36.5497 46.9521 36.6032C46.942 36.681 46.9298 36.7557 46.9155 36.8314C46.9064 36.8859 46.8982 36.9384 46.888 36.9929C46.829 37.3149 46.7568 37.6349 46.6724 37.9499C46.6551 38.0124 46.6388 38.076 46.6205 38.1386C46.6174 38.1538 46.6124 38.1679 46.6083 38.181C46.59 38.2456 46.5707 38.3102 46.5513 38.3738C46.5005 38.5414 46.4465 38.709 46.3875 38.8735C46.3591 38.9553 46.3296 39.037 46.299 39.1178C46.298 39.1218 46.296 39.1249 46.295 39.1279C46.2685 39.1996 46.2411 39.2733 46.2116 39.3449C46.1902 39.3974 46.1678 39.4509 46.1464 39.5034C46.121 39.565 46.0946 39.6276 46.0681 39.6902C45.9593 39.9425 45.8423 40.1909 45.7161 40.4361C45.7111 40.4452 45.706 40.4553 45.7019 40.4644H24.0328C24.0287 40.4462 24.0236 40.4281 24.0196 40.4099C23.8507 39.6609 23.7917 38.8998 23.8731 38.1699C23.8822 38.0972 23.8914 38.0256 23.9026 37.9519C23.9036 37.9468 23.9036 37.9438 23.9056 37.9387C23.9677 37.5138 24.0613 37.0585 24.1874 36.5406C24.3532 35.8593 24.7378 34.8468 25.2006 33.9938C25.3074 33.7969 25.4193 33.6082 25.5323 33.4345H25.5333C25.5455 33.4154 25.5577 33.3962 25.5699 33.378C25.6208 33.3003 25.6737 33.2256 25.7255 33.1559C25.7266 33.1549 25.7266 33.1539 25.7276 33.1529C25.7428 33.1317 25.7581 33.1115 25.7754 33.0913C25.8639 32.9752 25.9544 32.8693 26.045 32.7784C26.3349 32.4857 26.5556 32.2939 26.75 32.1737C26.9534 32.0486 27.1263 32.0021 27.3176 32.0001C27.4692 31.9981 27.6319 32.0243 27.8293 32.0617C27.8842 32.0718 27.9412 32.0819 28.0012 32.094C28.0612 32.1051 28.1243 32.1172 28.1914 32.1293C28.284 32.1455 28.3847 32.1616 28.4936 32.1778C28.5261 32.1828 28.5597 32.1869 28.5933 32.1919C28.7418 32.2121 28.8913 32.2121 29.0398 32.1919C29.6187 32.0799 30.2128 32.0597 30.7967 32.1303C31.0032 32.1778 31.1894 32.2888 31.3287 32.4473C31.4203 32.5977 31.4783 32.7633 31.5007 32.9339C31.5118 33.0146 31.5149 33.0984 31.5098 33.1812C31.5108 33.3205 31.5098 33.4608 31.5047 33.6021V33.6193C31.5027 33.6698 31.5007 33.7212 31.4996 33.7717C31.4986 33.7757 31.4986 33.7798 31.4986 33.7838V33.7889C31.4986 33.7889 31.4976 33.7899 31.4986 33.7909C31.4976 33.7969 31.4976 33.801 31.4976 33.806C31.4905 33.9938 31.4813 34.1815 31.4722 34.3703C31.4681 34.4571 31.464 34.5439 31.461 34.6297C31.4315 35.4272 31.4406 36.2297 31.7234 36.9525C31.7326 36.9767 31.7428 37 31.7529 37.0242L31.756 37.0302C31.7784 37.0847 31.8018 37.1393 31.8292 37.1928C32.0408 37.6288 32.3348 38.0124 32.6899 38.3254C33.1741 38.7544 33.7722 39.0512 34.4264 39.1763C35.2666 39.351 36.1395 39.2369 36.9044 38.8523C37.4497 38.5263 37.9207 38.0982 38.2951 37.5965C38.5423 37.2644 38.7478 36.901 38.9034 36.5134C39.0102 36.2449 39.1099 35.9673 39.2035 35.6887C39.2249 35.6271 39.2452 35.5655 39.2645 35.5049C39.2879 35.4353 39.3103 35.3667 39.3327 35.298C39.3632 35.2072 39.3927 35.1163 39.4222 35.0265C39.4263 35.0143 39.4293 35.0022 39.4334 34.9901C39.4517 34.9296 39.47 34.869 39.4883 34.8094C39.5758 34.5238 39.6552 34.2381 39.7294 33.9504L39.7325 33.9383C39.7945 33.7051 39.8515 33.4699 39.9044 33.2367H39.9054V33.2327C39.9207 33.1701 39.9349 33.1055 39.9482 33.0429C39.9797 32.8077 40.0641 32.5805 40.1943 32.3817C40.5239 31.9557 41.3072 32.0294 41.7966 32.1283C41.823 32.1334 41.8484 32.1394 41.8728 32.1445C42.5239 32.2838 43.118 32.6128 43.5788 33.0893C43.6266 33.1549 43.6785 33.2165 43.7345 33.2771C43.7884 33.3376 43.8443 33.3942 43.9023 33.4487C43.9461 33.4891 43.9898 33.5274 44.0356 33.5638C44.0519 33.5769 44.0692 33.591 44.0865 33.6041C44.1587 33.6607 44.235 33.7142 44.3143 33.7636H44.3153C44.356 33.7889 44.3957 33.8131 44.4374 33.8363C44.4557 33.8434 44.474 33.8504 44.4934 33.8565C44.6399 33.9039 44.7924 33.915 44.9491 33.912C44.9929 33.912 45.0386 33.909 45.0834 33.907C45.121 33.9039 45.1597 33.9009 45.1973 33.8979C45.3428 33.8848 45.4903 33.8686 45.6358 33.8646C45.6653 33.8626 45.6948 33.8626 45.7243 33.8626C45.7426 33.8626 45.7619 33.8626 45.7802 33.8646C45.8087 33.8646 45.8382 33.8666 45.8677 33.8686C45.9511 33.8767 46.0356 33.8908 46.1159 33.915C46.5239 34.0574 46.8372 34.3875 46.9552 34.8003C46.9725 34.87 46.9877 34.9407 46.9989 35.0113C47.0081 35.0598 47.0172 35.1102 47.0233 35.1597C47.0264 35.1698 47.0274 35.1809 47.0284 35.191C47.0294 35.1961 47.0294 35.2001 47.0305 35.2051C47.0345 35.2374 47.0376 35.2718 47.0417 35.3041V35.3091C47.0467 35.3596 47.0488 35.4101 47.0518 35.4605C47.0539 35.51 47.0549 35.5595 47.0549 35.6089Z" fill="#F8B641"/>
<path d="M30.5699 40.4642H29.9544C29.932 40.446 29.9096 40.4279 29.8873 40.4097C29.3064 39.9353 28.8089 39.3589 28.4214 38.7017C27.5567 37.1895 27.4224 35.4634 27.5943 33.7039C27.6136 33.504 27.637 33.3051 27.6645 33.1053C27.6848 32.9427 27.7093 32.7812 27.7347 32.6187C27.7357 32.6137 27.7357 32.6096 27.7377 32.6046C27.7652 32.4239 27.7967 32.2432 27.8293 32.0625C27.8842 32.0716 27.9412 32.0827 28.0012 32.0938C28.0612 32.1049 28.1243 32.117 28.1914 32.1291C28.1538 32.334 28.1192 32.539 28.0877 32.7439C28.0785 32.8024 28.0694 32.86 28.0612 32.9185C28.0511 32.9892 28.0409 33.0578 28.0317 33.1265C27.9534 33.7069 27.9025 34.2843 27.8975 34.8516C27.8842 36.1528 28.1019 37.4025 28.7408 38.523C29.0938 39.1226 29.5465 39.6506 30.0724 40.0897C30.2311 40.223 30.3969 40.3481 30.5699 40.4642Z" fill="#EAA620"/>
<path d="M44.0865 33.6049C44.0804 33.6877 44.0723 33.7705 44.0631 33.8522C44.0133 34.3338 43.9258 34.8112 43.8037 35.2796C43.7905 35.3311 43.7762 35.3826 43.762 35.4351C43.7142 35.6037 43.6633 35.7712 43.6064 35.9378C43.5453 36.1175 43.4792 36.2972 43.407 36.4738C42.8963 37.9224 42.1486 39.269 41.1974 40.4642H40.7417C41.7559 39.2417 42.5464 37.8477 43.0733 36.3416C43.0977 36.281 43.1221 36.2204 43.1455 36.1589C43.2137 35.9802 43.2757 35.7995 43.3327 35.6178C43.349 35.5663 43.3643 35.5148 43.3795 35.4623C43.3948 35.4098 43.41 35.3573 43.4233 35.3038C43.5667 34.7799 43.6613 34.2429 43.7081 33.7008C43.7203 33.5595 43.7295 33.4182 43.7345 33.2769C43.7885 33.3374 43.8444 33.394 43.9024 33.4485C43.9461 33.4888 43.9899 33.5272 44.0357 33.5635C44.0519 33.5777 44.0692 33.5918 44.0865 33.6049Z" fill="#EAA620"/>
<path d="M46.4864 35.6391C46.4263 37.343 45.8882 39.0248 44.9676 40.4643H44.1924C44.7478 39.6012 45.169 38.6543 45.4396 37.6671C45.6573 36.8747 45.7559 36.0752 45.7956 35.2575C45.8506 34.1047 46.5138 34.8578 46.4864 35.6391Z" fill="#F7DFC0"/>
<path d="M40.3827 34.7598C40.2118 35.8833 39.752 36.9634 39.0582 37.8679C38.9859 37.9628 38.9086 38.0597 38.8802 38.1748C38.8517 38.2899 38.8863 38.4312 38.9931 38.4867C39.1263 38.5554 39.284 38.4625 39.401 38.3696C40.7662 37.2845 41.6583 35.633 41.814 33.9038C41.8547 33.4505 41.6533 32.6955 41.0449 33.0134C40.4844 33.3062 40.463 34.2359 40.3827 34.7608V34.7598Z" fill="#F7DFC0"/>
<path d="M26.83 34.4337C26.1586 36.0095 26.1627 37.9901 26.6571 39.6193C26.7364 39.8828 26.8371 40.1473 26.9551 40.4097C26.9623 40.4279 26.9704 40.4461 26.9785 40.4642H25.3143C25.3071 40.4461 25.301 40.4279 25.2959 40.4097C24.9653 39.3972 24.8555 38.305 24.948 37.2632C25.064 35.951 25.4363 34.5145 26.2919 33.4748C26.3539 33.398 26.42 33.3233 26.4882 33.2517C26.5655 33.1699 26.6479 33.0891 26.7456 33.0306C26.769 33.0165 26.7924 33.0043 26.8178 32.9932C26.947 32.9377 27.1077 32.9337 27.2217 33.0154C27.24 33.0286 27.2552 33.0447 27.2674 33.0629C27.3529 33.1871 27.3 33.4162 27.2044 33.6554C27.0823 33.9653 26.889 34.2924 26.829 34.4337H26.83Z" fill="#F7DFC0"/>
<path d="M28.7252 36.5766C29.0426 37.9061 29.9734 39.077 31.2013 39.6938C31.4536 39.82 31.8188 39.8957 31.9683 39.6585C32.1087 39.4354 31.9185 39.1598 31.7496 38.9569C30.7974 37.8142 30.2328 36.3626 30.1484 34.8837C30.1189 34.379 30.5106 33.0556 29.772 32.8547C29.5065 32.783 29.2166 32.9143 29.0365 33.1202C28.8554 33.3261 28.7639 33.5936 28.6957 33.8581C28.4526 34.803 28.5055 35.6499 28.7263 36.5756L28.7252 36.5766Z" fill="#F7DFC0"/>
<path d="M33.2717 40.4579C33.2717 40.4579 33.2676 40.4619 33.2656 40.4639H32.6471C32.3317 40.365 31.9807 40.1742 32.1303 39.9077C32.3612 39.4928 33.5168 40.1429 33.2717 40.4579Z" fill="#F7DFC0"/>
<path d="M44.8219 25.4415C44.766 25.7009 44.6744 25.9442 44.5503 26.1653C44.2156 26.7679 43.6541 27.2091 43.001 27.4049C42.589 27.5281 42.1414 27.5533 41.6928 27.4584C40.8596 27.2828 40.2035 26.7366 39.8617 26.03C39.6155 25.5263 39.531 24.9418 39.6572 24.3523C39.8555 23.4246 40.5259 22.718 41.3652 22.4232C41.8067 22.2688 42.296 22.2294 42.7884 22.3334C44.2146 22.6342 45.1241 24.0252 44.8219 25.4405V25.4415Z" fill="#D58B28"/>
<path d="M44.1483 26.0469C44.1574 26.3195 44.1055 26.592 44.0048 26.8444C43.7169 27.1008 43.3731 27.2936 43.0008 27.4056C42.5888 27.5288 42.1412 27.554 41.6915 27.4591C41.132 27.341 40.6509 27.0554 40.2938 26.6647C40.4464 26.7323 40.6071 26.7828 40.7719 26.8151C40.6855 26.7757 40.602 26.7273 40.5247 26.6708C40.2358 26.4578 40.1259 26.1166 40.1626 25.7612C40.5288 26.0287 41.0649 26.0409 41.4423 25.7895C41.8197 25.5381 42.013 25.0415 41.9021 24.6044C42.0303 24.3328 42.1585 24.2369 42.4606 24.2622C42.7617 24.2874 43.0354 24.4762 43.1992 24.7286C43.2175 24.7578 43.2348 24.7871 43.25 24.8174C43.2449 24.6771 43.2225 24.5378 43.1829 24.4025C43.7617 24.7084 44.1269 25.3968 44.1483 26.0469Z" fill="#EAA620"/>
<path d="M44.8216 25.4414C44.6477 26.257 44.1085 26.9031 43.4086 27.2433C43.2774 27.3099 43.1401 27.3634 43.0007 27.4058C43.1675 27.2726 43.3191 27.1232 43.4473 26.9516C43.7392 26.5609 43.8878 26.038 43.7311 25.5777C43.5836 25.1436 43.1797 24.8216 42.7301 24.7196C42.2815 24.6177 41.8003 24.7196 41.4005 24.9458C40.9997 25.1719 40.6762 25.5141 40.4209 25.8936C40.3659 25.1487 40.4555 24.3916 40.7006 23.689C40.7922 23.4225 40.9081 23.1641 41.0455 22.9157C41.1401 22.7462 41.2459 22.5806 41.3669 22.4262C41.8084 22.2717 42.2977 22.2323 42.7901 22.3363C44.2163 22.6371 45.1258 24.0282 44.8237 25.4434L44.8216 25.4414Z" fill="#F8B641"/>
<path d="M42.3254 17.5022C42.3254 17.5022 42.2583 18.1493 42.1566 19.0851C42.0945 19.6514 42.0213 20.3227 41.9419 21.0202C41.8107 22.1801 41.6662 23.4156 41.5421 24.3625C41.5401 24.3736 41.5391 24.3857 41.536 24.3968C41.2868 26.2593 40.6001 27.5524 40.2898 28.0601C40.2837 28.0692 40.2776 28.0783 40.2726 28.0864C40.2258 28.1571 40.179 28.2287 40.1322 28.2974C38.6307 30.5061 36.1404 31.8295 33.5361 31.6568C33.532 31.6568 33.527 31.6568 33.5239 31.6558C33.354 31.6457 33.1872 31.6276 33.0173 31.6033C32.998 31.6003 32.9786 31.5973 32.9593 31.5943C32.8291 31.5751 32.6979 31.5519 32.5677 31.5236C32.4568 31.5004 32.3469 31.4751 32.2381 31.4459C31.173 31.1662 30.2228 30.6464 29.4294 29.9488C27.6888 28.4225 26.6959 26.0503 26.8678 23.5226C26.8902 23.1804 26.934 22.8362 27.0011 22.491C27.1405 21.6773 27.4121 20.6588 27.7254 19.6322C27.759 19.5201 27.7925 19.4091 27.8281 19.2991C27.878 19.1406 27.9278 18.9811 27.9787 18.8226C28.0652 18.5551 28.1527 18.2896 28.2401 18.0312C28.292 17.8767 28.3439 17.7243 28.3958 17.5739C28.5748 17.054 28.7468 16.5715 28.8973 16.1596C29.1994 15.3289 29.4131 14.7817 29.4131 14.7817L31.5392 15.2299L35.944 16.1576L42.3254 17.5022Z" fill="#DC9123"/>
<path d="M28.3958 17.5738C28.7244 16.6188 28.8119 16.11 29.7457 15.6376C30.4782 15.2661 31.2737 15.0198 32.0865 14.8987C33.6755 14.6615 35.3448 14.9037 36.7711 15.6497C38.533 16.5714 39.8636 18.2299 40.4607 20.1075C41.1189 22.1769 40.6144 24.4653 39.6896 26.3894C38.8738 28.0883 37.6225 29.6247 35.9603 30.5312C33.7569 31.7324 31.3022 31.5921 29.4294 29.9487C27.6888 28.4224 26.6959 26.0502 26.8678 23.5225C27.0245 22.2041 27.349 20.8858 27.7254 19.632C27.759 19.52 27.7925 19.409 27.8281 19.2989C27.877 19.1384 27.9278 18.9799 27.9787 18.8225C28.0642 18.555 28.1516 18.2905 28.2401 18.031C28.292 17.8766 28.3439 17.7242 28.3958 17.5738Z" fill="#F8B641"/>
<path d="M43.9695 17.9896C44.0549 18.3278 44.3215 18.6155 44.6531 18.7275C44.8047 18.779 44.9725 18.7941 45.1231 18.7406C45.2736 18.6871 45.4008 18.5539 45.4181 18.3964C45.4394 18.2016 45.3011 18.029 45.1719 17.8816C44.9837 17.6676 44.6063 17.0256 44.2757 17.0962C43.9451 17.1669 43.9044 17.7302 43.9695 17.9896Z" fill="#F6B542"/>
<path d="M29.6857 22.388C29.7823 22.1084 30.0905 21.959 30.3723 22.0559C30.4659 22.0882 30.5463 22.1437 30.6063 22.2144C30.7273 22.3527 30.7731 22.5506 30.708 22.7383C30.6114 23.0179 30.3031 23.1673 30.0214 23.0704C29.8922 23.026 29.7904 22.9372 29.7274 22.8261C29.6541 22.6979 29.6338 22.5394 29.6857 22.388Z" fill="#AD6D29"/>
<path d="M29.6857 22.388C29.7823 22.1084 30.0905 21.959 30.3723 22.0559C30.4659 22.0882 30.5463 22.1437 30.6063 22.2144C30.6765 22.3406 30.6938 22.496 30.6429 22.6434C30.5453 22.924 30.237 23.0734 29.9542 22.9765C29.8647 22.9463 29.7874 22.8928 29.7274 22.8261C29.6541 22.6979 29.6338 22.5394 29.6857 22.388Z" fill="#BE7C2A"/>
<path d="M29.9613 22.2949C29.9013 22.3444 29.8626 22.415 29.8362 22.4877C29.8219 22.5291 29.8097 22.5715 29.8117 22.6149C29.8138 22.6583 29.829 22.7027 29.8606 22.732C29.883 22.7522 29.9196 22.7633 29.9409 22.7431C29.9593 22.7259 29.9582 22.6977 29.9582 22.6724C29.9582 22.5735 30.0101 22.4766 30.0915 22.4201C30.1159 22.4029 30.1424 22.3898 30.1658 22.3716C30.2156 22.3312 30.2329 22.2525 30.1576 22.2364C30.0915 22.2222 30.0101 22.2535 29.9603 22.2949H29.9613Z" fill="#F2DABD"/>
<path d="M30.0844 22.5572C30.0793 22.5774 30.0783 22.5996 30.0875 22.6178C30.0966 22.636 30.119 22.6491 30.1393 22.643C30.1678 22.6349 30.176 22.5986 30.1963 22.5774C30.2167 22.5562 30.2533 22.5481 30.2594 22.5189C30.2624 22.5017 30.2533 22.4845 30.2401 22.4744C30.177 22.425 30.1017 22.4936 30.0844 22.5562V22.5572Z" fill="#F2DABD"/>
<path d="M35.131 23.5922C35.193 23.3025 35.4799 23.1177 35.7719 23.1793C35.8685 23.1995 35.955 23.2449 36.0231 23.3085C36.1605 23.4317 36.2297 23.6225 36.1879 23.8153C36.1259 24.105 35.839 24.2897 35.5471 24.2281C35.4128 24.1999 35.3009 24.1232 35.2256 24.0212C35.1371 23.9031 35.0974 23.7487 35.131 23.5922Z" fill="#AD6D29"/>
<path d="M35.131 23.5922C35.1931 23.3025 35.48 23.1177 35.7719 23.1793C35.8686 23.1995 35.955 23.2449 36.0232 23.3085C36.1086 23.4256 36.1442 23.577 36.1117 23.7305C36.0496 24.0212 35.7617 24.2069 35.4688 24.1444C35.3752 24.1252 35.2928 24.0818 35.2246 24.0222C35.1361 23.9041 35.0964 23.7497 35.13 23.5932L35.131 23.5922Z" fill="#BE7C2A"/>
<path d="M35.3937 23.4661C35.3398 23.5227 35.3103 23.5974 35.293 23.6731C35.2838 23.7155 35.2777 23.7589 35.2849 23.8023C35.292 23.8457 35.3123 23.8871 35.3479 23.9123C35.3723 23.9295 35.41 23.9366 35.4293 23.9143C35.4456 23.8952 35.4405 23.8669 35.4374 23.8417C35.4252 23.7437 35.4649 23.6408 35.5392 23.5752C35.5616 23.556 35.586 23.5388 35.6073 23.5176C35.6521 23.4712 35.6592 23.3904 35.5829 23.3844C35.5158 23.3783 35.4385 23.4197 35.3947 23.4661H35.3937Z" fill="#F2DABD"/>
<path d="M35.5491 23.7121C35.5461 23.7323 35.5481 23.7545 35.5593 23.7717C35.5705 23.7889 35.5949 23.7989 35.6142 23.7909C35.6417 23.7788 35.6448 23.7424 35.6631 23.7192C35.6814 23.696 35.716 23.6829 35.718 23.6536C35.719 23.6364 35.7078 23.6203 35.6936 23.6122C35.6244 23.5708 35.5593 23.6485 35.5491 23.7121Z" fill="#F2DABD"/>
<path d="M32.0327 26.2892C32.0093 26.2892 31.9859 26.2841 31.9646 26.273L30.7571 25.6694C30.6757 25.628 30.6136 25.5553 30.5882 25.4675C30.5628 25.3807 30.575 25.2858 30.6218 25.207L33.166 20.9633C33.2087 20.8916 33.3023 20.8674 33.3756 20.9108C33.4478 20.9532 33.4722 21.046 33.4285 21.1187L30.8842 25.3625C30.8791 25.3706 30.8802 25.3786 30.8812 25.3837C30.8822 25.3887 30.8863 25.3958 30.8944 25.3998L32.1019 26.0035C32.1772 26.0408 32.2077 26.1317 32.1701 26.2064C32.1436 26.2589 32.0897 26.2902 32.0338 26.2902L32.0327 26.2892Z" fill="#AD6D29"/>
<path d="M28.9799 24.5935C28.5964 24.5935 28.219 24.5178 27.8701 24.3563C27.3279 24.1049 26.9342 23.6426 26.7307 23.0177C26.455 22.1708 26.572 21.1613 27.0461 20.3184C27.8426 18.9001 29.7307 18.4459 30.8863 18.988C31.4621 19.2575 31.8924 19.7552 32.0979 20.3891C32.3553 21.1856 32.2403 22.1395 31.7907 22.941C31.2118 23.9717 30.0766 24.5945 28.9799 24.5945V24.5935ZM29.8233 19.1515C28.9555 19.1515 27.9128 19.5512 27.3787 20.5011C26.9627 21.2431 26.8528 22.1627 27.0929 22.9006C27.2628 23.4235 27.5873 23.8081 28.0308 24.013C29.2007 24.5551 30.7703 23.9797 31.457 22.7553C31.8568 22.0426 31.9606 21.2007 31.7347 20.5022C31.5598 19.9621 31.2098 19.5553 30.7236 19.3271C30.4784 19.2121 30.164 19.1505 29.8222 19.1505L29.8233 19.1515Z" fill="white"/>
<path d="M35.7191 26.7061C35.4729 26.7061 35.2328 26.6778 35.0029 26.6202C34.3041 26.4456 33.7201 25.9813 33.359 25.313C32.9612 24.5771 32.8982 23.6908 33.1861 22.8822C33.9511 20.7321 35.6367 20.1658 36.8798 20.5504C37.6489 20.7886 38.3101 21.3317 38.6946 22.0413C39.1005 22.7904 39.1768 23.6666 38.9113 24.5095C38.6692 25.2787 38.0985 25.9227 37.3061 26.3204C36.8005 26.5748 36.2491 26.7061 35.7191 26.7061ZM36.1372 20.8169C35.1769 20.8169 34.0996 21.4478 33.5452 23.0074C33.2929 23.716 33.3478 24.4913 33.6947 25.1343C34.005 25.7077 34.5024 26.1054 35.0955 26.2538C36.3498 26.5688 38.0924 25.8399 38.5471 24.3964C38.7821 23.6514 38.715 22.8792 38.3579 22.22C38.0202 21.5962 37.4393 21.1187 36.7659 20.9108C36.5675 20.8492 36.3549 20.8169 36.1372 20.8169Z" fill="white"/>
<path d="M33.526 22.7382C33.4284 22.7382 33.3449 22.6645 33.3368 22.5655C33.3134 22.3041 33.2239 22.1375 32.816 22.0083C32.4579 21.8942 32.2371 22.1244 32.227 22.1345C32.1557 22.2102 32.0357 22.2163 31.9584 22.1466C31.8811 22.077 31.874 21.9599 31.9431 21.8821C31.9584 21.865 32.3327 21.4582 32.9309 21.6489C33.4396 21.8105 33.6735 22.0749 33.7142 22.5322C33.7234 22.6362 33.6461 22.7281 33.5413 22.7371C33.5352 22.7371 33.5301 22.7371 33.524 22.7371L33.526 22.7382Z" fill="white"/>
<path d="M36.7273 19.9248C37.3316 20.054 37.9908 19.9046 38.477 19.5261C38.7751 19.2949 39.0213 18.9325 38.9491 18.5641C38.8707 18.1623 38.4567 17.92 38.0661 17.7888C37.5238 17.6061 36.9186 17.5374 36.3835 17.7403C35.9552 17.9029 35.3723 18.4177 35.4303 18.9295C35.4903 19.4615 36.2746 19.8289 36.7273 19.9258V19.9248Z" fill="#BE7C2A"/>
<path d="M31.056 18.3237C31.3297 19.0525 32.4192 19.3029 33.1089 19.2423C33.9227 19.1706 34.6918 18.6992 35.1211 18.0097C35.2615 17.7836 35.2655 17.4485 35.1262 17.2213C34.9868 16.9942 34.7528 16.8408 34.5107 16.7287C33.8383 16.4188 33.0418 16.4047 32.35 16.6611C31.7518 16.8832 30.9126 17.3556 31.0011 18.0915C31.0113 18.1743 31.0296 18.251 31.057 18.3237H31.056Z" fill="#BE7C2A"/>
<path d="M29.6401 15.4377C29.1447 15.5579 28.693 15.5044 28.3115 15.3247C28.1854 15.2651 28.0664 15.1904 27.9565 15.1046C27.9178 15.0743 27.8802 15.043 27.8446 15.0087C27.7886 14.9593 27.7368 14.9078 27.6869 14.8502C27.5821 14.7321 27.4896 14.5989 27.4112 14.4545C27.4092 14.4525 27.4082 14.4505 27.4072 14.4485C27.3695 14.3778 27.3329 14.3031 27.3014 14.2264C27.2281 14.0538 27.1742 13.87 27.1406 13.6762C26.986 12.8061 27.2261 11.8138 28.0715 11.4463C28.1467 11.412 28.2261 11.3838 28.3115 11.3615C28.5628 11.2949 28.8364 11.2979 29.0847 11.3726C29.1976 11.407 29.3064 11.4554 29.4061 11.52C29.458 11.5513 29.5058 11.5887 29.5516 11.629C29.8273 11.8764 30.0714 11.9763 30.3237 12.1509C30.34 12.162 30.3552 12.1731 30.3725 12.1853C30.4509 12.2418 30.5302 12.3084 30.6116 12.3892C30.7795 12.5547 30.9371 12.7374 31.0378 12.9484C31.1131 13.1059 31.2352 13.2745 31.2789 13.4451C31.2962 13.5056 31.3023 13.5662 31.2932 13.6258C31.1711 14.4818 30.4865 15.2308 29.6411 15.4367L29.6401 15.4377Z" fill="#EAA620"/>
<path d="M26.9767 19.4967C26.76 18.4812 27.35 17.9048 27.8881 17.5161L27.9777 17.6383C27.4456 18.0219 26.9288 18.5397 27.1262 19.4644L26.9767 19.4957V19.4967Z" fill="#EED1A2"/>
<path d="M30.7224 17.4666C30.3867 17.9259 29.8373 18.2923 29.2697 18.3872C28.8994 18.4488 28.5138 18.3852 28.1792 18.2226C28.0866 18.1782 27.996 18.1257 27.9126 18.0672C27.8689 18.0359 27.8262 18.0036 27.7865 17.9703C27.4498 17.6896 27.2575 17.3182 27.172 16.879C27.0734 16.3804 27.1578 15.7939 27.58 15.4618C27.7936 15.2942 28.053 15.1933 28.3134 15.1206C28.641 15.0287 28.9798 14.9782 29.3185 14.9681C29.4681 14.9621 29.6156 14.9661 29.7641 14.9772C29.9502 14.9924 30.1374 15.0196 30.3165 15.0731C30.4202 15.1024 30.5199 15.1418 30.6155 15.1902C30.877 15.3255 31.1018 15.5486 31.1903 15.8272C31.3663 16.3905 31.0469 17.0194 30.7213 17.4666H30.7224Z" fill="#EAA620"/>
<path d="M30.7224 17.4666C30.3867 17.9259 29.8374 18.2924 29.2697 18.3873C28.8994 18.4488 28.5139 18.3852 28.1792 18.2227C28.2677 18.2167 28.3532 18.2076 28.4294 18.2005C28.7265 18.1692 29.0205 18.0955 29.2911 17.9704C29.3216 17.9562 29.3511 17.9401 29.3796 17.9259C29.9055 17.6453 30.2636 17.1285 30.464 16.5803C30.6034 16.2028 30.7499 15.5618 30.466 15.2246C30.4203 15.1701 30.3714 15.1196 30.3175 15.0742C30.4213 15.1035 30.521 15.1429 30.6166 15.1913C30.878 15.3266 31.1029 15.5497 31.1914 15.8283C31.3674 16.3916 31.0479 17.0205 30.7224 17.4676V17.4666Z" fill="#D58B28"/>
<path d="M27.5434 16.4651C27.5698 16.6165 27.6634 16.7902 27.818 16.7881C27.9676 16.7861 28.0541 16.6287 28.1476 16.5136C28.2555 16.3803 28.4101 16.2844 28.578 16.2461C28.6776 16.2229 28.7824 16.2198 28.8791 16.1865C28.9757 16.1532 29.0693 16.0795 29.0825 15.9786C29.1324 15.6121 28.5017 15.3527 28.2138 15.4466C27.7377 15.601 27.4518 15.9473 27.5434 16.4651Z" fill="#F6DDBE"/>
<path d="M27.9077 16.9904C27.9921 16.9561 28.0562 16.8884 28.1284 16.8329C28.1793 16.7935 28.2403 16.7592 28.3044 16.7673C28.4062 16.7804 28.4621 16.8965 28.4611 16.9975C28.4601 17.1428 28.3726 17.2852 28.2424 17.3528C28.1122 17.4204 27.9453 17.4113 27.8233 17.3296C27.7531 17.2821 27.6381 17.157 27.6503 17.0621C27.6676 16.9217 27.7988 17.0348 27.9087 16.9894L27.9077 16.9904Z" fill="#F6DDBE"/>
<path d="M28.5443 13.6845C28.468 13.8662 28.3531 14.057 28.1628 14.1135C28.0113 14.1589 27.8424 14.1044 27.7234 14.0024C27.6044 13.9005 27.5281 13.7561 27.4772 13.6077C27.3022 13.097 27.4345 12.4963 27.8282 12.1198C27.9797 11.9744 28.3307 11.7635 28.5555 11.8563C28.7325 11.93 28.7691 12.2197 28.7824 12.3913C28.8149 12.8183 28.7101 13.2898 28.5453 13.6835L28.5443 13.6845Z" fill="#F6DDBE"/>
<path d="M34.8819 13.6035C34.5127 14.0769 33.9664 14.4515 33.3672 14.6826C32.8952 14.8653 32.3896 14.9552 31.9135 14.9299C31.3998 14.9037 30.8942 14.7553 30.4466 14.506C30.4018 14.4807 30.3561 14.4545 30.3113 14.4272C30.0224 14.2496 29.7854 14.1032 29.6063 13.8104C29.4303 13.5228 29.3093 13.2038 29.2442 12.8727C29.1628 12.4628 29.1689 12.0368 29.2635 11.631C29.3235 11.3706 29.4212 11.1192 29.5575 10.8871C30.2197 9.75445 31.469 9.35773 32.6541 9.55558C33.1749 9.6424 33.6836 9.84328 34.1251 10.1491C34.2655 10.2461 34.413 10.3621 34.5564 10.4914C34.9013 10.7992 35.2268 11.1838 35.3845 11.5604C35.6887 12.2892 35.3326 13.0261 34.8809 13.6035H34.8819Z" fill="#EAA620"/>
<path d="M30.7313 10.1745C30.9887 10.014 31.3112 9.91408 31.5991 10.013C31.9938 10.1483 32.1433 10.6389 31.8809 10.9579C31.7212 11.1517 31.4892 11.2789 31.3397 11.4797C31.1891 11.6837 31.1383 11.9411 31.062 12.1823C30.9857 12.4236 30.8636 12.6739 30.6347 12.787C30.4628 12.8718 30.2451 12.8597 30.0844 12.7557C29.7253 12.5255 29.7924 11.8159 29.8636 11.4515C29.9643 10.9316 30.2787 10.4562 30.7313 10.1745Z" fill="#F6DDBE"/>
<path d="M31.7489 11.3706C31.8608 11.2969 32.0388 11.312 32.0998 11.4301C32.167 11.5614 32.0602 11.7108 31.9605 11.8188C31.8333 11.9571 31.7051 12.0954 31.578 12.2337C31.3491 12.482 31.3582 12.1337 31.4091 11.9995C31.4813 11.8117 31.5708 11.4867 31.7489 11.3696V11.3706Z" fill="#F6DDBE"/>
<path d="M44.6601 20.8536C43.9683 21.3694 43.0752 21.5703 42.2095 21.5461C41.8575 21.536 41.5726 21.535 41.2766 21.3886H41.2756C41.24 21.3705 41.2054 21.3503 41.1698 21.3291C40.8341 21.1221 40.5767 20.8132 40.3407 20.4983C39.5452 19.4383 38.9135 18.2694 38.2848 17.1045C37.9237 16.4352 37.2278 16.4433 36.4842 16.2606C35.7426 16.0789 34.9471 15.9264 34.3856 15.4126C34.2065 15.2491 34.06 15.0533 33.9532 14.8393C33.7243 14.3921 33.6531 13.8651 33.7518 13.3725C33.9003 12.6447 34.294 12.4156 34.8433 11.9098C36.3448 10.5299 38.5798 10.1846 40.4953 10.8095C41.4017 11.1063 42.2573 11.6211 42.9338 12.3005C43.1057 12.4711 43.2664 12.6538 43.4139 12.8456C43.7873 13.3321 44.0731 13.8883 44.2105 14.4859C44.2715 14.7524 44.3417 15.0714 44.3356 15.343C44.3305 15.5247 44.2552 15.768 44.2308 15.984C44.2206 16.0809 44.2216 16.1728 44.244 16.2505C44.3152 16.4998 44.6225 16.7007 44.7923 16.8925C45.2328 17.3861 45.6285 17.9544 45.7069 18.6257C45.8076 19.4787 45.3488 20.3398 44.6581 20.8556L44.6601 20.8536Z" fill="#EAA620"/>
<path d="M39.5564 11.3616C39.7446 11.4625 39.945 11.6251 39.9277 11.8371C39.9104 12.0642 39.6582 12.1934 39.4333 12.2408C38.7355 12.3882 38.001 12.1722 37.3123 12.3822C36.9502 12.4932 36.0173 12.9273 36.119 12.1328C36.1831 11.6352 36.8759 11.2667 37.296 11.1405C38.0305 10.9184 38.8799 11.0002 39.5554 11.3616H39.5564Z" fill="#F6DDBE"/>
<path d="M34.704 17.9602C34.473 18.2307 34.1506 18.4679 33.7925 18.6507C33.3296 18.8879 32.8078 19.0353 32.349 19.0454C31.6247 19.0615 30.9583 18.793 30.4151 18.3317C30.23 18.1742 30.0845 17.9874 29.9777 17.7815H29.9767C29.4751 16.8225 29.7783 15.4456 30.4273 14.6451C31.2218 13.6619 32.8271 13.1118 34.0092 13.7144C34.1089 13.7649 34.2024 13.8224 34.2899 13.886C35.5381 14.7774 35.6683 16.8336 34.705 17.9602H34.704Z" fill="#EAA620"/>
<path d="M32.3144 14.0676C31.8343 13.9667 31.2391 14.2695 30.9004 14.5835C30.6054 14.857 30.2381 15.3607 30.3561 15.7827C30.4986 16.2925 31.0062 16.3349 31.287 15.9079C31.4243 15.6989 31.5026 15.4465 31.6847 15.2749C31.8627 15.1064 32.113 15.0397 32.3246 14.9146C32.5352 14.7884 32.7203 14.5421 32.6318 14.3139C32.582 14.1837 32.4507 14.0969 32.3144 14.0676Z" fill="#F6DDBE"/>
<path d="M40.1699 18.1392C40.1678 18.1463 40.1658 18.1533 40.1627 18.1594C39.9227 18.9246 39.3245 19.3112 38.6307 19.5161C38.354 19.5979 38.061 19.6524 37.7701 19.6897C37.3093 19.7493 36.8515 19.7392 36.4253 19.6393C35.9085 19.5201 35.4354 19.2738 35.0509 18.866C35.0255 18.8398 35 18.8125 34.9746 18.7842C34.9492 18.756 34.9258 18.7277 34.9024 18.6974C34.588 18.3058 34.3937 17.8273 34.3246 17.3326C34.3093 17.2176 34.3002 17.1025 34.2971 16.9854C34.291 16.7835 34.3083 16.5806 34.3459 16.3827C34.5443 15.3299 35.3927 14.4264 36.4354 14.1569C36.6755 14.0943 36.9217 14.066 37.1679 14.0721C37.7589 14.0792 38.3479 14.2689 38.8291 14.6071C38.9329 14.6788 39.0315 14.7595 39.1241 14.8453C39.2055 14.919 39.2828 14.9998 39.354 15.0856C39.5046 15.2653 39.6439 15.4621 39.766 15.6691C39.825 15.768 39.8789 15.8689 39.9278 15.9719C40.0224 16.1667 40.1007 16.3696 40.1587 16.5776C40.1617 16.5887 40.1648 16.5978 40.1658 16.6089C40.2594 16.9541 40.297 17.3114 40.2614 17.6668C40.2594 17.6759 40.2594 17.6839 40.2584 17.692C40.2411 17.8404 40.2116 17.9898 40.1668 18.1372L40.1699 18.1392Z" fill="#EAA620"/>
<path d="M36.8944 14.508C36.9707 14.5392 37.0511 14.5938 37.0572 14.6755C37.0643 14.7745 36.9595 14.8431 36.8659 14.8754C36.6604 14.9461 36.4397 14.9572 36.2291 15.0127C36.0501 15.0601 35.8812 15.1409 35.7317 15.2489C35.5974 15.3458 35.4895 15.5527 35.3512 15.6254C35.0755 15.7698 35.1162 15.5416 35.2037 15.3509C35.4641 14.7755 36.2586 14.2495 36.8954 14.509L36.8944 14.508Z" fill="#F6DDBE"/>
<path d="M42.4343 22.222C42.415 22.3169 42.3946 22.4108 42.3743 22.5027C42.2593 23.0367 41.9979 23.5474 41.5829 23.9139C40.8667 24.5448 39.474 24.7103 39.0224 23.6807C38.767 23.0982 39.058 22.3391 39.6378 22.0716C39.0936 21.9121 38.6215 21.5184 38.3703 21.0127C37.8596 19.982 38.3133 18.5688 39.3021 17.9954C39.415 17.9278 39.534 17.8733 39.6602 17.8319C40.1108 17.6825 40.6307 17.7521 41.0244 18.0146C41.3957 18.2619 41.6469 18.6738 41.7009 19.1139C41.7029 19.1321 41.7049 19.1634 41.7039 19.2007C41.7019 19.4975 41.6144 20.2798 41.4028 20.2748C41.83 20.2839 42.2207 20.5847 42.3946 20.9733C42.5727 21.37 42.5167 21.8061 42.4323 22.223L42.4343 22.222Z" fill="#EAA620"/>
<path d="M37.4893 23.0583C37.4547 23.0886 37.414 23.1077 37.3703 23.1199C37.2472 23.1522 37.0987 23.1199 36.9878 23.0775C36.7965 23.0028 36.6083 22.9331 36.4089 22.8715C36.1434 22.7898 35.8759 22.712 35.6124 22.6252C35.4486 22.5727 35.2543 22.4516 35.2096 22.2709L35.2035 22.2426C35.179 22.0831 35.295 21.9297 35.4395 21.855C35.4486 21.85 35.4568 21.8469 35.4659 21.8429C35.5076 21.8247 35.5504 21.8106 35.5941 21.8015C35.8515 21.744 36.1241 21.8318 36.3784 21.8873C36.587 21.9317 36.8464 22.0095 37.0742 22.1286C37.2665 22.2295 37.4374 22.3607 37.533 22.5253C37.6185 22.6717 37.6348 22.9351 37.4903 23.0583H37.4893Z" fill="#AD6D29"/>
<path d="M37.2379 22.8705C37.0314 22.9311 36.8127 22.818 36.6163 22.7655C36.2745 22.6727 35.9419 22.5505 35.598 22.4637C35.2542 22.3769 35.0162 22.0751 35.4373 21.855C35.4465 21.85 35.4546 21.8469 35.4638 21.8429C35.5055 21.8247 35.5482 21.8106 35.5919 21.8015C35.8493 21.744 36.1219 21.8318 36.3763 21.8873C36.7181 21.959 37.065 22.0912 37.3112 22.3466C37.4759 22.5182 37.5278 22.7605 37.2694 22.8594C37.2593 22.8635 37.2481 22.8675 37.2379 22.8705Z" fill="#BE7C2A"/>
<path d="M36.2643 21.997C36.2491 22.1262 35.6428 22.0636 35.5644 22.0515C35.5105 22.0434 35.4464 22.0192 35.4413 21.9667C35.4342 21.9001 35.5217 21.8688 35.5899 21.8627C35.6773 21.8556 36.2887 21.7981 36.2643 21.997Z" fill="#F2DABD"/>
<path d="M31.5791 21.4549C31.4519 21.6083 31.2067 21.6144 31.0307 21.574C30.7591 21.5134 30.4895 21.4438 30.22 21.3782C30.0175 21.3287 29.8202 21.2924 29.6177 21.259C29.4997 21.2389 29.3573 21.1904 29.2678 21.0995C29.2363 21.0672 29.2118 21.0299 29.1976 20.9865C29.1376 20.8078 29.2881 20.5898 29.4377 20.508C29.8029 20.3081 30.3848 20.4232 30.7581 20.5504C31.0043 20.6332 31.284 20.6968 31.4753 20.8785C31.5078 20.9088 31.5373 20.9421 31.5638 20.9794C31.5689 20.9875 31.575 20.9946 31.5801 21.0036C31.6645 21.1419 31.6849 21.3327 31.5801 21.4569L31.5791 21.4549Z" fill="#AD6D29"/>
<path d="M30.9126 21.4297C30.8505 21.4206 30.7895 21.4054 30.7285 21.3913C30.2758 21.2823 29.8241 21.1733 29.3714 21.0653C29.0347 20.9845 29.229 20.6201 29.4355 20.507C29.8007 20.3072 30.3826 20.4222 30.7559 20.5494C31.0377 20.6443 31.3063 20.6928 31.4487 20.9825C31.5687 21.2248 31.3073 21.4176 31.0825 21.4377C31.0255 21.4428 30.9685 21.4388 30.9116 21.4307L30.9126 21.4297Z" fill="#BE7C2A"/>
<path d="M29.6003 20.6979C29.6674 20.703 29.7397 20.6999 29.7671 20.7019C29.9207 20.7141 30.0805 20.7423 30.2341 20.7403C30.3104 20.7403 30.4375 20.6918 30.348 20.5949C30.3246 20.5697 30.2921 20.5556 30.2595 20.5435C30.0581 20.4708 29.816 20.4324 29.6135 20.5212C29.5749 20.5384 29.465 20.5859 29.4579 20.6333C29.4518 20.6777 29.523 20.6929 29.6003 20.6979Z" fill="#F2DABD"/>
<path d="M34.7865 36.2404C34.7875 36.2475 34.7895 36.2535 34.7905 36.2606C34.8739 36.7068 34.7773 37.2711 34.7905 37.7314C34.7956 37.9252 34.7936 38.1402 34.6613 38.2826C34.4701 38.4885 34.1283 38.4229 33.8689 38.3118C33.2941 38.0645 32.7885 37.6648 32.4081 37.1721C32.1527 36.841 31.7957 36.3777 31.7702 35.9436C31.7326 35.3026 32.3419 35.6085 32.7285 35.768C33.1669 35.9487 33.6563 36.0032 34.1242 35.9255C34.2636 35.9023 34.4121 35.8679 34.5433 35.9214C34.6735 35.9739 34.757 36.1052 34.7875 36.2414L34.7865 36.2404Z" fill="#F8B641"/>
<path d="M13.635 25.7089C13.5526 25.8311 13.4508 25.9421 13.3359 26.033C12.9646 26.3267 12.4753 26.4448 12.0002 26.4479C11.2159 26.4539 10.457 26.1723 9.67367 26.1248C9.09382 26.0905 8.51397 26.1874 7.93513 26.2369C6.73881 26.3378 5.52418 26.2349 4.36244 25.9361C4.20375 25.8957 4.01453 25.8482 3.82227 25.7907C3.83549 25.7322 3.88635 25.6978 3.88635 25.6978C3.88635 25.6978 4.24647 25.61 5.56589 25.7392C6.8853 25.8684 6.84359 26.0098 10.6228 25.2557C12.1945 24.9417 13.0927 25.2062 13.635 25.7089Z" fill="#F7DFC0"/>
<path d="M32.3104 27.2939C32.173 27.2939 32.0367 27.2777 31.9055 27.2454C31.8292 27.2263 31.7824 27.1495 31.8017 27.0738C31.8211 26.9981 31.8984 26.9517 31.9747 26.9709C32.2921 27.0496 32.643 27.0123 32.937 26.8699C33.231 26.7276 33.4762 26.4752 33.6084 26.1784C33.64 26.1068 33.7244 26.0745 33.7966 26.1068C33.8688 26.1381 33.9014 26.2219 33.8688 26.2935C33.7091 26.6499 33.4151 26.9537 33.0621 27.1243C32.8312 27.2364 32.5698 27.2939 32.3104 27.2939Z" fill="#AD6D29"/>
<path d="M10.9741 39.1389C11.0107 39.256 11.0514 39.3781 11.1399 39.4639C11.2284 39.5497 11.381 39.583 11.4756 39.5043C11.5733 39.4235 11.5661 39.2741 11.5499 39.149C11.3332 37.4783 11.1979 35.7632 10.8907 34.1128C10.85 33.8937 10.6597 33.6626 10.4431 33.7191C10.2335 33.7736 10.1755 34.0371 10.1633 34.2511C10.0667 35.9692 10.4705 37.5157 10.9731 39.1379L10.9741 39.1389Z" fill="#F7DFC0"/>
<path d="M12.0232 13.5475L8.60482 15.3171L10.7706 15.9054L12.0232 13.5475Z" fill="#AC6C1B"/>
<path d="M1.9248 15.2471L5.43183 15.7809L4.03544 16.8269L1.9248 15.2471Z" fill="#AC6C1B"/>
<path d="M12.0181 13.5478L11.2668 14.1762L10.9749 14.4206L10.1216 15.1341C9.87579 15.3392 9.52071 15.3551 9.2555 15.1711L7.22976 13.7727C7.11358 13.6944 6.9788 13.6655 6.84926 13.682C6.70383 13.6987 6.56545 13.7715 6.47008 13.8957L5.64809 14.9964L5.4074 15.3188L4.9847 15.8833L4.97875 15.8916C4.78485 16.1502 4.44203 16.2458 4.13997 16.1263L1.92534 15.2405C1.74868 15.1234 1.52043 15.2878 1.57821 15.4915L1.92919 16.674L1.99815 16.9075L2.2362 17.7126L2.31036 17.9624L2.36792 18.1576L2.67613 19.196L3.22599 21.0537C3.28397 21.3743 3.77874 21.5899 4.55093 21.6855C4.70874 21.7057 4.87788 21.7204 5.05833 21.7297C5.12629 21.7331 5.19664 21.7361 5.26799 21.7377C5.42081 21.7429 5.57899 21.7436 5.74392 21.7408C6.48214 21.7298 7.3335 21.649 8.23064 21.4912C8.31864 21.4754 8.40665 21.4597 8.49326 21.4429C8.69271 21.4051 8.88917 21.3642 9.07907 21.3207C9.12754 21.3102 9.176 21.2998 9.22308 21.2884C9.36213 21.2557 9.49839 21.221 9.63206 21.1855C9.68609 21.1717 9.73873 21.1569 9.79136 21.1422C9.92861 21.1061 10.0617 21.0671 10.191 21.0275C10.6315 20.8938 11.0321 20.7485 11.379 20.5974C11.5593 20.5189 11.7257 20.4378 11.8748 20.356C12.4884 20.0219 12.8282 19.6771 12.7749 19.3764L12.6826 17.587L12.6462 16.9095L12.6314 16.6195L12.5965 15.9429L12.4799 13.6921C12.4644 13.4558 12.1656 13.3626 12.0181 13.5478ZM11.4021 19.7285C11.0374 19.9337 10.4283 20.15 9.67413 20.3415C9.54165 20.3767 9.40499 20.409 9.26475 20.4419C9.02996 20.4953 8.78483 20.5455 8.53075 20.5936C8.39765 20.618 8.26316 20.6414 8.12608 20.664C6.91147 20.8645 5.81308 20.9337 5.09422 20.8781C4.87819 20.8614 4.69691 20.8328 4.55675 20.7938C4.3639 20.7403 4.2509 20.6664 4.23464 20.5704C4.22681 20.5241 4.24183 20.4753 4.2785 20.4242C4.33302 20.3482 4.43344 20.2683 4.57399 20.1866C5.10681 19.8744 6.21785 19.5326 7.55023 19.2896C7.65969 19.2703 7.77153 19.2506 7.88357 19.2321C8.02542 19.2087 8.16508 19.1869 8.30395 19.1676C8.45335 19.1454 8.60076 19.1259 8.74619 19.1092C9.58441 19.0086 10.3242 18.9779 10.8646 19.0142C11.4073 19.0501 11.7461 19.1551 11.775 19.3257C11.7953 19.4455 11.6594 19.5837 11.4021 19.7285Z" fill="#EAA621"/>
<path d="M6.94043 12.9344C7.56669 12.7409 7.79447 11.9956 7.38355 11.486C7.154 11.2011 6.76024 11.0822 6.41097 11.1898C5.78471 11.3833 5.55693 12.1286 5.96765 12.6369C6.1972 12.9218 6.59096 13.0408 6.94023 12.9332L6.94043 12.9344Z" fill="#F6B441"/>
<path d="M1.66074 14.0286C1.52661 13.5477 0.949183 13.3714 0.567904 13.695C0.376473 13.8593 0.294287 14.1263 0.362249 14.3684C0.497571 14.8491 1.0736 15.0245 1.45488 14.7009C1.64652 14.5377 1.7287 14.2708 1.66074 14.0286Z" fill="#F6B441"/>
<path d="M13.2475 12.1063C13.1122 11.6255 12.5361 11.4502 12.1549 11.7738C11.9632 11.937 11.881 12.2039 11.949 12.446C12.0843 12.9268 12.6604 13.1021 13.0416 12.7785C13.2333 12.6153 13.3155 12.3484 13.2475 12.1063Z" fill="#F6B441"/>
<path d="M6.48213 12.2821C6.68615 12.2484 6.82369 12.0567 6.78932 11.8538C6.75496 11.6509 6.56172 11.5138 6.35769 11.5474C6.15367 11.5811 6.01614 11.7729 6.0505 11.9757C6.08486 12.1786 6.27811 12.3158 6.48213 12.2821Z" fill="#F4D7A8"/>
<path d="M0.840346 14.4095C0.985794 14.3855 1.08384 14.2488 1.05935 14.1041C1.03485 13.9595 0.897084 13.8617 0.751637 13.8857C0.60619 13.9097 0.508139 14.0464 0.532636 14.1911C0.557132 14.3357 0.694899 14.4335 0.840346 14.4095Z" fill="#F4D7A8"/>
<path d="M12.4307 12.4861C12.5761 12.4621 12.6742 12.3254 12.6497 12.1808C12.6252 12.0362 12.4874 11.9384 12.342 11.9624C12.1965 11.9864 12.0985 12.1231 12.123 12.2677C12.1475 12.4124 12.2852 12.5102 12.4307 12.4861Z" fill="#F4D7A8"/>
<path opacity="0.7" d="M9.7884 21.1398C9.73581 21.1546 9.68322 21.1693 9.62924 21.1831C9.49568 21.2186 9.35953 21.2532 9.2206 21.2859C9.17356 21.2973 9.12513 21.3077 9.0767 21.3182L8.52884 20.5916L7.54913 19.2885L4.98573 15.8847L5.40808 15.3206L8.30223 19.1666L9.26223 20.4401L9.7884 21.1398Z" fill="#EDD0A1"/>
<path opacity="0.7" d="M12.6009 15.9403L12.6358 16.6163L10.981 14.4192L11.2726 14.175L12.6009 15.9403Z" fill="#EDD0A1"/>
<path opacity="0.7" d="M5.73766 21.7415C5.5729 21.7443 5.41488 21.7436 5.26221 21.7384L4.55168 20.7952L4.27372 20.426L2.23346 17.7165L1.99565 16.9121L1.92676 16.6787L4.5689 20.1885L5.08862 20.8795L5.73766 21.7415Z" fill="#EDD0A1"/>
<path opacity="0.7" d="M11.8736 20.3531C11.7246 20.4349 11.5584 20.5159 11.3782 20.5944C11.0315 20.7453 10.6312 20.8906 10.191 21.0241L9.6745 20.3386L8.74718 19.1071L5.65117 14.9969L6.4726 13.8969C6.56791 13.7728 6.7062 13.7 6.85153 13.6833L10.8641 19.0122L11.4013 19.726L11.8736 20.3531Z" fill="#EDD0A1"/>
<path d="M8.2485 21.5074C10.8775 21.0449 12.9058 20.0976 12.7786 19.3915C12.6515 18.6854 10.4172 18.488 7.78814 18.9506C5.15909 19.4131 3.13089 20.3605 3.25801 21.0665C3.38514 21.7726 5.61945 21.97 8.2485 21.5074Z" fill="#F6B441"/>
<path d="M8.11 20.987C10.1403 20.6296 11.729 20.022 11.6584 19.6298C11.5878 19.2376 9.88472 19.2094 7.85442 19.5668C5.82411 19.9242 4.23544 20.5318 4.30602 20.924C4.37659 21.3162 6.0797 21.3444 8.11 20.987Z" fill="#AC6C1B"/>
<path d="M2.59126 18.885C3.19192 18.1513 5.08241 17.3667 7.40068 16.9587C9.75691 16.5432 11.835 16.6443 12.6253 17.1491" stroke="#DD9123" stroke-width="2" stroke-miterlimit="10"/>
<path d="M13.2694 18.1224C13.1555 17.4431 12.6662 17.0737 11.9927 16.8561C12.6765 16.7422 13.1193 16.341 13.2694 15.5898C13.4411 16.2825 13.8332 16.7402 14.546 16.8561C13.8725 17.0039 13.4525 17.4328 13.2694 18.1224Z" fill="white"/>
</g>
<defs>
<clipPath id="clip0_2124_3849">
<rect width="50" height="50" fill="white"/>
</clipPath>
</defs>
</svg>
