<svg width="50" height="50" viewBox="0 0 50 50" fill="none" xmlns="http://www.w3.org/2000/svg">
<g clip-path="url(#clip0_2124_3849)">
<path d="M0.315091 20.1836C0.315091 20.1836 -0.413789 19.2548 1.78461 19.5605C3.40695 19.7839 3.53627 19.6546 3.53627 19.6546L1.36139 18.8904C1.27909 18.8669 1.22031 18.7964 1.20856 18.7141C1.1968 18.62 1.25558 18.5025 1.53773 18.4907C1.98446 18.4672 2.86617 18.6553 4.465 19.1373C4.86471 19.2548 5.26442 19.3842 5.68764 19.4077L6.69866 19.4547C6.69866 19.4547 6.79271 19.1726 6.04032 18.9609C5.45251 18.7964 5.18212 18.5025 5.04105 18.2321C4.99403 18.138 5.08807 18.0205 5.19388 18.0557C5.46427 18.1263 5.87573 18.2321 6.07559 18.2438C6.36949 18.2673 9.32028 18.0792 10.4724 20.5127" fill="#DC867B"/>
<path d="M14.5281 34.2674C14.5281 34.2674 12.3415 25.9794 11.2599 22.6877C10.8485 21.4298 10.966 18.7023 7.05124 19.49C3.13645 20.2777 3.18347 20.1366 1.80801 19.9955C0.432543 19.8544 0.0681034 19.9485 0.0681034 19.9485C0.0681034 19.9485 -0.249312 20.1718 0.491324 20.4422C1.23196 20.7126 2.66621 21.2534 4.74704 21.5356C6.82787 21.8177 6.59275 23.3342 6.59275 23.3342C6.59275 23.3342 6.45168 27.9074 6.67504 30.9287C6.89841 33.95 7.18055 35.4078 7.18055 35.4078" fill="#ED9786"/>
<path d="M11.3423 23.0171L11.4834 23.3698C9.87282 24.6629 7.28647 25.2978 6.55759 25.192C6.54584 25.1214 6.56935 25.0274 6.55759 24.9451C6.54584 24.757 6.73393 24.7805 6.71042 24.8275C7.20418 24.9098 9.7435 24.3455 11.3423 23.0171Z" fill="#B06E67"/>
<path d="M11.6125 22.5585C11.6595 22.6996 11.6125 22.8524 11.5067 22.9699C11.4949 22.9817 11.4832 22.9935 11.4832 22.9935C9.81379 24.463 6.95705 25.1566 6.35749 24.9567C6.20466 24.9097 6.16939 24.8157 6.15764 24.7569C6.07535 24.4277 6.41627 24.2396 6.58086 24.2043V24.51C6.4633 24.557 6.51032 24.6158 6.52208 24.6158C6.5691 24.6393 9.66096 24.1103 11.2598 22.7113C11.2833 22.6878 11.2951 22.6643 11.2833 22.6408C11.2833 22.6408 11.2833 22.629 11.2598 22.6408L11.1657 22.2881C11.1657 22.2998 11.5537 22.3234 11.6125 22.5585Z" fill="#EEBF68"/>
<path d="M26.061 36.7482C24.1683 37.9121 20.0772 40.5572 17.6907 41.7446C16.6444 42.2736 15.6569 42.5792 14.7164 42.7086C13.5173 42.8731 9.97867 43.2141 8.40335 41.2978C6.65169 39.17 5.62891 28.131 5.62891 28.131L12.6473 25.6387C13.9875 30.3881 14.8222 34.2442 14.8222 34.2442C14.8222 34.2442 14.6694 34.2206 15.1866 33.7857C16.3975 32.7746 18.7252 30.8231 20.6532 29.1655C22.4402 27.6372 23.2513 27.5549 24.6033 27.261C25.4732 27.0729 26.6959 29.236 27.1896 31.5873C27.6246 33.6563 27.4953 35.8665 26.061 36.7482Z" fill="#C45462"/>
<path d="M26.061 36.7484C24.1682 37.9122 20.0771 40.5574 17.6906 41.7447C16.6443 42.2737 15.6568 42.5794 14.7163 42.7087C19.9125 39.7815 25.9787 32.9747 27.1896 31.5757C27.6245 33.6565 27.4952 35.8667 26.061 36.7484Z" fill="#9E4B57"/>
<path d="M14.7988 34.1738L15.1515 35.4082" stroke="#9E4B57" stroke-miterlimit="10" stroke-linecap="round" stroke-linejoin="round"/>
<path d="M42.1201 17.0444C42.6256 17.7145 43.1428 18.3846 43.4955 19.1488C44.0128 20.2774 44.0363 21.7116 43.0253 22.5933C42.5315 23.0165 41.9202 23.2869 41.4147 23.6866C41.9555 24.298 41.7909 25.2972 41.2736 25.9321C40.7446 26.5551 39.9687 26.8961 39.2163 27.2135" stroke="#321A15" stroke-miterlimit="10"/>
<path d="M24.0861 12.1895C23.0398 12.4834 22.2756 13.5532 22.3462 14.623C22.3814 15.2578 22.6636 15.9279 22.3697 16.4922C22.1463 16.9272 21.629 17.1388 21.3469 17.5385C21.0295 17.9617 21.0295 18.5965 21.3351 19.0315C21.6055 19.4077 22.0993 19.6781 22.111 20.1483C22.1228 20.5951 21.6996 20.889 21.3704 21.1829C20.6415 21.8412 20.8531 22.911 21.4292 23.5929C21.8524 24.0866 22.4285 24.4158 22.981 24.7332" stroke="#321A15" stroke-miterlimit="10"/>
<path d="M43.2838 21.1591C43.0252 22.4875 42.0377 23.5573 40.721 23.8982C41.3558 25.3677 40.6739 27.0724 39.2044 27.6955C37.7349 28.3303 36.0303 27.6484 35.3955 26.1789C35.3249 26.0261 35.2779 25.8615 35.2426 25.6969C34.8429 25.8497 34.3962 25.7439 34.1023 25.45C33.8201 25.1561 33.6203 24.7799 33.538 24.3802C33.1618 22.7579 33.5497 21.0533 34.596 19.7483C35.1368 19.0547 35.9245 18.7961 36.5005 18.22C36.6534 18.0672 36.7709 17.8791 36.865 17.7028C36.1126 17.0209 35.6423 16.0334 35.6423 14.9401C35.6423 12.8827 37.3117 11.2134 39.369 11.2134C41.4263 11.2134 43.0957 12.8827 43.0957 14.9401C43.0957 15.7865 42.8136 16.5742 42.3316 17.1972C42.3668 17.256 42.4139 17.3148 42.4491 17.3736C43.2133 18.4787 43.5189 19.8424 43.2838 21.1591Z" fill="#321A15"/>
<path d="M38.8989 18.3144C40.2494 18.3144 41.3442 17.2196 41.3442 15.8691C41.3442 14.5186 40.2494 13.4238 38.8989 13.4238C37.5484 13.4238 36.4536 14.5186 36.4536 15.8691C36.4536 17.2196 37.5484 18.3144 38.8989 18.3144Z" fill="#ED9786"/>
<path d="M22.0759 17.8203C21.9936 17.9967 21.9349 18.173 21.8878 18.3611C21.6997 19.137 21.8173 19.96 22.217 20.6536C22.3228 20.7946 22.3816 20.9592 22.3816 21.1356C22.3816 21.3472 22.17 21.4883 22.0054 21.6528C20.6887 23.0401 22.5227 25.4618 24.1333 25.4618C24.3684 25.4618 24.674 25.4618 24.7446 25.6617C24.7916 25.7675 24.8034 25.885 24.7798 25.9908C24.7916 27.5074 26.026 28.7418 27.5543 28.7535C29.0356 28.683 30.3287 27.766 30.8813 26.3906C31.81 24.2509 30.8813 22.1701 30.2229 20.1128C29.835 18.608 29.2589 17.1502 28.4948 15.7983C27.6836 14.4816 25.7321 11.331 23.8041 12.4125C23.1575 12.8122 22.746 13.5058 22.6873 14.27C22.652 15.0224 22.8283 15.7865 23.2045 16.4449C22.7108 16.7741 22.3111 17.2561 22.0759 17.8203Z" fill="#321A15"/>
<path d="M35.9714 22.3467C36.0302 23.3342 36.0302 24.3217 35.9714 25.3092C35.9596 26.4966 35.7833 27.6722 35.4424 28.8125C35.1485 29.9059 34.3843 30.8111 33.3615 31.2813C32.9266 31.4106 32.4798 31.4812 32.0331 31.4694C30.5989 31.4694 28.8472 30.7876 28.2476 29.0947C27.9772 28.0954 27.942 27.0491 28.1536 26.0381C28.1536 25.8618 28.2006 25.6854 28.2241 25.5091C30.2344 26.0146 32.3623 25.6619 34.1022 24.5451C34.7723 24.1219 35.3366 23.5458 35.7245 22.8639C35.7951 22.6759 35.8891 22.5113 35.9714 22.3467Z" fill="#ED9786"/>
<path d="M35.9715 22.4641C35.8892 22.6287 35.7951 22.7933 35.7011 22.9579C35.3131 23.6515 34.7488 24.2276 34.0787 24.639C32.3388 25.7558 30.211 26.1085 28.2007 25.603C28.2007 25.556 28.2007 25.4972 28.2007 25.4384C28.3182 24.5685 28.4476 23.6985 28.5299 22.8286C28.5651 22.4289 28.6004 22.0409 28.6121 21.653C28.6827 20.4774 29.3058 19.4075 30.2933 18.7727C31.0927 18.4318 31.9979 18.373 32.8326 18.6199C33.3499 18.7022 33.8554 18.8668 34.3374 19.0784C34.7606 19.29 35.125 19.5956 35.3954 19.9718C35.6776 20.4421 35.8422 20.9829 35.8657 21.5236C35.8657 21.5354 35.8657 21.5472 35.8657 21.5707C35.9245 21.8763 35.9597 22.1702 35.9715 22.4641Z" fill="#DC867B"/>
<path d="M37.3234 25.6852C37.2294 25.885 37.2059 26.1202 37.2529 26.3435C37.4175 27.3546 37.394 28.3773 37.2059 29.3884C36.7944 30.8814 35.7011 32.0805 34.2668 32.6448C33.2205 32.9975 32.1155 33.1151 31.0222 32.9975C29.2822 32.927 27.6011 32.3392 26.2021 31.2811C25.8965 31.046 25.6378 30.7521 25.4262 30.4347C25.1676 29.9997 25.0148 29.5059 24.9677 29.0004C24.8502 28.0482 24.9913 27.0724 25.3557 26.1907C25.5438 25.744 25.8024 25.3325 26.1081 24.9563C26.5313 24.8858 26.9428 24.827 27.3425 24.7682L27.7657 24.7212C27.7657 24.8858 27.7657 25.0621 27.7657 25.2149C27.7775 25.7322 28.0361 26.2025 28.4593 26.5081C28.9296 26.7903 29.4468 26.9666 29.9994 27.0254C31.2455 27.2605 32.5269 27.2252 33.7613 26.9313C34.4079 26.7668 35.031 26.4729 35.5718 26.0849C35.8539 25.9086 36.1243 25.6969 36.3594 25.4501C36.524 25.262 36.6063 25.1562 36.7121 25.1091L36.9943 25.1679L37.488 25.262C37.488 25.2855 37.488 25.309 37.488 25.3208C37.5115 25.4501 37.3822 25.5676 37.3234 25.6852Z" fill="#C45462"/>
<path d="M37.5821 19.1491C37.5821 19.1608 37.5704 19.1726 37.5704 19.1726C37.5468 19.2431 37.5116 19.3254 37.4881 19.3959C36.4418 21.994 34.0435 23.8045 31.2573 23.8045C27.5541 23.8045 24.5446 20.6068 24.4623 16.6215C24.3565 14.0587 25.1559 9.12109 25.1559 9.12109H37.3823C37.3823 9.12109 37.8172 13.224 38.0053 15.5399C38.0053 15.5517 38.0053 15.5634 38.0053 15.5752C38.1347 17.3151 37.7702 18.6318 37.5821 19.1491Z" fill="#ED9786"/>
<path d="M29.5762 18.3144L28.189 17.9499L29.4939 13.4238L29.7055 13.4826L28.4594 17.7971L29.6232 18.1028L29.5762 18.3144Z" fill="#321A15"/>
<path d="M32.151 16.1277C32.4302 16.1277 32.6565 15.9014 32.6565 15.6222C32.6565 15.343 32.4302 15.1167 32.151 15.1167C31.8718 15.1167 31.6455 15.343 31.6455 15.6222C31.6455 15.9014 31.8718 16.1277 32.151 16.1277Z" fill="#321A15"/>
<path d="M27.4132 15.3284C27.6924 15.3284 27.9187 15.1021 27.9187 14.8229C27.9187 14.5437 27.6924 14.3174 27.4132 14.3174C27.134 14.3174 26.9077 14.5437 26.9077 14.8229C26.9077 15.1021 27.134 15.3284 27.4132 15.3284Z" fill="#321A15"/>
<path d="M38.993 19.6899C38.9342 19.8428 38.8989 19.9251 38.8989 19.9251C38.9342 19.8545 38.9577 19.7722 38.993 19.6899Z" fill="#ED9786"/>
<path d="M32.4331 13.7881L34.1613 14.4229" stroke="#321A15" stroke-width="0.6" stroke-miterlimit="10" stroke-linecap="round" stroke-linejoin="round"/>
<path d="M27.8012 13.165L25.979 13.4237" stroke="#321A15" stroke-width="0.6" stroke-miterlimit="10" stroke-linecap="round" stroke-linejoin="round"/>
<path d="M28.9649 14.8229C28.9884 14.6113 29.0002 14.4115 28.9767 14.1998C28.9531 13.953 28.9061 13.7061 28.8238 13.4592C28.5887 12.7421 27.9891 12.2013 27.2603 12.025C27.178 12.0014 27.1074 11.9897 27.0251 11.9779C26.837 11.9662 26.6489 11.9662 26.4726 11.9897C26.1669 12.025 25.8848 12.1073 25.6144 12.2366C25.6026 12.2483 25.5791 12.2483 25.5674 12.2601C25.5556 12.2601 25.5556 12.2718 25.5439 12.2718C25.1089 12.4952 24.7209 12.8244 24.4388 13.2476C23.898 14.0353 23.7569 15.0228 24.0626 15.928C24.1919 16.3395 24.427 16.7039 24.7445 16.986C24.8503 17.0801 24.9561 17.1624 25.0736 17.2447C25.2735 17.3622 25.4851 17.4445 25.7085 17.4916C26.1199 17.5738 26.5549 17.5503 26.9546 17.421C27.8363 17.0801 28.4947 16.3865 28.8003 15.5518C28.8708 15.3167 28.9296 15.0698 28.9649 14.8229ZM28.1302 16.0808C27.8128 16.5511 27.3543 16.9037 26.8253 17.1036C26.2963 17.2917 25.7202 17.2329 25.2382 16.9625C25.0736 16.8567 24.9325 16.7274 24.8032 16.5863C24.6151 16.363 24.4623 16.1161 24.38 15.8339C24.2272 15.3755 24.2037 14.8817 24.2977 14.4232C24.3683 14.0823 24.5093 13.7531 24.7092 13.4592C24.909 13.1653 25.1559 12.9184 25.4381 12.7421C25.8848 12.4599 26.4021 12.3071 26.9546 12.3424C26.9664 12.3424 26.9664 12.3424 26.9781 12.3424L27.1427 12.3776V12.3659C27.2485 12.3894 27.3543 12.4247 27.4484 12.4717C27.9421 12.6833 28.3301 13.0948 28.4946 13.6238C28.4946 13.6355 28.4947 13.6356 28.5064 13.6473C28.6592 14.1176 28.6945 14.5996 28.5887 15.0698C28.5064 15.4107 28.3536 15.7634 28.1302 16.0808Z" fill="white"/>
<path d="M35.4776 15.6457C35.6422 14.6347 35.2542 13.5649 34.396 12.8948C34.3373 12.8477 34.2785 12.8007 34.2197 12.7537C33.4556 12.2011 32.5033 12.1424 31.7039 12.495C31.3159 12.6714 30.9633 12.9418 30.6929 13.318C30.4577 13.6236 30.2696 13.9646 30.1403 14.329C30.0816 14.5171 30.0345 14.7052 29.9993 14.905C29.9405 15.2812 29.9405 15.6574 30.011 16.0336C30.0345 16.1512 30.058 16.257 30.0933 16.3746C30.3167 17.2798 31.0456 17.9616 31.9625 18.1497C32.1977 18.1968 32.4445 18.2203 32.6914 18.2085C33.5496 18.1262 34.3373 17.703 34.878 17.0329C34.8898 17.0094 34.9133 16.9976 34.9251 16.9741C35.2072 16.5627 35.4071 16.1042 35.4776 15.6457ZM34.6077 16.786C34.1374 17.3856 33.432 17.7618 32.6679 17.8323C32.4445 17.8558 32.2329 17.8441 32.0331 17.7971C31.2689 17.6325 30.6223 17.0564 30.4225 16.257C30.399 16.163 30.3755 16.0571 30.3519 15.9513C30.1991 15.0931 30.4107 14.1997 30.9633 13.5178C31.1984 13.1769 31.5158 12.93 31.8802 12.7654C32.2682 12.6009 32.7149 12.5421 33.1499 12.6244C33.5261 12.7067 33.8788 12.883 34.1727 13.1299C34.1962 13.1416 34.2197 13.1651 34.2432 13.1887C34.3138 13.2474 34.3843 13.3062 34.4431 13.365C34.4901 13.412 34.5489 13.4708 34.5841 13.5296C35.0074 14.0351 35.219 14.6817 35.1837 15.3165C35.1484 15.8338 34.9603 16.3511 34.6077 16.786Z" fill="white"/>
<path d="M28.7883 14.8936C28.6943 14.87 28.6355 14.776 28.659 14.6819C28.7648 14.2235 29.2115 13.9413 29.67 14.0471C30.058 14.1294 30.3284 14.4821 30.3284 14.87C30.3284 14.9641 30.2461 15.0464 30.152 15.0464C30.058 15.0464 29.9874 14.9758 29.9874 14.8818C30.011 14.5997 29.7993 14.3645 29.5172 14.3528C29.2586 14.341 29.0234 14.5174 28.9882 14.776C28.9647 14.8583 28.8824 14.9053 28.7883 14.8936Z" fill="white"/>
<path d="M29.1528 19.2433C29.1528 19.2433 30.7164 19.7488 30.7987 18.1147" stroke="#BB6A64" stroke-width="0.2" stroke-miterlimit="10" stroke-linecap="round" stroke-linejoin="round"/>
<path d="M35.6424 13.9409C36.242 14.3641 37.0297 14.3994 37.6763 14.0467C38.0289 13.9174 38.3464 13.7058 38.605 13.4354C38.652 13.3766 39.0517 12.6007 38.9812 12.5889C40.2038 12.6125 41.2384 11.672 41.3442 10.4493C41.3442 9.48533 40.7681 8.60362 39.8746 8.21567C39.0517 7.75718 39.3809 6.67562 38.9694 5.81742C38.5109 5.00625 37.7938 4.38318 36.9239 4.05401C35.8423 3.56025 34.6667 3.34864 33.4911 3.44269C32.3155 3.54849 31.2221 4.07752 30.411 4.94747C29.6703 4.19508 28.6593 3.73659 27.6013 3.68957C26.5432 3.66605 25.5675 4.2421 25.0619 5.15908C24.9091 5.44123 24.8621 5.7704 24.9444 6.07606C24.3566 5.88796 23.7335 6.13484 23.4161 6.65211C23.1457 7.18113 23.1104 7.81597 23.322 8.3685C23.4749 8.92104 23.8393 9.37953 24.3331 9.66168C23.6512 9.77924 23.0987 10.1907 23.2162 10.8961C23.3573 12.0129 24.3918 12.8123 25.5087 12.6712C26.0377 12.6007 26.5197 12.3303 26.8606 11.9071C28.1185 12.8476 29.8937 12.5889 30.8224 11.331C30.9047 11.2252 30.9753 11.1194 31.034 11.0019C31.1751 11.6837 31.7629 12.1892 32.4683 12.2363C32.9033 12.2715 33.3265 12.2245 33.7497 12.0952C34.2435 11.9541 34.361 11.7543 34.5844 12.2245C34.8783 12.8829 35.0311 13.5059 35.6424 13.9409Z" fill="#321A15"/>
<path d="M38.311 16.4568C38.311 16.4568 38.6402 15.481 39.9687 15.869" stroke="#BB6A64" stroke-width="0.2" stroke-miterlimit="10" stroke-linecap="round" stroke-linejoin="round"/>
<path d="M38.81 13.4803C38.81 13.4803 38.5514 14.9851 37.3523 16.1842C35.9416 17.5949 35.8945 13.2334 35.8945 13.2334" fill="#321A15"/>
<path d="M51.8893 48.1983H50.8783H42.3316C42.3316 48.1983 42.3316 48.1865 42.3199 48.1748C42.2376 47.9632 42.0965 47.7045 41.9201 47.3871C41.6145 46.8463 41.2265 46.188 40.8856 45.4826C40.6857 45.0594 40.4977 44.6362 40.3683 44.2012C40.3096 44.0131 40.2625 43.825 40.2155 43.6369C40.2155 43.6487 40.2155 43.6604 40.2155 43.6839C40.2155 43.7074 40.2155 43.7427 40.2273 43.778C40.2273 43.7897 40.2273 43.8015 40.2273 43.8132C40.2273 43.8485 40.2273 43.8838 40.239 43.9191C40.239 43.9426 40.239 43.9778 40.2508 44.0013C40.2508 44.0249 40.2508 44.0601 40.2625 44.0954C40.2625 44.1307 40.2625 44.1659 40.2743 44.2012C40.2743 44.2365 40.286 44.2717 40.286 44.3188C40.2978 44.4128 40.2978 44.5186 40.3096 44.6362C40.3096 44.6832 40.3213 44.742 40.3213 44.8008C40.3213 44.8478 40.3331 44.8831 40.3331 44.9301C40.3448 45.0594 40.3566 45.1887 40.3801 45.3415C40.3801 45.3651 40.3918 45.4003 40.3918 45.4238C40.3918 45.4473 40.4036 45.4709 40.4036 45.5061C40.4154 45.5884 40.4271 45.6707 40.4271 45.753C40.4389 45.8353 40.4506 45.9176 40.4624 45.9999C40.4741 46.0822 40.4859 46.1762 40.4977 46.2585C40.5094 46.3408 40.5212 46.4349 40.5329 46.5289C40.5564 46.6465 40.5682 46.7758 40.5917 46.8934C40.6152 47.0227 40.6387 47.1402 40.6622 47.2695C40.674 47.3166 40.674 47.3636 40.6858 47.4106C40.7093 47.5282 40.7328 47.6575 40.7563 47.7751C40.768 47.8691 40.8503 48.116 40.8738 48.21H18.502C18.596 47.9867 18.8429 47.6105 18.9369 47.3989C19.1485 46.8933 19.3366 46.3996 19.5247 45.9058C19.5718 45.7648 19.6188 45.6354 19.6658 45.4944C20.4182 43.3783 20.9002 41.415 21.053 39.7574C21.0648 39.6516 21.0765 39.5458 21.0765 39.4517C21.0883 39.2989 21.1001 39.1461 21.1001 38.9932C21.1118 38.4054 21.1236 37.7941 21.1236 37.2063V37.0535C21.1236 36.8419 21.1236 36.6303 21.1236 36.4186C21.1236 35.8779 21.1353 35.3606 21.1471 34.8786V34.8668C21.1471 34.8551 21.1471 34.8433 21.1471 34.8316C21.1588 34.3848 21.1823 33.9616 21.2294 33.5854C21.2529 33.4091 21.2882 33.2092 21.3234 33.0094C21.6291 31.6927 22.4755 29.9881 23.2162 28.6126C23.4748 28.1423 23.7217 27.7074 23.9333 27.3429C23.9803 27.2606 24.0273 27.1783 24.0744 27.096C24.1096 27.0255 24.1566 26.955 24.1919 26.8962C24.3683 26.5905 24.4976 26.3554 24.5446 26.2496C24.7562 26.0968 24.9561 25.9675 25.1559 25.8381C25.2852 25.7558 25.4028 25.6853 25.5204 25.6265C25.6144 25.5678 25.7085 25.5207 25.8025 25.4737C26.7547 24.9682 26.6842 26.2379 26.5079 26.8492C26.2257 27.8484 26.0259 28.8947 26.1552 29.9293C26.2727 30.9638 26.743 31.9866 27.5659 32.6097C28.8003 33.5384 30.5402 33.4091 31.998 32.9271C32.8327 32.6567 33.6438 32.2805 34.2552 31.6574C35.3955 30.4936 35.5836 28.7184 36.3477 27.2841C37.0766 25.9204 38.0054 25.6971 39.228 26.4965C39.5924 26.7316 39.9804 27.002 40.3801 27.3077C40.4741 27.3782 40.5682 27.4487 40.6622 27.5193C41.2265 27.9542 41.8143 28.4598 42.4021 29.0358C42.4374 29.0711 42.4727 29.0946 42.4962 29.1299C43.0722 29.6941 43.6483 30.329 44.2126 31.0226C46.846 34.279 49.6086 42.4613 51.8893 48.1983Z" fill="#C45462"/>
<path d="M40.8738 48.1983H38.2874C38.2757 47.9749 38.2639 47.5987 38.2404 47.3871C38.2051 46.8581 38.1698 46.3643 38.1346 45.8941C38.1228 45.753 38.1228 45.6237 38.1111 45.4826C37.9582 43.0373 37.8995 41.2974 37.923 39.7456C37.923 39.4164 37.9347 39.099 37.9347 38.7934C37.9582 37.9822 37.9935 37.1945 38.0405 36.3481C38.0405 36.3128 38.0405 36.2893 38.0405 36.254C38.2639 32.2805 38.6989 30.376 38.6989 30.376C38.6989 30.5641 38.6989 30.7404 38.6989 30.9285C38.6989 32.4803 38.7694 34.0204 38.8987 35.5369C38.8987 35.5722 38.9105 35.6074 38.9105 35.631C38.9693 36.3481 39.0516 37.0652 39.1456 37.7588C39.4042 39.8044 39.7804 41.7794 40.2272 43.6369C40.2272 43.6486 40.2272 43.6604 40.2272 43.6839C40.2272 43.7074 40.2272 43.7427 40.2389 43.778C40.2389 43.7897 40.2389 43.8015 40.2389 43.8132C40.2389 43.8485 40.2389 43.8838 40.2507 43.919C40.2507 43.9425 40.2507 43.9778 40.2624 44.0013C40.2624 44.0248 40.2624 44.0601 40.2742 44.0954C40.2742 44.1306 40.2742 44.1659 40.286 44.2012C40.286 44.2364 40.2977 44.2717 40.2977 44.3187C40.3095 44.4128 40.3095 44.5186 40.3212 44.6362C40.3212 44.6832 40.333 44.742 40.333 44.8007C40.333 44.8478 40.3447 44.883 40.3447 44.9301C40.3565 45.0594 40.3682 45.2004 40.3918 45.3533C40.3918 45.3768 40.4035 45.4003 40.4035 45.4238C40.4035 45.4473 40.4153 45.4708 40.4153 45.5061C40.427 45.5884 40.4388 45.6707 40.4505 45.753C40.4623 45.8353 40.474 45.9176 40.4858 45.9999C40.4976 46.0822 40.5093 46.1762 40.5211 46.2585C40.5328 46.3525 40.5446 46.4348 40.5563 46.5289C40.5799 46.6464 40.5916 46.7758 40.6151 46.8933C40.6386 47.0226 40.6621 47.1402 40.6857 47.2695C40.6974 47.3165 40.6974 47.3636 40.7092 47.4106C40.7327 47.5282 40.7562 47.6575 40.7797 47.775C40.7679 47.8573 40.8502 48.1042 40.8738 48.1983Z" fill="#9E4B57"/>
<path d="M24.5917 26.1318C24.58 26.1436 24.5682 26.1789 24.5447 26.2259C24.5212 26.2494 24.4977 26.2612 24.4624 26.2847C24.5094 26.2259 24.5565 26.1789 24.5917 26.1318Z" fill="#9E4B57"/>
<path d="M38.123 30.9754C37.6174 32.7976 36.2772 34.2671 34.5138 34.949C33.2442 35.3839 31.8922 35.525 30.5638 35.3722C28.4359 35.2899 26.3903 34.561 24.6975 33.2913C24.333 32.9974 24.0156 32.6448 23.757 32.2568C23.4396 31.7278 23.2515 31.1282 23.1927 30.5051C23.0516 29.3413 23.2162 28.1657 23.6629 27.0841C23.9216 26.5551 24.2507 26.0731 24.6387 25.6381C25.3088 25.5323 26.0024 25.4265 26.6725 25.356C26.6725 25.5558 26.6725 25.7674 26.6725 25.9673C26.7078 26.5668 27.0017 27.1311 27.4954 27.4838C28.0597 27.8247 28.6945 28.0364 29.3529 28.0951C30.8694 28.3773 32.433 28.3303 33.9495 27.9776C35.3603 27.6366 36.5947 26.802 37.4646 25.6381L37.8291 25.7086C37.8643 25.8144 37.8878 25.9203 37.9113 26.0261C38.217 27.6837 38.5344 29.3648 38.123 30.9754Z" fill="#C45462"/>
<path d="M25.9553 24.6271C25.8142 24.6507 25.6732 24.6507 25.5438 24.6271C24.2977 24.4626 24.1919 24.1451 23.1809 25.1797C22.4402 25.9321 21.6996 27.6955 21.4645 28.6948C20.9237 30.9049 21.0177 31.9394 21.6526 34.1614C22.1228 35.819 24.1213 37.5001 25.6261 37.9703C26.402 38.1937 27.1897 38.37 28.0009 38.4759C29.0472 38.6522 30.1052 38.7345 31.1633 38.7227C34.02 38.664 36.7592 37.5706 38.8753 35.6661C40.9914 33.7381 42.3198 31.1048 42.6255 28.2598C42.6843 27.8601 42.6607 27.4486 42.5667 27.0607C42.4609 26.6727 42.167 26.367 41.7908 26.2377C41.297 26.0849 40.721 26.3553 40.239 26.1672C39.9333 25.9909 39.6512 25.7557 39.4396 25.4736C39.0163 25.0268 38.4638 24.7212 37.8642 24.5919C37.4175 24.4978 36.6299 24.392 36.3124 24.8152C36.1949 25.0033 36.1126 25.2149 36.0891 25.4266C35.9598 26.0379 35.7952 26.6609 35.6071 27.284C35.4542 27.7425 35.3014 28.2245 35.1251 28.6712C34.7606 29.5765 34.114 30.3524 33.2676 30.8579C32.5622 31.2106 31.7511 31.3281 30.9752 31.1635C29.9289 30.9637 29.0354 30.2818 28.5652 29.3061C28.0126 28.1657 28.283 26.7903 28.2713 25.5559C28.283 25.3208 28.2242 25.0739 28.1067 24.874C27.9774 24.7212 27.801 24.6271 27.6129 24.5801C27.0369 24.5096 26.4843 24.5213 25.9553 24.6271Z" fill="#FCDFB1"/>
<path d="M33.6558 33.0912C32.7389 33.4909 31.7631 33.7026 30.7638 33.7026C30.1995 33.7026 29.6235 33.632 29.071 33.491C27.5192 33.103 26.179 32.1037 25.3678 30.7165C24.3215 28.859 24.4273 26.6724 24.827 24.5093L25.1679 24.5563C24.7917 26.6606 24.6742 28.7767 25.6734 30.5519C26.4376 31.8569 27.6837 32.7973 29.1415 33.1618C30.5993 33.5262 32.1393 33.3969 33.5148 32.7856C33.5971 32.7503 33.7029 32.7856 33.7381 32.8679C33.7852 32.9502 33.7381 33.0442 33.6558 33.0912Z" fill="#F8BE58"/>
<path d="M39.8983 25.92C39.8277 26.8488 39.6161 27.7657 39.2635 28.6239C38.5346 30.7048 37.2884 32.5505 35.6426 34.0082C34.0672 35.372 32.0687 36.1479 29.9879 36.1949H29.5764C27.331 36.0773 25.2854 34.8429 24.1451 32.9032C24.0981 32.8209 24.1333 32.7151 24.2156 32.6798C24.2862 32.6328 24.392 32.6563 24.439 32.7268L24.4507 32.7386C25.5558 34.5725 27.5073 35.7246 29.6352 35.8187C31.7748 35.8892 33.8556 35.1368 35.4662 33.7261C37.0533 32.3036 38.2642 30.5049 38.9578 28.4829C39.334 27.5541 39.5338 26.5784 39.5691 25.5791L39.8983 25.92Z" fill="#F8BE58"/>
<path d="M5.19707 5.92236L6.42051 8.3919L9.15059 8.78838L7.1795 10.7142L7.64395 13.4329L5.19707 12.1528L2.76152 13.4329L3.22598 10.7142L1.25488 8.78838L3.98496 8.3919L5.19707 5.92236Z" fill="#F7BE57"/>
<path d="M10.6916 12.4589C10.6689 12.4589 10.6349 12.4475 10.6123 12.4362L8.44862 11.2694C8.36932 11.2241 8.33533 11.1222 8.38065 11.0429C8.42596 10.9636 8.52791 10.9296 8.60721 10.9749L10.7709 12.1417C10.8502 12.187 10.8842 12.2889 10.8388 12.3682C10.8049 12.4249 10.7482 12.4589 10.6916 12.4589Z" fill="#F7BE57"/>
<path d="M5.18604 16.2878C5.09541 16.2878 5.01611 16.2085 5.01611 16.1179L5.0501 13.6597C5.0501 13.569 5.12939 13.4897 5.22002 13.4897C5.31064 13.4897 5.38994 13.569 5.38994 13.6597L5.35596 16.1179C5.35596 16.2085 5.27666 16.2878 5.18604 16.2878Z" fill="#F7BE57"/>
<path d="M0.167561 12.4589C0.110921 12.4589 0.0542799 12.4249 0.0202955 12.3682C-0.025017 12.2889 0.00896738 12.187 0.0882643 12.1417L2.25194 10.9749C2.33123 10.9296 2.43319 10.9636 2.4785 11.0429C2.52381 11.1222 2.48983 11.2241 2.41053 11.2694L0.246858 12.4362C0.224202 12.4475 0.190217 12.4589 0.167561 12.4589Z" fill="#F7BE57"/>
<path d="M7.39477 7.44038C7.34946 7.44038 7.30415 7.41772 7.27016 7.38374C7.21352 7.31577 7.21352 7.20249 7.28149 7.14585L9.13931 5.53725C9.20728 5.48061 9.32056 5.48061 9.3772 5.54858C9.43384 5.61655 9.43384 5.72983 9.36587 5.78647L7.50806 7.39507C7.47407 7.42905 7.44009 7.44038 7.39477 7.44038Z" fill="#F7BE57"/>
<path d="M2.95436 7.27057C2.92037 7.27057 2.87506 7.25924 2.84108 7.22526L0.983263 5.61666C0.915294 5.56002 0.903966 5.44674 0.971934 5.37877C1.02858 5.3108 1.14186 5.29947 1.20983 5.36744L3.06764 6.97604C3.13561 7.03268 3.14694 7.14596 3.07897 7.21393C3.04498 7.24791 2.99967 7.27057 2.95436 7.27057Z" fill="#F7BE57"/>
</g>
<defs>
<clipPath id="clip0_2124_3849">
<rect width="50" height="50" fill="white"/>
</clipPath>
</defs>
</svg>
