<svg width="50" height="50" viewBox="0 0 50 50" fill="none" xmlns="http://www.w3.org/2000/svg">
<path d="M8.14929 34.4289L11.3291 43.2393C12.2399 45.7583 11.381 48.493 9.40363 49.9865C6.94689 50.1575 4.55805 48.6395 3.64725 46.1205L2.45683 42.8202C1.35828 39.7762 2.83633 36.4189 5.76046 35.3201L8.14929 34.4248V34.4289Z" fill="#5D5D9F"/>
<path d="M39.4007 38.983L27.9439 43.2763L27.836 43.317L10.9344 49.6532C10.4311 49.8404 9.91576 49.9503 9.40843 49.9869C11.3858 48.4934 12.2407 45.7587 11.3299 43.2397L8.15009 34.4293L1.36308 15.6364C0.264535 12.5924 1.74258 9.23505 4.66671 8.13629L25.4512 0.347279C28.3713 -0.747414 31.635 0.831549 32.7375 3.8796L38.462 19.7384L39.3008 22.0662L42.7043 31.483C43.8029 34.5269 42.3248 37.8883 39.4007 38.983Z" fill="#5F85BC"/>
<path d="M26.6699 6.51463L8.44599 13.3452C7.58051 13.6696 7.13705 14.6474 7.45548 15.529L7.46928 15.5672C7.78771 16.4489 8.74746 16.9007 9.61294 16.5763L27.8369 9.74566C28.7023 9.42127 29.1458 8.44355 28.8274 7.56187L28.8136 7.52368C28.4951 6.642 27.5354 6.19023 26.6699 6.51463Z" fill="#79A3D2"/>
<path d="M26.0274 15.13L11.1101 20.7212C10.2446 21.0456 9.80111 22.0233 10.1195 22.905L10.1333 22.9432C10.4518 23.8249 11.4115 24.2767 12.277 23.9523L27.1943 18.361C28.0598 18.0366 28.5032 17.0589 28.1848 16.1772L28.171 16.139C27.8526 15.2574 26.8928 14.8056 26.0274 15.13Z" fill="#79A3D2"/>
<path d="M24.2571 25.3877L13.8161 29.3011C13.1432 29.5533 12.7984 30.3135 13.046 30.999L13.3163 31.7476C13.5639 32.4331 14.3101 32.7844 14.983 32.5322L25.424 28.6187C26.0969 28.3665 26.4417 27.6063 26.1941 26.9208L25.9238 26.1722C25.6762 25.4867 24.93 25.1355 24.2571 25.3877Z" fill="#79A3D2"/>
<path d="M39.4021 38.9833L27.9453 43.2766V24.4837C27.9453 23.1489 29.0119 22.0664 30.3222 22.0664H39.3023L42.7058 31.4832C43.8043 34.5272 42.3263 37.8886 39.4021 38.9833Z" fill="#4274AF"/>
<path d="M32.8169 24.9756H47.3816C48.2764 24.9756 48.9995 25.7122 48.9995 26.6237V47.3822C48.9995 48.7333 47.4935 49.5065 46.4269 48.7089L41.2378 44.8306C40.5626 44.326 39.6439 44.326 38.9688 44.8306L33.7796 48.7089C32.713 49.5065 31.207 48.7292 31.207 47.3822V26.6237C31.207 25.7122 31.9301 24.9756 32.8249 24.9756H32.8169Z" fill="#F2AE1D"/>
</svg>
