<svg width="50" height="50" viewBox="0 0 50 50" fill="none" xmlns="http://www.w3.org/2000/svg">
<g clip-path="url(#clip0_2115_51)">
<path d="M25.9231 2.02286L4.37458 11.6198C2.0203 12.6683 0.956854 15.4399 1.99729 17.8104L14.2516 45.7079C15.292 48.0786 18.0455 49.15 20.3998 48.1017L41.9481 38.5048C44.3024 37.4563 45.3658 34.6847 44.3254 32.3142L32.0711 4.41661C31.0307 2.04608 28.2773 0.976871 25.9231 2.02286Z" fill="#5D5D9F"/>
<path d="M45.3794 36.8836L39.7019 39.4138L29.3133 44.0413L23.8312 46.4825C21.475 47.5294 18.7253 46.4594 17.6814 44.0915L5.42504 16.1905C4.38543 13.8188 5.44806 11.0491 7.80351 10.0023L29.3516 0.403273C31.707 -0.647408 34.4567 0.426449 35.5011 2.79435L40.1737 13.4325L42.0727 17.7511L44.9383 24.2792L44.9958 24.4067L47.7579 30.6954C48.7975 33.0631 47.7349 35.8366 45.3794 36.8836Z" fill="#5F85BC"/>
<path d="M39.7031 39.4129L39.8681 38.9377L44.9012 24.6725L44.9971 24.4058L45.0277 24.3131L44.9396 24.2786L44.7016 24.1819L43.0023 23.5213L36.0792 21.2192L35.1683 20.4233L29.1198 34.7273L27.9213 40.3939L29.3146 44.0406L39.7031 39.4129Z" fill="#4274B0"/>
<path d="M44.7012 24.1821L43.0017 23.5215L36.0783 21.2192L35.1677 20.4235L35.9387 18.2294L36.7289 15.9929C37.2929 14.405 38.7546 13.4241 40.1744 13.4319L42.0727 17.7503L44.7012 24.1821Z" fill="#4274B0"/>
<path d="M30.4719 4.82429L11.9897 13.0556C11.1119 13.4465 10.715 14.4799 11.1033 15.3638L11.1204 15.4026C11.5086 16.2864 12.5349 16.686 13.4127 16.2951L31.8948 8.06384C32.7726 7.67283 33.1694 6.63944 32.7812 5.75563L32.7641 5.71677C32.3758 4.83296 31.3496 4.43337 30.4719 4.82429Z" fill="#79A3D2"/>
<path d="M30.369 13.7064L15.2408 20.4439C14.363 20.8348 13.9662 21.8682 14.3544 22.752L14.3715 22.7908C14.7597 23.6746 15.786 24.0743 16.6638 23.6833L31.7919 16.9459C32.6697 16.5549 33.0665 15.5215 32.6783 14.6377L32.6612 14.5988C32.273 13.7151 31.2467 13.3155 30.369 13.7064Z" fill="#79A3D2"/>
<path d="M28.0133 28.6325L20.0301 32.3138C19.347 32.6189 19.0493 33.4323 19.3542 34.1231L19.6839 34.8491C20.0165 35.5399 20.8127 35.8422 21.4959 35.5336L29.479 31.8523C30.1621 31.5472 30.4598 30.7339 30.1549 30.0431L29.8253 29.3171C29.5204 28.6263 28.7242 28.3239 28.0133 28.6325Z" fill="#79A3D2"/>
<path d="M48.1917 24.3151L43.0319 38.9436L41.0562 44.5523C40.588 44.1929 40.2046 43.6986 39.9858 43.0921C39.7481 42.4434 39.7328 41.7671 39.8901 41.1569L46.1698 23.5271L48.1953 24.3151H48.1917Z" fill="#E69A24"/>
<path d="M46.1696 23.5219L39.8899 41.1517C39.5789 41.8819 38.9881 42.4843 38.1979 42.7741C37.6954 42.9596 37.1761 42.998 36.6861 42.913L35.6008 42.4961C35.0331 42.1406 34.5803 41.5998 34.3303 40.9199C34.0585 40.1783 34.0854 39.4019 34.3425 38.7258L40.2464 21.2158L46.1696 23.5181V23.5219Z" fill="#F2AE1D"/>
<path d="M40.2435 21.2233L34.3397 38.7333C34.0214 39.4627 33.4497 40.0267 32.6898 40.3087C32.1757 40.4979 31.6465 40.5327 31.1403 40.44L33.1426 34.7354L38.1911 20.4315L40.2435 21.2273V21.2233Z" fill="#F8BE57"/>
<path d="M49.7711 19.8284L48.9654 22.1152L38.9567 18.2293L39.7468 15.9928C40.4681 14.0493 42.6739 12.9141 44.6804 13.6827L47.4425 14.7411C49.449 15.5098 50.4923 17.7849 49.7711 19.8284Z" fill="#E74970"/>
<path d="M48.9667 22.1163L48.1918 24.3143L46.1663 23.5223L40.2431 21.2199L38.9823 20.4243L39.7537 18.2302L48.9667 22.1163Z" fill="#F27780"/>
<path d="M39.9856 43.0903C40.2079 43.6927 40.5879 44.191 41.0561 44.5502L36.8629 47.4127L35.6508 48.2431C34.9833 48.6989 34.0417 48.3861 33.7788 47.6058L31.1431 40.4394C31.6493 40.5361 32.1786 40.5013 32.6926 40.3082C33.4527 40.026 34.0244 39.4621 34.3427 38.7329C34.0856 39.4089 34.0625 40.1852 34.3304 40.9268C34.5804 41.607 35.0332 42.148 35.6008 42.5035L36.6861 42.9204C37.1761 43.0052 37.6955 42.9665 38.199 42.7808C38.9883 42.4875 39.5792 41.8887 39.8898 41.1588C39.7325 41.7692 39.7479 42.4453 39.9856 43.0939V43.0903Z" fill="#FBDEB0"/>
<path d="M36.8633 47.4101L35.6512 48.2406C34.9837 48.6964 34.0421 48.3002 33.7792 47.5198L33.2765 45.8152C33.4183 45.7265 33.5717 45.6492 33.7406 45.5873C34.9796 45.1277 36.3086 45.7573 36.8633 47.4139V47.4101Z" fill="#5F85BC"/>
<path d="M7.24873 15.1213C7.95075 14.8200 8.73336 14.9899 9.25123 15.4921C9.42388 15.6621 9.5692 15.8665 9.66939 16.1065C9.69242 16.1606 9.71159 16.2146 9.72693 16.2648C10.0147 17.1686 9.57731 18.165 8.69115 18.5439C7.90854 18.8798 7.01854 18.6285 6.52001 17.9836C6.43521 17.8793 6.36579 17.7634 6.30417 17.6398C6.29267 17.6128 6.28117 17.5896 6.26967 17.5626C5.87105 16.6203 6.30802 15.5276 7.24873 15.1296V15.1213Z" fill="#5D5D9F"/>
<path d="M7.81552 19.0139L2.42561 21.3548C1.53945 21.7299 1.01774 22.8035 1.19974 23.7457L1.18440 23.7109C0.812601 22.7857 1.39902 21.9958 2.28518 21.6284L7.67509 19.2875C8.60847 18.9125 9.66270 19.3387 10.0344 20.2716L10.0498 20.3064C9.67793 19.3811 8.71389 19.0402 7.82661 19.4306L7.81552 19.0139Z" fill="#F2AE1D"/>
<path d="M10.3056 23.9002C11.0076 23.599 11.7902 23.7688 12.3081 24.2711C12.4808 24.4411 12.6261 24.6455 12.7263 24.8855C12.7493 24.9395 12.7685 24.9935 12.7838 25.0436C13.0716 25.9475 12.6342 26.9439 11.748 27.3228C10.9654 27.6587 10.0754 27.4075 9.57686 26.7626C9.49206 26.6582 9.42264 26.5423 9.36103 26.4188C9.34953 26.3917 9.33803 26.3686 9.32653 26.3415C8.9279 25.3992 9.36488 24.3065 10.3056 23.9086V23.9002Z" fill="#5D5D9F"/>
<path d="M10.8764 27.7898L5.48647 30.1307C4.60031 30.5058 4.07861 31.5794 4.26061 32.5215L4.24527 32.4867C3.87347 31.5615 4.45989 30.7716 5.34605 30.4042L10.7360 28.0633C11.6693 27.6883 12.7236 28.1145 13.0953 29.0474L13.1106 29.0822C12.7389 28.1569 11.7749 27.8159 10.8877 28.2064L10.8764 27.7898Z" fill="#F2AE1D"/>
<path d="M14.2839 32.2406C14.9859 31.9394 15.7685 32.1093 16.2864 32.6115C16.459 32.7815 16.6044 32.986 16.7046 33.226C16.7276 33.28 16.7468 33.334 16.7621 33.3841C17.0499 34.288 16.6125 35.2844 15.7263 35.6633C14.9437 35.9992 14.0537 35.748 13.5552 35.1031C13.4704 34.9987 13.4009 34.8828 13.3393 34.7593C13.3278 34.7322 13.3163 34.7091 13.3048 34.6821C12.9062 33.7397 13.3432 32.647 14.2839 32.2491V32.2406Z" fill="#5D5D9F"/>
<path d="M14.8508 36.1302L9.46089 38.4711C8.57473 38.8462 8.05302 39.9198 8.23502 40.862L8.21968 40.8272C7.84788 39.902 8.4343 39.1121 9.32046 38.7447L14.7104 36.4038C15.6437 36.0288 16.698 36.455 17.0697 37.3879L17.085 37.4227C16.7133 36.4974 15.7493 36.1564 14.862 36.5469L14.8508 36.1302Z" fill="#F2AE1D"/>
<path d="M17.0611 39.8506C17.7631 39.5494 18.5458 39.7192 19.0636 40.2215C19.2363 40.3915 19.3816 40.5959 19.4818 40.8359C19.5049 40.89 19.524 40.944 19.5394 40.9941C19.8271 41.898 19.3898 42.8944 18.5036 43.2733C17.721 43.6092 16.831 43.358 16.3324 42.7131C16.2476 42.6087 16.1782 42.4928 16.1166 42.3693C16.1051 42.3422 16.0936 42.3191 16.0821 42.292C15.6835 41.3497 16.1204 40.257 17.0611 39.8591V39.8506Z" fill="#5D5D9F"/>
<path d="M17.6279 43.7402L12.238 46.0811C11.3518 46.4562 10.8301 47.5298 11.0121 48.472L10.9968 48.4372C10.625 47.512 11.2114 46.722 12.0975 46.3547L17.4875 44.0138C18.4208 43.6388 19.4751 44.065 19.8468 44.9979L19.8621 45.0327C19.4904 44.1074 18.5264 43.7665 17.6391 44.1569L17.6279 43.7402Z" fill="#F2AE1D"/>
</g>
<defs>
<clipPath id="clip0_2115_51">
<rect width="50" height="50" fill="white"/>
</clipPath>
</defs>
</svg>
