<svg width="50" height="50" viewBox="0 0 50 50" fill="none" xmlns="http://www.w3.org/2000/svg">
<path d="M42.6098 25.6531V33.0284C42.6091 37.527 40.8139 41.8411 37.6191 45.0218C34.4243 48.2026 30.0915 49.9894 25.5737 49.9894H24.411C19.8934 49.9894 15.5608 48.2025 12.3664 45.0217C9.17204 41.8409 7.37744 37.5268 7.37744 33.0284V25.6531C7.37744 23.5547 8.21458 21.5423 9.70469 20.0585C11.1948 18.5748 13.2158 17.7412 15.3232 17.7412H34.6589C35.7028 17.7405 36.7366 17.9447 37.7012 18.342C38.6658 18.7393 39.5423 19.322 40.2807 20.0567C41.0191 20.7915 41.6048 21.6639 42.0045 22.6242C42.4041 23.5844 42.6098 24.6137 42.6098 25.6531V25.6531Z" fill="#3E3E7E"/>
<path d="M42.6103 29.1038V33.0392C42.6096 37.5378 40.8144 41.8519 37.6196 45.0326C34.4248 48.2133 30.092 50.0002 25.5742 50.0002H24.4114C23.4124 50.001 22.4152 49.9151 21.4312 49.7435C25.3727 49.0476 28.9424 46.9923 31.5143 43.9379C34.0863 40.8836 35.4964 37.0251 35.4973 33.0392V29.1038C35.497 27.143 34.7655 25.2521 33.4446 23.7979C32.1237 22.3436 30.3075 21.4296 28.3482 21.233C28.0827 21.205 27.816 21.1913 27.549 21.1919H34.6749C34.9418 21.1913 35.2086 21.205 35.4741 21.233C37.4334 21.4296 39.2495 22.3436 40.5704 23.7979C41.8913 25.2521 42.6229 27.143 42.6232 29.1038H42.6103Z" fill="#6D6DA5"/>
<path d="M35.4961 29.1038V33.0392C35.4952 37.0229 34.0867 40.8792 31.5173 43.9328C28.948 46.9863 25.3816 49.0424 21.4429 49.7409C17.5039 49.0429 13.9373 46.9869 11.3679 43.9333C8.79844 40.8796 7.39011 37.023 7.38965 33.0392V29.1038C7.38965 27.0054 8.22679 24.993 9.7169 23.5093C11.207 22.0255 13.228 21.1919 15.3354 21.1919H27.5479C27.8148 21.1913 28.0816 21.205 28.3471 21.233C30.3063 21.4296 32.1225 22.3436 33.4434 23.7979C34.7643 25.2521 35.4958 27.143 35.4961 29.1038V29.1038Z" fill="#5D5D9A"/>
<path d="M28.7162 33.1323C28.7169 33.4219 28.6832 33.7106 28.6157 33.9923C28.4186 33.161 27.9454 32.4203 27.2728 31.8902C26.6001 31.3601 25.7674 31.0717 24.9096 31.0717C24.0518 31.0717 23.2191 31.3601 22.5465 31.8902C21.8738 32.4203 21.4007 33.161 21.2036 33.9923C21.1359 33.7115 21.1022 33.4237 21.103 33.1349C21.1289 32.1467 21.5413 31.2076 22.2523 30.5178C22.9634 29.8279 23.9169 29.4419 24.9096 29.4419C25.9024 29.4419 26.8559 29.8279 27.5669 30.5178C28.278 31.2076 28.6903 32.1467 28.7162 33.1349V33.1323Z" fill="#342C60"/>
<path d="M28.0613 38.3052C28.2248 38.5777 28.3129 38.8886 28.3166 39.2061C28.3203 39.5236 28.2394 39.8363 28.0822 40.1126C27.925 40.3888 27.6971 40.6187 27.4217 40.7787C27.1463 40.9388 26.8333 41.0233 26.5144 41.0238H23.2505C22.9318 41.0214 22.6194 40.9351 22.3451 40.7736C22.0708 40.612 21.8443 40.381 21.6887 40.104C21.5331 39.827 21.454 39.514 21.4593 39.1967C21.4647 38.8793 21.5543 38.5691 21.7191 38.2975L22.1961 37.5273L22.9102 36.367C22.4806 36.1041 22.1078 35.7588 21.8135 35.3512C21.5192 34.9435 21.3092 34.4816 21.1958 33.9924C21.3929 33.1611 21.866 32.4204 22.5387 31.8903C23.2113 31.3602 24.044 31.0718 24.9018 31.0718C25.7596 31.0718 26.5923 31.3602 27.265 31.8903C27.9376 32.4204 28.4108 33.1611 28.6078 33.9924C28.4922 34.4841 28.2794 34.9479 27.982 35.3569C27.6845 35.7659 27.3084 36.1119 26.8754 36.3747L27.5895 37.5427L28.0613 38.3052Z" fill="#3E3E7E"/>
<path d="M33.488 20.0294C35.2806 20.0294 36.7339 19.6719 36.7339 19.231C36.7339 18.7901 35.2806 18.4326 33.488 18.4326C31.6954 18.4326 30.2422 18.7901 30.2422 19.231C30.2422 19.6719 31.6954 20.0294 33.488 20.0294Z" fill="#342C60"/>
<path d="M23.4002 7.24758C22.5888 7.55498 21.8903 8.10053 21.3972 8.81201C20.9041 9.52349 20.6397 10.3673 20.639 11.2318V18.5814C20.6396 18.7386 20.6284 18.8957 20.6055 19.0512C20.5933 19.155 20.5744 19.2579 20.5488 19.3593C20.3167 19.616 19.6284 19.8239 18.708 19.9369V11.4885C18.7087 10.3589 19.1594 9.2758 19.9613 8.47685C20.7632 7.6779 21.8507 7.22841 22.9851 7.22705C23.1217 7.22705 23.2635 7.23475 23.4002 7.24758Z" fill="#DA9C3E"/>
<path d="M36.1931 11.2315C36.1931 12.1554 35.8245 13.0415 35.1684 13.6948C34.5123 14.3481 33.6225 14.7151 32.6946 14.7151C32.2292 14.715 31.7683 14.6234 31.3385 14.4455C31.9753 14.1807 32.5192 13.7342 32.9018 13.1624C33.2844 12.5905 33.4886 11.9187 33.4887 11.2315C33.4862 8.487 32.4755 5.83821 30.6472 3.78449C28.8188 1.73077 26.299 0.414028 23.563 0.0824827C25.1471 -0.109836 26.7542 0.03507 28.2779 0.507623C29.8016 0.980177 31.2071 1.7696 32.4014 2.82362C33.5957 3.87764 34.5515 5.17223 35.2056 6.62169C35.8597 8.07115 36.1972 9.64243 36.1957 11.2315H36.1931Z" fill="#EFC069"/>
<path d="M33.4882 11.2311C33.4881 11.9182 33.2839 12.59 32.9013 13.1619C32.5188 13.7338 31.9748 14.1802 31.3381 14.4451C30.7026 14.1789 30.1602 13.732 29.7786 13.1603C29.3971 12.5886 29.1934 11.9175 29.1931 11.2311C29.193 10.5561 29.0319 9.89074 28.7231 9.28987C28.4143 8.68901 27.9665 8.16979 27.4167 7.77497C26.8669 7.38016 26.2307 7.12104 25.5606 7.01896C24.8906 6.91688 24.2057 6.97476 23.5625 7.18783L23.4001 7.24687C23.2634 7.23403 23.1242 7.22633 22.985 7.22633C21.8506 7.22769 20.7631 7.67718 19.9612 8.47613C19.1594 9.27508 18.7086 10.3582 18.7079 11.4878V19.9362C18.187 19.9991 17.6626 20.03 17.1379 20.0286C16.6841 20.0297 16.2306 20.0074 15.7792 19.9618C14.748 19.8566 13.9745 19.6332 13.7167 19.3586C13.6912 19.2572 13.6722 19.1543 13.66 19.0505C13.6371 18.895 13.6259 18.7379 13.6265 18.5807V11.2311C13.6293 8.67933 14.5034 6.2044 16.1051 4.21253C17.7068 2.22065 19.941 0.830197 22.441 0.269426C22.8078 0.187233 23.1787 0.124681 23.5522 0.0820312C26.2901 0.411257 28.8123 1.727 30.6428 3.78095C32.4733 5.8349 33.4854 8.48498 33.4882 11.2311Z" fill="#E6B042"/>
</svg>
