<svg width="50" height="50" viewBox="0 0 50 50" fill="none" xmlns="http://www.w3.org/2000/svg">
<path d="M39.0384 20.9526C41.0252 21.4622 42.8133 22.0964 44.3443 22.8211C47.8621 24.5084 49.9891 26.7167 49.9891 29.14V35.1532C49.9658 40.4076 39.9266 44.6542 27.55 44.6542C24.301 44.6542 21.2156 44.3598 18.4341 43.8275L39.0501 20.9526H39.0384Z" fill="#E27E3A"/>
<path d="M27.551 19.6045C31.7583 19.6045 35.6852 20.0914 39.051 20.9407L18.4351 43.8157C18.1779 43.7704 17.9091 43.7137 17.6637 43.6684C15.1744 43.1475 12.9421 42.4341 11.0839 41.5848C7.37911 39.8975 5.1235 37.6326 5.11182 35.1413V29.1282C5.11182 23.8624 15.1627 19.6045 27.551 19.6045V19.6045Z" fill="#E48443"/>
<path d="M44.3551 22.8213C47.8729 24.4973 49.9999 26.7168 49.9999 29.1402C49.9999 34.406 39.9491 38.6639 27.5608 38.6639C21.0511 38.6639 15.1842 37.4861 11.082 35.6063L13.8285 34.5532L41.6203 23.8744L44.3668 22.8213H44.3551Z" fill="#F4C985"/>
<path d="M41.598 23.874C44.5197 25.2782 46.2845 27.1241 46.2845 29.1398C46.2845 33.5336 37.8932 37.0894 27.5384 37.0894C22.1157 37.0894 17.2305 36.1155 13.8062 34.5528L41.598 23.874Z" fill="#E3AD43"/>
<path d="M27.549 19.6045C34.234 19.6045 40.2411 20.8502 44.355 22.8206L41.6085 23.8737C38.1842 22.2204 33.1588 21.1786 27.549 21.1786C17.2059 21.1786 8.80294 24.7457 8.80294 29.1395C8.80294 31.2345 10.7079 33.1256 13.8167 34.5525L11.0702 35.6056C7.36543 33.907 5.09814 31.6308 5.09814 29.1395C5.09814 23.8737 15.149 19.6158 27.5373 19.6158L27.549 19.6045Z" fill="#EFC069"/>
<path d="M27.5502 21.1797C33.1483 21.1797 38.1738 22.2215 41.6098 23.8749L13.8179 34.5536C10.7092 33.1381 8.8042 31.2356 8.8042 29.1406C8.8042 24.7468 17.1955 21.1797 27.5502 21.1797Z" fill="#E3AD43"/>
<path d="M41.5957 24.1129C39.9011 23.4108 38.1481 22.9012 36.3483 22.5501C34.5601 22.1877 32.737 21.9613 30.9138 21.848C27.2674 21.6328 23.586 21.7687 20.0097 22.4595C18.2216 22.7766 16.4569 23.2296 14.7739 23.875C13.1027 24.5318 11.4665 25.3698 10.2394 26.6155C9.63163 27.2383 9.17584 27.9971 9.0356 28.8237C8.90704 29.6504 9.12909 30.5224 9.61995 31.2471C10.0874 31.9832 10.7419 32.6173 11.4665 33.1496C12.1911 33.6818 12.9858 34.1461 13.8039 34.5425C12.9508 34.2027 12.1327 33.7951 11.3613 33.2855C10.6017 32.7872 9.87706 32.1757 9.33946 31.417C8.79017 30.6696 8.49799 29.707 8.61486 28.7671C8.73173 27.8272 9.22259 26.9666 9.85369 26.2758C10.4848 25.5737 11.2328 25.0075 12.0392 24.5319C12.8339 24.0562 13.6754 23.6599 14.5402 23.3088C16.2699 22.6294 18.0697 22.1424 19.8812 21.8027C23.5276 21.1686 27.2674 21.01 30.9488 21.3384C34.6186 21.6781 38.3117 22.4369 41.5841 24.0902L41.5957 24.1129Z" fill="#E27E3A"/>
<path d="M40.9768 27.8265V29.1967L31.3116 36.2517L27.3848 34.2926V32.9677L30.8792 34.7229L40.2873 27.8605L36.3838 26.377L36.6643 26.1958L37.9732 26.6941L40.9768 27.8265Z" fill="#E27E3A"/>
<path d="M35.1681 29.14L24.0654 32.458L21.3657 30.9858V29.944L24.0654 31.3029L27.069 28.9701L33.6138 28.3359L35.1681 29.14Z" fill="#E27E3A"/>
<path d="M26.8358 24.8828L18.3977 29.673L15.6045 28.0536V27.0571L18.4795 28.5066L25.5151 24.3506L26.8358 24.8828Z" fill="#E27E3A"/>
<path d="M25.6688 28.5506L28.7659 23.4774L25.6221 22.2883L25.9142 22.1411L29.2801 23.4094L29.3386 24.7683L27.0713 28.9696L25.6688 28.5506Z" fill="#E27E3A"/>
<path d="M40.9771 27.8259L31.3236 34.9488L27.385 32.9671L33.7194 28.7884L28.7407 30.0794L28.4953 30.1473L24.0659 31.3024L21.3662 29.9435L25.0243 25.1307L18.4795 28.5053L15.6045 27.0558L25.9125 22.1411L29.2783 23.4094L28.9979 23.885L27.7123 26.0366L26.1813 28.6072L28.1213 28.1656L36.6646 26.1952L40.9771 27.8259Z" fill="#EFC069"/>
<path d="M40.9771 27.8271L38.9435 29.3332L32.13 29.8314L33.7194 28.7896L28.7407 30.0806L22.5466 30.5449L21.3662 29.9447L25.0243 25.1319L18.4795 28.5065L15.6045 27.057L21.2493 24.3618L28.9979 23.8862L27.7123 26.0378L26.1813 28.6084L28.1213 28.1668L36.6646 26.1964L40.9771 27.8271Z" fill="#F4C985"/>
<path d="M42.4019 24.2136C42.4019 24.3156 42.4019 24.4175 42.4019 24.5194L42.3435 29.536C42.063 34.9263 32.4212 39.0031 21.0614 38.8898C9.52622 38.7653 -0.127288 34.5866 0.0012694 28.8452L0.059706 23.8286C0.059706 23.8286 0.059706 23.7833 0.059706 23.772C0.410318 18.4609 9.64309 14.237 21.3302 14.3616C33.0172 14.4861 42.1214 18.9139 42.3902 24.225L42.4019 24.2136Z" fill="#E27E3A"/>
<path d="M42.4103 23.8282C42.4751 18.1184 33.0679 13.389 21.3987 13.2647C9.72955 13.1403 0.217276 17.6682 0.15248 23.3779C0.0876838 29.0877 9.4949 33.8171 21.1641 33.9414C32.8333 34.0658 42.3455 29.5379 42.4103 23.8282Z" fill="#EFC069"/>
<path d="M41.1405 27.3056C39.5277 29.4572 36.4774 31.2577 32.5505 32.4467L4.91064 16.9439C7.1195 15.6416 9.97114 14.6111 13.2435 13.9883L41.1405 27.3056Z" fill="#F4C985"/>
<path d="M25.6655 33.7592L1.54346 19.7512C2.09275 19.0491 2.80566 18.3923 3.63544 17.7808L29.9898 33.1024C28.6224 33.3969 27.1615 33.6233 25.6539 33.7592H25.6655Z" fill="#F4C985"/>
<path d="M38.8383 23.0062C38.8839 18.9913 31.2661 15.655 21.8237 15.5544C12.3812 15.4538 4.68959 18.627 4.64402 22.6419C4.59846 26.6569 12.2162 29.9932 21.6587 30.0938C31.1011 30.1944 38.7927 27.0212 38.8383 23.0062Z" fill="#E27E3A"/>
<path d="M37.8476 23.7504C37.8931 19.7354 30.2754 16.3991 20.8329 16.2985C11.3904 16.1979 3.69886 19.3711 3.6533 23.3861C3.60774 27.401 11.2254 30.7373 20.6679 30.8379C30.1104 30.9385 37.802 27.7653 37.8476 23.7504Z" fill="#E3AD43"/>
<path d="M25.0813 28.8904C25.0813 28.8904 25.0696 28.913 25.0463 28.947C24.871 28.9243 24.6489 28.879 24.4035 28.8337C24.1464 28.7885 23.8892 28.7318 23.6204 28.6752C23.3516 28.6186 23.0945 28.562 22.8608 28.5053C22.6154 28.4487 22.4167 28.4034 22.2647 28.3808C22.2881 28.3242 21.8908 27.5541 21.9141 27.3729C21.9258 27.1917 22.2647 27.3729 22.3699 27.271C22.5335 27.1011 22.3933 26.7614 22.405 26.4443C22.405 26.1273 22.4284 25.7762 22.44 25.3912C22.4751 24.5985 22.4634 23.9643 22.405 23.4774C22.3115 22.4695 22.0544 21.9373 21.6453 21.9033C21.6219 21.9033 20.7104 22.0279 18.8989 22.2884C17.8704 22.4469 16.9238 22.5601 16.0823 22.6507C15.2408 22.7413 14.4578 22.8093 13.7449 22.8659C13.441 22.8885 13.1371 22.8999 12.8333 22.8885C12.3775 22.8885 11.9568 22.8772 11.5477 22.8319C11.1387 22.7866 10.7647 22.7413 10.4141 22.662C10.0634 22.5828 9.77127 22.5148 9.51416 22.4129C9.25704 22.3223 9.07005 22.2204 8.94149 22.1072C8.91812 22.0845 8.50907 21.2578 8.59088 21.2239C8.83631 21.088 9.9232 21.7788 10.3322 21.7561C10.7413 21.7335 11.2088 21.926 11.6529 21.9033C12.097 21.8807 12.4476 21.858 12.7164 21.8354C13.4644 21.7674 14.3526 21.6655 15.3927 21.5296C16.4212 21.3824 17.625 21.2126 18.9924 21.0087C19.2962 20.9634 19.6235 20.9181 19.9624 20.8728C20.3013 20.8275 20.6519 20.7709 21.0025 20.7256C21.3531 20.703 21.7505 20.7256 22.1712 20.8049C23.0711 20.8502 23.8892 20.8275 24.532 21.2239C24.6489 21.2918 24.719 21.6542 24.8008 21.7901C24.8826 21.9373 24.9645 22.1298 25.0346 22.3903C25.1047 22.6507 25.1514 22.9791 25.1982 23.3641C25.2333 23.7605 25.2566 24.2361 25.28 24.8137C25.3034 25.1081 25.3151 25.3459 25.3267 25.5044C25.3267 25.6743 25.3384 25.7649 25.3384 25.7989C25.6774 25.595 26.063 25.3685 26.5071 25.1194C26.9512 24.8703 27.372 24.5985 27.781 24.3267C27.933 24.2135 28.0148 24.1115 28.0148 23.9983C28.0148 23.9077 27.968 23.7831 27.8862 23.6246C27.8044 23.4661 27.6875 23.2849 27.5356 23.081C27.3837 22.8772 27.2317 22.6734 27.0564 22.4695C26.8811 22.2544 26.7175 22.0732 26.5656 21.892C26.5071 21.7108 26.1682 21.0087 26.215 21.0087C26.3435 20.9974 27.2084 21.8354 27.3369 21.8467C27.6642 21.8467 28.4939 22.2884 29.7912 23.149C30.7846 23.8171 31.2755 24.338 31.2638 24.7117C31.2404 24.9948 30.7495 25.3912 29.7912 25.9121C29.277 26.1839 28.8095 26.4104 28.4004 26.6142C27.9797 26.8067 27.6057 26.9992 27.2668 27.1691C26.9279 27.3389 26.624 27.5201 26.3552 27.69C26.0864 27.8712 25.841 28.075 25.6072 28.3128L25.0463 28.9583L25.0813 28.9017V28.8904Z" fill="#E27E3A"/>
<path d="M25.2461 27.3059C25.2461 27.3059 25.2812 27.272 25.3046 27.2493C25.5149 27.0342 25.7487 26.8416 25.9941 26.6831C26.2629 26.5132 26.5668 26.3321 26.9057 26.1622C27.2446 25.9923 27.6186 25.8111 28.0393 25.6186C28.2497 25.5167 28.4718 25.4148 28.7172 25.2902C28.9509 25.177 29.1847 25.0637 29.4418 24.9279C30.4001 24.4183 30.8793 24.0332 30.9144 23.7501C30.9144 23.3878 30.4235 22.8782 29.4418 22.2214C28.1328 21.3721 27.3147 20.9531 26.9758 20.9531C26.8473 20.9531 26.7187 20.9531 26.5901 20.9644C26.4616 20.9644 26.333 20.987 26.2045 20.9984C26.3564 21.1682 26.52 21.3607 26.6953 21.5646C26.8706 21.7684 27.0343 21.9722 27.1745 22.1761C27.3264 22.3686 27.4316 22.5498 27.5251 22.7083C27.6069 22.8669 27.6537 22.9914 27.6537 23.0707C27.6537 23.1839 27.5719 23.2858 27.4199 23.3878C27.0693 23.6256 26.6953 23.8521 26.3213 24.0672C26.2629 24.1012 26.2045 24.1352 26.146 24.1691C25.7019 24.4183 25.3163 24.6448 24.989 24.8373C24.989 24.8033 24.989 24.7127 24.9773 24.5542C24.9656 24.3956 24.954 24.1691 24.9306 23.8747C24.9306 23.6935 24.9306 23.5123 24.9072 23.3538C24.8955 23.0141 24.8721 22.7083 24.8488 22.4479C24.8137 22.0628 24.767 21.7458 24.6968 21.4853C24.6267 21.2362 24.5566 21.0323 24.4631 20.8964C24.3813 20.7605 24.2761 20.6473 24.1592 20.5794C23.5164 20.183 22.7334 19.9679 21.8335 19.9226C21.4128 19.8433 21.0154 19.8206 20.6648 19.8433C20.3142 19.8999 19.9636 19.9452 19.6247 19.9905C19.2857 20.0358 18.9585 20.0811 18.6546 20.1264C18.6313 20.1264 18.6196 20.1264 18.5962 20.1264C17.2522 20.3189 16.0718 20.4888 15.055 20.6247C14.2252 20.7379 13.5006 20.8172 12.8462 20.8851C12.6825 20.9078 12.5189 20.9191 12.3787 20.9304C12.1099 20.9531 11.7476 20.9757 11.3152 20.9984C10.871 21.021 10.4503 21.0437 10.0413 21.0663C9.63222 21.0889 9.28161 21.1116 9.00112 21.1342C8.72063 21.1569 8.59207 21.1795 8.60376 21.2022C8.73231 21.3154 8.91931 21.406 9.17642 21.5079C9.43354 21.5985 9.72572 21.6778 10.0763 21.7458C10.4153 21.8137 10.8009 21.8703 11.1983 21.9043C11.6073 21.9496 12.0398 21.9609 12.4839 21.9609C12.776 21.9609 13.0799 21.9609 13.3955 21.9383C13.7928 21.9043 14.2252 21.8703 14.6693 21.825C15.0083 21.7911 15.3589 21.7684 15.7212 21.7231C16.5626 21.6438 17.5093 21.5193 18.5378 21.3721C19.3792 21.2475 20.022 21.1569 20.4778 21.1003C21.0037 21.0323 21.2725 20.9984 21.2842 20.9984C21.5881 21.021 21.8101 21.3041 21.9387 21.8477C21.9854 22.0515 22.0205 22.278 22.0556 22.5498C22.114 23.0254 22.114 23.6595 22.0906 24.4296C22.0789 24.8146 22.0556 25.1657 22.0556 25.4714C22.0556 25.5054 22.0556 25.5507 22.0556 25.5847C22.0556 25.8451 22.0439 26.0829 22.0205 26.2868C21.9971 26.6038 21.9854 26.853 21.9738 27.0228C21.9621 27.204 21.9387 27.3173 21.9153 27.3739C22.0673 27.4079 22.2659 27.4418 22.5114 27.4985C22.7568 27.5551 23.0139 27.6117 23.2827 27.6683C23.5515 27.7249 23.8086 27.7816 24.0657 27.8269C24.3229 27.8722 24.5332 27.9174 24.7202 27.9401L25.2812 27.3059H25.2461Z" fill="#EFC069"/>
<path d="M14.6572 21.8357L12.834 20.9072C13.4768 20.8505 14.2131 20.7599 15.0428 20.6467C16.0596 20.5108 17.24 20.3409 18.584 20.1484L20.4773 21.111C20.0215 21.1676 19.3787 21.2695 18.5373 21.3828C17.4971 21.53 16.5622 21.6546 15.7207 21.7338C15.3584 21.7678 15.0078 21.8018 14.6689 21.8357H14.6572Z" fill="#F4C985"/>
<path d="M25.3043 27.2483L22.0319 25.5837C22.0319 25.5837 22.0319 25.5157 22.0319 25.4704C22.0319 25.1647 22.0553 24.8136 22.067 24.4286C22.102 23.6472 22.0903 23.0244 22.0319 22.5488C22.0085 22.277 21.9735 22.0505 21.915 21.8467L24.8952 23.3641C24.8952 23.5227 24.9069 23.7039 24.9186 23.885C24.942 24.1795 24.9537 24.406 24.9654 24.5645C24.9654 24.723 24.977 24.825 24.977 24.8476C25.3043 24.6551 25.7016 24.4286 26.1341 24.1795C26.1925 24.1455 26.2509 24.1115 26.3094 24.0776L28.6935 25.2892C28.4598 25.4138 28.2377 25.5157 28.0157 25.6176C27.595 25.8102 27.221 25.9913 26.882 26.1612C26.5431 26.3311 26.2393 26.5009 25.9705 26.6821C25.725 26.8407 25.4913 27.0332 25.2809 27.2483H25.3043Z" fill="#F4C985"/>
<path d="M44.5303 16.513C44.5303 16.6149 44.5303 16.7168 44.5303 16.8187L44.4719 21.8353C44.1914 27.2257 34.5496 31.3024 23.1898 31.1891C11.6546 31.0646 2.00113 26.8859 2.12969 21.1446L2.18812 16.1279C2.18812 16.1279 2.18812 16.0826 2.18812 16.0713C2.53873 10.7603 11.7715 6.53632 23.4586 6.66089C35.1456 6.78546 44.2499 11.2132 44.5187 16.5243L44.5303 16.513Z" fill="#E27E3A"/>
<path d="M44.5387 16.1343C44.6035 10.4246 35.1963 5.69514 23.5271 5.57081C11.858 5.44648 2.34569 9.97434 2.2809 15.6841C2.2161 21.3938 11.6233 26.1233 23.2925 26.2476C34.9617 26.3719 44.474 21.844 44.5387 16.1343Z" fill="#EFC069"/>
<path d="M43.267 19.6044C41.6542 21.756 38.6039 23.5565 34.677 24.7456L7.03711 9.24273C9.24596 7.94044 12.0976 6.90994 15.37 6.28711L43.267 19.6044V19.6044Z" fill="#F4C985"/>
<path d="M27.7945 26.06L3.67236 12.052C4.22166 11.3499 4.93456 10.6931 5.76435 10.0815L32.1187 25.4032C30.7513 25.6976 29.2904 25.9241 27.7828 26.06H27.7945Z" fill="#F4C985"/>
<path d="M40.9657 15.3002C41.0113 11.2852 33.3936 7.94892 23.9511 7.84832C14.5086 7.74771 6.81703 10.9209 6.77146 14.9359C6.7259 18.9508 14.3436 22.2871 23.7861 22.3877C33.2286 22.4883 40.9202 19.3151 40.9657 15.3002Z" fill="#E27E3A"/>
<path d="M39.9862 16.0556C40.0318 12.0406 32.4141 8.70429 22.9716 8.60369C13.5291 8.50308 5.83753 11.6763 5.79197 15.6912C5.74641 19.7062 13.3641 23.0425 22.8066 23.1431C32.2491 23.2437 39.9407 20.0705 39.9862 16.0556Z" fill="#E3AD43"/>
<path d="M27.2097 21.1897C27.2097 21.1897 27.198 21.2123 27.1747 21.2463C26.9994 21.2237 26.7773 21.1784 26.5319 21.1331C26.2748 21.0878 26.0177 21.0311 25.7489 20.9745C25.4801 20.9179 25.2229 20.8613 24.9892 20.8047C24.7438 20.748 24.5451 20.7027 24.3932 20.6801C24.4165 20.6235 24.0192 19.8534 24.0425 19.6722C24.0542 19.4911 24.3932 19.6722 24.4983 19.5703C24.662 19.4005 24.5217 19.0607 24.5334 18.7437C24.5334 18.4266 24.5568 18.0755 24.5685 17.6905C24.6035 16.8978 24.5918 16.2637 24.5334 15.7767C24.4399 14.7689 24.1828 14.2366 23.7737 14.2026C23.7504 14.2026 22.8388 14.3272 21.0273 14.5877C19.9988 14.7462 19.0522 14.8594 18.2107 14.95C17.3692 15.0406 16.5862 15.1086 15.8733 15.1652C15.5694 15.1879 15.2656 15.1992 14.9617 15.1879C14.5059 15.1879 14.0852 15.1765 13.6761 15.1312C13.2671 15.0859 12.8931 15.0406 12.5425 14.9614C12.1919 14.8821 11.8997 14.8142 11.6426 14.7122C11.3855 14.6216 11.1985 14.5197 11.0699 14.4065C11.0465 14.3838 10.6375 13.5572 10.7193 13.5232C10.9647 13.3873 12.0516 14.0781 12.4607 14.0554C12.8697 14.0328 13.3372 14.2253 13.7813 14.2026C14.2254 14.18 14.576 14.1573 14.8448 14.1347C15.5928 14.0668 16.481 13.9648 17.5212 13.8289C18.5496 13.6817 19.7534 13.5119 21.1208 13.308C21.4246 13.2627 21.7519 13.2174 22.0908 13.1721C22.4297 13.1268 22.7803 13.0702 23.131 13.0249C23.4816 13.0023 23.8789 13.0249 24.2997 13.1042C25.1996 13.1495 26.0177 13.1268 26.6604 13.5232C26.7773 13.5911 26.8474 13.9535 26.9292 14.0894C27.0111 14.2366 27.0929 14.4291 27.163 14.6896C27.2331 14.95 27.2799 15.2784 27.3266 15.6635C27.3617 16.0598 27.385 16.5354 27.4084 17.113C27.4318 17.4074 27.4435 17.6452 27.4552 17.8037C27.4552 17.9736 27.4669 18.0642 27.4669 18.0982C27.8058 17.8943 28.1914 17.6679 28.6356 17.4187C29.0797 17.1696 29.5004 16.8978 29.9094 16.626C30.0614 16.5128 30.1432 16.4109 30.1432 16.2976C30.1432 16.207 30.0964 16.0825 30.0146 15.9239C29.9328 15.7654 29.816 15.5842 29.664 15.3804C29.5121 15.1765 29.3602 14.9727 29.1849 14.7689C29.0095 14.5537 28.8459 14.3725 28.694 14.1913C28.6356 14.0101 28.2966 13.308 28.3434 13.308C28.4719 13.2967 29.3368 14.1347 29.4653 14.146C29.7926 14.146 30.6224 14.5877 31.9196 15.4483C32.913 16.1164 33.4039 16.6374 33.3922 17.011C33.3688 17.2942 32.878 17.6905 31.9196 18.2114C31.4054 18.4832 30.9379 18.7097 30.5289 18.9135C30.1081 19.106 29.7341 19.2985 29.3952 19.4684C29.0563 19.6383 28.7524 19.8195 28.4836 19.9893C28.2148 20.1705 27.9694 20.3743 27.7357 20.6121L27.1747 21.2576L27.2097 21.201V21.1897Z" fill="#E27E3A"/>
<path d="M27.3736 19.5935C27.3736 19.5935 27.4086 19.5596 27.432 19.5369C27.6424 19.3218 27.8761 19.1292 28.1215 18.9707C28.3904 18.8008 28.6942 18.6197 29.0331 18.4498C29.3721 18.2799 29.746 18.0987 30.1668 17.9062C30.3771 17.8043 30.5992 17.7024 30.8446 17.5778C31.0784 17.4646 31.3121 17.3513 31.5692 17.2155C32.5276 16.7059 33.0067 16.3208 33.0418 16.0377C33.0418 15.6754 32.5509 15.1658 31.5692 14.509C30.2603 13.6597 29.4422 13.2407 29.1033 13.2407C28.9747 13.2407 28.8461 13.2407 28.7176 13.252C28.589 13.252 28.4605 13.2746 28.3319 13.286C28.4838 13.4558 28.6475 13.6483 28.8228 13.8522C28.9981 14.056 29.1617 14.2598 29.3019 14.4637C29.4539 14.6562 29.5591 14.8374 29.6525 14.9959C29.7344 15.1544 29.7811 15.279 29.7811 15.3583C29.7811 15.4715 29.6993 15.5734 29.5474 15.6754C29.1968 15.9132 28.8228 16.1397 28.4488 16.3548C28.3903 16.3888 28.3319 16.4228 28.2735 16.4567C27.8294 16.7059 27.4437 16.9323 27.1165 17.1249C27.1165 17.0909 27.1165 17.0003 27.1048 16.8418C27.0931 16.6832 27.0814 16.4567 27.058 16.1623C27.058 15.9811 27.058 15.7999 27.0347 15.6414C27.023 15.3017 26.9996 14.9959 26.9762 14.7355C26.9412 14.3504 26.8944 14.0333 26.8243 13.7729C26.7542 13.5238 26.684 13.3199 26.5905 13.184C26.5087 13.0481 26.4036 12.9349 26.2867 12.867C25.6439 12.4706 24.8609 12.2554 23.961 12.2102C23.5402 12.1309 23.1429 12.1082 22.7922 12.1309C22.4416 12.1875 22.091 12.2328 21.7521 12.2781C21.4132 12.3234 21.0859 12.3687 20.7821 12.414C20.7587 12.414 20.747 12.414 20.7236 12.414C19.3796 12.6065 18.1992 12.7764 17.1825 12.9123C16.3527 13.0255 15.6281 13.1048 14.9736 13.1727C14.81 13.1954 14.6464 13.2067 14.5061 13.218C14.2373 13.2407 13.875 13.2633 13.4426 13.286C12.9985 13.3086 12.5778 13.3312 12.1687 13.3539C11.7597 13.3765 11.409 13.3992 11.1286 13.4218C10.8481 13.4445 10.7195 13.4671 10.7312 13.4898C10.8598 13.603 11.0467 13.6936 11.3039 13.7955C11.561 13.8861 11.8532 13.9654 12.2038 14.0334C12.5427 14.1013 12.9284 14.1579 13.3257 14.1919C13.7348 14.2372 14.1672 14.2485 14.6113 14.2485C14.9035 14.2485 15.2073 14.2485 15.5229 14.2259C15.9203 14.1919 16.3527 14.1579 16.7968 14.1126C17.1357 14.0786 17.4863 14.056 17.8486 14.0107C18.6901 13.9314 19.6367 13.8069 20.6652 13.6597C21.5067 13.5351 22.1495 13.4445 22.6053 13.3879C23.1312 13.3199 23.4 13.286 23.4117 13.286C23.7155 13.3086 23.9376 13.5917 24.0661 14.1353C24.1129 14.3391 24.1479 14.5656 24.183 14.8374C24.2414 15.313 24.2414 15.9471 24.2181 16.7172C24.2064 17.1022 24.183 17.4533 24.183 17.759C24.183 17.793 24.183 17.8383 24.183 17.8723C24.183 18.1327 24.1713 18.3705 24.1479 18.5744C24.1246 18.8914 24.1129 19.1406 24.1012 19.3104C24.0895 19.4916 24.0661 19.6049 24.0428 19.6615C24.1947 19.6955 24.3934 19.7294 24.6388 19.7861C24.8842 19.8427 25.1413 19.8993 25.4101 19.9559C25.679 20.0125 25.9361 20.0692 26.1932 20.1145C26.4503 20.1598 26.6607 20.205 26.8477 20.2277L27.4086 19.5935H27.3736Z" fill="#EFC069"/>
<path d="M16.7968 14.1346L14.9736 13.206C15.6164 13.1494 16.3527 13.0588 17.1825 12.9455C18.1993 12.8096 19.3797 12.6398 20.7237 12.4473L22.617 13.4098C22.1612 13.4664 21.5184 13.5684 20.6769 13.6816C19.6368 13.8288 18.7018 13.9534 17.8603 14.0327C17.498 14.0666 17.1474 14.1006 16.8085 14.1346H16.7968Z" fill="#F4C985"/>
<path d="M27.4317 19.5481L24.1594 17.8835C24.1594 17.8835 24.1594 17.8155 24.1594 17.7702C24.1594 17.4645 24.1827 17.1134 24.1944 16.7284C24.2295 15.947 24.2178 15.3242 24.1594 14.8486C24.136 14.5768 24.1009 14.3503 24.0425 14.1465L27.0227 15.6639C27.0227 15.8225 27.0344 16.0037 27.0461 16.1848C27.0694 16.4793 27.0811 16.7058 27.0928 16.8643C27.0928 17.0228 27.1045 17.1248 27.1045 17.1474C27.4317 16.9549 27.8291 16.7284 28.2615 16.4793C28.3199 16.4453 28.3784 16.4113 28.4368 16.3774L30.821 17.589C30.5872 17.7136 30.3652 17.8155 30.1431 17.9175C29.7224 18.11 29.3484 18.2911 29.0095 18.461C28.6706 18.6309 28.3667 18.8007 28.0979 18.9819C27.8525 19.1405 27.6187 19.333 27.4084 19.5481H27.4317Z" fill="#F4C985"/>
</svg>
