<svg width="50" height="50" viewBox="0 0 50 50" fill="none" xmlns="http://www.w3.org/2000/svg">
<g clip-path="url(#clip0_2124_3849)">
<path d="M39.1827 28.79C40.9606 29.2461 42.5608 29.8135 43.9308 30.4621C47.0788 31.972 48.9822 33.9481 48.9822 36.1167V41.4977C48.9613 46.1997 39.9776 49.9998 28.9022 49.9998C25.9947 49.9998 23.2337 49.7363 20.7446 49.26L39.1932 28.79H39.1827Z" fill="#E27E3A"/>
<path d="M28.9028 27.5835C32.6678 27.5835 36.1818 28.0192 39.1938 28.7793L20.7453 49.2493C20.5152 49.2087 20.2747 49.1581 20.055 49.1175C17.8274 48.6514 15.8299 48.013 14.167 47.2529C10.8517 45.743 8.83321 43.7163 8.82275 41.4869V36.1059C8.82275 31.3938 17.8169 27.5835 28.9028 27.5835V27.5835Z" fill="#E48443"/>
<path d="M43.9405 30.4619C47.0885 31.9617 48.9919 33.9479 48.9919 36.1165C48.9919 40.8287 39.9977 44.6389 28.9118 44.6389C23.0865 44.6389 17.8364 43.585 14.1655 41.9028L16.6232 40.9604L41.4932 31.4043L43.9509 30.4619H43.9405Z" fill="#F4C985"/>
<path d="M41.473 31.4043C44.0876 32.6609 45.6668 34.3127 45.6668 36.1165C45.6668 40.0483 38.1577 43.2303 28.8916 43.2303C24.0389 43.2303 19.6673 42.3588 16.603 40.9603L41.473 31.4043Z" fill="#E3AD43"/>
<path d="M28.9011 27.5835C34.8832 27.5835 40.2588 28.6982 43.9402 30.4615L41.4825 31.4039C38.4182 29.9244 33.9211 28.9921 28.9011 28.9921C19.6454 28.9921 12.1258 32.1842 12.1258 36.116C12.1258 37.9908 13.8306 39.6831 16.6125 40.9599L14.1548 41.9024C10.8395 40.3823 8.81055 38.3454 8.81055 36.116C8.81055 31.4039 17.8047 27.5936 28.8906 27.5936L28.9011 27.5835Z" fill="#EFC069"/>
<path d="M28.9022 28.9932C33.9117 28.9932 38.4088 29.9255 41.4836 31.405L16.6136 40.961C13.8317 39.6943 12.127 37.9919 12.127 36.1171C12.127 32.1853 19.6361 28.9932 28.9022 28.9932Z" fill="#E3AD43"/>
<path d="M41.4714 31.6176C39.9549 30.9893 38.3862 30.5333 36.7756 30.2192C35.1754 29.8949 33.5439 29.6922 31.9124 29.5909C28.6494 29.3983 25.355 29.52 22.1548 30.1381C20.5547 30.4219 18.9754 30.8272 17.4694 31.4048C15.9739 31.9926 14.5097 32.7425 13.4116 33.8572C12.8678 34.4145 12.4599 35.0935 12.3344 35.8332C12.2193 36.573 12.4181 37.3533 12.8573 38.0018C13.2756 38.6605 13.8613 39.228 14.5097 39.7043C15.1581 40.1806 15.8693 40.5961 16.6014 40.9507C15.8379 40.6467 15.1058 40.2819 14.4156 39.8259C13.7358 39.38 13.0874 38.8328 12.6063 38.1538C12.1148 37.485 11.8533 36.6237 11.9579 35.7826C12.0625 34.9415 12.5017 34.1713 13.0665 33.5532C13.6312 32.9249 14.3006 32.4182 15.0222 31.9926C15.7334 31.567 16.4864 31.2123 17.2603 30.8981C18.8081 30.2901 20.4187 29.8544 22.0397 29.5504C25.3028 28.9829 28.6494 28.841 31.9438 29.1349C35.2277 29.4389 38.5326 30.1178 41.4609 31.5974L41.4714 31.6176Z" fill="#E27E3A"/>
<path d="M40.9175 34.9412V36.1674L32.2684 42.4806L28.7544 40.7275V39.5419L31.8814 41.1126L40.3004 34.9716L36.8073 33.6441L37.0583 33.4819L38.2297 33.9278L40.9175 34.9412Z" fill="#E27E3A"/>
<path d="M35.7195 36.1165L25.784 39.0856L23.3682 37.7683V36.836L25.784 38.052L28.4718 35.9645L34.3285 35.397L35.7195 36.1165Z" fill="#E27E3A"/>
<path d="M28.2629 32.3068L20.7119 36.5934L18.2124 35.1443V34.2525L20.7852 35.5496L27.0811 31.8306L28.2629 32.3068Z" fill="#E27E3A"/>
<path d="M27.2186 35.5892L29.9901 31.0493L27.1768 29.9853L27.4382 29.8535L30.4502 30.9885L30.5025 32.2045L28.4736 35.9641L27.2186 35.5892Z" fill="#E27E3A"/>
<path d="M40.9175 34.9406L32.2789 41.3147L28.7544 39.5413L34.4229 35.802L29.9676 36.9572L29.748 37.018L25.7843 38.0517L23.3684 36.8356L26.6418 32.5288L20.7852 35.5486L18.2124 34.2515L27.4367 29.8535L30.4487 30.9885L30.1977 31.4141L29.0473 33.3395L27.6772 35.6398L29.4133 35.2446L37.0584 33.4814L40.9175 34.9406Z" fill="#EFC069"/>
<path d="M40.9175 34.9416L39.0978 36.2893L33.0005 36.7352L34.4229 35.8029L29.9676 36.9582L24.4247 37.3736L23.3684 36.8365L26.6418 32.5297L20.7852 35.5496L18.2124 34.2525L23.2638 31.8407L30.1977 31.415L29.0473 33.3404L27.6772 35.6408L29.4133 35.2456L37.0584 33.4823L40.9175 34.9416Z" fill="#F4C985"/>
<path d="M22.6784 9.6581C23.2907 9.6581 23.787 9.17718 23.787 8.58393C23.787 7.99069 23.2907 7.50977 22.6784 7.50977C22.0662 7.50977 21.5698 7.99069 21.5698 8.58393C21.5698 9.17718 22.0662 9.6581 22.6784 9.6581Z" fill="#F0C069"/>
<path d="M31.1286 0C31.1286 0 31.0763 4.38788 34.7577 5.03643C34.7577 5.03643 31.5783 5.62418 31.1286 10.2857C31.1286 10.2857 30.4593 5.49245 27.3218 5.1479C27.3218 5.1479 30.6162 4.82362 31.1286 0.0101339V0Z" fill="#F0C069"/>
<path d="M2.97447 11.7852C2.97447 11.7852 2.95356 14.0551 4.85698 14.3895C4.85698 14.3895 3.21502 14.6935 2.97447 17.1053C2.97447 17.1053 2.62935 14.6327 1.0083 14.4503C1.0083 14.4503 2.71301 14.278 2.97447 11.7953V11.7852Z" fill="#F2AE1C"/>
<path d="M42.1926 31.7078C42.1926 31.7991 42.1926 31.8903 42.1926 31.9815L42.1403 36.4707C41.8893 41.2943 33.2612 44.9424 23.0956 44.8411C12.7732 44.7296 4.13463 40.9903 4.24967 35.8525L4.30196 31.3633C4.30196 31.3633 4.30196 31.3228 4.30196 31.3126C4.61571 26.5599 12.8778 22.7801 23.3362 22.8916C33.7945 23.003 41.9416 26.9653 42.1822 31.718L42.1926 31.7078Z" fill="#E27E3A"/>
<path d="M42.1999 31.3629C42.2579 26.2534 33.8397 22.0212 23.3973 21.9099C12.955 21.7987 4.44276 25.8505 4.38477 30.9599C4.32679 36.0694 12.745 40.3016 23.1874 40.4129C33.6297 40.5241 42.1419 36.4723 42.1999 31.3629Z" fill="#EFC069"/>
<path d="M41.064 34.4748C39.6207 36.4002 36.8911 38.0115 33.3771 39.0755L8.64307 25.2025C10.6197 24.0371 13.1715 23.115 16.0999 22.5576L41.064 34.4748Z" fill="#F4C985"/>
<path d="M27.2159 40.2503L5.62988 27.7149C6.12143 27.0866 6.75938 26.4989 7.50193 25.9517L31.0855 39.6625C29.8619 39.926 28.5546 40.1287 27.2055 40.2503H27.2159Z" fill="#F4C985"/>
<path d="M39.0037 30.6277C39.0445 27.0349 32.2276 24.0493 23.7779 23.9593C15.3281 23.8693 8.44517 26.7089 8.40439 30.3017C8.36362 33.8946 15.1805 36.8801 23.6302 36.9701C32.08 37.0602 38.9629 34.2206 39.0037 30.6277Z" fill="#E27E3A"/>
<path d="M38.117 31.2933C38.1578 27.7004 31.3409 24.7149 22.8912 24.6248C14.4414 24.5348 7.55845 27.3744 7.51767 30.9672C7.4769 34.5601 14.2937 37.5456 22.7435 37.6357C31.1933 37.7257 38.0762 34.8861 38.117 31.2933Z" fill="#E3AD43"/>
<path d="M26.6932 35.8929C26.6932 35.8929 26.6827 35.9132 26.6618 35.9436C26.5049 35.9233 26.3062 35.8828 26.0866 35.8423C25.8565 35.8017 25.6264 35.7511 25.3859 35.7004C25.1453 35.6497 24.9153 35.599 24.7061 35.5484C24.4865 35.4977 24.3087 35.4572 24.1727 35.4369C24.1936 35.3862 23.838 34.6971 23.859 34.535C23.8694 34.3729 24.1727 34.535 24.2668 34.4438C24.4132 34.2918 24.2877 33.9878 24.2982 33.704C24.2982 33.4203 24.3191 33.1062 24.3296 32.7616C24.361 32.0523 24.3505 31.4848 24.2982 31.049C24.2145 30.1471 23.9845 29.6709 23.6184 29.6405C23.5975 29.6405 22.7817 29.7519 21.1607 29.985C20.2404 30.1269 19.3932 30.2282 18.6402 30.3093C17.8872 30.3903 17.1865 30.4511 16.5486 30.5018C16.2766 30.5221 16.0047 30.5322 15.7328 30.5221C15.3249 30.5221 14.9484 30.5119 14.5824 30.4714C14.2163 30.4309 13.8817 30.3903 13.5679 30.3194C13.2542 30.2485 12.9927 30.1877 12.7626 30.0965C12.5326 30.0154 12.3652 29.9242 12.2502 29.8229C12.2293 29.8026 11.8632 29.0628 11.9364 29.0324C12.156 28.9108 13.1287 29.529 13.4947 29.5087C13.8608 29.4884 14.2791 29.6607 14.6765 29.6405C15.0739 29.6202 15.3877 29.5999 15.6282 29.5796C16.2976 29.5188 17.0924 29.4276 18.0232 29.306C18.9435 29.1743 20.0207 29.0223 21.2444 28.8399C21.5163 28.7994 21.8091 28.7588 22.1124 28.7183C22.4157 28.6778 22.7295 28.6271 23.0432 28.5866C23.357 28.5663 23.7125 28.5866 24.089 28.6575C24.8943 28.698 25.6264 28.6778 26.2016 29.0324C26.3062 29.0932 26.369 29.4175 26.4422 29.5391C26.5154 29.6709 26.5886 29.8431 26.6513 30.0762C26.7141 30.3093 26.7559 30.6031 26.7978 30.9477C26.8291 31.3024 26.85 31.728 26.871 32.2448C26.8919 32.5083 26.9023 32.7211 26.9128 32.863C26.9128 33.015 26.9233 33.096 26.9233 33.1264C27.2265 32.944 27.5717 32.7414 27.9691 32.5184C28.3665 32.2955 28.743 32.0523 29.1091 31.8091C29.245 31.7077 29.3182 31.6165 29.3182 31.5152C29.3182 31.4341 29.2764 31.3226 29.2032 31.1808C29.13 31.0389 29.0254 30.8768 28.8894 30.6944C28.7535 30.5119 28.6175 30.3295 28.4606 30.1471C28.3038 29.9546 28.1573 29.7925 28.0214 29.6303C27.9691 29.4682 27.6658 28.8399 27.7076 28.8399C27.8227 28.8298 28.5966 29.5796 28.7116 29.5898C29.0045 29.5898 29.747 29.985 30.9079 30.7552C31.7969 31.353 32.2361 31.8192 32.2256 32.1536C32.2047 32.4069 31.7655 32.7616 30.9079 33.2278C30.4477 33.471 30.0294 33.6737 29.6633 33.8561C29.2868 34.0283 28.9522 34.2006 28.6489 34.3526C28.3456 34.5046 28.0737 34.6667 27.8331 34.8188C27.5926 34.9809 27.373 35.1633 27.1638 35.3761L26.6618 35.9537L26.6932 35.9031V35.8929Z" fill="#E27E3A"/>
<path d="M26.8406 34.4751C26.8406 34.4751 26.872 34.4447 26.8929 34.4244C27.0812 34.2319 27.2903 34.0596 27.51 33.9177C27.7505 33.7657 28.0224 33.6036 28.3257 33.4516C28.629 33.2996 28.9637 33.1374 29.3402 32.9652C29.5284 32.874 29.7271 32.7828 29.9468 32.6713C30.1559 32.57 30.3651 32.4686 30.5952 32.347C31.4528 31.891 31.8816 31.5465 31.9129 31.2931C31.9129 30.9688 31.4737 30.5128 30.5952 29.9251C29.4238 29.165 28.6918 28.7901 28.3885 28.7901C28.2734 28.7901 28.1584 28.7901 28.0433 28.8002C27.9283 28.8002 27.8133 28.8205 27.6982 28.8306C27.8342 28.9826 27.9806 29.1549 28.1375 29.3373C28.2943 29.5197 28.4408 29.7021 28.5663 29.8845C28.7022 30.0568 28.7963 30.2189 28.88 30.3608C28.9532 30.5027 28.9951 30.6142 28.9951 30.6851C28.9951 30.7864 28.9218 30.8776 28.7859 30.9688C28.4721 31.1816 28.1375 31.3843 27.8028 31.5769C27.7505 31.6073 27.6982 31.6377 27.6459 31.6681C27.2485 31.891 26.9034 32.0937 26.6105 32.2659C26.6105 32.2355 26.6105 32.1545 26.6001 32.0126C26.5896 31.8707 26.5792 31.6681 26.5583 31.4046C26.5583 31.2424 26.5583 31.0803 26.5373 30.9384C26.5269 30.6344 26.506 30.3608 26.485 30.1277C26.4537 29.7832 26.4118 29.4995 26.3491 29.2664C26.2863 29.0434 26.2236 28.861 26.1399 28.7394C26.0667 28.6178 25.9726 28.5165 25.868 28.4557C25.2928 28.101 24.5921 27.9085 23.7868 27.8679C23.4103 27.797 23.0547 27.7767 22.741 27.797C22.4272 27.8477 22.1134 27.8882 21.8102 27.9287C21.5069 27.9693 21.214 28.0098 20.9421 28.0503C20.9212 28.0503 20.9107 28.0503 20.8898 28.0503C19.6871 28.2226 18.6308 28.3746 17.7209 28.4962C16.9784 28.5976 16.33 28.6685 15.7443 28.7293C15.5979 28.7496 15.4515 28.7597 15.326 28.7698C15.0854 28.7901 14.7612 28.8104 14.3743 28.8306C13.9768 28.8509 13.6003 28.8712 13.2343 28.8914C12.8683 28.9117 12.5545 28.932 12.3035 28.9522C12.0525 28.9725 11.9375 28.9928 11.9479 29.013C12.063 29.1144 12.2303 29.1954 12.4604 29.2866C12.6905 29.3677 12.9519 29.4387 13.2657 29.4995C13.569 29.5603 13.9141 29.6109 14.2697 29.6413C14.6357 29.6819 15.0227 29.692 15.4201 29.692C15.6816 29.692 15.9535 29.692 16.2358 29.6717C16.5914 29.6413 16.9784 29.6109 17.3758 29.5704C17.6791 29.54 17.9929 29.5197 18.3171 29.4792C19.0701 29.4083 19.9172 29.2968 20.8375 29.165C21.5905 29.0536 22.1657 28.9725 22.5736 28.9218C23.0442 28.861 23.2848 28.8306 23.2952 28.8306C23.5672 28.8509 23.7659 29.1042 23.8809 29.5907C23.9227 29.7731 23.9541 29.9757 23.9855 30.2189C24.0378 30.6446 24.0378 31.212 24.0169 31.9011C24.0064 32.2457 23.9855 32.5598 23.9855 32.8334C23.9855 32.8638 23.9855 32.9044 23.9855 32.9348C23.9855 33.1678 23.975 33.3806 23.9541 33.5631C23.9332 33.8468 23.9227 34.0697 23.9123 34.2217C23.9018 34.3839 23.8809 34.4852 23.86 34.5359C23.996 34.5663 24.1737 34.5967 24.3934 34.6474C24.613 34.698 24.8431 34.7487 25.0836 34.7994C25.3242 34.85 25.5543 34.9007 25.7843 34.9412C26.0144 34.9818 26.2027 35.0223 26.37 35.0426L26.872 34.4751H26.8406Z" fill="#EFC069"/>
<path d="M17.3649 29.5802L15.7334 28.7493C16.3086 28.6986 16.9675 28.6175 17.71 28.5162C18.6199 28.3946 19.6762 28.2426 20.8789 28.0703L22.5732 28.9317C22.1653 28.9823 21.5901 29.0735 20.8371 29.1749C19.9063 29.3066 19.0696 29.4181 18.3166 29.489C17.9924 29.5194 17.6787 29.5498 17.3754 29.5802H17.3649Z" fill="#F4C985"/>
<path d="M26.8923 34.4236L23.964 32.934C23.964 32.934 23.964 32.8732 23.964 32.8326C23.964 32.559 23.9849 32.2449 23.9953 31.9003C24.0267 31.2011 24.0163 30.6437 23.964 30.2181C23.943 29.9749 23.9117 29.7722 23.8594 29.5898L26.5263 30.9478C26.5263 31.0896 26.5367 31.2518 26.5472 31.4139C26.5681 31.6774 26.5785 31.8801 26.589 32.0219C26.589 32.1638 26.5995 32.255 26.5995 32.2753C26.8923 32.103 27.2479 31.9003 27.6348 31.6774C27.6871 31.647 27.7394 31.6166 27.7917 31.5862L29.9252 32.6705C29.7161 32.7819 29.5174 32.8732 29.3186 32.9644C28.9421 33.1366 28.6075 33.2988 28.3042 33.4508C28.0009 33.6028 27.729 33.7548 27.4884 33.9169C27.2688 34.0588 27.0596 34.2311 26.8714 34.4236H26.8923Z" fill="#F4C985"/>
<path d="M44.0974 24.8167C44.0974 24.9079 44.0974 24.9991 44.0974 25.0903L44.0451 29.5796C43.7941 34.4032 35.166 38.0513 25.0004 37.95C14.678 37.8385 6.03941 34.0992 6.15446 28.9614L6.20675 24.4722C6.20675 24.4722 6.20675 24.4317 6.20675 24.4215C6.5205 19.6688 14.7826 15.889 25.241 16.0005C35.6993 16.1119 43.8464 20.0742 44.0869 24.8269L44.0974 24.8167Z" fill="#E27E3A"/>
<path d="M44.1047 24.4781C44.1627 19.3686 35.7445 15.1364 25.3021 15.0252C14.8598 14.9139 6.34754 18.9657 6.28956 24.0752C6.23158 29.1846 14.6498 33.4169 25.0921 33.5281C35.5345 33.6394 44.0467 29.5875 44.1047 24.4781Z" fill="#EFC069"/>
<path d="M42.9668 27.5832C41.5236 29.5086 38.7939 31.1199 35.2799 32.1839L10.5459 18.3109C12.5225 17.1455 15.0744 16.2234 18.0027 15.666L42.9668 27.5832V27.5832Z" fill="#F4C985"/>
<path d="M29.1207 33.3601L7.53467 20.8248C8.02621 20.1965 8.66417 19.6087 9.40671 19.0615L32.9903 32.7724C31.7667 33.0358 30.4594 33.2385 29.1103 33.3601H29.1207Z" fill="#F4C985"/>
<path d="M40.9075 23.7317C40.9483 20.1389 34.1315 17.1533 25.6817 17.0633C17.2319 16.9733 10.349 19.8129 10.3082 23.4057C10.2674 26.9986 17.0843 29.9841 25.534 30.0741C33.9838 30.1642 40.8667 27.3246 40.9075 23.7317Z" fill="#E27E3A"/>
<path d="M40.0311 24.4075C40.0718 20.8147 33.255 17.8291 24.8052 17.7391C16.3555 17.6491 9.47251 20.4886 9.43174 24.0815C9.39096 27.6743 16.2078 30.6599 24.6576 30.7499C33.1073 30.84 39.9903 28.0004 40.0311 24.4075Z" fill="#E3AD43"/>
<path d="M28.5975 29.0018C28.5975 29.0018 28.587 29.0221 28.5661 29.0525C28.4092 29.0322 28.2105 28.9917 27.9909 28.9511C27.7608 28.9106 27.5307 28.8599 27.2902 28.8093C27.0496 28.7586 26.8195 28.7079 26.6104 28.6573C26.3908 28.6066 26.213 28.5661 26.077 28.5458C26.0979 28.4951 25.7423 27.806 25.7633 27.6439C25.7737 27.4818 26.077 27.6439 26.1711 27.5527C26.3175 27.4007 26.192 27.0967 26.2025 26.8129C26.2025 26.5292 26.2234 26.2151 26.2339 25.8705C26.2653 25.1612 26.2548 24.5937 26.2025 24.1579C26.1188 23.256 25.8888 22.7797 25.5227 22.7493C25.5018 22.7493 24.686 22.8608 23.065 23.0939C22.1447 23.2358 21.2975 23.3371 20.5445 23.4182C19.7915 23.4992 19.0908 23.56 18.4529 23.6107C18.1809 23.631 17.909 23.6411 17.6371 23.631C17.2292 23.631 16.8527 23.6208 16.4867 23.5803C16.1206 23.5398 15.786 23.4992 15.4722 23.4283C15.1585 23.3574 14.897 23.2966 14.6669 23.2054C14.4368 23.1243 14.2695 23.0331 14.1545 22.9317C14.1336 22.9115 13.7675 22.1717 13.8407 22.1413C14.0603 22.0197 15.033 22.6379 15.399 22.6176C15.7651 22.5973 16.1834 22.7696 16.5808 22.7493C16.9782 22.7291 17.292 22.7088 17.5325 22.6885C18.2019 22.6277 18.9967 22.5365 19.9275 22.4149C20.8478 22.2832 21.925 22.1312 23.1487 21.9488C23.4206 21.9082 23.7134 21.8677 24.0167 21.8272C24.32 21.7866 24.6337 21.736 24.9475 21.6954C25.2613 21.6752 25.6168 21.6954 25.9933 21.7664C26.7986 21.8069 27.5307 21.7866 28.1059 22.1413C28.2105 22.2021 28.2733 22.5264 28.3465 22.648C28.4197 22.7797 28.4929 22.952 28.5556 23.1851C28.6184 23.4182 28.6602 23.712 28.7021 24.0566C28.7334 24.4113 28.7543 24.8369 28.7753 25.3537C28.7962 25.6172 28.8066 25.83 28.8171 25.9718C28.8171 26.1238 28.8276 26.2049 28.8276 26.2353C29.1308 26.0529 29.476 25.8502 29.8734 25.6273C30.2708 25.4044 30.6473 25.1612 31.0134 24.9179C31.1493 24.8166 31.2225 24.7254 31.2225 24.6241C31.2225 24.543 31.1807 24.4315 31.1075 24.2897C31.0343 24.1478 30.9297 23.9856 30.7937 23.8032C30.6578 23.6208 30.5218 23.4384 30.3649 23.256C30.2081 23.0635 30.0616 22.9013 29.9257 22.7392C29.8734 22.5771 29.5701 21.9488 29.6119 21.9488C29.727 21.9386 30.5009 22.6885 30.6159 22.6987C30.9088 22.6987 31.6513 23.0939 32.8122 23.864C33.7012 24.4619 34.1404 24.9281 34.1299 25.2625C34.109 25.5158 33.6698 25.8705 32.8122 26.3367C32.352 26.5799 31.9337 26.7825 31.5676 26.9649C31.1911 27.1372 30.8565 27.3095 30.5532 27.4615C30.2499 27.6135 29.978 27.7756 29.7374 27.9276C29.4969 28.0898 29.2773 28.2722 29.0681 28.485L28.5661 29.0626L28.5975 29.0119V29.0018Z" fill="#E27E3A"/>
<path d="M28.7444 27.5737C28.7444 27.5737 28.7758 27.5433 28.7967 27.523C28.985 27.3305 29.1941 27.1582 29.4138 27.0164C29.6543 26.8644 29.9262 26.7022 30.2295 26.5502C30.5328 26.3982 30.8675 26.2361 31.244 26.0638C31.4322 25.9726 31.6309 25.8814 31.8506 25.7699C32.0597 25.6686 32.2689 25.5673 32.499 25.4456C33.3566 24.9896 33.7854 24.6451 33.8167 24.3917C33.8167 24.0675 33.3775 23.6115 32.499 23.0237C31.3277 22.2637 30.5956 21.8887 30.2923 21.8887C30.1772 21.8887 30.0622 21.8887 29.9471 21.8989C29.8321 21.8989 29.7171 21.9191 29.602 21.9293C29.738 22.0813 29.8844 22.2535 30.0413 22.436C30.1982 22.6184 30.3446 22.8008 30.4701 22.9832C30.606 23.1554 30.7002 23.3176 30.7838 23.4594C30.857 23.6013 30.8989 23.7128 30.8989 23.7837C30.8989 23.8851 30.8257 23.9763 30.6897 24.0675C30.3759 24.2803 30.0413 24.4829 29.7066 24.6755C29.6543 24.7059 29.602 24.7363 29.5497 24.7667C29.1523 24.9896 28.8072 25.1923 28.5144 25.3646C28.5144 25.3342 28.5144 25.2531 28.5039 25.1112C28.4934 24.9694 28.483 24.7667 28.4621 24.5032C28.4621 24.3411 28.4621 24.1789 28.4411 24.0371C28.4307 23.7331 28.4098 23.4594 28.3889 23.2264C28.3575 22.8818 28.3156 22.5981 28.2529 22.365C28.1901 22.1421 28.1274 21.9597 28.0437 21.8381C27.9705 21.7165 27.8764 21.6151 27.7718 21.5543C27.1966 21.1996 26.4959 21.0071 25.6906 20.9666C25.3141 20.8956 24.9585 20.8754 24.6448 20.8956C24.331 20.9463 24.0173 20.9868 23.714 21.0274C23.4107 21.0679 23.1178 21.1084 22.8459 21.149C22.825 21.149 22.8145 21.149 22.7936 21.149C21.5909 21.3212 20.5346 21.4733 19.6247 21.5949C18.8822 21.6962 18.2338 21.7671 17.6481 21.8279C17.5017 21.8482 17.3553 21.8583 17.2298 21.8685C16.9892 21.8887 16.665 21.909 16.2781 21.9293C15.8806 21.9495 15.5041 21.9698 15.1381 21.9901C14.7721 22.0103 14.4583 22.0306 14.2073 22.0509C13.9563 22.0711 13.8413 22.0914 13.8517 22.1117C13.9668 22.213 14.1341 22.2941 14.3642 22.3853C14.5943 22.4663 14.8557 22.5373 15.1695 22.5981C15.4728 22.6589 15.8179 22.7096 16.1735 22.74C16.5395 22.7805 16.9265 22.7906 17.3239 22.7906C17.5854 22.7906 17.8573 22.7906 18.1397 22.7704C18.4952 22.74 18.8822 22.7096 19.2796 22.669C19.5829 22.6386 19.8967 22.6184 20.2209 22.5778C20.9739 22.5069 21.821 22.3954 22.7413 22.2637C23.4943 22.1522 24.0695 22.0711 24.4774 22.0205C24.9481 21.9597 25.1886 21.9293 25.1991 21.9293C25.471 21.9495 25.6697 22.2029 25.7847 22.6893C25.8266 22.8717 25.8579 23.0744 25.8893 23.3176C25.9416 23.7432 25.9416 24.3107 25.9207 24.9998C25.9102 25.3443 25.8893 25.6585 25.8893 25.9321C25.8893 25.9625 25.8893 26.003 25.8893 26.0334C25.8893 26.2665 25.8788 26.4793 25.8579 26.6617C25.837 26.9454 25.8266 27.1684 25.8161 27.3204C25.8056 27.4825 25.7847 27.5839 25.7638 27.6345C25.8998 27.6649 26.0776 27.6953 26.2972 27.746C26.5168 27.7967 26.7469 27.8473 26.9874 27.898C27.228 27.9487 27.4581 27.9993 27.6881 28.0399C27.9182 28.0804 28.1065 28.1209 28.2738 28.1412L28.7758 27.5737H28.7444Z" fill="#EFC069"/>
<path d="M19.2795 22.6886L17.6479 21.8577C18.2232 21.807 18.882 21.7259 19.6246 21.6246C20.5345 21.503 21.5907 21.351 22.7935 21.1787L24.4877 22.0401C24.0798 22.0907 23.5046 22.1819 22.7516 22.2833C21.8208 22.415 20.9842 22.5265 20.2312 22.5974C19.907 22.6278 19.5932 22.6582 19.2899 22.6886H19.2795Z" fill="#F4C985"/>
<path d="M28.7961 27.533L25.8678 26.0433C25.8678 26.0433 25.8678 25.9825 25.8678 25.942C25.8678 25.6684 25.8887 25.3542 25.8991 25.0097C25.9305 24.3105 25.9201 23.7531 25.8678 23.3275C25.8469 23.0843 25.8155 22.8816 25.7632 22.6992L28.4301 24.0571C28.4301 24.199 28.4405 24.3611 28.451 24.5233C28.4719 24.7868 28.4824 24.9894 28.4928 25.1313C28.4928 25.2732 28.5033 25.3644 28.5033 25.3846C28.7961 25.2124 29.1517 25.0097 29.5387 24.7868C29.5909 24.7564 29.6432 24.726 29.6955 24.6956L31.829 25.7799C31.6199 25.8913 31.4212 25.9825 31.2224 26.0737C30.8459 26.246 30.5113 26.4081 30.208 26.5601C29.9047 26.7122 29.6328 26.8642 29.3922 27.0263C29.1726 27.1682 28.9634 27.3404 28.7752 27.533H28.7961Z" fill="#F4C985"/>
</g>
<defs>
<clipPath id="clip0_2124_3849">
<rect width="50" height="50" fill="white"/>
</clipPath>
</defs>
</svg>
