<svg width="50" height="50" viewBox="0 0 50 50" fill="none" xmlns="http://www.w3.org/2000/svg">
<path d="M45.1129 25.0001C45.1063 31.1978 42.8396 37.1571 38.7794 41.6511C34.7192 46.1451 29.1745 48.8319 23.2867 49.1583V49.1583C17.3909 48.8475 11.8342 46.1666 7.76583 41.6701C3.69748 37.1736 1.42871 31.2055 1.42871 25.0001C1.42871 18.7946 3.69748 12.8265 7.76583 8.33004C11.8342 3.83356 17.3909 1.15267 23.2867 0.841797V0.841797C29.1745 1.16823 34.7192 3.85499 38.7794 8.34901C42.8396 12.843 45.1063 18.8023 45.1129 25.0001V25.0001Z" fill="#F37721"/>
<path d="M50.0001 24.9996C49.9925 31.6263 47.4848 37.9794 43.0271 42.6653C38.5694 47.3511 32.5257 49.9872 26.2216 49.9952C25.8089 49.9952 25.3961 49.9952 24.9834 49.9648C31.0656 49.6276 36.7929 46.8502 40.9847 42.2053C45.1765 37.5604 47.5132 31.402 47.5132 24.9996C47.5132 18.5971 45.1765 12.4387 40.9847 7.7938C36.7929 3.14889 31.0656 0.371539 24.9834 0.0342775C25.3961 0.0125837 25.8089 0.00390625 26.2216 0.00390625C32.5261 0.0107976 38.5704 2.64647 43.0283 7.33257C47.4862 12.0187 49.9936 18.3724 50.0001 24.9996V24.9996Z" fill="#F37721"/>
<path d="M46.7021 18.392C46.0325 15.8273 44.9747 13.3926 43.5694 11.181C43.2227 10.63 42.8512 10.0963 42.4632 9.57566C40.3712 6.7642 37.7297 4.45727 34.717 2.8106C31.7044 1.16393 28.3907 0.215853 24.9998 0.0303721V0.0303721C24.587 0.00867823 24.1743 0 23.7615 0C18.2977 0.00509901 13.0022 1.98767 8.76539 5.61433C4.5286 9.241 1.60896 14.2906 0.497395 19.914C-0.61417 25.5373 0.150138 31.3916 2.66181 36.4923C5.17348 41.5929 9.27933 45.629 14.2889 47.9217C14.8613 48.1849 15.4474 48.4236 16.0472 48.6376C18.4384 49.505 20.9473 49.9607 23.4767 49.987H23.7533C24.166 49.987 24.5788 49.987 24.9915 49.9566C28.5424 49.7621 32.0066 48.7332 35.1294 46.9457C38.2521 45.1582 40.9539 42.6576 43.0359 39.6277C45.118 36.5978 46.5274 33.1157 47.1604 29.4378C47.7935 25.7598 47.634 21.9794 46.6939 18.3747L46.7021 18.392ZM27.0223 45.1926C26.3516 45.3148 25.675 45.3973 24.9957 45.4399C24.5912 45.466 24.1784 45.479 23.7574 45.479C22.103 45.4813 20.4552 45.2611 18.8539 44.8238C18.232 44.6554 17.6189 44.4527 17.0172 44.2164C12.7132 42.5351 9.10774 39.3179 6.83055 35.1267C5.14424 32.0135 4.26487 28.4895 4.28033 24.9071C4.2958 21.3247 5.20558 17.8092 6.9187 14.7123C8.63183 11.6153 11.0883 9.0453 14.0425 7.25916C16.9968 5.47302 20.3452 4.53332 23.7533 4.53402C24.166 4.53402 24.5788 4.53401 24.9915 4.5774C26.2761 4.66044 27.5496 4.87847 28.7929 5.22822C33.2283 6.47739 37.1027 9.3303 39.7349 13.2853C40.1041 13.845 40.4458 14.4243 40.7585 15.0208C42.1085 17.541 42.9303 20.3354 43.169 23.2168C43.2185 23.8112 43.2433 24.4099 43.2433 25.0217C43.2349 29.8543 41.6027 34.5284 38.6347 38.2191C35.6668 41.9097 31.554 44.3795 27.0223 45.1926V45.1926Z" fill="#F8BE58"/>
<path d="M43.2428 25.0004C43.237 30.246 41.3182 35.2896 37.8814 39.0928C34.4446 42.896 29.7514 45.1693 24.7682 45.4447C19.7862 45.1695 15.0945 42.8953 11.6607 39.091C8.2268 35.2868 6.3125 30.2425 6.3125 24.9982C6.3125 19.754 8.2268 14.7097 11.6607 10.9054C15.0945 7.1011 19.7862 4.82691 24.7682 4.55176V4.55176C29.7518 4.82821 34.445 7.10246 37.8817 10.9064C41.3184 14.7103 43.2371 19.7544 43.2428 25.0004V25.0004Z" fill="#EEAB1F"/>
<path d="M17.0293 44.2167L14.2969 47.935C10.1411 46.0206 6.58932 42.9025 4.05664 38.9451L6.85921 35.127C9.13229 39.3151 12.7314 42.5319 17.0293 44.2167V44.2167Z" fill="#FDC87B"/>
<path d="M42.464 9.57604L39.7357 13.2857C37.1059 9.32826 33.2329 6.47224 28.7979 5.21992L31.6045 1.39746C35.8915 2.98072 39.6591 5.81821 42.464 9.57604V9.57604Z" fill="#FDC87B"/>
<path d="M27.022 45.1925L23.493 49.9999C20.9635 49.9736 18.4547 49.518 16.0635 48.6505L18.8743 44.8237C20.4755 45.261 22.1234 45.4812 23.7778 45.4789C24.1905 45.4789 24.6033 45.4659 25.016 45.4398C25.6885 45.3964 26.3582 45.3139 27.022 45.1925Z" fill="#FDC87B"/>
<path d="M46.7014 18.3924L43.1683 23.204C42.9279 20.3272 42.1061 17.5374 40.7578 15.0211L43.5686 11.1943C44.9728 13.4019 46.0305 15.8322 46.7014 18.3924V18.3924Z" fill="#FDC87B"/>
<path d="M24.0547 11.9834L24.8389 11.4497L24.9173 11.7838L24.1455 12.1135L24.0547 11.9834Z" fill="#F37721"/>
<path d="M34.0967 19.3598C34.0967 19.7677 33.8408 20.6962 33.3372 22.1497C32.8337 23.6031 32.4416 24.4318 32.2022 24.5143C31.9247 24.5911 31.6388 24.6291 31.3519 24.6271C31.1951 24.6271 31.0217 24.6271 30.8277 24.6271C30.06 24.6271 28.9084 24.5794 27.3813 24.4796C25.8541 24.3798 24.7067 24.3321 23.9348 24.3321C22.2838 24.3321 21.4005 24.536 21.2602 24.9351C21.2602 24.9351 21.2602 24.9351 21.2602 24.9655C21.2065 25.1651 21.4336 26.4364 21.9371 28.7923C22.3778 30.5682 22.6978 32.3748 22.8947 34.1984C22.9825 35.8202 22.7867 37.4452 22.3168 38.9928C22.0114 39.969 21.7514 40.5243 21.545 40.6545L20.3852 41.1621L20.3274 41.1882C20.3645 40.9973 21.19 36.5414 21.0456 35.4263C20.6327 32.3657 20.0484 29.3334 19.2955 26.3452C19.2391 26.1024 19.2113 25.8533 19.213 25.6033C19.2666 24.4627 19.5316 23.3441 19.993 22.3102C20.1705 21.8763 19.5803 21.5075 19.8032 21.1821C20.0364 20.8547 20.3426 20.5925 20.6947 20.4185V20.4185C21.1047 20.1906 21.5346 20.0047 21.9784 19.8631C22.2425 19.7763 23.3735 19.7373 25.3629 19.7373H26.4402H27.1295C27.955 19.7026 28.3677 19.6158 28.3677 19.4683C28.3677 19.0489 27.9165 18.2853 27.0139 17.1774C26.11 16.071 25.462 15.5113 25.0616 15.4983C24.3471 15.5043 23.6483 15.7191 23.0433 16.1188C22.4414 16.3043 21.8705 16.5868 21.351 16.9561C20.4512 17.5578 19.9408 17.8904 19.8197 17.9541H19.7949C19.742 17.959 19.6892 17.9436 19.6463 17.9107C19.6291 17.8954 19.6156 17.876 19.6069 17.8541C19.5983 17.8322 19.5948 17.8085 19.5968 17.7849C19.595 17.769 19.595 17.753 19.5968 17.7371C19.6917 17.1991 21.2478 15.1339 23.2084 12.4872C23.332 12.3048 23.4731 12.1361 23.6294 11.9839C24.5133 11.2757 25.593 10.8903 26.7044 10.8862C27.0481 10.8709 27.3913 10.9287 27.7133 11.0562C28.0353 11.1836 28.3295 11.3782 28.5782 11.6281C28.9208 11.9796 29.5482 12.9992 30.448 14.6913L32.0453 17.672C32.3754 18.2507 32.8416 18.7304 33.3992 19.0648C33.6097 19.1516 33.8408 19.2514 34.0967 19.3598Z" fill="#F37721"/>
<path d="M20.6992 20.6393L21.6568 20.0015L21.76 20.5308L20.8024 20.956L20.6992 20.6393Z" fill="#F37721"/>
<path d="M32.2517 24.4966L31.0176 25.0433L31.4799 23.8154H32.3879L32.2517 24.4966Z" fill="#F37721"/>
<path d="M32.2145 19.5894C31.8521 19.3826 31.5312 19.1042 31.2693 18.7694C31.118 18.5899 30.98 18.3984 30.8565 18.1967L29.2633 15.216C28.929 14.5912 28.6318 14.0619 28.3759 13.6193C28.0946 13.097 27.7641 12.6057 27.3894 12.1528C27.1404 11.9036 26.846 11.7099 26.524 11.5831C26.2021 11.4564 25.859 11.3993 25.5155 11.4152C24.8474 11.4063 24.1915 11.6039 23.6293 11.9836C23.2138 12.2742 22.8494 12.6383 22.552 13.0596C20.5983 15.6889 19.5912 17.2566 19.5307 17.7628C19.527 17.7785 19.527 17.7949 19.5307 17.8106C19.5284 17.8346 19.5322 17.8589 19.5416 17.881C19.551 17.903 19.5657 17.9221 19.5843 17.9364C19.6272 17.9693 19.68 17.9847 19.7329 17.9798H19.7577C19.8788 17.919 20.3892 17.5864 21.289 16.9818C21.8085 16.6125 22.3794 16.33 22.9813 16.1445C23.2497 16.0656 23.5283 16.032 23.8068 16.0447C24.1782 16.0447 24.7685 16.5436 25.5816 17.5112C25.6394 17.5806 25.6972 17.6544 25.7591 17.7238C26.3074 18.3179 26.753 19.008 27.0757 19.763C27.1018 19.8441 27.1157 19.929 27.117 20.0146C27.117 20.2012 26.4773 20.2923 25.2019 20.2923H23.5798C22.6315 20.2551 21.682 20.2972 20.74 20.4182L20.641 20.4529C19.9145 20.7392 19.283 21.5462 18.7547 22.8609C18.294 23.8966 18.0291 25.0165 17.9746 26.1583C17.9739 26.408 18.0002 26.6569 18.053 26.9003C18.1191 27.1693 18.1851 27.4426 18.247 27.7073C18.8772 30.3539 19.3491 32.7547 19.6628 34.9096C19.7164 35.2741 19.766 35.6342 19.8114 35.9813C19.9558 37.1224 20.0549 38.3459 20.1085 39.6606C20.0823 40.1845 20.1225 40.7098 20.2282 41.2226C20.2431 41.227 20.2588 41.227 20.2736 41.2226L20.3314 41.1965C20.5378 41.0577 20.7937 40.5067 21.0991 39.5348C21.5687 37.9946 21.7645 36.3768 21.677 34.7621C21.6181 34.0115 21.5161 33.2653 21.3716 32.5277C21.2147 31.6599 20.9973 30.6027 20.7194 29.356C20.2158 27.0044 19.9902 25.7288 20.0425 25.5292C20.1127 25.2559 20.5089 25.0953 21.2395 24.9782C21.7353 24.917 22.2344 24.8894 22.7336 24.8958C23.5013 24.8958 24.6529 24.9435 26.1759 25.0433L26.7249 25.0823C27.9632 25.1518 28.9496 25.1951 29.6142 25.1951C30.0758 25.2194 30.5385 25.1756 30.9886 25.065C31.0794 25.0303 31.1909 24.8958 31.3229 24.6571C31.6388 24.0282 31.9066 23.3739 32.1237 22.7003C32.6313 21.2512 32.8831 20.3184 32.8831 19.9105C32.6602 19.7934 32.425 19.6719 32.2145 19.5894Z" fill="#F8BE58"/>
<path d="M31.2689 18.7696L26.7575 25.0565L26.2086 25.0217C24.6814 24.9205 23.5326 24.8713 22.7621 24.8742C21.0781 24.8742 20.1824 25.0854 20.0751 25.5077C20.0228 25.7015 20.2485 26.9756 20.752 29.3301C21.0244 30.5754 21.2432 31.634 21.4 32.5018L19.6706 34.9098C19.3528 32.7404 18.8864 30.3541 18.2549 27.7074L23.5793 20.2925H25.2015C26.4727 20.2925 27.1125 20.2014 27.1125 20.0191C27.1125 19.5939 26.6612 18.8303 25.7587 17.7283L25.5812 17.5113L28.3796 13.6064C28.6355 14.0403 28.9327 14.5783 29.267 15.2031L30.8561 18.1838C30.9791 18.39 31.1171 18.5858 31.2689 18.7696V18.7696Z" fill="#FDC87B"/>
</svg>
