<svg width="50" height="50" viewBox="0 0 50 50" fill="none" xmlns="http://www.w3.org/2000/svg">
<path d="M47.7351 38.8509H1.24758C0.796838 38.8509 0.251274 38.5394 0.1429 38.0689C-0.0270504 37.3362 0.603489 37.3276 1.19955 37.1133C2.62811 36.6022 4.06407 36.1108 5.50618 35.6391C5.90027 35.5098 6.30297 35.3818 6.718 35.3879C7.01602 35.3916 7.30666 35.4655 7.59484 35.5382C8.88055 35.8645 10.2377 36.3768 11.5419 36.5074C12.5345 36.6071 13.5911 36.5074 14.5899 36.5074H42.7548C44.0048 36.5074 48.5245 35.7795 48.9075 37.7697C49.0208 38.3596 48.2191 38.8497 47.7375 38.8497L47.7351 38.8509Z" fill="#DFE6DE"/>
<path d="M33.7808 26.6061C33.7229 26.9719 33.2722 27.2391 32.9274 27.2046C32.9175 27.5581 32.8941 27.8438 32.7771 28.1775C32.7131 28.361 32.6454 28.5507 32.5111 28.6923C32.3449 28.8684 32.1675 28.9275 31.9853 28.9583C31.7895 28.9928 31.5875 28.994 31.3855 29.0753C30.9606 29.2428 30.638 29.7354 30.3129 30.0507C29.5271 30.8118 28.6626 31.5162 27.6491 31.9472C26.904 32.2637 26.1011 32.4238 25.2944 32.4706C22.3486 32.6443 19.5087 31.2613 17.4447 29.2256C16.9521 28.7391 16.3388 28.1628 16.0247 27.5359C15.7489 26.9842 15.9201 26.5495 16.0826 25.9867C16.1996 25.584 16.3166 25.1812 16.4361 24.7798C16.8277 23.4559 17.2341 22.1357 17.6713 20.8254C18.0272 19.7576 19.0333 18.8414 20.138 18.6098C20.1848 18.5988 20.2304 18.5901 20.2772 18.584H29.3831C29.8794 18.584 30.2722 18.6924 30.7094 18.9214C31.005 19.0754 31.3042 19.2355 31.5284 19.4818C32.287 20.3143 32.4126 21.5249 32.6614 22.5741C32.8843 23.515 33.2106 24.4263 33.4754 25.3549C33.5727 25.696 33.835 26.2601 33.7821 26.6061H33.7808Z" fill="#79A3D2"/>
<path d="M19.3301 21.2492C18.7242 22.1988 18.1183 23.1458 17.5124 24.0941C17.3462 24.3551 17.1602 24.631 16.872 24.7455C16.7316 24.801 16.5814 24.8083 16.4336 24.7813C16.8252 23.4574 17.2316 22.1372 17.6688 20.8268C18.0247 19.7591 19.0309 18.8429 20.1355 18.6113C20.5173 19.3268 19.7747 20.5522 19.3289 21.2505L19.3301 21.2492Z" fill="#6084BB"/>
<path d="M30.4211 27.8561L24.9483 31.0211L19.8325 27.8561L19.883 25.5027L19.9212 23.6677C19.9212 23.6677 21.2081 20.9904 20.2746 18.584L29.5997 18.5914C29.3239 20.2355 29.3436 23.3143 30.0911 24.8032L30.3078 25.1714L30.4199 27.8573L30.4211 27.8561Z" fill="#E8B658"/>
<path d="M30.4213 27.8563L24.9484 31.0213C24.9484 31.0213 19.8339 27.8563 19.8327 27.8563C19.7502 27.8045 19.8327 26.4659 19.8906 26.4289C20.393 26.1001 21.5556 26.8661 21.9841 27.1075C22.297 27.2836 22.5974 27.4806 22.8881 27.6912C23.2231 27.9326 23.313 28.1518 23.6492 27.8489C23.5777 27.7282 23.5051 27.6087 23.4336 27.488C25.0297 25.9363 27.1381 24.9179 29.3462 24.6321C29.6553 24.5927 29.978 24.5681 30.2686 24.6814C30.7538 24.8711 31.0346 25.4708 30.8683 25.9634C30.7883 26.2023 30.622 26.4031 30.5087 26.6297C30.4349 26.775 30.4669 27.8304 30.4213 27.8575V27.8563Z" fill="#E69A24"/>
<path d="M23.2156 19.2073C23.2439 19.7159 23.074 20.1346 23.1023 20.642C23.4459 19.9905 24.271 19.5644 24.9989 19.6691C24.4447 19.2812 23.8893 19.2553 23.2156 19.2061V19.2073Z" fill="#E69A24"/>
<path d="M22.7847 15.2257C22.7059 15.1986 22.6259 15.1666 22.5643 15.1111C22.4584 15.0175 22.4177 14.8587 22.4633 14.7257C22.5089 14.5927 22.6419 14.4941 22.7823 14.4868C22.8783 14.4818 22.8094 14.5212 22.9042 14.5065" fill="#A94948"/>
<path d="M22.7157 13.2084C22.297 12.9966 22.1467 12.4264 22.3142 11.988C22.4817 11.5496 22.898 11.2442 23.3413 11.0902C23.5704 11.0114 23.8191 10.9671 24.0556 11.0176C24.5051 11.1149 24.8105 11.5225 25.0568 11.9104C25.0359 11.8144 25.0876 11.8415 25.1541 11.7688C25.2206 11.6961 25.3117 11.6506 25.4016 11.6112C25.5691 11.5397 25.7539 11.4892 25.9337 11.5163C26.127 11.5459 26.3043 11.6678 26.4004 11.839C26.4965 12.0102 26.5088 12.2245 26.4324 12.4055C26.6344 12.7072 27.1418 12.5853 27.3511 12.8821C27.478 13.0619 27.4103 13.3168 27.2834 13.4954C27.1566 13.674 26.9755 13.8107 26.8511 13.9905C26.7354 14.158 26.6837 14.2466 26.6418 14.4461C26.5999 14.6456 26.5901 14.8501 26.5408 15.0471C26.4915 15.2442 26.3906 15.44 26.2157 15.5434C26.0814 15.6222 25.8795 15.3587 25.8216 15.2146C25.6024 14.6629 25.7169 14.036 25.5938 13.4548C25.5716 13.3476 25.5383 13.2392 25.4718 13.153C25.3425 12.9868 25.1135 12.9351 24.9029 12.9412C24.5814 12.9498 24.2649 13.0681 24.0174 13.2713C23.877 13.3858 23.7539 13.5299 23.5864 13.5988C23.2416 13.7405 23.047 13.3747 22.7145 13.2072L22.7157 13.2084Z" fill="#15123E"/>
<path d="M26.6367 18.584L24.9876 19.6702L23.2586 18.584H23.5615V17.4473C22.8091 17.2046 22.8091 16.5064 22.8091 16.5064V12.7921C22.8091 12.7921 24.0677 13.1406 24.8842 12.7921C25.6995 12.4436 25.8423 12.7921 25.8423 12.7921L25.9248 14.5076L26.149 14.4867C26.4137 14.1603 26.9236 14.3648 26.9445 14.7724C26.9655 15.18 26.3891 15.2404 26.3891 15.2404L26.4593 18.5827H26.6379L26.6367 18.584Z" fill="#BB6A64"/>
<path d="M23.5898 15.4634C23.7598 15.5743 24.0233 15.5681 24.2044 15.4856C24.3386 15.424 24.4938 15.2504 24.5086 15.0977" fill="#BB6A64"/>
<path d="M23.5898 15.4634C23.7598 15.5743 24.0233 15.5681 24.2044 15.4856C24.3386 15.424 24.4938 15.2504 24.5086 15.0977" stroke="#15123E" stroke-width="0.2" stroke-linecap="round" stroke-linejoin="round"/>
<path d="M24.355 13.4189C24.5459 13.292 24.818 13.3019 24.9978 13.4435Z" fill="#BB6A64"/>
<path d="M24.355 13.4189C24.5459 13.292 24.818 13.3019 24.9978 13.4435" stroke="#15123E" stroke-width="0.2" stroke-linecap="round" stroke-linejoin="round"/>
<path d="M23.0444 13.4755C23.2353 13.3486 23.3696 13.3585 23.5506 13.5001Z" fill="#BB6A64"/>
<path d="M23.0444 13.4755C23.2353 13.3486 23.3696 13.3585 23.5506 13.5001" stroke="#15123E" stroke-width="0.2" stroke-linecap="round" stroke-linejoin="round"/>
<path d="M24.6764 14.6507C24.7472 14.6507 24.8045 14.5933 24.8045 14.5226C24.8045 14.4519 24.7472 14.3945 24.6764 14.3945C24.6057 14.3945 24.5483 14.4519 24.5483 14.5226C24.5483 14.5933 24.6057 14.6507 24.6764 14.6507Z" fill="#15123E"/>
<path d="M23.3659 14.6507C23.4366 14.6507 23.4939 14.5933 23.4939 14.5226C23.4939 14.4519 23.4366 14.3945 23.3659 14.3945C23.2951 14.3945 23.2378 14.4519 23.2378 14.5226C23.2378 14.5933 23.2951 14.6507 23.3659 14.6507Z" fill="#15123E"/>
<path d="M24.7685 15.0595C25.1657 15.0595 25.4877 14.7375 25.4877 14.3403C25.4877 13.9431 25.1657 13.6211 24.7685 13.6211C24.3713 13.6211 24.0493 13.9431 24.0493 14.3403C24.0493 14.7375 24.3713 15.0595 24.7685 15.0595Z" stroke="white" stroke-width="0.2" stroke-miterlimit="10"/>
<path d="M23.1299 15.0595C23.5271 15.0595 23.8491 14.7375 23.8491 14.3403C23.8491 13.9431 23.5271 13.6211 23.1299 13.6211C22.7326 13.6211 22.4106 13.9431 22.4106 14.3403C22.4106 14.7375 22.7326 15.0595 23.1299 15.0595Z" stroke="white" stroke-width="0.2" stroke-miterlimit="10"/>
<path d="M23.867 13.6211C23.7993 14.1149 23.7217 14.6075 23.6367 15.0989C23.7993 15.1149 23.9655 15.1445 24.1281 15.1285" fill="#BB6A64"/>
<path d="M23.867 13.6211C23.7993 14.1149 23.7217 14.6075 23.6367 15.0989C23.7993 15.1149 23.9655 15.1445 24.1281 15.1285" stroke="#15123E" stroke-width="0.2" stroke-linecap="round" stroke-linejoin="round"/>
<path d="M24.5041 17.5188C24.2344 17.8279 23.913 18.1062 23.562 18.3341V17.4634C23.86 17.5779 24.195 17.5988 24.5041 17.5188Z" fill="#A94948"/>
<path d="M26.2109 14.6861C26.2984 14.6085 26.4031 14.526 26.5188 14.5396C26.6087 14.5506 26.6863 14.6245 26.7011 14.7132C26.7159 14.8019 26.6654 14.8979 26.5841 14.9361" stroke="#A94948" stroke-width="0.2" stroke-linecap="round" stroke-linejoin="round"/>
<path d="M23.1062 20.6421C23.1284 19.9266 22.9905 19.1705 22.6567 18.5375C22.9597 18.455 23.3033 18.3023 23.5484 18.1064C24.0397 18.6532 24.5373 19.1951 25.041 19.7308C24.9092 19.6545 24.6432 19.6298 24.4905 19.6261C24.1949 19.6188 23.8907 19.6557 23.6309 19.7973C23.371 19.939 23.1149 20.3466 23.1038 20.6421H23.1062Z" fill="#79A3D2"/>
<path d="M26.771 19.2073C26.7427 19.7159 26.9127 20.1346 26.8843 20.642C26.5407 19.9905 25.7156 19.5644 24.9878 19.6691C25.542 19.2812 26.0974 19.2553 26.771 19.2061V19.2073Z" fill="#E69A24"/>
<path d="M26.8844 20.6421C26.8623 19.9266 27.0002 19.1705 27.3339 18.5375C27.031 18.455 26.6874 18.3023 26.4423 18.1064C25.9509 18.6532 25.4534 19.1951 24.9497 19.7308C25.0815 19.6545 25.3475 19.6298 25.5002 19.6261C25.7958 19.6188 26.0999 19.6557 26.3598 19.7973C26.6197 19.939 26.8758 20.3466 26.8869 20.6421H26.8844Z" fill="#79A3D2"/>
<path d="M36.69 29.5322C36.3107 30.2834 35.4757 30.6701 34.7011 30.9989C33.791 31.3868 32.8796 31.7723 31.9671 32.1553C30.8119 32.6405 29.6469 33.1245 28.4191 33.3733C26.8932 33.6812 25.3107 33.6147 23.7849 33.9201C23.1174 34.0531 22.4536 34.2575 21.7725 34.2514C21.1826 34.2464 20.6063 34.0826 20.0509 33.8831C18.6186 33.3671 17.2775 32.5974 16.1088 31.6208C15.3945 31.0248 14.7307 30.3326 14.3354 29.4891C13.9548 28.6726 13.8625 27.7649 14.1778 27.0001C14.3231 26.6442 14.5571 26.3203 14.8883 26.0482C15.1987 25.7945 15.5263 25.6208 15.8649 25.5149C17.1482 25.1061 18.5792 25.6356 19.7615 26.2637C19.8526 26.3117 19.94 26.3598 20.0275 26.409C20.8809 26.8856 21.6913 27.4373 22.4524 28.0494C22.8193 28.3437 23.1716 28.6492 23.5152 28.9694C23.5398 28.9915 23.5632 29.0137 23.5866 29.0359C23.7886 29.2243 24.8169 30.0925 24.8169 30.0925C24.8169 30.0925 25.7011 29.2551 25.9314 29.0679C26.36 28.7206 26.7935 28.3782 27.2319 28.042C27.4671 27.8622 27.7085 27.6763 27.956 27.4928C29.376 26.4361 31.0065 25.3979 32.7848 25.292C33.0003 25.2785 33.2183 25.2797 33.44 25.2957C33.6998 25.3154 33.9264 25.3598 34.1284 25.4287C34.3686 25.5088 34.5742 25.6208 34.7614 25.7612C35.1703 26.063 35.4831 26.4928 35.8501 26.9804C36.4412 27.7637 37.2442 28.4336 36.6887 29.5309L36.69 29.5322Z" fill="#79A3D2"/>
<path d="M19.7611 26.2637C19.6293 26.4423 19.4865 26.6135 19.3338 26.7773C18.7143 27.4435 17.4027 27.5839 16.6466 27.0938C16.0604 26.7132 15.8252 26.1394 15.8633 25.515C17.1466 25.1061 18.5776 25.6357 19.7599 26.2637H19.7611Z" fill="#6084BB"/>
<path d="M28.0656 27.7195C28.435 27.5421 28.8205 27.3919 29.2244 27.2712C29.1949 27.2145 29.1099 27.2096 29.0557 27.2453C29.0015 27.281 28.9744 27.3439 28.9498 27.403C28.6345 28.1419 28.3599 28.8993 28.0262 29.6308C27.8956 29.9165 27.8772 30.1579 27.5693 30.2909C27.2565 30.4251 26.9104 30.4325 26.5939 30.5495C26.2762 30.6665 25.9683 30.8352 25.6592 30.9744C25.5878 30.8328 25.4794 30.7108 25.3476 30.6234C24.9855 30.8586 24.6789 31.1603 24.4252 31.5089C24.2786 31.7096 24.0003 32.1997 23.7011 31.9879C23.3821 31.7638 23.408 31.1973 23.4215 30.8574C23.4474 30.2281 23.4782 29.5988 23.5151 28.9719C23.5397 28.9941 23.5631 29.0163 23.5865 29.0384C23.7885 29.2268 24.8168 30.0951 24.8168 30.0951C25.8033 29.1603 26.8501 28.3032 28.0643 27.7219L28.0656 27.7195Z" fill="#6084BB"/>
<path d="M32.6555 28.7785C32.7762 28.6972 32.8932 28.6098 33.004 28.5199L32.4646 28.9484C32.5286 28.8943 32.5927 28.8388 32.653 28.781C32.2146 29.0802 31.722 29.3216 31.2134 29.441C31.8612 28.9805 32.4658 28.3844 32.6789 27.6184C32.8882 26.8672 32.6937 26.063 32.7848 25.2896C33.0003 25.276 33.2183 25.2773 33.44 25.2933C33.6998 25.313 33.9264 25.3573 34.1284 25.4263C34.1062 26.6763 33.5668 27.9164 32.6555 28.776V28.7785Z" fill="#6084BB"/>
<path d="M23.4175 19.0076C23.3325 19.3191 23.2192 19.6233 23.1108 19.909C23.064 20.0359 22.968 20.0556 22.8362 20.0285C22.5899 19.9768 22.3682 19.8401 22.1638 19.6935C21.9754 19.5581 21.7906 19.4054 21.6761 19.2034C21.5628 19.0014 21.5998 18.6652 21.7574 18.494C21.7919 18.4571 21.8227 18.4189 21.8485 18.3807C22.0394 18.1012 22.0197 17.7871 21.9594 17.4571C21.8805 17.0137 21.8301 16.5642 21.7537 16.1197C21.7451 16.0692 21.6453 15.5408 21.7611 15.5605C21.7869 15.5655 21.8042 15.5913 21.8165 15.6135C21.9064 15.7687 21.9741 15.9349 22.0172 16.1073C21.9963 16.0224 21.9384 15.6135 22.0308 15.5642C22.1909 15.4793 22.3116 16.0901 22.3571 16.1874C22.3227 16.1147 22.2943 15.5741 22.4433 15.6825C22.4544 15.6911 22.4618 15.7034 22.4692 15.7157C22.5419 15.8413 22.5702 15.9386 22.6158 16.0765C22.6613 16.2219 22.7069 16.366 22.7525 16.5113C22.718 16.4017 22.7266 16.2539 22.7106 16.1394C22.7044 16.0926 22.7131 15.8413 22.8202 15.93C22.9286 16.0199 22.936 16.1862 22.9618 16.3155C22.9975 16.4928 23.0616 16.643 23.1613 16.7958C23.2808 16.978 23.3929 17.111 23.4483 17.3253C23.5936 17.8857 23.5702 18.4522 23.4175 19.0063V19.0076Z" fill="#BB6A64"/>
<path d="M23.4175 19.0077C23.3325 19.3193 23.2192 19.6235 23.1108 19.9092C23.064 20.036 22.968 20.0557 22.8362 20.0286C22.5899 19.9769 22.3682 19.8402 22.1638 19.6937C21.9754 19.5582 21.7906 19.4055 21.6761 19.2035C21.5628 19.0015 21.5998 18.6653 21.7574 18.4942C21.7919 18.4572 21.8227 18.419 21.8485 18.3809C22.3941 18.5274 22.9212 18.738 23.4187 19.0077H23.4175Z" fill="#A94948"/>
<path d="M19.6763 26.3167C21.244 24.467 22.531 22.132 23.5149 19.9165C22.9189 19.0249 21.8302 18.3992 20.7896 18.1406C19.8696 18.9547 19.0482 19.8771 18.3426 20.8832C17.6689 21.8426 17.1935 22.898 16.5753 23.8832C16.1049 24.6332 15.7859 25.8647 16.664 26.4657C16.9879 26.6874 17.3401 26.8783 17.7206 26.9743C18.4127 27.1492 19.2095 26.8684 19.6763 26.3179V26.3167Z" fill="#79A3D2"/>
<path d="M22.9336 16.2344C22.9656 16.4388 23.0383 16.6568 23.1405 16.8366C23.2686 17.0607 23.4434 17.2282 23.4693 17.5016" stroke="#A94948" stroke-width="0.2" stroke-linecap="round" stroke-linejoin="round"/>
<path d="M25.7614 29.4425C25.5743 29.8809 25.1629 30.1703 24.7898 30.4671C24.7738 30.4807 24.7553 30.4942 24.7393 30.5078C24.5201 30.6851 24.3058 30.8846 24.158 31.1284C24.0041 31.3834 24.0287 31.6358 23.9388 31.9068C23.924 31.9523 23.9868 32.0853 23.9425 32.0669C23.594 31.9228 23.2873 31.6752 23.073 31.3661C22.9757 31.2257 22.8415 30.9893 22.8538 30.8206C22.9006 30.1223 23.1248 29.4376 23.5004 28.8464C23.6457 28.6174 23.8218 28.3969 24.0348 28.2319C24.1408 28.1482 24.2578 28.0792 24.3834 28.0299C24.7935 27.8698 25.4523 27.924 25.7516 28.2467C26.0508 28.5693 25.9339 29.0336 25.7614 29.4388V29.4425Z" fill="#BB6A64"/>
<path d="M25.7615 29.4425C25.5743 29.8809 25.163 30.1703 24.7898 30.4671C24.7738 30.4806 24.7553 30.4942 24.7393 30.5077C24.2701 29.8513 24.0139 29.041 24.0349 28.2344C24.1408 28.1506 24.2578 28.0816 24.3834 28.0324C24.7935 27.8723 25.4524 27.9265 25.7516 28.2491C26.0509 28.5718 25.9339 29.0361 25.7615 29.4412V29.4425Z" fill="#A94948"/>
<path d="M32.5918 27.6901C30.4502 28.9782 27.8603 29.8982 25.4428 30.5324C24.6349 29.7775 24.1793 28.5657 24.0894 27.4647C25.0696 26.6642 26.146 25.9807 27.2852 25.4302C28.4243 24.8797 29.5253 24.5953 30.63 24.131C31.4711 23.7775 32.7765 23.6581 33.242 24.6507C33.4144 25.0177 33.5499 25.4068 33.5844 25.8095C33.6472 26.5435 33.2297 27.3071 32.5918 27.6901Z" fill="#79A3D2"/>
<path d="M49.9988 33.3892C49.8313 33.9988 48.7746 35.3055 48.4631 35.856L42.2069 35.7858H42.154L23.0383 35.5678C23.0383 35.5678 23.0383 35.5666 23.0371 35.5678L22.8659 35.5653H22.8646L1.11596 35.3178C0.77606 35.005 0.519903 34.6171 0.341333 34.191C0.304387 34.106 0.272368 34.0222 0.242811 33.9348C0.140595 33.6392 0.072861 33.3301 0.0346838 33.0198C-0.0256608 32.5259 -0.00472494 32.037 0.077787 31.5567C0.0913338 31.4779 0.107344 31.3979 0.123353 31.3203C0.218181 30.872 0.361037 30.4311 0.538376 29.9976C1.57285 31.5617 4.08639 31.5136 5.60978 30.8769C7.80805 29.9582 9.76494 28.5026 12.0322 27.7489C13.1849 27.3659 14.3795 27.0531 15.5987 27.005C17.1122 26.9472 18.6639 27.1935 20.058 27.7821C20.6651 28.0383 21.3055 28.5161 21.8412 28.8967C22.5654 29.4114 23.2095 30.0531 23.6861 30.8067C23.904 31.1516 24.0617 31.505 24.3104 31.8215C24.5715 32.1528 24.8979 32.436 25.0765 32.8264C25.8252 31.292 26.8819 29.872 28.2353 28.8203C30.2168 27.2784 32.8166 26.6651 35.2882 27.0284C37.8547 27.4053 39.7402 29.1627 42.0604 30.1294C44.4631 31.1294 46.9495 31.6602 49.3645 30.3018C49.7401 31.0223 49.8608 31.9287 49.6884 32.723C49.6576 32.8658 49.4828 32.8486 49.3867 32.9582C49.3682 32.9791 49.3485 33.0025 49.3448 33.0296C49.3448 33.0333 49.3448 33.0383 49.3461 33.042C49.3473 33.074 49.3658 33.1023 49.3867 33.1269C49.5357 33.3018 49.7697 33.4016 50 33.3868L49.9988 33.3892Z" fill="#FCDFB1"/>
<path d="M49.6861 32.7253C49.6553 32.8681 49.4804 32.8509 49.3843 32.9605C49.3659 32.9814 49.3462 33.0048 49.3425 33.0319C49.3425 33.0356 49.3425 33.0405 49.3437 33.0442C49.2033 33.0689 49.0629 33.0898 48.9213 33.1058C48.5346 33.1477 48.1467 33.1612 47.76 33.1551C47.3733 33.144 46.9878 33.1107 46.6048 33.0602C46.2218 33.0073 45.8437 32.9371 45.4669 32.8521C43.9607 32.5134 42.5334 31.9359 41.1024 31.4051C39.6726 30.8731 38.2169 30.3681 36.6984 30.1883C36.3191 30.1452 35.9386 30.1181 35.5568 30.1144C35.175 30.1144 34.7933 30.1329 34.414 30.1797C34.0359 30.2314 33.6603 30.3066 33.2945 30.4125C32.9287 30.5245 32.5728 30.6674 32.2305 30.8386C32.5704 30.6625 32.925 30.5147 33.2896 30.3977C33.6566 30.2868 34.0322 30.2043 34.4103 30.1477C34.7896 30.096 35.1726 30.0713 35.5568 30.0664C35.9398 30.0664 36.324 30.0873 36.7058 30.1255C38.2366 30.2856 39.707 30.7745 41.1455 31.2868C42.5863 31.8004 44.0161 32.3558 45.5075 32.6686C45.8807 32.745 46.255 32.8115 46.6319 32.857C47.0087 32.9014 47.3868 32.9285 47.7649 32.9334C48.143 32.9346 48.5198 32.9161 48.8942 32.8706C49.1614 32.8336 49.4262 32.7856 49.6861 32.7228V32.7253Z" fill="#E8B658"/>
<path d="M27.9323 35.3177H24.7869L24.1108 34.4914L26.8202 30.4434L27.9323 35.3177Z" fill="#E8B658"/>
<path d="M29.627 35.4226C30.6036 34.8265 31.6393 34.3081 32.7439 33.9682C33.2944 33.7958 33.8622 33.6726 34.4348 33.595C35.0087 33.5199 35.59 33.4977 36.1676 33.5199C37.324 33.5729 38.4717 33.8142 39.5456 34.2366C40.6207 34.6566 41.6232 35.26 42.4828 36.0187C41.5629 35.3364 40.5444 34.8031 39.4779 34.4214C38.4089 34.0433 37.287 33.8179 36.1577 33.7711C35.0272 33.7182 33.8929 33.8549 32.7994 34.1554C31.7045 34.4583 30.6516 34.9103 29.6282 35.4214L29.627 35.4226Z" fill="#E8B658"/>
<path d="M20.8192 30.5777C20.0827 29.9459 19.1677 29.553 18.2256 29.3634C17.2798 29.17 16.3007 29.1774 15.3488 29.3252C14.3956 29.4718 13.467 29.7464 12.5594 30.074C11.6505 30.4003 10.7613 30.7772 9.86357 31.1355C8.96579 31.4951 8.05569 31.8338 7.11481 32.0801C6.64437 32.2033 6.16777 32.303 5.68501 32.3683C5.20102 32.4311 4.71334 32.4619 4.22566 32.4594C2.80202 32.4447 1.38084 32.1355 0.0766602 31.558C0.0902069 31.4791 0.106217 31.3991 0.122226 31.3215C1.40424 31.9151 2.8131 32.2415 4.22812 32.271C4.70718 32.2784 5.18748 32.255 5.66161 32.1983C6.13821 32.1392 6.60865 32.0456 7.0754 31.9286C8.00889 31.6947 8.91776 31.3671 9.818 31.0185C10.717 30.6713 11.6136 30.3018 12.5286 29.9841C13.4424 29.6651 14.3796 29.3991 15.3401 29.2624C16.297 29.1232 17.2823 29.1282 18.2318 29.3314C19.1763 29.5333 20.0901 29.9385 20.8192 30.5777Z" fill="#E8B658"/>
<path d="M9.3069 35.3351C10.4263 34.712 11.6456 34.2613 12.9054 33.9928C14.1653 33.7206 15.4633 33.6258 16.7502 33.6972C18.0384 33.7723 19.3167 34.0137 20.5371 34.4275C21.7576 34.8376 22.9189 35.4238 23.9608 36.1701C22.866 35.5063 21.6923 34.9891 20.4768 34.6147C19.2613 34.2453 18.0027 34.0187 16.7354 33.9497C14.2022 33.8031 11.6332 34.2674 9.30566 35.3364L9.3069 35.3351Z" fill="#E8B658"/>
<path d="M47.7168 35.3179H2.30563C1.64792 35.3179 1.11475 35.851 1.11475 36.5088V36.51C1.11475 37.1677 1.64792 37.7009 2.30563 37.7009H47.7168C48.3745 37.7009 48.9077 37.1677 48.9077 36.51V36.5088C48.9077 35.851 48.3745 35.3179 47.7168 35.3179Z" fill="#232262"/>
<path d="M23.6837 30.8081C23.5089 31.5815 23.4731 38.1985 23.4731 38.1985L25.3032 36.5088L27.0446 38.696L26.8204 30.4424C26.8167 30.2884 26.6197 30.2281 26.5298 30.3525C26.2182 30.7786 25.6542 31.3217 24.8906 31.1222L23.6837 30.8069V30.8081Z" fill="#C45462"/>
<path d="M10.7589 33.5371C7.49536 34.893 3.77124 35.1196 0.340221 34.191C0.303275 34.1061 0.271256 34.0223 0.241699 33.9349C3.64809 34.9694 7.41778 34.845 10.7589 33.5371Z" fill="#E8B658"/>
<path d="M30.5101 22.9819C30.233 23.4585 29.988 23.9548 29.7749 24.4635C30.1985 24.1482 30.6985 23.9364 31.2195 23.8514" stroke="#6084BB" stroke-width="0.12" stroke-linecap="round" stroke-linejoin="round"/>
</svg>
