<svg width="50" height="50" viewBox="0 0 50 50" fill="none" xmlns="http://www.w3.org/2000/svg">
<g clip-path="url(#clip0_2124_3849)">
<path fill-rule="evenodd" clip-rule="evenodd" d="M47.9361 30.1598V32.2328L50 30.1598H47.9361ZM46.347 17.7671H0L4.82192 23.968L0 30.1598H50V21.4201C50 19.4018 48.3653 17.7671 46.347 17.7671Z" fill="#F0AC1E"/>
<path d="M33.169 17.7671L24.5023 30.1598H15.2329L23.9361 17.7671H33.169Z" fill="#F9B741"/>
<path d="M36.9041 17.7671L28.3014 30.1598H26.0913L34.7945 17.7671H36.9041Z" fill="#F9B741"/>
<path d="M13.6986 23.2833C13.6438 23.5938 13.5251 23.8769 13.3333 24.1417C13.1416 24.4066 12.8767 24.6257 12.5388 24.7901C12.2009 24.9545 11.7991 25.0367 11.3333 25.0367H10.3744L9.99087 27.2376H8.83105L9.85389 21.5024H11.9635C12.548 21.5024 12.9954 21.6303 13.2968 21.8951C13.5982 22.1508 13.7443 22.4979 13.7443 22.9271C13.7443 23.055 13.7352 23.1645 13.7078 23.2741L13.6986 23.2833ZM11.4429 24.1417C11.7534 24.1417 12 24.0687 12.1827 23.9134C12.3653 23.7581 12.4749 23.5481 12.5297 23.2924C12.5388 23.2467 12.5479 23.1737 12.5479 23.0824C12.5479 22.6531 12.2831 22.4339 11.7443 22.4339H10.8402L10.5388 24.1508H11.4521L11.4429 24.1417ZM16.9954 21.5116C17.5799 21.5116 18.0274 21.6486 18.3288 21.9134C18.6301 22.1782 18.7763 22.5253 18.7763 22.9454C18.7763 23.0458 18.7763 23.1554 18.7489 23.265C18.6849 23.6394 18.5114 23.9773 18.2374 24.2878C17.9726 24.5892 17.6073 24.7992 17.1507 24.918L18.1096 27.2467H16.7671L15.9087 25.0093H15.3607L14.968 27.2467H13.8082L14.8311 21.5116H16.9863H16.9954ZM17.5708 23.2924C17.5799 23.1919 17.589 23.128 17.589 23.0915C17.589 22.8814 17.5251 22.7262 17.3881 22.6075C17.2603 22.4887 17.0594 22.4339 16.7854 22.4339H15.8265L15.5251 24.1508H16.484C16.7945 24.1508 17.032 24.0778 17.2146 23.9225C17.3973 23.7673 17.516 23.5572 17.5708 23.2924ZM21.105 22.4066L20.8402 23.8951H22.7671L22.6119 24.781H20.6849L20.411 26.3335H22.5936L22.4292 27.2467H19.0959L20.1187 21.5024H23.4429L23.2877 22.4066H21.105ZM30.7397 21.5116L29.726 27.2467H28.5662L29.2237 23.5298L27.0411 27.2467H26.1644L25.2877 23.5207L24.6301 27.2467H23.4703L24.4932 21.5116H25.7991L26.8767 25.7673L29.4429 21.5116H30.7489H30.7397ZM33.032 21.5116L32.0183 27.2467H30.8585L31.8813 21.5116H33.032ZM35.3059 21.5116L34.6849 25.055C34.6667 25.2102 34.6484 25.3107 34.6484 25.3746C34.6484 25.6577 34.7306 25.8769 34.9041 26.0321C35.0776 26.1782 35.3151 26.2513 35.6256 26.2513C36 26.2513 36.3014 26.1508 36.5388 25.9499C36.7763 25.7399 36.9315 25.4385 37.0046 25.055L37.6256 21.5116H38.7854L38.1644 25.055C38.0731 25.5481 37.8995 25.9682 37.6347 26.3061C37.3699 26.644 37.0411 26.8906 36.6575 27.0641C36.2831 27.2285 35.8722 27.3107 35.4338 27.3107C34.8493 27.3107 34.3836 27.1645 34.0183 26.8632C33.6621 26.5618 33.4795 26.1326 33.4795 25.5664C33.4795 25.4111 33.4977 25.2467 33.5251 25.0641L34.1461 21.5207H35.2968L35.3059 21.5116ZM46.1553 21.5116L45.1416 27.2467H43.9817L44.6393 23.5298L42.4566 27.2467H41.5799L40.7032 23.5207L40.0457 27.2467H38.8859L39.9087 21.5116H41.2146L42.2922 25.7673L44.8585 21.5116H46.1644H46.1553Z" fill="white"/>
</g>
<defs>
<clipPath id="clip0_2124_3849">
<rect width="50" height="14.4658" fill="white" transform="translate(0 17.7671)"/>
</clipPath>
</defs>
</svg>
