<svg width="50" height="50" viewBox="0 0 50 50" fill="none" xmlns="http://www.w3.org/2000/svg">
<g clip-path="url(#clip0_2124_1895)">
<path d="M22.1392 50.0002C29.6286 50.0002 35.6999 49.8054 35.6999 49.5651C35.6999 49.3247 29.6286 49.1299 22.1392 49.1299C14.6499 49.1299 8.57861 49.3247 8.57861 49.5651C8.57861 49.8054 14.6499 50.0002 22.1392 50.0002Z" fill="#F1F2F3"/>
<path d="M12.8994 5.13844L13.3182 10.394C13.328 10.515 13.4496 10.5932 13.564 10.5518L15.7754 9.74389C15.8536 9.71562 15.9029 9.63739 15.895 9.55457L15.3744 3.92693C15.3619 3.7948 15.2179 3.7192 15.1022 3.78362L12.9934 4.96358C12.931 4.99842 12.8942 5.06678 12.9001 5.13844H12.8994Z" fill="#13103D"/>
<path d="M15.1311 8.08829C14.9905 8.4058 14.5895 8.5136 14.3154 8.69503C14.0689 8.85806 13.7796 9.07959 13.6869 9.37474C13.6705 9.42602 13.66 9.47992 13.6574 9.53645L11.9673 9.37343C11.9673 9.37343 12.0462 8.72067 12.1014 8.35058C12.1093 8.29536 12.1172 8.24672 12.1237 8.20727C12.1816 7.87202 12.3584 7.10686 13.353 6.53627C13.353 6.53627 15.473 5.39707 14.7551 6.22731L13.7941 7.00825C13.8381 6.98656 15.8404 5.99264 15.1627 6.8472C15.1627 6.8472 14.4889 7.35994 14.0958 7.54334C14.0925 7.54466 14.0899 7.54597 14.0866 7.54729C14.0866 7.54729 14.0899 7.54597 14.0958 7.54334C14.2385 7.48418 16.0048 6.76043 15.0812 7.64918C15.0812 7.64918 14.5001 8.05608 14.1523 8.21648C14.1701 8.20925 14.1878 8.20202 14.2056 8.19413C14.4179 8.10473 14.6355 8.01598 14.859 7.95748C15.0312 7.91212 15.2337 7.85625 15.1311 8.08829V8.08829Z" fill="#F27780"/>
<path d="M13.6869 9.37475C13.6705 9.42602 13.66 9.47993 13.6574 9.53646L11.9673 9.37343C11.9673 9.37343 12.0462 8.72068 12.1014 8.35059C12.5418 8.80679 13.0894 9.15979 13.6869 9.37475V9.37475Z" fill="#C45361"/>
<path d="M12.1216 9.35742C12.1216 9.35742 13.3055 9.40409 13.7913 9.42513C13.8623 9.42842 13.9181 9.48626 13.9175 9.55726C13.9162 9.70582 13.8932 9.96219 13.7735 10.1936L12.1216 9.35742V9.35742Z" fill="#F9BE58"/>
<path d="M14.1044 11.2197C14.038 11.39 13.8987 11.5438 13.7146 11.5878C13.6061 11.6135 12.6523 11.4071 11.9213 11.1191C11.8819 11.104 11.8431 11.0882 11.805 11.0731C11.6236 10.9969 11.4605 10.916 11.335 10.8332C11.2844 10.7997 11.2403 10.7661 11.2028 10.7326C11.2015 10.7313 11.1996 10.73 11.1982 10.7287C10.8919 10.4493 10.7775 9.48626 11.0365 9.18256C11.1345 9.06752 11.3021 9.02479 11.4559 9.03794C11.4638 9.0386 11.4724 9.03925 11.4803 9.04057C11.5296 9.04583 11.5775 9.05569 11.6249 9.06883C11.7182 9.09513 11.8083 9.13194 11.897 9.16941C12.0075 9.21543 12.1172 9.26144 12.227 9.3068C12.2737 9.32652 12.3197 9.34558 12.3657 9.36465C12.4755 9.41066 12.5846 9.45602 12.6944 9.50138C12.7904 9.54147 12.8863 9.58157 12.9817 9.62364L13.1177 9.68609C13.3386 9.79127 13.549 9.91288 13.7278 10.072C13.7442 10.0864 13.76 10.1015 13.7757 10.1167C13.7974 10.1377 13.8191 10.1594 13.8389 10.1824C14.0979 10.4677 14.2412 10.8687 14.1044 11.2197V11.2197Z" fill="#0E446D"/>
<path d="M12.3654 9.36498C12.226 9.93622 12.0866 10.5075 11.9479 11.0787C11.9433 11.0978 11.9335 11.1109 11.921 11.1195C11.8815 11.1464 11.8151 11.1241 11.8046 11.0734C11.802 11.0629 11.802 11.0518 11.8053 11.0393C11.9453 10.4614 12.086 9.88429 12.2267 9.30713C12.2733 9.32685 12.3193 9.34591 12.3654 9.36498Z" fill="#5F85BC"/>
<path d="M11.6247 9.06879C11.528 9.65713 11.4314 10.2448 11.3348 10.8331V10.8351C11.319 10.9291 11.1764 10.889 11.1921 10.7957C11.1954 10.7746 11.1987 10.7536 11.2027 10.7326C11.2947 10.1692 11.3874 9.60454 11.4801 9.04053C11.5294 9.04579 11.5773 9.05565 11.6247 9.06879Z" fill="#5F85BC"/>
<path d="M12.9815 9.62354C12.8356 10.1139 12.6588 10.5951 12.4523 11.0631C12.4142 11.1493 12.5417 11.2249 12.5805 11.1374C12.7883 10.6648 12.9684 10.181 13.1176 9.68598L12.9815 9.62354V9.62354Z" fill="#5F85BC"/>
<path d="M13.8388 10.1827C13.6568 10.5995 13.4674 11.0129 13.2702 11.4225C13.2295 11.5079 13.1019 11.433 13.1427 11.3475C13.3445 10.9281 13.5384 10.5055 13.7245 10.0788C13.7258 10.0769 13.7264 10.0742 13.7277 10.0723C13.7442 10.0867 13.76 10.1018 13.7757 10.117C13.7974 10.138 13.8191 10.1597 13.8388 10.1827V10.1827Z" fill="#5F85BC"/>
<path d="M20.2573 10.318C20.0411 10.6072 19.7374 10.8182 19.5014 11.0917C19.1786 11.4651 18.9965 11.9358 18.8204 12.3966C18.6915 12.7338 18.5627 13.0704 18.4338 13.4076C18.0526 14.4035 17.6713 15.4 17.2907 16.3959C16.9968 17.1631 16.7037 17.9302 16.3737 18.6822C16.1443 19.2055 15.8189 19.7846 15.2575 19.8885C14.9255 19.9496 14.583 19.824 14.2491 19.872C14.1505 19.8865 14.0341 19.9102 13.9092 19.9358C13.5674 20.0061 13.1645 20.0909 12.8976 20.0272C12.7175 19.9838 12.4578 19.8635 12.2179 19.6637C12.0713 19.5427 11.9319 19.3915 11.8228 19.2107C11.5999 18.842 11.1575 18.8374 10.8841 18.4968C10.5238 18.0472 10.4088 17.4221 10.1511 16.9067C10.0644 16.7332 9.94669 16.6319 9.92302 16.4288C9.89081 16.1613 10.021 15.8911 10.1189 15.6505C10.1774 15.5065 10.2326 15.3619 10.2589 15.2107C10.328 14.8183 10.1965 14.4285 10.0598 14.0478C10.0578 14.0426 10.0558 14.0367 10.0532 14.0301C10.0275 13.9578 10.0012 13.8855 9.97627 13.8138C9.75014 13.1604 9.6213 12.4551 9.75079 11.7767C9.88029 11.0976 10.3017 10.4501 10.936 10.1747C10.9991 10.2273 11.0655 10.2746 11.1352 10.3167C11.9464 10.815 13.1401 10.6809 13.831 11.3514C14.1919 11.7011 14.3464 12.2099 14.4397 12.7036C14.5245 13.1486 14.5712 13.5976 14.5922 14.0492C14.5929 14.0571 14.5929 14.0656 14.5935 14.0735L14.7224 13.988C14.5935 13.4819 14.9748 12.9816 15.408 12.6897C15.8412 12.3979 16.3533 12.2145 16.7214 11.8444C17.2848 11.2784 17.4432 10.3456 18.1275 9.93476C18.7987 9.53114 19.7571 9.78159 20.3513 9.27148L20.2488 9.44634C20.2935 9.40098 20.3389 9.35628 20.3842 9.31093C20.5847 9.61134 20.473 10.0288 20.2573 10.318V10.318Z" fill="#1E599E"/>
<path d="M9.92039 16.3533C9.91974 16.3757 9.92039 16.398 9.92237 16.4204C9.89344 16.1554 10.0223 15.8886 10.1189 15.6506C10.1774 15.5066 10.2326 15.362 10.2589 15.2108C10.328 14.8184 10.1965 14.4286 10.0598 14.048C10.0578 14.0427 10.0558 14.0368 10.0532 14.0302C10.0275 13.9579 10.0012 13.8856 9.97627 13.8139C9.75014 13.1605 9.6213 12.4552 9.75079 11.7768C9.88029 11.0977 10.3017 10.4502 10.936 10.1748C10.9991 10.2274 11.0655 10.2747 11.1352 10.3168C11.0675 10.4029 10.9709 10.4713 10.8953 10.5738C10.4535 11.1746 10.3727 12.1659 10.5587 12.8713C10.6849 13.3492 10.9492 13.7791 11.1181 14.2438C11.287 14.7086 11.3495 15.2575 11.0852 15.6756C11.0826 15.6795 11.08 15.6835 11.0773 15.6874C10.7349 15.4028 10.4529 15.0465 10.2556 14.6475C10.3385 14.8309 10.2668 15.3443 10.2004 15.5323C10.1005 15.8136 9.92434 16.0345 9.92039 16.3533V16.3533Z" fill="#5F85BC"/>
<path d="M12.218 19.6637C12.0714 19.5428 11.932 19.3916 11.8229 19.2108C11.6 18.842 11.1576 18.8374 10.8842 18.4969C10.5239 18.0473 10.4089 17.4221 10.1512 16.9068C10.0704 16.7457 9.96321 16.6471 9.92969 16.4709C9.94546 16.44 9.96387 16.4098 9.98491 16.3815C10.2255 16.0509 10.4628 16.0515 10.6988 16.1718C10.5982 16.3336 10.5443 16.5393 10.6304 16.7076C10.6797 16.8049 10.7691 16.8752 10.8375 16.96C11.0748 17.2539 11.0518 17.7035 11.3101 17.9796C11.4528 18.1321 11.6618 18.2064 11.815 18.349C12.1036 18.6172 12.1358 19.053 12.1851 19.4435C12.1943 19.5171 12.2055 19.5908 12.218 19.6637Z" fill="#5F85BC"/>
<path d="M15.1963 3.76074H15.4099C15.4987 3.76074 15.573 3.82779 15.5828 3.91654L16.1692 9.45215C16.1777 9.533 16.1304 9.6086 16.0548 9.63621L15.7991 9.72955L15.1969 3.76074H15.1963Z" fill="#1E599E"/>
<path d="M11.0771 15.6869C10.9713 15.8499 10.8234 15.9827 10.7156 16.1444C10.7097 16.153 10.7037 16.1622 10.6985 16.1714C10.4625 16.0511 10.2252 16.0504 9.98459 16.3811C9.96355 16.4093 9.94515 16.4396 9.92937 16.4705C9.92674 16.458 9.92477 16.4455 9.92346 16.4324C9.9228 16.4278 9.92214 16.4238 9.92214 16.4199C9.92017 16.3975 9.91951 16.3752 9.92017 16.3528C9.92411 16.034 10.1003 15.8131 10.2002 15.5318C10.2666 15.3438 10.3382 14.8304 10.2554 14.647C10.4526 15.046 10.7346 15.4023 11.0771 15.6869V15.6869Z" fill="#1E599E"/>
<path d="M9.92383 16.4326C9.92515 16.4459 9.92714 16.4585 9.92979 16.4711C9.92913 16.4724 9.92847 16.4731 9.92781 16.4744C9.92582 16.4605 9.92449 16.4465 9.92383 16.4326V16.4326Z" fill="#0E446D"/>
<path d="M12.1226 16.6592C12.1068 16.7835 11.9733 16.865 11.763 16.8328C11.6125 16.8098 11.4797 16.7256 11.3535 16.6415C11.1352 16.4949 10.9176 16.2819 10.6987 16.1715C10.704 16.1623 10.7099 16.1531 10.7158 16.1445C10.8236 15.9828 10.9715 15.85 11.0774 15.687C11.0964 15.7034 11.1168 15.7192 11.1365 15.735C11.4218 15.9611 11.7472 16.1386 12.0042 16.397C12.0956 16.489 12.1318 16.5823 12.1226 16.6592V16.6592Z" fill="#0E446D"/>
<path d="M31.0467 5.90939C28.6415 5.87784 26.793 9.35789 26.793 9.35789L27.0533 9.65502C27.5608 8.95296 29.354 6.62263 30.9396 6.40044C30.9396 6.40044 29.778 9.12387 27.3925 10.0422L27.4635 10.1231C30.7246 9.41771 31.3872 6.25253 31.3872 6.25253L31.0461 5.90939H31.0467Z" fill="#8F8FB7"/>
<path d="M15.7017 25.3749C16.3255 24.8306 16.5398 24.7577 17.4759 24.6334L17.9321 16.4888L16.5819 19.0334L15.7017 25.3743V25.3749Z" fill="#13103D"/>
<path d="M40.6285 27.2469C40.3517 27.2936 40.0842 27.4178 39.8561 27.5914C39.7424 27.6768 39.6379 27.7754 39.5478 27.8826C39.2757 28.204 39.0285 28.5603 38.6735 28.7864C38.4717 28.9153 38.2212 28.9896 37.9846 28.9784C37.9438 28.9199 37.9129 28.8555 37.8939 28.7897C37.8143 28.5136 37.886 28.2244 37.9327 27.943C38.0069 27.4934 38.0148 27.0339 37.9563 26.581C37.9274 26.3542 37.8669 26.1057 37.6691 25.9703C37.5001 25.854 37.2648 25.852 37.0709 25.9223C36.9427 25.969 36.829 26.0433 36.7251 26.1287C36.6725 26.1715 36.6226 26.2181 36.5733 26.2641C36.142 26.675 35.7943 27.1628 35.5517 27.6932C35.2033 28.2362 34.9785 29.004 34.9713 29.4326C34.3211 27.9904 32.8427 23.0858 32.4102 21.942C31.9783 20.7982 31.5201 19.6492 31.3571 18.4376C31.1941 17.2261 31.4012 15.9726 32.1203 14.9839C32.8046 16.5129 34.2114 17.5778 35.5938 18.5231C36.9769 19.469 38.4375 20.4084 39.3348 21.823C40.3406 23.4106 40.4983 25.3721 40.6285 27.2469V27.2469Z" fill="#F9BE58"/>
<path d="M39.894 26.1991C39.5969 26.3069 39.332 26.6211 39.1532 26.8992C39.1381 26.9215 39.1243 26.9439 39.1111 26.9656C38.933 27.2568 38.67 27.8773 38.179 28.1975C38.0949 28.2527 37.9805 28.2409 37.8904 28.1889C37.8148 28.1455 37.7563 28.0739 37.7478 27.9904L37.8799 26.251C37.8799 26.251 37.8799 26.251 37.8799 26.2497C37.8615 26.0203 37.6656 25.6758 37.5506 25.4924C37.4993 25.4103 37.4145 25.3524 37.3179 25.3419C36.9997 25.3058 36.7091 25.3721 36.4475 25.5082C35.1847 26.1597 34.5675 28.4052 34.5675 28.4052C34.2756 27.5473 33.9844 26.6888 33.6925 25.831C33.2199 24.4426 32.7479 23.0536 32.2759 21.6653C32.1648 21.3386 32.0787 20.9836 31.9367 20.6688C31.7586 20.2737 31.3793 19.9273 31.142 19.5552C30.7969 19.0135 30.5129 18.4337 30.2973 17.829C30.1099 17.3018 29.9725 16.741 30.0389 16.1856C30.0863 15.7879 30.2986 15.3501 30.6917 15.2718C30.8435 15.2409 31.002 15.2705 31.1479 15.3225C31.4772 15.4388 31.7619 15.6735 31.9433 15.9713C31.9801 16.0317 32.0182 16.0896 32.0583 16.1455C32.2529 16.4163 32.4843 16.6444 32.7242 16.8922C33.3336 17.5207 33.9601 18.1386 34.6871 18.6316C35.706 19.3238 36.7959 19.9404 37.6478 20.8305C39 22.2425 39.564 24.2717 39.894 26.1991Z" fill="#E8496F"/>
<path d="M39.8564 27.5916C39.7426 27.6771 39.6381 27.7757 39.5481 27.8828C39.2759 28.2043 39.0288 28.5606 38.6738 28.7867C38.472 28.9155 38.2215 28.9898 37.9849 28.9786C37.9441 28.9201 37.9132 28.8557 37.8942 28.79C37.8376 28.5941 37.8573 28.391 37.8902 28.1891C37.9803 28.2411 38.0946 28.2529 38.1788 28.1977C38.6698 27.8776 38.9328 27.257 39.1109 26.9658C39.1241 26.9441 39.1379 26.9218 39.153 26.8994C39.387 27.1301 39.6217 27.3609 39.8564 27.5916V27.5916Z" fill="#E69A24"/>
<path d="M37.8796 26.2496C37.8363 26.1392 37.7705 26.0399 37.6693 25.9702C37.5004 25.8539 37.265 25.8519 37.0711 25.9222C36.9429 25.9689 36.8292 26.0432 36.7253 26.1286C36.651 25.9229 36.5538 25.7244 36.4571 25.5278C36.4538 25.5212 36.4506 25.5147 36.4473 25.5081C36.7089 25.372 36.9994 25.3056 37.3176 25.3418C37.4142 25.3523 37.499 25.4101 37.5503 25.4923C37.6653 25.6757 37.8612 26.0202 37.8796 26.2496V26.2496Z" fill="#F9BE58"/>
<path d="M39.1527 26.899C39.1376 26.9213 39.1238 26.9437 39.1106 26.9654C38.9325 27.2566 38.6695 27.8771 38.1785 28.1973C38.0943 28.2525 37.98 28.2406 37.8899 28.1887C37.9037 28.1065 37.9188 28.0244 37.9326 27.9429C38.0069 27.4932 38.0148 27.0337 37.9563 26.5808C37.9425 26.4704 37.9208 26.356 37.8794 26.2508C37.88 26.2508 37.8794 26.2508 37.8794 26.2495C37.861 26.0201 37.6651 25.6756 37.55 25.4922C37.4988 25.4101 37.414 25.3522 37.3173 25.3417C36.9992 25.3055 36.7086 25.3719 36.447 25.508C35.3538 23.2973 33.5671 21.5823 32.5449 19.3223C33.5402 20.9768 34.6399 22.4572 36.0164 23.812C37.0616 24.8408 38.1068 25.8696 39.1527 26.899V26.899Z" fill="#CE3460"/>
<path d="M37.8926 28.7668C37.9117 28.8318 37.9439 28.8956 37.9846 28.9534C37.8032 28.9449 37.6303 28.8871 37.4942 28.7661C37.4278 28.7069 37.3759 28.6327 37.3305 28.5531C37.2701 28.4479 37.2201 28.3336 37.159 28.2323C36.9611 27.9043 36.7909 27.5598 36.6324 27.2108C36.5522 27.034 36.4753 26.8558 36.3991 26.677C36.3629 26.5922 36.3038 26.5278 36.3662 26.4529C36.4234 26.3838 36.4944 26.322 36.5595 26.2609C36.7061 26.1235 36.8671 25.992 37.0623 25.9224C37.1044 25.9072 37.1485 25.8954 37.1932 25.8875H37.1938C37.3575 25.8579 37.5324 25.879 37.6665 25.9697C37.8656 26.1038 37.9268 26.3503 37.9564 26.5758C38.0149 27.0248 38.007 27.481 37.932 27.9266C37.8854 28.2054 37.813 28.4926 37.8926 28.7668V28.7668Z" fill="#AD3452"/>
<path d="M36.8516 25.791C36.8601 25.791 36.8687 25.791 36.8772 25.791C36.87 25.8134 36.8654 25.8364 36.8641 25.86L36.8516 25.7917V25.791Z" fill="#AD3452"/>
<path d="M37.8926 28.7668C37.9117 28.8318 37.9439 28.8956 37.9846 28.9534C37.8032 28.9449 37.6303 28.8871 37.4943 28.7661C37.4279 28.7069 37.3759 28.6327 37.3306 28.5531C37.3319 28.2882 37.4022 28.0016 37.4489 27.759C37.4969 27.5125 37.5317 27.264 37.5515 27.0142C37.5738 26.7467 37.5777 26.468 37.4706 26.2221C37.4127 26.0887 37.3141 25.9671 37.1938 25.8875C37.3575 25.8579 37.5324 25.879 37.6665 25.9697C37.8657 26.1038 37.9268 26.3503 37.9564 26.5758C38.0149 27.0248 38.007 27.481 37.9321 27.9266C37.8854 28.2054 37.8131 28.4926 37.8926 28.7668Z" fill="#F47623"/>
<path d="M33.4742 25.5477C33.4604 25.5747 33.4459 25.601 33.4308 25.6279C33.2895 25.8777 33.1093 26.1085 32.9003 26.3083C32.7254 26.4753 32.5302 26.6212 32.3212 26.7389C32.3126 26.7435 32.3041 26.7481 32.2955 26.7527C32.2923 26.7546 32.2883 26.7566 32.2837 26.7592C32.0753 26.8716 31.8531 26.9564 31.6237 27.0051C31.4114 27.0518 31.1931 27.0682 30.9729 27.0491C30.9729 27.0491 30.9591 27.0103 30.9348 26.9413L30.9243 26.9111C30.9138 26.8822 30.9013 26.848 30.8881 26.8099L30.8717 26.7632L30.854 26.7132C30.829 26.6442 30.8014 26.566 30.7711 26.4805L30.7481 26.4154L30.7238 26.3471C30.683 26.2327 30.6383 26.1078 30.5923 25.977L30.5641 25.8981C30.5581 25.881 30.5522 25.8639 30.5457 25.8475L30.5095 25.7436C30.3037 25.1658 30.0717 24.5124 29.9054 24.045L29.8824 23.9799C29.8521 23.8945 29.8245 23.8162 29.7996 23.7472L29.7818 23.6966C29.7187 23.5185 29.6806 23.4113 29.6806 23.4113L29.2671 16.4985C29.5458 16.5577 29.8239 16.6175 30.1026 16.6767L30.5476 16.772L31.1892 16.9094C31.2595 17.1303 31.3397 17.3472 31.4285 17.5615C31.7309 18.2984 32.1253 18.9991 32.5085 19.7005C33.0029 20.6051 33.486 21.53 33.7279 22.5324C33.9698 23.5342 33.9514 24.634 33.4742 25.5477V25.5477Z" fill="#362B63"/>
<path d="M33.0206 25.622C33.0193 25.7219 33.0173 25.8218 33.0153 25.9218C33.0121 26.0808 32.97 26.2051 32.9003 26.3083C32.7741 26.4937 32.5585 26.6094 32.3212 26.7389C32.3126 26.7435 32.3041 26.7481 32.2955 26.7527C32.2923 26.7546 32.2883 26.7566 32.2837 26.7592C32.2009 26.8 31.9103 26.9177 31.6237 27.0051C31.3154 27.0991 31.0117 27.1583 30.9729 27.0491C30.9729 27.0491 30.9591 27.0103 30.9348 26.9413C30.9315 26.9321 30.9276 26.9216 30.9243 26.9111C30.9138 26.8822 30.9013 26.848 30.8881 26.8099C30.8829 26.7954 30.8776 26.7796 30.8717 26.7632C30.8658 26.7474 30.8599 26.7303 30.854 26.7132C30.829 26.6442 30.8014 26.566 30.7711 26.4805C30.7632 26.4588 30.756 26.4371 30.7481 26.4154C30.7402 26.3931 30.7323 26.3701 30.7238 26.3471C30.683 26.2327 30.6383 26.1078 30.5923 25.977C30.5831 25.9507 30.5739 25.9244 30.5641 25.8981C30.5581 25.881 30.5522 25.8639 30.5457 25.8475C30.5338 25.8133 30.522 25.7785 30.5095 25.7436C30.3037 25.1658 30.0717 24.5124 29.9054 24.045L29.8824 23.9799C29.8521 23.8945 29.8245 23.8162 29.7996 23.7472L29.7818 23.6966C29.7187 23.5185 29.6806 23.4113 29.6806 23.4113L29.2671 16.4985C29.5458 16.5577 29.8239 16.6175 30.1026 16.6767L30.5476 16.772L31.1892 16.9094C31.2595 17.1303 31.3397 17.3472 31.4285 17.5615C31.2109 17.5391 30.9946 17.5352 30.7606 17.4248C31.0367 18.0532 31.3595 18.6672 31.6448 19.287C31.93 19.9069 32.2752 20.3875 32.3869 21.0442C32.4513 21.4235 32.4296 21.8672 32.3172 22.236C32.2646 22.4082 32.1897 22.5738 32.1568 22.75C32.1233 22.9268 32.1384 23.1234 32.2508 23.2641C32.3797 23.4264 32.6222 23.4514 32.7478 23.6059C32.8786 23.7683 32.9102 24.1022 32.945 24.302C33.0199 24.7372 33.0265 25.1803 33.0206 25.622V25.622Z" fill="#13103D"/>
<path d="M32.9614 45.4381C32.87 45.6077 32.7122 45.7418 32.607 45.9068C32.5249 46.037 32.4723 46.1908 32.3553 46.2907C32.2481 46.3821 32.1265 46.3926 32.0207 46.4886C31.9208 46.5793 31.8728 46.7266 31.7821 46.8271C31.715 46.9021 31.6296 46.9593 31.5461 47.0152C31.3147 47.1696 31.0754 47.3274 30.8026 47.38C30.6139 47.4161 30.184 47.3905 30.0986 47.1637C30.0322 46.9869 30.305 46.5353 30.3589 46.3446C30.5042 45.8273 30.562 45.285 30.5048 44.7492C30.4233 43.9788 30.1078 43.2452 29.6332 42.6358C29.3485 42.2703 29.106 42.0758 29.106 42.0758L30.4042 40.4409C30.5712 40.7611 30.8151 41.0753 31.0879 41.3671C31.642 41.9594 32.3152 42.4583 32.7056 42.7272C32.7162 42.7344 32.6728 43.99 32.6859 44.1248C32.726 44.5382 33.1441 44.8899 33.0087 45.3264C32.9969 45.3652 32.9804 45.402 32.9614 45.4375V45.4381Z" fill="#F27780"/>
<path d="M31.0879 41.3676C30.6429 41.8337 30.1558 42.259 29.6332 42.6363C29.3485 42.2708 29.106 42.0763 29.106 42.0763L30.4042 40.4414C30.5712 40.7615 30.8151 41.0758 31.0879 41.3676Z" fill="#C45361"/>
<path d="M33.7535 44.5366C33.618 45.1263 33.2 45.4333 32.8884 45.9052C32.1567 47.0122 31.8616 48.4223 30.679 49.1795C30.3293 49.403 29.8054 49.6463 29.3492 49.6325C29.288 49.6305 29.2276 49.6246 29.1697 49.6127C28.937 49.5654 28.7924 49.4931 28.7063 49.4096C28.6557 49.3603 28.6261 49.3071 28.6109 49.2538C28.5426 49.0178 28.7602 48.768 28.7602 48.768L28.8588 48.6425L29.7856 47.4599L29.8856 47.3324C29.9184 47.2653 29.9493 47.1996 29.9789 47.1338C29.9815 47.1325 29.9835 47.1312 29.9855 47.1306C30.585 46.8301 31.1845 46.5304 31.784 46.23C32.0917 46.0762 32.3579 45.8783 32.6307 45.6706C32.6616 45.6469 32.6925 45.6232 32.7181 45.5943C32.8575 45.4333 32.774 45.263 32.7536 45.0875C32.7214 44.816 32.73 44.536 32.7076 44.2618C32.6609 43.707 32.5774 43.1391 32.7076 42.5889C32.795 42.6487 32.8687 42.698 32.9245 42.7348C33.0001 42.7841 33.0429 42.8104 33.0429 42.8104C33.5648 43.2423 33.9119 43.8477 33.7535 44.5366V44.5366Z" fill="#13103D"/>
<path d="M32.9771 45.146C32.9646 45.4372 33.0415 45.6646 32.7549 45.8323C31.807 46.3884 30.8486 46.9268 29.8803 47.4474C29.8468 47.4651 29.8146 47.4684 29.7856 47.4599L29.8856 47.3324C29.9184 47.2653 29.9493 47.1996 29.9789 47.1338C29.9815 47.1325 29.9835 47.1312 29.9855 47.1306C30.585 46.8301 31.1845 46.5304 31.784 46.23C32.0917 46.0762 32.3579 45.8783 32.6307 45.6706C32.6616 45.6469 32.6925 45.6232 32.7181 45.5943C32.8575 45.4333 32.774 45.263 32.7536 45.0875C32.7214 44.816 32.73 44.536 32.7076 44.2618C32.6609 43.707 32.5774 43.1391 32.7076 42.5889C32.795 42.6487 32.8687 42.698 32.9245 42.7348C32.8746 43.1167 32.8949 43.5079 32.9245 43.8937C32.9554 44.2967 32.9922 44.701 32.9784 45.1059C32.9778 45.119 32.9778 45.1328 32.9771 45.146V45.146Z" fill="#F9BE58"/>
<path d="M29.3066 49.6431C29.2639 49.6411 29.2126 49.6214 29.1699 49.6128C28.9944 49.5767 28.7873 49.5182 28.6664 49.3742C28.5987 49.2933 28.5809 49.1875 28.5678 49.0856C28.5474 48.9292 28.5737 48.7714 28.6033 48.6182C28.6164 48.5479 28.7005 48.5085 28.765 48.5262C28.8215 48.542 28.8544 48.5893 28.859 48.6432C28.8603 48.6577 28.8596 48.6728 28.8563 48.6879C28.8386 48.7799 28.8248 48.8536 28.8228 48.9463C28.8215 48.9798 28.8241 49.0396 28.8268 49.0587C28.8465 49.1744 28.9319 49.2966 29.0036 49.3887C29.0858 49.4945 29.1896 49.5793 29.3066 49.6437V49.6431Z" fill="#F9BE58"/>
<path d="M30.1858 44.1278C31.0587 43.6158 31.7194 42.7875 32.0533 41.835C32.0954 41.7147 31.9048 41.6634 31.8634 41.7824C31.5465 42.6863 30.9141 43.4718 30.0865 43.9576C29.9774 44.022 30.076 44.1923 30.1858 44.1278V44.1278Z" fill="#F1AD1D"/>
<path d="M31.3049 43.6447C31.3799 43.6218 31.4121 43.5093 31.3767 43.3933C31.3413 43.2773 31.2518 43.2018 31.1768 43.2247C31.1018 43.2476 31.0697 43.3601 31.1051 43.4761C31.1404 43.5921 31.2299 43.6676 31.3049 43.6447Z" fill="#F9BE58"/>
<path d="M30.8635 44.1003C30.9385 44.0774 30.9707 43.9648 30.9353 43.8489C30.8999 43.7329 30.8104 43.6574 30.7354 43.6803C30.6604 43.7031 30.6283 43.8157 30.6637 43.9317C30.699 44.0477 30.7885 44.1232 30.8635 44.1003Z" fill="#F9BE58"/>
<path d="M30.3621 44.465C30.4371 44.4421 30.4692 44.3296 30.4338 44.2136C30.3984 44.0976 30.309 44.0221 30.234 44.045C30.159 44.0679 30.1268 44.1805 30.1622 44.2964C30.1976 44.4124 30.287 44.4879 30.3621 44.465Z" fill="#F9BE58"/>
<path d="M31.7742 43.0067C31.8455 42.9741 31.8633 42.8602 31.814 42.7522C31.7646 42.6442 31.6668 42.5832 31.5954 42.6158C31.5241 42.6484 31.5063 42.7623 31.5557 42.8703C31.6051 42.9783 31.7029 43.0394 31.7742 43.0067Z" fill="#F9BE58"/>
<path d="M32.2099 42.2949C32.2398 42.2224 32.1751 42.127 32.0653 42.0817C31.9556 42.0364 31.8424 42.0585 31.8125 42.131C31.7825 42.2034 31.8473 42.2989 31.957 42.3442C32.0667 42.3895 32.18 42.3674 32.2099 42.2949Z" fill="#F9BE58"/>
<path d="M29.6832 38.655C28.9621 39.7377 28.0365 40.6836 26.9683 41.4258C26.8539 41.3009 26.7382 41.1714 26.6225 41.0386C26.3372 40.7119 26.05 40.3628 25.764 40.0013C24.0108 37.7847 22.3188 35.0882 21.6792 34.0417L21.6779 34.0404C21.5056 33.7584 21.4097 33.5966 21.4097 33.5966L25.9415 33.1431C26.044 33.4783 26.3155 33.9746 26.6817 34.5505C27.2457 35.4379 28.0339 36.5153 28.774 37.4843C29.0705 37.8728 29.3591 38.2435 29.622 38.5774C29.6424 38.6031 29.6628 38.6294 29.6832 38.655V38.655Z" fill="#F9BE58"/>
<path d="M28.774 37.4843C28.7155 37.4409 28.6564 37.3981 28.5972 37.3554C28.022 36.9406 27.4304 36.5475 26.8243 36.1787C25.5543 35.4063 22.5673 35.4576 22.5673 35.4576C22.5673 35.4576 21.8724 34.4131 21.6779 34.0404C21.5056 33.7584 21.4097 33.5966 21.4097 33.5966L25.9415 33.1431C26.044 33.4783 26.3155 33.9746 26.6817 34.5505C27.2457 35.4379 28.0339 36.5153 28.774 37.4843Z" fill="#E69A24"/>
<path d="M29.7155 38.5659C28.9648 39.6939 28.0004 40.6793 26.8882 41.4517C27.5081 42.1275 28.1076 42.6836 28.6446 43.0294C28.6446 43.0294 30.576 41.3229 30.9395 40.0877C30.9395 40.0877 30.4228 39.4612 29.7161 38.5659H29.7155Z" fill="#FCDFB1"/>
<path d="M27.519 42.0165C27.471 41.7752 27.6873 41.582 27.8845 41.484C28.0744 41.3907 28.3104 41.3407 28.4603 41.2007C28.674 40.9983 28.6371 40.638 28.8291 40.4066C28.931 40.2765 29.0861 40.2167 29.2156 40.1424C29.4601 40.007 29.5798 39.7276 29.7178 39.4863L29.7362 39.4929C29.6955 39.7946 29.5896 40.1286 29.3214 40.3087C29.1867 40.3994 29.0546 40.4487 28.9763 40.5348C28.7903 40.7333 28.7844 41.1179 28.5438 41.2973C28.296 41.4985 27.9778 41.4761 27.73 41.6582C27.6169 41.7391 27.5216 41.8666 27.538 42.0132L27.5183 42.0165H27.519Z" fill="#F9BE58"/>
<path d="M29.2014 32.2323C23.8985 35.8353 15.7617 32.9206 15.7617 32.9206C16.0352 32.114 16.2705 31.2719 16.4723 30.4134C16.8332 28.8791 17.0876 27.2923 17.2658 25.7626C17.8455 20.8015 17.624 16.4446 17.624 16.4446L19.8531 9.78749L19.9241 9.77369L22.6239 9.23926L23.3529 11.895L23.3772 11.9831L27.6224 27.4553C27.6652 27.711 27.7164 27.9667 27.7743 28.2185C27.9182 28.8469 28.1003 29.4537 28.2864 29.9967C28.2916 30.0124 28.2975 30.0282 28.3028 30.044C28.7452 31.3199 29.2014 32.2323 29.2014 32.2323V32.2323Z" fill="#F9BE58"/>
<path d="M19.2319 16.9999C18.6949 19.9133 18.2952 25.0276 18.66 27.9666C17.9165 27.4657 17.5083 27.4407 17.1665 26.5612C17.7463 21.6001 17.624 16.4444 17.624 16.4444C17.9455 15.4847 18.2669 14.525 18.5884 13.5652C18.8322 12.8362 19.0768 12.1065 19.3207 11.3775C19.462 10.9548 19.5514 10.3133 19.8012 9.9412C19.9517 9.71704 20.1818 9.69995 20.4217 9.64276C20.6492 9.5882 20.8332 9.52378 21.0778 9.54678C21.3821 9.57505 21.6918 9.69206 21.9435 9.86297C22.1125 9.97735 22.5312 10.2725 22.2354 10.4868C22.2058 10.5085 22.1716 10.523 22.1374 10.5361C21.6931 10.7096 21.2526 10.6235 20.8359 10.4027C20.7892 10.3777 20.6939 10.2903 20.6426 10.3192C20.5979 10.3442 20.5769 10.5348 20.5657 10.5834C20.5249 10.7609 20.4993 10.9417 20.4664 11.1212C20.1062 13.0913 19.5954 15.0305 19.2326 17.0006L19.2319 16.9999Z" fill="#E69A24"/>
<path d="M17.9963 28.4758C18.031 28.2678 17.9955 28.0885 17.9171 28.0754C17.8387 28.0623 17.747 28.2204 17.7123 28.4285C17.6775 28.6365 17.713 28.8158 17.7914 28.8289C17.8698 28.8419 17.9615 28.6839 17.9963 28.4758Z" fill="#E8496F"/>
<path d="M17.0807 30.0662C17.1154 29.8581 17.08 29.6788 17.0016 29.6658C16.9231 29.6527 16.8314 29.8107 16.7967 30.0188C16.762 30.2268 16.7975 30.4061 16.8759 30.4192C16.9543 30.4323 17.046 30.2742 17.0807 30.0662Z" fill="#E8496F"/>
<path d="M17.6505 30.2478C17.6853 30.0397 17.6498 29.8605 17.5714 29.8474C17.493 29.8343 17.4013 29.9924 17.3665 30.2004C17.3318 30.4085 17.3673 30.5878 17.4457 30.6008C17.5241 30.6139 17.6158 30.4559 17.6505 30.2478Z" fill="#E8496F"/>
<path d="M18.2194 30.4436C18.2541 30.2355 18.2187 30.0563 18.1402 30.0432C18.0618 30.0301 17.9701 30.1882 17.9354 30.3962C17.9007 30.6043 17.9361 30.7836 18.0146 30.7966C18.093 30.8097 18.1847 30.6517 18.2194 30.4436Z" fill="#E8496F"/>
<path d="M18.8014 30.5413C18.8361 30.3332 18.8007 30.1539 18.7223 30.1409C18.6438 30.1278 18.5521 30.2858 18.5174 30.4939C18.4827 30.7019 18.5182 30.8812 18.5966 30.8943C18.675 30.9074 18.7667 30.7493 18.8014 30.5413Z" fill="#E8496F"/>
<path d="M19.4396 30.6472C19.4743 30.4392 19.4389 30.2599 19.3605 30.2468C19.282 30.2337 19.1903 30.3918 19.1556 30.5998C19.1209 30.8079 19.1563 30.9872 19.2348 31.0002C19.3132 31.0133 19.4049 30.8553 19.4396 30.6472Z" fill="#E8496F"/>
<path d="M20.0539 30.7498C20.0886 30.5417 20.0531 30.3624 19.9747 30.3493C19.8963 30.3363 19.8046 30.4943 19.7699 30.7024C19.7352 30.9104 19.7706 31.0897 19.849 31.1028C19.9275 31.1159 20.0192 30.9578 20.0539 30.7498Z" fill="#E8496F"/>
<path d="M20.7223 30.8069C20.757 30.5988 20.7216 30.4196 20.6432 30.4065C20.5647 30.3934 20.473 30.5515 20.4383 30.7595C20.4036 30.9676 20.4391 31.1468 20.5175 31.1599C20.5959 31.173 20.6876 31.0149 20.7223 30.8069Z" fill="#E8496F"/>
<path d="M21.3463 30.8552C21.3811 30.6472 21.3456 30.4679 21.2672 30.4548C21.1888 30.4417 21.0971 30.5998 21.0624 30.8079C21.0276 31.0159 21.0631 31.1952 21.1415 31.2083C21.2199 31.2213 21.3116 31.0633 21.3463 30.8552Z" fill="#E8496F"/>
<path d="M21.9449 30.9024C21.96 30.692 21.908 30.5168 21.8287 30.5111C21.7494 30.5054 21.6729 30.6714 21.6577 30.8818C21.6426 31.0921 21.6947 31.2673 21.774 31.273C21.8533 31.2787 21.9298 31.1128 21.9449 30.9024Z" fill="#E8496F"/>
<path d="M22.6026 30.8736C22.6178 30.6632 22.5657 30.488 22.4864 30.4823C22.4071 30.4766 22.3306 30.6426 22.3155 30.8529C22.3003 31.0633 22.3524 31.2385 22.4317 31.2442C22.511 31.2499 22.5875 31.084 22.6026 30.8736Z" fill="#E8496F"/>
<path d="M23.256 30.8462C23.2711 30.6358 23.219 30.4607 23.1397 30.455C23.0604 30.4493 22.9839 30.6152 22.9688 30.8256C22.9537 31.036 23.0057 31.2112 23.085 31.2169C23.1643 31.2226 23.2408 31.0566 23.256 30.8462Z" fill="#E8496F"/>
<path d="M23.9173 30.7843C23.9173 30.9953 23.8529 31.1662 23.7734 31.1662C23.6938 31.1662 23.6294 30.9953 23.6294 30.7843C23.6294 30.5733 23.6938 30.4023 23.7734 30.4023C23.8529 30.4023 23.9173 30.5733 23.9173 30.7843Z" fill="#E8496F"/>
<path d="M24.536 30.7276C24.536 30.9386 24.4715 31.1096 24.392 31.1096C24.3125 31.1096 24.248 30.9386 24.248 30.7276C24.248 30.5166 24.3125 30.3457 24.392 30.3457C24.4715 30.3457 24.536 30.5166 24.536 30.7276Z" fill="#E8496F"/>
<path d="M25.1215 30.9795C25.1998 30.9657 25.2335 30.7861 25.1967 30.5784C25.16 30.3707 25.0667 30.2135 24.9884 30.2274C24.9101 30.2412 24.8765 30.4208 24.9132 30.6285C24.9499 30.8362 25.0432 30.9934 25.1215 30.9795Z" fill="#E8496F"/>
<path d="M25.8256 30.855C25.9039 30.8412 25.9376 30.6616 25.9008 30.4539C25.8641 30.2462 25.7708 30.089 25.6925 30.1029C25.6143 30.1167 25.5806 30.2963 25.6173 30.504C25.654 30.7117 25.7473 30.8689 25.8256 30.855Z" fill="#E8496F"/>
<path d="M26.5311 30.647C26.6094 30.6332 26.6431 30.4536 26.6064 30.2459C26.5697 30.0382 26.4764 29.881 26.3981 29.8948C26.3198 29.9087 26.2861 30.0883 26.3229 30.296C26.3596 30.5037 26.4529 30.6609 26.5311 30.647Z" fill="#E8496F"/>
<path d="M27.1552 30.419C27.2335 30.4051 27.2671 30.2255 27.2304 30.0178C27.1937 29.8101 27.1004 29.653 27.0221 29.6668C26.9438 29.6807 26.9102 29.8603 26.9469 30.068C26.9836 30.2757 27.0769 30.4328 27.1552 30.419Z" fill="#E8496F"/>
<path d="M27.7816 30.19C27.8599 30.1761 27.8936 29.9965 27.8569 29.7888C27.8201 29.5811 27.7269 29.424 27.6486 29.4378C27.5703 29.4517 27.5366 29.6313 27.5734 29.839C27.6101 30.0467 27.7033 30.2038 27.7816 30.19Z" fill="#E8496F"/>
<path d="M18.531 24.7854C18.546 24.575 18.4938 24.3999 18.4145 24.3943C18.3352 24.3886 18.2588 24.5546 18.2438 24.765C18.2289 24.9754 18.2811 25.1506 18.3604 25.1562C18.4397 25.1618 18.5161 24.9958 18.531 24.7854Z" fill="#E8496F"/>
<path d="M18.677 21.2654C18.692 21.055 18.6398 20.8799 18.5605 20.8742C18.4812 20.8686 18.4048 21.0346 18.3898 21.245C18.3749 21.4554 18.4271 21.6305 18.5064 21.6362C18.5857 21.6418 18.6621 21.4758 18.677 21.2654Z" fill="#E8496F"/>
<path d="M19.367 17.5984C19.3819 17.388 19.3297 17.2129 19.2504 17.2072C19.1711 17.2016 19.0947 17.3676 19.0798 17.578C19.0648 17.7884 19.117 17.9635 19.1963 17.9692C19.2756 17.9748 19.352 17.8088 19.367 17.5984Z" fill="#E8496F"/>
<path d="M19.8621 14.6823C19.9054 14.4759 19.8774 14.2953 19.7996 14.279C19.7218 14.2627 19.6236 14.4168 19.5803 14.6233C19.537 14.8297 19.565 15.0103 19.6429 15.0266C19.7207 15.0429 19.8188 14.8888 19.8621 14.6823Z" fill="#E8496F"/>
<path d="M21.3134 12.9861C21.3521 12.8016 21.327 12.6403 21.2573 12.6257C21.1877 12.6111 21.0999 12.7488 21.0612 12.9332C21.0226 13.1176 21.0477 13.2789 21.1173 13.2935C21.187 13.3081 21.2748 13.1705 21.3134 12.9861Z" fill="#E8496F"/>
<path d="M21.2177 11.0569C21.2564 10.8724 21.2313 10.7111 21.1616 10.6965C21.092 10.6819 21.0042 10.8196 20.9655 11.004C20.9268 11.1884 20.952 11.3497 21.0216 11.3643C21.0913 11.3789 21.1791 11.2413 21.2177 11.0569Z" fill="#E8496F"/>
<path d="M20.3639 28.0149C20.3986 27.8068 20.3632 27.6276 20.2848 27.6145C20.2063 27.6014 20.1146 27.7595 20.0799 27.9675C20.0452 28.1756 20.0807 28.3548 20.1591 28.3679C20.2375 28.381 20.3292 28.2229 20.3639 28.0149Z" fill="#E8496F"/>
<path d="M20.9201 23.7722C20.9548 23.5642 20.9193 23.3849 20.8409 23.3718C20.7625 23.3587 20.6708 23.5168 20.6361 23.7248C20.6014 23.9329 20.6368 24.1122 20.7152 24.1252C20.7937 24.1383 20.8854 23.9803 20.9201 23.7722Z" fill="#E8496F"/>
<path d="M21.153 19.7214C21.1877 19.5134 21.1523 19.3341 21.0738 19.321C20.9954 19.3079 20.9037 19.466 20.869 19.6741C20.8343 19.8821 20.8697 20.0614 20.9482 20.0745C21.0266 20.0875 21.1183 19.9295 21.153 19.7214Z" fill="#E8496F"/>
<path d="M22.3793 29.5905C22.4588 29.5905 22.5233 29.4195 22.5233 29.2086C22.5233 28.9977 22.4588 28.8267 22.3793 28.8267C22.2998 28.8267 22.2354 28.9977 22.2354 29.2086C22.2354 29.4195 22.2998 29.5905 22.3793 29.5905Z" fill="#E8496F"/>
<path d="M18.3799 13.4117C18.4246 13.8153 18.0387 14.4398 17.8967 14.8105C17.6949 15.339 17.4924 15.8676 17.2906 16.3954C16.9968 17.1626 16.7036 17.9297 16.3736 18.6817C16.1442 19.205 15.8188 19.7841 15.2574 19.888C14.9255 19.9491 14.583 19.8235 14.249 19.8715C14.1504 19.886 14.0341 19.9097 13.9092 19.9353C13.9881 19.9189 14.086 19.788 14.1452 19.7302C14.2609 19.6171 14.3601 19.4824 14.4574 19.3542C14.5554 19.224 14.6421 19.086 14.7256 18.9466C14.8006 18.8217 14.8564 18.6416 14.9491 18.5345C15.0004 18.4753 15.0911 18.4431 15.1588 18.4819C15.3113 18.5693 15.2022 18.779 15.2732 18.898C15.3909 18.8579 15.4244 18.7422 15.45 18.6271C15.6111 17.9008 15.7866 17.177 15.9062 16.4434C16.0022 15.8544 16.0535 15.2819 16.2211 14.704C16.6661 13.1684 17.3984 11.5435 18.6514 10.5002C18.6961 10.4634 18.7421 10.426 18.798 10.4102C19.193 10.2978 19.1542 10.9341 19.1168 11.1477C19.0464 11.5461 18.7835 11.9155 18.6053 12.2744C18.4982 12.4907 18.3411 12.7425 18.2944 12.9811C18.253 13.1908 18.3444 13.2 18.3759 13.3795C18.3779 13.39 18.3792 13.4012 18.3805 13.4117H18.3799Z" fill="#0E446D"/>
<path d="M15.5458 26.4028C15.4104 26.8511 15.2119 27.1739 15.0955 27.1529C14.8497 27.1082 15.0002 26.7276 15.1356 26.2792C15.2711 25.8309 15.5445 25.4661 15.6582 25.5003C15.772 25.5345 15.6819 25.9545 15.5465 26.4035L15.5458 26.4028Z" fill="#19343D"/>
<path d="M20.7236 27.2626C20.7236 27.2626 22.9258 28.743 25.6302 28.6378L25.9003 27.8049C23.4688 27.7214 21.6814 26.4804 21.1161 26.0347C21.0089 26.4495 20.8794 26.859 20.7236 27.2626Z" fill="#0E446D"/>
<path d="M28.2293 20.6306C28.1412 20.9027 28.0525 21.1756 27.9644 21.4477C27.9526 21.4832 27.9414 21.518 27.9296 21.5535L27.6896 22.2944C27.6896 22.2944 27.689 22.295 27.689 22.2957L27.4411 23.0602L26.8344 24.9291L25.9509 27.6512L25.901 27.8057C24.6073 27.761 23.4957 27.3889 22.6536 26.9833C21.9134 26.6264 21.381 26.2438 21.1167 26.0354C21.21 25.6758 21.2863 25.313 21.3487 24.9468C21.6952 22.9037 21.6025 20.7654 21.5105 18.6789C21.3829 15.7865 21.2902 12.787 22.3972 10.1116L22.5221 10.0471L25.6038 8.46094L26.0587 10.5704L28.2293 20.6306V20.6306Z" fill="#1E599E"/>
<path d="M22.052 20.5791C22.1151 22.0877 22.0362 23.6588 21.3486 24.9465C21.6951 22.9035 21.6024 20.7651 21.5103 18.6786C21.3828 15.7863 21.2901 12.7867 22.3971 10.1113L22.522 10.0469C21.9232 13.4809 21.9061 17.1207 22.052 20.5791V20.5791Z" fill="#5F85BC"/>
<path d="M28.2292 20.6303C28.1411 20.9025 28.0524 21.1753 27.9643 21.4474C27.9525 21.4829 27.9413 21.5178 27.9295 21.5533C27.848 21.7998 27.7625 22.0456 27.6889 22.2954C27.6179 22.5354 27.7047 22.7608 27.5239 22.9745C27.4982 23.0047 27.4706 23.033 27.4411 23.0599C27.3464 23.1441 27.234 23.2111 27.1242 23.2769C26.8902 23.4156 26.6529 23.5562 26.3919 23.6312C26.4938 23.7903 26.549 23.9737 26.6029 24.1544C26.6798 24.4128 26.7574 24.6705 26.8343 24.9288L25.9508 27.6509L25.9009 27.8054C25.2922 27.7844 24.6874 27.6891 24.1004 27.5273C23.8447 27.457 23.5922 27.3742 23.3437 27.2802C23.2116 27.2302 22.7147 27.106 22.6522 26.9771C22.595 26.8595 22.7508 26.3145 22.7672 26.1541C22.8041 25.8031 22.8409 25.4527 22.8783 25.1017C22.952 24.4003 23.0262 23.6989 23.0999 22.9975C23.8216 23.0402 24.527 23.104 25.2494 23.1053C25.2744 23.1053 25.3014 23.1053 25.3217 23.0908C25.3743 23.0547 25.3441 22.9738 25.3138 22.918C25.2251 22.7569 25.1041 22.4946 25.185 22.3099C25.256 22.1469 25.471 22.0779 25.5794 21.9438C25.8299 21.6341 25.7214 21.197 25.4775 20.917C25.1495 20.5403 24.7774 20.2142 24.6006 19.7225C24.4192 19.2177 24.3475 18.6813 24.1444 18.1817C23.894 17.5677 23.5837 16.9656 23.4969 16.3089C23.3937 15.5279 23.6152 14.7398 23.9091 14.0094C24.4014 12.7841 25.1041 11.6443 25.9778 10.6543C26.0047 10.624 26.031 10.5964 26.0586 10.5708L28.2292 20.631V20.6303Z" fill="#0E446D"/>
<path d="M21.5418 26.4244C21.4629 26.7991 21.384 27.1738 21.3045 27.5478C21.2913 27.6096 21.3866 27.6359 21.3998 27.5741C21.4787 27.1994 21.5575 26.8247 21.6371 26.4507C21.6502 26.3889 21.5549 26.3626 21.5418 26.4244Z" fill="#5F85BC"/>
<path d="M22.1159 26.7945C22.0107 27.1272 21.9055 27.4598 21.8004 27.7924C21.7813 27.8529 21.8766 27.8792 21.8957 27.8187C22.0009 27.4861 22.106 27.1535 22.2112 26.8208C22.2303 26.7604 22.135 26.7341 22.1159 26.7945Z" fill="#5F85BC"/>
<path d="M22.8966 27.1822C22.8263 27.501 22.7553 27.8192 22.685 28.138C22.6712 28.1998 22.7665 28.2261 22.7803 28.1643C22.8506 27.8455 22.9216 27.5273 22.9919 27.2085C23.0057 27.1467 22.9104 27.1204 22.8966 27.1822Z" fill="#5F85BC"/>
<path d="M22.5575 27.0169C22.4372 27.3292 22.3169 27.6414 22.1959 27.9537C22.1729 28.0128 22.2682 28.0385 22.2913 27.98C22.4116 27.6677 22.5318 27.3555 22.6528 27.0432C22.6758 26.9841 22.5805 26.9584 22.5575 27.0169Z" fill="#5F85BC"/>
<path d="M26.1802 10.9683C26.1802 10.9683 27.0775 10.0572 27.6816 10.5351" stroke="black" stroke-miterlimit="10"/>
<path d="M26.2958 20.7178C25.8797 20.5042 25.5294 20.1847 25.246 19.8501C24.6538 19.1513 24.354 18.3875 24.354 18.3875L25.1172 17.9392L25.3249 17.8169L26.2958 20.7178Z" fill="#8F8FB7"/>
<path d="M26.2958 20.7178C25.8797 20.5042 25.5293 20.1847 25.246 19.8501C25.0593 19.2328 25.0093 18.5742 25.1172 17.9392L25.3249 17.8169L26.2958 20.7178Z" fill="#5D5D9F"/>
<path d="M23.9544 24.0494C23.9544 24.0494 31.5811 24.9796 31.8808 24.8922C31.8808 24.8922 31.6146 24.6292 31.6231 24.0356L23.4331 23.4111C23.4331 23.4111 23.485 24.1349 23.9544 24.0494Z" fill="#D8BF9C"/>
<path d="M23.9633 24.0493L23.5137 28.4201L31.3783 29.0728C31.3783 29.0728 32.0771 26.9325 31.8812 24.892L23.964 24.0493H23.9633Z" fill="#AE3452"/>
<path d="M30.654 25.7135L29.8413 25.6284L29.5685 28.2324L30.3812 28.3176L30.654 25.7135Z" fill="#E8496F"/>
<path d="M20.5804 9.6087C20.5804 9.6087 19.858 13.9841 17.8839 16.9829C17.8839 16.9829 16.4233 19.3409 16.4489 21.238C16.4489 21.238 16.4489 24.749 15.7054 25.8514C15.7054 25.8514 15.2696 26.2103 15.7054 24.2362C15.7054 24.2362 16.4022 19.6985 16.3838 17.988C16.3832 17.8809 16.3792 17.7843 16.372 17.7008C16.372 17.7008 16.2747 13.9413 18.2172 10.8314C18.2172 10.8314 18.8174 9.86046 19.881 9.63828C20.0953 9.59292 20.3293 9.57846 20.5804 9.6087V9.6087Z" fill="#1E599E"/>
<path d="M20.0005 9.72035C19.2781 10.4079 18.7344 11.037 18.2736 11.9343C17.6373 13.1728 17.2495 14.5145 16.8886 15.8535C16.7072 16.5266 16.577 17.2747 16.3837 17.9879C16.3831 17.8808 16.3791 17.7842 16.3719 17.7007C16.3719 17.7007 16.2746 13.9412 18.2171 10.8313C18.2171 10.8313 18.8173 9.86037 19.8809 9.63818C19.921 9.66448 19.9604 9.69209 20.0005 9.72035V9.72035Z" fill="#5F85BC"/>
<path d="M23.1113 28.9624C23.1113 28.9624 30.3028 29.585 31.1462 29.5357C31.1462 29.5357 31.3447 29.2878 31.3776 29.0729C31.3776 29.0729 23.8929 28.4247 23.2862 28.2979L23.112 28.9624H23.1113Z" fill="#311914"/>
<path d="M23.4323 23.4111L22.9945 27.4637C22.9945 27.4637 22.6408 29.4417 23.312 28.8902C23.312 28.8902 23.7991 28.5635 23.9628 24.0494C23.9628 24.0494 23.5578 24.2079 23.4323 23.4111V23.4111Z" fill="#FCDFB1"/>
<path d="M23.1089 29.0528C23.074 29.0528 23.0412 29.0436 23.0109 29.0259C22.6993 28.8431 22.8893 27.6823 22.9241 27.5067L23.3613 23.4587L23.498 23.418L23.0602 27.4706C22.9636 28.0116 22.9057 28.8122 23.0773 28.9128C23.1299 28.9437 23.2213 28.88 23.2706 28.8392L23.2765 28.8346C23.3107 28.8017 23.7195 28.3199 23.897 24.0464L24.0285 24.0517C23.9503 25.9337 23.8122 27.37 23.6301 28.2062C23.5052 28.7781 23.3942 28.9115 23.3521 28.9417C23.262 29.0154 23.1805 29.0522 23.1089 29.0522V29.0528Z" fill="#AE3452"/>
<path d="M32.0734 13.4995C31.9321 13.418 31.7829 13.3536 31.6297 13.2964C31.1124 13.4081 30.5839 13.4673 30.0547 13.4699C30.8553 13.9209 31.7296 14.2417 32.6315 14.4146C32.6256 14.4238 32.6204 14.4336 32.6151 14.4428C32.6677 14.4238 32.7071 14.3705 32.7163 14.3133C32.7282 14.243 32.7032 14.1713 32.6729 14.1069C32.5494 13.8453 32.3232 13.6435 32.0728 13.4989L32.0734 13.4995Z" fill="#5D5D9F"/>
<path d="M30.0552 13.4701C30.5843 13.4668 31.4435 13.334 31.6302 13.2966C31.9911 13.2183 32.3461 13.1151 32.6918 12.9863C32.7793 12.9534 32.7806 12.8305 32.6938 12.7963C30.7546 12.0246 28.9291 10.9682 27.2949 9.66992C27.4224 12.0877 27.5776 15.1871 29.6134 16.4979C30.2478 16.9068 30.984 17.1559 31.736 17.2151C31.8905 17.2269 32.047 17.1894 32.1705 17.0961C32.4433 16.8903 32.3533 16.6129 32.2987 16.3605C32.1587 15.7124 32.2751 15.0123 32.6162 14.4437C32.6037 14.4483 32.5906 14.4515 32.5768 14.4509C32.5906 14.4509 32.6037 14.4476 32.6162 14.4437C32.6222 14.4345 32.6268 14.4246 32.6327 14.4154C31.7301 14.2425 30.8558 13.9217 30.0558 13.4708L30.0552 13.4701Z" fill="#8F8FB7"/>
<path d="M28.3592 29.7034C28.2224 29.7133 28.091 29.6614 27.9832 29.5759C27.8379 29.4615 27.7071 29.5858 27.7071 29.5858C27.3889 29.8888 27.0707 29.6463 27.0707 29.6463C26.8755 29.5437 26.5705 29.5707 26.5705 29.5707C25.6752 29.451 26.1307 28.1869 26.1452 28.1468C25.9007 28.4334 25.0086 28.373 25.0086 28.373C24.0081 28.085 24.8416 27.8096 24.8416 27.8096C25.7902 27.4822 26.2944 26.8683 26.5304 26.4804C26.6573 26.2727 26.7066 26.1294 26.7066 26.1294L28.1929 26.7506C28.3046 26.9123 28.4052 27.1332 28.492 27.3685C28.7233 27.9937 28.8594 28.7214 28.8594 28.7214C28.985 29.5115 28.6326 29.6831 28.3592 29.7034V29.7034Z" fill="#F27780"/>
<path d="M28.4849 27.3613C28.4816 27.3481 27.7184 27.4264 27.6073 27.3514C27.4529 27.2482 27.3858 27.0799 27.253 26.9616C27.1301 26.8525 26.9526 26.7861 26.8133 26.696C26.714 26.6323 26.616 26.5619 26.5312 26.4804C26.6581 26.2727 26.7074 26.1294 26.7074 26.1294L28.1937 26.7506C28.3193 26.8032 28.4527 27.2423 28.4849 27.3613V27.3613Z" fill="#C45361"/>
<path d="M15.0982 9.53185C14.926 10.0216 15.0042 10.5527 15.1975 11.0241C15.4006 11.5204 15.7273 11.9444 16.0547 12.3638C16.382 12.7831 16.7166 13.2255 16.9368 13.7271C17.1393 14.1873 17.2609 14.6796 17.351 15.1726C17.5337 16.1731 17.583 17.2012 17.8775 18.1794C18.0149 18.6356 18.2003 19.1017 18.5027 19.475C18.7781 19.8149 19.187 20.0739 19.6392 19.974C20.0645 19.8806 20.3742 19.5066 20.5576 19.1326C20.7909 18.658 20.8836 18.1031 20.8692 17.5773C20.8554 17.0836 20.76 16.5235 20.4577 16.1186C20.2111 15.7879 19.774 15.5901 19.373 15.7597C18.972 15.9293 18.9004 16.3953 19.1088 16.7358C19.348 17.1276 19.8811 17.1802 20.2644 16.9843C20.6904 16.7661 20.9119 16.2862 20.9651 15.8307C21.0269 15.3002 20.8685 14.769 20.6397 14.2957C20.1618 13.3077 19.3217 12.5209 19.0351 11.4382C18.7347 10.3023 18.9924 9.11509 19.3881 8.03702C19.49 7.75962 19.6018 7.4855 19.7168 7.21335C19.7411 7.1555 19.6563 7.10555 19.6314 7.16339C19.2113 8.15732 18.8287 9.19463 18.8064 10.2858C18.7958 10.8104 18.8688 11.3409 19.0581 11.8313C19.2396 12.302 19.5183 12.7253 19.8029 13.1394C20.3643 13.9565 21.0545 14.9182 20.8435 15.97C20.7521 16.4249 20.4609 16.8798 19.9798 16.9797C19.7562 17.0264 19.5038 16.9883 19.325 16.8397C19.1692 16.7102 19.0818 16.5005 19.0943 16.2987C19.1219 15.8353 19.653 15.7031 20.0185 15.8708C20.453 16.0706 20.6286 16.5925 20.7114 17.027C20.8133 17.5602 20.787 18.1176 20.6378 18.6395C20.5175 19.0616 20.3012 19.5033 19.9199 19.7485C19.7418 19.8629 19.5321 19.9194 19.3211 19.8898C19.0989 19.8589 18.901 19.7386 18.74 19.5868C18.4027 19.2686 18.2009 18.8229 18.0504 18.3917C17.7342 17.4872 17.6612 16.5235 17.5186 15.5822C17.4476 15.1135 17.3602 14.6454 17.2162 14.1932C17.0703 13.733 16.8612 13.3025 16.5858 12.9061C16.0146 12.0837 15.1916 11.3199 15.1061 10.2628C15.0864 10.0229 15.1133 9.78428 15.1935 9.55618C15.2146 9.49636 15.1192 9.47072 15.0982 9.52988V9.53185Z" fill="#13103D"/>
<path d="M26.7326 25.403C26.7326 25.403 26.5499 25.8296 26.542 26.1662C26.542 26.1662 27.0955 26.6441 27.6963 26.7026L26.7326 25.4023V25.403Z" fill="#F9BE58"/>
<path d="M29.3493 25.8769C29.1258 26.107 29.0239 26.5152 28.9825 26.7414C28.9608 26.861 28.8832 26.9629 28.7747 27.0181C28.6656 27.074 28.5585 27.1055 28.454 27.1167C28.404 27.1213 28.3553 27.1226 28.3067 27.1187C28.1371 27.1075 27.9747 27.0444 27.8216 26.9484C27.7749 26.9189 27.7289 26.886 27.6835 26.8505C27.4857 26.6947 27.3069 26.4876 27.1537 26.2733C27.1143 26.2194 27.0768 26.1642 27.0413 26.1096C26.9006 25.8947 26.7869 25.6824 26.7047 25.5174C26.6087 25.3234 26.5956 25.0993 26.6692 24.8955L26.8224 24.4722L29.3493 25.0907C29.5853 25.6331 29.3493 25.8769 29.3493 25.8769V25.8769Z" fill="#0E446D"/>
<path d="M27.5485 24.9798C27.3546 25.3743 27.2284 25.7963 27.1731 26.2328C27.1705 26.2505 27.1633 26.2643 27.1534 26.2735C27.114 26.2196 27.0765 26.1644 27.041 26.1098C27.1035 25.6944 27.231 25.2901 27.4164 24.9128C27.4584 24.8273 27.5906 24.8937 27.5485 24.9798Z" fill="#5F85BC"/>
<path d="M28.2555 25.2618C28.0129 25.791 27.8644 26.3609 27.823 26.942C27.823 26.9447 27.8223 26.9466 27.8216 26.9486C27.775 26.919 27.729 26.8861 27.6836 26.8506C27.7362 26.2774 27.8828 25.7193 28.1234 25.1954C28.1628 25.1087 28.2949 25.175 28.2555 25.2618Z" fill="#5F85BC"/>
<path d="M28.82 25.3359C28.6064 25.9058 28.4822 26.508 28.4539 27.1167C28.4039 27.1213 28.3553 27.1226 28.3066 27.1186C28.3356 26.4849 28.4651 25.8631 28.6879 25.2688C28.7214 25.1801 28.8529 25.2471 28.82 25.3359V25.3359Z" fill="#5F85BC"/>
<path d="M26.5356 5.29805C26.5356 5.29805 26.2069 7.98073 26.0156 8.55526L23.2231 10.0613C23.2231 10.0613 22.7814 10.3538 22.1786 10.4156C21.5449 10.482 20.7344 10.2927 20.075 9.23957C20.075 9.23957 19.8949 8.86816 19.9567 8.45008C19.9593 8.43233 19.9626 8.41459 19.9659 8.39618C19.9692 8.37975 19.9725 8.36331 19.9764 8.34688C19.9975 8.25813 20.031 8.16873 20.081 8.0813C20.1322 7.98927 20.2019 7.89987 20.2939 7.81639L19.7188 4.06616L20.666 4.06814L24.5773 4.07734C24.2 1.75818 22.2949 1.13829 21.3201 0.973294C20.9723 0.914132 20.7429 0.912817 20.7429 0.912817C20.6699 1.09491 20.288 1.3309 20.288 1.3309C19.8154 0.894411 20.8639 0.403365 20.8639 0.403365C20.8639 0.403365 22.8228 -0.323015 24.4156 0.52892C24.5503 0.60123 24.6825 0.684714 24.8106 0.780688C24.8106 0.780688 26.9188 2.25909 26.5356 5.29805V5.29805Z" fill="#E8496F"/>
<path d="M20.2939 7.81663L19.7188 4.06641L20.666 4.06838C20.664 4.0835 20.6614 4.09796 20.6594 4.11308C20.5385 4.93017 20.6358 5.77751 20.9381 6.5453C21.0289 6.77538 21.138 7.00019 21.186 7.2421C21.2346 7.48467 21.2149 7.75353 21.0657 7.95073C20.952 8.10061 20.7758 8.17226 20.7265 8.36093C20.6995 8.46479 20.71 8.56799 20.7436 8.66397C20.6404 8.6002 20.545 8.52461 20.457 8.43652C20.434 8.41286 20.081 8.10784 20.081 8.08221C20.1322 7.98952 20.2019 7.90012 20.2939 7.81663V7.81663Z" fill="#F96495"/>
<path d="M22.1786 10.4159C21.5449 10.4823 20.7344 10.293 20.0751 9.23987C20.0751 9.23987 19.895 8.86847 19.9568 8.45039C19.9594 8.43264 19.9627 8.41489 19.966 8.39648C20.2342 8.7462 20.5826 8.95458 21.0046 9.05384C21.1512 9.24316 21.1794 9.39501 21.2629 9.65204C21.374 9.99649 21.6882 10.245 22.0281 10.3686C22.0774 10.3863 22.128 10.4021 22.1786 10.4159V10.4159Z" fill="#F96495"/>
<path d="M24.4155 0.52892C23.3006 0.327112 22.0621 0.378385 21.32 0.973294C20.9722 0.914132 20.7428 0.912817 20.7428 0.912817C20.6699 1.09491 20.2879 1.3309 20.2879 1.3309C19.8153 0.894411 20.8638 0.403365 20.8638 0.403365C20.8638 0.403365 22.8227 -0.323015 24.4155 0.52892Z" fill="#F37780"/>
<path d="M24.5566 6.0815C23.0625 7.76433 21.5992 8.1272 21.0582 8.20542C21.0523 8.20608 21.0463 8.20674 21.0404 8.20739C20.9109 8.2258 20.8393 8.22646 20.8393 8.22646C19.8973 8.29416 19.5995 7.63023 19.5995 7.63023C18.3367 4.74706 20.529 1.95855 20.529 1.95855C20.9044 1.87046 21.2449 1.82445 21.5545 1.81459C23.2932 1.75871 24.0426 2.83349 24.3575 3.91813C24.671 4.99489 24.5566 6.0815 24.5566 6.0815V6.0815Z" fill="#F27780"/>
<path d="M20.5604 8.20702C20.1857 8.16824 19.765 8.00719 19.6 7.62986C18.3372 4.74669 20.5295 1.95818 20.5295 1.95818C20.5992 1.87009 21.0324 1.86023 21.1461 1.84643C21.338 1.82276 21.5083 1.81356 21.6759 1.70312C21.1619 2.23361 20.6807 2.818 20.3921 3.50363C20.3435 3.61867 20.2961 3.74093 20.2008 3.82113C20.0496 3.94734 19.9181 3.85071 19.8721 4.07947C19.8274 4.30429 19.765 4.52845 19.7177 4.75524C19.5691 5.47241 19.4981 6.24481 19.696 6.95936C19.7722 7.23479 19.8774 7.50299 20.0089 7.75673C20.0818 7.89807 20.3928 8.19125 20.5597 8.20834L20.5604 8.20702Z" fill="#F6A4AE"/>
<path d="M24.5566 6.08133C23.0624 7.76417 21.5991 8.12703 21.0581 8.20526C21.6208 8.05275 22.1467 7.76351 22.5779 7.37107C22.8553 7.1193 23.0821 6.8557 23.2017 6.50204C23.3405 6.09119 23.3194 5.65734 23.4305 5.24123C23.5469 4.80277 23.7526 4.38075 24.0793 4.06062C24.1293 4.01263 24.1845 3.96464 24.2522 3.94952C24.291 3.94032 24.3258 3.9298 24.3574 3.91797C24.6709 4.99472 24.5566 6.08133 24.5566 6.08133V6.08133Z" fill="#C45361"/>
<path d="M21.0049 9.05361C20.5829 8.95435 20.2345 8.74596 19.9663 8.39625C19.9696 8.37981 19.9729 8.36338 19.9768 8.34695C19.9979 8.2582 20.0314 8.16946 20.0813 8.08203C20.0813 8.10767 20.4343 8.41268 20.4574 8.43635C20.5454 8.52443 20.6408 8.60003 20.744 8.66379C20.7841 8.77883 20.857 8.88467 20.9366 8.97275C20.9615 9.00036 20.9846 9.02731 21.0049 9.05361V9.05361Z" fill="#CE3460"/>
<path d="M22.4921 8.90203C22.2758 9.00786 22.0411 9.07491 21.8018 9.10318C21.5816 9.12881 21.3575 9.12158 21.1399 9.0828C21.0939 9.07491 21.0492 9.06505 21.0051 9.05388C20.9847 9.02758 20.9617 9.00063 20.9367 8.97302C20.8572 8.88493 20.7842 8.7791 20.7441 8.66406C20.8487 8.72914 20.9604 8.78239 21.0801 8.82643C21.5527 8.99932 22.0924 8.998 22.5571 8.80014C22.5801 8.83892 22.5328 8.88165 22.4921 8.90203V8.90203Z" fill="#CE3460"/>
<path d="M25.2779 7.6773C25.2877 7.71345 25.2713 7.75684 25.218 7.79431C25.1411 7.84887 25.0478 7.87385 24.9558 7.89554C24.821 7.92709 24.6849 7.95339 24.5488 7.98034C23.8948 8.10721 23.2164 8.25248 22.5479 8.2722C22.3612 8.27746 22.1725 8.263 21.9858 8.25314C21.8563 8.24657 21.7268 8.23868 21.598 8.2275C21.5217 8.22093 21.404 8.2275 21.3337 8.19266C21.31 8.18083 21.2647 8.17492 21.3068 8.13613C21.3285 8.11575 21.4218 8.1427 21.4494 8.14336C21.6315 8.14599 21.8234 8.13613 22.0022 8.10261C22.2849 8.05002 22.561 7.9685 22.8331 7.87845C23.1053 7.78839 23.3367 7.67992 23.5911 7.58198C23.6272 7.56817 23.6647 7.55437 23.7035 7.55634C23.7423 7.55831 23.7824 7.57869 23.7962 7.61419C23.829 7.69899 23.6088 7.75421 23.5477 7.7805C23.4307 7.83177 23.3097 7.8745 23.1881 7.91394C23.0054 7.97376 22.8193 8.03161 22.6333 8.07434C22.5281 8.09866 22.4243 8.09077 22.3204 8.12627C22.3086 8.13022 22.2961 8.13482 22.2875 8.14468C22.2606 8.17426 22.2954 8.18609 22.3197 8.18609C23.1631 8.19727 23.9493 7.90343 24.748 7.67204C24.8782 7.63457 25.0116 7.59973 25.1477 7.60236C25.218 7.60367 25.266 7.63522 25.2779 7.6773Z" fill="#CE3460"/>
<path d="M24.577 4.07761C20.9373 4.31426 20.4515 2.25212 20.4515 2.25212C19.9427 2.63142 19.5371 3.86397 19.5371 3.86397C19.476 3.80415 19.4234 3.74367 19.3787 3.68188C18.4682 2.43881 20.7427 0.913086 20.7427 0.913086C21.0832 0.936093 21.3935 0.982766 21.6768 1.04916C24.3785 1.68022 24.577 4.07761 24.577 4.07761V4.07761Z" fill="#13103D"/>
<path d="M24.6319 6.94252C24.6254 8.23883 23.7853 9.33794 22.9274 10.2313C22.276 10.909 21.4674 11.427 20.9093 12.1948C20.5576 12.6786 20.3433 13.2361 20.2743 13.8297C20.2671 13.8928 20.3657 13.8921 20.3729 13.8297C20.436 13.2893 20.6266 12.7785 20.9343 12.3302C21.2078 11.9312 21.5588 11.5933 21.921 11.2752C22.2648 10.9734 22.6224 10.6875 22.9419 10.3588C23.3803 9.90786 23.7951 9.42668 24.1238 8.8883C24.4834 8.29931 24.7286 7.63801 24.7318 6.94187C24.7318 6.8781 24.6332 6.8781 24.6332 6.94187L24.6319 6.94252Z" fill="#362B63"/>
<path d="M21.1774 5.14192C21.2689 5.14192 21.343 5.00565 21.343 4.83756C21.343 4.66947 21.2689 4.5332 21.1774 4.5332C21.0859 4.5332 21.0117 4.66947 21.0117 4.83756C21.0117 5.00565 21.0859 5.14192 21.1774 5.14192Z" fill="#13103D"/>
<path d="M20.0894 4.61217C20.1128 4.46479 20.0665 4.33501 19.9862 4.32231C19.9059 4.3096 19.8219 4.41877 19.7986 4.56615C19.7752 4.71353 19.8215 4.84331 19.9018 4.85602C19.9821 4.86872 20.0661 4.75955 20.0894 4.61217Z" fill="#13103D"/>
<path d="M21.1783 6.01485C21.1066 5.81238 21.012 5.65527 21.012 5.65527C20.5965 6.0464 20.2915 6.28897 20.2915 6.28897C20.4585 6.59267 20.6136 6.73531 20.7372 6.79908C20.7418 6.64525 20.7832 6.49209 20.8581 6.35733C20.9351 6.21929 21.0462 6.10096 21.1783 6.01485V6.01485Z" fill="#13103D"/>
<path d="M20.8583 6.35745C20.7833 6.49221 20.7426 6.64472 20.7373 6.7992C20.9036 6.88465 21.0121 6.82878 21.0121 6.82878C21.3316 6.67167 21.2783 6.29895 21.1784 6.01562C21.0463 6.10174 20.9345 6.22006 20.8583 6.35811V6.35745Z" fill="#AE3452"/>
<path d="M21.5745 3.75704L21.9702 4.36115C22.0156 4.43018 21.9551 4.52023 21.8736 4.50314C21.6757 4.46173 21.3766 4.36773 21.1551 4.15737C21.0368 4.04496 20.9842 3.87471 21.0302 3.71891C21.0631 3.60782 21.1407 3.51382 21.3162 3.56246C21.4233 3.59204 21.5134 3.66501 21.5739 3.7577L21.5745 3.75704Z" fill="#13103D"/>
<path d="M20.3093 3.66482C20.2548 3.79235 20.1391 3.87978 20.0201 3.94289C19.9386 3.98627 19.8498 4.00928 19.7591 4.02177C19.7539 4.02243 19.7486 4.02308 19.7434 4.02374C19.4397 4.05792 19.4042 3.79367 19.5738 3.63787C19.6816 3.53927 19.7933 3.46893 19.9222 3.42094C19.9826 3.39728 20.0471 3.37953 20.1161 3.36638C20.1831 3.35324 20.2568 3.38282 20.2988 3.43738C20.3462 3.49851 20.3402 3.5912 20.3093 3.66482V3.66482Z" fill="#13103D"/>
<path d="M27.681 10.5348C27.681 10.5348 28.009 10.3199 27.2695 9.47254C27.2695 9.47254 26.1868 8.05462 25.6038 8.46086C25.6038 8.46086 20.4968 11.2481 24.1766 18.3817C24.2187 18.4639 24.3127 18.5059 24.4021 18.4823C24.644 18.4192 25.0996 18.2627 25.2416 17.9603C25.2416 17.9603 23.7093 14.0261 26.1803 10.968" fill="#362B63"/>
<path d="M31.4812 22.1839C31.2965 22.4889 31.0184 22.7433 30.9054 23.0812C30.7706 23.4822 30.8922 23.9338 30.7594 24.3361C30.6319 24.7206 30.2809 25.004 29.8944 25.1394C29.5078 25.2748 29.0871 25.2807 28.6776 25.2524C28.249 25.2229 27.8151 25.1552 27.4128 25.0118C27.2209 24.9441 27.0362 24.8587 26.862 24.7515C26.3229 24.4209 25.9022 23.8569 25.8739 23.2317C25.8634 22.9905 25.9311 22.7242 26.0928 22.5553C26.104 22.5441 26.1145 22.5336 26.1264 22.5231H26.127C26.1757 22.479 26.2322 22.4442 26.296 22.4199C26.3269 22.4087 26.3591 22.3989 26.3919 22.3896C26.4261 22.3791 26.4603 22.3693 26.4925 22.3561C26.5471 22.3344 26.5944 22.3055 26.6233 22.2562C26.6766 22.1675 26.6444 22.0551 26.6108 21.9571C26.2223 20.8251 25.8332 19.6932 25.4447 18.5612C25.2468 17.986 25.049 17.4062 24.903 16.8166C24.8156 16.4649 24.7472 16.1093 24.7085 15.7484C24.5724 14.4678 24.8288 13.1492 25.4368 12.0093C25.7583 11.4059 26.3124 10.6295 27.0204 10.4363C27.6745 10.2581 28.3134 11.0174 28.6782 11.4611C29.0937 11.9672 29.3869 12.6016 29.3514 13.2517C29.333 13.5929 29.2317 13.9636 29.4099 14.2575C29.54 14.4718 29.7879 14.5848 29.9686 14.7604C30.4393 15.2185 30.3578 15.9475 30.3854 16.6148C30.3854 16.6187 30.3854 16.6233 30.3854 16.6272C30.3887 16.6963 30.3926 16.764 30.3985 16.8317C30.4847 17.7691 31.0033 18.6033 31.3767 19.469C31.7501 20.3347 31.9696 21.376 31.4806 22.1839H31.4812Z" fill="#1E599E"/>
<path d="M24.7773 15.8825C24.8063 14.882 25.1921 13.896 25.837 13.1269C26.5088 12.273 27.249 11.6472 28.3981 11.7425L28.3994 11.7688C28.1555 11.8207 27.9202 11.8825 27.6973 11.97C27.0189 12.2395 26.4977 12.7305 25.9954 13.2656C25.6661 13.6193 25.3953 14.0288 25.1948 14.4732C24.9903 14.9156 24.8589 15.3941 24.8036 15.8845L24.7773 15.8825V15.8825Z" fill="#0E446D"/>
<path d="M26.8918 11.0586C27.0279 11.196 27.1587 11.338 27.2823 11.4859C27.3441 11.5595 27.4256 11.62 27.4611 11.7107C27.4992 11.7994 27.5275 11.8954 27.5189 12.0144L27.4972 12.0289C27.2797 11.95 27.181 11.8008 27.1068 11.6016C27.02 11.4293 26.9418 11.2525 26.8701 11.0731L26.8918 11.0586Z" fill="#0E446D"/>
<path d="M27.788 23.7765C27.7577 23.7436 27.7281 23.7108 27.6992 23.6792C27.7314 23.7088 27.761 23.7416 27.788 23.7765Z" fill="#0E446D"/>
<path d="M30.3854 16.6147C30.3854 16.6147 27.2117 17.7704 30.578 17.6843C30.578 17.6843 30.3894 17.1163 30.3854 16.6147V16.6147Z" fill="#0E446D"/>
<path d="M28.1914 14.6322C28.104 14.8853 28.0533 15.1568 28.0948 15.421C28.1362 15.6853 28.2795 15.9423 28.5102 16.0777C28.7409 16.2132 29.0611 16.204 29.257 16.0212C29.3266 15.9561 29.3812 15.8602 29.3569 15.7681C29.3365 15.6912 29.2668 15.6367 29.1932 15.6071C29.1196 15.5775 29.0394 15.567 28.9631 15.5446C28.6246 15.444 28.3925 15.068 28.4543 14.7203C28.48 14.5776 28.547 14.4449 28.5766 14.3029C28.6036 14.1734 28.5589 13.8204 28.4267 14.0807C28.3373 14.2582 28.2558 14.4442 28.1907 14.6322H28.1914Z" fill="#0E446D"/>
<path d="M27.4126 25.012C27.2207 24.9443 27.036 24.8588 26.8618 24.7516C26.3227 24.421 25.902 23.857 25.8738 23.2318C25.8633 22.9906 25.931 22.7244 26.0927 22.5554C26.0946 22.5528 26.0966 22.5495 26.0992 22.5469C26.1052 22.5396 26.1144 22.5317 26.1262 22.5232H26.1269C26.1755 22.4792 26.232 22.4443 26.2958 22.42C26.3267 22.4088 26.3589 22.399 26.3918 22.3898C26.4424 22.3694 26.4825 22.3556 26.4904 22.3556C26.4917 22.3556 26.4923 22.3556 26.4923 22.3556C26.5469 22.3339 26.5942 22.305 26.6232 22.2557C26.6764 22.1669 26.6442 22.0545 26.6107 21.9566C26.2222 20.8246 25.833 19.6926 25.4445 18.5606C25.1638 17.7436 24.7129 16.7963 24.7937 15.9181C24.8779 15.0063 25.2263 14.1031 25.8416 13.4175C25.8383 13.4287 25.8343 13.4398 25.8317 13.451C25.672 14.1307 25.5911 14.7769 25.7088 15.4737C25.8159 16.1054 25.9934 16.701 26.2866 17.2755C26.3076 17.3163 26.3293 17.3583 26.3451 17.4011C26.3596 17.4379 26.3694 17.476 26.3714 17.5155C26.2734 17.4819 26.09 17.4412 26.0158 17.545C26.0059 17.5582 26.0013 17.574 25.9987 17.5897C25.9954 17.6101 25.9967 17.6325 25.9987 17.6535C26.0204 17.8967 26.0881 18.1321 26.1762 18.3588C26.2485 18.5449 26.2951 18.727 26.3582 18.9123C26.5219 19.3922 26.7612 19.8425 26.9117 20.3309C26.9887 20.5833 27.0978 20.8673 27.1214 21.1309C27.1418 21.3584 27.1346 21.6022 27.1313 21.8323C27.128 22.0847 27.1004 22.3865 26.8618 22.5317C26.8079 22.564 26.7481 22.5705 26.685 22.5666C26.5752 22.562 26.4575 22.5278 26.3523 22.5502C26.3135 22.5587 26.2899 22.5824 26.2761 22.6152C26.2748 22.6179 26.2734 22.6211 26.2728 22.6238C26.2419 22.7079 26.2669 22.8407 26.2708 22.913C26.3037 23.5783 26.5982 24.2304 27.0827 24.6899C27.1898 24.7917 27.3114 24.8969 27.4126 25.0113V25.012Z" fill="#5F85BC"/>
<path d="M27.6988 23.6785C27.4898 23.482 27.1848 23.3807 26.9021 23.2742C26.672 23.1881 26.4446 23.0777 26.271 22.9133C26.2658 22.8134 26.2664 22.7135 26.2737 22.6142C26.2743 22.6149 26.2756 22.6156 26.2763 22.6156C26.3072 22.6366 26.3394 22.653 26.3729 22.6649C26.3394 22.6524 26.3072 22.6359 26.2763 22.6156C26.2901 22.5827 26.3138 22.559 26.3525 22.5505C26.4577 22.5281 26.5754 22.5623 26.6852 22.5669C26.7121 22.5972 26.7391 22.6267 26.7654 22.6557C27.0855 23.006 27.3563 23.3032 27.6988 23.6785V23.6785Z" fill="#0E446D"/>
<path d="M26.6851 22.5669C26.5753 22.5623 26.4576 22.5281 26.3525 22.5505C26.3137 22.559 26.29 22.5827 26.2762 22.6155C26.2756 22.6155 26.2742 22.6149 26.2736 22.6142C26.2736 22.6175 26.2729 22.6208 26.2729 22.6241C26.2664 22.7201 26.2657 22.8167 26.271 22.9133C26.2328 22.8778 26.1973 22.839 26.1651 22.7976C26.0948 22.7069 26.0356 22.6353 26.0928 22.5551C26.0948 22.5524 26.0968 22.5491 26.0994 22.5465C26.1848 22.4611 26.2979 22.4111 26.4103 22.373C26.4287 22.3664 26.4649 22.3467 26.4846 22.3513C26.5076 22.3565 26.5359 22.4039 26.5516 22.421C26.5747 22.4466 26.5983 22.4722 26.6213 22.4972C26.6312 22.5084 26.6713 22.5656 26.6844 22.5662L26.6851 22.5669Z" fill="#1E599E"/>
<path d="M29.3246 19.3103C29.3246 19.3103 29.3233 19.3143 29.3226 19.3163C28.9414 20.5573 27.4538 19.2222 26.3579 18.0009C26.2324 17.8609 26.1121 17.7228 25.999 17.59C26.0017 17.5743 26.0063 17.5585 26.0161 17.5453C26.0904 17.4415 26.2738 17.4822 26.3717 17.5157C26.3698 17.4763 26.3599 17.4382 26.3455 17.4014C26.4552 17.4921 26.5617 17.5821 26.6636 17.6689C27.0804 18.0239 27.4058 18.3177 27.4058 18.3177C28.5312 19.3603 29.0945 19.0415 29.2654 18.8863C29.2924 18.8614 29.3364 18.8765 29.341 18.9126C29.3654 19.0941 29.3292 19.2847 29.3246 19.3103V19.3103Z" fill="#0E446D"/>
<path d="M26.3717 17.5158C26.2737 17.4823 26.0903 17.4415 26.0161 17.5454C26.0062 17.5585 26.0016 17.5743 25.999 17.5901C25.6795 17.2147 25.4192 16.8841 25.2693 16.6882C25.2377 16.6474 25.287 16.5948 25.3298 16.6224C25.6124 16.8078 25.9898 17.1056 26.3454 17.4014C26.3599 17.4382 26.3697 17.4763 26.3717 17.5158V17.5158Z" fill="#1E599E"/>
<path d="M24.9492 0.709248C24.9492 0.709248 24.1999 0.184019 23.2763 0.0380859L22.2876 0.122228C23.0363 0.19125 24.8644 0.820342 25.2937 3.87245L25.7407 4.30697C25.7407 4.30697 26.1588 1.50071 24.9499 0.709906L24.9492 0.709248Z" fill="#AE3452"/>
<path d="M22.2378 0.128867C22.2378 0.128867 24.8521 -0.368096 25.4483 3.87186L25.8953 4.30638C25.8953 4.30638 26.3134 1.50012 25.1045 0.709314C25.1045 0.709314 23.6077 -0.341801 22.2385 0.115062V0.128867H22.2378Z" fill="#DDE4DE"/>
<path d="M26.1814 5.61991C26.3367 4.63845 25.9125 3.75581 25.2341 3.64847C24.5556 3.54114 23.8798 4.24976 23.7245 5.23121C23.5692 6.21267 23.9934 7.09531 24.6718 7.20265C25.3503 7.30998 26.0261 6.60137 26.1814 5.61991Z" fill="#B7C2C4"/>
<path d="M26.2297 5.50049C26.358 4.69008 26.0078 3.96128 25.4477 3.87266C24.8876 3.78405 24.3296 4.36918 24.2014 5.17959C24.0732 5.99001 24.4233 6.71881 24.9834 6.80742C25.5435 6.89603 26.1015 6.3109 26.2297 5.50049Z" fill="#DDE4DE"/>
<path d="M25.7448 5.40375C25.7961 5.07959 25.656 4.78806 25.4319 4.7526C25.2077 4.71714 24.9845 4.95119 24.9332 5.27535C24.8819 5.59952 25.022 5.89105 25.2461 5.9265C25.4703 5.96196 25.6935 5.72792 25.7448 5.40375Z" fill="#8F8FB7"/>
<path d="M25.7608 5.36432C25.8032 5.09681 25.6875 4.85622 25.5024 4.82695C25.3174 4.79768 25.1331 4.9908 25.0908 5.25831C25.0485 5.52582 25.1642 5.76641 25.3492 5.79568C25.5342 5.82495 25.7185 5.63182 25.7608 5.36432Z" fill="#3E3E82"/>
<path d="M30.6583 39.885C30.3527 39.9579 30.1094 40.2103 30.0529 40.5127C30.0246 40.6626 30.0529 40.8414 30.0108 41.0018C29.974 41.1819 29.811 41.3311 29.6677 41.4107C29.4882 41.5185 29.3016 41.5974 29.2338 41.8084H29.2141C29.149 41.4475 29.5816 41.2753 29.7768 41.061C29.9122 40.9111 29.8695 40.6804 29.928 40.4838C30.0154 40.1558 30.3231 39.8942 30.6557 39.8652L30.659 39.885H30.6583Z" fill="#F9BE58"/>
<path d="M17.566 42.9052C18.5619 43.6454 19.1838 44.5618 19.0523 44.7379C18.9208 44.9141 18.1005 44.3606 17.0908 43.5442C16.1258 42.7639 15.3941 42.0605 15.5249 41.8837C15.6557 41.7069 16.5695 42.1644 17.5654 42.9052H17.566Z" fill="#F47623"/>
<path d="M17.7552 46.776C17.833 46.7656 17.883 46.6598 17.8671 46.5396C17.8511 46.4194 17.7751 46.3303 17.6974 46.3407C17.6197 46.351 17.5696 46.4568 17.5856 46.577C17.6015 46.6972 17.6775 46.7863 17.7552 46.776Z" fill="#F9BE58"/>
<path d="M17.2956 48.8966C17.2542 49.0826 17.1299 49.3666 16.8184 49.4606C16.6481 49.4192 16.7336 49.1359 16.5778 49.0642C15.737 48.6796 14.9916 48.14 14.2685 47.5615C14.1495 47.4662 14.0312 47.3702 13.9128 47.2736C13.0727 46.5846 12.2477 45.8681 11.3222 45.3094C11.0316 45.1339 10.7246 44.9721 10.3894 44.9189C10.3151 44.9071 10.2389 44.9012 10.1626 44.9025C10.0541 44.9044 9.94568 44.9189 9.84313 44.9491C9.84182 44.9491 9.84116 44.9498 9.83984 44.9498C9.84247 44.9445 9.84445 44.9393 9.84707 44.9347C10.0725 44.4627 10.4249 44.2977 10.8121 44.3003C11.5529 44.3062 12.4206 44.9301 12.7638 45.2022C12.8591 45.2778 12.9136 45.3258 12.9136 45.3258C12.9899 45.3646 13.0648 45.3975 13.1385 45.4251C13.5519 46.0108 13.8826 46.651 14.1173 47.3235C14.7332 47.2505 15.3281 47.2466 15.9447 47.3183C16.4575 47.3774 16.9709 47.5477 17.3679 47.8606C17.3705 47.8908 17.3725 47.9211 17.3745 47.9506C17.408 48.5179 17.2956 48.8966 17.2956 48.8966Z" fill="#13103D"/>
<path d="M10.826 44.2421C10.8267 44.2625 10.8221 44.2822 10.8122 44.3006C10.7905 44.344 10.7432 44.3756 10.6945 44.3736C10.6742 44.3729 10.6538 44.3743 10.6334 44.3756C10.6314 44.3762 10.6281 44.3769 10.6255 44.3775C10.6163 44.3795 10.6071 44.3815 10.5986 44.3835C10.5841 44.3874 10.5703 44.3927 10.5572 44.3973C10.5565 44.3973 10.5401 44.4038 10.5368 44.4058C10.5289 44.4098 10.5203 44.4137 10.5125 44.4183C10.4947 44.4288 10.477 44.4393 10.4599 44.4512C10.4585 44.4525 10.4493 44.4597 10.4447 44.4623C10.4408 44.4663 10.4349 44.4715 10.4336 44.4722C10.4033 44.4985 10.3777 44.5281 10.3507 44.557C10.3507 44.557 10.3503 44.5577 10.3494 44.559C10.3494 44.559 10.3481 44.5609 10.3468 44.5629C10.2732 44.6661 10.2061 44.7818 10.1627 44.9028C10.0543 44.9047 9.94581 44.9192 9.84326 44.9494C9.84458 44.9448 9.84589 44.9396 9.84721 44.935C9.87219 44.8482 9.91557 44.7614 9.93726 44.7227C10.0996 44.4354 10.3231 44.0988 10.6945 44.1107C10.7682 44.1133 10.8227 44.1692 10.826 44.2421V44.2421Z" fill="#F1AD1D"/>
<path d="M17.4337 47.8822C17.4232 47.9138 17.4035 47.9381 17.368 47.9453C17.2963 47.9598 17.1287 47.8599 17.059 47.8349C16.5759 47.6633 16.0763 47.5161 15.5649 47.4628C15.1297 47.4175 14.6939 47.4444 14.2705 47.545C14.2705 47.5509 14.2705 47.5568 14.2692 47.5621C14.1502 47.4668 14.0319 47.3708 13.9136 47.2742C13.6611 46.5491 13.2832 45.8687 12.7954 45.2745C12.7047 45.1608 12.8289 45.1555 12.9124 45.1871C13.2864 45.3271 13.4915 45.7774 13.6756 46.1067C13.886 46.484 14.0615 46.8804 14.1975 47.2906C14.4197 47.2367 14.6465 47.2019 14.8746 47.1861C15.321 47.1552 15.7686 47.2071 16.2038 47.307C16.422 47.357 16.637 47.4188 16.85 47.4878C16.9525 47.5213 17.4133 47.6173 17.4344 47.7245C17.4436 47.7711 17.4495 47.8349 17.4344 47.8829L17.4337 47.8822Z" fill="#F1AD1D"/>
<path d="M17.8077 44.5036C17.0649 46.454 17.2963 47.3842 17.2963 47.3842C17.3331 47.5525 17.3561 47.7122 17.3686 47.8608C16.9716 47.5472 16.4575 47.3769 15.9448 47.3178C15.3288 47.2468 14.7339 47.2507 14.1173 47.3237C13.8833 46.6512 13.552 46.011 13.1392 45.4253C14.6274 45.9774 15.5806 44.175 16.0677 42.8366C16.3333 42.1076 16.4601 41.5166 16.4601 41.5166L18.4197 43.1304C18.1647 43.634 17.9642 44.0915 17.8077 44.5036Z" fill="#F27780"/>
<path d="M18.4199 43.1304C18.1648 43.634 17.9643 44.0915 17.8079 44.5036C17.3261 43.8561 16.7364 43.2888 16.0679 42.8366C16.3334 42.1076 16.4603 41.5166 16.4603 41.5166L18.4199 43.1304V43.1304Z" fill="#C45361"/>
<path d="M15.209 44.463C15.1794 44.4301 15.2892 44.3959 15.3069 44.392C15.3792 44.3742 15.4568 44.3742 15.5304 44.3821C15.6652 44.3966 15.7966 44.4419 15.9235 44.4873C16.1746 44.5767 16.4172 44.6884 16.6453 44.8258C17.0765 45.0868 17.4538 45.4477 17.6813 45.9019C17.7148 45.9683 17.8174 46.1366 17.7602 46.2115C17.7247 46.2575 17.628 46.2372 17.5801 46.2306C17.5202 46.222 17.4644 46.2063 17.4085 46.1839C17.2908 46.1366 17.2395 46.3272 17.3559 46.3739C17.4808 46.4239 17.6464 46.4594 17.7786 46.4225C17.9252 46.3811 17.985 46.2411 17.964 46.0991C17.9429 45.9571 17.8614 45.8105 17.7891 45.685C17.7089 45.5456 17.6142 45.4148 17.5097 45.2925C17.0713 44.7791 16.4376 44.4222 15.7934 44.2362C15.6113 44.1836 15.4016 44.1494 15.2169 44.2118C15.0505 44.2677 14.9348 44.4518 15.0703 44.6017C15.1551 44.6963 15.2944 44.5563 15.2096 44.4623L15.209 44.463Z" fill="#F1AD1D"/>
<path d="M15.7225 44.594C15.7769 44.4856 15.7643 44.3693 15.6942 44.334C15.6241 44.2988 15.5232 44.3581 15.4687 44.4664C15.4143 44.5748 15.4269 44.6912 15.497 44.7264C15.567 44.7616 15.668 44.7023 15.7225 44.594Z" fill="#F9BE58"/>
<path d="M16.4018 44.8532C16.4277 44.7348 16.3865 44.6252 16.3098 44.6085C16.2332 44.5918 16.1502 44.6743 16.1244 44.7928C16.0986 44.9113 16.1398 45.0209 16.2164 45.0375C16.293 45.0542 16.376 44.9717 16.4018 44.8532Z" fill="#F9BE58"/>
<path d="M16.978 45.1555C17.0038 45.037 16.9626 44.9274 16.886 44.9107C16.8094 44.8941 16.7264 44.9766 16.7005 45.095C16.6747 45.2135 16.7159 45.3231 16.7925 45.3398C16.8692 45.3565 16.9522 45.274 16.978 45.1555Z" fill="#F9BE58"/>
<path d="M17.5227 45.6324C17.5692 45.5204 17.5556 45.4083 17.4922 45.3819C17.4289 45.3556 17.3398 45.425 17.2933 45.537C17.2467 45.649 17.2603 45.7611 17.3237 45.7874C17.3871 45.8138 17.4762 45.7443 17.5227 45.6324Z" fill="#F9BE58"/>
<path d="M11.3225 45.3093C11.0319 45.1338 10.725 44.972 10.3897 44.9188C10.2083 44.8899 10.0163 44.8984 9.84015 44.9497C9.84015 44.951 9.83884 44.9517 9.83818 44.953C9.83818 44.953 9.49109 45.6721 10.9544 46.7633C10.9544 46.7633 14.2267 49.0575 14.228 49.0582C14.8045 49.4625 15.5703 49.8089 16.2934 49.7372C16.5084 49.7155 16.816 49.6209 16.9324 49.4191C17.0487 49.2173 16.7122 49.1246 16.5774 49.0634C14.6152 48.1655 13.1697 46.4235 11.3218 45.3086L11.3225 45.3093Z" fill="#5F84BB"/>
<path d="M22.4224 32.933C22.4093 32.9541 22.3954 32.9771 22.381 33.0021C22.1759 33.3649 21.8899 34.1662 21.5705 35.1878C21.5264 35.3278 21.4817 35.4718 21.437 35.6197C20.8539 37.5313 20.1861 40.0391 19.699 41.9211C19.6267 42.2018 19.5583 42.4687 19.4945 42.7172C18.6373 41.6509 17.3943 40.8936 16.0493 40.6386C16.0782 40.5498 16.1078 40.4598 16.1374 40.3678C16.7579 38.4325 17.3851 35.8386 17.763 34.1886C17.8327 33.8842 17.8939 33.6121 17.9451 33.382C18.0135 33.0744 18.0635 32.8423 18.0924 32.7102C18.1101 32.628 18.1193 32.584 18.1193 32.584L18.7728 32.6372C18.805 32.6399 18.8385 32.6425 18.8733 32.6451C19.3631 32.6852 19.8528 32.7247 20.3425 32.7641L22.1752 32.9133L22.4224 32.933V32.933Z" fill="#F9BE58"/>
<path d="M22.3811 33.0021C22.176 33.3649 21.8901 34.1662 21.5706 35.1878C20.3164 35.0819 19.1022 34.6606 17.9091 34.2432C17.8605 34.2261 17.8112 34.2083 17.7632 34.1886C17.8329 33.8842 17.894 33.6121 17.9453 33.382C18.0136 33.0744 18.0636 32.8423 18.0925 32.7102C18.2693 32.6195 18.4613 32.6149 18.7729 32.6372C18.8051 32.6399 18.8386 32.6425 18.8735 32.6451C19.3632 32.6852 19.8529 32.7247 20.3427 32.7641C20.8403 32.8049 21.6252 32.7253 22.1754 32.9133C22.2483 32.9376 22.3174 32.9672 22.3811 33.0021V33.0021Z" fill="#E69A24"/>
<path d="M16.01 40.5835C15.8542 41.0542 15.699 41.4801 15.5498 41.8358C15.5498 41.8358 18.4146 43.1965 19.0588 44.6644C19.0588 44.6644 19.2507 43.8834 19.5492 42.7186C18.669 41.6228 17.3924 40.8458 16.0106 40.5842L16.01 40.5835Z" fill="#FCDFB1"/>
<path d="M15.7287 41.5656C15.893 41.4032 16.1908 41.4308 16.3341 41.6123C16.4084 41.6977 16.459 41.7943 16.5195 41.8706C16.5767 41.9436 16.6588 42.004 16.7285 42.008C16.7923 42.0139 16.858 41.9488 16.9376 41.9422C17.1177 41.9153 17.2761 42.0836 17.3307 42.2105C17.403 42.3531 17.4266 42.4806 17.5693 42.5339C17.61 42.5483 17.6561 42.5496 17.7014 42.5227L17.7159 42.5358C17.6896 42.5891 17.6232 42.6213 17.5601 42.6233C17.3695 42.6404 17.2321 42.4313 17.1584 42.3071C17.1052 42.2262 17.0467 42.1401 16.9533 42.1263C16.91 42.1263 16.8692 42.1546 16.8146 42.1638C16.7134 42.1861 16.6017 42.1401 16.5313 42.0783C16.3243 41.9153 16.3131 41.5689 16.0258 41.5183C15.9298 41.5005 15.824 41.5202 15.7405 41.58L15.728 41.5649L15.7287 41.5656Z" fill="#F9BE58"/>
<path d="M16.2586 40.925C16.4769 41.5015 17.1914 41.2583 17.6496 41.4634C17.7804 41.5179 17.908 41.6152 17.9796 41.7434C18.0677 41.8834 18.1117 42.1542 18.3168 42.1076C18.4049 42.0832 18.4976 42.0333 18.608 42.0491C18.7316 42.0661 18.825 42.1542 18.8815 42.2542C18.9768 42.4264 18.9564 42.6058 19.0261 42.7695C19.0892 42.9135 19.2108 43.0397 19.3712 43.1094L19.3666 43.1284C19.1852 43.112 19.009 43.0003 18.9045 42.8353C18.7592 42.6157 18.8092 42.3265 18.5798 42.2522C18.4996 42.2403 18.2978 42.3482 18.1775 42.2864C17.9296 42.197 17.927 41.8926 17.7844 41.7204C17.7344 41.6625 17.6687 41.6159 17.5964 41.579C17.2144 41.391 16.6807 41.5133 16.3651 41.1669C16.3027 41.1005 16.2586 41.017 16.2402 40.9289L16.2593 40.9243L16.2586 40.925Z" fill="#F9BE58"/>
<path d="M18.145 42.7692C18.6039 42.6712 18.7301 42.9086 18.878 43.2832C18.9108 43.3674 18.9338 43.4436 19.0279 43.5068V43.5265C18.9043 43.581 18.7636 43.4752 18.7031 43.3733C18.5901 43.1899 18.6453 42.9605 18.4428 42.8566C18.3593 42.8113 18.2515 42.8007 18.1463 42.7883V42.7685L18.145 42.7692Z" fill="#F9BE58"/>
<path d="M29.2014 32.2323C23.8985 35.8353 15.7617 32.9205 15.7617 32.9205C16.0352 32.114 16.2705 31.2719 16.4723 30.4134C17.4419 30.8104 18.4832 31.028 19.5205 31.1588C20.1575 31.2397 20.8069 31.2601 21.4512 31.3028C22.1585 31.3495 22.8684 31.3462 23.5757 31.2942C24.7156 31.2114 25.8601 31.0359 26.9315 30.6375C27.3983 30.464 27.8564 30.2655 28.3028 30.0439C28.7452 31.3199 29.2014 32.2323 29.2014 32.2323V32.2323Z" fill="#E8496F"/>
<path d="M22.9377 33.9293C22.8726 33.9293 22.8082 33.9096 22.7582 33.8636C22.7102 33.8195 22.684 33.761 22.6629 33.7137C22.6439 33.671 22.6248 33.6177 22.6051 33.5619C22.5531 33.4153 22.4887 33.2332 22.3947 33.1714C22.3211 33.1234 22.2508 33.1326 22.1916 33.199C22.1462 33.2503 22.1331 33.3495 22.1213 33.437C22.1167 33.4705 22.1127 33.5027 22.1068 33.5316C22.0956 33.5875 22.0825 33.6572 22.0417 33.7163C21.9911 33.79 21.9043 33.836 21.8143 33.836H21.8123C21.7163 33.8353 21.6223 33.7821 21.5671 33.6973C21.5079 33.6052 21.5139 33.5178 21.5263 33.4278C21.5369 33.3522 21.5211 33.2608 21.5073 33.1799L21.5053 33.1701C21.4961 33.1155 21.4849 33.0741 21.46 33.0471C21.4284 33.0136 21.366 33.0057 21.316 33.0287C21.1885 33.0866 21.1569 33.2213 21.1247 33.3646L21.1175 33.3949C21.0879 33.5198 21.0452 33.7032 20.9242 33.788C20.8736 33.8235 20.8125 33.8294 20.7533 33.8051C20.6567 33.765 20.5817 33.6506 20.5673 33.5678C20.5515 33.4757 20.5686 33.3877 20.5844 33.3029C20.5916 33.2647 20.5982 33.2292 20.6021 33.1937C20.6126 33.0971 20.5896 32.9847 20.5127 32.9518C20.4535 32.9268 20.3799 32.9591 20.3365 32.9992C20.2793 33.0517 20.2432 33.1287 20.2077 33.2036C20.1991 33.2213 20.1906 33.2411 20.1814 33.2628C20.113 33.4205 19.9986 33.6848 19.7521 33.6289C19.6897 33.6144 19.6351 33.5704 19.5944 33.5007C19.5227 33.3785 19.5188 33.2371 19.5161 33.1129L19.5142 33.0452C19.5109 32.9255 19.503 32.8782 19.4287 32.8565C19.3742 32.8407 19.3065 32.8565 19.2525 32.9006C19.1533 32.9801 19.1106 33.1129 19.0751 33.2424C19.0527 33.3239 19.0205 33.4159 18.9502 33.4817C18.8838 33.5435 18.799 33.5605 18.7188 33.527C18.6103 33.483 18.5209 33.3528 18.5156 33.2312C18.513 33.1688 18.5216 33.1083 18.5308 33.0504C18.5387 32.9985 18.5459 32.9499 18.5446 32.9019C18.5426 32.8204 18.4972 32.7283 18.4282 32.7231C18.3487 32.7172 18.2843 32.823 18.229 32.9387C18.1751 33.0517 18.1094 33.1596 18.0345 33.2601C18.0082 33.2956 17.9753 33.3351 17.926 33.3554C17.8333 33.3942 17.736 33.3476 17.6808 33.2838C17.5756 33.1635 17.5855 33.0005 17.594 32.8572C17.5953 32.8348 17.5967 32.8125 17.598 32.7901C17.6026 32.6817 17.5658 32.5042 17.4488 32.493C17.3626 32.4844 17.2844 32.5686 17.2082 32.7494C17.1115 32.9801 16.9623 33.0951 16.8098 33.057C16.7046 33.0307 16.5817 32.9315 16.5929 32.6047C16.5948 32.5377 16.5929 32.3155 16.47 32.2918C16.3944 32.2774 16.3286 32.3523 16.2366 32.468C16.1452 32.5837 16.0414 32.7145 15.8921 32.6757C15.8678 32.6692 15.8435 32.6586 15.8198 32.6435L15.8902 32.5324C15.9027 32.5403 15.9145 32.5456 15.925 32.5482C15.9868 32.5646 16.0479 32.4943 16.1334 32.3865C16.228 32.2669 16.3358 32.1314 16.4949 32.163C16.6488 32.1926 16.7322 32.3556 16.7243 32.6093C16.7211 32.7172 16.7316 32.9019 16.842 32.9295C16.9689 32.961 17.0688 32.7428 17.0879 32.6981C17.1253 32.6093 17.2391 32.3385 17.4626 32.3615C17.6493 32.3799 17.7387 32.5936 17.7301 32.7947C17.7294 32.8177 17.7275 32.8407 17.7262 32.8644C17.7183 32.9946 17.711 33.1168 17.7807 33.1964C17.8044 33.224 17.8465 33.2457 17.8767 33.2332C17.8958 33.2253 17.9142 33.2023 17.9306 33.1799C18.0009 33.0866 18.0621 32.986 18.112 32.8808C18.1633 32.7743 18.2573 32.5765 18.4401 32.5909C18.5893 32.6028 18.6741 32.7579 18.678 32.8973C18.6793 32.9564 18.6708 33.0136 18.6629 33.0688C18.655 33.1227 18.6471 33.174 18.6491 33.224C18.6524 33.2937 18.7102 33.3798 18.7707 33.4041C18.8042 33.4179 18.8338 33.4113 18.8634 33.3837C18.9094 33.341 18.9324 33.2733 18.9508 33.2062C18.9916 33.0557 19.0422 32.9006 19.173 32.796C19.2604 32.7264 19.3735 32.7007 19.4682 32.729C19.641 32.7803 19.645 32.9308 19.6483 33.0406L19.6502 33.1083C19.6529 33.222 19.6562 33.3403 19.7107 33.433C19.7232 33.4547 19.7495 33.4915 19.7843 33.4994C19.9132 33.529 19.9901 33.3791 20.0644 33.2089C20.0742 33.1858 20.0834 33.1648 20.0926 33.1464C20.1314 33.0649 20.1748 32.9722 20.2511 32.9019C20.3444 32.8158 20.4687 32.7875 20.5679 32.8302C20.7158 32.8933 20.7513 33.0728 20.7362 33.2075C20.7316 33.2483 20.7237 33.2884 20.7165 33.3272C20.702 33.4041 20.6876 33.4771 20.6994 33.5454C20.7073 33.5908 20.7579 33.6637 20.8059 33.6835C20.8282 33.6927 20.8407 33.6874 20.8506 33.6802C20.9308 33.6243 20.9669 33.4705 20.9906 33.3686L20.9985 33.3344C21.0353 33.174 21.0767 32.9926 21.2641 32.9084C21.366 32.8624 21.4869 32.8821 21.5579 32.9564C21.6085 33.0103 21.6263 33.08 21.6374 33.1477L21.6388 33.1576C21.6539 33.2476 21.671 33.3495 21.6585 33.4448C21.6486 33.5185 21.6447 33.5704 21.6795 33.625C21.7104 33.6723 21.7637 33.7032 21.8149 33.7038H21.8156C21.8616 33.7038 21.9083 33.6795 21.9346 33.6414C21.9595 33.6046 21.9694 33.5546 21.9793 33.5053C21.9845 33.479 21.9885 33.4494 21.9924 33.4186C22.0062 33.3121 22.0227 33.1918 22.095 33.1103C22.1975 32.9959 22.3402 32.9762 22.4677 33.0603C22.5992 33.1464 22.6715 33.3515 22.73 33.5172C22.749 33.5704 22.7668 33.621 22.7839 33.6591C22.8016 33.6986 22.82 33.74 22.8476 33.765C22.9061 33.8182 23.0199 33.7979 23.0751 33.7446C23.1237 33.6979 23.1349 33.598 23.1441 33.5106C23.148 33.4744 23.152 33.4396 23.1579 33.4093C23.1763 33.314 23.2112 33.2233 23.2618 33.1405C23.3485 32.9972 23.4748 32.9183 23.599 32.9282C23.6969 32.9361 23.789 32.9998 23.8448 33.0984C23.8935 33.1832 23.9093 33.2785 23.9178 33.3607C23.9428 33.5928 24.0026 33.6276 24.0361 33.6276C24.0407 33.6276 24.0519 33.6243 24.0756 33.6033C24.1965 33.4928 24.2465 33.3272 24.2997 33.1523C24.3116 33.1135 24.3234 33.0748 24.3359 33.0366C24.4003 32.8401 24.5022 32.7941 24.5765 32.7901C24.7106 32.7816 24.798 32.9025 24.8263 33.0169C24.8394 33.0682 24.8467 33.1181 24.8532 33.1661C24.8638 33.2371 24.873 33.3035 24.8999 33.3686C24.9111 33.3962 24.9242 33.4238 24.942 33.4383C24.9558 33.4494 24.9768 33.4573 24.9992 33.4652C25.034 33.4777 25.0695 33.4909 25.1024 33.4909C25.1366 33.4909 25.174 33.4751 25.2076 33.4475C25.2943 33.3752 25.2983 33.2555 25.3016 33.1287C25.3029 33.0886 25.3042 33.0491 25.3075 33.0116C25.3147 32.9393 25.3239 32.8486 25.3778 32.775C25.4481 32.679 25.5652 32.6416 25.6756 32.679C25.8011 32.7218 25.832 32.8158 25.8597 32.8986L25.8675 32.9216C25.9155 33.0629 26.003 33.2319 26.1502 33.2378C26.2284 33.2424 26.2692 33.1497 26.2915 33.0728C26.3178 32.9834 26.2974 32.8611 26.2797 32.7533C26.2744 32.7211 26.2692 32.6902 26.2652 32.6606C26.2574 32.5988 26.2455 32.5147 26.2909 32.4424C26.3546 32.3405 26.4933 32.326 26.5913 32.3714C26.7392 32.4397 26.8174 32.6061 26.8799 32.7402L26.895 32.773C26.9219 32.8309 26.9528 32.896 26.9969 32.9242C27.0311 32.9459 27.0909 32.9354 27.1172 32.9032C27.1408 32.8749 27.1507 32.8276 27.1428 32.7743C27.1376 32.7349 27.1244 32.6955 27.1106 32.654C27.1047 32.6363 27.0994 32.6192 27.0942 32.6015C27.0587 32.4812 27.056 32.3819 27.0876 32.2978C27.127 32.1926 27.2427 32.0979 27.3683 32.1236C27.4748 32.1453 27.5372 32.236 27.5872 32.3195C27.5957 32.3339 27.6056 32.3517 27.6168 32.372C27.6615 32.4529 27.7535 32.6205 27.8278 32.612C27.8357 32.6107 27.8449 32.608 27.8547 32.5942C27.8817 32.5568 27.8869 32.4752 27.8764 32.4213L27.8672 32.3747C27.8429 32.257 27.8153 32.1242 27.8462 31.9927C27.8659 31.9073 27.9146 31.8363 27.979 31.7975C28.0966 31.7272 28.2255 31.7745 28.3241 31.9237C28.3366 31.9428 28.3484 31.9612 28.3602 31.9796C28.4168 32.067 28.4648 32.1426 28.5443 32.2103C28.5686 32.2307 28.5943 32.2504 28.6192 32.255C28.6666 32.2636 28.7165 32.213 28.7297 32.1623C28.7474 32.0953 28.7257 32.0171 28.7021 31.95L28.6889 31.9132C28.6626 31.8409 28.6357 31.766 28.6337 31.6831C28.6311 31.5799 28.6784 31.455 28.7908 31.4097L28.8401 31.5313C28.7888 31.5523 28.7639 31.622 28.7652 31.6798C28.7665 31.7416 28.7888 31.8034 28.8125 31.8685L28.8263 31.9066C28.8565 31.9927 28.8835 32.094 28.8572 32.1959C28.8289 32.3043 28.7211 32.4069 28.5962 32.3845C28.5397 32.3747 28.495 32.3418 28.4588 32.3109C28.3648 32.2307 28.309 32.1439 28.2491 32.0512C28.238 32.0335 28.2261 32.0151 28.2136 31.9967C28.1735 31.9356 28.1118 31.8711 28.046 31.9106C28.0118 31.931 27.9855 31.9724 27.9737 32.023C27.95 32.1268 27.9737 32.2393 27.9954 32.349L28.0053 32.397C28.0164 32.4549 28.0224 32.587 27.9619 32.6718C27.933 32.7119 27.8929 32.7369 27.8455 32.7428C27.6812 32.7638 27.574 32.5666 27.5024 32.4358C27.4919 32.4174 27.4833 32.401 27.4748 32.3872C27.438 32.3254 27.3972 32.2636 27.3433 32.2531C27.2894 32.2419 27.2316 32.2918 27.2118 32.3444C27.1908 32.401 27.1934 32.4726 27.221 32.5646C27.2263 32.5811 27.2316 32.5975 27.2368 32.6139C27.2519 32.6593 27.2671 32.7066 27.2743 32.7573C27.2868 32.8486 27.2671 32.9308 27.2191 32.9886C27.1507 33.0708 27.0173 33.0925 26.9279 33.036C26.8503 32.9873 26.8095 32.8999 26.7767 32.8296L26.7615 32.7967C26.7083 32.6823 26.6412 32.5403 26.5367 32.4917C26.4927 32.4713 26.4269 32.4752 26.4033 32.5134C26.3836 32.5456 26.3908 32.6008 26.3967 32.6448C26.4007 32.6731 26.4053 32.7027 26.4105 32.7336C26.4309 32.8552 26.4532 32.9926 26.4191 33.1109C26.3514 33.343 26.2199 33.3739 26.1463 33.3699C25.9707 33.3633 25.8314 33.2227 25.744 32.965L25.7361 32.9413C25.7091 32.8598 25.6953 32.8256 25.6348 32.8046C25.5796 32.7855 25.5205 32.8046 25.485 32.8539C25.4521 32.8986 25.4455 32.9663 25.4396 33.0261C25.4363 33.061 25.435 33.0971 25.4343 33.1339C25.4304 33.2772 25.4251 33.4396 25.2923 33.55C25.2352 33.5974 25.1688 33.623 25.1037 33.6236H25.1024C25.0465 33.6236 24.9952 33.6052 24.9545 33.5901C24.9255 33.5796 24.89 33.5665 24.8592 33.5415C24.8177 33.508 24.7954 33.4626 24.7776 33.4192C24.7454 33.3397 24.7336 33.2614 24.7231 33.1865C24.7165 33.1392 24.7099 33.0951 24.6988 33.0498C24.6823 32.9847 24.6337 32.9183 24.5837 32.9222C24.5206 32.9255 24.4799 33.0215 24.4608 33.0787C24.449 33.1155 24.4371 33.1536 24.426 33.1918C24.3701 33.3765 24.3129 33.5671 24.165 33.7025C24.1374 33.7275 24.094 33.761 24.0368 33.7617C23.8297 33.7617 23.7982 33.4725 23.7883 33.3778C23.7811 33.3088 23.7686 33.2299 23.7318 33.1661C23.6976 33.1063 23.643 33.0662 23.5891 33.0616C23.5017 33.0537 23.4222 33.1339 23.3755 33.2108C23.3334 33.2805 23.3038 33.3561 23.2887 33.4363C23.2835 33.4639 23.2802 33.4948 23.2769 33.527C23.2651 33.6368 23.2513 33.7617 23.1678 33.8419C23.1112 33.8958 23.0251 33.93 22.9403 33.93L22.9377 33.9293Z" fill="#F9BE58"/>
<path d="M20.5275 32.4168C20.4854 32.4168 20.442 32.3991 20.4039 32.3662C20.3066 32.2827 20.2698 32.1361 20.302 31.9633C20.3099 31.9225 20.3198 31.8817 20.3303 31.8416C20.35 31.7641 20.3691 31.6904 20.3664 31.6175C20.3631 31.5248 20.3046 31.4222 20.2218 31.4176C20.1534 31.4163 20.0877 31.4762 20.045 31.5294C19.9799 31.6103 19.9306 31.701 19.8971 31.7996C19.8846 31.8351 19.8747 31.8719 19.8649 31.9087C19.8386 32.0047 19.811 32.1046 19.7485 32.1907C19.69 32.2716 19.5901 32.3287 19.4935 32.336C19.4185 32.3419 19.3521 32.3182 19.3035 32.2696C19.2456 32.2111 19.2193 32.1217 19.2292 32.0158C19.2325 31.9777 19.2404 31.9402 19.2476 31.9047C19.2548 31.8699 19.2614 31.8364 19.264 31.8035V31.7923C19.2759 31.6668 19.2851 31.559 19.2101 31.4709C19.1602 31.4124 19.078 31.3867 19.0182 31.4124C18.9774 31.4295 18.9485 31.4669 18.9321 31.4946C18.9038 31.5419 18.8762 31.6195 18.8473 31.7016C18.7651 31.9363 18.6619 32.2269 18.4022 32.217C18.2326 32.2098 18.1262 32.025 18.1327 31.8574C18.136 31.7733 18.1584 31.695 18.1807 31.6188C18.1965 31.5649 18.211 31.5143 18.2188 31.463C18.2353 31.3565 18.205 31.2296 18.1176 31.1955C18.0341 31.1626 17.9335 31.2231 17.8672 31.2901C17.8165 31.3414 17.7745 31.3999 17.7416 31.4637C17.7285 31.4893 17.716 31.5156 17.7035 31.5432C17.645 31.6688 17.5792 31.8107 17.43 31.8515C17.2709 31.8949 17.1197 31.7845 17.0586 31.6582C16.9922 31.5209 17.0073 31.3664 17.0251 31.2619C17.031 31.225 17.0389 31.1876 17.0461 31.1508C17.0625 31.0686 17.079 30.991 17.0796 30.9128C17.0803 30.8609 17.0731 30.8254 17.0566 30.801C17.0323 30.7642 16.9777 30.7439 16.9238 30.7524C16.8594 30.7623 16.8035 30.807 16.7681 30.8425C16.7049 30.9056 16.6589 30.9844 16.6346 31.0706C16.6228 31.112 16.6155 31.1554 16.6083 31.202C16.5958 31.2796 16.5827 31.3605 16.5452 31.4367C16.4992 31.5287 16.4229 31.5958 16.3362 31.6201C16.2316 31.6497 16.114 31.6103 16.0581 31.5261L16.1672 31.4531C16.1922 31.4906 16.2494 31.5084 16.3007 31.4939C16.3513 31.4794 16.3986 31.4361 16.4275 31.3782C16.4565 31.3204 16.467 31.2526 16.4788 31.1817C16.4867 31.1337 16.4946 31.0844 16.5084 31.0351C16.5386 30.9279 16.5965 30.8293 16.6754 30.7504C16.747 30.6788 16.8233 30.636 16.9035 30.6236C17.008 30.6071 17.1138 30.6499 17.1664 30.7294C17.2078 30.7925 17.2118 30.8661 17.2111 30.9154C17.2098 31.0061 17.192 31.0929 17.175 31.1777C17.1677 31.2132 17.1605 31.2487 17.1546 31.2842C17.1316 31.4216 17.1388 31.5222 17.1769 31.6017C17.2151 31.6799 17.3091 31.749 17.3958 31.7253C17.4865 31.701 17.5339 31.5978 17.5845 31.4886C17.5976 31.4597 17.6114 31.4314 17.6252 31.4045C17.664 31.3289 17.714 31.2599 17.7738 31.1994C17.8981 31.0732 18.0446 31.0265 18.1663 31.0745C18.3247 31.1376 18.372 31.3309 18.349 31.484C18.3398 31.5439 18.3234 31.601 18.3076 31.6563C18.2872 31.7279 18.2675 31.7956 18.2649 31.864C18.2609 31.9659 18.3214 32.0829 18.4088 32.0868C18.562 32.0934 18.6376 31.9054 18.7237 31.6596C18.7546 31.5708 18.7842 31.4873 18.8197 31.4282C18.8584 31.3637 18.9097 31.3171 18.9676 31.2927C19.08 31.2448 19.2246 31.2849 19.3114 31.3874C19.4211 31.5176 19.408 31.6701 19.3968 31.8055V31.8167C19.3922 31.8568 19.385 31.8955 19.3771 31.9324C19.3705 31.9659 19.364 31.9981 19.3607 32.0296C19.3574 32.0678 19.3574 32.1375 19.3975 32.1782C19.4185 32.1999 19.4474 32.2091 19.4836 32.2065C19.5421 32.2019 19.6059 32.1651 19.6427 32.1151C19.6913 32.048 19.7143 31.9639 19.7387 31.8752C19.7492 31.8357 19.7603 31.7963 19.7735 31.7582C19.8116 31.6451 19.8688 31.5412 19.9431 31.4479C20.0318 31.3368 20.1318 31.2816 20.2297 31.2868C20.3914 31.2954 20.4926 31.4597 20.4979 31.6129C20.5012 31.7049 20.4788 31.791 20.4578 31.8739C20.4479 31.9113 20.4387 31.9488 20.4315 31.9869C20.4203 32.0461 20.4039 32.192 20.49 32.2663C20.5045 32.2788 20.5203 32.2867 20.5301 32.2847C20.5406 32.2834 20.5564 32.2722 20.5617 32.2689C20.6688 32.194 20.7037 32.0566 20.7411 31.9107C20.7904 31.7187 20.8463 31.5011 21.0915 31.4347C21.1428 31.4209 21.1901 31.419 21.2322 31.4288C21.3262 31.4512 21.4327 31.5347 21.4044 31.8075L21.3774 32.0671C21.3696 32.1447 21.3676 32.2209 21.4077 32.2577C21.4406 32.288 21.4991 32.284 21.5398 32.2637C21.5931 32.2374 21.6358 32.1861 21.6746 32.1348C21.7324 32.0573 21.7554 31.9652 21.7804 31.8673C21.8126 31.7384 21.8461 31.605 21.9605 31.4992C22.0157 31.4479 22.0723 31.4255 22.1268 31.4314C22.3175 31.4545 22.3497 31.6773 22.3714 31.8252C22.3773 31.866 22.3832 31.9047 22.3904 31.9317C22.4088 31.9974 22.5134 32.3248 22.7605 32.2794C22.7908 32.2735 22.8157 32.263 22.8348 32.2485C22.8953 32.2019 22.9045 32.1033 22.913 32.008L22.9143 31.9915C22.9255 31.8778 22.9498 31.7338 23.0445 31.6227C23.1372 31.5136 23.314 31.4531 23.4494 31.5386C23.5678 31.6135 23.5927 31.7522 23.6151 31.8745C23.6184 31.8916 23.6217 31.9093 23.625 31.9258C23.6414 32.0086 23.669 32.0888 23.7071 32.1644C23.7183 32.1861 23.7314 32.2091 23.7459 32.217C23.7512 32.2196 23.7584 32.2209 23.7676 32.2216C23.7689 32.2216 23.7702 32.2216 23.7722 32.2216C23.8655 32.2216 23.9241 32.0934 23.9352 32.0014C23.9398 31.9659 23.9418 31.9291 23.9431 31.8929C23.9484 31.7891 23.9543 31.6812 24.0121 31.5846C24.0667 31.4939 24.1614 31.4308 24.2659 31.415C24.3487 31.4025 24.425 31.4262 24.4697 31.4781C24.4992 31.513 24.5117 31.5537 24.519 31.5899C24.5328 31.653 24.538 31.7174 24.5439 31.7798C24.5545 31.9015 24.5643 32.0158 24.6307 32.0987C24.6465 32.1184 24.6721 32.144 24.705 32.1539C24.7536 32.169 24.7812 32.1572 24.7977 32.146C24.9055 32.0757 24.937 31.7858 24.9508 31.6622L24.9568 31.6083C24.9607 31.5728 24.9653 31.5366 24.9785 31.4992C24.9969 31.4446 25.0297 31.3999 25.0587 31.3637C25.1494 31.2513 25.2519 31.1935 25.3466 31.2014C25.4018 31.206 25.482 31.2356 25.5471 31.3499C25.5937 31.4321 25.6049 31.5281 25.6154 31.6208C25.6332 31.7746 25.6496 31.8706 25.7627 31.9067C25.8317 31.9284 25.9671 31.9067 26.021 31.8502C26.092 31.7759 26.0776 31.6747 26.0611 31.5583C26.0453 31.4466 26.0269 31.3204 26.0966 31.2112C26.1203 31.1738 26.1505 31.1468 26.1847 31.1179C26.2103 31.0962 26.2458 31.0666 26.2899 31.0502C26.3793 31.0173 26.4569 31.016 26.5206 31.0469C26.6311 31.1001 26.6738 31.2303 26.7152 31.3559C26.7435 31.4426 26.773 31.532 26.8204 31.5754C26.871 31.6214 26.9564 31.6497 27.0163 31.6122C27.0866 31.5682 27.0932 31.4512 27.0695 31.3545C27.0616 31.3236 27.0518 31.2927 27.0426 31.2619C27.0143 31.1718 26.9847 31.0784 26.9972 30.9772C27.0084 30.8826 27.0675 30.7918 27.1504 30.7393C27.2214 30.6946 27.2996 30.6834 27.3719 30.7077C27.4876 30.7465 27.5658 30.8628 27.598 31.0436L27.6053 31.0877C27.6217 31.1863 27.6368 31.2796 27.6953 31.3388C27.7413 31.3854 27.8176 31.4038 27.8794 31.3835C27.9418 31.3631 27.9924 31.3039 28.0023 31.2395C28.0135 31.1659 27.9806 31.0903 27.9451 31.0094C27.9155 30.9417 27.8853 30.872 27.8754 30.7945C27.8597 30.6623 27.9195 30.4921 28.0477 30.4349C28.1068 30.4086 28.162 30.4066 28.2107 30.429C28.3053 30.4724 28.3415 30.592 28.3698 30.6873C28.3744 30.7024 28.3783 30.7162 28.3829 30.7294C28.4296 30.8714 28.4848 30.9476 28.5578 30.9687C28.5834 30.9766 28.613 30.9759 28.6413 30.9667L28.6814 31.0916C28.6281 31.1087 28.5716 31.1093 28.5203 31.0942C28.3658 31.0482 28.2961 30.8872 28.258 30.7695C28.2534 30.7557 28.2488 30.7399 28.2442 30.7241C28.2251 30.661 28.1969 30.5664 28.1561 30.5473C28.1515 30.5453 28.1364 30.5388 28.1016 30.5539C28.0332 30.5841 27.9964 30.6965 28.0062 30.778C28.0135 30.8359 28.0385 30.8944 28.0654 30.9562C28.1062 31.0502 28.1489 31.1475 28.1318 31.2586C28.1141 31.3723 28.0293 31.4722 27.9195 31.5077C27.8104 31.5432 27.6822 31.5123 27.6013 31.4308C27.5132 31.342 27.4928 31.2178 27.4744 31.1087L27.4672 31.066C27.4508 30.9746 27.414 30.8602 27.3285 30.8313C27.2825 30.8155 27.2404 30.8359 27.2187 30.8497C27.1688 30.8812 27.1326 30.9371 27.1254 30.9923C27.1168 31.0653 27.1405 31.1416 27.1655 31.2224C27.176 31.2553 27.1865 31.2888 27.1944 31.3223C27.2292 31.461 27.2181 31.6392 27.084 31.7233C26.9676 31.7963 26.8177 31.7522 26.7297 31.672C26.6567 31.6056 26.6218 31.4992 26.5883 31.3966C26.5555 31.2973 26.5219 31.1941 26.4621 31.1652C26.4312 31.1501 26.3891 31.1527 26.3339 31.1731C26.3129 31.181 26.2925 31.1974 26.2675 31.2185C26.2406 31.2408 26.2195 31.2599 26.2057 31.2816C26.1624 31.3499 26.1755 31.442 26.19 31.5399C26.209 31.6714 26.2301 31.8206 26.115 31.9409C26.0217 32.0388 25.833 32.0671 25.7219 32.0316C25.5221 31.9679 25.5011 31.7838 25.484 31.6352C25.4748 31.5517 25.4656 31.4735 25.432 31.4144C25.4024 31.3624 25.3696 31.3348 25.3354 31.3315C25.2874 31.3269 25.2217 31.3703 25.1605 31.4459C25.1388 31.4729 25.1145 31.5057 25.1027 31.5406C25.0941 31.5649 25.0909 31.5932 25.0876 31.6227L25.0817 31.6753C25.0567 31.9054 25.0172 32.1585 24.87 32.2551C24.8115 32.2932 24.7405 32.3011 24.6662 32.2781C24.6149 32.2623 24.5676 32.2282 24.5288 32.1789C24.4381 32.0651 24.4263 31.9251 24.4144 31.7897C24.4092 31.7286 24.4039 31.6707 24.3921 31.6162C24.3881 31.5978 24.3822 31.5748 24.3717 31.5623C24.3572 31.5452 24.3244 31.5379 24.2869 31.5439C24.2218 31.5537 24.16 31.5945 24.1265 31.651C24.0851 31.7194 24.0805 31.8068 24.0759 31.8988C24.0739 31.9383 24.072 31.9784 24.0667 32.0165C24.0457 32.1887 23.9319 32.359 23.763 32.3524C23.7354 32.3511 23.7098 32.3452 23.6881 32.334C23.6388 32.309 23.6111 32.2643 23.5908 32.2236C23.5474 32.1375 23.5158 32.0461 23.4968 31.9514C23.4935 31.9337 23.4902 31.9159 23.4869 31.8975C23.4678 31.7923 23.4494 31.6931 23.3798 31.649C23.3081 31.6037 23.201 31.6425 23.1457 31.7075C23.0747 31.7904 23.0557 31.9093 23.0465 32.0034L23.0452 32.0198C23.0346 32.1315 23.0215 32.2702 22.917 32.3517C22.8815 32.3794 22.8374 32.3984 22.7862 32.4076C22.5074 32.4596 22.3313 32.2025 22.2655 31.9665C22.2557 31.9317 22.2498 31.889 22.2432 31.8436C22.2215 31.6951 22.1972 31.5715 22.113 31.5616C22.0979 31.5596 22.0762 31.5721 22.0519 31.5951C21.9658 31.6747 21.9388 31.7838 21.9099 31.8988C21.883 32.0053 21.8553 32.1151 21.7824 32.213C21.7337 32.2781 21.6785 32.3432 21.6003 32.3813C21.5194 32.4208 21.4018 32.428 21.3209 32.3537C21.2269 32.267 21.2414 32.1276 21.2493 32.0527L21.2762 31.793C21.2986 31.578 21.2276 31.5609 21.2046 31.5557C21.1835 31.5504 21.1579 31.5524 21.1283 31.5603C20.9574 31.607 20.9173 31.7621 20.8713 31.9422C20.8299 32.1046 20.7865 32.2729 20.6399 32.3754C20.6175 32.3912 20.5873 32.4096 20.5498 32.4142C20.5439 32.4149 20.5373 32.4155 20.5308 32.4155L20.5275 32.4168Z" fill="#F9BE58"/>
<path d="M16.7871 31.7925C16.6182 31.7925 16.6175 32.0554 16.7871 32.0554C16.9567 32.0554 16.9567 31.7925 16.7871 31.7925Z" fill="#F9BE58"/>
<path d="M17.7896 32.019C17.6206 32.019 17.62 32.282 17.7896 32.282C17.9591 32.282 17.9591 32.019 17.7896 32.019Z" fill="#F9BE58"/>
<path d="M18.9214 32.2822C18.7524 32.2822 18.7518 32.5452 18.9214 32.5452C19.091 32.5452 19.091 32.2822 18.9214 32.2822Z" fill="#F9BE58"/>
<path d="M20.0391 32.4136C19.8701 32.4136 19.8695 32.6765 20.0391 32.6765C20.2087 32.6765 20.2087 32.4136 20.0391 32.4136Z" fill="#F9BE58"/>
<path d="M20.9995 32.4893C20.8306 32.4893 20.8299 32.7522 20.9995 32.7522C21.1691 32.7522 21.1691 32.4893 20.9995 32.4893Z" fill="#F9BE58"/>
<path d="M22.0415 32.4893C21.8726 32.4893 21.8719 32.7522 22.0415 32.7522C22.2111 32.7522 22.2111 32.4893 22.0415 32.4893Z" fill="#F9BE58"/>
<path d="M23.0767 32.5449C22.9077 32.5449 22.9071 32.8079 23.0767 32.8079C23.2463 32.8079 23.2463 32.5449 23.0767 32.5449Z" fill="#F9BE58"/>
<path d="M24.1538 32.4893C23.9849 32.4893 23.9842 32.7522 24.1538 32.7522C24.3234 32.7522 24.3234 32.4893 24.1538 32.4893Z" fill="#F9BE58"/>
<path d="M25.2388 32.3579C25.0698 32.3579 25.0692 32.6209 25.2388 32.6209C25.4084 32.6209 25.4084 32.3579 25.2388 32.3579Z" fill="#F9BE58"/>
<path d="M26.4634 31.9067C26.2944 31.9067 26.2938 32.1697 26.4634 32.1697C26.633 32.1697 26.633 31.9067 26.4634 31.9067Z" fill="#F9BE58"/>
<path d="M27.4634 31.644C27.2944 31.644 27.2938 31.907 27.4634 31.907C27.633 31.907 27.633 31.644 27.4634 31.644Z" fill="#F9BE58"/>
<path d="M28.4429 31.2432C28.2739 31.2432 28.2733 31.5061 28.4429 31.5061C28.6125 31.5061 28.6125 31.2432 28.4429 31.2432Z" fill="#F9BE58"/>
<path d="M21.6314 1.05639C21.5368 1.06165 21.4454 1.09583 21.3606 1.13856C21.2903 1.1734 21.2219 1.21547 21.1726 1.2766C21.145 1.31079 21.1246 1.34957 21.1042 1.38836C20.9787 1.62829 20.9195 1.76239 20.9708 2.0352C21.0148 2.27119 21.1174 2.49929 21.264 2.68927C21.381 2.84046 21.5249 2.96733 21.6715 3.09025C22.1987 3.53266 22.8094 3.92444 23.4806 4.07761C22.9632 4.02962 22.4051 3.99478 21.9397 3.76273C21.6354 3.61088 21.3087 3.40053 21.0543 3.1744C20.9327 3.06659 20.8156 2.93446 20.7138 2.80759C20.4837 2.52164 20.341 2.15483 20.3706 1.78869C20.2004 1.90175 20.0505 2.02073 19.894 2.15155C19.7586 2.26461 19.637 2.39346 19.5483 2.54662C19.3511 2.88647 19.3267 3.28615 19.3787 3.68188C18.4682 2.43881 20.7427 0.913086 20.7427 0.913086C20.9169 0.924918 21.0904 0.943324 21.2633 0.969619C21.3705 0.986053 21.5276 1.06231 21.6314 1.05639V1.05639Z" fill="#00436E"/>
<path d="M15.1494 16.0795C14.9285 16.1235 14.8635 15.6726 14.8174 15.5405C14.9029 15.9375 14.9811 16.213 14.9055 16.5449C14.8628 16.7336 14.7557 16.9334 14.6058 16.9275C14.5696 16.9262 14.5361 16.9124 14.5059 16.89C14.5091 16.8545 14.5111 16.8197 14.5137 16.7849C14.5742 15.8757 14.6347 14.9581 14.592 14.0489C14.6551 14.0312 14.711 14.0364 14.7221 13.9878C14.8036 14.2074 14.8365 14.73 14.9233 14.9515C15.0186 15.196 15.1586 15.4215 15.25 15.6936C15.2967 15.835 15.2645 16.0558 15.1494 16.0795V16.0795Z" fill="#0E446D"/>
<path d="M20.2998 4.75789C20.2413 4.81508 20.1893 4.87884 20.1394 4.94392C20.0822 5.01754 20.027 5.09511 19.9869 5.17991C19.9468 5.26471 19.933 5.34228 19.9671 5.43365C20.0105 5.54869 20.0973 5.64663 20.2104 5.69791C20.2465 5.71434 20.2899 5.70843 20.3116 5.67161C20.33 5.64006 20.3215 5.58681 20.2853 5.57038C20.1998 5.5316 20.1308 5.46257 20.1026 5.37252C20.0986 5.35937 20.0947 5.34556 20.092 5.33176C20.0901 5.32256 20.0907 5.32387 20.092 5.33505C20.092 5.33242 20.092 5.32979 20.092 5.3265C20.0993 5.31072 20.0894 5.33307 20.092 5.31927C20.0934 5.3127 20.0953 5.30612 20.0973 5.29955C20.1072 5.26602 20.117 5.24696 20.1348 5.21475C20.2051 5.08722 20.2998 4.9643 20.4043 4.86306C20.4726 4.79667 20.3681 4.69215 20.2998 4.75854V4.75789Z" fill="#C45361"/>
<path d="M19.7046 3.79099C19.6914 3.86987 19.7026 3.95533 19.7434 4.0237C19.4397 4.05788 19.4042 3.79362 19.5738 3.63783C19.6816 3.53922 19.7933 3.46889 19.9222 3.4209C19.8886 3.45377 19.8577 3.48926 19.8295 3.52673C19.7703 3.60496 19.721 3.6937 19.7046 3.79099Z" fill="#00436E"/>
<path d="M41.1367 27.0284C41.3438 27.1526 41.4634 27.2992 41.4069 27.4366C41.3503 27.574 41.1643 27.4609 40.9572 27.3367C40.7502 27.2124 40.4498 26.9692 40.4912 26.9002C40.5326 26.8312 40.9296 26.9041 41.1367 27.0284V27.0284Z" fill="#E8496F"/>
<path d="M40.9843 27.4427C41.1118 27.6478 41.1802 27.8352 41.0579 27.9279C40.9284 28.0258 40.8305 27.8391 40.7029 27.634C40.5754 27.4289 40.419 27.0759 40.4873 27.0332C40.5557 26.9905 40.8568 27.2376 40.9843 27.4427V27.4427Z" fill="#E8496F"/>
<path d="M35.4883 29.4252C35.6283 29.6217 35.6796 29.8038 35.5724 29.907C35.4673 30.0082 35.3404 29.8321 35.2004 29.6355C35.0604 29.439 34.8829 29.0958 34.9479 29.0492C35.013 29.0025 35.3483 29.2286 35.4883 29.4252Z" fill="#E8496F"/>
<path d="M35.1827 29.7443C35.2176 29.9829 35.2057 30.1821 35.0558 30.2182C34.8981 30.2557 34.883 30.046 34.8481 29.8067C34.8133 29.5674 34.8113 29.1816 34.8908 29.1697C34.9704 29.1579 35.1472 29.505 35.1827 29.7443V29.7443Z" fill="#E8496F"/>
</g>
<defs>
<clipPath id="clip0_2124_1895">
<rect width="50" height="50" fill="white"/>
</clipPath>
</defs>
</svg>
