<svg width="50" height="50" viewBox="0 0 50 50" fill="none" xmlns="http://www.w3.org/2000/svg">
<path d="M39.6195 40.0298L30.8035 43.9346L18.2326 49.5036C15.2247 50.8374 11.7454 49.3908 10.4551 46.2718L1 23.3752L9.87194 6.44652L23.2977 0.494687C26.3056 -0.835106 29.7889 0.607518 31.0751 3.72649L37.9857 20.4577L42.7393 31.9745C44.0295 35.0935 42.6274 38.7 39.6195 40.0298Z" fill="#7D7874"/>
<path d="M28.0373 10.7466L16.6168 15.8522C15.9617 16.1463 15.1229 15.6426 14.7434 14.7319C14.3639 13.8212 14.5876 12.842 15.2427 12.5519L26.6632 7.44628C27.3183 7.15211 28.1572 7.65582 28.5366 8.56653C28.9161 9.47723 28.6924 10.4564 28.0373 10.7466Z" fill="white"/>
<path d="M1 23.3751L9.87194 6.44238L12.0809 11.7898C13.3672 14.9087 11.9731 18.5153 8.96118 19.8491L1 23.3751Z" fill="#3D3A38"/>
<path d="M39.9521 40.074L30.6927 44.1762H21.9007C18.0419 44.1762 14.9102 41.021 14.9102 37.1243V26.5706C14.9102 22.6739 18.0419 19.5146 21.9007 19.5146H22.7355L23.2628 17.4877C23.6702 15.9363 25.0564 14.8604 26.6462 14.8604H33.5848C35.1706 14.8604 36.5607 15.9363 36.9642 17.4877L37.4955 19.5146H38.2344L43.2277 31.6117C44.5818 34.8878 43.1118 38.6757 39.9521 40.074Z" fill="#3D3A38"/>
<path d="M42.0099 19.5187C45.8727 19.5187 49.0004 22.6779 49.0004 26.5706V37.1243C49.0004 41.021 45.8687 44.1762 42.0099 44.1762H25.5842C21.7215 44.1762 18.5938 41.017 18.5938 37.1243V26.5706C18.5938 22.6739 21.7255 19.5187 25.5842 19.5187H26.4151L26.9464 17.4877C27.3498 15.9403 28.74 14.8604 30.3258 14.8604H37.2644C38.8502 14.8604 40.2403 15.9403 40.6438 17.4877L41.1751 19.5187H42.0059H42.0099Z" fill="#7D7874"/>
<path d="M33.8094 39.3405C29.5032 39.3405 26 35.8025 26 31.4544C26 27.1064 29.5032 23.5684 33.8094 23.5684C38.1155 23.5684 41.6188 27.1064 41.6188 31.4544C41.6188 35.8025 38.1155 39.3405 33.8094 39.3405ZM33.8094 26.4335C31.0691 26.4335 28.8401 28.686 28.8401 31.4544C28.8401 34.2228 31.0691 36.4754 33.8094 36.4754C36.5497 36.4754 38.7786 34.2228 38.7786 31.4544C38.7786 28.686 36.5497 26.4335 33.8094 26.4335Z" fill="white"/>
</svg>
