<svg width="50" height="50" viewBox="0 0 50 50" fill="none" xmlns="http://www.w3.org/2000/svg">
<path d="M4.4372 8.43457L19.7241 49.8311C16.6527 50.5561 13.4531 48.8961 12.3328 45.8645L1.39056 16.2237C0.274419 13.1962 1.63032 9.868 4.44133 8.43457H4.4372Z" fill="#3D3A38"/>
<path d="M34.3789 4.13002L45.3212 33.7708C45.9619 35.5049 45.7925 37.3379 44.9988 38.8578C44.3001 40.2089 43.1055 41.3086 41.5635 41.873L20.4603 49.6086C20.2164 49.6992 19.9683 49.7733 19.7203 49.831L4.4375 8.43443C4.66486 8.3191 4.90049 8.21613 5.14439 8.12551L26.2518 0.389913C29.5299 -0.812852 33.1718 0.859486 34.3831 4.13414L34.3789 4.13002Z" fill="#7D7874"/>
<path d="M44.5319 31.6289L45.3214 33.7708C45.9622 35.5049 45.7927 37.3379 44.999 38.8579L20.4564 47.8539C19.9975 48.0228 19.5304 48.0887 19.0715 48.064C17.7198 47.9898 16.4755 47.1372 15.9794 45.7944C15.6487 44.8964 15.7149 43.9449 16.0869 43.1417C16.2729 42.7421 16.5334 42.3755 16.8558 42.0748C17.1906 41.7577 17.5916 41.5064 18.0463 41.3375L44.5277 31.6289H44.5319Z" fill="white"/>
<path d="M26.2463 4.93543L13.3311 9.67028C11.6899 10.272 10.8489 12.0855 11.4528 13.7209L12.0837 15.4295C12.6875 17.0649 14.5076 17.9029 16.1488 17.3012L29.064 12.5663C30.7052 11.9646 31.5462 10.1511 30.9423 8.51572L30.3114 6.80708C29.7076 5.17169 27.8875 4.33373 26.2463 4.93543Z" fill="white"/>
<path d="M34.9423 30.8296C41.2207 30.8296 46.3103 25.7582 46.3103 19.5022C46.3103 13.2463 41.2207 8.1748 34.9423 8.1748C28.6639 8.1748 23.5742 13.2463 23.5742 19.5022C23.5742 25.7582 28.6639 30.8296 34.9423 30.8296Z" fill="#3D3A38"/>
<path d="M37.6337 29.2154C43.9121 29.2154 49.0018 24.1439 49.0018 17.888C49.0018 11.632 43.9121 6.56055 37.6337 6.56055C31.3553 6.56055 26.2656 11.632 26.2656 17.888C26.2656 24.1439 31.3553 29.2154 37.6337 29.2154Z" fill="#7D7874"/>
<path d="M36.8332 12.8875L42.17 17.299C42.695 17.7315 42.6537 18.5429 42.0915 18.9219L36.3495 22.7897C35.6592 23.251 34.7373 22.732 34.7787 21.9L35.1879 13.6248C35.2293 12.7927 36.1966 12.3643 36.8373 12.8916L36.8332 12.8875Z" fill="white"/>
</svg>
