<svg width="50" height="50" viewBox="0 0 50 50" fill="none" xmlns="http://www.w3.org/2000/svg">
<g clip-path="url(#clip0_7856_38989)">
<path d="M25.8699 0.38448L4.84384 8.56913C1.8042 9.75181 0.241844 13.3244 1.36334 16.5451L11.5187 45.7642C12.6363 48.9808 16.0163 50.6341 19.0559 49.4514L40.0781 41.2668C43.1178 40.0841 44.6801 36.5074 43.5625 33.2908L33.4072 4.06757C32.2895 0.851005 28.9096 -0.802293 25.8699 0.380388V0.38448ZM40.7046 34.404C41.2422 35.9468 40.4881 37.6737 39.0301 38.2426L18.0079 46.4272C16.5499 46.996 14.918 46.198 14.3804 44.6552L4.22122 15.4319C3.68367 13.8891 4.43778 12.1622 5.89573 11.5934L26.9218 3.40871C28.3798 2.83987 30.0117 3.63788 30.5493 5.18068L40.7085 34.3999L40.7046 34.404Z" fill="white"/>
<path d="M39.0279 38.238L38.6953 38.369C38.6953 38.369 38.6953 38.3772 38.6876 38.369L36.8739 39.0729L35.9419 39.433L33.0182 40.5788L18.0095 46.4186C17.8974 46.4677 17.7814 46.5004 17.677 46.5291C16.308 46.8605 14.8732 46.0666 14.3821 44.6507L4.22674 15.4315C3.68533 13.8846 4.43557 12.1658 5.89738 11.5929L26.9274 3.41235C28.3814 2.83943 30.0134 3.64562 30.5471 5.18024L35.9805 20.8088L40.7101 34.3994C40.7759 34.5918 40.8223 34.7923 40.8532 34.9805C41.0427 36.3556 40.3118 37.7429 39.0279 38.238Z" fill="#BEBEBE"/>
<path d="M40.8503 34.9811C40.5834 36.4093 39.7868 37.6043 38.6924 38.3695C38.6924 38.3695 38.6924 38.3777 38.6846 38.3695C38.1896 38.7215 37.6289 38.9834 37.0411 39.1348C36.983 39.1143 36.9289 39.0939 36.8709 39.0734C35.0456 38.4391 33.7462 36.8022 33.4329 34.6619C33.3943 34.3509 33.3749 34.048 33.3672 33.7288C33.3749 33.4465 33.3672 33.1641 33.3749 32.8858C33.3672 32.0633 33.3827 31.2489 33.402 30.4141C33.402 29.8125 33.4291 29.2273 33.4407 28.6339C33.4677 27.8113 33.5064 26.9847 33.5373 26.1499C33.5567 25.7693 33.576 25.3764 33.5954 24.9958C33.6031 24.7953 33.634 24.5948 33.6611 24.4024V24.382C33.9163 22.876 34.7903 21.5992 35.9776 20.8135L40.7072 34.4041C40.7729 34.5964 40.8193 34.7969 40.8503 34.9852V34.9811Z" fill="#9C9C9C"/>
<path d="M35.9417 39.433L33.0181 40.5789C30.9104 38.6473 29.932 36.065 30.1409 32.8894C30.1795 32.1446 30.6745 31.6412 31.3668 31.6044C32.0783 31.5553 32.6507 32.1487 32.7048 32.9712C32.7048 33.2331 32.7242 33.4951 32.7319 33.757C32.7512 34.289 32.759 34.7923 32.8557 35.2629C33.1689 36.8917 34.2711 38.5491 35.9417 39.433Z" fill="#9C9C9C"/>
<path d="M22.3437 32.7305L17.6798 46.5298C16.3147 46.8654 14.8799 46.0715 14.3849 44.6515L13.0469 40.7965L16.6318 29.7227C17.9969 31.5969 20.1162 32.706 22.3437 32.7346V32.7305Z" fill="#F7F5F4"/>
<path d="M30.5484 5.18018L31.1053 6.78437L27.0524 18.7872C25.2929 17.3057 22.9339 16.7123 20.6367 17.3344L24.8945 4.19802L26.9248 3.4082C28.3828 2.83937 30.0147 3.63737 30.5523 5.18018H30.5484Z" fill="#F7F5F4"/>
<path d="M32.4933 10.7705L33.8662 14.7155L23.9235 44.1188L21.3789 45.1092L25.6251 31.9769H25.6329C29.0631 30.2582 30.7376 26.0471 29.4034 22.2126C29.3028 21.918 29.1868 21.6561 29.0553 21.3983V21.3901L32.4933 10.7705Z" fill="#F7F5F4"/>
<path d="M27.055 18.7877L22.3447 32.7303C20.1172 32.7057 17.9979 31.5926 16.6328 29.7183L20.6393 17.3349C22.9364 16.717 25.2954 17.3104 27.055 18.7877Z" fill="#E2DFDD"/>
<path d="M20.6363 17.335L16.6298 29.7183C16.1658 29.0963 15.7906 28.3965 15.5199 27.619C14.1084 23.5635 16.0729 19.0619 19.9092 17.5723C20.149 17.4782 20.4004 17.3923 20.6401 17.335H20.6363Z" fill="#9C9C9C"/>
<path d="M29.4034 22.2169C30.7375 26.0514 29.063 30.2665 25.6328 31.9771L29.0553 21.3984C29.1868 21.6563 29.3028 21.9223 29.4034 22.2128V22.2169Z" fill="#E2DFDD"/>
<path d="M29.0534 21.3898V21.398L25.6348 31.9767H25.6271C25.4376 32.0872 25.2326 32.1813 25.0199 32.2631C24.142 32.6028 23.2333 32.7624 22.3477 32.7297L27.0579 18.7871C27.8817 19.4746 28.5739 20.3504 29.0573 21.3898H29.0534Z" fill="#9C9C9C"/>
<path d="M19.5426 22.8222L21.453 28.3141C21.6348 28.8379 22.3232 28.8666 22.5436 28.3591L25.7882 24.0295C25.9235 23.7184 25.7998 23.3542 25.5098 23.2069L20.3586 22.0447C19.8829 21.8032 19.3647 22.2943 19.5504 22.8222H19.5426Z" fill="white"/>
<path d="M45.8096 29.4815C45.7748 31.1102 45.8018 32.7553 45.6897 34.3718C45.4731 37.3347 43.0754 39.5077 40.2601 39.3726C39.8076 39.3481 39.3513 39.2703 38.9375 39.1394C41.0451 38.6033 42.681 36.7167 42.8473 34.3022C42.971 32.6899 42.9323 31.0448 42.9671 29.4119H43.0174C43.0329 28.7326 43.06 28.0492 43.0484 27.3698C43.0484 26.3549 43.118 25.3278 42.9517 24.3456C42.6191 22.2913 41.1728 20.7198 39.3822 20.1428C39.6993 20.0446 40.0435 19.9873 40.3838 19.9668C42.9517 19.8031 45.3494 21.7061 45.7941 24.4193C45.9604 25.3973 45.8753 26.4245 45.8908 27.4435C45.9024 28.1269 45.8753 28.8063 45.8598 29.4897H45.8096V29.4815Z" fill="white"/>
<path d="M42.9652 29.4078C42.9304 31.0365 42.9691 32.6816 42.8453 34.2981C42.6791 36.7126 41.0471 38.5991 38.9356 39.1352C37.029 38.5418 35.6523 36.8763 35.3313 34.6623C35.2888 34.3554 35.2695 34.0444 35.2617 33.7252C35.2695 33.4428 35.2617 33.1645 35.2695 32.8822C35.2617 32.0514 35.2811 31.2371 35.3004 30.4104C35.3004 29.8088 35.3275 29.2195 35.3391 28.6343C35.37 27.8077 35.4009 26.9769 35.4319 26.1503C35.4512 25.7615 35.4744 25.3768 35.4938 24.9881C35.4976 24.7876 35.5286 24.587 35.5556 24.4029V24.3742C35.9037 22.2994 37.4428 20.6502 39.3764 20.1387C41.1708 20.7157 42.6133 22.2912 42.9459 24.3415C43.1122 25.3196 43.0426 26.3508 43.0426 27.3657C43.0542 28.0491 43.0271 28.7285 43.0116 29.4119H42.9614L42.9652 29.4078Z" fill="white"/>
<path d="M41.4973 47.2505L43.6939 47.3037C44.39 47.3201 44.9546 47.938 44.9392 48.6828C44.9314 49.043 44.7845 49.3744 44.5408 49.62C44.2972 49.8655 43.9762 50.0088 43.6359 50.0006L36.6672 49.8287C35.9711 49.8123 35.4065 49.1821 35.4219 48.4496C35.4297 48.0895 35.5766 47.758 35.8202 47.5083C36.0677 47.2464 36.3849 47.1196 36.7252 47.1278L38.9218 47.181L39.0223 42.6794C37.7655 42.4216 36.7638 42.0083 35.9053 41.3862C33.1055 39.381 31.8061 36.5286 32.0381 32.8824C32.0806 32.1499 32.5718 31.6383 33.2679 31.6015C33.9756 31.5524 34.5441 32.1417 34.6021 32.9724C34.6098 33.2261 34.6291 33.4962 34.6369 33.75C34.6523 34.2861 34.6639 34.7935 34.7568 35.2641C35.2324 37.7482 37.5528 40.2936 40.8902 40.0931C43.5354 39.9294 45.8016 37.8464 46.2927 35.1332C46.3662 34.6953 46.3894 34.241 46.4242 33.7868L46.4435 33.4799C46.5247 32.1171 47.3755 31.9657 47.739 31.9616C48.3578 31.9616 48.992 32.3668 49.0075 33.529C49.1042 38.4111 45.8866 41.5786 42.8741 42.4666C42.4912 42.5771 42.1006 42.6467 41.6946 42.7326L41.6056 42.7572L41.5089 47.2464L41.4973 47.2505Z" fill="white"/>
<path d="M35.5651 24.3828L37.7965 24.436C38.2567 24.4483 38.6202 24.8534 38.6086 25.3445C38.6048 25.586 38.5042 25.8069 38.3495 25.9665C38.1948 26.1261 37.986 26.2162 37.754 26.2121L35.4375 26.1548L35.5613 24.3828H35.5651Z" fill="#BEBEBE"/>
<path d="M38.5144 29.5965C38.5105 29.8379 38.41 30.0589 38.2553 30.2185C38.1006 30.374 37.8918 30.4681 37.6597 30.464L35.2969 30.4067C35.3046 29.8174 35.3239 29.2241 35.3394 28.6348L37.6984 28.6921C38.1586 28.7043 38.5221 29.1095 38.5105 29.6006L38.5144 29.5965Z" fill="#BEBEBE"/>
<path d="M38.4213 33.8523C38.4175 34.0938 38.3169 34.3148 38.1622 34.4744C38.0075 34.6299 37.7987 34.724 37.5667 34.7199L35.3391 34.6667C35.2966 34.3639 35.2695 34.0488 35.2695 33.7295C35.2695 33.4472 35.2695 33.173 35.2695 32.8906L37.6053 32.9479C38.0655 32.9602 38.4291 33.3653 38.4175 33.8564L38.4213 33.8523Z" fill="#BEBEBE"/>
</g>
<defs>
<clipPath id="clip0_7856_38989">
<rect width="48" height="50" fill="white" transform="translate(1)"/>
</clipPath>
</defs>
</svg>
