<svg width="24" height="24" viewBox="0 0 24 24" fill="none" xmlns="http://www.w3.org/2000/svg">
<path d="M17.0396 5.60025C18.1784 5.60025 19.2705 6.07384 20.0757 6.91684C20.8809 7.75985 21.3333 8.90321 21.3333 10.0954V16.8381C21.3333 18.0303 20.8809 19.1737 20.0757 20.0167C19.2705 20.8597 18.1784 21.3333 17.0396 21.3333H6.96028C5.82153 21.3333 4.72942 20.8597 3.9242 20.0167C3.11899 19.1737 2.66663 18.0303 2.66663 16.8381V10.0954C2.66663 8.90321 3.11899 7.75985 3.9242 6.91684C4.72942 6.07384 5.82153 5.60025 6.96028 5.60025H7.46478L7.79754 4.30793C7.92609 3.82753 8.20366 3.40554 8.58651 3.10849C8.96937 2.81143 9.43574 2.65616 9.91216 2.66717H14.2058C14.6791 2.66814 15.1389 2.83282 15.5136 3.13565C15.8882 3.43847 16.1568 3.86245 16.2775 4.34161L16.6102 5.63399L17.0396 5.60025Z" stroke="#646466" stroke-width="1.25" stroke-miterlimit="10"/>
<path d="M12.0586 17.2766C12.8361 17.2789 13.5967 17.0395 14.2442 16.589C14.8916 16.1384 15.3969 15.4967 15.6959 14.7454C15.9949 13.994 16.0742 13.1667 15.9238 12.3681C15.7734 11.5695 15.4001 10.8356 14.8511 10.2592C14.3021 9.68286 13.6021 9.29002 12.8397 9.13041C12.0773 8.97079 11.2869 9.05154 10.5684 9.36252C9.84985 9.67349 9.23565 10.2007 8.80348 10.8773C8.37132 11.554 8.14063 12.3496 8.14063 13.1636C8.14062 14.2525 8.55306 15.297 9.28751 16.068C10.022 16.839 11.0185 17.2737 12.0586 17.2766Z" stroke="#646466" stroke-width="1.25" stroke-miterlimit="10"/>
</svg>
