<svg width="24" height="24" viewBox="0 0 24 24" fill="none" xmlns="http://www.w3.org/2000/svg">
<g transform="scale(0.96)">
<path d="M3 7.51314V13.1696C3 15.6669 5.0259 17.6827 7.51314 17.6827H15.3961C16.3589 17.6827 17.2715 18.0638 17.9535 18.7458L19.9393 20.7316C20.511 21.3033 21.4838 20.9021 21.4838 20.0897V7.51314C21.4838 5.01587 19.4579 3 16.9707 3H7.51314C5.01587 3 3 5.0259 3 7.51314Z" stroke="#646466" stroke-width="1.4" stroke-miterlimit="10"/>
<path d="M15.6489 10.1506C15.8137 10.0822 16.0399 10.1197 16.1948 10.2639H16.1958C16.2891 10.3572 16.3403 10.4792 16.3403 10.6223C16.3403 10.7654 16.2891 10.8874 16.1958 10.9807C16.1595 11.017 16.1099 11.051 16.0386 11.0784L16.0259 11.0833C15.954 11.1132 15.8993 11.1252 15.8374 11.1252C15.7829 11.1252 15.718 11.112 15.6489 11.0833C15.5889 11.0582 15.5326 11.0229 15.478 10.9768C15.3851 10.8732 15.3345 10.749 15.3345 10.6223C15.3345 10.4945 15.3856 10.369 15.48 10.2649C15.5484 10.2057 15.6043 10.1692 15.6489 10.1506Z" fill="#646466" stroke="#646466"/>
<path d="M8.45801 10.1614C8.57555 10.1125 8.71742 10.1124 8.83496 10.1614C8.89659 10.1871 8.95487 10.2227 9.01074 10.2708C9.10002 10.3632 9.14941 10.4825 9.14941 10.6223C9.1494 10.7029 9.13633 10.7649 9.11719 10.8108C9.09889 10.8547 9.06341 10.9088 9.00586 10.9758C8.95119 11.0221 8.89514 11.0582 8.83496 11.0833C8.76585 11.112 8.70095 11.1252 8.64648 11.1252C8.59202 11.1252 8.52712 11.112 8.45801 11.0833C8.39822 11.0583 8.34243 11.0227 8.28809 10.9768C8.24393 10.9237 8.20984 10.8691 8.18555 10.8108C8.15676 10.7417 8.14358 10.6768 8.14355 10.6223C8.14355 10.4952 8.1936 10.3697 8.28711 10.2659C8.34138 10.2201 8.39831 10.1863 8.45801 10.1614Z" fill="#646466" stroke="#646466"/>
<path d="M11.8885 10.264C12.0242 10.1373 12.211 10.0962 12.3622 10.1351L12.4247 10.1566L12.4354 10.1615C12.5038 10.19 12.5575 10.226 12.5956 10.264C12.6979 10.3664 12.7499 10.4921 12.7499 10.6224C12.7498 10.7528 12.6979 10.8784 12.5956 10.9808C12.5575 11.0189 12.5038 11.0549 12.4354 11.0834C12.3663 11.1121 12.3014 11.1254 12.2469 11.1254C12.1165 11.1254 11.988 11.0723 11.8827 10.974C11.7933 10.8815 11.7441 10.7623 11.744 10.6224C11.744 10.5152 11.7725 10.4196 11.826 10.3392L11.8885 10.264Z" fill="#646466" stroke="#646466"/>
</g>
</svg>
