<svg width="24" height="24" viewBox="0 0 24 24" fill="none" xmlns="http://www.w3.org/2000/svg">
<g clip-path="url(#clip0_2115_51)">
<path d="M17.7876 7.14928V17.3453C17.7876 17.5132 17.7688 17.6776 17.7328 17.8353C17.6831 18.0614 17.5992 18.2739 17.4878 18.4692C17.0989 19.1494 16.3656 19.6068 15.5261 19.6068H6.76588L3.97832 21.8479C3.4746 22.158 2.82697 21.7965 2.82697 21.2054V19.6068H2.26158C1.01257 19.6068 0 18.5943 0 17.3453V7.14928C0 5.90027 1.01257 4.8877 2.26158 4.8877H15.5261C16.7751 4.8877 17.7876 5.90027 17.7876 7.14928Z" fill="#5F85BC"/>
<path d="M17.7876 7.14928V17.3453C17.7876 17.5132 17.7688 17.6776 17.7328 17.8353H7.08628C5.83728 17.8353 4.82471 16.8227 4.82471 15.5737V5.37771C4.82471 5.2098 4.84355 5.04532 4.87953 4.8877H15.5261C16.7751 4.8877 17.7876 5.90027 17.7876 7.14928Z" fill="#4274B0"/>
<path d="M24 4.30016V14.4961C24 15.7452 22.9875 16.7577 21.7385 16.7577H21.1731V18.3563C21.1731 18.9474 20.5254 19.3089 20.0217 18.9988L17.2342 16.7577H8.47398C7.22497 16.7577 6.2124 15.7452 6.2124 14.4961V4.30016C6.2124 3.05115 7.22497 2.03857 8.47398 2.03857H21.7385C22.9875 2.03857 24 3.05115 24 4.30016Z" fill="#79A3D2"/>
<path d="M10.8095 10.9734C11.4784 10.9734 12.0208 10.4311 12.0208 9.7621C12.0208 9.09311 11.4784 8.55078 10.8095 8.55078C10.1405 8.55078 9.59814 9.09311 9.59814 9.7621C9.59814 10.4311 10.1405 10.9734 10.8095 10.9734Z" fill="white"/>
<path d="M15.1063 10.9734C15.7753 10.9734 16.3176 10.4311 16.3176 9.7621C16.3176 9.09311 15.7753 8.55078 15.1063 8.55078C14.4373 8.55078 13.895 9.09311 13.895 9.7621C13.895 10.4311 14.4373 10.9734 15.1063 10.9734Z" fill="white"/>
<path d="M19.4032 10.9734C20.0722 10.9734 20.6145 10.4311 20.6145 9.7621C20.6145 9.09311 20.0722 8.55078 19.4032 8.55078C18.7342 8.55078 18.1919 9.09311 18.1919 9.7621C18.1919 10.4311 18.7342 10.9734 19.4032 10.9734Z" fill="white"/>
</g>
<defs>
<clipPath id="clip0_2115_51">
<rect width="24" height="24" fill="white"/>
</clipPath>
</defs>
</svg>
