<svg width="24" height="24" viewBox="0 0 24 24" fill="none" xmlns="http://www.w3.org/2000/svg">
<path d="M19.5104 15.3892L18.5989 15.3892C18.1154 15.3892 17.6517 15.1995 17.3098 14.8618C16.968 14.5242 16.7759 14.0662 16.7759 13.5887L16.7759 3.9168C16.7858 3.57934 16.9295 3.25921 17.1761 3.0254C17.4226 2.7916 17.7524 2.66285 18.0942 2.66689L19.5104 2.66689C19.7498 2.66689 19.9868 2.71346 20.208 2.80394C20.4292 2.89443 20.6302 3.02705 20.7994 3.19424C21.1413 3.53189 21.3334 3.98984 21.3334 4.46735L21.3334 13.5887C21.3334 14.0662 21.1413 14.5242 20.7994 14.8618C20.4576 15.1995 19.9939 15.3892 19.5104 15.3892V15.3892Z" stroke="#646466" stroke-width="1.4" stroke-linecap="round" stroke-linejoin="round"/>
<path d="M8.92633 14.7715L4.48947 14.7715C3.36705 14.7715 2.51581 13.5885 2.68907 12.2865L3.44237 6.91493C3.72109 4.82431 5.25022 3.28424 7.04308 3.28424L16.5648 3.28424" stroke="#646466" stroke-width="1.4" stroke-linecap="round" stroke-linejoin="round"/>
<path d="M8.92647 14.7714L8.92647 17.8589C8.92647 18.3152 9.01755 18.767 9.19434 19.1885C9.37113 19.6101 9.63026 19.9931 9.95693 20.3157C10.2836 20.6383 10.6714 20.8943 11.0982 21.0689C11.525 21.2435 11.9824 21.3334 12.4444 21.3334V21.3334L12.4444 18.3574C12.4434 17.8839 12.537 17.4148 12.7198 16.9771C12.9026 16.5393 13.171 16.1415 13.5096 15.8063C13.8483 15.4712 14.2505 15.2053 14.6934 15.0238C15.1362 14.8424 15.6109 14.749 16.0904 14.749L16.7834 14.749" stroke="#646466" stroke-width="1.4" stroke-linecap="round" stroke-linejoin="round"/>
</svg>
