<svg width="24" height="24" viewBox="0 0 24 24" fill="none" xmlns="http://www.w3.org/2000/svg">
<path d="M2.66664 7.36892V13.2389C2.66531 13.8559 2.78208 14.4672 3.01029 15.0376C3.23849 15.608 3.57368 16.1265 3.99659 16.5633C4.41949 17.0001 4.92183 17.3466 5.47486 17.583C6.0279 17.8194 6.62074 17.9411 7.21948 17.9411H15.1718C16.1309 17.9282 17.0569 18.3024 17.7517 18.9838L19.7752 21.069C19.9044 21.1968 20.0669 21.283 20.2429 21.317C20.4189 21.3511 20.6007 21.3314 20.7661 21.2606C20.9315 21.1898 21.0732 21.0709 21.1739 20.9183C21.2747 20.7658 21.33 20.5862 21.3333 20.4017V7.36892C21.3333 6.12361 20.854 4.92919 20.0004 4.04765C19.1469 3.16611 17.9889 2.66943 16.7805 2.66667H7.23973C6.63929 2.66392 6.04426 2.78363 5.48888 3.01884C4.93351 3.25404 4.42874 3.6001 4.00369 4.03715C3.57864 4.47421 3.24167 4.99358 3.0122 5.56539C2.78273 6.1372 2.6653 6.75015 2.66664 7.36892V7.36892Z" stroke="#646466" stroke-width="1.25" stroke-miterlimit="10"/>
<ellipse cx="9.74905" cy="10.8095" rx="1.01174" ry="1.04262" fill="#646466"/>
<ellipse cx="14.8076" cy="10.8095" rx="1.01174" ry="1.04262" fill="#646466"/>
</svg>
