<svg width="24" height="24" viewBox="0 0 24 24" fill="none" xmlns="http://www.w3.org/2000/svg">
<path d="M4.48962 8.61096H5.40111C5.8846 8.61096 6.34828 8.80065 6.69016 9.13831C7.03204 9.47596 7.2241 9.93391 7.2241 10.4114V20.0833C7.21425 20.4208 7.07054 20.7409 6.82395 20.9747C6.57736 21.2085 6.24763 21.3373 5.90582 21.3332H4.48962C4.25022 21.3332 4.01316 21.2867 3.79199 21.1962C3.57081 21.1057 3.36985 20.9731 3.20057 20.8059C2.85869 20.4682 2.66663 20.0103 2.66663 19.5328V10.4114C2.66663 9.93391 2.85869 9.47596 3.20057 9.13831C3.54244 8.80065 4.00613 8.61096 4.48962 8.61096V8.61096Z" stroke="#646466" stroke-width="1.25" stroke-linecap="round" stroke-linejoin="round"/>
<path d="M15.0737 9.22852H19.5105C20.633 9.22852 21.4842 10.4115 21.3109 11.7135L20.5576 17.0851C20.2789 19.1757 18.7498 20.7158 16.9569 20.7158H7.43518" stroke="#646466" stroke-width="1.25" stroke-linecap="round" stroke-linejoin="round"/>
<path d="M15.0735 9.22864V6.1411C15.0735 5.68483 14.9825 5.233 14.8057 4.81146C14.6289 4.38992 14.3697 4.00693 14.0431 3.6843C13.7164 3.36167 13.3286 3.10574 12.9018 2.93114C12.475 2.75653 12.0176 2.66663 11.5556 2.66663V5.64259C11.5566 6.1161 11.463 6.58517 11.2802 7.02291C11.0974 7.46066 10.829 7.8585 10.4904 8.19367C10.1517 8.52883 9.74946 8.79474 9.30661 8.97616C8.86377 9.15759 8.38905 9.25098 7.90962 9.25098H7.21655" stroke="#646466" stroke-width="1.25" stroke-linecap="round" stroke-linejoin="round"/>
</svg>
