<svg width="24" height="24" viewBox="0 0 24 24" fill="none" xmlns="http://www.w3.org/2000/svg">
<g clip-path="url(#clip0_2115_51)">
<path d="M12.4431 0.970972L2.0998 5.57751C0.969775 6.08079 0.45889 7.41118 0.958703 8.54902L6.84078 21.9398C7.3406 23.0777 8.66184 23.5921 9.79186 23.0888L20.1351 18.4823C21.2652 17.979 21.776 16.6486 21.2762 15.5108L15.3941 2.11997C14.8943 0.982119 13.5731 0.467698 12.4431 0.970972Z" fill="#5D5D9F"/>
<path d="M21.7821 17.7041L19.0569 18.9186L14.0704 21.1398L11.439 22.3116C10.3084 22.8141 8.98813 22.3005 8.48727 21.1639L2.60402 7.77145C2.105 6.63301 2.61507 5.30359 3.74568 4.80112L14.0888 0.193571C15.2194 -0.310756 16.5397 0.204696 17.0406 1.34129L19.2834 6.44759L20.1949 8.52053L21.5704 11.654L21.598 11.7152L22.9238 14.7338C23.4228 15.8703 22.9128 17.2016 21.7821 17.7041Z" fill="#5F85BC"/>
<path d="M19.0575 18.9182L19.1367 18.6901L21.5526 11.8428L21.5986 11.7148L21.6133 11.6703L21.571 11.6537L21.4568 11.6073L20.6411 11.2902L17.798 10.1852L16.8128 9.80322L14.3895 16.6691L13.4302 19.3891L14.071 21.1395L19.0575 18.9182Z" fill="#4274B0"/>
<path d="M21.4565 11.6074L20.6408 11.2903L17.7976 10.1852L16.8125 9.80328L17.1826 8.75013L17.5619 7.67658C17.8326 6.91453 18.5342 6.44358 19.2837 6.44729L20.1951 8.52022L21.4565 11.6074Z" fill="#4274B0"/>
<path d="M14.6265 2.31566L5.75505 6.26669C5.33373 6.45433 5.14325 6.95036 5.3296 7.37459L5.3378 7.39324C5.52415 7.81748 6.01676 8.00927 6.43808 7.82163L15.3095 3.8706C15.7308 3.68296 15.9213 3.18694 15.735 2.7627L15.7268 2.74405C15.5404 2.31981 15.0478 2.12802 14.6265 2.31566Z" fill="#79A3D2"/>
<path d="M14.5771 6.57905L7.3156 9.81308C6.89428 10.0007 6.7038 10.4967 6.89015 10.921L6.89834 10.9396C7.08469 11.3639 7.57731 11.5557 7.99862 11.368L15.2601 8.13399C15.6814 7.94635 15.8719 7.45033 15.6856 7.02609L15.6774 7.00744C15.491 6.58321 14.9984 6.39141 14.5771 6.57905Z" fill="#79A3D2"/>
<path d="M13.4464 13.7436L9.61442 15.5106C9.28665 15.6571 8.90364 15.5069 8.76001 15.1769L8.60165 14.8153C8.45618 14.4853 8.60534 14.0996 8.93311 13.955L12.765 12.188C13.0928 12.0415 13.4758 12.1917 13.6195 12.5217L13.7778 12.8833C13.9233 13.2133 13.7741 13.599 13.4464 13.7436Z" fill="#79A3D2"/>
<path d="M23.132 11.6712L20.6553 18.6929L19.707 21.3851C19.4823 21.2126 19.2982 20.9753 19.1932 20.6842C19.079 20.3727 19.0717 20.0482 19.1472 19.7553L22.1615 11.293L23.1338 11.6712H23.132Z" fill="#E69A24"/>
<path d="M22.1614 11.2905L19.1471 19.7528C18.9979 20.1033 18.7143 20.3925 18.335 20.5316C18.0938 20.6206 17.8452 20.6391 17.6095 20.5983L17.0884 20.3981C16.8159 20.2275 16.5986 19.9679 16.4789 19.6416C16.3481 19.2856 16.361 18.9129 16.4844 18.5884L19.3183 10.1836L22.1614 11.2887V11.2905Z" fill="#F2AE1D"/>
<path d="M19.3169 10.1872L16.483 18.5921C16.3302 18.9221 16.0558 19.1928 15.6912 19.3282C15.4444 19.419 15.1903 19.4357 14.9473 19.3912L15.9085 16.673L18.3317 9.80713L19.3169 10.1891V10.1872Z" fill="#F8BE57"/>
<path d="M23.8901 9.51765L23.5034 10.6153L18.6992 8.75003L19.0785 7.67648C19.4247 6.69564 20.4835 6.19873 21.4466 6.5677L22.7724 7.07574C23.7354 7.44471 24.2363 8.5368 23.8901 9.51765Z" fill="#E74970"/>
<path d="M23.504 10.6158L23.1321 11.6708L22.1598 11.2907L19.3167 10.1856L18.3315 9.80364L18.7017 8.75049L23.504 10.6158Z" fill="#F27780"/>
<path d="M19.1931 20.6833C19.2999 20.9725 19.4822 21.2117 19.7069 21.3841L17.6942 22.7581L17.1124 23.1567C16.792 23.3755 16.35 23.2253 16.2138 22.8508L14.9487 19.3909C15.1918 19.4373 15.4459 19.4206 15.6927 19.3279C16.0573 19.1925 16.3316 18.9218 16.4845 18.5918C16.3611 18.9163 16.35 19.289 16.4789 19.6449C16.5986 19.9713 16.8159 20.2309 17.0884 20.4014L17.6095 20.6017C17.8452 20.6425 18.0938 20.6239 18.3351 20.5349C18.7144 20.394 18.998 20.1066 19.1471 19.7562C19.0716 20.0492 19.079 20.3736 19.1931 20.6851V20.6833Z" fill="#FBDEB0"/>
<path d="M17.6944 22.7568L17.1125 23.1555C16.7921 23.3743 16.3501 23.2241 16.2139 22.8495L15.9727 22.1913C16.0408 22.1487 16.1144 22.1116 16.1955 22.0819C16.7902 21.8613 17.4476 22.1635 17.6944 22.7587V22.7568Z" fill="#5F85BC"/>
<path d="M3.47939 7.25822C3.81636 7.1136 4.19201 7.19518 4.44059 7.43622C4.52346 7.5178 4.59343 7.61607 4.64131 7.73103C4.65236 7.75699 4.66156 7.78294 4.66893 7.80705C4.80703 8.24092 4.59711 8.71929 4.17175 8.90099C3.79611 9.0623 3.3689 8.94178 3.12952 8.63214C3.08901 8.58208 3.05587 8.52646 3.0264 8.46712C3.02088 8.45414 3.01536 8.44302 3.00983 8.43004C2.81833 7.97763 3.02824 7.45291 3.47939 7.26008V7.25822Z" fill="#5D5D9F"/>
<path d="M3.75145 9.12671L1.16429 10.2503C0.738927 10.4302 0.249116 10.2262 0.0723417 9.79791L0.0649761 9.78122C-0.113639 9.35291 0.0889142 8.85971 0.514276 8.68171L3.10144 7.5581C3.5268 7.37825 4.01661 7.58221 4.19338 8.01051L4.20075 8.0272C4.37936 8.45551 4.17681 8.94871 3.75145 9.12671Z" fill="#F2AE1D"/>
<path d="M4.94667 11.4721C5.28365 11.3275 5.65929 11.409 5.90788 11.6501C5.99074 11.7317 6.06072 11.8299 6.10859 11.9449C6.11964 11.9709 6.12885 11.9968 6.13621 12.0209C6.27432 12.4548 6.0644 12.9332 5.63904 13.1149C5.26339 13.2762 4.83619 13.1557 4.59681 12.846C4.5563 12.7959 4.52315 12.7403 4.49369 12.681C4.48816 12.668 4.48264 12.6569 4.47712 12.6439C4.28561 12.1915 4.49553 11.6668 4.94667 11.4739V11.4721Z" fill="#5D5D9F"/>
<path d="M5.22069 13.3391L2.63353 14.4627C2.20816 14.6426 1.71835 14.4386 1.54158 14.0103L1.53421 13.9936C1.3556 13.5653 1.55815 13.0721 1.98351 12.8941L4.57067 11.7705C4.99604 11.5907 5.48585 11.7946 5.66262 12.2229L5.66999 12.2396C5.8486 12.6679 5.64605 13.1611 5.22069 13.3391Z" fill="#F2AE1D"/>
<path d="M6.85634 15.4755C7.19331 15.3309 7.56896 15.4125 7.81755 15.6535C7.90041 15.7351 7.97038 15.8334 8.01826 15.9483C8.02931 15.9743 8.03851 16.0002 8.04588 16.0243C8.18398 16.4582 7.97407 16.9366 7.5487 17.1183C7.17306 17.2796 6.74586 17.1591 6.50648 16.8494C6.46596 16.7994 6.43282 16.7437 6.40336 16.6844C6.39783 16.6714 6.39231 16.6603 6.38678 16.6473C6.19528 16.1949 6.4052 15.6702 6.85634 15.4774V15.4755Z" fill="#5D5D9F"/>
<path d="M7.1284 17.3425L4.54124 18.4661C4.11588 18.646 3.62607 18.442 3.44929 18.0137L3.44193 17.997C3.26331 17.5687 3.46587 17.0755 3.89123 16.8975L6.47839 15.7739C6.90375 15.5941 7.39356 15.798 7.57034 16.2263L7.5777 16.243C7.75632 16.6713 7.55376 17.1645 7.1284 17.3425Z" fill="#F2AE1D"/>
<path d="M8.18935 19.1283C8.52632 18.9837 8.90197 19.0653 9.15056 19.3063C9.23342 19.3879 9.30339 19.4862 9.35127 19.6011C9.36232 19.6271 9.37152 19.6531 9.37889 19.6772C9.51699 20.111 9.30707 20.5894 8.88171 20.7711C8.50607 20.9324 8.07886 20.8119 7.83948 20.5023C7.79897 20.4522 7.76583 20.3966 7.73636 20.3372C7.73084 20.3243 7.72532 20.3131 7.71979 20.3002C7.52829 19.8477 7.73821 19.323 8.18935 19.1302V19.1283Z" fill="#5D5D9F"/>
<path d="M8.46141 20.9949L5.87425 22.1185C5.44889 22.2983 4.95908 22.0944 4.7823 21.6661L4.77494 21.6494C4.59632 21.2211 4.79888 20.7279 5.22424 20.5499L7.8114 19.4263C8.23676 19.2464 8.72657 19.4504 8.90334 19.8787L8.91071 19.8954C9.08932 20.3237 8.88677 20.8169 8.46141 20.9949Z" fill="#F2AE1D"/>
</g>
<defs>
<clipPath id="clip0_2115_51">
<rect width="24" height="24" fill="white"/>
</clipPath>
</defs>
</svg>
