<svg width="24" height="24" viewBox="0 0 24 24" fill="none" xmlns="http://www.w3.org/2000/svg">
<path d="M15.1107 14.7094V17.9482C15.1137 17.9972 15.1305 18.0443 15.159 18.0843C15.1875 18.1243 15.2266 18.1555 15.272 18.1745C15.3173 18.1934 15.3671 18.1993 15.4156 18.1915C15.4641 18.1837 15.5095 18.1625 15.5466 18.1304L20.8383 12.8471C21.1553 12.5302 21.3333 12.1007 21.3333 11.6528C21.3333 11.2049 21.1553 10.7754 20.8383 10.4585L15.7696 5.39787C15.7325 5.36569 15.6871 5.3445 15.6386 5.33672C15.59 5.32893 15.5403 5.33482 15.495 5.35377C15.4496 5.37271 15.4105 5.40397 15.382 5.44396C15.3535 5.48394 15.3368 5.53107 15.3337 5.58005V8.61642C15.3337 8.61642 8.23753 7.93831 2.69239 18.3025C2.66806 18.3521 2.66071 18.4084 2.67141 18.4626C2.68212 18.5168 2.71029 18.566 2.75166 18.6028C2.79304 18.6395 2.84533 18.6617 2.90053 18.666C2.95573 18.6702 3.01079 18.6563 3.05732 18.6264C5.11521 17.2701 10.5691 13.9503 15.1107 14.7094Z" stroke="#646466" stroke-width="1.17" stroke-linecap="round" stroke-linejoin="round"/>
</svg>
