<svg width="24" height="24" viewBox="0 0 24 24" fill="none" xmlns="http://www.w3.org/2000/svg">
<path d="M18.0633 16.2762C17.7742 16.5249 17.3786 16.7569 16.8765 16.9724C15.5984 17.5028 13.7117 17.8343 11.5967 17.8343C9.48173 17.8343 7.59501 17.5028 6.3169 16.9724C5.26703 16.5414 4.64319 15.9945 4.64319 15.3812C4.64319 14.6685 5.52569 14.0221 6.92552 13.5746" stroke="#646466" stroke-linecap="round" stroke-linejoin="round"/>
<path d="M18.5503 16.3922V18.5635C18.5503 18.8287 18.4286 19.0773 18.2155 19.3094C17.333 20.2873 14.7007 21 11.5968 21C8.4928 21 5.86051 20.2873 4.96279 19.3094C4.74978 19.0773 4.62805 18.8287 4.62805 18.5635V15.3646C4.62805 15.9779 5.26711 16.5248 6.30176 16.9558C7.57987 17.4862 9.4666 17.8177 11.5816 17.8177C13.6965 17.8177 15.5832 17.4862 16.8614 16.9558C17.3483 16.7569 17.7591 16.5248 18.0482 16.2597" stroke="#646466" stroke-linecap="round" stroke-linejoin="round"/>
<path d="M16.9221 8.66858C19.3262 9.04979 20.9999 9.91167 20.9999 10.9061C20.9999 11.5194 20.3609 12.0664 19.3262 12.4973C18.0481 13.0277 16.1614 13.3592 14.0464 13.3592C11.9314 13.3592 10.0447 13.0277 8.76661 12.4973C7.71673 12.0664 7.0929 11.5194 7.0929 10.9061" stroke="#646466" stroke-linecap="round" stroke-linejoin="round"/>
<path d="M21 10.8895V14.0884C21 14.3536 20.8783 14.6022 20.6652 14.8343C19.7827 15.8122 17.1505 16.5249 14.0465 16.5249C10.9425 16.5249 8.31022 15.8122 7.4125 14.8343C7.19948 14.6022 7.07776 14.3536 7.07776 14.0884V10.8895C7.07776 11.5028 7.71681 12.0497 8.75147 12.4807C10.0296 13.0111 11.9163 13.3426 14.0313 13.3426C16.1462 13.3426 18.033 13.0111 19.3111 12.4807C20.3609 12.0497 20.9848 11.5028 20.9848 10.8895H21Z" stroke="#646466" stroke-linecap="round" stroke-linejoin="round"/>
<path d="M16.9222 5.45304C16.9222 6.0663 16.2832 6.61326 15.2485 7.0442C13.9704 7.57459 12.0837 7.90608 9.9687 7.90608C7.85374 7.90608 5.96701 7.57459 4.6889 7.0442C3.63903 6.61326 3.01519 6.0663 3.01519 5.45304C2.99998 4.09392 6.11916 3 9.9687 3C13.8182 3 16.9222 4.1105 16.9222 5.45304V5.45304Z" stroke="#646466" stroke-linecap="round" stroke-linejoin="round"/>
<path d="M16.9222 5.45312V8.65202C16.9222 8.91721 16.8005 9.16583 16.5875 9.39788C15.705 10.3758 13.0727 11.0885 9.96872 11.0885C6.86475 11.0885 4.23246 10.3758 3.33474 9.39788C3.12172 9.16583 3 8.91721 3 8.65202V5.45312C3 6.06638 3.63905 6.61335 4.67371 7.04429C5.95182 7.57467 7.83855 7.90616 9.95351 7.90616C12.0685 7.90616 13.9552 7.57467 15.2333 7.04429C16.2832 6.61335 16.907 6.06638 16.907 5.45312H16.9222Z" stroke="#646466" stroke-linecap="round" stroke-linejoin="round"/>
</svg>
