<svg width="24" height="24" viewBox="0 0 24 24" fill="none" xmlns="http://www.w3.org/2000/svg">
<g clip-path="url(#clip0_2115_957)">
<path d="M13.126 1.21324L15.4412 5.91961C15.6696 6.3806 16.0066 6.77922 16.4231 7.08115C16.8396 7.38308 17.3233 7.57927 17.8324 7.65288L23.0196 8.39936C23.2322 8.44849 23.4286 8.55175 23.5895 8.6992C23.7505 8.84666 23.8705 9.03325 23.938 9.24082C24.0055 9.44839 24.0181 9.66992 23.9747 9.88383C23.9313 10.0977 23.8332 10.2968 23.6901 10.4616L19.8946 14.1305C19.5268 14.4873 19.2516 14.9285 19.0929 15.4158C18.9342 15.903 18.8967 16.4216 18.9837 16.9265L19.8693 22.101C19.8858 22.3166 19.8467 22.5329 19.7558 22.7291C19.665 22.9254 19.5253 23.095 19.3502 23.2219C19.1751 23.3488 18.9704 23.4287 18.7556 23.454C18.5408 23.4792 18.3232 23.449 18.1234 23.3662L13.4803 20.9118C13.0252 20.6745 12.5195 20.5506 12.0063 20.5506C11.4931 20.5506 10.9875 20.6745 10.5324 20.9118L5.87661 23.3662C5.67684 23.449 5.45919 23.4792 5.24442 23.454C5.02965 23.4287 4.8249 23.3488 4.64979 23.2219C4.47468 23.095 4.33504 22.9254 4.24416 22.7291C4.15328 22.5329 4.1142 22.3166 4.13068 22.101L5.01631 16.9265C5.10333 16.4216 5.06582 15.903 4.90709 15.4158C4.74835 14.9285 4.47318 14.4873 4.10539 14.1305L0.309904 10.4616C0.166794 10.2968 0.0687478 10.0977 0.0253115 9.88383C-0.0181248 9.66992 -0.00550236 9.44839 0.0619907 9.24082C0.129484 9.03325 0.249549 8.84666 0.410482 8.6992C0.571415 8.55175 0.767768 8.44849 0.980439 8.39936L6.18024 7.65288C6.68749 7.57838 7.16905 7.3817 7.5834 7.07976C7.99774 6.77781 8.33246 6.37966 8.55875 5.91961L10.8867 1.21324C10.994 1.00923 11.155 0.838429 11.3524 0.71927C11.5497 0.600111 11.7758 0.537109 12.0063 0.537109C12.2368 0.537109 12.463 0.600111 12.6603 0.71927C12.8576 0.838429 13.0187 1.00923 13.126 1.21324Z" fill="#F2AE1C"/>
</g>
<defs>
<clipPath id="clip0_2115_957">
<rect width="24" height="24" fill="white"/>
</clipPath>
</defs>
</svg>
