<svg width="24" height="24" viewBox="0 0 24 24" fill="none" xmlns="http://www.w3.org/2000/svg">
<path d="M16 8.47059C16 8.34578 15.9504 8.22608 15.8622 8.13783C15.7739 8.04958 15.6542 8 15.5294 8C15.4046 8 15.2849 8.04958 15.1967 8.13783C15.1084 8.22608 15.0588 8.34578 15.0588 8.47059V11.5275L9.16047 8.10541C8.67106 7.82118 8 8.14588 8 8.76047V15.7101C8 16.3247 8.67106 16.6494 9.16047 16.3652L15.0588 12.9431V16C15.0588 16.1248 15.1084 16.2445 15.1967 16.3328C15.2849 16.421 15.4046 16.4706 15.5294 16.4706C15.6542 16.4706 15.7739 16.421 15.8622 16.3328C15.9504 16.2445 16 16.1248 16 16V8.47059ZM8.94118 9.06635L14.4038 12.2353L8.94118 15.4042V9.06635Z" fill="#646466"/>
<circle cx="12" cy="12" r="9.5" stroke="#646466"/>
</svg>
