<svg width="24" height="24" viewBox="0 0 24 24" fill="none" xmlns="http://www.w3.org/2000/svg">
<g clip-path="url(#clip0_whatsapp)">
<path d="M20.52 3.449C18.253 1.238 15.211 0 11.944 0C9.856 0 7.803 0.544 6.01 1.585C4.219 2.627 2.773 4.127 1.725 5.934C0.676 7.741 0.122 9.793 0.117 11.882C0.111 13.972 0.656 16.026 1.696 17.838L0 24L6.335 22.348C8.099 23.276 10.058 23.773 12.053 23.795C22.684 23.795 27.976 10.931 20.505 3.488L20.52 3.449Z" fill="white"/>
<path d="M12 21.333H11.979C10.175 21.326 8.409 20.806 6.893 19.829L3.373 20.749L4.318 17.309L4.093 16.953C2.992 15.2 2.507 13.132 2.714 11.073C2.919 9.014 3.803 7.082 5.226 5.58C6.649 4.079 8.531 3.092 10.575 2.776C12.62 2.46 14.712 2.833 16.522 3.835C18.332 4.837 19.758 6.412 20.576 8.313C21.395 10.214 21.558 12.332 21.04 14.335C20.52 16.338 19.351 18.113 17.715 19.38C16.079 20.646 14.069 21.333 12 21.333Z" fill="#23C063"/>
<path d="M17.993 14.052L17.983 14.118C17.652 13.987 16.042 13.361 15.743 13.275C15.07 13.077 15.26 13.244 14.005 14.42C13.813 14.59 13.622 14.603 13.294 14.486C12.355 14.191 11.466 13.754 10.66 13.189C9.966 12.683 9.352 12.074 8.84 11.383C8.518 10.938 9.195 10.879 9.803 9.961C9.846 9.891 9.867 9.81 9.862 9.728C9.857 9.646 9.827 9.568 9.776 9.504C9.692 9.369 9.036 8.089 8.761 7.575C8.487 7.061 8.228 7.13 8.024 7.13C7.766 7.076 7.5 7.075 7.242 7.127C6.984 7.178 6.738 7.282 6.521 7.431C4.711 9.018 5.155 10.576 6.673 12.273C9.653 15.372 11.24 15.943 14.14 16.735C14.816 16.896 15.515 16.932 16.204 16.841C17.073 16.721 17.864 16.276 18.417 15.596C18.635 15.22 18.706 14.777 18.615 14.352C18.534 14.234 18.319 14.169 17.993 14.05V14.052Z" fill="white"/>
</g>
<defs>
<clipPath id="clip0_whatsapp">
<rect width="24" height="24" fill="white"/>
</clipPath>
</defs>
</svg>
