<svg width="24" height="24" viewBox="0 0 24 24" fill="none" xmlns="http://www.w3.org/2000/svg">
<g transform="scale(0.48)">
<g clip-path="url(#clip0_whatsapp)">
<path d="M42.7497 7.18516C38.0264 2.57897 31.69 0.000608015 25.0925 2.46819e-05C20.7394 -0.0061142 16.4613 1.133 12.6877 3.30294C8.91405 5.47288 5.77763 8.59735 3.59327 12.3627C1.40889 16.128 0.253472 20.4016 0.242944 24.7547C0.232417 29.1077 1.36716 33.3869 3.5333 37.1627L0 49.9997L13.1981 46.5572C16.8718 48.4924 20.9533 49.5258 25.1055 49.5719C47.2572 49.5719 58.2849 22.7722 42.7183 7.26666L42.7497 7.18516Z" fill="white"/>
<path d="M24.9996 44.4442H24.9571C21.1982 44.4345 17.5208 43.347 14.3609 41.3112L7.02388 43.2259L8.99052 36.0612L8.52202 35.3204C6.23424 31.6673 5.22516 27.3576 5.65332 23.0684C6.08149 18.7795 7.92263 14.7544 10.8874 11.6256C13.8522 8.49688 17.7725 6.44194 22.0324 5.78375C26.2921 5.12552 30.6499 5.90138 34.4207 7.98938C38.1915 10.0774 41.1615 13.3591 42.8643 17.3189C44.5671 21.2787 44.906 25.692 43.8273 29.8651C42.749 34.0384 40.3143 37.7351 36.9062 40.374C33.4982 43.0128 29.3101 44.4448 24.9996 44.4442Z" fill="#23C063"/>
<path d="M37.4844 29.2753L37.4641 29.4125C36.7752 29.1403 33.4216 27.8364 32.7975 27.6569C31.3955 27.2439 31.7919 27.5919 29.0939 30.0419C28.6939 30.3958 28.2955 30.4236 27.6122 30.1792C25.6558 29.5644 23.8053 28.6533 22.1253 27.4772C20.678 26.4219 19.3992 25.1533 18.3327 23.7142C17.6623 22.7883 19.0734 22.6642 20.34 20.7514C20.4303 20.6064 20.4733 20.4367 20.463 20.2661C20.4528 20.0958 20.3897 19.9325 20.2828 19.7994C20.1086 19.5181 18.742 16.8513 18.1697 15.781C17.5975 14.7106 17.0586 14.8551 16.6327 14.8551C16.0958 14.7419 15.5416 14.7391 15.0037 14.8467C14.4657 14.9543 13.9552 15.1701 13.5031 15.481C9.81422 18.7032 10.7401 22.0364 13.9031 25.568C20.1105 32.0253 23.4178 33.2141 29.4586 34.8641C30.8664 35.2 32.3239 35.2747 33.7586 35.0844C35.568 34.8347 37.2158 33.9083 38.3697 32.4919C38.8233 31.7086 38.97 30.7847 38.7808 29.8994C38.6122 29.653 38.1641 29.518 37.4844 29.2717V29.2753Z" fill="white"/>
</g>
</g>
<defs>
<clipPath id="clip0_whatsapp">
<rect width="50" height="50" fill="white"/>
</clipPath>
</defs>
</svg>
